<svg xmlns="http://www.w3.org/2000/svg" width="3000" height="760" viewBox="0 0 3000 760">
  <defs>
    <style>
      .cls-1 {
        fill: #f2f2f2;
      }

      .cls-1, .cls-2, .cls-3 {
        stroke: #000;
        stroke-miterlimit: 10;
      }

      .cls-2, .cls-3 {
        fill: #fff;
      }

      .cls-3 {
        stroke-width: 2px;
      }
    </style>
  </defs>
  <title>aartics_groups</title>
  <g id="_05stage" data-name="05stage">
    <polygon id="s63" class="cls-1" points="1538.5 192.5 1572.5 132.5 1557.5 104.5 1517.5 172.5 1538.5 192.5"/>
    <polygon id="_25" data-name="25" class="cls-2" points="1636.51 104.08 1557.17 104.08 1517.5 172.79 1557.17 241.5 1636.51 241.5 1676.17 172.79 1636.51 104.08"/>
    <polygon id="s41" class="cls-1" points="1393.5 240.5 1436.5 308.5 1399.5 303.5 1354.5 224.5 1393.5 240.5"/>
    <polygon id="s88" class="cls-1" points="2374.5 292.5 2273.5 292.5 2380.5 272.5 2501.5 272.5 2374.5 292.5"/>
    <polygon id="s40" class="cls-1" points="1358.5 380.5 1403.5 303.5 1437.5 310.5 1398.5 379.5 1358.5 380.5"/>
    <polygon id="s52" class="cls-1" points="1393.5 240.5 1433.5 169.5 1399.5 146.5 1354.5 224.5 1393.5 240.5"/>
    <polygon id="s60" class="cls-1" points="1671.5 460.5 1676.5 453.5 1633.5 525.5 1625.5 539.5 1671.5 460.5"/>
    <polygon id="s62" class="cls-1" points="1471.5 634.5 1537.5 567.5 1576.5 629.5 1519.5 717.5 1471.5 634.5"/>
    <polygon id="s59" class="cls-1" points="1613.5 381.5 1665.5 469.5 1676.5 453.5 1633.5 381.5 1613.5 381.5"/>
    <polygon id="s61" class="cls-1" points="1550.5 525.5 1633.5 525.5 1625.5 539.5 1617.5 550.5 1520.5 550.5 1550.5 525.5"/>
    <polygon id="s57" class="cls-1" points="1636.5 241.5 1676.5 172.5 1652.5 64.5 1592.5 169.5 1636.5 241.5"/>
    <polygon id="s56" class="cls-1" points="1668.5 298.5 1620.5 215.5 1592.5 169.5 1652.5 274.5 1668.5 298.5"/>
    <polygon id="s94" class="cls-1" points="2187.5 564.5 2222.5 625.5 2368.5 702.5 2322.5 622.5 2187.5 564.5"/>
    <polygon id="_42" data-name="42" class="cls-2" points="2461.48 541.5 2368.52 541.5 2322.05 622 2368.52 702.5 2461.48 702.5 2507.95 622 2461.48 541.5"/>
    <polygon id="_50" data-name="50" class="cls-2" points="2521.61 144.5 2431.54 144.5 2386.5 222.5 2431.54 300.51 2521.61 300.51 2566.64 222.5 2521.61 144.5"/>
    <polygon id="_49" data-name="49" class="cls-2" points="2512.96 301.5 2424.04 301.5 2379.59 378.5 2424.04 455.5 2512.96 455.5 2557.41 378.5 2512.96 301.5"/>
    <polygon id="_48" data-name="48" class="cls-2" points="2605.67 468.5 2502.33 468.5 2450.65 558 2502.33 647.5 2605.67 647.5 2657.35 558 2605.67 468.5"/>
    <polygon id="_51" data-name="51" class="cls-2" points="2475.05 50.5 2380.95 50.5 2333.89 132 2380.95 213.5 2475.05 213.5 2522.11 132 2475.05 50.5"/>
    <polygon id="s87" class="cls-1" points="2182.5 317.5 2222.5 255.5 2561.5 167.5 2501.5 272.5 2182.5 317.5"/>
    <polygon id="s90" class="cls-1" points="2294.5 255.5 2386.5 222.5 2431.5 300.5 2331.5 317.5 2294.5 255.5"/>
    <polygon id="s92" class="cls-1" points="2077.5 255.5 2320.5 167.5 2382.5 63.5 2111.5 192.5 2077.5 255.5"/>
    <polygon id="s91" class="cls-1" points="2240.5 296.5 2380.5 272.5 2320.5 168.5 2192.5 214.5 2240.5 296.5"/>
    <polygon id="s89" class="cls-1" points="2331.5 317.5 2424.5 301.5 2379.5 378.5 2294.5 379.5 2331.5 317.5"/>
    <polygon id="s85" class="cls-1" points="2447.5 621.5 2502.5 647.5 2450.5 557.5 2401.5 541.5 2447.5 621.5"/>
    <polygon id="s84" class="cls-1" points="2205.5 548.5 2173.5 538.5 2218.5 616.5 2254.5 633.5 2205.5 548.5"/>
    <polygon id="s82" class="cls-1" points="2075.5 468.5 2028.5 455.5 2057.5 524.5 2126.5 556.5 2075.5 468.5"/>
    <polygon id="s80" class="cls-1" points="2028.5 455.5 2072.5 379.5 2049.5 378.5 2010.5 449.5 2028.5 455.5"/>
    <polygon id="s79" class="cls-1" points="1972.5 468.5 1939.5 455.5 2028.5 455.5 2075.5 468.5 1972.5 468.5"/>
    <polygon id="s78" class="cls-1" points="1908.5 379.5 1895.5 379.5 1939.5 455.5 1956.5 462.5 1908.5 379.5"/>
    <polygon id="s77" class="cls-1" points="1901.5 704.5 1947.5 624.5 1895.5 566.5 1862.5 628.5 1901.5 704.5"/>
    <polygon id="s76" class="cls-1" points="2030.5 146.5 1972.5 193.5 2008.5 255.5 2075.5 223.5 2030.5 146.5"/>
    <polygon id="s75" class="cls-1" points="1905.5 51.5 1865.5 132.5 1901.5 193.5 1952.5 132.5 1905.5 51.5"/>
    <polygon id="s73" class="cls-1" points="1811.5 214.5 1797.5 241.5 1875.5 241.5 1905.5 214.5 1811.5 214.5"/>
    <polygon id="s70" class="cls-1" points="1765.5 293.5 1753.5 317.5 1790.5 379.5 1816.5 381.5 1765.5 293.5"/>
    <polygon id="s68" class="cls-1" points="1939.5 302.5 1942.5 300.5 2030.5 300.5 2028.5 302.5 1939.5 302.5"/>
    <polygon id="s66" class="cls-1" points="2466.5 463.5 2502.5 468.5 2450.5 557.5 2418.5 546.5 2466.5 463.5"/>
    <polygon id="s67" class="cls-1" points="2512.5 455.5 2605.5 468.5 2514.5 468.5 2424.5 455.5 2512.5 455.5"/>
    <polygon id="s97" class="cls-1" points="2137.5 524.5 2173.5 537.5 2218.5 459.5 2177.5 452.5 2137.5 524.5"/>
    <polygon id="s95" class="cls-1" points="2309.5 459.5 2274.5 463.5 2322.5 546.5 2354.5 538.5 2309.5 459.5"/>
    <polygon id="s93" class="cls-1" points="2354.5 538.5 2368.5 541.5 2322.5 622.5 2309.32 616.5 2354.5 538.5"/>
    <polygon id="s58" class="cls-1" points="1668.5 298.5 1664.5 293.5 1613.5 381.5 1621.5 381.5 1668.5 298.5"/>
    <polygon id="s35" class="cls-1" points="1492.5 303.5 1476.5 298.5 1524.5 381.5 1538.5 381.5 1492.5 303.5"/>
    <polygon id="s36" class="cls-1" points="1491.5 299.5 1535.5 225.5 1524.5 215.5 1476.5 298.5 1491.5 299.5"/>
    <polygon id="s83" class="cls-1" points="2106.5 548.5 2057.5 524.5 2137.5 524.5 2204.5 548.5 2106.5 548.5"/>
    <polygon id="_45" data-name="45" class="cls-2" points="2309.32 459.5 2218.68 459.5 2173.36 538 2218.68 616.5 2309.32 616.5 2354.64 538 2309.32 459.5"/>
    <polygon id="_39" data-name="39" class="cls-2" points="2028.31 302.5 1939.93 302.5 1895.74 379.04 1939.93 455.58 2028.31 455.58 2072.5 379.04 2028.31 302.5"/>
    <polygon id="_37" data-name="37" class="cls-2" points="2030.96 146.5 1942.04 146.5 1897.59 223.5 1942.04 300.5 2030.96 300.5 2075.41 223.5 2030.96 146.5"/>
    <polygon id="_36" data-name="36" class="cls-2" points="2191.84 214.5 2097.16 214.5 2049.82 296.5 2097.16 378.5 2191.84 378.5 2239.18 296.5 2191.84 214.5"/>
    <polygon id="s86" class="cls-1" points="2274.5 292.5 2380.5 272.5 2501.5 272.5 2375.5 292.5 2274.5 292.5"/>
    <polygon id="_44" data-name="44" class="cls-2" points="2501.33 63.5 2380.67 63.5 2320.33 168 2380.67 272.5 2501.33 272.5 2561.67 168 2501.33 63.5"/>
    <polygon id="_43" data-name="43" class="cls-2" points="2488.42 380.5 2392.58 380.5 2344.66 463.5 2392.58 546.5 2488.42 546.5 2536.34 463.5 2488.42 380.5"/>
    <polygon id="s96" class="cls-1" points="2273.5 467.96 2177.5 452.96 2137.5 379.5 2222.5 379.96 2273.5 467.96"/>
    <polygon id="_46" data-name="46" class="cls-2" points="2374.36 292.5 2273.33 292.5 2222.81 380 2273.33 467.5 2374.36 467.5 2424.88 380 2374.36 292.5"/>
    <polygon id="_47" data-name="47" class="cls-2" points="2204.57 548.5 2106.43 548.5 2057.35 633.5 2106.43 718.5 2204.57 718.5 2253.65 633.5 2204.57 548.5"/>
    <polygon id="s81" class="cls-1" points="2075.5 645.5 2057.5 633.5 2106.5 548.5 2126.5 557.5 2075.5 645.5"/>
    <polygon id="_26" data-name="26" class="cls-2" points="1492.67 303.5 1403.18 303.5 1358.43 381 1403.18 458.5 1492.67 458.5 1537.41 381 1492.67 303.5"/>
    <polygon id="_27" data-name="27" class="cls-2" points="1490.32 146.5 1399.68 146.5 1354.36 225 1399.68 303.5 1490.32 303.5 1535.64 225 1490.32 146.5"/>
    <polygon id="_28" data-name="28" class="cls-2" points="1620.42 215.5 1524.58 215.5 1476.66 298.5 1524.58 381.5 1620.42 381.5 1668.34 298.5 1620.42 215.5"/>
    <polygon id="_33" data-name="33" class="cls-2" points="1761.42 460.56 1670.81 460.56 1625.5 539.03 1670.81 617.5 1761.42 617.5 1806.72 539.03 1761.42 460.56"/>
    <polygon id="_32" data-name="32" class="cls-2" points="1901.48 543.5 1808.52 543.5 1762.05 624 1808.52 704.5 1901.48 704.5 1947.95 624 1901.48 543.5"/>
    <polygon id="_41" data-name="41" class="cls-2" points="1908.42 379.5 1812.58 379.5 1764.66 462.5 1812.58 545.5 1908.42 545.5 1956.34 462.5 1908.42 379.5"/>
    <polygon id="s74" class="cls-1" points="1905.5 214.5 1897.5 223.5 1940.5 146.5 1952.5 132.5 1905.5 214.5"/>
    <polygon id="_38" data-name="38" class="cls-2" points="1905.54 51.5 1811.62 51.5 1764.66 132.84 1811.62 214.17 1905.54 214.17 1952.5 132.84 1905.54 51.5"/>
    <polygon id="_40" data-name="40" class="cls-2" points="2075.09 468.5 1972.9 468.5 1921.81 557 1972.9 645.5 2075.09 645.5 2126.19 557 2075.09 468.5"/>
    <polygon id="s71" class="cls-1" points="1764.5 469.5 1753.5 441.5 1790.5 381.5 1816.5 381.5 1764.5 469.5"/>
    <polygon id="s69" class="cls-1" points="1834.5 169.5 1797.5 241.5 1755.5 311.5 1774.5 274.5 1834.5 169.5"/>
    <polygon id="_35" data-name="35" class="cls-2" points="1765.52 293.96 1664.17 293.96 1613.5 381.73 1664.17 469.5 1765.52 469.5 1816.19 381.73 1765.52 293.96"/>
    <polygon id="_34" data-name="34" class="cls-2" points="1617.79 550.5 1520.21 550.5 1471.43 635 1520.21 719.5 1617.79 719.5 1666.57 635 1617.79 550.5"/>
    <polygon id="s55" class="cls-1" points="1765.5 293.5 1774.5 274.5 1652.5 274.5 1664.5 293.96 1765.5 293.5"/>
    <polygon id="s72" class="cls-1" points="1774.5 64.5 1764.5 132.5 1811.5 214.5 1834.5 169.5 1774.5 64.5"/>
    <polygon id="_31" data-name="31" class="cls-2" points="1774.12 64.5 1652.88 64.5 1592.26 169.5 1652.88 274.5 1774.12 274.5 1834.74 169.5 1774.12 64.5"/>
    <polygon id="s110" class="cls-1" points="1035.5 193.5 1100.5 194.5 1101.5 186.5 1028.5 187.5 1035.5 193.5"/>
    <polygon id="s1" class="cls-1" points="286.5 147.5 378.5 147.5 451.5 181.5 375.5 182.5 286.5 147.5"/>
    <polygon id="_2" data-name="2" class="cls-2" points="376.11 -14.5 284.89 -14.5 239.28 64.5 284.89 143.5 376.11 143.5 421.72 64.5 376.11 -14.5"/>
    <polygon id="s33" class="cls-1" points="147.5 78.5 321.5 380.5 562.5 379.5 513.5 296.5 147.5 78.5"/>
    <polygon id="s32" class="cls-1" points="147.5 682.5 578.5 452.5 617.5 380.5 321.5 380.5 147.5 682.5"/>
    <polygon id="s3" class="cls-1" points="393.5 488.5 455.5 595.5 659.5 525.5 618.5 452.5 393.5 488.5"/>
    <polygon id="s20" class="cls-1" points="1019.5 170.5 1220.5 256.5 1253.5 193.5 1080.5 64.5 1019.5 170.5"/>
    <polygon id="s23" class="cls-1" points="1222.5 379.5 1257.5 442.5 1150.5 467.5 1099.5 380.5 1222.5 379.5"/>
    <polygon id="s50" class="cls-1" points="1017.5 380.5 1099.5 380.5 1150.5 467.5 1078.5 486.5 1017.5 380.5"/>
    <polygon id="s19" class="cls-1" points="470.5 215.5 560.5 215.5 453.5 197.5 348.5 197.5 470.5 215.5"/>
    <polygon id="s18" class="cls-1" points="441.5 169.5 578.5 206.5 628.5 292.5 502.5 273.5 441.5 169.5"/>
    <polygon id="s17" class="cls-1" points="695.5 379.5 578.5 380.5 628.5 292.5 730.5 319.5 695.5 379.5"/>
    <polygon id="s16" class="cls-1" points="695.5 379.5 731.5 440.5 628.5 467.5 578.5 380.5 695.5 379.5"/>
    <polygon id="s15" class="cls-1" points="744.5 524.5 659.5 524.5 590.5 549.5 685.5 549.5 744.5 524.5"/>
    <polygon id="s14" class="cls-1" points="463.5 490.5 731.5 440.5 699.5 504.5 400.5 598.5 463.5 490.5"/>
    <polygon id="s9" class="cls-1" points="1108.5 194.5 1068.5 173.5 1108.5 104.5 1144.5 131.5 1108.5 194.5"/>
    <polygon id="s8" class="cls-1" points="1108.5 194.5 1144.5 256.5 1108.5 242.5 1068.5 173.5 1108.5 194.5"/>
    <polygon id="s7" class="cls-1" points="1144.5 256.5 1220.5 256.5 1188.5 242.5 1108.5 242.5 1144.5 256.5"/>
    <polygon id="_9" data-name="9" class="cls-2" points="1095.2 57.28 1020.59 57.28 983.29 121.89 1020.59 186.5 1095.2 186.5 1132.5 121.89 1095.2 57.28"/>
    <polygon id="s48" class="cls-1" points="1108.5 317.5 1081.5 314.5 1120.5 246.5 1144.5 256.5 1108.5 317.5"/>
    <polygon id="s54" class="cls-1" points="886.5 76.5 989.5 121.5 1026.5 186.5 930.5 151.5 886.5 76.5"/>
    <polygon id="_10" data-name="10" class="cls-2" points="1081.97 179.5 1004.03 179.5 965.06 247 1004.03 314.5 1081.97 314.5 1120.94 247 1081.97 179.5"/>
    <polygon id="_5" data-name="5" class="cls-2" points="484.65 549.5 386.5 549.5 337.43 634.5 386.5 719.5 484.65 719.5 533.73 634.5 484.65 549.5"/>
    <polygon id="s43" class="cls-1" points="590.5 709.5 777.5 623.5 823.5 542.5 653.5 599.5 590.5 709.5"/>
    <polygon id="s53" class="cls-1" points="853.5 703.5 899.5 622.5 1037.5 567.5 1004.5 628.5 853.5 703.5"/>
    <polygon id="_14" data-name="14" class="cls-2" points="851.5 542.5 758.52 542.5 712.05 623 758.52 703.5 851.48 703.5 897.95 623 851.5 542.5"/>
    <polygon id="_13" data-name="13" class="cls-2" points="804.44 379.5 708.02 379.5 659.82 463 708.02 546.5 804.44 546.5 852.65 463 804.44 379.5"/>
    <polygon id="s29" class="cls-1" points="1329 567.5 1271.5 622.5 1318.5 703.5 1363.5 628.5 1329 567.5"/>
    <polygon id="_23" data-name="23" class="cls-2" points="1411.51 541.83 1318.17 541.83 1271.5 622.66 1318.17 703.5 1411.51 703.5 1458.18 622.66 1411.51 541.83"/>
    <polygon id="s27" class="cls-1" points="1364.5 503.5 1434.5 504.5 1409.5 541.5 1318.5 541.5 1364.5 503.5"/>
    <polygon id="s28" class="cls-1" points="1328.5 567.5 1364.5 503.5 1318.5 541.5 1271.5 622.5 1328.5 567.5"/>
    <polygon id="_19" data-name="19" class="cls-2" points="1266.86 462.96 1171.29 462.96 1123.5 545.73 1171.29 628.5 1266.86 628.5 1314.65 545.73 1266.86 462.96"/>
    <polygon id="s26" class="cls-1" points="961.5 756.5 1147.5 628.5 1109.5 567.5 909.5 661.5 961.5 756.5"/>
    <polygon id="_15" data-name="15" class="cls-2" points="928.1 469.5 825.29 469.5 773.89 558.53 825.29 647.57 928.1 647.57 979.5 558.53 928.1 469.5"/>
    <polygon id="s42" class="cls-1" points="886.5 227.5 964.5 247 1003.5 179.5 930.5 151.5 886.5 227.5"/>
    <polygon id="_8" data-name="8" class="cls-2" points="886.38 75.5 798.62 75.5 754.74 151.5 798.62 227.5 886.38 227.5 930.26 151.5 886.38 75.5"/>
    <polygon id="s2" class="cls-1" points="348.5 197.5 295.5 105.5 453.5 194.5 438.5 211.5 348.5 197.5"/>
    <polygon id="_6" data-name="6" class="cls-2" points="609.57 214.29 514.19 214.29 466.5 296.9 514.19 379.5 609.57 379.5 657.26 296.9 609.57 214.29"/>
    <polygon id="s45" class="cls-1" points="730.5 467.5 757.5 462.5 804.5 380.5 780.5 380 730.5 467.5"/>
    <polygon id="_12" data-name="12" class="cls-2" points="729.98 292.5 628.95 292.5 578.43 380 628.95 467.5 729.98 467.5 780.5 380 729.98 292.5"/>
    <polygon id="_11" data-name="11" class="cls-2" points="797.88 204.16 696.66 204.16 646.04 291.83 696.66 379.5 797.88 379.5 848.5 291.83 797.88 204.16"/>
    <polygon id="s100" class="cls-1" points="795.5 204.5 845.5 291.5 1004.5 314.5 965.5 247.5 795.5 204.5"/>
    <polygon id="s49" class="cls-1" points="876.5 280.5 1108.5 318.5 1144.5 380.51 933.5 380 876.5 280.5"/>
    <polygon id="s4" class="cls-1" points="628.5 292.5 503.5 274.5 621.5 273.5 730.5 291.5 628.5 292.5"/>
    <polygon id="_17" data-name="17" class="cls-2" points="1188.41 104.5 1108.74 104.5 1068.9 173.5 1108.74 242.5 1188.41 242.5 1228.25 173.5 1188.41 104.5"/>
    <polygon id="s34" class="cls-1" points="453.5 14.5 512.5 63.5 501.5 64.5 492.5 81.5 453.5 14.5"/>
    <polygon id="_3" data-name="3" class="cls-2" points="393.06 488.5 268.94 488.5 206.87 596 268.94 703.5 393.06 703.5 455.13 596 393.06 488.5"/>
    <polygon id="_4" data-name="4" class="cls-2" points="453.83 14.5 348.17 14.5 295.35 106 348.17 197.5 453.83 197.5 506.65 106 453.83 14.5"/>
    <polygon id="s107" class="cls-1" points="1201.5 64.5 1324.5 193.5 1360.5 256.5 1261.5 169.5 1201.5 64.5"/>
    <polygon id="s106" class="cls-1" points="1201.5 275.5 1261.5 169.5 1360.5 256.5 1326.5 317.5 1251.57 292.32 1201.5 275.5"/>
    <polygon id="s65" class="cls-1" points="967.5 558.5 1072.74 558.5 1065.5 567.5 956.5 567.5 967.5 558.5"/>
    <polygon id="s21" class="cls-1" points="1220.5 256.5 1256.5 317.5 1076.5 275.5 1015.5 170.5 1220.5 256.5"/>
    <polygon id="s30" class="cls-1" points="1150.5 292.5 1251.5 292.5 1200.5 275.5 1076.5 275.5 1150.5 292.5"/>
    <polygon id="s22" class="cls-1" points="1256.5 317.5 1222.5 379.5 1099.5 380.5 1150.5 292.5 1256.5 317.5"/>
    <polygon id="_24" data-name="24" class="cls-2" points="1200.91 64.5 1079.09 64.5 1018.18 170 1079.09 275.5 1200.91 275.5 1261.82 170 1200.91 64.5"/>
    <polygon id="s102" class="cls-1" points="1070.5 756.5 1221.5 626.5 1170.5 626.5 1125.5 662.5 1070.5 756.5"/>
    <polygon id="_21" data-name="21" class="cls-2" points="1070.56 567.5 961.44 567.5 906.88 662 961.44 756.5 1070.56 756.5 1125.12 662 1070.56 567.5"/>
    <polygon id="s64" class="cls-1" points="1125.5 662.5 1070.5 567.5 1122.5 545.5 1170.5 626.5 1125.5 662.5"/>
    <polygon id="s47" class="cls-1" points="621.5 273.5 683.5 169.5 778.5 204.5 729.5 292.5 621.5 273.5"/>
    <polygon id="s46" class="cls-1" points="623.5 64.5 683.5 169.5 780.5 204.5 837.15 204.16 806.5 151.5 623.5 64.5"/>
    <polygon id="s44" class="cls-1" points="653.5 599.5 804.5 546.5 757.5 462.5 590.5 490.5 653.5 599.5"/>
    <polygon id="s5" class="cls-1" points="730.5 467.5 590.5 490.5 463.5 490.5 628.5 467.5 730.5 467.5"/>
    <polygon id="s37" class="cls-1" points="1453.5 648.5 1458.5 622.5 1411.5 541.5 1400.5 558.5 1453.5 648.5"/>
    <polygon id="s109" class="cls-1" points="1554.5 634.5 1556.5 648.5 1608.5 558.5 1603.5 550.5 1554.5 634.5"/>
    <polygon id="s108" class="cls-1" points="1608.5 558.5 1589.5 527.5 1549.5 458.5 1557.5 469.5 1608.5 558.5"/>
    <polygon id="_29" data-name="29" class="cls-2" points="1556.67 469.5 1453.33 469.5 1401.65 559 1453.33 648.5 1556.67 648.5 1608.35 559 1556.67 469.5"/>
    <polygon id="s104" class="cls-1" points="1434.5 503.5 1460.5 458.5 1415.5 380.5 1363.5 381.5 1434.5 503.5"/>
    <polygon id="_7" data-name="7" class="cls-2" points="623.04 64.5 502.11 64.5 441.65 169.22 502.11 273.95 623.04 273.95 683.5 169.22 623.04 64.5"/>
    <polygon id="s105" class="cls-1" points="1326.5 317.5 1363.5 381.5 1302.5 380.5 1251.5 292.5 1326.5 317.5"/>
    <polygon id="_22" data-name="22" class="cls-2" points="1251.52 292.5 1150.48 292.5 1099.96 380 1150.48 467.5 1251.52 467.5 1302.04 380 1251.52 292.5"/>
    <polygon id="s103" class="cls-1" points="1453.5 469.5 1556.5 469.5 1549.5 458.5 1460.5 458.5 1453.5 469.5"/>
    <polygon id="s51" class="cls-1" points="1222.5 379.5 1151.5 503.5 1251.5 467.5 1302.5 380.5 1222.5 379.5"/>
    <polygon id="s101" class="cls-1" points="1017.5 591.5 1123.5 545.5 1170.5 462.5 1078.5 486.5 1017.5 591.5"/>
    <polygon id="s99" class="cls-1" points="590.5 549.5 455.5 595.5 393.5 703.5 534.5 634.5 590.5 549.5"/>
    <polygon id="_18" data-name="18" class="cls-2" points="590.3 490.5 463.86 490.5 400.64 600 463.86 709.5 590.3 709.5 653.52 600 590.3 490.5"/>
    <polygon id="_20" data-name="20" class="cls-2" points="1017.5 380.51 895.5 380.51 834.5 486.17 895.5 591.82 1017.5 591.82 1078.5 486.17 1017.5 380.51"/>
    <polygon id="_30" data-name="30" class="cls-2" points="1363.72 381.5 1222.28 381.5 1151.55 504 1222.28 626.5 1363.72 626.5 1434.45 504 1363.72 381.5"/>
    <polygon id="s98" class="cls-1" points="268.5 488.5 541.5 452.5 618.5 452.5 393.5 488.5 268.5 488.5"/>
    <polygon id="_16" data-name="16" class="cls-2" points="873.45 280.5 758.55 280.5 701.11 380 758.55 479.5 873.45 479.5 930.89 380 873.45 280.5"/>
    <polygon id="s11" class="cls-1" points="832.5 469.5 797.5 469.5 745.5 558.5 786.5 542.5 832.5 469.5"/>
    <polygon id="s10" class="cls-1" points="797.5 647.5 832.5 622.5 786.5 542.5 745.5 558.5 797.5 647.5"/>
    <polygon id="s6" class="cls-1" points="802.5 291.5 757.5 280.5 701.5 379.5 751.5 379.5 802.5 291.5"/>
    <polygon id="s12" class="cls-1" points="720.5 379.5 700.5 379.5 757.5 479.5 768.5 463.5 720.5 379.5"/>
    <polygon id="s25" class="cls-1" points="937.5 380.5 886.5 467.5 833.5 486.5 894.5 381.5 937.5 380.5"/>
    <polygon id="s24" class="cls-1" points="880.5 469.5 930.5 558.5 893.5 591.5 833.5 486.5 880.5 469.5"/>
    <polygon id="s31" class="cls-1" points="974.5 558.5 963.5 567.5 908.5 661.5 923.5 647.5 974.5 558.5"/>
    <polygon id="s38" class="cls-1" points="1267.5 462.5 1315.5 545.5 1222.5 626.5 1151.5 503.5 1267.5 462.5"/>
    <polygon id="_1" data-name="1" class="cls-3" points="319.5 380.72 145.01 682.95 -204.5 682.5 -379.5 380.5 -204.5 78.5 145.01 78.5 319.5 380.72"/>
  </g>
</svg>
