<svg id="_00landingstage" data-name="00landingstage" xmlns="http://www.w3.org/2000/svg" xmlns:xlink="http://www.w3.org/1999/xlink" width="3000" height="760" viewBox="0 0 3000 760">
  <defs>
    <clipPath id="clip-path">
      <polygon id="_7" data-name="7" points="1024.04 64.5 903.11 64.5 842.65 169.22 903.11 273.95 1024.04 273.95 1084.5 169.22 1024.04 64.5" style="fill: none;clip-rule: evenodd"/>
    </clipPath>
  </defs>
  <title>aartics_artboards_ungroupedfortest</title>
  <polygon id="s23" points="1222.5 379.5 1257.5 442.5 1331.5 467.5 1280.5 380.5 1222.5 379.5" style="fill: #f2f2f2;stroke: #000;stroke-miterlimit: 10"/>
  <polygon id="s48" points="1130.5 315.5 1145.5 312.5 1184.5 244.5 1166.5 254.5 1130.5 315.5" style="fill: #f2f2f2;stroke: #000;stroke-miterlimit: 10"/>
  <polygon id="s54" points="1071.5 75.5 1037.5 121.5 1074.5 186.5 1115.5 151.5 1071.5 75.5" style="fill: #f2f2f2;stroke: #000;stroke-miterlimit: 10"/>
  <polygon id="s43" points="1036.5 709.5 997.5 624.5 1041.5 547.5 1099.5 599.5 1036.5 709.5" style="fill: #f2f2f2;stroke: #000;stroke-miterlimit: 10"/>
  <polygon id="s53" points="1091.5 703.5 1138.5 622.5 1072.5 567.5 1037.5 628.5 1091.5 703.5" style="fill: #f2f2f2;stroke: #000;stroke-miterlimit: 10"/>
  <polygon id="s42" points="1071.5 228.5 1042.06 248 1081.5 180.5 1115.5 152.5 1071.5 228.5" style="fill: #f2f2f2;stroke: #000;stroke-miterlimit: 10"/>
  <polygon id="s100" points="1125.5 204.5 1176.5 291.5 1100.5 314.5 1061.5 247.5 1125.5 204.5" style="fill: #f2f2f2;stroke: #000;stroke-miterlimit: 10"/>
  <polygon id="s45" points="975.5 468.5 968.5 461.5 1016.5 378.5 1026.5 378.5 975.5 468.5" style="fill: #f2f2f2;stroke: #000;stroke-miterlimit: 10"/>
  <polygon id="s49" points="1352.5 280.49 1305.5 288.49 1367.5 380.5 1409.5 379.99 1352.5 280.49" style="fill: #f2f2f2;stroke: #000;stroke-miterlimit: 10"/>
  <polygon id="s34" points="825.5 14.5 830.5 55.5 835.5 65.5 855.5 65.5 825.5 14.5" style="fill: #f2f2f2;stroke: #000;stroke-miterlimit: 10"/>
  <polygon id="s47" points="1024.5 273.5 1084.5 169.5 1023.5 195.5 977.5 283.5 1024.5 273.5" style="fill: #f2f2f2;stroke: #000;stroke-miterlimit: 10"/>
  <polygon id="s46" points="1023.5 64.5 1083.5 169.5 1083.5 169.5 1007.5 256.5 971.5 193.5 1023.5 64.5" style="fill: #f2f2f2;stroke: #000;stroke-miterlimit: 10"/>
  <polygon id="s44" points="1100.5 602.5 1014.5 549.5 976.5 470.5 1037.5 493.5 1100.5 602.5" style="fill: #f2f2f2;stroke: #000;stroke-miterlimit: 10"/>
  <polygon id="s99" points="693.5 550.5 719.5 596.5 657.5 704.5 644.5 635.5 693.5 550.5" style="fill: #f2f2f2;stroke: #000;stroke-miterlimit: 10"/>
  <polygon id="s110" points="1046.5 191.5 1117.5 192.5 1139.5 177.5 1062.5 177.5 1046.5 191.5" style="fill: #f2f2f2;stroke: #000;stroke-miterlimit: 10"/>
  <polygon id="s28" points="1328.5 567.5 1364.5 503.5 1610.5 541.5 1563.5 622.5 1328.5 567.5" style="fill: #f2f2f2;stroke: #000;stroke-miterlimit: 10"/>
  <polygon id="s65" points="1292.5 558.5 1392.74 558.5 1426.5 567.5 1317.5 567.5 1292.5 558.5" style="fill: #f2f2f2;stroke: #000;stroke-miterlimit: 10"/>
  <polygon id="s63" points="1742.5 192.5 1776.5 132.5 1810.5 104.5 1770.5 172.5 1742.5 192.5" style="fill: #f2f2f2;stroke: #000;stroke-miterlimit: 10"/>
  <polygon id="_25" data-name="25" points="1889.51 104.08 1810.17 104.08 1770.5 172.79 1810.17 241.5 1889.51 241.5 1929.17 172.79 1889.51 104.08" style="fill: #fff;stroke: #000;stroke-miterlimit: 10"/>
  <polygon id="s41" points="1439.5 241.5 1471.5 317.5 1719.5 303.5 1674.5 224.5 1439.5 241.5" style="fill: #f2f2f2;stroke: #000;stroke-miterlimit: 10"/>
  <polygon id="s88" points="2578.5 292.5 2477.5 292.5 2584.5 272.5 2705.5 272.5 2578.5 292.5" style="fill: #f2f2f2;stroke: #000;stroke-miterlimit: 10"/>
  <polygon id="s40" points="1670.5 380.5 1715.5 303.5 1471.5 317.5 1434.5 379.5 1670.5 380.5" style="fill: #f2f2f2;stroke: #000;stroke-miterlimit: 10"/>
  <polygon id="s52" points="1434.5 241.5 1476.5 170.5 1719.5 146.5 1674.5 224.5 1434.5 241.5" style="fill: #f2f2f2;stroke: #000;stroke-miterlimit: 10"/>
  <polygon id="s98" points="532.5 491.5 601.5 455.5 678.5 455.5 657.5 491.5 532.5 491.5" style="fill: #f2f2f2;stroke: #000;stroke-miterlimit: 10"/>
  <polygon id="s60" points="1993.5 460.5 1951.5 453.5 1910.5 525.5 1948.5 539.5 1993.5 460.5" style="fill: #f2f2f2;stroke: #000;stroke-miterlimit: 10"/>
  <polygon id="s62" points="1758.5 634.5 1741.5 567.5 1834.5 634.5 1883.5 719.5 1758.5 634.5" style="fill: #f2f2f2;stroke: #000;stroke-miterlimit: 10"/>
  <polygon id="s59" points="1999.5 381.5 2050.5 469.5 1951.5 453.5 1910.5 381.73 1999.5 381.5" style="fill: #f2f2f2;stroke: #000;stroke-miterlimit: 10"/>
  <polygon id="s61" points="1827.5 525.5 1910.5 525.5 1948.48 539.07 1980.5 550.5 1883.5 550.5 1827.5 525.5" style="fill: #f2f2f2;stroke: #000;stroke-miterlimit: 10"/>
  <polygon id="s57" points="1889.5 241.5 1929.5 172.5 2159.5 64.5 2099.5 169.5 1889.5 241.5" style="fill: #f2f2f2;stroke: #000;stroke-miterlimit: 10"/>
  <polygon id="s56" points="2017.5 298.5 1969.42 215.5 2099.5 169.5 2159.5 274.5 2017.5 298.5" style="fill: #f2f2f2;stroke: #000;stroke-miterlimit: 10"/>
  <polygon id="s94" points="2391.5 564.5 2426.5 625.5 2572.5 702.5 2526.5 622.5 2391.5 564.5" style="fill: #f2f2f2;stroke: #000;stroke-miterlimit: 10"/>
  <polygon id="_42" data-name="42" points="2665.48 541.5 2572.52 541.5 2526.05 622 2572.52 702.5 2665.48 702.5 2711.95 622 2665.48 541.5" style="fill: #fff;stroke: #000;stroke-miterlimit: 10"/>
  <polygon id="_50" data-name="50" points="2725.61 144.5 2635.54 144.5 2590.5 222.5 2635.54 300.51 2725.61 300.51 2770.64 222.5 2725.61 144.5" style="fill: #fff;stroke: #000;stroke-miterlimit: 10"/>
  <polygon id="_49" data-name="49" points="2716.96 301.5 2628.04 301.5 2583.59 378.5 2628.04 455.5 2716.96 455.5 2761.41 378.5 2716.96 301.5" style="fill: #fff;stroke: #000;stroke-miterlimit: 10"/>
  <polygon id="_48" data-name="48" points="2809.67 468.5 2706.33 468.5 2654.65 558 2706.33 647.5 2809.67 647.5 2861.35 558 2809.67 468.5" style="fill: #fff;stroke: #000;stroke-miterlimit: 10"/>
  <polygon id="_51" data-name="51" points="2615.05 50.5 2520.95 50.5 2473.89 132 2520.95 213.5 2615.05 213.5 2662.11 132 2615.05 50.5" style="fill: #fff;stroke: #000;stroke-miterlimit: 10"/>
  <polygon id="s87" points="2386.5 317.5 2426.5 255.5 2765.5 167.5 2705.5 272.5 2386.5 317.5" style="fill: #f2f2f2;stroke: #000;stroke-miterlimit: 10"/>
  <polygon id="s90" points="2498.5 255.5 2590.5 222.5 2635.5 300.5 2535.5 317.5 2498.5 255.5" style="fill: #f2f2f2;stroke: #000;stroke-miterlimit: 10"/>
  <polygon id="s92" points="2402.5 214.5 2524.5 167.5 2586.5 63.5 2454.5 126.5 2402.5 214.5" style="fill: #f2f2f2;stroke: #000;stroke-miterlimit: 10"/>
  <polygon id="s91" points="2444.5 296.5 2584.5 272.5 2524.5 168.5 2396.5 214.5 2444.5 296.5" style="fill: #f2f2f2;stroke: #000;stroke-miterlimit: 10"/>
  <polygon id="s89" points="2535.5 317.5 2628.5 301.5 2583.5 378.5 2498.5 379.5 2535.5 317.5" style="fill: #f2f2f2;stroke: #000;stroke-miterlimit: 10"/>
  <polygon id="s85" points="2651.5 621.5 2706.5 647.5 2654.5 557.5 2605.5 541.5 2651.5 621.5" style="fill: #f2f2f2;stroke: #000;stroke-miterlimit: 10"/>
  <polygon id="s84" points="2409.5 548.5 2377.5 538.5 2422.5 616.5 2458.5 633.5 2409.5 548.5" style="fill: #f2f2f2;stroke: #000;stroke-miterlimit: 10"/>
  <polygon id="s82" points="2377.5 468.5 2288.5 455.5 2341.5 524.5 2430.5 556.5 2377.5 468.5" style="fill: #f2f2f2;stroke: #000;stroke-miterlimit: 10"/>
  <polygon id="s80" points="2185.5 455.5 2229.5 379.04 2222.5 378.5 2182.5 449.5 2185.5 455.5" style="fill: #f2f2f2;stroke: #000;stroke-miterlimit: 10"/>
  <polygon id="s79" points="2276.5 468.5 2196.5 455.5 2285.5 455.5 2379.5 468.5 2276.5 468.5" style="fill: #f2f2f2;stroke: #000;stroke-miterlimit: 10"/>
  <polygon id="s78" points="2112.5 379.5 2099.5 379.5 2143.5 455.5 2160.5 462.5 2112.5 379.5" style="fill: #f2f2f2;stroke: #000;stroke-miterlimit: 10"/>
  <polygon id="s77" points="2237.5 704.5 2283.5 624.5 2231.5 566.5 2198.5 628.5 2237.5 704.5" style="fill: #f2f2f2;stroke: #000;stroke-miterlimit: 10"/>
  <polygon id="s76" points="2234.5 146.5 2176.5 193.5 2212.5 255.5 2279.5 223.5 2234.5 146.5" style="fill: #f2f2f2;stroke: #000;stroke-miterlimit: 10"/>
  <polygon id="s75" points="2183.5 51.5 2143.5 132.5 2179.5 193.5 2230.5 132.5 2183.5 51.5" style="fill: #f2f2f2;stroke: #000;stroke-miterlimit: 10"/>
  <polygon id="s73" points="2170.5 214.5 2156.5 241.5 2234.5 241.5 2264.5 214.5 2170.5 214.5" style="fill: #f2f2f2;stroke: #000;stroke-miterlimit: 10"/>
  <polygon id="s70" points="1969.5 293.5 1957.5 317.5 1994.5 379.5 2020.5 381.5 1969.5 293.5" style="fill: #f2f2f2;stroke: #000;stroke-miterlimit: 10"/>
  <polygon id="s68" points="2199.5 302.5 2202.5 300.5 2290.5 300.5 2288.5 302.5 2199.5 302.5" style="fill: #f2f2f2;stroke: #000;stroke-miterlimit: 10"/>
  <polygon id="s66" points="2670.5 463.5 2706.5 468.5 2654.5 557.5 2622.5 546.5 2670.5 463.5" style="fill: #f2f2f2;stroke: #000;stroke-miterlimit: 10"/>
  <polygon id="s67" points="2716.5 455.5 2809.5 468.5 2718.5 468.5 2628.5 455.5 2716.5 455.5" style="fill: #f2f2f2;stroke: #000;stroke-miterlimit: 10"/>
  <polygon id="s97" points="2341.5 524.5 2377.5 537.5 2422.5 459.5 2381.5 452.5 2341.5 524.5" style="fill: #f2f2f2;stroke: #000;stroke-miterlimit: 10"/>
  <polygon id="s95" points="2459.5 459.5 2478.5 463.5 2526.5 546.5 2504.5 538.5 2459.5 459.5" style="fill: #f2f2f2;stroke: #000;stroke-miterlimit: 10"/>
  <polygon id="s93" points="2558.5 538.5 2572.5 541.5 2526.5 622.5 2513.32 616.5 2558.5 538.5" style="fill: #f2f2f2;stroke: #000;stroke-miterlimit: 10"/>
  <polygon id="s58" points="2017.5 298.5 2050.5 293.5 1999.5 381.5 1969.42 381.5 2017.5 298.5" style="fill: #f2f2f2;stroke: #000;stroke-miterlimit: 10"/>
  <polygon id="s35" points="1805.5 303.5 1825.5 298.5 1873.5 381.5 1849.5 381.5 1805.5 303.5" style="fill: #f2f2f2;stroke: #000;stroke-miterlimit: 10"/>
  <polygon id="s36" points="1810.5 303.5 1855.5 224.5 1873.5 215.5 1825.5 298.5 1810.5 303.5" style="fill: #f2f2f2;stroke: #000;stroke-miterlimit: 10"/>
  <polygon id="s83" points="2310.5 548.5 2261.5 524.5 2341.5 524.5 2408.5 548.5 2310.5 548.5" style="fill: #f2f2f2;stroke: #000;stroke-miterlimit: 10"/>
  <polygon id="_45" data-name="45" points="2513.32 459.5 2422.68 459.5 2377.36 538 2422.68 616.5 2513.32 616.5 2558.64 538 2513.32 459.5" style="fill: #fff;stroke: #000;stroke-miterlimit: 10"/>
  <polygon id="_39" data-name="39" points="2285.31 302.5 2196.93 302.5 2152.74 379.04 2196.93 455.58 2285.31 455.58 2329.5 379.04 2285.31 302.5" style="fill: #fff;stroke: #000;stroke-miterlimit: 10"/>
  <polygon id="_37" data-name="37" points="2294.96 146.5 2206.04 146.5 2161.59 223.5 2206.04 300.5 2294.96 300.5 2339.41 223.5 2294.96 146.5" style="fill: #fff;stroke: #000;stroke-miterlimit: 10"/>
  <polygon id="_36" data-name="36" points="2471.84 214.5 2377.16 214.5 2329.82 296.5 2377.16 378.5 2471.84 378.5 2519.18 296.5 2471.84 214.5" style="fill: #fff;stroke: #000;stroke-miterlimit: 10"/>
  <polygon id="s86" points="2478.5 293.5 2584.5 273.5 2705.5 273.5 2579.5 293.5 2478.5 293.5" style="fill: #f2f2f2;stroke: #000;stroke-miterlimit: 10"/>
  <polygon id="_44" data-name="44" points="2705.33 64.5 2584.67 64.5 2524.33 169 2584.67 273.5 2705.33 273.5 2765.67 169 2705.33 64.5" style="fill: #fff;stroke: #000;stroke-miterlimit: 10"/>
  <polygon id="_43" data-name="43" points="2692.42 381.5 2596.58 381.5 2548.66 464.5 2596.58 547.5 2692.42 547.5 2740.34 464.5 2692.42 381.5" style="fill: #fff;stroke: #000;stroke-miterlimit: 10"/>
  <polygon id="s96" points="2477.5 468.96 2381.5 453.96 2341.5 380.5 2426.5 380.96 2477.5 468.96" style="fill: #f2f2f2;stroke: #000;stroke-miterlimit: 10"/>
  <polygon id="_46" data-name="46" points="2578.36 293.5 2477.33 293.5 2426.81 381 2477.33 468.5 2578.36 468.5 2628.88 381 2578.36 293.5" style="fill: #fff;stroke: #000;stroke-miterlimit: 10"/>
  <polygon id="_47" data-name="47" points="2408.57 549.5 2310.43 549.5 2261.35 634.5 2310.43 719.5 2408.57 719.5 2457.65 634.5 2408.57 549.5" style="fill: #fff;stroke: #000;stroke-miterlimit: 10"/>
  <polygon id="s81" points="2361.5 646.5 2359.5 634.5 2408.5 549.5 2412.5 558.5 2361.5 646.5" style="fill: #f2f2f2;stroke: #000;stroke-miterlimit: 10"/>
  <polygon id="_26" data-name="26" points="1804.67 303.5 1715.18 303.5 1670.43 381 1715.18 458.5 1804.67 458.5 1849.41 381 1804.67 303.5" style="fill: #fff;stroke: #000;stroke-miterlimit: 10"/>
  <polygon id="_27" data-name="27" points="1810.32 146.5 1719.68 146.5 1674.36 225 1719.68 303.5 1810.32 303.5 1855.64 225 1810.32 146.5" style="fill: #fff;stroke: #000;stroke-miterlimit: 10"/>
  <polygon id="_28" data-name="28" points="1969.42 215.5 1873.58 215.5 1825.66 298.5 1873.58 381.5 1969.42 381.5 2017.34 298.5 1969.42 215.5" style="fill: #fff;stroke: #000;stroke-miterlimit: 10"/>
  <polygon id="_33" data-name="33" points="2084.42 460.56 1993.81 460.56 1948.5 539.03 1993.81 617.5 2084.42 617.5 2129.72 539.03 2084.42 460.56" style="fill: #fff;stroke: #000;stroke-miterlimit: 10"/>
  <polygon id="_32" data-name="32" points="2237.48 543.5 2144.52 543.5 2098.05 624 2144.52 704.5 2237.48 704.5 2283.95 624 2237.48 543.5" style="fill: #fff;stroke: #000;stroke-miterlimit: 10"/>
  <polygon id="_41" data-name="41" points="2191.42 379.5 2095.58 379.5 2047.66 462.5 2095.58 545.5 2191.42 545.5 2239.34 462.5 2191.42 379.5" style="fill: #fff;stroke: #000;stroke-miterlimit: 10"/>
  <polygon id="s74" points="2199.5 215.5 2191.5 224.5 2234.5 147.5 2246.5 133.5 2199.5 215.5" style="fill: #f2f2f2;stroke: #000;stroke-miterlimit: 10"/>
  <polygon id="_38" data-name="38" points="2273.54 51.5 2179.62 51.5 2132.66 132.84 2179.62 214.17 2273.54 214.17 2320.5 132.84 2273.54 51.5" style="fill: #fff;stroke: #000;stroke-miterlimit: 10"/>
  <polygon id="_40" data-name="40" points="2379.09 468.5 2276.91 468.5 2225.81 557 2276.91 645.5 2379.09 645.5 2430.19 557 2379.09 468.5" style="fill: #fff;stroke: #000;stroke-miterlimit: 10"/>
  <polygon id="s71" points="2148.5 470.5 2137.5 442.5 2174.5 382.5 2200.5 382.5 2148.5 470.5" style="fill: #f2f2f2;stroke: #000;stroke-miterlimit: 10"/>
  <polygon id="s69" points="2341.5 169.5 2214.5 193.5 2151.5 293.5 2281.5 274.5 2341.5 169.5" style="fill: #f2f2f2;stroke: #000;stroke-miterlimit: 10"/>
  <polygon id="_35" data-name="35" points="2151.52 293.96 2050.17 293.96 1999.5 381.73 2050.17 469.5 2151.52 469.5 2202.19 381.73 2151.52 293.96" style="fill: #fff;stroke: #000;stroke-miterlimit: 10"/>
  <polygon id="_34" data-name="34" points="1980.79 550.5 1883.21 550.5 1834.43 635 1883.21 719.5 1980.79 719.5 2029.57 635 1980.79 550.5" style="fill: #fff;stroke: #000;stroke-miterlimit: 10"/>
  <polygon id="s55" points="2151.5 293.5 2281.5 274.5 2159.5 274.5 2050.17 293.96 2151.5 293.5" style="fill: #f2f2f2;stroke: #000;stroke-miterlimit: 10"/>
  <polygon id="s72" points="2279.5 65.5 2269.5 133.5 2316.5 215.5 2339.5 170.5 2279.5 65.5" style="fill: #f2f2f2;stroke: #000;stroke-miterlimit: 10"/>
  <polygon id="_31" data-name="31" points="2281.12 64.5 2159.88 64.5 2099.26 169.5 2159.88 274.5 2281.12 274.5 2341.74 169.5 2281.12 64.5" style="fill: #fff;stroke: #000;stroke-miterlimit: 10"/>
  <polygon id="s20" points="1500.5 169.5 1220.5 256.5 1256.5 193.5 1561.5 64.5 1500.5 169.5" style="fill: #f2f2f2;stroke: #000;stroke-miterlimit: 10"/>
  <polygon id="s50" points="1500.5 380.5 1388.5 380.5 1437.5 462.5 1561.5 486.5 1500.5 380.5" style="fill: #f2f2f2;stroke: #000;stroke-miterlimit: 10"/>
  <polygon id="s29" points="1328.5 567.5 1563.5 622.5 1610.5 703.5 1364.5 628.5 1328.5 567.5" style="fill: #f2f2f2;stroke: #000;stroke-miterlimit: 10"/>
  <polygon id="_23" data-name="23" points="1703.51 541.83 1610.17 541.83 1563.5 622.66 1610.17 703.5 1703.51 703.5 1750.18 622.66 1703.51 541.83" style="fill: #fff;stroke: #000;stroke-miterlimit: 10"/>
  <polygon id="s27" points="1364.5 503.5 1435.5 503.5 1703.5 541.5 1610.5 541.5 1364.5 503.5" style="fill: #f2f2f2;stroke: #000;stroke-miterlimit: 10"/>
  <polygon id="_19" data-name="19" points="1496.86 462.96 1401.29 462.96 1353.5 545.73 1401.29 628.5 1496.86 628.5 1544.65 545.73 1496.86 462.96" style="fill: #fff;stroke: #000;stroke-miterlimit: 10"/>
  <polygon id="s107" points="1683.5 64.5 1510.5 193.5 1547.5 256.5 1744.5 169.5 1683.5 64.5" style="fill: #f2f2f2;stroke: #000;stroke-miterlimit: 10"/>
  <polygon id="s106" points="1683.5 275.5 1744.5 169.5 1584.5 237.5 1542.5 292.5 1542.5 292.5 1683.5 275.5" style="fill: #f2f2f2;stroke: #000;stroke-miterlimit: 10"/>
  <polygon id="s21" points="1220.5 256.5 1256.5 317.5 1561.5 275.5 1500.5 169.5 1220.5 256.5" style="fill: #f2f2f2;stroke: #000;stroke-miterlimit: 10"/>
  <polygon id="s30" points="1256.5 317.5 1330.5 317.5 1682.5 275.5 1561.5 275.5 1256.5 317.5" style="fill: #f2f2f2;stroke: #000;stroke-miterlimit: 10"/>
  <polygon id="_24" data-name="24" points="1682.91 64.5 1561.09 64.5 1500.18 170 1561.09 275.5 1682.91 275.5 1743.82 170 1682.91 64.5" style="fill: #fff;stroke: #000;stroke-miterlimit: 10"/>
  <polygon id="s102" points="1427.5 756.5 1401.5 626.5 1461.5 626.5 1482.5 662.5 1427.5 756.5" style="fill: #f2f2f2;stroke: #000;stroke-miterlimit: 10"/>
  <polygon id="s64" points="1482.5 661.5 1426.5 567.5 1392.5 558.5 1426.5 626.5 1482.5 661.5" style="fill: #f2f2f2;stroke: #000;stroke-miterlimit: 10"/>
  <polygon id="_21" data-name="21" points="1427.56 567.5 1318.44 567.5 1263.88 662 1318.44 756.5 1427.56 756.5 1482.12 662 1427.56 567.5" style="fill: #fff;stroke: #000;stroke-miterlimit: 10"/>
  <polygon id="s37" points="1731.5 648.5 1676.5 622.5 1575.5 541.5 1625.5 558.5 1731.5 648.5" style="fill: #f2f2f2;stroke: #000;stroke-miterlimit: 10"/>
  <polygon id="s109" points="1748.5 634.5 1750.5 648.5 1802.5 558.5 1797.5 550.5 1748.5 634.5" style="fill: #f2f2f2;stroke: #000;stroke-miterlimit: 10"/>
  <polygon id="s108" points="1801.5 558.5 1708.5 527.5 1663.5 455.5 1749.5 469.5 1801.5 558.5" style="fill: #f2f2f2;stroke: #000;stroke-miterlimit: 10"/>
  <polygon id="_29" data-name="29" points="1834.67 469.5 1731.33 469.5 1679.65 559 1731.33 648.5 1834.67 648.5 1886.35 559 1834.67 469.5" style="fill: #fff;stroke: #000;stroke-miterlimit: 10"/>
  <polygon id="s38" points="1493.5 473.5 1544.5 545.5 1642.5 626.5 1573.5 503.5 1493.5 473.5" style="fill: #f2f2f2;stroke: #000;stroke-miterlimit: 10"/>
  <polygon id="s105" points="1529.5 317.5 1566.5 381.5 1591.5 380.5 1542.5 292.5 1529.5 317.5" style="fill: #f2f2f2;stroke: #000;stroke-miterlimit: 10"/>
  <polygon id="_22" data-name="22" points="1540.52 292.5 1439.48 292.5 1388.96 380 1439.48 467.5 1540.52 467.5 1591.04 380 1540.52 292.5" style="fill: #fff;stroke: #000;stroke-miterlimit: 10"/>
  <polygon id="s103" points="1646.5 469.5 1749.5 469.5 1661.5 458.5 1563.5 458.5 1646.5 469.5" style="fill: #f2f2f2;stroke: #000;stroke-miterlimit: 10"/>
  <polyline id="s51" points="1571.5 503.5 1530.5 482.5 1591.5 380.5 1642.5 381.5 1571.5 503.5" style="fill: #f2f2f2;stroke: #000;stroke-miterlimit: 10"/>
  <polygon id="s101" points="1500.5 591.5 1398 541 1437.5 462.5 1561.5 486.5 1500.5 591.5" style="fill: #f2f2f2;stroke: #000;stroke-miterlimit: 10"/>
  <polygon id="_20" data-name="20" points="1500.5 380.51 1378.5 380.51 1317.5 486.17 1378.5 591.82 1500.5 591.82 1561.5 486.17 1500.5 380.51" style="fill: #fff;stroke: #000;stroke-miterlimit: 10"/>
  <polygon id="s104" points="1856.5 503.5 1726.5 458.5 1681.5 380.5 1785.5 381.5 1856.5 503.5" style="fill: #f2f2f2;stroke: #000;stroke-miterlimit: 10"/>
  <polygon id="_30" data-name="30" points="1784.72 381.5 1643.28 381.5 1572.55 504 1643.28 626.5 1784.72 626.5 1855.45 504 1784.72 381.5" style="fill: #fff;stroke: #000;stroke-miterlimit: 10"/>
  <polygon id="s33" points="547.5 78.5 721.5 380.5 721.5 380.5 684.5 317.5 547.5 78.5" style="fill: #f2f2f2;stroke: #000;stroke-miterlimit: 10"/>
  <polygon id="s32" points="547.5 682.5 679.5 453.5 721.5 380.5 721.5 380.5 547.5 682.5" style="fill: #f2f2f2;stroke: #000;stroke-miterlimit: 10"/>
  <polygon id="s19" points="719.5 214.5 815.5 214.5 825.5 196.5 719.5 196.5 719.5 214.5" style="fill: #f2f2f2;stroke: #000;stroke-miterlimit: 10"/>
  <polygon id="s18" points="842.5 169.5 815.5 214.5 863.5 296.5 903.5 273.5 842.5 169.5" style="fill: #f2f2f2;stroke: #000;stroke-miterlimit: 10"/>
  <polygon id="s17" points="815.5 379.5 822.5 379.5 872.95 292.5 863.5 296.5 815.5 379.5" style="fill: #f2f2f2;stroke: #000;stroke-miterlimit: 10"/>
  <polygon id="s16" points="802.5 379.5 845.5 452.5 872.5 467.5 822.5 379.5 802.5 379.5" style="fill: #f2f2f2;stroke: #000;stroke-miterlimit: 10"/>
  <polygon id="s15" points="803.5 524.5 720.5 524.5 720.5 549.5 817.5 549.5 803.5 524.5" style="fill: #f2f2f2;stroke: #000;stroke-miterlimit: 10"/>
  <polygon id="s14" points="909.5 490.5 845.5 452.5 803.5 524.5 846.5 599.5 909.5 490.5" style="fill: #f2f2f2;stroke: #000;stroke-miterlimit: 10"/>
  <polygon id="s11" points="1154.5 462.5 1184.54 468.65 1132.5 558.5 1106.5 546.5 1154.5 462.5" style="fill: #f2f2f2;stroke: #000;stroke-miterlimit: 10"/>
  <polygon id="s26" points="1317.5 756.5 1149.5 628.5 1114.5 567.5 1263.5 661.5 1317.5 756.5" style="fill: #f2f2f2;stroke: #000;stroke-miterlimit: 10"/>
  <polygon id="s25" points="1347.89 380 1290.5 479.5 1317.5 486.5 1378.5 380.5 1347.89 380" style="fill: #f2f2f2;stroke: #000;stroke-miterlimit: 10"/>
  <polygon id="s31" points="1292.5 558.5 1317.5 567.5 1263.5 661.5 1241.5 647.5 1292.5 558.5" style="fill: #f2f2f2;stroke: #000;stroke-miterlimit: 10"/>
  <polygon id="s24" points="1241.5 469.5 1292.5 558.5 1378.5 591.5 1317.5 486.5 1241.5 469.5" style="fill: #f2f2f2;stroke: #000;stroke-miterlimit: 10"/>
  <polygon id="s22" points="1256.5 317.5 1222.5 379.5 1388.96 380 1439.48 292.5 1256.5 317.5" style="fill: #f2f2f2;stroke: #000;stroke-miterlimit: 10"/>
  <polygon id="s10" points="1184.5 647.5 1138.5 623.5 1090.5 538.5 1132.5 558.5 1184.5 647.5" style="fill: #f2f2f2;stroke: #000;stroke-miterlimit: 10"/>
  <polygon id="s9" points="1130.5 186.5 1157.5 173.5 1197.5 104.5 1167.5 121.5 1130.5 186.5" style="fill: #f2f2f2;stroke: #000;stroke-miterlimit: 10"/>
  <polygon id="s8" points="1144.5 179.5 1182.5 246.5 1197.5 242.5 1157.5 173.5 1144.5 179.5" style="fill: #f2f2f2;stroke: #000;stroke-miterlimit: 10"/>
  <polygon id="s7" points="1146.5 256.5 1222.5 256.5 1277.5 242.5 1197.5 242.5 1146.5 256.5" style="fill: #f2f2f2;stroke: #000;stroke-miterlimit: 10"/>
  <polygon id="s6" points="1176.5 291.5 1237.5 280.5 1180.5 379.5 1125.88 379.5 1176.5 291.5" style="fill: #f2f2f2;stroke: #000;stroke-miterlimit: 10"/>
  <polygon id="s1" points="582.5 143.5 674.5 143.5 680.5 178.5 604.75 178.5 582.5 143.5" style="fill: #f2f2f2;stroke: #000;stroke-miterlimit: 10"/>
  <polygon id="_5" data-name="5" points="817.65 549.5 719.5 549.5 670.43 634.5 719.5 719.5 817.65 719.5 866.73 634.5 817.65 549.5" style="fill: #fff;stroke: #000;stroke-miterlimit: 10"/>
  <polygon id="_2" data-name="2" points="674.11 -14.5 582.89 -14.5 537.28 64.5 582.89 143.5 674.11 143.5 719.72 64.5 674.11 -14.5" style="fill: #fff;stroke: #000;stroke-miterlimit: 10"/>
  <polygon id="_14" data-name="14" points="1092.48 542.5 999.52 542.5 953.05 623 999.52 703.5 1092.48 703.5 1138.95 623 1092.48 542.5" style="fill: #fff;stroke: #000;stroke-miterlimit: 10"/>
  <polygon id="_13" data-name="13" points="1106.44 379.5 1010.02 379.5 961.82 463 1010.02 546.5 1106.44 546.5 1154.65 463 1106.44 379.5" style="fill: #fff;stroke: #000;stroke-miterlimit: 10"/>
  <polygon id="_15" data-name="15" points="1287.1 469.5 1184.29 469.5 1132.89 558.53 1184.29 647.57 1287.1 647.57 1338.5 558.53 1287.1 469.5" style="fill: #fff;stroke: #000;stroke-miterlimit: 10"/>
  <polygon id="s12" points="1106.5 379.5 1180.5 379.5 1237.5 479.5 1154.5 462.5 1106.5 379.5" style="fill: #f2f2f2;stroke: #000;stroke-miterlimit: 10"/>
  <polygon id="_9" data-name="9" points="1130.2 57.28 1055.59 57.28 1018.29 121.89 1055.59 186.5 1130.2 186.5 1167.5 121.89 1130.2 57.28" style="fill: #fff;stroke: #000;stroke-miterlimit: 10"/>
  <polygon id="_8" data-name="8" points="1072.38 75.5 984.62 75.5 940.74 151.5 984.62 227.5 1072.38 227.5 1116.26 151.5 1072.38 75.5" style="fill: #fff;stroke: #000;stroke-miterlimit: 10"/>
  <polygon id="_12" data-name="12" points="973.98 292.5 872.95 292.5 822.43 380 872.95 467.5 973.98 467.5 1024.5 380 973.98 292.5" style="fill: #fff;stroke: #000;stroke-miterlimit: 10"/>
  <polygon id="_10" data-name="10" points="1143.97 179.5 1066.03 179.5 1027.06 247 1066.03 314.5 1143.97 314.5 1182.94 247 1143.97 179.5" style="fill: #fff;stroke: #000;stroke-miterlimit: 10"/>
  <polygon id="_11" data-name="11" points="1125.88 204.16 1024.66 204.16 974.04 291.83 1024.66 379.5 1125.88 379.5 1176.5 291.83 1125.88 204.16" style="fill: #fff;stroke: #000;stroke-miterlimit: 10"/>
  <polygon id="s5" points="974.5 467.5 1036.5 490.5 909.5 490.5 871.5 467.5 974.5 467.5" style="fill: #f2f2f2;stroke: #000;stroke-miterlimit: 10"/>
  <polygon id="s4" points="871.5 292.5 903.5 273.5 1024.5 273.5 974.5 292.5 871.5 292.5" style="fill: #f2f2f2;stroke: #000;stroke-miterlimit: 10"/>
  <polygon id="_17" data-name="17" points="1277.41 104.5 1197.74 104.5 1157.9 173.5 1197.74 242.5 1277.41 242.5 1317.25 173.5 1277.41 104.5" style="fill: #fff;stroke: #000;stroke-miterlimit: 10"/>
  <polygon id="_4" data-name="4" points="825.83 13.5 720.17 13.5 667.35 105 720.17 196.5 825.83 196.5 878.65 105 825.83 13.5" style="fill: #fff;stroke: #000;stroke-miterlimit: 10"/>
  <polygon id="s3" points="658.5 488.5 720.5 596.5 720.5 525.5 679.5 453.5 658.5 488.5" style="fill: #f2f2f2;stroke: #000;stroke-miterlimit: 10"/>
  <polygon id="_3" data-name="3" points="658.07 488.5 533.93 488.5 471.87 596 533.93 703.5 658.07 703.5 720.13 596 658.07 488.5" style="fill: #fff;stroke: #000;stroke-miterlimit: 10"/>
  <polygon id="s2" points="680.5 178.5 667.5 104.5 719.5 196.5 719.5 245.5 680.5 178.5" style="fill: #f2f2f2;stroke: #000;stroke-miterlimit: 10"/>
  <polygon id="_6" data-name="6" points="815.57 214.29 720.19 214.29 672.5 296.9 720.19 379.5 815.57 379.5 863.26 296.9 815.57 214.29" style="fill: #fff;stroke: #000;stroke-miterlimit: 10"/>
  <g style="clip-path: url(#clip-path)">
    <image width="400" height="400" transform="translate(837 63) scale(0.63)" xlink:href="https://farm9.static.flickr.com/8093/8562521703_8bdfd134f3_b.jpg"/>
  </g>
  <polygon id="_1" data-name="1" points="722.5 380.72 548.01 682.95 198.5 682.5 23.5 380.5 198.5 78.5 548.01 78.5 722.5 380.72" style="fill: #fff;stroke: #000;stroke-miterlimit: 10;stroke-width: 2px"/>
  <polygon id="_18" data-name="18" points="1036.3 490.5 909.86 490.5 846.64 600 909.86 709.5 1036.3 709.5 1099.52 600 1036.3 490.5" style="fill: #fff;stroke: #000;stroke-miterlimit: 10;stroke-width: 2px"/>
  <polygon id="_16" data-name="16" points="1352.45 280.5 1237.55 280.5 1180.11 380 1237.55 479.5 1352.45 479.5 1409.89 380 1352.45 280.5" style="fill: #fff;stroke: #000;stroke-miterlimit: 10;stroke-width: 2px"/>
  <g id="t04">
    <text transform="translate(920 171.9)" style="font-size: 25px;font-family: ArialMT, Arial">resonate</text>
  </g>
  <g id="t01">
    <text transform="translate(492 388.96)" style="font-size: 60px;font-family: ArialMT, Arial">aartics</text>
  </g>
  <g id="t02">
    <text transform="translate(495 421.9)" style="font-size: 25px;font-family: ArialMT, Arial">@gmail.com</text>
  </g>
  <g id="t05">
    <text transform="translate(906 613.9)" style="font-size: 25px;font-family: ArialMT, Arial">wolf and lion</text>
  </g>
  <g id="t06">
    <text transform="translate(1206 370.9)" style="font-size: 25px;font-family: ArialMT, Arial">san francisco</text>
  </g>
  <g id="t07">
    <text transform="translate(1206 400.11)" style="font-size: 25px;font-family: ArialMT, Arial">arts commission</text>
  </g>
</svg>
