<svg xmlns="http://www.w3.org/2000/svg" width="3000" height="760" viewBox="0 0 3000 760">
  <title>aartics_artboards_ungroupedfortest</title>
  <g id="_02stage" data-name="02stage">
    <polygon id="s63" points="1602.5 192.5 1636.5 132.5 1670.5 104.5 1630.5 172.5 1602.5 192.5" style="fill: #f2f2f2;stroke: #000;stroke-miterlimit: 10"/>
    <polygon id="_25" data-name="25" points="1749.51 104.08 1670.17 104.08 1630.5 172.79 1670.17 241.5 1749.51 241.5 1789.17 172.79 1749.51 104.08" style="fill: #fff;stroke: #000;stroke-miterlimit: 10"/>
    <polygon id="s41" points="1437.5 256.5 1473.5 318.5 1579.5 303.5 1534.5 224.5 1437.5 256.5" style="fill: #f2f2f2;stroke: #000;stroke-miterlimit: 10"/>
    <polygon id="s40" points="1530.5 380.5 1575.5 303.5 1473.5 318.5 1436.5 380.5 1530.5 380.5" style="fill: #f2f2f2;stroke: #000;stroke-miterlimit: 10"/>
    <polygon id="s88" points="2438.5 292.5 2337.5 292.5 2444.5 272.5 2565.5 272.5 2438.5 292.5" style="fill: #f2f2f2;stroke: #000;stroke-miterlimit: 10"/>
    <polygon id="s52" points="1437.5 256.5 1473.5 194.5 1579.5 146.5 1534.5 224.5 1437.5 256.5" style="fill: #f2f2f2;stroke: #000;stroke-miterlimit: 10"/>
    <polygon id="s60" points="1853.5 460.5 1811.5 453.5 1770.5 525.5 1808.5 539.5 1853.5 460.5" style="fill: #f2f2f2;stroke: #000;stroke-miterlimit: 10"/>
    <polygon id="s62" points="1618.5 634.5 1601.5 567.5 1694.5 634.5 1743.5 719.5 1618.5 634.5" style="fill: #f2f2f2;stroke: #000;stroke-miterlimit: 10"/>
    <polygon id="s59" points="1859.5 381.5 1910.5 469.5 1811.5 453.5 1770.5 381.73 1859.5 381.5" style="fill: #f2f2f2;stroke: #000;stroke-miterlimit: 10"/>
    <polygon id="s61" points="1687.5 525.5 1770.5 525.5 1808.48 539.07 1840.5 550.5 1743.5 550.5 1687.5 525.5" style="fill: #f2f2f2;stroke: #000;stroke-miterlimit: 10"/>
    <polygon id="s57" points="1749.5 241.5 1789.5 172.5 2019.5 64.5 1959.5 169.5 1749.5 241.5" style="fill: #f2f2f2;stroke: #000;stroke-miterlimit: 10"/>
    <polygon id="s56" points="1877.5 298.5 1829.42 215.5 1959.5 169.5 2019.5 274.5 1877.5 298.5" style="fill: #f2f2f2;stroke: #000;stroke-miterlimit: 10"/>
    <polygon id="s94" points="2251.5 564.5 2286.5 625.5 2432.5 702.5 2386.5 622.5 2251.5 564.5" style="fill: #f2f2f2;stroke: #000;stroke-miterlimit: 10"/>
    <polygon id="_42" data-name="42" points="2525.48 541.5 2432.52 541.5 2386.05 622 2432.52 702.5 2525.48 702.5 2571.95 622 2525.48 541.5" style="fill: #fff;stroke: #000;stroke-miterlimit: 10"/>
    <polygon id="_50" data-name="50" points="2585.61 144.5 2495.54 144.5 2450.5 222.5 2495.54 300.51 2585.61 300.51 2630.64 222.5 2585.61 144.5" style="fill: #fff;stroke: #000;stroke-miterlimit: 10"/>
    <polygon id="_49" data-name="49" points="2576.96 301.5 2488.04 301.5 2443.59 378.5 2488.04 455.5 2576.96 455.5 2621.41 378.5 2576.96 301.5" style="fill: #fff;stroke: #000;stroke-miterlimit: 10"/>
    <polygon id="_48" data-name="48" points="2669.67 468.5 2566.33 468.5 2514.65 558 2566.33 647.5 2669.67 647.5 2721.35 558 2669.67 468.5" style="fill: #fff;stroke: #000;stroke-miterlimit: 10"/>
    <polygon id="_51" data-name="51" points="2475.05 50.5 2380.95 50.5 2333.89 132 2380.95 213.5 2475.05 213.5 2522.11 132 2475.05 50.5" style="fill: #fff;stroke: #000;stroke-miterlimit: 10"/>
    <polygon id="s87" points="2246.5 317.5 2286.5 255.5 2625.5 167.5 2565.5 272.5 2246.5 317.5" style="fill: #f2f2f2;stroke: #000;stroke-miterlimit: 10"/>
    <polygon id="s90" points="2358.5 255.5 2450.5 222.5 2495.5 300.5 2395.5 317.5 2358.5 255.5" style="fill: #f2f2f2;stroke: #000;stroke-miterlimit: 10"/>
    <polygon id="s92" points="2262.5 214.5 2384.5 167.5 2446.5 63.5 2314.5 126.5 2262.5 214.5" style="fill: #f2f2f2;stroke: #000;stroke-miterlimit: 10"/>
    <polygon id="s91" points="2304.5 296.5 2444.5 272.5 2384.5 168.5 2256.5 214.5 2304.5 296.5" style="fill: #f2f2f2;stroke: #000;stroke-miterlimit: 10"/>
    <polygon id="s89" points="2395.5 317.5 2488.5 301.5 2443.5 378.5 2358.5 379.5 2395.5 317.5" style="fill: #f2f2f2;stroke: #000;stroke-miterlimit: 10"/>
    <polygon id="s85" points="2511.5 621.5 2566.5 647.5 2514.5 557.5 2465.5 541.5 2511.5 621.5" style="fill: #f2f2f2;stroke: #000;stroke-miterlimit: 10"/>
    <polygon id="s84" points="2269.5 548.5 2237.5 538.5 2282.5 616.5 2318.5 633.5 2269.5 548.5" style="fill: #f2f2f2;stroke: #000;stroke-miterlimit: 10"/>
    <polygon id="s82" points="2237.5 468.5 2148.5 455.5 2201.5 524.5 2290.5 556.5 2237.5 468.5" style="fill: #f2f2f2;stroke: #000;stroke-miterlimit: 10"/>
    <polygon id="s80" points="2045.5 455.5 2089.5 379.04 2082.5 378.5 2042.5 449.5 2045.5 455.5" style="fill: #f2f2f2;stroke: #000;stroke-miterlimit: 10"/>
    <polygon id="s79" points="2136.5 468.5 2056.5 455.5 2145.5 455.5 2239.5 468.5 2136.5 468.5" style="fill: #f2f2f2;stroke: #000;stroke-miterlimit: 10"/>
    <polygon id="s78" points="1972.5 379.5 1959.5 379.5 2003.5 455.5 2020.5 462.5 1972.5 379.5" style="fill: #f2f2f2;stroke: #000;stroke-miterlimit: 10"/>
    <polygon id="s77" points="2097.5 704.5 2143.5 624.5 2091.5 566.5 2058.5 628.5 2097.5 704.5" style="fill: #f2f2f2;stroke: #000;stroke-miterlimit: 10"/>
    <polygon id="s76" points="2094.5 146.5 2036.5 193.5 2072.5 255.5 2139.5 223.5 2094.5 146.5" style="fill: #f2f2f2;stroke: #000;stroke-miterlimit: 10"/>
    <polygon id="s75" points="2043.5 51.5 2003.5 132.5 2039.5 193.5 2090.5 132.5 2043.5 51.5" style="fill: #f2f2f2;stroke: #000;stroke-miterlimit: 10"/>
    <polygon id="s73" points="2030.5 214.5 2016.5 241.5 2094.5 241.5 2124.5 214.5 2030.5 214.5" style="fill: #f2f2f2;stroke: #000;stroke-miterlimit: 10"/>
    <polygon id="s70" points="1829.5 293.5 1817.5 317.5 1854.5 379.5 1880.5 381.5 1829.5 293.5" style="fill: #f2f2f2;stroke: #000;stroke-miterlimit: 10"/>
    <polygon id="s68" points="2059.5 302.5 2062.5 300.5 2150.5 300.5 2148.5 302.5 2059.5 302.5" style="fill: #f2f2f2;stroke: #000;stroke-miterlimit: 10"/>
    <polygon id="s66" points="2530.5 463.5 2566.5 468.5 2514.5 557.5 2482.5 546.5 2530.5 463.5" style="fill: #f2f2f2;stroke: #000;stroke-miterlimit: 10"/>
    <polygon id="s67" points="2576.5 455.5 2669.5 468.5 2578.5 468.5 2488.5 455.5 2576.5 455.5" style="fill: #f2f2f2;stroke: #000;stroke-miterlimit: 10"/>
    <polygon id="s97" points="2201.5 524.5 2237.5 537.5 2282.5 459.5 2241.5 452.5 2201.5 524.5" style="fill: #f2f2f2;stroke: #000;stroke-miterlimit: 10"/>
    <polygon id="s95" points="2319.5 459.5 2338.5 463.5 2386.5 546.5 2364.5 538.5 2319.5 459.5" style="fill: #f2f2f2;stroke: #000;stroke-miterlimit: 10"/>
    <polygon id="s93" points="2418.5 538.5 2432.5 541.5 2386.5 622.5 2373.32 616.5 2418.5 538.5" style="fill: #f2f2f2;stroke: #000;stroke-miterlimit: 10"/>
    <polygon id="s58" points="1877.5 298.5 1910.5 293.5 1859.5 381.5 1829.42 381.5 1877.5 298.5" style="fill: #f2f2f2;stroke: #000;stroke-miterlimit: 10"/>
    <polygon id="s35" points="1656.5 303.5 1699.5 298.5 1747.5 381.5 1701.5 381.5 1656.5 303.5" style="fill: #f2f2f2;stroke: #000;stroke-miterlimit: 10"/>
    <polygon id="s36" points="1664.5 303.5 1709.5 224.5 1747.5 215.5 1699.5 298.5 1664.5 303.5" style="fill: #f2f2f2;stroke: #000;stroke-miterlimit: 10"/>
    <polygon id="s83" points="2170.5 548.5 2121.5 524.5 2201.5 524.5 2268.5 548.5 2170.5 548.5" style="fill: #f2f2f2;stroke: #000;stroke-miterlimit: 10"/>
    <polygon id="_45" data-name="45" points="2373.32 459.5 2282.68 459.5 2237.36 538 2282.68 616.5 2373.32 616.5 2418.64 538 2373.32 459.5" style="fill: #fff;stroke: #000;stroke-miterlimit: 10"/>
    <polygon id="_39" data-name="39" points="2145.31 302.5 2056.93 302.5 2012.74 379.04 2056.93 455.58 2145.31 455.58 2189.5 379.04 2145.31 302.5" style="fill: #fff;stroke: #000;stroke-miterlimit: 10"/>
    <polygon id="_37" data-name="37" points="2154.96 146.5 2066.04 146.5 2021.59 223.5 2066.04 300.5 2154.96 300.5 2199.41 223.5 2154.96 146.5" style="fill: #fff;stroke: #000;stroke-miterlimit: 10"/>
    <polygon id="_36" data-name="36" points="2331.84 214.5 2237.16 214.5 2189.82 296.5 2237.16 378.5 2331.84 378.5 2379.18 296.5 2331.84 214.5" style="fill: #fff;stroke: #000;stroke-miterlimit: 10"/>
    <polygon id="s86" points="2338.5 293.5 2444.5 273.5 2565.5 273.5 2439.5 293.5 2338.5 293.5" style="fill: #f2f2f2;stroke: #000;stroke-miterlimit: 10"/>
    <polygon id="_44" data-name="44" points="2565.33 64.5 2444.67 64.5 2384.33 169 2444.67 273.5 2565.33 273.5 2625.67 169 2565.33 64.5" style="fill: #fff;stroke: #000;stroke-miterlimit: 10"/>
    <polygon id="_43" data-name="43" points="2552.42 381.5 2456.58 381.5 2408.66 464.5 2456.58 547.5 2552.42 547.5 2600.34 464.5 2552.42 381.5" style="fill: #fff;stroke: #000;stroke-miterlimit: 10"/>
    <polygon id="s96" points="2337.5 468.96 2241.5 453.96 2201.5 380.5 2286.5 380.96 2337.5 468.96" style="fill: #f2f2f2;stroke: #000;stroke-miterlimit: 10"/>
    <polygon id="_46" data-name="46" points="2438.36 293.5 2337.33 293.5 2286.81 381 2337.33 468.5 2438.36 468.5 2488.88 381 2438.36 293.5" style="fill: #fff;stroke: #000;stroke-miterlimit: 10"/>
    <polygon id="_47" data-name="47" points="2268.57 549.5 2170.43 549.5 2121.35 634.5 2170.43 719.5 2268.57 719.5 2317.65 634.5 2268.57 549.5" style="fill: #fff;stroke: #000;stroke-miterlimit: 10"/>
    <polygon id="s81" points="2221.5 646.5 2219.5 634.5 2268.5 549.5 2272.5 558.5 2221.5 646.5" style="fill: #f2f2f2;stroke: #000;stroke-miterlimit: 10"/>
    <polygon id="_26" data-name="26" points="1664.67 303.5 1575.18 303.5 1530.43 381 1575.18 458.5 1664.67 458.5 1709.41 381 1664.67 303.5" style="fill: #fff;stroke: #000;stroke-miterlimit: 10"/>
    <polygon id="_27" data-name="27" points="1670.32 146.5 1579.68 146.5 1534.36 225 1579.68 303.5 1670.32 303.5 1715.64 225 1670.32 146.5" style="fill: #fff;stroke: #000;stroke-miterlimit: 10"/>
    <polygon id="_28" data-name="28" points="1829.42 215.5 1733.58 215.5 1685.66 298.5 1733.58 381.5 1829.42 381.5 1877.34 298.5 1829.42 215.5" style="fill: #fff;stroke: #000;stroke-miterlimit: 10"/>
    <polygon id="_33" data-name="33" points="1944.42 460.56 1853.81 460.56 1808.5 539.03 1853.81 617.5 1944.42 617.5 1989.72 539.03 1944.42 460.56" style="fill: #fff;stroke: #000;stroke-miterlimit: 10"/>
    <polygon id="_32" data-name="32" points="2097.48 543.5 2004.52 543.5 1958.05 624 2004.52 704.5 2097.48 704.5 2143.95 624 2097.48 543.5" style="fill: #fff;stroke: #000;stroke-miterlimit: 10"/>
    <polygon id="_41" data-name="41" points="2051.42 379.5 1955.58 379.5 1907.66 462.5 1955.58 545.5 2051.42 545.5 2099.34 462.5 2051.42 379.5" style="fill: #fff;stroke: #000;stroke-miterlimit: 10"/>
    <polygon id="s74" points="2059.5 215.5 2051.5 224.5 2094.5 147.5 2106.5 133.5 2059.5 215.5" style="fill: #f2f2f2;stroke: #000;stroke-miterlimit: 10"/>
    <polygon id="_38" data-name="38" points="2133.54 51.5 2039.62 51.5 1992.66 132.84 2039.62 214.17 2133.54 214.17 2180.5 132.84 2133.54 51.5" style="fill: #fff;stroke: #000;stroke-miterlimit: 10"/>
    <polygon id="_40" data-name="40" points="2239.09 468.5 2136.91 468.5 2085.81 557 2136.91 645.5 2239.09 645.5 2290.19 557 2239.09 468.5" style="fill: #fff;stroke: #000;stroke-miterlimit: 10"/>
    <polygon id="s71" points="2008.5 470.5 1997.5 442.5 2034.5 382.5 2060.5 382.5 2008.5 470.5" style="fill: #f2f2f2;stroke: #000;stroke-miterlimit: 10"/>
    <polygon id="s69" points="2201.5 169.5 2074.5 193.5 2011.5 293.5 2141.5 274.5 2201.5 169.5" style="fill: #f2f2f2;stroke: #000;stroke-miterlimit: 10"/>
    <polygon id="_35" data-name="35" points="2011.52 293.96 1910.17 293.96 1859.5 381.73 1910.17 469.5 2011.52 469.5 2062.19 381.73 2011.52 293.96" style="fill: #fff;stroke: #000;stroke-miterlimit: 10"/>
    <polygon id="_34" data-name="34" points="1840.79 550.5 1743.21 550.5 1694.43 635 1743.21 719.5 1840.79 719.5 1889.57 635 1840.79 550.5" style="fill: #fff;stroke: #000;stroke-miterlimit: 10"/>
    <polygon id="s55" points="2011.5 293.5 2141.5 274.5 2019.5 274.5 1910.17 293.96 2011.5 293.5" style="fill: #f2f2f2;stroke: #000;stroke-miterlimit: 10"/>
    <polygon id="s72" points="2139.5 65.5 2129.5 133.5 2176.5 215.5 2199.5 170.5 2139.5 65.5" style="fill: #f2f2f2;stroke: #000;stroke-miterlimit: 10"/>
    <polygon id="_31" data-name="31" points="2141.12 64.5 2019.88 64.5 1959.26 169.5 2019.88 274.5 2141.12 274.5 2201.74 169.5 2141.12 64.5" style="fill: #fff;stroke: #000;stroke-miterlimit: 10"/>
    <polygon id="s110" points="1042.5 193.5 1113.5 194.5 1115.5 179.5 1039.5 179.5 1042.5 193.5" style="fill: #f2f2f2;stroke: #000;stroke-miterlimit: 10"/>
    <polygon id="s1" points="484.5 143.5 576.5 143.5 649.5 177.5 573.5 178.5 484.5 143.5" style="fill: #f2f2f2;stroke: #000;stroke-miterlimit: 10"/>
    <polygon id="_2" data-name="2" points="576.11 -14.5 484.89 -14.5 439.28 64.5 484.89 143.5 576.11 143.5 621.72 64.5 576.11 -14.5" style="fill: #fff;stroke: #000;stroke-miterlimit: 10"/>
    <polygon id="s33" points="147.5 78.5 321.5 380.5 605.5 379.5 557.5 296.5 147.5 78.5" style="fill: #f2f2f2;stroke: #000;stroke-miterlimit: 10"/>
    <polygon id="s32" points="147.5 682.5 618.5 452.5 659.5 380.72 321.5 380.5 147.5 682.5" style="fill: #f2f2f2;stroke: #000;stroke-miterlimit: 10"/>
    <polygon id="s3" points="393.5 488.5 455.5 595.5 659.5 525.5 618.5 452.5 393.5 488.5" style="fill: #f2f2f2;stroke: #000;stroke-miterlimit: 10"/>
    <polygon id="s20" points="1321.5 170.5 1220.5 256.5 1256.5 193.5 1382.5 64.5 1321.5 170.5" style="fill: #f2f2f2;stroke: #000;stroke-miterlimit: 10"/>
    <polygon id="s23" points="1222.5 379.5 1257.5 442.5 1331.5 467.5 1280.5 380.5 1222.5 379.5" style="fill: #f2f2f2;stroke: #000;stroke-miterlimit: 10"/>
    <polygon id="s50" points="1320.5 380.5 1280.5 380.5 1331.5 467.5 1381.5 486.5 1320.5 380.5" style="fill: #f2f2f2;stroke: #000;stroke-miterlimit: 10"/>
    <polygon id="s19" points="605.5 214.5 696.5 214.5 656.5 196.5 551.5 196.5 605.5 214.5" style="fill: #f2f2f2;stroke: #000;stroke-miterlimit: 10"/>
    <polygon id="s18" points="591.5 169.5 700.5 214.5 748.5 296.5 652.5 273.5 591.5 169.5" style="fill: #f2f2f2;stroke: #000;stroke-miterlimit: 10"/>
    <polygon id="s17" points="791.5 379.5 674.5 380.5 724.5 292.5 826.5 319.5 791.5 379.5" style="fill: #f2f2f2;stroke: #000;stroke-miterlimit: 10"/>
    <polygon id="s16" points="791.5 379.5 827.5 440.5 724.5 467.5 674.5 380.5 791.5 379.5" style="fill: #f2f2f2;stroke: #000;stroke-miterlimit: 10"/>
    <polygon id="s15" points="744.5 524.5 659.5 524.5 590.5 549.5 685.5 549.5 744.5 524.5" style="fill: #f2f2f2;stroke: #000;stroke-miterlimit: 10"/>
    <polygon id="s14" points="633.5 490.5 827.5 440.5 791.5 504.5 570.5 598.5 633.5 490.5" style="fill: #f2f2f2;stroke: #000;stroke-miterlimit: 10"/>
    <polygon id="s11" points="1028.5 469.5 1028.5 469.5 976.5 558.5 985.5 546.5 1028.5 469.5" style="fill: #f2f2f2;stroke: #000;stroke-miterlimit: 10"/>
    <polygon id="s10" points="1028.5 647.5 1030.5 622.5 985.5 542.5 976.5 558.5 1028.5 647.5" style="fill: #f2f2f2;stroke: #000;stroke-miterlimit: 10"/>
    <polygon id="s9" points="1113.5 194.5 1118.5 173.5 1158.5 104.5 1151.5 134.5 1113.5 194.5" style="fill: #f2f2f2;stroke: #000;stroke-miterlimit: 10"/>
    <polygon id="s8" points="1113.5 194.5 1149.5 255.5 1158.5 242.5 1118.5 173.5 1113.5 194.5" style="fill: #f2f2f2;stroke: #000;stroke-miterlimit: 10"/>
    <polygon id="s7" points="1151.5 255.5 1220.5 256.5 1236.5 242.5 1158.5 242.5 1151.5 255.5" style="fill: #f2f2f2;stroke: #000;stroke-miterlimit: 10"/>
    <polygon id="_9" data-name="9" points="1117.2 57.28 1042.59 57.28 1005.29 121.89 1042.59 186.5 1117.2 186.5 1154.5 121.89 1117.2 57.28" style="fill: #fff;stroke: #000;stroke-miterlimit: 10"/>
    <polygon id="s48" points="1115.5 317.5 1116.5 314.5 1155.5 246.5 1149.5 256.5 1115.5 317.5" style="fill: #f2f2f2;stroke: #000;stroke-miterlimit: 10"/>
    <polygon id="s54" points="991.5 76.5 1005.5 121.5 1042.5 186.5 1034.5 151.5 991.5 76.5" style="fill: #f2f2f2;stroke: #000;stroke-miterlimit: 10"/>
    <polygon id="_10" data-name="10" points="1116.97 179.5 1039.03 179.5 1000.06 247 1039.03 314.5 1116.97 314.5 1155.94 247 1116.97 179.5" style="fill: #fff;stroke: #000;stroke-miterlimit: 10"/>
    <polygon id="s6" points="1024.5 291.5 1019.5 280.5 962.5 379.5 973.5 379.5 1024.5 291.5" style="fill: #f2f2f2;stroke: #000;stroke-miterlimit: 10"/>
    <polygon id="_5" data-name="5" points="688.65 549.5 590.5 549.5 541.43 634.5 590.5 719.5 688.65 719.5 737.73 634.5 688.65 549.5" style="fill: #fff;stroke: #000;stroke-miterlimit: 10"/>
    <polygon id="s43" points="760.5 709.5 845.5 622.5 889.21 546.5 823.5 599.5 760.5 709.5" style="fill: #f2f2f2;stroke: #000;stroke-miterlimit: 10"/>
    <polygon id="s53" points="984.5 703.5 1030.5 622.5 1042.5 567.5 1009.5 628.5 984.5 703.5" style="fill: #f2f2f2;stroke: #000;stroke-miterlimit: 10"/>
    <polygon id="_14" data-name="14" points="984.5 542.5 891.52 542.5 845.05 623 891.52 703.5 984.48 703.5 1030.95 623 984.5 542.5" style="fill: #fff;stroke: #000;stroke-miterlimit: 10"/>
    <polygon id="_13" data-name="13" points="982.44 379.5 886.02 379.5 837.82 463 886.02 546.5 982.44 546.5 1030.65 463 982.44 379.5" style="fill: #fff;stroke: #000;stroke-miterlimit: 10"/>
    <polygon id="s29" points="1329 567.5 1405.5 622.5 1452.5 703.5 1363.5 628.5 1329 567.5" style="fill: #f2f2f2;stroke: #000;stroke-miterlimit: 10"/>
    <polygon id="s104" points="1854.5 503.5 1724.5 458.5 1679.5 380.5 1783.5 381.5 1854.5 503.5" style="fill: #f2f2f2;stroke: #000;stroke-miterlimit: 10"/>
    <polygon id="_23" data-name="23" points="1545.51 541.83 1452.17 541.83 1405.5 622.66 1452.17 703.5 1545.51 703.5 1592.18 622.66 1545.51 541.83" style="fill: #fff;stroke: #000;stroke-miterlimit: 10"/>
    <polygon id="s27" points="1364.5 503.5 1435.5 503.5 1545.5 541.5 1452.5 541.5 1364.5 503.5" style="fill: #f2f2f2;stroke: #000;stroke-miterlimit: 10"/>
    <polygon id="s28" points="1328.5 567.5 1364.5 503.5 1452.5 541.5 1405.5 622.5 1328.5 567.5" style="fill: #f2f2f2;stroke: #000;stroke-miterlimit: 10"/>
    <polygon id="_19" data-name="19" points="1412.86 462.96 1317.29 462.96 1269.5 545.73 1317.29 628.5 1412.86 628.5 1460.65 545.73 1412.86 462.96" style="fill: #fff;stroke: #000;stroke-miterlimit: 10"/>
    <polygon id="s26" points="1187.5 756.5 1149.5 628.5 1114.5 567.5 1132.5 661.5 1187.5 756.5" style="fill: #f2f2f2;stroke: #000;stroke-miterlimit: 10"/>
    <polygon id="_15" data-name="15" points="1131.1 469.5 1028.29 469.5 976.89 558.53 1028.29 647.57 1131.1 647.57 1182.5 558.53 1131.1 469.5" style="fill: #fff;stroke: #000;stroke-miterlimit: 10"/>
    <polygon id="s12" points="982.5 379.5 962.5 379.5 1019.5 479.5 1030.5 463.5 982.5 379.5" style="fill: #f2f2f2;stroke: #000;stroke-miterlimit: 10"/>
    <polygon id="s42" points="991.5 227.5 1000.06 247 1039.5 179.5 1035.5 151.5 991.5 227.5" style="fill: #f2f2f2;stroke: #000;stroke-miterlimit: 10"/>
    <polygon id="_8" data-name="8" points="991.38 75.5 903.62 75.5 859.74 151.5 903.62 227.5 991.38 227.5 1035.26 151.5 991.38 75.5" style="fill: #fff;stroke: #000;stroke-miterlimit: 10"/>
    <polygon id="s2" points="551.5 196.5 498.5 104.5 684.5 193.5 719.5 255.5 551.5 196.5" style="fill: #f2f2f2;stroke: #000;stroke-miterlimit: 10"/>
    <polygon id="_6" data-name="6" points="700.57 214.29 605.19 214.29 557.5 296.9 605.19 379.5 700.57 379.5 748.26 296.9 700.57 214.29" style="fill: #fff;stroke: #000;stroke-miterlimit: 10"/>
    <polygon id="s45" points="826.5 467.5 837.5 462.5 886.02 379.5 876.5 380 826.5 467.5" style="fill: #f2f2f2;stroke: #000;stroke-miterlimit: 10"/>
    <polygon id="_12" data-name="12" points="825.98 292.5 724.95 292.5 674.43 380 724.95 467.5 825.98 467.5 876.5 380 825.98 292.5" style="fill: #fff;stroke: #000;stroke-miterlimit: 10"/>
    <polygon id="_11" data-name="11" points="975.88 204.16 874.66 204.16 824.04 291.83 874.66 379.5 975.88 379.5 1026.5 291.83 975.88 204.16" style="fill: #fff;stroke: #000;stroke-miterlimit: 10"/>
    <polygon id="s100" points="975.5 204.5 1026.5 291.5 1039.5 314.5 1000.5 246.5 975.5 204.5" style="fill: #f2f2f2;stroke: #000;stroke-miterlimit: 10"/>
    <polygon id="s49" points="1137.5 280.5 1138.5 288.5 1187.5 380.51 1191.5 380 1137.5 280.5" style="fill: #f2f2f2;stroke: #000;stroke-miterlimit: 10"/>
    <polygon id="_16" data-name="16" points="1134.45 280.5 1019.55 280.5 962.11 380 1019.55 479.5 1134.45 479.5 1191.89 380 1134.45 280.5" style="fill: #fff;stroke: #000;stroke-miterlimit: 10"/>
    <polygon id="s4" points="724.5 292.5 655.5 274.5 773.5 273.5 824.5 291.5 724.5 292.5" style="fill: #f2f2f2;stroke: #000;stroke-miterlimit: 10"/>
    <polygon id="s25" points="1191.5 379.5 1134.5 479.5 1137.5 486.5 1198.5 380.5 1191.5 379.5" style="fill: #f2f2f2;stroke: #000;stroke-miterlimit: 10"/>
    <polygon id="_17" data-name="17" points="1238.41 104.5 1158.74 104.5 1118.9 173.5 1158.74 242.5 1238.41 242.5 1278.25 173.5 1238.41 104.5" style="fill: #fff;stroke: #000;stroke-miterlimit: 10"/>
    <polygon id="s34" points="656.5 13.5 703.5 54.5 709.65 64.5 686.27 64.5 656.5 13.5" style="fill: #f2f2f2;stroke: #000;stroke-miterlimit: 10"/>
    <polygon id="_3" data-name="3" points="393.06 488.5 268.94 488.5 206.87 596 268.94 703.5 393.06 703.5 455.13 596 393.06 488.5" style="fill: #fff;stroke: #000;stroke-miterlimit: 10"/>
    <polygon id="_4" data-name="4" points="656.83 13.5 551.17 13.5 498.35 105 551.17 196.5 656.83 196.5 709.65 105 656.83 13.5" style="fill: #fff;stroke: #000;stroke-miterlimit: 10"/>
    <polygon id="s107" points="1503.5 64.5 1330.5 193.5 1367.5 256.5 1564.5 169.5 1503.5 64.5" style="fill: #f2f2f2;stroke: #000;stroke-miterlimit: 10"/>
    <polygon id="s106" points="1503.5 275.5 1564.5 169.5 1360.5 256.5 1326.5 317.5 1432.5 292.32 1503.5 275.5" style="fill: #f2f2f2;stroke: #000;stroke-miterlimit: 10"/>
    <polygon id="s21" points="1220.5 256.5 1256.5 317.5 1382.5 275.5 1321.5 170.5 1220.5 256.5" style="fill: #f2f2f2;stroke: #000;stroke-miterlimit: 10"/>
    <polygon id="s30" points="1256.5 317.5 1330.5 317.5 1503.5 275.5 1382.5 275.5 1256.5 317.5" style="fill: #f2f2f2;stroke: #000;stroke-miterlimit: 10"/>
    <polygon id="s22" points="1256.5 317.5 1222.5 379.5 1280.5 380.5 1331.5 292.5 1256.5 317.5" style="fill: #f2f2f2;stroke: #000;stroke-miterlimit: 10"/>
    <polygon id="_24" data-name="24" points="1503.91 64.5 1382.09 64.5 1321.18 170 1382.09 275.5 1503.91 275.5 1564.82 170 1503.91 64.5" style="fill: #fff;stroke: #000;stroke-miterlimit: 10"/>
    <polygon id="s31" points="1179.5 558.5 1187.5 567.5 1132.5 661.5 1131.5 647.5 1179.5 558.5" style="fill: #f2f2f2;stroke: #000;stroke-miterlimit: 10"/>
    <polygon id="s102" points="1296.5 756.5 1317.5 626.5 1331.5 626.5 1351.5 662.5 1296.5 756.5" style="fill: #f2f2f2;stroke: #000;stroke-miterlimit: 10"/>
    <polygon id="_21" data-name="21" points="1296.56 567.5 1187.44 567.5 1132.88 662 1187.44 756.5 1296.56 756.5 1351.12 662 1296.56 567.5" style="fill: #fff;stroke: #000;stroke-miterlimit: 10"/>
    <polygon id="s64" points="1351.5 661.5 1296.5 567.5 1270.5 548.52 1318.5 628.5 1351.5 661.5" style="fill: #f2f2f2;stroke: #000;stroke-miterlimit: 10"/>
    <polygon id="s24" points="1134.5 479.5 1182.5 558.5 1198.5 591.5 1139.5 485.5 1134.5 479.5" style="fill: #f2f2f2;stroke: #000;stroke-miterlimit: 10"/>
    <polygon id="s47" points="773.5 273.5 833.5 169.5 874.5 204.5 826.5 292.5 773.5 273.5" style="fill: #f2f2f2;stroke: #000;stroke-miterlimit: 10"/>
    <polygon id="s46" points="773.5 64.5 833.5 169.5 874.5 204.5 890.15 204.16 859.5 151.5 773.5 64.5" style="fill: #f2f2f2;stroke: #000;stroke-miterlimit: 10"/>
    <polygon id="s44" points="823.5 599.5 886.5 546.5 837.5 462.5 760.5 490.5 823.5 599.5" style="fill: #f2f2f2;stroke: #000;stroke-miterlimit: 10"/>
    <polygon id="s5" points="823.5 467.5 760.5 490.5 633.5 490.5 724.5 467.5 823.5 467.5" style="fill: #f2f2f2;stroke: #000;stroke-miterlimit: 10"/>
    <polygon id="s37" points="1647.5 648.5 1592.5 622.5 1545.5 541.5 1595.5 558.5 1647.5 648.5" style="fill: #f2f2f2;stroke: #000;stroke-miterlimit: 10"/>
    <polygon id="s109" points="1694.5 634.5 1750.5 648.5 1802.5 558.5 1743.5 550.5 1694.5 634.5" style="fill: #f2f2f2;stroke: #000;stroke-miterlimit: 10"/>
    <polygon id="s108" points="1802.5 558.5 1743.5 550.5 1687.5 468.5 1750.5 469.5 1802.5 558.5" style="fill: #f2f2f2;stroke: #000;stroke-miterlimit: 10"/>
    <polygon id="_29" data-name="29" points="1750.67 469.5 1647.33 469.5 1595.65 559 1647.33 648.5 1750.67 648.5 1802.35 559 1750.67 469.5" style="fill: #fff;stroke: #000;stroke-miterlimit: 10"/>
    <polygon id="_7" data-name="7" points="773.04 64.5 652.11 64.5 591.65 169.22 652.11 273.95 773.04 273.95 833.5 169.22 773.04 64.5" style="fill: #fff;stroke: #000;stroke-miterlimit: 10"/>
    <polygon id="s38" points="1412.5 462.5 1460.5 545.5 1642.5 626.5 1573.5 503.5 1412.5 462.5" style="fill: #f2f2f2;stroke: #000;stroke-miterlimit: 10"/>
    <polygon id="s105" points="1330.5 317.5 1365.5 381.5 1483.5 380.5 1434.5 292.5 1330.5 317.5" style="fill: #f2f2f2;stroke: #000;stroke-miterlimit: 10"/>
    <polygon id="_22" data-name="22" points="1432.52 292.5 1331.48 292.5 1280.96 380 1331.48 467.5 1432.52 467.5 1483.04 380 1432.52 292.5" style="fill: #fff;stroke: #000;stroke-miterlimit: 10"/>
    <polygon id="s103" points="1647.5 469.5 1750.5 469.5 1662.5 458.5 1564.5 458.5 1647.5 469.5" style="fill: #f2f2f2;stroke: #000;stroke-miterlimit: 10"/>
    <polyline id="s51" points="1571.5 503.5 1432.5 467.5 1483.5 379.5 1642.5 381.5 1571.5 503.5" style="fill: #f2f2f2;stroke: #000;stroke-miterlimit: 10"/>
    <polygon id="s65" points="1179.5 558.5 1283.5 558.5 1295.5 567.5 1186.5 567.5 1179.5 558.5" style="fill: #f2f2f2;stroke: #000;stroke-miterlimit: 10"/>
    <polygon id="s101" points="1320.5 591.5 1269.5 545.5 1317.5 462.5 1381.5 486.5 1320.5 591.5" style="fill: #f2f2f2;stroke: #000;stroke-miterlimit: 10"/>
    <polygon id="s99" points="590.5 549.5 455.5 595.5 393.5 703.5 541.5 634.5 590.5 549.5" style="fill: #f2f2f2;stroke: #000;stroke-miterlimit: 10"/>
    <polygon id="_18" data-name="18" points="760.3 490.5 633.86 490.5 570.64 600 633.86 709.5 760.3 709.5 823.52 600 760.3 490.5" style="fill: #fff;stroke: #000;stroke-miterlimit: 10"/>
    <polygon id="_20" data-name="20" points="1320.5 380.51 1198.5 380.51 1137.5 486.17 1198.5 591.82 1320.5 591.82 1381.5 486.17 1320.5 380.51" style="fill: #fff;stroke: #000;stroke-miterlimit: 10"/>
    <polygon id="_30" data-name="30" points="1783.72 381.5 1642.28 381.5 1571.55 504 1642.28 626.5 1783.72 626.5 1854.45 504 1783.72 381.5" style="fill: #fff;stroke: #000;stroke-miterlimit: 10"/>
    <polygon id="s98" points="268.5 488.5 541.5 452.5 618.5 452.5 393.5 488.5 268.5 488.5" style="fill: #f2f2f2;stroke: #000;stroke-miterlimit: 10"/>
    <polygon id="_1" data-name="1" points="319.5 380.72 145.01 682.95 -204.5 682.5 -379.5 380.5 -204.5 78.5 145.01 78.5 319.5 380.72" style="fill: #fff;stroke: #000;stroke-miterlimit: 10;stroke-width: 2px"/>
    <text transform="translate(670 171.9)" style="font-size: 25px;font-family: ArialMT, Arial">resonate</text>
    <text transform="translate(102 388.96)" style="font-size: 60px;font-family: ArialMT, Arial">aartics</text>
    <text transform="translate(105 421.9)" style="font-size: 25px;font-family: ArialMT, Arial">@gmail.com</text>
    <text transform="translate(616 613.9)" style="font-size: 25px;font-family: ArialMT, Arial">wolf and lion</text>
    <text transform="translate(994 370.9)" style="font-size: 25px;font-family: ArialMT, Arial">san francisco</text>
    <text transform="translate(994 400.11)" style="font-size: 25px;font-family: ArialMT, Arial">arts commission</text>
  </g>
</svg>
