<svg xmlns="http://www.w3.org/2000/svg" width="3000" height="760" viewBox="0 0 3000 760">
  <title>aartics_artboards_ungroupedfortest</title>
  <g id="_03stage" data-name="03stage">
    <polygon id="s63" points="1538.5 192.5 1572.5 132.5 1606.5 104.5 1566.5 172.5 1538.5 192.5" style="fill: #f2f2f2;stroke: #000;stroke-miterlimit: 10"/>
    <polygon id="_25" data-name="25" points="1685.51 104.08 1606.17 104.08 1566.5 172.79 1606.17 241.5 1685.51 241.5 1725.17 172.79 1685.51 104.08" style="fill: #fff;stroke: #000;stroke-miterlimit: 10"/>
    <polygon id="s41" points="1430.5 255.5 1466.5 318.5 1515.5 303.5 1470.5 224.5 1430.5 255.5" style="fill: #f2f2f2;stroke: #000;stroke-miterlimit: 10"/>
    <polygon id="s88" points="2374.5 292.5 2273.5 292.5 2380.5 272.5 2501.5 272.5 2374.5 292.5" style="fill: #f2f2f2;stroke: #000;stroke-miterlimit: 10"/>
    <polygon id="s40" points="1466.5 380.5 1511.5 303.5 1466.5 318.5 1429.5 381.5 1466.5 380.5" style="fill: #f2f2f2;stroke: #000;stroke-miterlimit: 10"/>
    <polygon id="s52" points="1430.5 255.5 1466.5 194.5 1515.5 146.5 1470.5 224.5 1430.5 255.5" style="fill: #f2f2f2;stroke: #000;stroke-miterlimit: 10"/>
    <polygon id="s60" points="1789.5 460.5 1747.5 453.5 1706.5 525.5 1744.5 539.5 1789.5 460.5" style="fill: #f2f2f2;stroke: #000;stroke-miterlimit: 10"/>
    <polygon id="s62" points="1570.5 626.5 1537.5 567.5 1630.5 634.5 1679.5 719.5 1570.5 626.5" style="fill: #f2f2f2;stroke: #000;stroke-miterlimit: 10"/>
    <polygon id="s59" points="1795.5 381.5 1846.5 469.5 1747.5 453.5 1706.5 381.73 1795.5 381.5" style="fill: #f2f2f2;stroke: #000;stroke-miterlimit: 10"/>
    <polygon id="s61" points="1623.5 525.5 1706.5 525.5 1744.48 539.07 1776.5 550.5 1679.5 550.5 1623.5 525.5" style="fill: #f2f2f2;stroke: #000;stroke-miterlimit: 10"/>
    <polygon id="s57" points="1685.5 241.5 1725.5 172.5 1955.5 64.5 1895.5 169.5 1685.5 241.5" style="fill: #f2f2f2;stroke: #000;stroke-miterlimit: 10"/>
    <polygon id="s56" points="1813.5 298.5 1765.42 215.5 1895.5 169.5 1955.5 274.5 1813.5 298.5" style="fill: #f2f2f2;stroke: #000;stroke-miterlimit: 10"/>
    <polygon id="s94" points="2187.5 564.5 2222.5 625.5 2368.5 702.5 2322.5 622.5 2187.5 564.5" style="fill: #f2f2f2;stroke: #000;stroke-miterlimit: 10"/>
    <polygon id="_42" data-name="42" points="2461.48 541.5 2368.52 541.5 2322.05 622 2368.52 702.5 2461.48 702.5 2507.95 622 2461.48 541.5" style="fill: #fff;stroke: #000;stroke-miterlimit: 10"/>
    <polygon id="_50" data-name="50" points="2521.61 144.5 2431.54 144.5 2386.5 222.5 2431.54 300.51 2521.61 300.51 2566.64 222.5 2521.61 144.5" style="fill: #fff;stroke: #000;stroke-miterlimit: 10"/>
    <polygon id="_49" data-name="49" points="2512.96 301.5 2424.04 301.5 2379.59 378.5 2424.04 455.5 2512.96 455.5 2557.41 378.5 2512.96 301.5" style="fill: #fff;stroke: #000;stroke-miterlimit: 10"/>
    <polygon id="_48" data-name="48" points="2605.67 468.5 2502.33 468.5 2450.65 558 2502.33 647.5 2605.67 647.5 2657.35 558 2605.67 468.5" style="fill: #fff;stroke: #000;stroke-miterlimit: 10"/>
    <polygon id="_51" data-name="51" points="2411.05 50.5 2316.95 50.5 2269.89 132 2316.95 213.5 2411.05 213.5 2458.11 132 2411.05 50.5" style="fill: #fff;stroke: #000;stroke-miterlimit: 10"/>
    <polygon id="s87" points="2182.5 317.5 2222.5 255.5 2561.5 167.5 2501.5 272.5 2182.5 317.5" style="fill: #f2f2f2;stroke: #000;stroke-miterlimit: 10"/>
    <polygon id="s90" points="2294.5 255.5 2386.5 222.5 2431.5 300.5 2331.5 317.5 2294.5 255.5" style="fill: #f2f2f2;stroke: #000;stroke-miterlimit: 10"/>
    <polygon id="s92" points="2198.5 214.5 2320.5 167.5 2382.5 63.5 2250.5 126.5 2198.5 214.5" style="fill: #f2f2f2;stroke: #000;stroke-miterlimit: 10"/>
    <polygon id="s91" points="2240.5 296.5 2380.5 272.5 2320.5 168.5 2192.5 214.5 2240.5 296.5" style="fill: #f2f2f2;stroke: #000;stroke-miterlimit: 10"/>
    <polygon id="s89" points="2331.5 317.5 2424.5 301.5 2379.5 378.5 2294.5 379.5 2331.5 317.5" style="fill: #f2f2f2;stroke: #000;stroke-miterlimit: 10"/>
    <polygon id="s85" points="2447.5 621.5 2502.5 647.5 2450.5 557.5 2401.5 541.5 2447.5 621.5" style="fill: #f2f2f2;stroke: #000;stroke-miterlimit: 10"/>
    <polygon id="s84" points="2205.5 548.5 2173.5 538.5 2218.5 616.5 2254.5 633.5 2205.5 548.5" style="fill: #f2f2f2;stroke: #000;stroke-miterlimit: 10"/>
    <polygon id="s82" points="2173.5 468.5 2084.5 455.5 2137.5 524.5 2226.5 556.5 2173.5 468.5" style="fill: #f2f2f2;stroke: #000;stroke-miterlimit: 10"/>
    <polygon id="s80" points="1981.5 455.5 2025.5 379.04 2018.5 378.5 1978.5 449.5 1981.5 455.5" style="fill: #f2f2f2;stroke: #000;stroke-miterlimit: 10"/>
    <polygon id="s79" points="2072.5 468.5 1992.5 455.5 2081.5 455.5 2175.5 468.5 2072.5 468.5" style="fill: #f2f2f2;stroke: #000;stroke-miterlimit: 10"/>
    <polygon id="s78" points="1908.5 379.5 1895.5 379.5 1939.5 455.5 1956.5 462.5 1908.5 379.5" style="fill: #f2f2f2;stroke: #000;stroke-miterlimit: 10"/>
    <polygon id="s77" points="2033.5 704.5 2079.5 624.5 2027.5 566.5 1994.5 628.5 2033.5 704.5" style="fill: #f2f2f2;stroke: #000;stroke-miterlimit: 10"/>
    <polygon id="s76" points="2030.5 146.5 1972.5 193.5 2008.5 255.5 2075.5 223.5 2030.5 146.5" style="fill: #f2f2f2;stroke: #000;stroke-miterlimit: 10"/>
    <polygon id="s75" points="1979.5 51.5 1939.5 132.5 1975.5 193.5 2026.5 132.5 1979.5 51.5" style="fill: #f2f2f2;stroke: #000;stroke-miterlimit: 10"/>
    <polygon id="s73" points="1966.5 214.5 1952.5 241.5 2030.5 241.5 2060.5 214.5 1966.5 214.5" style="fill: #f2f2f2;stroke: #000;stroke-miterlimit: 10"/>
    <polygon id="s70" points="1765.5 293.5 1753.5 317.5 1790.5 379.5 1816.5 381.5 1765.5 293.5" style="fill: #f2f2f2;stroke: #000;stroke-miterlimit: 10"/>
    <polygon id="s68" points="1995.5 302.5 1998.5 300.5 2086.5 300.5 2084.5 302.5 1995.5 302.5" style="fill: #f2f2f2;stroke: #000;stroke-miterlimit: 10"/>
    <polygon id="s66" points="2466.5 463.5 2502.5 468.5 2450.5 557.5 2418.5 546.5 2466.5 463.5" style="fill: #f2f2f2;stroke: #000;stroke-miterlimit: 10"/>
    <polygon id="s67" points="2512.5 455.5 2605.5 468.5 2514.5 468.5 2424.5 455.5 2512.5 455.5" style="fill: #f2f2f2;stroke: #000;stroke-miterlimit: 10"/>
    <polygon id="s97" points="2137.5 524.5 2173.5 537.5 2218.5 459.5 2177.5 452.5 2137.5 524.5" style="fill: #f2f2f2;stroke: #000;stroke-miterlimit: 10"/>
    <polygon id="s95" points="2255.5 459.5 2274.5 463.5 2322.5 546.5 2300.5 538.5 2255.5 459.5" style="fill: #f2f2f2;stroke: #000;stroke-miterlimit: 10"/>
    <polygon id="s93" points="2354.5 538.5 2368.5 541.5 2322.5 622.5 2309.32 616.5 2354.5 538.5" style="fill: #f2f2f2;stroke: #000;stroke-miterlimit: 10"/>
    <polygon id="s58" points="1813.5 298.5 1846.5 293.5 1795.5 381.5 1765.42 381.5 1813.5 298.5" style="fill: #f2f2f2;stroke: #000;stroke-miterlimit: 10"/>
    <polygon id="s35" points="1601.5 303.5 1621.5 298.5 1669.5 381.5 1645.5 381.5 1601.5 303.5" style="fill: #f2f2f2;stroke: #000;stroke-miterlimit: 10"/>
    <polygon id="s36" points="1606.5 303.5 1651.5 224.5 1669.5 215.5 1621.5 298.5 1606.5 303.5" style="fill: #f2f2f2;stroke: #000;stroke-miterlimit: 10"/>
    <polygon id="s83" points="2106.5 548.5 2057.5 524.5 2137.5 524.5 2204.5 548.5 2106.5 548.5" style="fill: #f2f2f2;stroke: #000;stroke-miterlimit: 10"/>
    <polygon id="_45" data-name="45" points="2309.32 459.5 2218.68 459.5 2173.36 538 2218.68 616.5 2309.32 616.5 2354.64 538 2309.32 459.5" style="fill: #fff;stroke: #000;stroke-miterlimit: 10"/>
    <polygon id="_39" data-name="39" points="2081.31 302.5 1992.93 302.5 1948.74 379.04 1992.93 455.58 2081.31 455.58 2125.5 379.04 2081.31 302.5" style="fill: #fff;stroke: #000;stroke-miterlimit: 10"/>
    <polygon id="_37" data-name="37" points="2090.96 146.5 2002.04 146.5 1957.59 223.5 2002.04 300.5 2090.96 300.5 2135.41 223.5 2090.96 146.5" style="fill: #fff;stroke: #000;stroke-miterlimit: 10"/>
    <polygon id="_36" data-name="36" points="2267.84 214.5 2173.16 214.5 2125.82 296.5 2173.16 378.5 2267.84 378.5 2315.18 296.5 2267.84 214.5" style="fill: #fff;stroke: #000;stroke-miterlimit: 10"/>
    <polygon id="s86" points="2274.5 293.5 2380.5 273.5 2501.5 273.5 2375.5 293.5 2274.5 293.5" style="fill: #f2f2f2;stroke: #000;stroke-miterlimit: 10"/>
    <polygon id="_44" data-name="44" points="2501.33 64.5 2380.67 64.5 2320.33 169 2380.67 273.5 2501.33 273.5 2561.67 169 2501.33 64.5" style="fill: #fff;stroke: #000;stroke-miterlimit: 10"/>
    <polygon id="_43" data-name="43" points="2488.42 381.5 2392.58 381.5 2344.66 464.5 2392.58 547.5 2488.42 547.5 2536.34 464.5 2488.42 381.5" style="fill: #fff;stroke: #000;stroke-miterlimit: 10"/>
    <polygon id="s96" points="2273.5 468.96 2177.5 453.96 2137.5 380.5 2222.5 380.96 2273.5 468.96" style="fill: #f2f2f2;stroke: #000;stroke-miterlimit: 10"/>
    <polygon id="_46" data-name="46" points="2374.36 293.5 2273.33 293.5 2222.81 381 2273.33 468.5 2374.36 468.5 2424.88 381 2374.36 293.5" style="fill: #fff;stroke: #000;stroke-miterlimit: 10"/>
    <polygon id="_47" data-name="47" points="2204.57 549.5 2106.43 549.5 2057.35 634.5 2106.43 719.5 2204.57 719.5 2253.65 634.5 2204.57 549.5" style="fill: #fff;stroke: #000;stroke-miterlimit: 10"/>
    <polygon id="s81" points="2157.5 646.5 2155.5 634.5 2204.5 549.5 2208.5 558.5 2157.5 646.5" style="fill: #f2f2f2;stroke: #000;stroke-miterlimit: 10"/>
    <polygon id="_26" data-name="26" points="1600.67 303.5 1511.18 303.5 1466.43 381 1511.18 458.5 1600.67 458.5 1645.41 381 1600.67 303.5" style="fill: #fff;stroke: #000;stroke-miterlimit: 10"/>
    <polygon id="_27" data-name="27" points="1606.32 146.5 1515.68 146.5 1470.36 225 1515.68 303.5 1606.32 303.5 1651.64 225 1606.32 146.5" style="fill: #fff;stroke: #000;stroke-miterlimit: 10"/>
    <polygon id="_28" data-name="28" points="1765.42 215.5 1669.58 215.5 1621.66 298.5 1669.58 381.5 1765.42 381.5 1813.34 298.5 1765.42 215.5" style="fill: #fff;stroke: #000;stroke-miterlimit: 10"/>
    <polygon id="_33" data-name="33" points="1880.42 460.56 1789.81 460.56 1744.5 539.03 1789.81 617.5 1880.42 617.5 1925.72 539.03 1880.42 460.56" style="fill: #fff;stroke: #000;stroke-miterlimit: 10"/>
    <polygon id="_32" data-name="32" points="2033.48 543.5 1940.52 543.5 1894.05 624 1940.52 704.5 2033.48 704.5 2079.95 624 2033.48 543.5" style="fill: #fff;stroke: #000;stroke-miterlimit: 10"/>
    <polygon id="_41" data-name="41" points="1987.42 379.5 1891.58 379.5 1843.66 462.5 1891.58 545.5 1987.42 545.5 2035.34 462.5 1987.42 379.5" style="fill: #fff;stroke: #000;stroke-miterlimit: 10"/>
    <polygon id="s74" points="1995.5 215.5 1987.5 224.5 2030.5 147.5 2042.5 133.5 1995.5 215.5" style="fill: #f2f2f2;stroke: #000;stroke-miterlimit: 10"/>
    <polygon id="_38" data-name="38" points="2069.54 51.5 1975.62 51.5 1928.66 132.84 1975.62 214.17 2069.54 214.17 2116.5 132.84 2069.54 51.5" style="fill: #fff;stroke: #000;stroke-miterlimit: 10"/>
    <polygon id="_40" data-name="40" points="2175.09 468.5 2072.91 468.5 2021.81 557 2072.91 645.5 2175.09 645.5 2226.19 557 2175.09 468.5" style="fill: #fff;stroke: #000;stroke-miterlimit: 10"/>
    <polygon id="s71" points="1944.5 470.5 1933.5 442.5 1970.5 382.5 1996.5 382.5 1944.5 470.5" style="fill: #f2f2f2;stroke: #000;stroke-miterlimit: 10"/>
    <polygon id="s69" points="2137.5 169.5 2010.5 193.5 1947.5 293.5 2077.5 274.5 2137.5 169.5" style="fill: #f2f2f2;stroke: #000;stroke-miterlimit: 10"/>
    <polygon id="_35" data-name="35" points="1947.52 293.96 1846.17 293.96 1795.5 381.73 1846.17 469.5 1947.52 469.5 1998.19 381.73 1947.52 293.96" style="fill: #fff;stroke: #000;stroke-miterlimit: 10"/>
    <polygon id="_34" data-name="34" points="1776.79 550.5 1679.21 550.5 1630.43 635 1679.21 719.5 1776.79 719.5 1825.57 635 1776.79 550.5" style="fill: #fff;stroke: #000;stroke-miterlimit: 10"/>
    <polygon id="s55" points="1947.5 293.5 2077.5 274.5 1955.5 274.5 1846.17 293.96 1947.5 293.5" style="fill: #f2f2f2;stroke: #000;stroke-miterlimit: 10"/>
    <polygon id="s72" points="2075.5 65.5 2065.5 133.5 2112.5 215.5 2135.5 170.5 2075.5 65.5" style="fill: #f2f2f2;stroke: #000;stroke-miterlimit: 10"/>
    <polygon id="_31" data-name="31" points="2077.12 64.5 1955.88 64.5 1895.26 169.5 1955.88 274.5 2077.12 274.5 2137.74 169.5 2077.12 64.5" style="fill: #fff;stroke: #000;stroke-miterlimit: 10"/>
    <polygon id="s110" points="1035.5 193.5 1100.5 194.5 1101.5 186.5 1028.5 187.5 1035.5 193.5" style="fill: #f2f2f2;stroke: #000;stroke-miterlimit: 10"/>
    <polygon id="s1" points="286.5 147.5 378.5 147.5 451.5 181.5 375.5 182.5 286.5 147.5" style="fill: #f2f2f2;stroke: #000;stroke-miterlimit: 10"/>
    <polygon id="_2" data-name="2" points="376.11 -14.5 284.89 -14.5 239.28 64.5 284.89 143.5 376.11 143.5 421.72 64.5 376.11 -14.5" style="fill: #fff;stroke: #000;stroke-miterlimit: 10"/>
    <polygon id="s33" points="147.5 78.5 321.5 380.5 562.5 379.5 513.5 296.5 147.5 78.5" style="fill: #f2f2f2;stroke: #000;stroke-miterlimit: 10"/>
    <polygon id="s32" points="147.5 682.5 578.5 452.5 617.5 380.5 321.5 380.5 147.5 682.5" style="fill: #f2f2f2;stroke: #000;stroke-miterlimit: 10"/>
    <polygon id="s3" points="393.5 488.5 455.5 595.5 659.5 525.5 618.5 452.5 393.5 488.5" style="fill: #f2f2f2;stroke: #000;stroke-miterlimit: 10"/>
    <polygon id="s20" points="1165.5 170.5 1220.5 256.5 1256.5 193.5 1226.5 64.5 1165.5 170.5" style="fill: #f2f2f2;stroke: #000;stroke-miterlimit: 10"/>
    <polygon id="s23" points="1222.5 379.5 1257.5 442.5 1236.5 467.5 1185.5 380.5 1222.5 379.5" style="fill: #f2f2f2;stroke: #000;stroke-miterlimit: 10"/>
    <polygon id="s50" points="1167.5 380.5 1185.5 379.5 1236.51 469.5 1228.5 486.5 1167.5 380.5" style="fill: #f2f2f2;stroke: #000;stroke-miterlimit: 10"/>
    <polygon id="s19" points="470.5 215.5 560.5 215.5 453.5 197.5 348.5 197.5 470.5 215.5" style="fill: #f2f2f2;stroke: #000;stroke-miterlimit: 10"/>
    <polygon id="s18" points="441.5 169.5 578.5 206.5 628.5 292.5 502.5 273.5 441.5 169.5" style="fill: #f2f2f2;stroke: #000;stroke-miterlimit: 10"/>
    <polygon id="s17" points="695.5 379.5 578.5 380.5 628.5 292.5 730.5 319.5 695.5 379.5" style="fill: #f2f2f2;stroke: #000;stroke-miterlimit: 10"/>
    <polygon id="s16" points="695.5 379.5 731.5 440.5 628.5 467.5 578.5 380.5 695.5 379.5" style="fill: #f2f2f2;stroke: #000;stroke-miterlimit: 10"/>
    <polygon id="s15" points="744.5 524.5 659.5 524.5 590.5 549.5 685.5 549.5 744.5 524.5" style="fill: #f2f2f2;stroke: #000;stroke-miterlimit: 10"/>
    <polygon id="s14" points="463.5 490.5 731.5 440.5 699.5 504.5 400.5 598.5 463.5 490.5" style="fill: #f2f2f2;stroke: #000;stroke-miterlimit: 10"/>
    <polygon id="s11" points="962.5 469.5 927.5 469.5 875.5 558.5 916.5 542.5 962.5 469.5" style="fill: #f2f2f2;stroke: #000;stroke-miterlimit: 10"/>
    <polygon id="s10" points="927.5 647.5 962.5 622.5 916.5 542.5 875.5 558.5 927.5 647.5" style="fill: #f2f2f2;stroke: #000;stroke-miterlimit: 10"/>
    <polygon id="s9" points="1108.5 194.5 1088.5 173.5 1128.5 104.5 1144.5 131.5 1108.5 194.5" style="fill: #f2f2f2;stroke: #000;stroke-miterlimit: 10"/>
    <polygon id="s8" points="1108.5 194.5 1144.5 256.5 1128.5 242.5 1088.5 173.5 1108.5 194.5" style="fill: #f2f2f2;stroke: #000;stroke-miterlimit: 10"/>
    <polygon id="s7" points="1144.5 256.5 1220.5 256.5 1208.5 242.5 1128.5 242.5 1144.5 256.5" style="fill: #f2f2f2;stroke: #000;stroke-miterlimit: 10"/>
    <polygon id="_9" data-name="9" points="1101.2 57.28 1026.59 57.28 989.29 121.89 1026.59 186.5 1101.2 186.5 1138.5 121.89 1101.2 57.28" style="fill: #fff;stroke: #000;stroke-miterlimit: 10"/>
    <polygon id="s48" points="1108.5 317.5 1095.97 314.5 1134.5 246.5 1144.5 256.5 1108.5 317.5" style="fill: #f2f2f2;stroke: #000;stroke-miterlimit: 10"/>
    <polygon id="s54" points="937.5 76.5 989.5 121.5 1026.5 186.5 980.5 151.5 937.5 76.5" style="fill: #f2f2f2;stroke: #000;stroke-miterlimit: 10"/>
    <polygon id="_10" data-name="10" points="1095.97 179.5 1018.03 179.5 979.06 247 1018.03 314.5 1095.97 314.5 1134.94 247 1095.97 179.5" style="fill: #fff;stroke: #000;stroke-miterlimit: 10"/>
    <polygon id="s6" points="932.5 291.5 887.5 280.5 831.5 379.5 881.5 379.5 932.5 291.5" style="fill: #f2f2f2;stroke: #000;stroke-miterlimit: 10"/>
    <polygon id="_5" data-name="5" points="484.65 549.5 386.5 549.5 337.43 634.5 386.5 719.5 484.65 719.5 533.73 634.5 484.65 549.5" style="fill: #fff;stroke: #000;stroke-miterlimit: 10"/>
    <polygon id="s43" points="590.5 709.5 777.5 623.5 823.5 542.5 653.5 599.5 590.5 709.5" style="fill: #f2f2f2;stroke: #000;stroke-miterlimit: 10"/>
    <polygon id="s53" points="916.5 703.5 962.5 622.5 1035.5 567.5 1002.5 628.5 916.5 703.5" style="fill: #f2f2f2;stroke: #000;stroke-miterlimit: 10"/>
    <polygon id="_14" data-name="14" points="916.5 542.5 823.52 542.5 777.05 623 823.52 703.5 916.48 703.5 962.95 623 916.5 542.5" style="fill: #fff;stroke: #000;stroke-miterlimit: 10"/>
    <polygon id="_13" data-name="13" points="904.44 379.5 808.02 379.5 759.82 463 808.02 546.5 904.44 546.5 952.65 463 904.44 379.5" style="fill: #fff;stroke: #000;stroke-miterlimit: 10"/>
    <polygon id="s29" points="1329 567.5 1335.5 622.5 1380.5 703.5 1363.5 628.5 1329 567.5" style="fill: #f2f2f2;stroke: #000;stroke-miterlimit: 10"/>
    <polygon id="_23" data-name="23" points="1475.51 541.83 1382.17 541.83 1335.5 622.66 1382.17 703.5 1475.51 703.5 1522.18 622.66 1475.51 541.83" style="fill: #fff;stroke: #000;stroke-miterlimit: 10"/>
    <polygon id="s27" points="1364.5 503.5 1429.5 503.5 1475.5 541.5 1380.5 541.5 1364.5 503.5" style="fill: #f2f2f2;stroke: #000;stroke-miterlimit: 10"/>
    <polygon id="s28" points="1328.5 567.5 1364.5 503.5 1380.5 541.5 1335.5 622.5 1328.5 567.5" style="fill: #f2f2f2;stroke: #000;stroke-miterlimit: 10"/>
    <polygon id="_19" data-name="19" points="1335.86 462.96 1240.29 462.96 1192.5 545.73 1240.29 628.5 1335.86 628.5 1383.65 545.73 1335.86 462.96" style="fill: #fff;stroke: #000;stroke-miterlimit: 10"/>
    <polygon id="s26" points="1070.5 756.5 1144.5 628.5 1108.5 567.5 1015.5 661.5 1070.5 756.5" style="fill: #f2f2f2;stroke: #000;stroke-miterlimit: 10"/>
    <polygon id="_15" data-name="15" points="1030.1 469.5 927.29 469.5 875.89 558.53 927.29 647.57 1030.1 647.57 1081.5 558.53 1030.1 469.5" style="fill: #fff;stroke: #000;stroke-miterlimit: 10"/>
    <polygon id="s12" points="850.5 379.5 830.5 379.5 887.5 479.5 898.5 463.5 850.5 379.5" style="fill: #f2f2f2;stroke: #000;stroke-miterlimit: 10"/>
    <polygon id="s42" points="936.5 227.5 979.5 247 1018.5 179.5 980.5 151.5 936.5 227.5" style="fill: #f2f2f2;stroke: #000;stroke-miterlimit: 10"/>
    <polygon id="_8" data-name="8" points="936.38 75.5 848.62 75.5 804.74 151.5 848.62 227.5 936.38 227.5 980.26 151.5 936.38 75.5" style="fill: #fff;stroke: #000;stroke-miterlimit: 10"/>
    <polygon id="s2" points="348.5 197.5 295.5 105.5 453.5 194.5 438.5 211.5 348.5 197.5" style="fill: #f2f2f2;stroke: #000;stroke-miterlimit: 10"/>
    <polygon id="_6" data-name="6" points="609.57 214.29 514.19 214.29 466.5 296.9 514.19 379.5 609.57 379.5 657.26 296.9 609.57 214.29" style="fill: #fff;stroke: #000;stroke-miterlimit: 10"/>
    <polygon id="s45" points="730.5 467.5 757.5 462.5 804.5 380.5 780.5 380 730.5 467.5" style="fill: #f2f2f2;stroke: #000;stroke-miterlimit: 10"/>
    <polygon id="_12" data-name="12" points="729.98 292.5 628.95 292.5 578.43 380 628.95 467.5 729.98 467.5 780.5 380 729.98 292.5" style="fill: #fff;stroke: #000;stroke-miterlimit: 10"/>
    <polygon id="_11" data-name="11" points="881.88 204.16 780.66 204.16 730.04 291.83 780.66 379.5 881.88 379.5 932.5 291.83 881.88 204.16" style="fill: #fff;stroke: #000;stroke-miterlimit: 10"/>
    <polygon id="s100" points="882.5 204.5 932.5 291.5 1018.5 314.5 979.5 246.5 882.5 204.5" style="fill: #f2f2f2;stroke: #000;stroke-miterlimit: 10"/>
    <polygon id="s49" points="1002.5 280.5 1108.5 318.5 1144.5 380.51 1059.89 380 1002.5 280.5" style="fill: #f2f2f2;stroke: #000;stroke-miterlimit: 10"/>
    <polygon id="s24" points="1031.5 469.5 1082.5 558.5 1044.5 591.5 984.5 485.5 1031.5 469.5" style="fill: #f2f2f2;stroke: #000;stroke-miterlimit: 10"/>
    <polygon id="s107" points="1347.5 64.5 1324.5 193.5 1360.5 256.5 1408.5 169.5 1347.5 64.5" style="fill: #f2f2f2;stroke: #000;stroke-miterlimit: 10"/>
    <polygon id="s106" points="1348.5 275.5 1408.5 169.5 1360.5 256.5 1326.5 317.5 1338.5 292.32 1348.5 275.5" style="fill: #f2f2f2;stroke: #000;stroke-miterlimit: 10"/>
    <polygon id="s21" points="1220.5 256.5 1256.5 317.5 1226.5 275.5 1165.5 170.5 1220.5 256.5" style="fill: #f2f2f2;stroke: #000;stroke-miterlimit: 10"/>
    <polygon id="s30" points="1256.5 317.5 1323.5 317.5 1347.5 275.5 1226.5 275.5 1256.5 317.5" style="fill: #f2f2f2;stroke: #000;stroke-miterlimit: 10"/>
    <polygon id="s22" points="1256.5 317.5 1222.5 379.5 1185.5 380.5 1236.5 292.5 1256.5 317.5" style="fill: #f2f2f2;stroke: #000;stroke-miterlimit: 10"/>
    <polygon id="_17" data-name="17" points="1208.41 104.5 1128.74 104.5 1088.9 173.5 1128.74 242.5 1208.41 242.5 1248.25 173.5 1208.41 104.5" style="fill: #fff;stroke: #000;stroke-miterlimit: 10"/>
    <polygon id="_24" data-name="24" points="1347.91 64.5 1226.09 64.5 1165.18 170 1226.09 275.5 1347.91 275.5 1408.82 170 1347.91 64.5" style="fill: #fff;stroke: #000;stroke-miterlimit: 10"/>
    <polygon id="s31" points="1081.5 558.5 1070.5 567.5 1015.5 661.5 1030.5 647.5 1081.5 558.5" style="fill: #f2f2f2;stroke: #000;stroke-miterlimit: 10"/>
    <polygon id="s102" points="1179.5 756.5 1214.5 626.5 1240.5 626.5 1234.5 662.5 1179.5 756.5" style="fill: #f2f2f2;stroke: #000;stroke-miterlimit: 10"/>
    <polygon id="s65" points="1081.5 558.5 1186.74 558.5 1179.5 567.5 1070.5 567.5 1081.5 558.5" style="fill: #f2f2f2;stroke: #000;stroke-miterlimit: 10"/>
    <polygon id="_21" data-name="21" points="1179.56 567.5 1070.44 567.5 1015.88 662 1070.44 756.5 1179.56 756.5 1234.12 662 1179.56 567.5" style="fill: #fff;stroke: #000;stroke-miterlimit: 10"/>
    <polygon id="_16" data-name="16" points="1002.45 280.5 887.55 280.5 830.11 380 887.55 479.5 1002.45 479.5 1059.89 380 1002.45 280.5" style="fill: #fff;stroke: #000;stroke-miterlimit: 10"/>
    <polygon id="s4" points="628.5 292.5 503.5 274.5 621.5 273.5 730.5 291.5 628.5 292.5" style="fill: #f2f2f2;stroke: #000;stroke-miterlimit: 10"/>
    <polygon id="s25" points="1088.5 380.5 1037.5 467.5 984.5 486.5 1045.5 381.5 1088.5 380.5" style="fill: #f2f2f2;stroke: #000;stroke-miterlimit: 10"/>
    <polygon id="s34" points="453.5 14.5 512.5 63.5 501.5 64.5 492.5 81.5 453.5 14.5" style="fill: #f2f2f2;stroke: #000;stroke-miterlimit: 10"/>
    <polygon id="_3" data-name="3" points="393.06 488.5 268.94 488.5 206.87 596 268.94 703.5 393.06 703.5 455.13 596 393.06 488.5" style="fill: #fff;stroke: #000;stroke-miterlimit: 10"/>
    <polygon id="_4" data-name="4" points="453.83 14.5 348.17 14.5 295.35 106 348.17 197.5 453.83 197.5 506.65 106 453.83 14.5" style="fill: #fff;stroke: #000;stroke-miterlimit: 10"/>
    <polygon id="s64" points="1234.5 661.5 1179.5 567.5 1192.5 548.52 1240.5 628.5 1234.5 661.5" style="fill: #f2f2f2;stroke: #000;stroke-miterlimit: 10"/>
    <polygon id="s47" points="621.5 273.5 683.5 169.5 778.5 204.5 729.5 292.5 621.5 273.5" style="fill: #f2f2f2;stroke: #000;stroke-miterlimit: 10"/>
    <polygon id="s46" points="623.5 64.5 683.5 169.5 780.5 204.5 837.15 204.16 806.5 151.5 623.5 64.5" style="fill: #f2f2f2;stroke: #000;stroke-miterlimit: 10"/>
    <polygon id="s44" points="653.5 599.5 804.5 546.5 757.5 462.5 590.5 490.5 653.5 599.5" style="fill: #f2f2f2;stroke: #000;stroke-miterlimit: 10"/>
    <polygon id="s5" points="730.5 467.5 590.5 490.5 463.5 490.5 628.5 467.5 730.5 467.5" style="fill: #f2f2f2;stroke: #000;stroke-miterlimit: 10"/>
    <polygon id="s37" points="1545.5 648.5 1522.5 622.5 1475.5 541.5 1493.5 558.5 1545.5 648.5" style="fill: #f2f2f2;stroke: #000;stroke-miterlimit: 10"/>
    <polygon id="s109" points="1630.5 634.5 1650.5 648.5 1700.5 558.5 1679.5 550.5 1630.5 634.5" style="fill: #f2f2f2;stroke: #000;stroke-miterlimit: 10"/>
    <polygon id="s108" points="1700.5 558.5 1627.5 527.5 1595.5 458.5 1648.5 469.5 1700.5 558.5" style="fill: #f2f2f2;stroke: #000;stroke-miterlimit: 10"/>
    <polygon id="_29" data-name="29" points="1648.67 469.5 1545.33 469.5 1493.65 559 1545.33 648.5 1648.67 648.5 1700.35 559 1648.67 469.5" style="fill: #fff;stroke: #000;stroke-miterlimit: 10"/>
    <polygon id="s104" points="1641.5 503.5 1511.5 458.5 1466.5 380.5 1570.5 381.5 1641.5 503.5" style="fill: #f2f2f2;stroke: #000;stroke-miterlimit: 10"/>
    <polygon id="_7" data-name="7" points="623.04 64.5 502.11 64.5 441.65 169.22 502.11 273.95 623.04 273.95 683.5 169.22 623.04 64.5" style="fill: #fff;stroke: #000;stroke-miterlimit: 10"/>
    <polygon id="s38" points="1335.5 462.5 1383.5 545.5 1429.5 626.5 1358.5 503.5 1335.5 462.5" style="fill: #f2f2f2;stroke: #000;stroke-miterlimit: 10"/>
    <polygon id="s105" points="1326.5 317.5 1363.5 381.5 1388.5 380.5 1339.5 292.5 1326.5 317.5" style="fill: #f2f2f2;stroke: #000;stroke-miterlimit: 10"/>
    <polygon id="_22" data-name="22" points="1337.52 292.5 1236.48 292.5 1185.96 380 1236.48 467.5 1337.52 467.5 1388.04 380 1337.52 292.5" style="fill: #fff;stroke: #000;stroke-miterlimit: 10"/>
    <polygon id="s103" points="1545.5 469.5 1648.5 469.5 1600.5 458.5 1511.5 458.5 1545.5 469.5" style="fill: #f2f2f2;stroke: #000;stroke-miterlimit: 10"/>
    <polygon id="s51" points="1429.5 381.5 1358.5 504.5 1337.5 467.5 1388.5 379.5 1429.5 381.5" style="fill: #f2f2f2;stroke: #000;stroke-miterlimit: 10"/>
    <polygon id="s101" points="1167.5 591.5 1192.5 545.5 1236.5 467.5 1226.5 486.5 1167.5 591.5" style="fill: #f2f2f2;stroke: #000;stroke-miterlimit: 10"/>
    <polygon id="s99" points="590.5 549.5 455.5 595.5 393.5 703.5 534.5 634.5 590.5 549.5" style="fill: #f2f2f2;stroke: #000;stroke-miterlimit: 10"/>
    <polygon id="_18" data-name="18" points="590.3 490.5 463.86 490.5 400.64 600 463.86 709.5 590.3 709.5 653.52 600 590.3 490.5" style="fill: #fff;stroke: #000;stroke-miterlimit: 10"/>
    <polygon id="_20" data-name="20" points="1167.5 380.51 1045.5 380.51 984.5 486.17 1045.5 591.82 1167.5 591.82 1228.5 486.17 1167.5 380.51" style="fill: #fff;stroke: #000;stroke-miterlimit: 10"/>
    <polygon id="_30" data-name="30" points="1570.72 381.5 1429.28 381.5 1358.55 504 1429.28 626.5 1570.72 626.5 1641.45 504 1570.72 381.5" style="fill: #fff;stroke: #000;stroke-miterlimit: 10"/>
    <polygon id="s98" points="268.5 488.5 541.5 452.5 618.5 452.5 393.5 488.5 268.5 488.5" style="fill: #f2f2f2;stroke: #000;stroke-miterlimit: 10"/>
    <polygon id="_1" data-name="1" points="319.5 380.72 145.01 682.95 -204.5 682.5 -379.5 380.5 -204.5 78.5 145.01 78.5 319.5 380.72" style="fill: #fff;stroke: #000;stroke-miterlimit: 10;stroke-width: 2px"/>
    <text transform="translate(920 171.9)" style="font-size: 25px;font-family: ArialMT, Arial">resonate</text>
    <text transform="translate(492 388.96)" style="font-size: 60px;font-family: ArialMT, Arial">aartics</text>
    <text transform="translate(495 421.9)" style="font-size: 25px;font-family: ArialMT, Arial">@gmail.com</text>
    <text transform="translate(906 613.9)" style="font-size: 25px;font-family: ArialMT, Arial">wolf and lion</text>
    <text transform="translate(1206 370.9)" style="font-size: 25px;font-family: ArialMT, Arial">san francisco</text>
    <text transform="translate(1206 400.11)" style="font-size: 25px;font-family: ArialMT, Arial">arts commission</text>
  </g>
</svg>
