<svg xmlns="http://www.w3.org/2000/svg" width="760" height="3000" viewBox="0 0 760 3000">
  <defs>
    <style>
      .cls-1 {
        fill: #f2f2f2;
      }

      .cls-1, .cls-2, .cls-3, .cls-4 {
        stroke: #000;
        stroke-miterlimit: 10;
      }

      .cls-2, .cls-3 {
        fill: #fff;
      }

      .cls-3 {
        stroke-width: 2px;
      }
    </style>
  </defs>
  <title>aartics_polygons_vertical</title>
  <g id="_04stage" data-name="04stage">
    <polygon id="s63" class="cls-1" points="567.64 1538.48 627.64 1572.48 655.64 1583.48 587.64 1543.48 567.64 1538.48"/>
    <polygon id="_25" data-name="25" class="cls-2" points="656.06 1663.48 656.06 1584.15 587.35 1544.48 518.64 1584.15 518.64 1663.48 587.35 1703.15 656.06 1663.48"/>
    <polygon id="s41" class="cls-1" points="518.64 1425.48 447.64 1464.48 456.64 1459.48 535.64 1414.48 518.64 1425.48"/>
    <polygon id="s88" class="cls-1" points="467.64 2374.48 467.64 2273.48 487.64 2380.48 487.64 2501.48 467.64 2374.48"/>
    <polygon id="s40" class="cls-1" points="379.64 1416.48 456.64 1459.48 447.64 1464.48 380.64 1425.48 379.64 1416.48"/>
    <polygon id="s52" class="cls-1" points="519.64 1425.48 592.64 1464.48 613.64 1459.48 534.64 1414.48 519.64 1425.48"/>
    <polygon id="s60" class="cls-1" points="299.64 1732.48 306.64 1713.48 234.64 1671.48 220.64 1687.48 299.64 1732.48"/>
    <polygon id="s62" class="cls-1" points="125.64 1554.48 192.64 1537.48 130.64 1576.48 42.64 1602.48 125.64 1554.48"/>
    <polygon id="s59" class="cls-1" points="378.64 1707.48 290.64 1758.48 306.64 1713.48 378.64 1672.48 378.64 1707.48"/>
    <polygon id="s61" class="cls-1" points="234.64 1589.48 234.64 1671.48 220.64 1687.48 209.64 1700.48 209.64 1603.48 234.64 1589.48"/>
    <polygon id="s57" class="cls-1" points="518.64 1663.48 587.64 1703.48 695.64 1811.48 590.64 1749.48 518.64 1663.48"/>
    <polygon id="s56" class="cls-1" points="461.64 1745.48 544.64 1697.48 590.64 1749.48 485.64 1809.48 461.64 1745.48"/>
    <polygon id="s94" class="cls-1" points="195.64 2187.48 134.64 2222.48 57.64 2368.48 137.64 2322.48 195.64 2187.48"/>
    <polygon id="_42" data-name="42" class="cls-2" points="218.64 2461.45 218.64 2368.5 138.14 2322.03 57.64 2368.5 57.64 2461.45 138.14 2507.93 218.64 2461.45"/>
    <polygon id="_50" data-name="50" class="cls-2" points="615.64 2521.59 615.64 2431.51 537.64 2386.48 459.63 2431.51 459.63 2521.59 537.64 2566.62 615.64 2521.59"/>
    <polygon id="_49" data-name="49" class="cls-2" points="458.64 2512.93 458.64 2424.02 381.64 2379.57 304.64 2424.02 304.64 2512.93 381.64 2557.39 458.64 2512.93"/>
    <polygon id="_48" data-name="48" class="cls-2" points="291.64 2605.65 291.64 2502.31 202.14 2450.63 112.64 2502.31 112.64 2605.65 202.14 2657.32 291.64 2605.65"/>
    <polygon id="_51" data-name="51" class="cls-2" points="709.64 2521.03 709.64 2426.92 628.14 2379.87 546.64 2426.92 546.64 2521.03 628.14 2568.09 709.64 2521.03"/>
    <polygon id="s87" class="cls-1" points="442.64 2182.48 504.64 2222.48 592.64 2561.48 487.64 2501.48 442.64 2182.48"/>
    <polygon id="s90" class="cls-1" points="504.64 2294.48 537.64 2386.48 459.64 2431.48 442.64 2331.48 504.64 2294.48"/>
    <polygon id="s92" class="cls-1" points="504.64 2077.48 592.64 2320.48 696.64 2382.48 566.64 2118.48 504.64 2077.48"/>
    <polygon id="s91" class="cls-1" points="422.64 2125.48 487.64 2380.48 591.64 2320.48 504.64 2077.48 422.64 2125.48"/>
    <polygon id="s89" class="cls-1" points="442.64 2331.48 458.64 2424.48 381.64 2379.48 380.64 2294.48 442.64 2331.48"/>
    <polygon id="s85" class="cls-1" points="138.64 2447.48 112.64 2502.48 202.64 2450.48 218.64 2401.48 138.64 2447.48"/>
    <polygon id="s84" class="cls-1" points="211.64 2287.48 221.64 2243.48 143.64 2287.48 126.64 2336.48 211.64 2287.48"/>
    <polygon id="s82" class="cls-1" points="291.64 2173.48 304.64 2084.48 235.64 2137.48 203.64 2226.48 291.64 2173.48"/>
    <polygon id="s80" class="cls-1" points="304.64 2081.48 381.1 2125.48 381.64 2088.48 308.64 2047.48 304.64 2081.48"/>
    <polygon id="s79" class="cls-1" points="291.64 2072.48 304.64 1992.48 304.64 2081.48 291.64 2175.48 291.64 2072.48"/>
    <polygon id="s78" class="cls-1" points="380.64 1987.48 380.64 1948.48 304.64 1992.48 297.64 2035.48 380.64 1987.48"/>
    <polygon id="s77" class="cls-1" points="55.64 1969.48 136.64 2015.48 193.64 1895.48 131.64 1862.48 55.64 1969.48"/>
    <polygon id="s76" class="cls-1" points="613.64 2092.48 566.64 1972.48 504.64 2008.48 536.64 2135.48 613.64 2092.48"/>
    <polygon id="s75" class="cls-1" points="708.64 1979.48 627.64 1939.48 566.64 1975.48 627.64 2026.48 708.64 1979.48"/>
    <polygon id="s73" class="cls-1" points="545.64 1885.48 518.64 1825.48 518.64 1903.48 545.64 1979.48 545.64 1885.48"/>
    <polygon id="s70" class="cls-1" points="466.64 1859.48 442.64 1753.48 380.64 1790.48 378.64 1910.48 466.64 1859.48"/>
    <polygon id="s68" class="cls-1" points="457.64 1992.48 459.64 2002.48 459.64 2091.48 457.64 2081.48 457.64 1992.48"/>
    <polygon id="s66" class="cls-1" points="296.64 2466.48 291.64 2502.48 202.64 2450.48 213.64 2418.48 296.64 2466.48"/>
    <polygon id="s67" class="cls-1" points="304.64 2512.48 291.64 2605.48 291.64 2514.48 304.64 2424.48 304.64 2512.48"/>
    <polygon id="s97" class="cls-1" points="235.64 2137.48 222.64 2173.48 300.64 2218.48 307.64 2177.48 235.64 2137.48"/>
    <polygon id="s95" class="cls-1" points="300.64 2309.48 295.64 2344.48 212.64 2392.48 221.64 2354.48 300.64 2309.48"/>
    <polygon id="s93" class="cls-1" points="221.64 2354.48 218.64 2368.48 137.64 2322.48 143.64 2309.3 221.64 2354.48"/>
    <polygon id="s58" class="cls-1" points="461.64 1745.48 466.64 1758.48 378.64 1707.48 378.64 1697.48 461.64 1745.48"/>
    <polygon id="s35" class="cls-1" points="456.64 1549.48 461.64 1553.48 378.64 1601.48 378.64 1594.48 456.64 1549.48"/>
    <polygon id="s36" class="cls-1" points="456.64 1549.48 535.64 1595.48 544.64 1601.48 461.64 1553.48 456.64 1549.48"/>
    <polygon id="s83" class="cls-1" points="211.64 2191.48 235.64 2091.48 235.64 2175.48 211.64 2289.48 211.64 2191.48"/>
    <polygon id="_45" data-name="45" class="cls-2" points="300.64 2309.3 300.64 2218.66 222.14 2173.33 143.64 2218.66 143.64 2309.3 222.14 2354.62 300.64 2309.3"/>
    <polygon id="_39" data-name="39" class="cls-2" points="457.64 2081.29 457.64 1992.91 381.1 1948.72 304.56 1992.91 304.56 2081.29 381.1 2125.48 457.64 2081.29"/>
    <polygon id="_37" data-name="37" class="cls-2" points="613.64 2090.93 613.64 2002.02 536.64 1957.57 459.64 2002.02 459.64 2090.93 536.64 2135.39 613.64 2090.93"/>
    <polygon id="_36" data-name="36" class="cls-2" points="545.64 2243.82 545.64 2149.14 463.64 2101.79 381.64 2149.14 381.64 2243.82 463.64 2291.16 545.64 2243.82"/>
    <polygon id="s86" class="cls-1" points="463.64 2291.48 486.64 2380.48 486.64 2501.48 466.64 2403.48 463.64 2291.48"/>
    <polygon id="_44" data-name="44" class="cls-2" points="695.64 2501.31 695.64 2380.64 591.14 2320.31 486.64 2380.64 486.64 2501.31 591.14 2561.64 695.64 2501.31"/>
    <polygon id="_43" data-name="43" class="cls-2" points="378.64 2488.4 378.64 2392.56 295.64 2344.64 212.64 2392.56 212.64 2488.4 295.64 2536.32 378.64 2488.4"/>
    <polygon id="s96" class="cls-1" points="291.18 2302.48 306.18 2178.48 379.64 2138.48 379.18 2251.48 291.18 2302.48"/>
    <polygon id="_46" data-name="46" class="cls-2" points="466.64 2403.34 466.64 2302.31 379.14 2251.79 291.64 2302.31 291.64 2403.34 379.14 2453.86 466.64 2403.34"/>
    <polygon id="_47" data-name="47" class="cls-2" points="210.64 2288.55 210.64 2190.4 125.64 2141.33 40.64 2190.4 40.64 2288.55 125.64 2337.63 210.64 2288.55"/>
    <polygon id="s81" class="cls-1" points="114.64 2175.48 125.64 2155.48 210.64 2204.48 203.64 2226.48 114.64 2175.48"/>
    <polygon id="_26" data-name="26" class="cls-2" points="456.64 1549.65 456.64 1460.16 379.14 1415.41 301.64 1460.16 301.64 1549.65 379.14 1594.39 456.64 1549.65"/>
    <polygon id="_27" data-name="27" class="cls-2" points="613.64 1550.3 613.64 1459.66 535.14 1414.33 456.64 1459.66 456.64 1550.3 535.14 1595.62 613.64 1550.3"/>
    <polygon id="_28" data-name="28" class="cls-2" points="544.64 1697.4 544.64 1601.56 461.64 1553.64 378.64 1601.56 378.64 1697.4 461.64 1745.32 544.64 1697.4"/>
    <polygon id="_33" data-name="33" class="cls-2" points="299.58 1823.39 299.58 1732.78 221.11 1687.48 142.64 1732.78 142.64 1823.39 221.11 1868.7 299.58 1823.39"/>
    <polygon id="_32" data-name="32" class="cls-2" points="217.98 1971.07 217.98 1877.34 136.81 1830.48 55.64 1877.34 55.64 1971.07 136.81 2017.93 217.98 1971.07"/>
    <polygon id="_41" data-name="41" class="cls-2" points="380.64 1987.4 380.64 1891.56 297.64 1843.64 214.64 1891.56 214.64 1987.4 297.64 2035.32 380.64 1987.4"/>
    <polygon id="s74" class="cls-1" points="544.64 1978.48 536.64 1957.48 613.64 2002.48 626.64 2025.48 544.64 1978.48"/>
    <polygon id="_38" data-name="38" class="cls-2" points="708.64 1979.52 708.64 1885.6 627.3 1838.64 545.97 1885.6 545.97 1979.52 627.3 2026.48 708.64 1979.52"/>
    <polygon id="_40" data-name="40" class="cls-2" points="291.64 2175.07 291.64 2072.88 203.14 2021.79 114.64 2072.88 114.64 2175.07 203.14 2226.17 291.64 2175.07"/>
    <polygon id="s71" class="cls-1" points="290.64 1859.48 317.64 1753.48 380.64 1790.48 378.64 1910.48 290.64 1859.48"/>
    <polygon id="s69" class="cls-1" points="589.64 1990.48 518.64 1825.48 449.64 1784.48 484.64 1932.48 589.64 1990.48"/>
    <polygon id="_35" data-name="35" class="cls-2" points="466.18 1859.5 466.18 1758.15 378.41 1707.48 290.64 1758.15 290.64 1859.5 378.41 1910.17 466.18 1859.5"/>
    <polygon id="_34" data-name="34" class="cls-2" points="209.64 1700.76 209.64 1603.19 125.14 1554.41 40.64 1603.19 40.64 1700.76 125.14 1749.55 209.64 1700.76"/>
    <polygon id="s55" class="cls-1" points="466.64 1859.48 485.64 1931.48 485.64 1809.48 466.18 1757.48 466.64 1859.48"/>
    <polygon id="s72" class="cls-1" points="694.64 1934.48 626.64 1838.48 544.64 1886.48 589.64 1994.48 694.64 1934.48"/>
    <polygon id="_31" data-name="31" class="cls-2" points="695.64 1933.1 695.64 1811.86 590.64 1751.23 485.64 1811.86 485.64 1933.1 590.64 1993.72 695.64 1933.1"/>
    <polygon id="s110" class="cls-1" points="566.64 1035.48 565.64 1100.48 573.64 1101.48 572.64 1028.48 566.64 1035.48"/>
    <polygon id="s1" class="cls-1" points="612.64 286.48 612.64 378.48 578.64 451.48 577.64 375.48 612.64 286.48"/>
    <polygon id="_2" data-name="2" class="cls-2" points="774.64 376.09 774.64 284.87 695.64 239.26 616.64 284.87 616.64 376.09 695.64 421.7 774.64 376.09"/>
    <polygon id="s33" class="cls-1" points="681.64 147.48 379.64 321.48 380.64 562.48 463.64 513.48 681.64 147.48"/>
    <polygon id="s32" class="cls-1" points="77.64 147.48 307.64 578.48 379.64 617.48 379.64 321.48 77.64 147.48"/>
    <polygon id="s3" class="cls-1" points="271.64 393.48 164.64 455.48 234.64 659.48 307.64 618.48 271.64 393.48"/>
    <polygon id="s20" class="cls-1" points="589.64 1019.48 503.64 1220.48 566.64 1253.48 695.64 1080.48 589.64 1019.48"/>
    <polygon id="s23" class="cls-1" points="380.64 1222.48 317.64 1257.48 292.64 1150.48 379.64 1099.48 380.64 1222.48"/>
    <polygon id="s50" class="cls-1" points="379.64 1017.48 379.64 1099.48 292.64 1150.48 273.64 1078.48 379.64 1017.48"/>
    <polygon id="s19" class="cls-1" points="544.64 470.48 544.64 560.48 562.64 453.48 562.64 348.48 544.64 470.48"/>
    <polygon id="s18" class="cls-1" points="590.64 441.48 553.64 578.48 467.64 628.48 486.64 502.48 590.64 441.48"/>
    <polygon id="s17" class="cls-1" points="380.64 695.48 379.64 578.48 467.64 628.48 440.64 730.48 380.64 695.48"/>
    <polygon id="s16" class="cls-1" points="380.64 695.48 319.64 731.48 292.64 628.48 379.64 578.48 380.64 695.48"/>
    <polygon id="s15" class="cls-1" points="235.64 744.48 235.64 659.48 210.64 590.48 210.64 685.48 235.64 744.48"/>
    <polygon id="s14" class="cls-1" points="269.64 463.48 319.64 731.48 255.64 699.48 161.64 400.48 269.64 463.48"/>
    <polygon id="s9" class="cls-1" points="565.64 1108.48 586.64 1068.48 655.64 1108.48 628.64 1144.48 565.64 1108.48"/>
    <polygon id="s8" class="cls-1" points="565.64 1108.48 503.64 1144.48 517.64 1108.48 586.64 1068.48 565.64 1108.48"/>
    <polygon id="s7" class="cls-1" points="503.64 1144.48 503.64 1220.48 517.64 1188.48 517.64 1108.48 503.64 1144.48"/>
    <polygon id="_9" data-name="9" class="cls-2" points="702.86 1095.18 702.86 1020.57 638.25 983.27 573.64 1020.57 573.64 1095.18 638.25 1132.48 702.86 1095.18"/>
    <polygon id="s48" class="cls-1" points="442.64 1108.48 445.64 1081.48 513.64 1120.48 503.64 1144.48 442.64 1108.48"/>
    <polygon id="s54" class="cls-1" points="683.64 886.48 638.64 989.48 573.64 1026.48 608.64 930.48 683.64 886.48"/>
    <polygon id="_10" data-name="10" class="cls-2" points="580.64 1081.95 580.64 1004.01 513.14 965.04 445.64 1004.01 445.64 1081.95 513.14 1120.92 580.64 1081.95"/>
    <polygon id="_5" data-name="5" class="cls-2" points="210.64 484.63 210.64 386.48 125.64 337.41 40.64 386.48 40.64 484.63 125.64 533.71 210.64 484.63"/>
    <polygon id="s43" class="cls-1" points="50.64 590.48 136.64 777.48 217.64 823.48 160.64 653.48 50.64 590.48"/>
    <polygon id="s53" class="cls-1" points="56.64 853.48 137.64 899.48 192.64 1037.48 131.64 1004.48 56.64 853.48"/>
    <polygon id="_14" data-name="14" class="cls-2" points="217.64 851.48 217.64 758.5 137.14 712.02 56.64 758.5 56.64 851.46 137.14 897.93 217.64 851.48"/>
    <polygon id="_13" data-name="13" class="cls-2" points="380.64 804.42 380.64 708 297.14 659.79 213.64 708 213.64 804.42 297.14 852.63 380.64 804.42"/>
    <polygon id="s29" class="cls-1" points="192.64 1328.98 137.64 1271.48 56.64 1318.48 131.64 1363.48 192.64 1328.98"/>
    <polygon id="_23" data-name="23" class="cls-2" points="218.31 1411.49 218.31 1318.15 137.48 1271.48 56.64 1318.15 56.64 1411.49 137.48 1458.16 218.31 1411.49"/>
    <polygon id="s27" class="cls-1" points="256.64 1364.48 255.64 1434.48 218.64 1409.48 218.64 1318.48 256.64 1364.48"/>
    <polygon id="s28" class="cls-1" points="192.64 1328.48 256.64 1364.48 218.64 1318.48 137.64 1271.48 192.64 1328.48"/>
    <polygon id="_19" data-name="19" class="cls-2" points="297.18 1266.84 297.18 1171.27 214.41 1123.48 131.64 1171.27 131.64 1266.84 214.41 1314.63 297.18 1266.84"/>
    <polygon id="s26" class="cls-1" points="3.64 961.48 131.64 1147.48 192.64 1109.48 98.64 909.48 3.64 961.48"/>
    <polygon id="_15" data-name="15" class="cls-2" points="290.64 928.08 290.64 825.27 201.61 773.87 112.57 825.27 112.57 928.08 201.61 979.48 290.64 928.08"/>
    <polygon id="s42" class="cls-1" points="532.64 886.48 513.14 964.48 580.64 1003.48 608.64 930.48 532.64 886.48"/>
    <polygon id="_8" data-name="8" class="cls-2" points="684.64 886.36 684.64 798.6 608.64 754.72 532.64 798.6 532.64 886.36 608.64 930.24 684.64 886.36"/>
    <polygon id="s2" class="cls-1" points="562.64 348.48 654.64 295.48 565.64 453.48 548.64 438.48 562.64 348.48"/>
    <polygon id="_6" data-name="6" class="cls-2" points="545.85 609.55 545.85 514.17 463.24 466.48 380.64 514.17 380.64 609.55 463.24 657.24 545.85 609.55"/>
    <polygon id="s45" class="cls-1" points="292.64 730.48 297.64 757.48 379.64 804.48 380.14 780.48 292.64 730.48"/>
    <polygon id="_12" data-name="12" class="cls-2" points="467.64 729.96 467.64 628.92 380.14 578.41 292.64 628.92 292.64 729.96 380.14 780.48 467.64 729.96"/>
    <polygon id="_11" data-name="11" class="cls-2" points="555.98 797.86 555.98 696.63 468.31 646.02 380.64 696.63 380.64 797.86 468.31 848.48 555.98 797.86"/>
    <polygon id="s100" class="cls-1" points="555.64 795.48 468.64 845.48 445.64 1004.48 512.64 965.48 555.64 795.48"/>
    <polygon id="s49" class="cls-1" points="479.64 876.48 441.64 1108.48 379.63 1144.48 380.14 933.48 479.64 876.48"/>
    <polygon id="_16" data-name="16" class="cls-2" points="479.64 873.42 479.64 758.53 380.14 701.09 280.64 758.53 280.64 873.42 380.14 930.87 479.64 873.42"/>
    <polygon id="s4" class="cls-1" points="467.64 628.48 485.64 503.48 486.64 621.48 468.64 730.48 467.64 628.48"/>
    <polygon id="_17" data-name="17" class="cls-2" points="655.64 1188.39 655.64 1108.72 586.64 1068.88 517.64 1108.72 517.64 1188.39 586.64 1228.23 655.64 1188.39"/>
    <polygon id="s34" class="cls-1" points="745.64 453.48 696.64 512.48 695.64 501.48 678.64 492.48 745.64 453.48"/>
    <polygon id="_3" data-name="3" class="cls-2" points="271.64 393.04 271.64 268.91 164.14 206.85 56.64 268.91 56.64 393.04 164.14 455.11 271.64 393.04"/>
    <polygon id="_4" data-name="4" class="cls-2" points="745.64 453.81 745.64 348.15 654.14 295.32 562.64 348.15 562.64 453.81 654.14 506.63 745.64 453.81"/>
    <polygon id="s107" class="cls-1" points="695.64 1201.48 566.64 1324.48 503.64 1360.48 590.64 1261.48 695.64 1201.48"/>
    <polygon id="s106" class="cls-1" points="484.64 1201.48 590.64 1261.48 503.64 1360.48 442.64 1326.48 467.82 1251.54 484.64 1201.48"/>
    <polygon id="s65" class="cls-1" points="201.64 967.48 201.64 1072.72 192.64 1065.48 192.64 956.48 201.64 967.48"/>
    <polygon id="s21" class="cls-1" points="503.64 1220.48 442.64 1256.48 484.64 1076.48 589.64 1015.48 503.64 1220.48"/>
    <polygon id="s30" class="cls-1" points="467.64 1150.48 467.64 1251.48 484.64 1200.48 484.64 1076.48 467.64 1150.48"/>
    <polygon id="s22" class="cls-1" points="442.64 1256.48 380.64 1222.48 379.64 1099.48 467.64 1150.48 442.64 1256.48"/>
    <polygon id="_24" data-name="24" class="cls-2" points="695.64 1200.89 695.64 1079.07 590.14 1018.16 484.64 1079.07 484.64 1200.89 590.14 1261.8 695.64 1200.89"/>
    <polygon id="s102" class="cls-1" points="3.64 1070.48 133.64 1221.48 133.64 1170.48 97.64 1125.48 3.64 1070.48"/>
    <polygon id="_21" data-name="21" class="cls-2" points="192.64 1070.54 192.64 961.42 98.14 906.86 3.64 961.42 3.64 1070.54 98.14 1125.1 192.64 1070.54"/>
    <polygon id="s64" class="cls-1" points="97.64 1125.48 192.64 1070.48 214.64 1122.48 133.64 1170.48 97.64 1125.48"/>
    <polygon id="s47" class="cls-1" points="486.64 621.48 590.64 683.48 555.64 778.48 467.64 729.48 486.64 621.48"/>
    <polygon id="s46" class="cls-1" points="695.64 623.48 590.64 683.48 555.64 780.48 555.98 837.13 608.64 806.48 695.64 623.48"/>
    <polygon id="s44" class="cls-1" points="160.64 653.48 213.64 804.48 297.64 757.48 269.64 590.48 160.64 653.48"/>
    <polygon id="s5" class="cls-1" points="292.64 730.48 269.64 590.48 269.64 463.48 292.64 628.48 292.64 730.48"/>
    <polygon id="s37" class="cls-1" points="111.64 1453.48 137.64 1458.48 218.64 1411.48 201.64 1400.48 111.64 1453.48"/>
    <polygon id="s108" class="cls-1" points="201.64 1608.48 232.64 1589.48 301.64 1549.48 290.64 1557.48 201.64 1608.48"/>
    <polygon id="_29" data-name="29" class="cls-2" points="290.64 1556.65 290.64 1453.31 201.14 1401.63 111.64 1453.31 111.64 1556.65 201.14 1608.32 290.64 1556.65"/>
    <polygon id="s104" class="cls-1" points="256.64 1434.48 301.64 1460.48 379.64 1415.48 378.64 1363.48 256.64 1434.48"/>
    <polygon id="_7" data-name="7" class="cls-2" points="695.64 623.02 695.64 502.09 590.92 441.63 486.19 502.09 486.19 623.02 590.92 683.48 695.64 623.02"/>
    <polygon id="s105" class="cls-1" points="442.64 1326.48 378.64 1363.48 379.64 1302.48 467.64 1251.48 442.64 1326.48"/>
    <polygon id="_22" data-name="22" class="cls-2" points="467.64 1251.5 467.64 1150.46 380.14 1099.94 292.64 1150.46 292.64 1251.5 380.14 1302.02 467.64 1251.5"/>
    <polygon id="s103" class="cls-1" points="290.64 1453.48 290.64 1556.48 301.64 1549.48 301.64 1460.48 290.64 1453.48"/>
    <polygon id="s101" class="cls-1" points="168.64 1017.48 214.64 1123.48 297.64 1170.48 273.64 1078.48 168.64 1017.48"/>
    <polygon id="s99" class="cls-1" points="210.64 590.48 164.64 455.48 56.64 393.48 125.64 534.48 210.64 590.48"/>
    <polygon id="_18" data-name="18" class="cls-2" points="269.64 590.28 269.64 463.84 160.14 400.62 50.64 463.84 50.64 590.28 160.14 653.5 269.64 590.28"/>
    <polygon id="_20" data-name="20" class="cls-2" points="379.63 1017.48 379.63 895.48 273.98 834.48 168.32 895.48 168.32 1017.48 273.98 1078.48 379.63 1017.48"/>
    <polygon id="_30" data-name="30" class="cls-2" points="378.64 1363.7 378.64 1222.25 256.14 1151.53 133.64 1222.25 133.64 1363.7 256.14 1434.43 378.64 1363.7"/>
    <polygon id="s98" class="cls-1" points="271.64 268.48 307.64 541.48 307.64 618.48 271.64 393.48 271.64 268.48"/>
    <polygon id="s11" class="cls-1" points="290.64 832.48 290.64 797.48 201.64 745.48 217.64 786.48 290.64 832.48"/>
    <polygon id="s10" class="cls-1" points="112.64 797.48 137.64 832.48 217.64 786.48 201.64 745.48 112.64 797.48"/>
    <polygon id="s6" class="cls-1" points="468.64 802.48 479.64 757.48 380.64 701.48 380.64 751.48 468.64 802.48"/>
    <polygon id="s12" class="cls-1" points="380.64 720.48 380.64 700.48 280.64 757.48 296.64 768.48 380.64 720.48"/>
    <polygon id="s25" class="cls-1" points="379.64 940.48 292.64 889.48 273.64 836.48 378.64 897.48 379.64 940.48"/>
    <polygon id="s24" class="cls-1" points="290.64 883.48 201.64 933.48 168.64 896.48 273.64 836.48 290.64 883.48"/>
    <polygon id="s31" class="cls-1" points="201.64 971.48 192.64 960.48 98.64 905.48 112.64 920.48 201.64 971.48"/>
    <polygon id="s38" class="cls-1" points="297.64 1267.48 214.64 1315.48 133.64 1222.48 256.64 1151.48 297.64 1267.48"/>
    <polygon id="_1" data-name="1" class="cls-3" points="379.42 319.48 77.19 144.99 77.64 -204.52 379.64 -379.52 681.64 -204.52 681.64 144.99 379.42 319.48"/>
    <polygon id="xx05" class="cls-1" points="203.64 2021.48 214.64 1987.48 297.64 2035.48 291.64 2072.48 203.64 2021.48"/>
    <polygon id="xx01" class="cls-1" points="467.64 2401.48 442.64 2370.48 379.64 2406.48 379.64 2451.86 467.64 2401.48"/>
    <polygon id="xx02" class="cls-1" points="467.64 2302.48 462.64 2291.48 380.64 2243.48 381.64 2252.65 467.64 2302.48"/>
    <polygon id="xx03" class="cls-1" points="463.64 2101.48 457.64 2082.48 536.64 2128.48 545.64 2149.48 463.64 2101.48"/>
    <polygon id="xx04" class="cls-1" points="457.64 2081.48 463.64 2101.48 380.64 2149.48 380.64 2125.48 457.64 2081.48"/>
    <polygon id="xxx07" class="cls-1" points="518.64 1900.48 536.64 1957.48 459.64 2002.48 448.64 1941.48 518.64 1900.48"/>
    <polygon id="xxx06" class="cls-1" points="380.64 1900.48 380.64 1948.48 457.64 1992.48 448.64 1941.48 380.64 1900.48"/>
    <polygon id="yy1" class="cls-1" points="317.64 1753.48 258.64 1789.48 212.64 1892.48 294.47 1844.98 317.64 1753.48"/>
    <polygon id="yy2" class="cls-1" points="136.64 1830.48 193.64 1755.48 258.64 1789.48 218.64 1877.48 136.64 1830.48"/>
    <polygon id="yy3" class="cls-1" points="55.64 1876.48 132.64 1789.48 193.64 1755.48 136.64 1830.48 55.64 1876.48"/>
    <polygon id="yy4" class="cls-1" points="220.64 1965.48 203.64 2021.48 114.64 2072.48 136.64 2015.48 220.64 1965.48"/>
    <polygon id="yy5" class="cls-1" points="193.64 1970.48 132.64 2005.48 40.64 2190.48 125.64 2141.48 193.64 1970.48"/>
    <polygon id="s51" class="cls-1" points="378.64 1223.48 255.64 1152.48 290.64 1247.48 378.64 1298.48 378.64 1223.48"/>
    <polygon id="c1" class="cls-3" points="381.17 3292.48 123.19 3143.54 123.58 2845.2 381.36 2695.82 639.14 2845.2 639.14 3143.54 381.17 3292.48"/>
    <polygon id="bee2" class="cls-4" points="696.45 1848.86 705.64 1847.48 695.64 1838.48 712.1 1848.12 718.64 1848.48 712.34 1851.29 717.64 1859.48 709.24 1851.66 696.45 1848.86"/>
    <polygon id="k01" class="cls-1" points="381.64 2557.48 381.64 2695.48 639.64 2845.48 537.64 2562.48 458.64 2512.48 381.64 2557.48"/>
    <polygon id="k02" class="cls-1" points="304.64 2512.48 201.64 2657.48 123.64 2845.48 381.64 2695.48 381.64 2557.48 304.64 2512.48"/>
  </g>
</svg>
