<svg xmlns="http://www.w3.org/2000/svg" width="760" height="3000" viewBox="0 0 760 3000">
  <defs>
    <style>
      .cls-1 {
        fill: #f2f2f2;
      }

      .cls-1, .cls-2, .cls-3, .cls-4 {
        stroke: #000;
        stroke-miterlimit: 10;
      }

      .cls-2, .cls-3 {
        fill: #fff;
      }

      .cls-3 {
        stroke-width: 2px;
      }
    </style>
  </defs>
  <title>aartics_polygons_vertical</title>
  <g id="_06stage" data-name="06stage">
    <polygon id="s41" class="cls-1" points="519.34 1367.58 452.34 1408.58 456.34 1349.58 535.34 1304.58 519.34 1367.58"/>
    <polygon id="s88" class="cls-1" points="504.34 2294.57 504.34 2222.57 546.34 2316.57 546.34 2411.57 504.34 2294.57"/>
    <polygon id="s40" class="cls-1" points="379.34 1315.58 456.34 1360.58 449.34 1419.58 380.34 1378.58 379.34 1315.58"/>
    <polygon id="s52" class="cls-1" points="519.34 1368.58 590.34 1408.58 613.34 1349.58 535.34 1304.58 519.34 1368.58"/>
    <polygon id="s60" class="cls-1" points="299.34 1615.58 309.34 1644.58 234.34 1598.58 220.34 1570.58 299.34 1615.58"/>
    <polygon id="s62" class="cls-1" points="125.34 1397.58 194.34 1542.58 133.34 1577.58 40.34 1446.58 125.34 1397.58"/>
    <polygon id="s59" class="cls-1" points="378.34 1529.58 290.34 1580.58 309.34 1644.58 378.34 1602.58 378.34 1529.58"/>
    <polygon id="s61" class="cls-1" points="234.34 1516.58 234.34 1598.58 220.34 1570.58 209.34 1543.58 209.34 1446.58 234.34 1516.58"/>
    <polygon id="s57" class="cls-1" points="505.34 1650.58 567.34 1687.58 695.34 1509.58 590.34 1449.58 505.34 1650.58"/>
    <polygon id="s56" class="cls-1" points="443.34 1685.58 505.34 1650.58 590.34 1449.58 485.34 1509.58 443.34 1685.58"/>
    <polygon id="s94" class="cls-1" points="195.34 2187.57 134.34 2222.57 60.34 2306.57 137.34 2262.57 195.34 2187.57"/>
    <polygon id="_42" data-name="42" class="cls-2" points="218.34 2401.55 218.34 2308.6 137.84 2262.12 57.34 2308.6 57.34 2401.55 137.84 2448.03 218.34 2401.55"/>
    <polygon id="_50" data-name="50" class="cls-2" points="615.34 2521.68 615.34 2431.61 537.34 2386.57 459.33 2431.61 459.33 2521.68 537.34 2566.72 615.34 2521.68"/>
    <polygon id="_49" data-name="49" class="cls-2" points="458.34 2513.03 458.34 2424.12 381.34 2379.66 304.34 2424.12 304.34 2513.03 381.34 2557.49 458.34 2513.03"/>
    <polygon id="_48" data-name="48" class="cls-2" points="291.34 2605.75 291.34 2502.4 201.84 2450.73 112.34 2502.4 112.34 2605.75 201.84 2657.42 291.34 2605.75"/>
    <polygon id="_51" data-name="51" class="cls-2" points="709.34 2411.13 709.34 2317.02 627.84 2269.97 546.34 2317.02 546.34 2411.13 627.84 2458.18 709.34 2411.13"/>
    <polygon id="s87" class="cls-1" points="442.34 2189.57 504.34 2222.57 592.34 2419.57 487.34 2359.57 442.34 2189.57"/>
    <polygon id="s90" class="cls-1" points="504.34 2294.57 537.34 2386.57 459.34 2431.57 442.34 2331.57 504.34 2294.57"/>
    <polygon id="s92" class="cls-1" points="504.34 2081.57 592.34 2178.57 696.34 2239.57 568.34 2115.57 504.34 2081.57"/>
    <polygon id="s91" class="cls-1" points="442.34 2117.57 487.34 2239.57 592.34 2178.57 504.34 2081.57 442.34 2117.57"/>
    <polygon id="s89" class="cls-1" points="442.34 2331.57 458.34 2424.57 381.34 2379.57 380.34 2294.57 442.34 2331.57"/>
    <polygon id="s85" class="cls-1" points="138.34 2447.57 112.34 2502.57 202.34 2450.57 218.34 2401.57 138.34 2447.57"/>
    <polygon id="s84" class="cls-1" points="211.34 2132.57 221.34 2119.57 143.34 2164.57 126.34 2181.57 211.34 2132.57"/>
    <polygon id="s82" class="cls-1" points="291.34 1987.58 304.34 1981.58 235.34 2018.58 203.34 2038.58 291.34 1987.58"/>
    <polygon id="s80" class="cls-1" points="304.34 1981.58 380.81 2025.58 381.34 2018.58 310.34 1978.58 304.34 1981.58"/>
    <polygon id="s79" class="cls-1" points="291.34 1884.58 304.34 1892.58 304.34 1981.58 291.34 1987.58 291.34 1884.58"/>
    <polygon id="s78" class="cls-1" points="380.34 1838.58 380.34 1848.58 304.34 1892.58 297.34 1886.58 380.34 1838.58"/>
    <polygon id="s77" class="cls-1" points="55.34 1842.58 136.34 1888.58 193.34 1900.58 136.34 1865.58 55.34 1842.58"/>
    <polygon id="s76" class="cls-1" points="613.34 1980.58 566.34 1972.58 504.34 2008.58 536.34 2025.58 613.34 1980.58"/>
    <polygon id="s75" class="cls-1" points="708.34 1840.58 627.34 1865.58 566.34 1901.58 627.34 1887.58 708.34 1840.58"/>
    <polygon id="s73" class="cls-1" points="545.34 1746.58 518.34 1777.58 518.34 1857.58 545.34 1840.58 545.34 1746.58"/>
    <polygon id="s70" class="cls-1" points="466.34 1681.58 448.34 1738.58 380.34 1778.58 378.34 1732.58 466.34 1681.58"/>
    <polygon id="s68" class="cls-1" points="457.34 1892.58 459.32 1892.58 459.34 1980.58 457.34 1981.58 457.34 1892.58"/>
    <polygon id="s66" class="cls-1" points="296.34 2466.57 291.34 2502.57 202.34 2450.57 213.34 2418.57 296.34 2466.57"/>
    <polygon id="s67" class="cls-1" points="304.34 2512.57 291.34 2605.57 291.34 2514.57 304.34 2424.57 304.34 2512.57"/>
    <polygon id="s97" class="cls-1" points="235.34 2104.57 221.34 2119.57 300.34 2164.57 307.34 2144.57 235.34 2104.57"/>
    <polygon id="s95" class="cls-1" points="300.34 2255.57 296.34 2274.57 213.34 2322.57 221.34 2300.57 300.34 2255.57"/>
    <polygon id="s93" class="cls-1" points="221.34 2300.57 218.34 2308.6 137.34 2262.57 143.34 2255.4 221.34 2300.57"/>
    <polygon id="s58" class="cls-1" points="461.34 1602.58 466.34 1580.58 378.34 1529.58 378.34 1554.58 461.34 1602.58"/>
    <polygon id="s35" class="cls-1" points="456.34 1447.58 461.34 1410.58 378.34 1458.58 379.34 1494.58 456.34 1447.58"/>
    <polygon id="s36" class="cls-1" points="460.34 1442.58 534.34 1485.58 544.34 1458.58 461.34 1410.58 460.34 1442.58"/>
    <polygon id="s83" class="cls-1" points="211.34 2034.58 235.34 2020.58 235.34 2104.57 211.34 2132.57 211.34 2034.58"/>
    <polygon id="_45" data-name="45" class="cls-2" points="300.34 2255.4 300.34 2164.75 221.84 2119.43 143.34 2164.75 143.34 2255.4 221.84 2300.72 300.34 2255.4"/>
    <polygon id="_39" data-name="39" class="cls-2" points="457.34 1981.39 457.34 1893.01 380.81 1848.82 304.27 1893.01 304.27 1981.39 380.81 2025.58 457.34 1981.39"/>
    <polygon id="_37" data-name="37" class="cls-2" points="613.34 1981.03 613.34 1892.12 536.34 1847.66 459.34 1892.12 459.34 1981.03 536.34 2025.49 613.34 1981.03"/>
    <polygon id="_36" data-name="36" class="cls-2" points="545.34 2126.92 545.34 2032.23 463.34 1984.89 381.34 2032.23 381.34 2126.92 463.34 2174.26 545.34 2126.92"/>
    <polygon id="s86" class="cls-1" points="467.34 2189.57 487.34 2238.57 487.34 2359.57 467.34 2289.57 467.34 2189.57"/>
    <polygon id="_44" data-name="44" class="cls-2" points="696.34 2359.41 696.34 2238.74 591.84 2178.41 487.34 2238.74 487.34 2359.41 591.84 2419.74 696.34 2359.41"/>
    <polygon id="_43" data-name="43" class="cls-2" points="379.34 2418.49 379.34 2322.66 296.34 2274.74 213.34 2322.66 213.34 2418.49 296.34 2466.42 379.34 2418.49"/>
    <polygon id="s96" class="cls-1" points="292.34 2189.57 307.34 2144.57 380.81 2104.57 380.34 2138.57 292.34 2189.57"/>
    <polygon id="_46" data-name="46" class="cls-2" points="467.34 2290.44 467.34 2189.4 379.84 2138.88 292.34 2189.4 292.34 2290.44 379.84 2340.96 467.34 2290.44"/>
    <polygon id="_47" data-name="47" class="cls-2" points="211.34 2132.65 211.34 2034.5 126.34 1985.43 41.34 2034.5 41.34 2132.65 126.34 2181.72 211.34 2132.65"/>
    <polygon id="s81" class="cls-1" points="114.34 1987.58 126.34 1985.58 211.34 2034.58 202.34 2038.58 114.34 1987.58"/>
    <polygon id="_26" data-name="26" class="cls-2" points="456.34 1449.74 456.34 1360.25 378.84 1315.51 301.34 1360.25 301.34 1449.74 378.84 1494.49 456.34 1449.74"/>
    <polygon id="_27" data-name="27" class="cls-2" points="613.34 1440.4 613.34 1349.75 534.84 1304.43 456.34 1349.75 456.34 1440.4 534.84 1485.72 613.34 1440.4"/>
    <polygon id="_28" data-name="28" class="cls-2" points="544.34 1554.49 544.34 1458.65 461.34 1410.73 378.34 1458.65 378.34 1554.49 461.34 1602.42 544.34 1554.49"/>
    <polygon id="_33" data-name="33" class="cls-2" points="299.29 1706.49 299.29 1615.88 220.82 1570.58 142.34 1615.88 142.34 1706.49 220.82 1751.8 299.29 1706.49"/>
    <polygon id="_32" data-name="32" class="cls-2" points="216.34 1842.55 216.34 1749.6 135.84 1703.12 55.34 1749.6 55.34 1842.55 135.84 1889.03 216.34 1842.55"/>
    <polygon id="_41" data-name="41" class="cls-2" points="380.34 1838.49 380.34 1742.65 297.34 1694.73 214.34 1742.65 214.34 1838.49 297.34 1886.42 380.34 1838.49"/>
    <polygon id="s74" class="cls-1" points="545.34 1840.58 536.34 1847.58 613.34 1892.58 627.34 1887.58 545.34 1840.58"/>
    <polygon id="_38" data-name="38" class="cls-2" points="708.34 1840.62 708.34 1746.69 627.01 1699.73 545.67 1746.69 545.67 1840.62 627.01 1887.58 708.34 1840.62"/>
    <polygon id="_40" data-name="40" class="cls-2" points="291.34 1987.17 291.34 1884.98 202.84 1833.88 114.34 1884.98 114.34 1987.17 202.84 2038.27 291.34 1987.17"/>
    <polygon id="s71" class="cls-1" points="290.34 1681.58 297.34 1694.58 378.34 1741.58 378.34 1732.58 290.34 1681.58"/>
    <polygon id="s69" class="cls-1" points="590.34 1691.58 518.34 1777.58 448.34 1738.58 485.34 1631.58 590.34 1691.58"/>
    <polygon id="_35" data-name="35" class="cls-2" points="465.88 1681.59 465.88 1580.25 378.11 1529.58 290.34 1580.25 290.34 1681.59 378.11 1732.27 465.88 1681.59"/>
    <polygon id="_34" data-name="34" class="cls-2" points="209.34 1543.86 209.34 1446.29 124.84 1397.5 40.34 1446.29 40.34 1543.86 124.84 1592.65 209.34 1543.86"/>
    <polygon id="s55" class="cls-1" points="466.34 1681.58 485.34 1631.58 485.34 1509.58 466.34 1580.58 466.34 1681.58"/>
    <polygon id="s72" class="cls-1" points="695.34 1631.58 627.34 1699.58 545.34 1746.58 590.34 1691.58 695.34 1631.58"/>
    <polygon id="_31" data-name="31" class="cls-2" points="695.34 1631.2 695.34 1509.95 590.34 1449.33 485.34 1509.95 485.34 1631.2 590.34 1691.82 695.34 1631.2"/>
    <polygon id="s110" class="cls-1" points="566.34 1035.58 565.34 1100.58 573.34 1101.58 572.34 1028.58 566.34 1035.58"/>
    <polygon id="s1" class="cls-1" points="612.34 286.57 612.34 378.57 578.34 451.57 577.34 375.57 612.34 286.57"/>
    <polygon id="_2" data-name="2" class="cls-2" points="774.34 376.19 774.34 284.96 695.34 239.35 616.34 284.96 616.34 376.19 695.34 421.8 774.34 376.19"/>
    <polygon id="s33" class="cls-1" points="681.34 147.57 379.34 321.57 380.34 562.58 463.34 513.58 681.34 147.57"/>
    <polygon id="s32" class="cls-1" points="77.34 147.57 307.34 578.58 379.34 617.58 379.34 321.57 77.34 147.57"/>
    <polygon id="s3" class="cls-1" points="271.34 393.57 164.34 455.57 234.34 659.58 307.34 618.58 271.34 393.57"/>
    <polygon id="s20" class="cls-1" points="589.34 1019.58 503.34 1220.58 566.34 1253.58 695.34 1080.58 589.34 1019.58"/>
    <polygon id="s23" class="cls-1" points="380.34 1222.58 317.34 1257.58 292.34 1150.58 379.34 1099.58 380.34 1222.58"/>
    <polygon id="s50" class="cls-1" points="379.34 1017.58 379.34 1099.58 292.34 1150.58 273.34 1078.58 379.34 1017.58"/>
    <polygon id="s19" class="cls-1" points="544.34 470.57 544.34 560.58 562.34 453.57 562.34 348.57 544.34 470.57"/>
    <polygon id="s18" class="cls-1" points="590.34 441.57 553.34 578.58 467.34 628.58 486.34 502.57 590.34 441.57"/>
    <polygon id="s17" class="cls-1" points="380.34 695.58 379.34 578.58 467.34 628.58 440.34 730.58 380.34 695.58"/>
    <polygon id="s16" class="cls-1" points="380.34 695.58 319.34 731.58 292.34 628.58 379.34 578.58 380.34 695.58"/>
    <polygon id="s15" class="cls-1" points="235.34 744.58 235.34 659.58 210.34 590.58 210.34 685.58 235.34 744.58"/>
    <polygon id="s14" class="cls-1" points="269.34 463.57 319.34 731.58 255.34 699.58 161.34 400.57 269.34 463.57"/>
    <polygon id="s9" class="cls-1" points="565.34 1108.58 586.34 1068.58 655.34 1108.58 628.34 1144.58 565.34 1108.58"/>
    <polygon id="s8" class="cls-1" points="565.34 1108.58 503.34 1144.58 517.34 1108.58 586.34 1068.58 565.34 1108.58"/>
    <polygon id="s7" class="cls-1" points="503.34 1144.58 503.34 1220.58 517.34 1188.58 517.34 1108.58 503.34 1144.58"/>
    <polygon id="_9" data-name="9" class="cls-2" points="702.56 1095.27 702.56 1020.67 637.95 983.37 573.34 1020.67 573.34 1095.27 637.95 1132.58 702.56 1095.27"/>
    <polygon id="s48" class="cls-1" points="442.34 1108.58 445.34 1081.58 513.34 1120.58 503.34 1144.58 442.34 1108.58"/>
    <polygon id="s54" class="cls-1" points="683.34 886.58 638.34 989.58 573.34 1026.58 608.34 930.58 683.34 886.58"/>
    <polygon id="_10" data-name="10" class="cls-2" points="580.34 1082.05 580.34 1004.1 512.84 965.13 445.34 1004.1 445.34 1082.05 512.84 1121.02 580.34 1082.05"/>
    <polygon id="_5" data-name="5" class="cls-2" points="210.34 484.73 210.34 386.58 125.34 337.5 40.34 386.58 40.34 484.73 125.34 533.8 210.34 484.73"/>
    <polygon id="s43" class="cls-1" points="50.34 590.58 136.34 777.58 217.34 823.58 160.34 653.58 50.34 590.58"/>
    <polygon id="s53" class="cls-1" points="56.34 853.58 137.34 899.58 192.34 1037.58 131.34 1004.58 56.34 853.58"/>
    <polygon id="_14" data-name="14" class="cls-2" points="217.34 851.58 217.34 758.6 136.84 712.12 56.34 758.6 56.34 851.55 136.84 898.03 217.34 851.58"/>
    <polygon id="_13" data-name="13" class="cls-2" points="380.34 804.52 380.34 708.1 296.84 659.89 213.34 708.1 213.34 804.52 296.84 852.73 380.34 804.52"/>
    <polygon id="s29" class="cls-1" points="192.34 1329.08 137.34 1271.58 56.34 1318.58 131.34 1363.58 192.34 1329.08"/>
    <polygon id="_23" data-name="23" class="cls-2" points="218.02 1411.59 218.02 1318.25 137.18 1271.58 56.34 1318.25 56.34 1411.59 137.18 1458.26 218.02 1411.59"/>
    <polygon id="s27" class="cls-1" points="256.34 1364.58 255.34 1434.58 218.34 1409.58 218.34 1318.58 256.34 1364.58"/>
    <polygon id="s28" class="cls-1" points="192.34 1328.58 256.34 1364.58 218.34 1318.58 137.34 1271.58 192.34 1328.58"/>
    <polygon id="_19" data-name="19" class="cls-2" points="296.88 1266.94 296.88 1171.36 214.12 1123.58 131.34 1171.36 131.34 1266.94 214.12 1314.72 296.88 1266.94"/>
    <polygon id="s26" class="cls-1" points="3.34 961.58 131.34 1147.58 192.34 1109.58 98.34 909.58 3.34 961.58"/>
    <polygon id="_15" data-name="15" class="cls-2" points="290.34 928.17 290.34 825.37 201.31 773.96 112.28 825.37 112.28 928.17 201.31 979.58 290.34 928.17"/>
    <polygon id="s42" class="cls-1" points="532.34 886.58 512.84 964.58 580.34 1003.58 608.34 930.58 532.34 886.58"/>
    <polygon id="_8" data-name="8" class="cls-2" points="684.34 886.45 684.34 798.7 608.34 754.82 532.34 798.7 532.34 886.45 608.34 930.33 684.34 886.45"/>
    <polygon id="s2" class="cls-1" points="562.34 348.57 654.34 295.57 565.34 453.57 548.34 438.57 562.34 348.57"/>
    <polygon id="_6" data-name="6" class="cls-2" points="545.55 609.65 545.55 514.27 462.95 466.57 380.34 514.27 380.34 609.65 462.95 657.34 545.55 609.65"/>
    <polygon id="s45" class="cls-1" points="292.34 730.58 297.34 757.58 379.34 804.58 379.84 780.58 292.34 730.58"/>
    <polygon id="_12" data-name="12" class="cls-2" points="467.34 730.06 467.34 629.02 379.84 578.5 292.34 629.02 292.34 730.06 379.84 780.58 467.34 730.06"/>
    <polygon id="_11" data-name="11" class="cls-2" points="555.68 797.96 555.68 696.73 468.01 646.12 380.34 696.73 380.34 797.96 468.01 848.58 555.68 797.96"/>
    <polygon id="s100" class="cls-1" points="555.34 795.58 468.34 845.58 445.34 1004.58 512.34 965.58 555.34 795.58"/>
    <polygon id="s49" class="cls-1" points="479.34 876.58 441.34 1108.58 379.33 1144.58 379.84 933.58 479.34 876.58"/>
    <polygon id="s4" class="cls-1" points="467.34 628.58 485.34 503.57 486.34 621.58 468.34 730.58 467.34 628.58"/>
    <polygon id="_17" data-name="17" class="cls-2" points="655.34 1188.49 655.34 1108.82 586.34 1068.98 517.34 1108.82 517.34 1188.49 586.34 1228.33 655.34 1188.49"/>
    <polygon id="s34" class="cls-1" points="745.34 453.57 696.34 512.58 695.34 501.57 678.34 492.57 745.34 453.57"/>
    <polygon id="_3" data-name="3" class="cls-2" points="271.34 393.14 271.34 269.01 163.84 206.94 56.34 269.01 56.34 393.14 163.84 455.21 271.34 393.14"/>
    <polygon id="_4" data-name="4" class="cls-2" points="745.34 453.9 745.34 348.25 653.84 295.42 562.34 348.25 562.34 453.9 653.84 506.73 745.34 453.9"/>
    <polygon id="s107" class="cls-1" points="695.34 1141.58 566.34 1264.58 503.34 1300.58 590.34 1201.58 695.34 1141.58"/>
    <polygon id="s106" class="cls-1" points="484.34 1141.58 590.34 1201.58 503.34 1300.58 442.34 1266.58 467.52 1191.64 484.34 1141.58"/>
    <polygon id="s65" class="cls-1" points="201.34 967.58 201.34 1072.81 192.34 1065.58 192.34 956.58 201.34 967.58"/>
    <polygon id="s21" class="cls-1" points="503.34 1220.58 442.34 1256.58 484.34 1076.58 589.34 1015.58 503.34 1220.58"/>
    <polygon id="s30" class="cls-1" points="467.34 1090.58 467.34 1191.58 484.34 1140.58 484.34 1016.58 467.34 1090.58"/>
    <polygon id="s22" class="cls-1" points="442.34 1256.58 380.34 1222.58 379.34 1099.58 467.34 1150.58 442.34 1256.58"/>
    <polygon id="_24" data-name="24" class="cls-2" points="695.34 1140.99 695.34 1019.16 589.84 958.25 484.34 1019.16 484.34 1140.99 589.84 1201.9 695.34 1140.99"/>
    <polygon id="s102" class="cls-1" points="3.34 1070.58 133.34 1221.58 133.34 1170.58 97.34 1125.58 3.34 1070.58"/>
    <polygon id="_21" data-name="21" class="cls-2" points="192.34 1070.63 192.34 961.52 97.84 906.96 3.34 961.52 3.34 1070.63 97.84 1125.19 192.34 1070.63"/>
    <polygon id="s64" class="cls-1" points="97.34 1125.58 192.34 1070.58 214.34 1122.58 133.34 1170.58 97.34 1125.58"/>
    <polygon id="s47" class="cls-1" points="486.34 621.58 590.34 683.58 555.34 778.58 467.34 729.58 486.34 621.58"/>
    <polygon id="s46" class="cls-1" points="695.34 623.58 590.34 683.58 555.34 780.58 555.68 837.23 608.34 806.58 695.34 623.58"/>
    <polygon id="s44" class="cls-1" points="160.34 653.58 213.34 804.58 297.34 757.58 269.34 590.58 160.34 653.58"/>
    <polygon id="s5" class="cls-1" points="292.34 730.58 269.34 590.58 269.34 463.57 292.34 628.58 292.34 730.58"/>
    <polygon id="s37" class="cls-1" points="111.34 1453.58 137.34 1458.58 218.34 1411.58 201.34 1400.58 111.34 1453.58"/>
    <polygon id="s108" class="cls-1" points="201.34 1508.58 232.34 1489.58 301.34 1449.58 290.34 1457.58 201.34 1508.58"/>
    <polygon id="_29" data-name="29" class="cls-2" points="290.34 1456.75 290.34 1353.4 200.84 1301.73 111.34 1353.4 111.34 1456.75 200.84 1508.42 290.34 1456.75"/>
    <polygon id="s104" class="cls-1" points="256.34 1334.58 301.34 1360.58 379.34 1315.58 378.34 1263.58 256.34 1334.58"/>
    <polygon id="_7" data-name="7" class="cls-2" points="695.34 623.11 695.34 502.19 590.62 441.72 485.89 502.19 485.89 623.11 590.62 683.58 695.34 623.11"/>
    <polygon id="s105" class="cls-1" points="442.34 1266.58 378.34 1303.58 379.34 1242.58 467.34 1191.58 442.34 1266.58"/>
    <polygon id="_22" data-name="22" class="cls-2" points="467.34 1191.59 467.34 1090.56 379.84 1040.04 292.34 1090.56 292.34 1191.59 379.84 1242.11 467.34 1191.59"/>
    <polygon id="s103" class="cls-1" points="290.34 1353.58 290.34 1456.58 301.34 1449.58 301.34 1360.58 290.34 1353.58"/>
    <polygon id="s101" class="cls-1" points="168.34 1017.58 214.34 1123.58 297.34 1170.58 273.34 1078.58 168.34 1017.58"/>
    <polygon id="s99" class="cls-1" points="210.34 590.58 164.34 455.57 56.34 393.57 125.34 534.58 210.34 590.58"/>
    <polygon id="_18" data-name="18" class="cls-2" points="269.34 590.37 269.34 463.93 159.84 400.71 50.34 463.93 50.34 590.37 159.84 653.59 269.34 590.37"/>
    <polygon id="_20" data-name="20" class="cls-2" points="379.33 1017.58 379.33 895.58 273.68 834.58 168.02 895.58 168.02 1017.58 273.68 1078.58 379.33 1017.58"/>
    <polygon id="_30" data-name="30" class="cls-2" points="378.34 1263.8 378.34 1122.35 255.84 1051.63 133.34 1122.35 133.34 1263.8 255.84 1334.53 378.34 1263.8"/>
    <polygon id="s98" class="cls-1" points="271.34 268.57 307.34 541.58 307.34 618.58 271.34 393.57 271.34 268.57"/>
    <polygon id="_16" data-name="16" class="cls-2" points="479.34 873.52 479.34 758.63 379.84 701.18 280.34 758.63 280.34 873.52 379.84 930.97 479.34 873.52"/>
    <polygon id="s11" class="cls-1" points="290.34 832.58 290.34 797.58 201.34 745.58 217.34 786.58 290.34 832.58"/>
    <polygon id="s10" class="cls-1" points="112.34 797.58 137.34 832.58 217.34 786.58 201.34 745.58 112.34 797.58"/>
    <polygon id="s6" class="cls-1" points="468.34 802.58 479.34 757.58 380.34 701.58 380.34 751.58 468.34 802.58"/>
    <polygon id="s12" class="cls-1" points="380.34 720.58 380.34 700.58 280.34 757.58 296.34 768.58 380.34 720.58"/>
    <polygon id="s25" class="cls-1" points="379.34 940.58 292.34 889.58 273.34 836.58 378.34 897.58 379.34 940.58"/>
    <polygon id="s24" class="cls-1" points="290.34 883.58 201.34 933.58 168.34 896.58 273.34 836.58 290.34 883.58"/>
    <polygon id="s31" class="cls-1" points="201.34 971.58 192.34 960.58 98.34 905.58 112.34 920.58 201.34 971.58"/>
    <polygon id="s38" class="cls-1" points="297.34 1167.58 214.34 1215.58 133.34 1122.58 256.34 1051.58 297.34 1167.58"/>
    <polygon id="_25" data-name="25" class="cls-2" points="655.76 1663.58 655.76 1584.24 587.05 1544.58 518.34 1584.24 518.34 1663.58 587.05 1703.25 655.76 1663.58"/>
    <polygon id="s63" class="cls-1" points="571.34 1572.58 631.34 1606.58 659.34 1591.58 591.34 1551.58 571.34 1572.58"/>
    <polygon id="_1" data-name="1" class="cls-3" points="379.12 319.57 76.9 145.09 77.34 -204.43 379.34 -379.43 681.34 -204.43 681.34 145.09 379.12 319.57"/>
    <polygon id="xx05" class="cls-1" points="203.34 1833.58 214.34 1838.58 297.34 1886.58 291.34 1884.58 203.34 1833.58"/>
    <polygon id="xx01" class="cls-1" points="467.34 2289.57 442.34 2258.57 379.34 2294.57 379.34 2339.96 467.34 2289.57"/>
    <polygon id="xx02" class="cls-1" points="467.34 2188.57 463.34 2174.57 381.34 2126.57 381.34 2138.75 467.34 2188.57"/>
    <polygon id="xx03" class="cls-1" points="463.34 1984.58 459.34 1980.58 536.34 2025.58 545.34 2032.58 463.34 1984.58"/>
    <polygon id="xx04" class="cls-1" points="457.34 1979.58 463.34 1984.58 381.34 2032.58 380.34 2023.58 457.34 1979.58"/>
    <polygon id="xxx07" class="cls-1" points="518.34 1857.58 536.34 1847.58 459.34 1892.58 448.34 1898.58 518.34 1857.58"/>
    <polygon id="xxx06" class="cls-1" points="380.34 1858.58 380.34 1847.58 457.34 1891.58 448.34 1899.58 380.34 1858.58"/>
    <polygon id="s51" class="cls-1" points="378.34 1123.58 255.34 1052.58 291.34 1072.58 379.34 1123.58 378.34 1123.58"/>
    <polygon id="yy1" class="cls-1" points="317.34 1753.58 258.34 1789.58 215.34 1812.58 297.18 1765.08 317.34 1753.58"/>
    <polygon id="yy2" class="cls-1" points="136.34 1761.58 193.34 1755.58 258.34 1789.58 218.34 1808.58 136.34 1761.58"/>
    <polygon id="yy3" class="cls-1" points="55.34 1808.58 132.34 1789.58 193.34 1755.58 136.34 1762.58 55.34 1808.58"/>
    <polygon id="yy4" class="cls-1" points="215.34 1902.58 203.34 1921.58 114.34 1972.58 136.34 1947.58 215.34 1902.58"/>
    <polygon id="yy5" class="cls-1" points="193.34 1970.58 132.34 2005.58 41.34 2106.57 126.34 2057.57 193.34 1970.58"/>
    <polygon id="c1" class="cls-3" points="380.87 3292.57 122.9 3143.63 123.28 2845.3 381.06 2695.92 638.84 2845.3 638.84 3143.63 380.87 3292.57"/>
    <polygon id="bee2" class="cls-4" points="388.34 2447.57 380.34 2455.57 379.34 2452.57 377.34 2460.57 377.34 2467.57 381.34 2461.57 389.34 2455.57 382.34 2457.57 388.34 2447.57"/>
    <polygon id="k01" class="cls-1" points="381.34 2557.57 381.34 2695.57 639.34 2845.57 537.34 2562.57 458.34 2512.57 381.34 2557.57"/>
    <polygon id="k02" class="cls-1" points="304.34 2512.57 201.34 2657.57 123.34 2845.57 381.34 2695.57 381.34 2557.57 304.34 2512.57"/>
  </g>
</svg>
