<svg xmlns="http://www.w3.org/2000/svg" width="760" height="3000" viewBox="0 0 760 3000">
  <defs>
    <style>
      .cls-1 {
        fill: #f2f2f2;
      }

      .cls-1, .cls-2, .cls-3, .cls-4 {
        stroke: #000;
        stroke-miterlimit: 10;
      }

      .cls-2, .cls-3 {
        fill: #fff;
      }

      .cls-3 {
        stroke-width: 2px;
      }
    </style>
  </defs>
  <title>aartics_polygons_vertical</title>
  <g id="_03stage" data-name="03stage">
    <polygon id="s63" class="cls-1" points="567.79 1538.88 627.79 1572.88 655.79 1606.88 587.79 1566.88 567.79 1538.88"/>
    <polygon id="_25" data-name="25" class="cls-2" points="656.21 1685.88 656.21 1606.54 587.5 1566.88 518.79 1606.54 518.79 1685.88 587.5 1725.55 656.21 1685.88"/>
    <polygon id="s41" class="cls-1" points="504.79 1430.88 441.79 1466.88 456.79 1515.88 535.79 1470.88 504.79 1430.88"/>
    <polygon id="s88" class="cls-1" points="467.79 2374.88 467.79 2273.88 487.79 2380.88 487.79 2501.88 467.79 2374.88"/>
    <polygon id="s40" class="cls-1" points="379.79 1466.88 456.79 1511.88 441.79 1466.88 378.79 1429.88 379.79 1466.88"/>
    <polygon id="s52" class="cls-1" points="504.79 1430.88 565.79 1466.88 613.79 1515.88 535.79 1470.88 504.79 1430.88"/>
    <polygon id="s60" class="cls-1" points="299.79 1789.88 306.79 1747.88 234.79 1706.88 220.79 1744.88 299.79 1789.88"/>
    <polygon id="s62" class="cls-1" points="133.79 1570.88 192.79 1537.88 125.79 1630.88 40.79 1679.88 133.79 1570.88"/>
    <polygon id="s59" class="cls-1" points="378.79 1795.88 290.79 1846.88 306.79 1747.88 378.56 1706.88 378.79 1795.88"/>
    <polygon id="s61" class="cls-1" points="234.79 1623.88 234.79 1706.88 221.23 1744.86 209.79 1776.88 209.79 1679.88 234.79 1623.88"/>
    <polygon id="s57" class="cls-1" points="518.79 1685.88 587.79 1725.88 695.79 1955.88 590.79 1895.88 518.79 1685.88"/>
    <polygon id="s56" class="cls-1" points="461.79 1813.88 544.79 1765.8 590.79 1895.88 485.79 1955.88 461.79 1813.88"/>
    <polygon id="s94" class="cls-1" points="195.79 2187.88 134.79 2222.88 57.79 2368.88 137.79 2322.88 195.79 2187.88"/>
    <polygon id="_42" data-name="42" class="cls-2" points="218.79 2461.85 218.79 2368.9 138.29 2322.42 57.79 2368.9 57.79 2461.85 138.29 2508.33 218.79 2461.85"/>
    <polygon id="_50" data-name="50" class="cls-2" points="615.79 2521.98 615.79 2431.91 537.79 2386.88 459.78 2431.91 459.78 2521.98 537.79 2567.02 615.79 2521.98"/>
    <polygon id="_49" data-name="49" class="cls-2" points="458.79 2513.33 458.79 2424.42 381.79 2379.96 304.79 2424.42 304.79 2513.33 381.79 2557.79 458.79 2513.33"/>
    <polygon id="_48" data-name="48" class="cls-2" points="291.79 2606.05 291.79 2502.7 202.29 2451.03 112.79 2502.7 112.79 2606.05 202.29 2657.72 291.79 2606.05"/>
    <polygon id="_51" data-name="51" class="cls-2" points="709.79 2411.43 709.79 2317.32 628.29 2270.27 546.79 2317.32 546.79 2411.43 628.29 2458.48 709.79 2411.43"/>
    <polygon id="s87" class="cls-1" points="442.79 2182.88 504.79 2222.88 592.79 2561.88 487.79 2501.88 442.79 2182.88"/>
    <polygon id="s90" class="cls-1" points="504.79 2294.88 537.79 2386.88 459.79 2431.88 442.79 2331.88 504.79 2294.88"/>
    <polygon id="s92" class="cls-1" points="545.79 2198.88 592.79 2320.88 696.79 2382.88 633.79 2250.88 545.79 2198.88"/>
    <polygon id="s91" class="cls-1" points="463.79 2240.88 487.79 2380.88 591.79 2320.88 545.79 2192.88 463.79 2240.88"/>
    <polygon id="s89" class="cls-1" points="442.79 2331.88 458.79 2424.88 381.79 2379.88 380.79 2294.88 442.79 2331.88"/>
    <polygon id="s85" class="cls-1" points="138.79 2447.88 112.79 2502.88 202.79 2450.88 218.79 2401.88 138.79 2447.88"/>
    <polygon id="s84" class="cls-1" points="211.79 2205.88 221.79 2173.88 143.79 2218.88 126.79 2254.88 211.79 2205.88"/>
    <polygon id="s82" class="cls-1" points="291.79 2173.88 304.79 2084.88 235.79 2137.88 203.79 2226.88 291.79 2173.88"/>
    <polygon id="s80" class="cls-1" points="304.79 1981.88 381.25 2025.88 381.79 2018.88 310.79 1978.88 304.79 1981.88"/>
    <polygon id="s79" class="cls-1" points="291.79 2072.88 304.79 1992.88 304.79 2081.88 291.79 2175.88 291.79 2072.88"/>
    <polygon id="s78" class="cls-1" points="380.79 1908.88 380.79 1895.88 304.79 1939.88 297.79 1956.88 380.79 1908.88"/>
    <polygon id="s77" class="cls-1" points="55.79 2033.88 135.79 2079.88 193.79 2027.88 131.79 1994.88 55.79 2033.88"/>
    <polygon id="s76" class="cls-1" points="613.79 2030.88 566.79 1972.88 504.79 2008.88 536.79 2075.88 613.79 2030.88"/>
    <polygon id="s75" class="cls-1" points="708.79 1979.88 627.79 1939.88 566.79 1975.88 627.79 2026.88 708.79 1979.88"/>
    <polygon id="s73" class="cls-1" points="545.79 1966.88 518.79 1952.88 518.79 2030.88 545.79 2060.88 545.79 1966.88"/>
    <polygon id="s70" class="cls-1" points="466.79 1765.88 442.79 1753.88 380.79 1790.88 378.79 1816.88 466.79 1765.88"/>
    <polygon id="s68" class="cls-1" points="457.79 1995.88 459.79 1998.88 459.79 2086.88 457.79 2084.88 457.79 1995.88"/>
    <polygon id="s66" class="cls-1" points="296.79 2466.88 291.79 2502.88 202.79 2450.88 213.79 2418.88 296.79 2466.88"/>
    <polygon id="s67" class="cls-1" points="304.79 2512.88 291.79 2605.88 291.79 2514.88 304.79 2424.88 304.79 2512.88"/>
    <polygon id="s97" class="cls-1" points="235.79 2137.88 222.79 2173.88 300.79 2218.88 307.79 2177.88 235.79 2137.88"/>
    <polygon id="s95" class="cls-1" points="300.79 2309.88 296.79 2344.88 213.79 2392.88 221.79 2354.88 300.79 2309.88"/>
    <polygon id="s93" class="cls-1" points="221.79 2354.88 218.79 2368.88 137.79 2322.88 143.79 2309.7 221.79 2354.88"/>
    <polygon id="s58" class="cls-1" points="461.79 1813.88 466.79 1846.88 378.79 1795.88 378.79 1765.8 461.79 1813.88"/>
    <polygon id="s35" class="cls-1" points="456.79 1601.88 461.79 1621.88 378.79 1669.88 378.79 1645.88 456.79 1601.88"/>
    <polygon id="s36" class="cls-1" points="456.79 1606.88 535.79 1651.88 544.79 1669.88 461.79 1621.88 456.79 1606.88"/>
    <polygon id="s83" class="cls-1" points="211.79 2106.88 235.79 2057.88 235.79 2137.88 211.79 2204.88 211.79 2106.88"/>
    <polygon id="_45" data-name="45" class="cls-2" points="300.79 2309.7 300.79 2219.05 222.29 2173.73 143.79 2219.05 143.79 2309.7 222.29 2355.02 300.79 2309.7"/>
    <polygon id="_39" data-name="39" class="cls-2" points="457.79 2081.69 457.79 1993.31 381.25 1949.12 304.72 1993.31 304.72 2081.69 381.25 2125.88 457.79 2081.69"/>
    <polygon id="_37" data-name="37" class="cls-2" points="613.79 2091.33 613.79 2002.42 536.79 1957.96 459.79 2002.42 459.79 2091.33 536.79 2135.79 613.79 2091.33"/>
    <polygon id="_36" data-name="36" class="cls-2" points="545.79 2245.22 545.79 2150.53 463.79 2103.19 381.79 2150.53 381.79 2245.22 463.79 2292.56 545.79 2245.22"/>
    <polygon id="s86" class="cls-1" points="466.79 2286.88 486.79 2380.88 486.79 2501.88 466.79 2387.88 466.79 2286.88"/>
    <polygon id="_44" data-name="44" class="cls-2" points="695.79 2501.71 695.79 2381.04 591.29 2320.71 486.79 2381.04 486.79 2501.71 591.29 2562.04 695.79 2501.71"/>
    <polygon id="_43" data-name="43" class="cls-2" points="378.79 2488.8 378.79 2392.95 295.79 2345.03 212.79 2392.95 212.79 2488.8 295.79 2536.72 378.79 2488.8"/>
    <polygon id="s96" class="cls-1" points="291.33 2302.88 306.33 2177.88 379.79 2137.88 379.33 2251.88 291.33 2302.88"/>
    <polygon id="_46" data-name="46" class="cls-2" points="466.79 2403.74 466.79 2302.7 379.29 2252.18 291.79 2302.7 291.79 2403.74 379.29 2454.26 466.79 2403.74"/>
    <polygon id="_47" data-name="47" class="cls-2" points="210.79 2287.95 210.79 2189.8 125.79 2140.73 40.79 2189.8 40.79 2287.95 125.79 2337.03 210.79 2287.95"/>
    <polygon id="s81" class="cls-1" points="113.79 2157.88 125.79 2155.88 210.79 2204.88 201.79 2208.88 113.79 2157.88"/>
    <polygon id="_26" data-name="26" class="cls-2" points="456.79 1601.04 456.79 1511.55 379.29 1466.81 301.79 1511.55 301.79 1601.04 379.29 1645.79 456.79 1601.04"/>
    <polygon id="_27" data-name="27" class="cls-2" points="613.79 1606.7 613.79 1516.05 535.29 1470.73 456.79 1516.05 456.79 1606.7 535.29 1652.02 613.79 1606.7"/>
    <polygon id="_28" data-name="28" class="cls-2" points="544.79 1765.8 544.79 1669.95 461.79 1622.04 378.79 1669.95 378.79 1765.8 461.79 1813.71 544.79 1765.8"/>
    <polygon id="_33" data-name="33" class="cls-2" points="299.73 1880.79 299.73 1790.18 221.26 1744.88 142.79 1790.18 142.79 1880.79 221.26 1926.1 299.73 1880.79"/>
    <polygon id="_32" data-name="32" class="cls-2" points="216.79 2033.85 216.79 1940.9 136.29 1894.42 55.79 1940.9 55.79 2033.85 136.29 2080.33 216.79 2033.85"/>
    <polygon id="_41" data-name="41" class="cls-2" points="380.79 1987.8 380.79 1891.95 297.79 1844.04 214.79 1891.95 214.79 1987.8 297.79 2035.71 380.79 1987.8"/>
    <polygon id="s74" class="cls-1" points="544.79 1995.88 535.79 1987.88 612.79 2030.88 626.79 2042.88 544.79 1995.88"/>
    <polygon id="_38" data-name="38" class="cls-2" points="708.79 2069.91 708.79 1975.99 627.46 1929.04 546.12 1975.99 546.12 2069.91 627.46 2116.88 708.79 2069.91"/>
    <polygon id="_40" data-name="40" class="cls-2" points="291.79 2175.47 291.79 2073.28 203.29 2022.18 114.79 2073.28 114.79 2175.47 203.29 2226.57 291.79 2175.47"/>
    <polygon id="s71" class="cls-1" points="289.79 1944.88 317.79 1933.88 377.79 1970.88 377.79 1996.88 289.79 1944.88"/>
    <polygon id="s69" class="cls-1" points="590.79 2137.88 566.79 2010.88 466.79 1947.88 485.79 2077.88 590.79 2137.88"/>
    <polygon id="_35" data-name="35" class="cls-2" points="466.33 1947.89 466.33 1846.55 378.56 1795.88 290.79 1846.55 290.79 1947.89 378.56 1998.57 466.33 1947.89"/>
    <polygon id="_34" data-name="34" class="cls-2" points="209.79 1777.16 209.79 1679.59 125.29 1630.8 40.79 1679.59 40.79 1777.16 125.29 1825.95 209.79 1777.16"/>
    <polygon id="s55" class="cls-1" points="466.79 1947.88 485.79 2077.88 485.79 1955.88 466.33 1846.55 466.79 1947.88"/>
    <polygon id="s72" class="cls-1" points="694.79 2075.88 626.79 2065.88 544.79 2112.88 589.79 2135.88 694.79 2075.88"/>
    <polygon id="_31" data-name="31" class="cls-2" points="695.79 2077.5 695.79 1956.25 590.79 1895.63 485.79 1956.25 485.79 2077.5 590.79 2138.12 695.79 2077.5"/>
    <polygon id="s110" class="cls-1" points="566.79 1035.88 565.79 1100.88 573.79 1101.88 572.79 1028.88 566.79 1035.88"/>
    <polygon id="s1" class="cls-1" points="612.79 286.88 612.79 378.88 578.79 451.88 577.79 375.88 612.79 286.88"/>
    <polygon id="_2" data-name="2" class="cls-2" points="774.79 376.49 774.79 285.26 695.79 239.65 616.79 285.26 616.79 376.49 695.79 422.1 774.79 376.49"/>
    <polygon id="s33" class="cls-1" points="681.79 145.88 379.79 319.88 380.79 562.88 463.79 513.88 681.79 145.88"/>
    <polygon id="s32" class="cls-1" points="77.79 145.88 307.79 578.88 380.79 617.88 379.79 319.88 77.79 145.88"/>
    <polygon id="s3" class="cls-1" points="271.79 393.88 164.79 455.88 234.79 659.88 307.79 618.88 271.79 393.88"/>
    <polygon id="s20" class="cls-1" points="589.79 1165.88 503.79 1220.88 566.79 1256.88 695.79 1226.88 589.79 1165.88"/>
    <polygon id="s23" class="cls-1" points="380.79 1222.88 317.79 1257.88 292.79 1236.88 379.79 1185.88 380.79 1222.88"/>
    <polygon id="s50" class="cls-1" points="379.79 1167.88 380.79 1185.88 290.79 1236.89 273.79 1228.88 379.79 1167.88"/>
    <polygon id="s19" class="cls-1" points="544.79 470.88 544.79 560.88 562.79 453.88 562.79 348.88 544.79 470.88"/>
    <polygon id="s18" class="cls-1" points="590.79 441.88 553.79 578.88 467.79 628.88 486.79 502.88 590.79 441.88"/>
    <polygon id="s17" class="cls-1" points="380.79 695.88 379.79 578.88 467.79 628.88 440.79 730.88 380.79 695.88"/>
    <polygon id="s16" class="cls-1" points="380.79 695.88 319.79 731.88 292.79 628.88 379.79 578.88 380.79 695.88"/>
    <polygon id="s15" class="cls-1" points="235.79 744.88 235.79 659.88 210.79 590.88 210.79 685.88 235.79 744.88"/>
    <polygon id="s14" class="cls-1" points="269.79 463.88 319.79 731.88 255.79 699.88 161.79 400.88 269.79 463.88"/>
    <polygon id="s11" class="cls-1" points="290.79 962.88 290.79 927.88 201.79 875.88 217.79 916.88 290.79 962.88"/>
    <polygon id="s10" class="cls-1" points="112.79 927.88 137.79 962.88 217.79 916.88 201.79 875.88 112.79 927.88"/>
    <polygon id="s9" class="cls-1" points="565.79 1108.88 586.79 1088.88 655.79 1128.88 628.79 1144.88 565.79 1108.88"/>
    <polygon id="s8" class="cls-1" points="565.79 1108.88 503.79 1144.88 517.79 1128.88 586.79 1088.88 565.79 1108.88"/>
    <polygon id="s7" class="cls-1" points="503.79 1144.88 503.79 1220.88 517.79 1208.88 517.79 1128.88 503.79 1144.88"/>
    <polygon id="_9" data-name="9" class="cls-2" points="703.01 1101.57 703.01 1026.97 638.4 989.66 573.79 1026.97 573.79 1101.57 638.4 1138.88 703.01 1101.57"/>
    <polygon id="s48" class="cls-1" points="442.79 1108.88 445.79 1096.35 513.79 1134.88 503.79 1144.88 442.79 1108.88"/>
    <polygon id="s54" class="cls-1" points="683.79 937.88 638.79 989.88 573.79 1026.88 608.79 980.88 683.79 937.88"/>
    <polygon id="_10" data-name="10" class="cls-2" points="580.79 1096.35 580.79 1018.4 513.29 979.43 445.79 1018.4 445.79 1096.35 513.29 1135.32 580.79 1096.35"/>
    <polygon id="s6" class="cls-1" points="468.79 932.88 479.79 887.88 380.79 831.88 380.79 881.88 468.79 932.88"/>
    <polygon id="_5" data-name="5" class="cls-2" points="210.79 485.03 210.79 386.88 125.79 337.8 40.79 386.88 40.79 485.03 125.79 534.1 210.79 485.03"/>
    <polygon id="s43" class="cls-1" points="50.79 590.88 136.79 777.88 217.79 823.88 160.79 653.88 50.79 590.88"/>
    <polygon id="s53" class="cls-1" points="56.79 916.88 137.79 962.88 192.79 1035.88 131.79 1002.88 56.79 916.88"/>
    <polygon id="_14" data-name="14" class="cls-2" points="217.79 916.88 217.79 823.9 137.29 777.42 56.79 823.9 56.79 916.85 137.29 963.33 217.79 916.88"/>
    <polygon id="_13" data-name="13" class="cls-2" points="380.79 904.82 380.79 808.4 297.29 760.19 213.79 808.4 213.79 904.82 297.29 953.02 380.79 904.82"/>
    <polygon id="s29" class="cls-1" points="192.79 1329.38 137.79 1335.88 56.79 1380.88 131.79 1363.88 192.79 1329.38"/>
    <polygon id="_23" data-name="23" class="cls-2" points="218.47 1475.89 218.47 1382.55 137.63 1335.88 56.79 1382.55 56.79 1475.89 137.63 1522.56 218.47 1475.89"/>
    <polygon id="s27" class="cls-1" points="256.79 1364.88 256.79 1429.88 218.79 1475.88 218.79 1380.88 256.79 1364.88"/>
    <polygon id="s28" class="cls-1" points="192.79 1328.88 256.79 1364.88 218.79 1380.88 137.79 1335.88 192.79 1328.88"/>
    <polygon id="_19" data-name="19" class="cls-2" points="297.33 1336.24 297.33 1240.66 214.56 1192.88 131.79 1240.66 131.79 1336.24 214.56 1384.03 297.33 1336.24"/>
    <polygon id="s26" class="cls-1" points="3.79 1070.88 131.79 1144.88 192.79 1108.88 98.79 1015.88 3.79 1070.88"/>
    <polygon id="_15" data-name="15" class="cls-2" points="290.79 1030.47 290.79 927.66 201.76 876.26 112.72 927.66 112.72 1030.47 201.76 1081.88 290.79 1030.47"/>
    <polygon id="s12" class="cls-1" points="380.79 850.88 380.79 830.88 280.79 887.88 296.79 898.88 380.79 850.88"/>
    <polygon id="s42" class="cls-1" points="532.79 936.88 513.29 979.88 580.79 1018.88 608.79 980.88 532.79 936.88"/>
    <polygon id="_8" data-name="8" class="cls-2" points="684.79 936.75 684.79 849 608.79 805.12 532.79 849 532.79 936.75 608.79 980.63 684.79 936.75"/>
    <polygon id="s2" class="cls-1" points="562.79 348.88 654.79 295.88 565.79 453.88 548.79 438.88 562.79 348.88"/>
    <polygon id="_6" data-name="6" class="cls-2" points="546 609.95 546 514.57 463.39 466.88 380.79 514.57 380.79 609.95 463.39 657.64 546 609.95"/>
    <polygon id="s45" class="cls-1" points="292.79 730.88 297.79 757.88 379.79 804.88 380.29 780.88 292.79 730.88"/>
    <polygon id="_12" data-name="12" class="cls-2" points="467.79 730.36 467.79 629.32 380.29 578.8 292.79 629.32 292.79 730.36 380.29 780.88 467.79 730.36"/>
    <polygon id="_11" data-name="11" class="cls-2" points="556.13 882.26 556.13 781.03 468.46 730.42 380.79 781.03 380.79 882.26 468.46 932.88 556.13 882.26"/>
    <polygon id="s100" class="cls-1" points="555.79 882.88 468.79 932.88 445.79 1018.88 513.79 979.88 555.79 882.88"/>
    <polygon id="s49" class="cls-1" points="479.79 1002.88 441.79 1108.88 379.78 1144.88 380.29 1060.27 479.79 1002.88"/>
    <polygon id="s24" class="cls-1" points="290.79 1031.88 201.79 1082.88 168.79 1044.88 274.79 984.88 290.79 1031.88"/>
    <polygon id="s107" class="cls-1" points="695.79 1347.88 566.79 1324.88 503.79 1360.88 590.79 1408.88 695.79 1347.88"/>
    <polygon id="s106" class="cls-1" points="484.79 1348.88 590.79 1408.88 503.79 1360.88 442.79 1326.88 467.97 1338.88 484.79 1348.88"/>
    <polygon id="s21" class="cls-1" points="503.79 1220.88 442.79 1256.88 484.79 1226.88 589.79 1165.88 503.79 1220.88"/>
    <polygon id="s30" class="cls-1" points="442.79 1256.88 442.79 1323.88 484.79 1347.88 484.79 1226.88 442.79 1256.88"/>
    <polygon id="s22" class="cls-1" points="442.79 1256.88 380.79 1222.88 379.79 1185.88 467.79 1236.88 442.79 1256.88"/>
    <polygon id="_17" data-name="17" class="cls-2" points="655.79 1208.79 655.79 1129.12 586.79 1089.28 517.79 1129.12 517.79 1208.79 586.79 1248.63 655.79 1208.79"/>
    <polygon id="_24" data-name="24" class="cls-2" points="695.79 1348.29 695.79 1226.46 590.29 1165.55 484.79 1226.46 484.79 1348.29 590.29 1409.2 695.79 1348.29"/>
    <polygon id="s31" class="cls-1" points="201.79 1081.88 192.79 1070.88 98.79 1015.88 112.79 1030.88 201.79 1081.88"/>
    <polygon id="s102" class="cls-1" points="3.79 1179.88 133.79 1214.88 133.79 1240.88 97.79 1234.88 3.79 1179.88"/>
    <polygon id="s65" class="cls-1" points="201.79 1081.88 201.79 1187.11 192.79 1179.88 192.79 1070.88 201.79 1081.88"/>
    <polygon id="_21" data-name="21" class="cls-2" points="192.79 1179.93 192.79 1070.82 98.29 1016.26 3.79 1070.82 3.79 1179.93 98.29 1234.49 192.79 1179.93"/>
    <polygon id="_16" data-name="16" class="cls-2" points="479.79 1002.82 479.79 887.93 380.29 830.48 280.79 887.93 280.79 1002.82 380.29 1060.27 479.79 1002.82"/>
    <polygon id="s4" class="cls-1" points="467.79 628.88 485.79 503.88 486.79 621.88 468.79 730.88 467.79 628.88"/>
    <polygon id="s25" class="cls-1" points="379.79 1088.88 292.79 1037.88 273.79 984.88 378.79 1045.88 379.79 1088.88"/>
    <polygon id="s34" class="cls-1" points="745.79 453.88 696.79 512.88 695.79 501.88 678.79 492.88 745.79 453.88"/>
    <polygon id="_3" data-name="3" class="cls-2" points="271.79 393.44 271.79 269.31 164.29 207.25 56.79 269.31 56.79 393.44 164.29 455.51 271.79 393.44"/>
    <polygon id="_4" data-name="4" class="cls-2" points="745.79 454.2 745.79 348.55 654.29 295.72 562.79 348.55 562.79 454.2 654.29 507.03 745.79 454.2"/>
    <polygon id="s64" class="cls-1" points="98.79 1234.88 192.79 1179.88 211.77 1192.88 131.79 1240.88 98.79 1234.88"/>
    <polygon id="s47" class="cls-1" points="486.79 621.88 590.79 683.88 555.79 778.88 467.79 729.88 486.79 621.88"/>
    <polygon id="s46" class="cls-1" points="695.79 623.88 590.79 683.88 555.79 780.88 556.13 837.52 608.79 806.88 695.79 623.88"/>
    <polygon id="s44" class="cls-1" points="160.79 653.88 213.79 804.88 297.79 757.88 269.79 590.88 160.79 653.88"/>
    <polygon id="s5" class="cls-1" points="292.79 730.88 269.79 590.88 269.79 463.88 292.79 628.88 292.79 730.88"/>
    <polygon id="s37" class="cls-1" points="111.79 1545.88 137.79 1522.88 218.79 1475.88 201.79 1493.88 111.79 1545.88"/>
    <polygon id="s108" class="cls-1" points="201.79 1700.88 232.79 1627.88 301.79 1595.88 290.79 1648.88 201.79 1700.88"/>
    <polygon id="_29" data-name="29" class="cls-2" points="290.79 1649.05 290.79 1545.7 201.29 1494.03 111.79 1545.7 111.79 1649.05 201.29 1700.72 290.79 1649.05"/>
    <polygon id="s104" class="cls-1" points="256.79 1641.88 301.79 1511.88 379.79 1466.88 378.79 1570.88 256.79 1641.88"/>
    <polygon id="_7" data-name="7" class="cls-2" points="695.79 623.41 695.79 502.49 591.07 442.02 486.34 502.49 486.34 623.41 591.07 683.88 695.79 623.41"/>
    <polygon id="s38" class="cls-1" points="297.79 1335.88 214.79 1383.88 133.79 1429.88 256.79 1358.88 297.79 1335.88"/>
    <polygon id="s105" class="cls-1" points="442.79 1326.88 378.79 1363.88 379.79 1388.88 467.79 1339.88 442.79 1326.88"/>
    <polygon id="_22" data-name="22" class="cls-2" points="467.79 1337.89 467.79 1236.86 380.29 1186.34 292.79 1236.86 292.79 1337.89 380.29 1388.41 467.79 1337.89"/>
    <polygon id="s103" class="cls-1" points="290.79 1545.88 290.79 1648.88 301.79 1600.88 301.79 1511.88 290.79 1545.88"/>
    <polygon id="s101" class="cls-1" points="168.79 1167.88 214.79 1192.88 292.79 1236.88 273.79 1226.88 168.79 1167.88"/>
    <polygon id="s99" class="cls-1" points="210.79 590.88 164.79 455.88 56.79 393.88 125.79 534.88 210.79 590.88"/>
    <polygon id="_18" data-name="18" class="cls-2" points="269.79 590.67 269.79 464.23 160.29 401.01 50.79 464.23 50.79 590.67 160.29 653.89 269.79 590.67"/>
    <polygon id="_20" data-name="20" class="cls-2" points="379.78 1167.88 379.78 1045.88 274.13 984.88 168.47 1045.88 168.47 1167.88 274.13 1228.88 379.78 1167.88"/>
    <polygon id="_30" data-name="30" class="cls-2" points="378.79 1571.1 378.79 1429.65 256.29 1358.92 133.79 1429.65 133.79 1571.1 256.29 1641.83 378.79 1571.1"/>
    <polygon id="s98" class="cls-1" points="271.79 268.88 307.79 541.88 307.79 618.88 271.79 393.88 271.79 268.88"/>
    <polygon id="_1" data-name="1" class="cls-3" points="379.57 319.88 77.34 145.39 77.79 -204.13 379.79 -379.13 681.79 -204.13 681.79 145.39 379.57 319.88"/>
    <polygon id="xx05" class="cls-1" points="203.79 2021.88 214.79 1987.88 297.79 2035.88 291.79 2072.88 203.79 2021.88"/>
    <polygon id="xx01" class="cls-1" points="467.79 2401.88 442.79 2370.88 379.79 2406.88 379.79 2452.26 467.79 2401.88"/>
    <polygon id="xx02" class="cls-1" points="467.79 2302.88 462.79 2291.88 380.79 2243.88 381.79 2253.05 467.79 2302.88"/>
    <polygon id="xx03" class="cls-1" points="463.79 2101.88 457.79 2082.88 536.79 2128.88 545.79 2149.88 463.79 2101.88"/>
    <polygon id="xx04" class="cls-1" points="457.79 2081.88 463.79 2101.88 380.79 2149.88 380.79 2125.88 457.79 2081.88"/>
    <polygon id="xxx07" class="cls-1" points="518.79 1900.88 536.79 1957.88 459.79 2002.88 448.79 1941.88 518.79 1900.88"/>
    <polygon id="xxx06" class="cls-1" points="380.79 1900.88 380.79 1948.88 457.79 1992.88 448.79 1941.88 380.79 1900.88"/>
    <polygon id="yy1" class="cls-1" points="317.79 1753.88 258.79 1789.88 215.79 1890.88 294.63 1845.38 317.79 1753.88"/>
    <polygon id="yy2" class="cls-1" points="136.79 1894.88 193.79 1755.88 258.79 1789.88 215.79 1940.88 136.79 1894.88"/>
    <polygon id="yy3" class="cls-1" points="55.79 1940.88 132.79 1789.88 193.79 1755.88 136.79 1894.88 55.79 1940.88"/>
    <polygon id="yy4" class="cls-1" points="220.79 1965.88 203.79 2021.88 114.79 2072.88 136.79 2015.88 220.79 1965.88"/>
    <polygon id="yy5" class="cls-1" points="193.79 1970.88 132.79 2005.88 40.79 2190.88 125.79 2141.88 193.79 1970.88"/>
    <polygon id="s51" class="cls-1" points="378.79 1429.88 255.79 1358.88 292.79 1337.88 380.79 1388.88 378.79 1429.88"/>
    <polygon id="c1" class="cls-3" points="381.32 3292.88 123.34 3143.93 123.73 2845.6 381.51 2696.22 639.29 2845.6 639.29 3143.93 381.32 3292.88"/>
    <polygon id="bee2" class="cls-4" points="57.6 1429.26 70.27 1427.77 68.03 1424.04 73.25 1428.51 77.72 1431.49 73.49 1431.68 79.21 1436.71 70.39 1432.06 57.6 1429.26"/>
    <polygon id="k01" class="cls-1" points="381.79 2557.88 381.79 2695.88 639.79 2845.88 537.79 2562.88 458.79 2512.88 381.79 2557.88"/>
    <polygon id="k02" class="cls-1" points="304.79 2512.88 201.79 2657.88 123.79 2845.88 381.79 2695.88 381.79 2557.88 304.79 2512.88"/>
  </g>
</svg>
