<svg id="_00landingstage" data-name="00landingstage" xmlns="http://www.w3.org/2000/svg" width="760" height="3000" viewBox="0 0 760 3000">
  <defs>
    <style>
      .cls-1 {
        fill: #f2f2f2;
      }

      .cls-1, .cls-2, .cls-3, .cls-4 {
        stroke: #000;
        stroke-miterlimit: 10;
      }

      .cls-2, .cls-3 {
        fill: #fff;
      }

      .cls-3 {
        stroke-width: 2px;
      }
    </style>
  </defs>
  <title>aartics_polygons_vertical</title>
  <polygon id="xx03" class="cls-1" points="463.5 2329.5 457.5 2310.5 536.5 2356.5 545.5 2377.5 463.5 2329.5"/>
  <polygon id="xx04" class="cls-1" points="457.5 2309.5 463.5 2329.5 380.5 2377.5 380.5 2353.5 457.5 2309.5"/>
  <polygon id="s8" class="cls-1" points="580.5 1144.5 513.5 1182.5 517.5 1197.5 586.5 1157.5 580.5 1144.5"/>
  <polygon id="xx01" class="cls-1" points="467.5 2629.5 442.5 2598.5 379.5 2634.5 379.5 2679.88 467.5 2629.5"/>
  <polygon id="xx02" class="cls-1" points="467.5 2530.5 462.5 2519.5 380.5 2471.5 381.5 2480.68 467.5 2530.5"/>
  <polygon id="yy5" class="cls-1" points="193.5 2180.5 132.5 2215.5 40.5 2400.5 125.5 2351.5 193.5 2180.5"/>
  <polygon id="yy4" class="cls-1" points="220.5 2175.5 203.5 2231.5 114.5 2282.5 136.5 2225.5 220.5 2175.5"/>
  <polygon id="xxx07" class="cls-1" points="518.5 2104.5 536.5 2161.5 459.5 2206.5 448.5 2145.5 518.5 2104.5"/>
  <polygon id="xxx06" class="cls-1" points="380.5 2104.5 380.5 2152.5 457.5 2196.5 448.5 2145.5 380.5 2104.5"/>
  <polygon id="yy3" class="cls-1" points="55.5 2145.5 132.5 1994.5 193.5 1960.5 136.5 2099.5 55.5 2145.5"/>
  <polygon id="yy1" class="cls-1" points="317.5 1963.5 258.5 1999.5 215.5 2100.5 294.33 2055 317.5 1963.5"/>
  <polygon id="s103" class="cls-1" points="290.5 1646.5 290.5 1749.5 301.5 1661.5 301.5 1563.5 290.5 1646.5"/>
  <polygon id="s23" class="cls-1" points="380.5 1222.5 317.5 1257.5 292.5 1331.5 379.5 1280.5 380.5 1222.5"/>
  <polygon id="s48" class="cls-1" points="444.5 1130.5 447.5 1145.5 515.5 1184.5 505.5 1166.5 444.5 1130.5"/>
  <polygon id="s43" class="cls-1" points="50.5 1036.5 135.5 997.5 212.5 1041.5 160.5 1099.5 50.5 1036.5"/>
  <polygon id="s53" class="cls-1" points="56.5 1091.5 137.5 1138.5 192.5 1072.5 131.5 1037.5 56.5 1091.5"/>
  <polygon id="s45" class="cls-1" points="291.5 975.5 298.5 968.5 381.5 1016.5 381.5 1026.5 291.5 975.5"/>
  <polygon id="s34" class="cls-1" points="745.5 825.5 704.5 830.5 694.5 835.5 694.5 855.5 745.5 825.5"/>
  <polygon id="s47" class="cls-1" points="486.5 1024.5 590.5 1084.5 564.5 1023.5 476.5 977.5 486.5 1024.5"/>
  <polygon id="s46" class="cls-1" points="695.5 1023.5 590.5 1083.5 590.5 1083.5 503.5 1007.5 566.5 971.5 695.5 1023.5"/>
  <polygon id="s99" class="cls-1" points="209.5 693.5 163.5 719.5 55.5 657.5 124.5 644.5 209.5 693.5"/>
  <polygon id="s110" class="cls-1" points="568.5 1046.5 567.5 1117.5 582.5 1139.5 582.5 1062.5 568.5 1046.5"/>
  <polygon id="s28" class="cls-1" points="192.5 1328.5 256.5 1364.5 218.5 1610.5 137.5 1563.5 192.5 1328.5"/>
  <polygon id="s65" class="cls-1" points="201.5 1292.5 201.5 1392.74 192.5 1426.5 192.5 1317.5 201.5 1292.5"/>
  <polygon id="s63" class="cls-1" points="567.5 1742.5 627.5 1776.5 655.5 1810.5 587.5 1770.5 567.5 1742.5"/>
  <polygon id="_25" data-name="25" class="cls-2" points="655.92 1889.51 655.92 1810.17 587.21 1770.5 518.5 1810.17 518.5 1889.51 587.21 1929.17 655.92 1889.51"/>
  <polygon id="s41" class="cls-1" points="518.5 1439.5 442.5 1471.5 456.5 1719.5 535.5 1674.5 518.5 1439.5"/>
  <polygon id="s88" class="cls-1" points="467.5 2578.5 467.5 2477.5 487.5 2584.5 487.5 2705.5 467.5 2578.5"/>
  <polygon id="s40" class="cls-1" points="379.5 1670.5 456.5 1715.5 442.5 1471.5 380.5 1434.5 379.5 1670.5"/>
  <polygon id="s52" class="cls-1" points="518.5 1434.5 589.5 1476.5 613.5 1719.5 535.5 1674.5 518.5 1434.5"/>
  <polygon id="s60" class="cls-1" points="299.5 1993.5 306.5 1951.5 234.5 1910.5 220.5 1948.5 299.5 1993.5"/>
  <polygon id="s62" class="cls-1" points="125.5 1758.5 192.5 1741.5 125.5 1834.5 40.5 1883.5 125.5 1758.5"/>
  <polygon id="s57" class="cls-1" points="518.5 1889.5 587.5 1929.5 695.5 2159.5 590.5 2099.5 518.5 1889.5"/>
  <polygon id="s56" class="cls-1" points="461.5 2017.5 544.5 1969.42 590.5 2099.5 485.5 2159.5 461.5 2017.5"/>
  <polygon id="s94" class="cls-1" points="195.5 2391.5 134.5 2426.5 57.5 2572.5 137.5 2526.5 195.5 2391.5"/>
  <polygon id="_50" data-name="50" class="cls-2" points="615.5 2725.61 615.5 2635.54 537.5 2590.5 459.49 2635.54 459.49 2725.61 537.5 2770.64 615.5 2725.61"/>
  <polygon id="_49" data-name="49" class="cls-2" points="458.5 2716.96 458.5 2628.04 381.5 2583.59 304.5 2628.04 304.5 2716.96 381.5 2761.41 458.5 2716.96"/>
  <polygon id="_48" data-name="48" class="cls-2" points="291.5 2809.67 291.5 2706.33 202 2654.65 112.5 2706.33 112.5 2809.67 202 2861.35 291.5 2809.67"/>
  <polygon id="s85" class="cls-1" points="138.5 2651.5 112.5 2706.5 202.5 2654.5 218.5 2605.5 138.5 2651.5"/>
  <polygon id="s66" class="cls-1" points="296.5 2670.5 291.5 2706.5 202.5 2654.5 213.5 2622.5 296.5 2670.5"/>
  <polygon id="_42" data-name="42" class="cls-2" points="218.5 2665.48 218.5 2572.52 138 2526.05 57.5 2572.52 57.5 2665.48 138 2711.95 218.5 2665.48"/>
  <polygon id="_51" data-name="51" class="cls-2" points="709.5 2615.05 709.5 2520.95 628 2473.89 546.5 2520.95 546.5 2615.05 628 2662.11 709.5 2615.05"/>
  <polygon id="s87" class="cls-1" points="442.5 2386.5 504.5 2426.5 592.5 2765.5 487.5 2705.5 442.5 2386.5"/>
  <polygon id="s90" class="cls-1" points="504.5 2498.5 537.5 2590.5 459.5 2635.5 442.5 2535.5 504.5 2498.5"/>
  <polygon id="s92" class="cls-1" points="545.5 2402.5 592.5 2524.5 696.5 2586.5 633.5 2454.5 545.5 2402.5"/>
  <polygon id="s91" class="cls-1" points="463.5 2444.5 487.5 2584.5 591.5 2524.5 545.5 2396.5 463.5 2444.5"/>
  <polygon id="s89" class="cls-1" points="442.5 2535.5 458.5 2628.5 381.5 2583.5 380.5 2498.5 442.5 2535.5"/>
  <polygon id="s84" class="cls-1" points="211.5 2409.5 221.5 2377.5 143.5 2422.5 126.5 2458.5 211.5 2409.5"/>
  <polygon id="s82" class="cls-1" points="291.5 2377.5 304.5 2288.5 235.5 2341.5 203.5 2430.5 291.5 2377.5"/>
  <polygon id="s80" class="cls-1" points="304.5 2185.5 380.96 2229.5 381.5 2222.5 310.5 2182.5 304.5 2185.5"/>
  <polygon id="s79" class="cls-1" points="291.5 2276.5 304.5 2196.5 304.5 2285.5 291.5 2379.5 291.5 2276.5"/>
  <polygon id="s78" class="cls-1" points="380.5 2112.5 380.5 2099.5 304.5 2143.5 297.5 2160.5 380.5 2112.5"/>
  <polygon id="s77" class="cls-1" points="55.5 2237.5 135.5 2283.5 193.5 2231.5 131.5 2198.5 55.5 2237.5"/>
  <polygon id="s76" class="cls-1" points="613.5 2234.5 566.5 2176.5 504.5 2212.5 536.5 2279.5 613.5 2234.5"/>
  <polygon id="s75" class="cls-1" points="708.5 2183.5 627.5 2143.5 566.5 2179.5 627.5 2230.5 708.5 2183.5"/>
  <polygon id="s73" class="cls-1" points="545.5 2170.5 518.5 2156.5 518.5 2234.5 545.5 2264.5 545.5 2170.5"/>
  <polygon id="s70" class="cls-1" points="466.5 1969.5 442.5 1957.5 380.5 1994.5 378.5 2020.5 466.5 1969.5"/>
  <polygon id="s68" class="cls-1" points="457.5 2199.5 459.5 2202.5 459.5 2290.5 457.5 2288.5 457.5 2199.5"/>
  <polygon id="s67" class="cls-1" points="304.5 2716.5 291.5 2809.5 291.5 2718.5 304.5 2628.5 304.5 2716.5"/>
  <polygon id="s93" class="cls-1" points="221.5 2558.5 218.5 2572.5 137.5 2526.5 143.5 2513.32 221.5 2558.5"/>
  <polygon id="s58" class="cls-1" points="461.5 2017.5 466.5 2050.5 378.5 1999.5 378.5 1969.42 461.5 2017.5"/>
  <polygon id="s35" class="cls-1" points="456.5 1805.5 461.5 1825.5 378.5 1873.5 378.5 1849.5 456.5 1805.5"/>
  <polygon id="s36" class="cls-1" points="456.5 1810.5 535.5 1855.5 544.5 1873.5 461.5 1825.5 456.5 1810.5"/>
  <polygon id="_39" data-name="39" class="cls-2" points="457.5 2285.31 457.5 2196.93 380.96 2152.74 304.42 2196.93 304.42 2285.31 380.96 2329.5 457.5 2285.31"/>
  <polygon id="_41" data-name="41" class="cls-2" points="380.5 2191.42 380.5 2095.58 297.5 2047.66 214.5 2095.58 214.5 2191.42 297.5 2239.34 380.5 2191.42"/>
  <polygon id="s83" class="cls-1" points="211.5 2310.5 235.5 2261.5 235.5 2341.5 211.5 2408.5 211.5 2310.5"/>
  <polygon id="_37" data-name="37" class="cls-2" points="613.5 2294.96 613.5 2206.04 536.5 2161.59 459.5 2206.04 459.5 2294.96 536.5 2339.41 613.5 2294.96"/>
  <polygon id="s86" class="cls-1" points="466.5 2478.5 486.5 2584.5 486.5 2705.5 466.5 2579.5 466.5 2478.5"/>
  <polygon id="_44" data-name="44" class="cls-2" points="695.5 2705.33 695.5 2584.67 591 2524.33 486.5 2584.67 486.5 2705.33 591 2765.67 695.5 2705.33"/>
  <polygon id="_43" data-name="43" class="cls-2" points="378.5 2692.42 378.5 2596.58 295.5 2548.66 212.5 2596.58 212.5 2692.42 295.5 2740.34 378.5 2692.42"/>
  <polygon id="_47" data-name="47" class="cls-2" points="210.5 2408.57 210.5 2310.43 125.5 2261.35 40.5 2310.43 40.5 2408.57 125.5 2457.65 210.5 2408.57"/>
  <polygon id="s81" class="cls-1" points="113.5 2361.5 125.5 2359.5 210.5 2408.5 201.5 2412.5 113.5 2361.5"/>
  <polygon id="_26" data-name="26" class="cls-2" points="456.5 1804.67 456.5 1715.18 379 1670.43 301.5 1715.18 301.5 1804.67 379 1849.41 456.5 1804.67"/>
  <polygon id="s51" class="cls-1" points="378.5 1642.5 255.5 1571.5 292.5 1490.5 380.5 1541.5 378.5 1642.5"/>
  <polygon id="_27" data-name="27" class="cls-2" points="613.5 1810.32 613.5 1719.68 535 1674.36 456.5 1719.68 456.5 1810.32 535 1855.64 613.5 1810.32"/>
  <polygon id="_28" data-name="28" class="cls-2" points="544.5 1969.42 544.5 1873.58 461.5 1825.66 378.5 1873.58 378.5 1969.42 461.5 2017.34 544.5 1969.42"/>
  <polygon id="yy2" class="cls-1" points="136.5 2099.5 193.5 1960.5 258.5 1994.5 215.5 2145.5 136.5 2099.5"/>
  <polygon id="_32" data-name="32" class="cls-2" points="216.5 2237.48 216.5 2144.52 136 2098.05 55.5 2144.52 55.5 2237.48 136 2283.95 216.5 2237.48"/>
  <polygon id="s74" class="cls-1" points="544.5 2199.5 535.5 2191.5 612.5 2234.5 626.5 2246.5 544.5 2199.5"/>
  <polygon id="_38" data-name="38" class="cls-2" points="708.5 2273.54 708.5 2179.62 627.16 2132.66 545.83 2179.62 545.83 2273.54 627.16 2320.5 708.5 2273.54"/>
  <polygon id="s97" class="cls-1" points="235.5 2341.5 222.5 2377.5 300.5 2422.5 307.5 2381.5 235.5 2341.5"/>
  <polygon id="_45" data-name="45" class="cls-2" points="300.5 2513.32 300.5 2422.68 222 2377.36 143.5 2422.68 143.5 2513.32 222 2558.64 300.5 2513.32"/>
  <polygon id="s95" class="cls-1" points="300.5 2513.5 296.5 2548.5 213.5 2596.5 221.5 2558.5 300.5 2513.5"/>
  <polygon id="s96" class="cls-1" points="291.04 2477.5 306.04 2381.5 379.5 2341.5 379.04 2426.5 291.04 2477.5"/>
  <polygon id="_46" data-name="46" class="cls-2" points="466.5 2578.36 466.5 2477.33 379 2426.81 291.5 2477.33 291.5 2578.36 379 2628.88 466.5 2578.36"/>
  <polygon id="_36" data-name="36" class="cls-2" points="544.5 2472.84 544.5 2378.16 462.5 2330.82 380.5 2378.16 380.5 2472.84 462.5 2520.18 544.5 2472.84"/>
  <polygon id="s71" class="cls-1" points="289.5 2148.5 317.5 2137.5 377.5 2174.5 377.5 2200.5 289.5 2148.5"/>
  <polygon id="s69" class="cls-1" points="590.5 2341.5 566.5 2214.5 466.5 2151.5 485.5 2281.5 590.5 2341.5"/>
  <polygon id="s55" class="cls-1" points="466.5 2151.5 485.5 2281.5 485.5 2159.5 466.04 2050.17 466.5 2151.5"/>
  <polygon id="s72" class="cls-1" points="694.5 2279.5 626.5 2269.5 544.5 2316.5 589.5 2339.5 694.5 2279.5"/>
  <polygon id="_31" data-name="31" class="cls-2" points="695.5 2281.12 695.5 2159.88 590.5 2099.26 485.5 2159.88 485.5 2281.12 590.5 2341.74 695.5 2281.12"/>
  <polygon id="_17" data-name="17" class="cls-2" points="655.5 1277.41 655.5 1197.74 586.5 1157.9 517.5 1197.74 517.5 1277.41 586.5 1317.25 655.5 1277.41"/>
  <polygon id="s50" class="cls-1" points="379.5 1500.5 379.5 1388.5 297.5 1437.5 273.5 1561.5 379.5 1500.5"/>
  <polygon id="s29" class="cls-1" points="192.5 1328.5 137.5 1563.5 56.5 1610.5 131.5 1364.5 192.5 1328.5"/>
  <polygon id="s27" class="cls-1" points="256.5 1364.5 256.5 1435.5 218.5 1703.5 218.5 1610.5 256.5 1364.5"/>
  <polygon id="_19" data-name="19" class="cls-2" points="297.04 1496.86 297.04 1401.29 214.27 1353.5 131.5 1401.29 131.5 1496.86 214.27 1544.65 297.04 1496.86"/>
  <polygon id="s102" class="cls-1" points="3.5 1427.5 133.5 1401.5 133.5 1461.5 97.5 1482.5 3.5 1427.5"/>
  <polygon id="s64" class="cls-1" points="98.5 1482.5 192.5 1426.5 201.5 1392.5 133.5 1426.5 98.5 1482.5"/>
  <polygon id="s108" class="cls-1" points="201.5 1801.5 232.5 1708.5 304.5 1663.5 290.5 1749.5 201.5 1801.5"/>
  <polygon id="_23" data-name="23" class="cls-2" points="218.17 1703.51 218.17 1610.17 137.34 1563.5 56.5 1610.17 56.5 1703.51 137.34 1750.18 218.17 1703.51"/>
  <polygon id="_33" data-name="33" class="cls-2" points="299.44 2084.42 299.44 1993.81 220.97 1948.5 142.5 1993.81 142.5 2084.42 220.97 2129.72 299.44 2084.42"/>
  <polygon id="_34" data-name="34" class="cls-2" points="209.5 1980.79 209.5 1883.21 125 1834.43 40.5 1883.21 40.5 1980.79 125 2029.57 209.5 1980.79"/>
  <polygon id="s61" class="cls-1" points="234.5 1827.5 234.5 1910.5 220.94 1948.48 209.5 1980.5 209.5 1883.5 234.5 1827.5"/>
  <polygon id="_29" data-name="29" class="cls-2" points="290.5 1834.67 290.5 1731.33 201 1679.65 111.5 1731.33 111.5 1834.67 201 1886.35 290.5 1834.67"/>
  <polygon id="s37" class="cls-1" points="111.5 1731.5 137.5 1676.5 220.5 1628.5 200.5 1679.5 111.5 1731.5"/>
  <polygon id="s59" class="cls-1" points="378.5 1999.5 290.5 2050.5 306.5 1951.5 378.27 1910.5 378.5 1999.5"/>
  <polygon id="_35" data-name="35" class="cls-2" points="466.04 2151.52 466.04 2050.17 378.27 1999.5 290.5 2050.17 290.5 2151.52 378.27 2202.19 466.04 2151.52"/>
  <polygon id="s38" class="cls-1" points="293.5 1490.5 214.5 1544.5 133.5 1642.5 256.5 1573.5 293.5 1490.5"/>
  <polygon id="s107" class="cls-1" points="695.5 1683.5 566.5 1510.5 503.5 1547.5 590.5 1744.5 695.5 1683.5"/>
  <polygon id="s106" class="cls-1" points="484.5 1683.5 590.5 1744.5 522.5 1584.5 467.5 1542.5 467.5 1542.5 484.5 1683.5"/>
  <polygon id="s20" class="cls-1" points="590.5 1500.5 522.5 1280.5 586.5 1317.5 695.5 1561.5 590.5 1500.5"/>
  <polygon id="s21" class="cls-1" points="503.5 1220.5 442.5 1256.5 484.5 1561.5 590.5 1500.5 503.5 1220.5"/>
  <polygon id="s30" class="cls-1" points="442.5 1256.5 442.5 1330.5 484.5 1682.5 484.5 1561.5 442.5 1256.5"/>
  <polygon id="s22" class="cls-1" points="442.5 1256.5 380.5 1222.5 380 1388.96 467.5 1439.48 442.5 1256.5"/>
  <polygon id="s105" class="cls-1" points="442.5 1529.5 378.5 1566.5 379.5 1591.5 467.5 1542.5 442.5 1529.5"/>
  <polygon id="_22" data-name="22" class="cls-2" points="467.5 1540.52 467.5 1439.48 380 1388.96 292.5 1439.48 292.5 1540.52 380 1591.04 467.5 1540.52"/>
  <polygon id="s101" class="cls-1" points="168.5 1500.5 219 1398 297.5 1437.5 273.5 1561.5 168.5 1500.5"/>
  <polygon id="s104" class="cls-1" points="256.5 1856.5 301.5 1726.5 379.5 1681.5 378.5 1785.5 256.5 1856.5"/>
  <polygon id="_30" data-name="30" class="cls-2" points="378.5 1784.72 378.5 1643.28 256 1572.55 133.5 1643.28 133.5 1784.72 256 1855.45 378.5 1784.72"/>
  <polygon id="s33" class="cls-1" points="681.5 547.5 379.5 721.5 379.5 721.5 442.5 684.5 681.5 547.5"/>
  <polygon id="s32" class="cls-1" points="77.5 547.5 306.5 679.5 379.5 721.5 379.5 721.5 77.5 547.5"/>
  <polygon id="s98" class="cls-1" points="268.5 532.5 304.5 601.5 304.5 678.5 268.5 657.5 268.5 532.5"/>
  <polygon id="s17" class="cls-1" points="380.5 815.5 380.5 822.5 467.5 872.95 463.5 863.5 380.5 815.5"/>
  <polygon id="s16" class="cls-1" points="380.5 802.5 307.5 845.5 292.5 872.5 380.5 822.5 380.5 802.5"/>
  <polygon id="s15" class="cls-1" points="235.5 803.5 235.5 720.5 210.5 720.5 210.5 817.5 235.5 803.5"/>
  <polygon id="s11" class="cls-1" points="297.5 1154.5 291.35 1184.54 201.5 1132.5 213.5 1106.5 297.5 1154.5"/>
  <polygon id="s26" class="cls-1" points="3.5 1317.5 131.5 1149.5 192.5 1114.5 98.5 1263.5 3.5 1317.5"/>
  <polygon id="s25" class="cls-1" points="380 1347.89 280.5 1290.5 273.5 1317.5 379.5 1378.5 380 1347.89"/>
  <polygon id="s10" class="cls-1" points="112.5 1184.5 136.5 1138.5 221.5 1090.5 201.5 1132.5 112.5 1184.5"/>
  <polygon id="s9" class="cls-1" points="573.5 1130.5 586.5 1157.5 655.5 1197.5 638.5 1167.5 573.5 1130.5"/>
  <polygon id="s54" class="cls-1" points="684.5 1071.5 638.5 1037.5 573.5 1074.5 608.5 1115.5 684.5 1071.5"/>
  <polygon id="s7" class="cls-1" points="503.5 1146.5 503.5 1222.5 522.5 1280.5 517.5 1197.5 503.5 1146.5"/>
  <polygon id="_9" data-name="9" class="cls-2" points="702.72 1130.2 702.72 1055.59 638.11 1018.29 573.5 1055.59 573.5 1130.2 638.11 1167.5 702.72 1130.2"/>
  <polygon id="s42" class="cls-1" points="531.5 1071.5 512 1042.06 579.5 1081.5 607.5 1115.5 531.5 1071.5"/>
  <polygon id="_10" data-name="10" class="cls-2" points="580.5 1143.97 580.5 1066.03 513 1027.06 445.5 1066.03 445.5 1143.97 513 1182.94 580.5 1143.97"/>
  <polygon id="s49" class="cls-1" points="479.51 1352.5 471.51 1305.5 379.5 1367.5 380.01 1409.5 479.51 1352.5"/>
  <polygon id="s6" class="cls-1" points="468.5 1176.5 479.5 1237.5 380.5 1180.5 380.5 1125.88 468.5 1176.5"/>
  <polygon id="s1" class="cls-1" points="616.5 582.5 616.5 674.5 581.5 680.5 581.5 604.75 616.5 582.5"/>
  <polygon id="_5" data-name="5" class="cls-2" points="210.5 817.65 210.5 719.5 125.5 670.43 40.5 719.5 40.5 817.65 125.5 866.73 210.5 817.65"/>
  <polygon id="s14" class="cls-1" points="269.5 909.5 307.5 845.5 235.5 803.5 160.5 846.5 269.5 909.5"/>
  <polygon id="_2" data-name="2" class="cls-2" points="774.5 674.11 774.5 582.89 695.5 537.28 616.5 582.89 616.5 674.11 695.5 719.72 774.5 674.11"/>
  <polygon id="_14" data-name="14" class="cls-2" points="217.5 1092.48 217.5 999.52 137 953.05 56.5 999.52 56.5 1092.48 137 1138.95 217.5 1092.48"/>
  <polygon id="_8" data-name="8" class="cls-2" points="684.5 1072.38 684.5 984.62 608.5 940.74 532.5 984.62 532.5 1072.38 608.5 1116.26 684.5 1072.38"/>
  <polygon id="s100" class="cls-1" points="555.5 1125.5 468.5 1176.5 445.5 1100.5 512.5 1061.5 555.5 1125.5"/>
  <polygon id="_13" data-name="13" class="cls-2" points="380.5 1106.44 380.5 1010.02 297 961.82 213.5 1010.02 213.5 1106.44 297 1154.65 380.5 1106.44"/>
  <polygon id="s44" class="cls-1" points="157.5 1100.5 210.5 1014.5 289.5 976.5 266.5 1037.5 157.5 1100.5"/>
  <polygon id="_15" data-name="15" class="cls-2" points="290.5 1287.1 290.5 1184.29 201.47 1132.89 112.43 1184.29 112.43 1287.1 201.47 1338.5 290.5 1287.1"/>
  <polygon id="s31" class="cls-1" points="201.5 1338.5 192.5 1317.5 98.5 1263.5 112.5 1287.5 201.5 1338.5"/>
  <polygon id="s12" class="cls-1" points="380.5 1106.5 380.5 1180.5 280.5 1237.5 297.5 1154.5 380.5 1106.5"/>
  <polygon id="_21" data-name="21" class="cls-2" points="192.5 1427.56 192.5 1318.44 98 1263.88 3.5 1318.44 3.5 1427.56 98 1482.12 192.5 1427.56"/>
  <polygon id="s24" class="cls-1" points="284.5 1291.5 195.5 1342.5 168.5 1378.5 273.5 1317.5 284.5 1291.5"/>
  <polygon id="s2" class="cls-1" points="581.5 680.5 655.5 667.5 563.5 719.5 514.5 719.5 581.5 680.5"/>
  <polygon id="_6" data-name="6" class="cls-2" points="545.71 815.57 545.71 720.19 463.1 672.5 380.5 720.19 380.5 815.57 463.1 863.26 545.71 815.57"/>
  <polygon id="_11" data-name="11" class="cls-2" points="555.84 1125.88 555.84 1024.66 468.17 974.04 380.5 1024.66 380.5 1125.88 468.17 1176.5 555.84 1125.88"/>
  <polygon id="s5" class="cls-1" points="292.5 974.5 269.5 1036.5 269.5 909.5 292.5 871.5 292.5 974.5"/>
  <polygon id="_4" data-name="4" class="cls-2" points="746.5 825.83 746.5 720.17 655 667.35 563.5 720.17 563.5 825.83 655 878.65 746.5 825.83"/>
  <polygon id="s19" class="cls-1" points="545.5 719.5 545.5 815.5 563.5 825.5 563.5 719.5 545.5 719.5"/>
  <polygon id="s18" class="cls-1" points="590.5 842.5 545.5 815.5 463.5 863.5 486.5 903.5 590.5 842.5"/>
  <polygon id="_12" data-name="12" class="cls-2" points="467.5 973.98 467.5 872.95 380 822.43 292.5 872.95 292.5 973.98 380 1024.5 467.5 973.98"/>
  <polygon id="s4" class="cls-1" points="467.5 871.5 486.5 903.5 486.5 1024.5 467.5 974.5 467.5 871.5"/>
  <polygon id="s3" class="cls-1" points="271.5 658.5 163.5 720.5 234.5 720.5 306.5 679.5 271.5 658.5"/>
  <polygon id="_3" data-name="3" class="cls-2" points="271.5 658.07 271.5 533.93 164 471.87 56.5 533.93 56.5 658.07 164 720.13 271.5 658.07"/>
  <polygon id="_24" data-name="24" class="cls-2" points="695.5 1683.91 695.5 1562.09 590 1501.18 484.5 1562.09 484.5 1683.91 590 1744.82 695.5 1683.91"/>
  <polygon id="_7" data-name="7" class="cls-2" points="695.5 1024.04 695.5 903.11 590.77 842.65 486.05 903.11 486.05 1024.04 590.77 1084.5 695.5 1024.04"/>
  <polygon id="_18" data-name="18" class="cls-2" points="269.5 1036.3 269.5 909.86 160 846.64 50.5 909.86 50.5 1036.3 160 1099.52 269.5 1036.3"/>
  <polygon id="_20" data-name="20" class="cls-2" points="379.49 1500.5 379.49 1378.5 273.83 1317.5 168.18 1378.5 168.18 1500.5 273.83 1561.5 379.49 1500.5"/>
  <polygon id="_16" data-name="16" class="cls-2" points="479.5 1352.45 479.5 1237.55 380 1180.11 280.5 1237.55 280.5 1352.45 380 1409.89 479.5 1352.45"/>
  <polygon id="_1" data-name="1" class="cls-2" points="379.28 722.5 77.05 548.01 77.5 198.5 379.5 23.5 681.5 198.5 681.5 548.01 379.28 722.5"/>
  <polygon id="xx05" class="cls-1" points="203.5 2225.5 214.5 2191.5 297.5 2239.5 291.5 2276.5 203.5 2225.5"/>
  <polygon id="_40" data-name="40" class="cls-2" points="291.5 2379.09 291.5 2276.91 203 2225.81 114.5 2276.91 114.5 2379.09 203 2430.19 291.5 2379.09"/>
  <polygon id="c1" class="cls-3" points="381.03 3292.5 123.05 3143.56 123.43 2845.22 381.22 2695.84 639 2845.22 639 3143.56 381.03 3292.5"/>
  <polygon id="bee2" class="cls-4" points="228.5 739.75 253.78 733.6 244.9 729.5 264.03 734.28 270.18 739.75 264.03 745.22 247.63 750 253.78 743.85 228.5 739.75"/>
  <polygon id="k01" class="cls-1" points="381.5 2557.5 381.5 2695.5 639.5 2845.5 537.5 2562.5 458.5 2512.5 381.5 2557.5"/>
  <polygon id="k02" class="cls-1" points="304.5 2512.5 201.5 2657.5 123.5 2845.5 381.5 2695.5 381.5 2557.5 304.5 2512.5"/>
</svg>
