<svg xmlns="http://www.w3.org/2000/svg" width="760" height="3000" viewBox="0 0 760 3000">
  <defs>
    <style>
      .cls-1 {
        fill: #f2f2f2;
      }

      .cls-1, .cls-2, .cls-3, .cls-4 {
        stroke: #000;
        stroke-miterlimit: 10;
      }

      .cls-2, .cls-3 {
        fill: #fff;
      }

      .cls-3 {
        stroke-width: 2px;
      }
    </style>
  </defs>
  <title>aartics_polygons_vertical</title>
  <g id="_08stage" data-name="08stage">
    <polygon id="s41" class="cls-1" points="519.76 1367.63 452.76 1408.63 456.76 1349.63 535.76 1304.63 519.76 1367.63"/>
    <polygon id="s88" class="cls-1" points="504.76 2447.63 504.76 2374.63 546.76 2362.63 546.76 2459.63 504.76 2447.63"/>
    <polygon id="s40" class="cls-1" points="379.76 1330.63 456.76 1375.63 449.76 1434.63 380.76 1393.63 379.76 1330.63"/>
    <polygon id="s52" class="cls-1" points="519.76 1368.63 590.76 1408.63 613.76 1349.63 535.76 1304.63 519.76 1368.63"/>
    <polygon id="s60" class="cls-1" points="299.76 1671.63 309.76 1700.63 234.76 1654.63 220.76 1626.63 299.76 1671.63"/>
    <polygon id="s62" class="cls-1" points="125.76 1429.63 194.76 1655.63 132.76 1688.63 40.76 1478.63 125.76 1429.63"/>
    <polygon id="s59" class="cls-1" points="379.76 1552.63 291.76 1603.63 310.76 1667.63 379.76 1625.63 379.76 1552.63"/>
    <polygon id="s61" class="cls-1" points="234.76 1591.63 234.76 1677.63 220.76 1623.63 209.76 1574.63 209.76 1477.63 234.76 1591.63"/>
    <polygon id="s57" class="cls-1" points="505.76 1801.63 563.76 1837.63 695.76 1469.63 590.76 1409.63 505.76 1801.63"/>
    <polygon id="s56" class="cls-1" points="443.76 1837.63 505.76 1801.63 590.76 1409.63 485.76 1469.63 443.76 1837.63"/>
    <polygon id="s94" class="cls-1" points="188.76 2343.63 127.76 2378.63 60.76 2364.63 134.76 2321.63 188.76 2343.63"/>
    <polygon id="_42" data-name="42" class="cls-2" points="218.76 2458.61 218.76 2365.66 138.26 2319.18 57.76 2365.66 57.76 2458.61 138.26 2505.09 218.76 2458.61"/>
    <polygon id="_50" data-name="50" class="cls-2" points="615.76 2591.74 615.76 2501.67 537.76 2456.63 459.75 2501.67 459.75 2591.74 537.76 2636.78 615.76 2591.74"/>
    <polygon id="_49" data-name="49" class="cls-2" points="458.76 2589.09 458.76 2500.18 381.76 2455.72 304.76 2500.18 304.76 2589.09 381.76 2633.55 458.76 2589.09"/>
    <polygon id="_48" data-name="48" class="cls-2" points="291.76 2617.81 291.76 2514.46 202.26 2462.79 112.76 2514.46 112.76 2617.81 202.26 2669.48 291.76 2617.81"/>
    <polygon id="_51" data-name="51" class="cls-2" points="709.76 2459.19 709.76 2365.08 628.26 2318.03 546.76 2365.08 546.76 2459.19 628.26 2506.24 709.76 2459.19"/>
    <polygon id="s87" class="cls-1" points="442.76 2338.63 504.76 2374.63 592.76 2348.63 487.76 2288.63 442.76 2338.63"/>
    <polygon id="s90" class="cls-1" points="504.76 2447.63 537.76 2456.63 459.76 2501.63 442.76 2482.63 504.76 2447.63"/>
    <polygon id="s92" class="cls-1" points="545.76 2171.63 592.76 2107.63 696.76 2167.63 633.76 2216.63 545.76 2171.63"/>
    <polygon id="s91" class="cls-1" points="466.76 2217.63 487.76 2167.63 591.76 2107.63 545.76 2171.63 466.76 2217.63"/>
    <polygon id="s89" class="cls-1" points="442.76 2482.63 459.76 2501.63 379.76 2454.63 379.76 2443.63 442.76 2482.63"/>
    <polygon id="s85" class="cls-1" points="137.76 2504.63 112.76 2514.63 202.76 2462.63 218.76 2458.63 137.76 2504.63"/>
    <polygon id="s84" class="cls-1" points="211.76 2166.63 221.76 2183.63 143.76 2228.63 126.76 2215.63 211.76 2166.63"/>
    <polygon id="s82" class="cls-1" points="291.76 1998.63 307.76 2076.63 235.76 2117.63 202.76 2049.63 291.76 1998.63"/>
    <polygon id="s80" class="cls-1" points="304.76 2056.63 381.22 2100.63 381.76 2119.63 307.76 2076.63 304.76 2056.63"/>
    <polygon id="s79" class="cls-1" points="291.76 1901.63 304.76 1967.63 304.76 2056.63 291.76 2003.63 291.76 1901.63"/>
    <polygon id="s78" class="cls-1" points="380.76 1878.63 380.76 1923.63 304.76 1967.63 297.76 1926.63 380.76 1878.63"/>
    <polygon id="s77" class="cls-1" points="55.76 1898.63 129.76 2015.63 192.76 2053.63 135.76 1944.63 55.76 1898.63"/>
    <polygon id="s76" class="cls-1" points="613.76 2047.63 566.76 2122.63 504.76 2157.63 536.76 2092.63 613.76 2047.63"/>
    <polygon id="s75" class="cls-1" points="708.76 1887.63 627.76 2016.63 563.76 2052.63 627.76 1934.63 708.76 1887.63"/>
    <polygon id="s73" class="cls-1" points="545.76 1793.63 516.76 1891.63 516.76 1971.63 545.76 1887.63 545.76 1793.63"/>
    <polygon id="s70" class="cls-1" points="466.76 1702.63 446.76 1853.63 381.76 1892.63 378.76 1753.63 466.76 1702.63"/>
    <polygon id="s68" class="cls-1" points="457.62 1964.63 459.74 1959.63 459.74 2047.63 457.62 2053.63 457.62 1964.63"/>
    <polygon id="s66" class="cls-1" points="296.76 2507.63 291.76 2514.63 202.76 2462.63 213.76 2459.63 296.76 2507.63"/>
    <polygon id="s67" class="cls-1" points="304.76 2588.63 291.76 2617.63 291.76 2514.63 304.76 2500.63 304.76 2588.63"/>
    <polygon id="s97" class="cls-1" points="235.76 2191.63 221.76 2183.63 300.76 2228.63 307.76 2233.63 235.76 2191.63"/>
    <polygon id="s95" class="cls-1" points="300.76 2307.63 293.76 2312.63 213.76 2358.63 221.76 2352.63 300.76 2307.63"/>
    <polygon id="s93" class="cls-1" points="221.76 2363.63 218.76 2366.63 137.76 2320.63 144.76 2319.63 221.76 2363.63"/>
    <polygon id="s58" class="cls-1" points="461.76 1602.63 466.76 1580.63 378.76 1529.63 378.76 1554.63 461.76 1602.63"/>
    <polygon id="s35" class="cls-1" points="456.76 1447.63 461.76 1410.63 378.76 1458.63 379.76 1494.63 456.76 1447.63"/>
    <polygon id="s36" class="cls-1" points="460.76 1442.63 534.76 1485.63 544.76 1458.63 461.76 1410.63 460.76 1442.63"/>
    <polygon id="s83" class="cls-1" points="211.76 2068.63 235.76 2117.63 235.76 2205.63 211.76 2166.63 211.76 2068.63"/>
    <polygon id="_45" data-name="45" class="cls-2" points="300.76 2319.45 300.76 2228.81 222.26 2183.49 143.76 2228.81 143.76 2319.45 222.26 2364.78 300.76 2319.45"/>
    <polygon id="_39" data-name="39" class="cls-2" points="457.76 2056.44 457.76 1968.07 381.22 1923.88 304.69 1968.07 304.69 2056.44 381.22 2100.63 457.76 2056.44"/>
    <polygon id="_37" data-name="37" class="cls-2" points="613.76 2048.09 613.76 1959.18 536.76 1914.72 459.76 1959.18 459.76 2048.09 536.76 2092.55 613.76 2048.09"/>
    <polygon id="_36" data-name="36" class="cls-2" points="545.76 2171.98 545.76 2077.29 463.76 2029.95 381.76 2077.29 381.76 2171.98 463.76 2219.32 545.76 2171.98"/>
    <polygon id="s86" class="cls-1" points="467.76 2210.63 487.76 2167.63 487.76 2288.63 467.76 2311.5 467.76 2210.63"/>
    <polygon id="_44" data-name="44" class="cls-2" points="696.76 2288.47 696.76 2167.8 592.26 2107.47 487.76 2167.8 487.76 2288.47 592.26 2348.8 696.76 2288.47"/>
    <polygon id="_43" data-name="43" class="cls-2" points="379.76 2459.55 379.76 2363.71 296.76 2315.79 213.76 2363.71 213.76 2459.55 296.76 2507.47 379.76 2459.55"/>
    <polygon id="s96" class="cls-1" points="292.76 2210.63 307.76 2221.63 381.22 2181.63 380.76 2159.63 292.76 2210.63"/>
    <polygon id="_46" data-name="46" class="cls-2" points="467.76 2311.5 467.76 2210.46 380.26 2159.94 292.76 2210.46 292.76 2311.5 380.26 2362.01 467.76 2311.5"/>
    <polygon id="_47" data-name="47" class="cls-2" points="211.76 2166.71 211.76 2068.56 126.76 2019.48 41.76 2068.56 41.76 2166.71 126.76 2215.78 211.76 2166.71"/>
    <polygon id="s81" class="cls-1" points="114.76 1998.63 126.76 2019.63 211.76 2068.63 203.76 2049.63 114.76 1998.63"/>
    <polygon id="_26" data-name="26" class="cls-2" points="456.76 1463.8 456.76 1374.31 379.26 1329.57 301.76 1374.31 301.76 1463.8 379.26 1508.55 456.76 1463.8"/>
    <polygon id="_27" data-name="27" class="cls-2" points="613.76 1440.45 613.76 1349.81 535.26 1304.49 456.76 1349.81 456.76 1440.45 535.26 1485.78 613.76 1440.45"/>
    <polygon id="_28" data-name="28" class="cls-2" points="544.76 1563.55 544.76 1467.71 461.76 1419.79 378.76 1467.71 378.76 1563.55 461.76 1611.47 544.76 1563.55"/>
    <polygon id="_33" data-name="33" class="cls-2" points="299.7 1759.55 299.7 1668.94 221.23 1623.63 142.76 1668.94 142.76 1759.55 221.23 1804.86 299.7 1759.55"/>
    <polygon id="_32" data-name="32" class="cls-2" points="216.76 1898.61 216.76 1805.66 136.26 1759.18 55.76 1805.66 55.76 1898.61 136.26 1945.09 216.76 1898.61"/>
    <polygon id="_41" data-name="41" class="cls-2" points="380.76 1878.55 380.76 1782.71 297.76 1734.79 214.76 1782.71 214.76 1878.55 297.76 1926.47 380.76 1878.55"/>
    <polygon id="s74" class="cls-1" points="545.76 1887.63 536.76 1914.63 613.76 1959.63 627.76 1934.63 545.76 1887.63"/>
    <polygon id="_38" data-name="38" class="cls-2" points="708.76 1887.67 708.76 1793.75 627.42 1746.79 546.09 1793.75 546.09 1887.67 627.42 1934.63 708.76 1887.67"/>
    <polygon id="_40" data-name="40" class="cls-2" points="291.76 1998.23 291.76 1896.04 203.26 1844.94 114.76 1896.04 114.76 1998.23 203.26 2049.32 291.76 1998.23"/>
    <polygon id="_35" data-name="35" class="cls-2" points="466.3 1702.65 466.3 1601.31 378.53 1550.63 290.76 1601.31 290.76 1702.65 378.53 1753.32 466.3 1702.65"/>
    <polygon id="_34" data-name="34" class="cls-2" points="209.76 1574.92 209.76 1477.35 125.26 1428.56 40.76 1477.35 40.76 1574.92 125.26 1623.71 209.76 1574.92"/>
    <polygon id="s71" class="cls-1" points="290.76 1702.63 297.76 1734.63 380.76 1782.63 378.76 1753.63 290.76 1702.63"/>
    <polygon id="s69" class="cls-1" points="590.76 1651.63 516.76 1891.63 446.76 1853.63 485.76 1591.63 590.76 1651.63"/>
    <polygon id="s55" class="cls-1" points="466.76 1702.63 485.76 1591.63 485.76 1469.63 466.76 1601.63 466.76 1702.63"/>
    <polygon id="s72" class="cls-1" points="695.76 1591.63 627.76 1746.63 545.76 1793.63 590.76 1651.63 695.76 1591.63"/>
    <polygon id="_31" data-name="31" class="cls-2" points="695.76 1591.26 695.76 1470.01 590.76 1409.39 485.76 1470.01 485.76 1591.26 590.76 1651.88 695.76 1591.26"/>
    <polygon id="s110" class="cls-1" points="566.76 1035.63 565.76 1100.63 573.76 1101.63 572.76 1028.63 566.76 1035.63"/>
    <polygon id="s1" class="cls-1" points="612.76 286.63 612.76 378.63 578.76 451.63 577.76 375.63 612.76 286.63"/>
    <polygon id="_2" data-name="2" class="cls-2" points="774.76 376.24 774.76 285.02 695.76 239.41 616.76 285.02 616.76 376.24 695.76 421.86 774.76 376.24"/>
    <polygon id="s33" class="cls-1" points="681.76 147.63 379.76 321.63 380.76 562.63 463.76 513.63 681.76 147.63"/>
    <polygon id="s32" class="cls-1" points="77.76 147.63 307.76 578.63 379.76 617.63 379.76 321.63 77.76 147.63"/>
    <polygon id="s3" class="cls-1" points="271.76 393.63 164.76 455.63 234.76 659.63 307.76 618.63 271.76 393.63"/>
    <polygon id="s20" class="cls-1" points="589.76 1019.63 503.76 1220.63 566.76 1253.63 695.76 1080.63 589.76 1019.63"/>
    <polygon id="s23" class="cls-1" points="380.76 1222.63 317.76 1257.63 292.76 1150.63 379.76 1099.63 380.76 1222.63"/>
    <polygon id="s50" class="cls-1" points="379.76 1017.63 379.76 1099.63 292.76 1150.63 273.76 1078.63 379.76 1017.63"/>
    <polygon id="s19" class="cls-1" points="544.76 470.63 544.76 560.63 562.76 453.63 562.76 348.63 544.76 470.63"/>
    <polygon id="s18" class="cls-1" points="590.76 441.63 553.76 578.63 467.76 628.63 486.76 502.63 590.76 441.63"/>
    <polygon id="s17" class="cls-1" points="380.76 695.63 379.76 578.63 467.76 628.63 440.76 730.63 380.76 695.63"/>
    <polygon id="s16" class="cls-1" points="380.76 695.63 319.76 731.63 292.76 628.63 379.76 578.63 380.76 695.63"/>
    <polygon id="s15" class="cls-1" points="235.76 744.63 235.76 659.63 210.76 590.63 210.76 685.63 235.76 744.63"/>
    <polygon id="s14" class="cls-1" points="269.76 463.63 319.76 731.63 255.76 699.63 161.76 400.63 269.76 463.63"/>
    <polygon id="s9" class="cls-1" points="565.76 1108.63 586.76 1068.63 655.76 1108.63 628.76 1144.63 565.76 1108.63"/>
    <polygon id="s8" class="cls-1" points="565.76 1108.63 503.76 1144.63 517.76 1108.63 586.76 1068.63 565.76 1108.63"/>
    <polygon id="s7" class="cls-1" points="503.76 1144.63 503.76 1220.63 517.76 1188.63 517.76 1108.63 503.76 1144.63"/>
    <polygon id="_9" data-name="9" class="cls-2" points="702.98 1095.33 702.98 1020.73 638.37 983.42 573.76 1020.73 573.76 1095.33 638.37 1132.63 702.98 1095.33"/>
    <polygon id="s48" class="cls-1" points="442.76 1108.63 445.76 1081.63 513.76 1120.63 503.76 1144.63 442.76 1108.63"/>
    <polygon id="s54" class="cls-1" points="683.76 886.63 638.76 989.63 573.76 1026.63 608.76 930.63 683.76 886.63"/>
    <polygon id="_10" data-name="10" class="cls-2" points="580.76 1082.11 580.76 1004.16 513.26 965.19 445.76 1004.16 445.76 1082.11 513.26 1121.08 580.76 1082.11"/>
    <polygon id="_5" data-name="5" class="cls-2" points="210.76 484.79 210.76 386.64 125.76 337.56 40.76 386.64 40.76 484.79 125.76 533.86 210.76 484.79"/>
    <polygon id="s43" class="cls-1" points="50.76 590.63 136.76 777.63 217.76 823.63 160.76 653.63 50.76 590.63"/>
    <polygon id="s53" class="cls-1" points="56.76 853.63 137.76 899.63 192.76 1037.63 131.76 1004.63 56.76 853.63"/>
    <polygon id="_14" data-name="14" class="cls-2" points="217.76 851.63 217.76 758.66 137.26 712.18 56.76 758.66 56.76 851.61 137.26 898.09 217.76 851.63"/>
    <polygon id="_13" data-name="13" class="cls-2" points="380.76 804.57 380.76 708.16 297.26 659.95 213.76 708.16 213.76 804.57 297.26 852.78 380.76 804.57"/>
    <polygon id="s29" class="cls-1" points="192.76 1329.13 137.76 1271.63 56.76 1318.63 131.76 1363.63 192.76 1329.13"/>
    <polygon id="_23" data-name="23" class="cls-2" points="218.44 1411.65 218.44 1318.31 137.6 1271.63 56.76 1318.31 56.76 1411.65 137.6 1458.32 218.44 1411.65"/>
    <polygon id="s27" class="cls-1" points="256.76 1364.63 255.76 1434.63 218.76 1409.63 218.76 1318.63 256.76 1364.63"/>
    <polygon id="s28" class="cls-1" points="192.76 1328.63 256.76 1364.63 218.76 1318.63 137.76 1271.63 192.76 1328.63"/>
    <polygon id="_19" data-name="19" class="cls-2" points="297.3 1267 297.3 1171.42 214.53 1123.63 131.76 1171.42 131.76 1267 214.53 1314.78 297.3 1267"/>
    <polygon id="s26" class="cls-1" points="3.76 961.63 131.76 1147.63 192.76 1109.63 98.76 909.63 3.76 961.63"/>
    <polygon id="_15" data-name="15" class="cls-2" points="290.76 928.23 290.76 825.42 201.73 774.02 112.69 825.42 112.69 928.23 201.73 979.63 290.76 928.23"/>
    <polygon id="s42" class="cls-1" points="532.76 886.63 513.26 964.63 580.76 1003.63 608.76 930.63 532.76 886.63"/>
    <polygon id="_8" data-name="8" class="cls-2" points="684.76 886.51 684.76 798.75 608.76 754.88 532.76 798.75 532.76 886.51 608.76 930.39 684.76 886.51"/>
    <polygon id="s2" class="cls-1" points="562.76 348.63 654.76 295.63 565.76 453.63 548.76 438.63 562.76 348.63"/>
    <polygon id="_6" data-name="6" class="cls-2" points="545.97 609.71 545.97 514.32 463.36 466.63 380.76 514.32 380.76 609.71 463.36 657.4 545.97 609.71"/>
    <polygon id="s45" class="cls-1" points="292.76 730.63 297.76 757.63 379.76 804.63 380.26 780.63 292.76 730.63"/>
    <polygon id="_12" data-name="12" class="cls-2" points="467.76 730.12 467.76 629.08 380.26 578.56 292.76 629.08 292.76 730.12 380.26 780.63 467.76 730.12"/>
    <polygon id="_11" data-name="11" class="cls-2" points="556.1 798.02 556.1 696.79 468.43 646.17 380.76 696.79 380.76 798.02 468.43 848.63 556.1 798.02"/>
    <polygon id="s100" class="cls-1" points="555.76 795.63 468.76 845.63 445.76 1004.63 512.76 965.63 555.76 795.63"/>
    <polygon id="s49" class="cls-1" points="479.76 876.63 441.76 1108.63 379.75 1144.63 380.26 933.63 479.76 876.63"/>
    <polygon id="s4" class="cls-1" points="467.76 628.63 485.76 503.63 486.76 621.63 468.76 730.63 467.76 628.63"/>
    <polygon id="_17" data-name="17" class="cls-2" points="655.76 1188.55 655.76 1108.87 586.76 1069.04 517.76 1108.87 517.76 1188.55 586.76 1228.38 655.76 1188.55"/>
    <polygon id="s34" class="cls-1" points="745.76 453.63 696.76 512.63 695.76 501.63 678.76 492.63 745.76 453.63"/>
    <polygon id="_3" data-name="3" class="cls-2" points="271.76 393.2 271.76 269.07 164.26 207 56.76 269.07 56.76 393.2 164.26 455.26 271.76 393.2"/>
    <polygon id="_4" data-name="4" class="cls-2" points="745.76 453.96 745.76 348.31 654.26 295.48 562.76 348.31 562.76 453.96 654.26 506.79 745.76 453.96"/>
    <polygon id="s107" class="cls-1" points="695.76 1131.63 566.76 1254.63 503.76 1290.63 590.76 1191.63 695.76 1131.63"/>
    <polygon id="s106" class="cls-1" points="484.76 1131.63 590.76 1191.63 503.76 1290.63 442.76 1256.63 467.94 1181.7 484.76 1131.63"/>
    <polygon id="s65" class="cls-1" points="201.76 967.63 201.76 1072.87 192.76 1065.63 192.76 956.63 201.76 967.63"/>
    <polygon id="s21" class="cls-1" points="503.76 1220.63 442.76 1256.63 484.76 1076.63 589.76 1015.63 503.76 1220.63"/>
    <polygon id="s30" class="cls-1" points="467.76 1080.63 467.76 1181.63 484.76 1130.63 484.76 1006.63 467.76 1080.63"/>
    <polygon id="s22" class="cls-1" points="442.76 1256.63 380.76 1222.63 379.76 1099.63 467.76 1150.63 442.76 1256.63"/>
    <polygon id="_24" data-name="24" class="cls-2" points="695.76 1131.04 695.76 1009.22 590.26 948.31 484.76 1009.22 484.76 1131.04 590.26 1191.95 695.76 1131.04"/>
    <polygon id="s102" class="cls-1" points="3.76 1070.63 133.76 1221.63 133.76 1170.63 97.76 1125.63 3.76 1070.63"/>
    <polygon id="_21" data-name="21" class="cls-2" points="192.76 1070.69 192.76 961.57 98.26 907.01 3.76 961.57 3.76 1070.69 98.26 1125.25 192.76 1070.69"/>
    <polygon id="s64" class="cls-1" points="97.76 1125.63 192.76 1070.63 214.76 1122.63 133.76 1170.63 97.76 1125.63"/>
    <polygon id="s47" class="cls-1" points="486.76 621.63 590.76 683.63 555.76 778.63 467.76 729.63 486.76 621.63"/>
    <polygon id="s46" class="cls-1" points="695.76 623.63 590.76 683.63 555.76 780.63 556.1 837.28 608.76 806.63 695.76 623.63"/>
    <polygon id="s44" class="cls-1" points="160.76 653.63 213.76 804.63 297.76 757.63 269.76 590.63 160.76 653.63"/>
    <polygon id="s5" class="cls-1" points="292.76 730.63 269.76 590.63 269.76 463.63 292.76 628.63 292.76 730.63"/>
    <polygon id="s37" class="cls-1" points="111.76 1453.63 137.76 1458.63 218.76 1411.63 201.76 1400.63 111.76 1453.63"/>
    <polygon id="s108" class="cls-1" points="201.76 1522.63 232.76 1503.63 301.76 1463.63 290.76 1471.63 201.76 1522.63"/>
    <polygon id="_29" data-name="29" class="cls-2" points="290.76 1470.81 290.76 1367.46 201.26 1315.79 111.76 1367.46 111.76 1470.81 201.26 1522.48 290.76 1470.81"/>
    <polygon id="s104" class="cls-1" points="256.76 1348.63 301.76 1374.63 379.76 1329.63 378.76 1277.63 256.76 1348.63"/>
    <polygon id="_7" data-name="7" class="cls-2" points="695.76 623.17 695.76 502.25 591.04 441.78 486.31 502.25 486.31 623.17 591.04 683.63 695.76 623.17"/>
    <polygon id="s105" class="cls-1" points="442.76 1256.63 378.76 1293.63 379.76 1232.63 467.76 1181.63 442.76 1256.63"/>
    <polygon id="_22" data-name="22" class="cls-2" points="467.76 1181.65 467.76 1080.62 380.26 1030.1 292.76 1080.62 292.76 1181.65 380.26 1232.17 467.76 1181.65"/>
    <polygon id="s103" class="cls-1" points="290.76 1367.63 290.76 1470.63 301.76 1463.63 301.76 1374.63 290.76 1367.63"/>
    <polygon id="s101" class="cls-1" points="168.76 1017.63 214.76 1123.63 297.76 1170.63 273.76 1078.63 168.76 1017.63"/>
    <polygon id="s99" class="cls-1" points="210.76 590.63 164.76 455.63 56.76 393.63 125.76 534.63 210.76 590.63"/>
    <polygon id="_18" data-name="18" class="cls-2" points="269.76 590.43 269.76 463.99 160.26 400.77 50.76 463.99 50.76 590.43 160.26 653.65 269.76 590.43"/>
    <polygon id="_20" data-name="20" class="cls-2" points="379.75 1017.63 379.75 895.63 274.1 834.63 168.44 895.63 168.44 1017.63 274.1 1078.63 379.75 1017.63"/>
    <polygon id="_30" data-name="30" class="cls-2" points="378.76 1277.86 378.76 1136.41 256.26 1065.68 133.76 1136.41 133.76 1277.86 256.26 1348.58 378.76 1277.86"/>
    <polygon id="s98" class="cls-1" points="271.76 268.63 307.76 541.63 307.76 618.63 271.76 393.63 271.76 268.63"/>
    <polygon id="_16" data-name="16" class="cls-2" points="479.76 873.58 479.76 758.69 380.26 701.24 280.76 758.69 280.76 873.58 380.26 931.03 479.76 873.58"/>
    <polygon id="s11" class="cls-1" points="290.76 832.63 290.76 797.63 201.76 745.63 217.76 786.63 290.76 832.63"/>
    <polygon id="s10" class="cls-1" points="112.76 797.63 137.76 832.63 217.76 786.63 201.76 745.63 112.76 797.63"/>
    <polygon id="s6" class="cls-1" points="468.76 802.63 479.76 757.63 380.76 701.63 380.76 751.63 468.76 802.63"/>
    <polygon id="s12" class="cls-1" points="380.76 720.63 380.76 700.63 280.76 757.63 296.76 768.63 380.76 720.63"/>
    <polygon id="s25" class="cls-1" points="379.76 938.63 292.76 887.63 273.76 834.63 378.76 895.63 379.76 938.63"/>
    <polygon id="s24" class="cls-1" points="290.76 881.63 201.76 931.63 168.76 894.63 273.76 834.63 290.76 881.63"/>
    <polygon id="s31" class="cls-1" points="201.76 971.63 192.76 960.63 98.76 905.63 112.76 920.63 201.76 971.63"/>
    <polygon id="s38" class="cls-1" points="297.76 1181.63 214.76 1229.63 133.76 1136.63 256.76 1065.63 297.76 1181.63"/>
    <polygon id="_25" data-name="25" class="cls-2" points="656.18 1663.64 656.18 1584.3 587.47 1544.63 518.76 1584.3 518.76 1663.64 587.47 1703.31 656.18 1663.64"/>
    <polygon id="s63" class="cls-1" points="571.76 1572.63 631.76 1606.63 659.76 1591.63 591.76 1551.63 571.76 1572.63"/>
    <polygon id="_1" data-name="1" class="cls-3" points="379.54 319.63 77.31 145.14 77.76 -204.37 379.76 -379.37 681.76 -204.37 681.76 145.14 379.54 319.63"/>
    <polygon id="xx05" class="cls-1" points="203.76 1844.63 214.76 1878.63 297.76 1926.63 291.76 1895.63 203.76 1844.63"/>
    <polygon id="xx01" class="cls-1" points="467.76 2311.63 442.76 2338.63 379.76 2374.63 379.76 2362.01 467.76 2311.63"/>
    <polygon id="xx02" class="cls-1" points="467.76 2210.63 463.76 2219.63 381.76 2171.63 381.76 2160.81 467.76 2210.63"/>
    <polygon id="xx03" class="cls-1" points="463.76 2029.63 459.76 2047.63 536.76 2092.63 545.76 2077.63 463.76 2029.63"/>
    <polygon id="xx04" class="cls-1" points="457.76 2056.63 463.76 2029.63 381.76 2077.63 380.76 2100.63 457.76 2056.63"/>
    <polygon id="xxx07" class="cls-1" points="529.76 1937.63 547.76 1927.63 470.76 1972.63 459.76 1978.63 529.76 1937.63"/>
    <polygon id="xxx06" class="cls-1" points="379.76 1936.63 379.76 1925.63 456.76 1969.63 447.76 1977.63 379.76 1936.63"/>
    <polygon id="s51" class="cls-1" points="378.76 1137.63 255.76 1066.63 291.76 1085.63 379.76 1136.63 378.76 1137.63"/>
    <polygon id="yy1" class="cls-1" points="317.76 1753.63 258.76 1789.63 215.76 1812.63 297.6 1765.13 317.76 1753.63"/>
    <polygon id="yy2" class="cls-1" points="136.76 1761.63 193.76 1755.63 258.76 1789.63 218.76 1808.63 136.76 1761.63"/>
    <polygon id="yy3" class="cls-1" points="55.76 1808.63 132.76 1789.63 193.76 1755.63 136.76 1762.63 55.76 1808.63"/>
    <polygon id="yy4" class="cls-1" points="215.76 1902.63 203.76 1921.63 114.76 1972.63 136.76 1947.63 215.76 1902.63"/>
    <polygon id="yy5" class="cls-1" points="193.76 1970.63 132.76 2005.63 41.76 2106.63 126.76 2057.63 193.76 1970.63"/>
    <polygon id="c1" class="cls-3" points="381.29 3292.63 123.31 3143.69 123.7 2845.36 381.48 2695.98 639.26 2845.36 639.26 3143.69 381.29 3292.63"/>
    <polygon id="bee2" class="cls-4" points="639.76 2940.63 652.76 2941.8 665.76 2947.63 659.76 2941.63 664.76 2937.63 658.76 2935.63 664.76 2928.63 651.76 2936.63 639.76 2940.63"/>
    <polygon id="k01" class="cls-1" points="381.76 2633.63 381.76 2695.63 639.76 2845.63 537.76 2636.63 458.76 2588.63 381.76 2633.63"/>
    <polygon id="k02" class="cls-1" points="304.76 2588.63 202.76 2669.63 123.76 2845.63 381.76 2695.63 381.76 2633.63 304.76 2588.63"/>
  </g>
</svg>
