<svg xmlns="http://www.w3.org/2000/svg" width="760" height="3000" viewBox="0 0 760 3000">
  <defs>
    <style>
      .cls-1 {
        fill: #f2f2f2;
      }

      .cls-1, .cls-2, .cls-3, .cls-4 {
        stroke: #000;
        stroke-miterlimit: 10;
      }

      .cls-2, .cls-3 {
        fill: #fff;
      }

      .cls-3 {
        stroke-width: 2px;
      }
    </style>
  </defs>
  <title>aartics_polygons_vertical</title>
  <g id="_01stage" data-name="01stage">
    <polygon id="s32" class="cls-1" points="77.27 146.61 307.27 659.61 380.05 702.61 379.27 320.61 77.27 146.61"/>
    <polygon id="s63" class="cls-1" points="567.27 1742.61 627.27 1776.61 655.27 1810.61 587.27 1770.61 567.27 1742.61"/>
    <polygon id="_25" data-name="25" class="cls-2" points="655.69 1889.61 655.69 1810.28 586.98 1770.61 518.27 1810.28 518.27 1889.61 586.98 1929.28 655.69 1889.61"/>
    <polygon id="s41" class="cls-1" points="518.27 1439.61 442.27 1471.61 456.27 1719.61 535.27 1674.61 518.27 1439.61"/>
    <polygon id="s88" class="cls-1" points="467.27 2578.61 467.27 2477.61 487.27 2584.61 487.27 2705.61 467.27 2578.61"/>
    <polygon id="s40" class="cls-1" points="379.27 1670.61 456.27 1715.61 442.27 1471.61 380.27 1434.61 379.27 1670.61"/>
    <polygon id="s52" class="cls-1" points="518.27 1434.61 589.27 1476.61 613.27 1719.61 535.27 1674.61 518.27 1434.61"/>
    <polygon id="s60" class="cls-1" points="299.27 1993.61 306.27 1951.61 234.27 1910.61 220.27 1948.61 299.27 1993.61"/>
    <polygon id="s62" class="cls-1" points="125.27 1758.61 192.27 1741.61 125.27 1834.61 40.27 1883.61 125.27 1758.61"/>
    <polygon id="s59" class="cls-1" points="378.27 1999.61 290.27 2050.61 306.27 1951.61 378.04 1910.61 378.27 1999.61"/>
    <polygon id="s61" class="cls-1" points="234.27 1827.61 234.27 1910.61 220.71 1948.59 209.27 1980.61 209.27 1883.61 234.27 1827.61"/>
    <polygon id="s57" class="cls-1" points="518.27 1889.61 587.27 1929.61 695.27 2159.61 590.27 2099.61 518.27 1889.61"/>
    <polygon id="s56" class="cls-1" points="461.27 2017.61 544.27 1969.53 590.27 2099.61 485.27 2159.61 461.27 2017.61"/>
    <polygon id="s94" class="cls-1" points="195.27 2391.61 134.27 2426.61 57.27 2572.61 137.27 2526.61 195.27 2391.61"/>
    <polygon id="_42" data-name="42" class="cls-2" points="218.27 2665.59 218.27 2572.63 137.77 2526.16 57.27 2572.63 57.27 2665.59 137.77 2712.06 218.27 2665.59"/>
    <polygon id="_50" data-name="50" class="cls-2" points="615.27 2725.72 615.27 2635.64 537.27 2590.61 459.26 2635.64 459.26 2725.72 537.27 2770.75 615.27 2725.72"/>
    <polygon id="_49" data-name="49" class="cls-2" points="458.27 2717.06 458.27 2628.15 381.27 2583.7 304.27 2628.15 304.27 2717.06 381.27 2761.52 458.27 2717.06"/>
    <polygon id="_48" data-name="48" class="cls-2" points="291.27 2809.78 291.27 2706.43 201.77 2654.76 112.27 2706.43 112.27 2809.78 201.77 2861.45 291.27 2809.78"/>
    <polygon id="_51" data-name="51" class="cls-2" points="709.27 2615.16 709.27 2521.05 627.77 2474 546.27 2521.05 546.27 2615.16 627.77 2662.22 709.27 2615.16"/>
    <polygon id="s87" class="cls-1" points="442.27 2386.61 504.27 2426.61 592.27 2765.61 487.27 2705.61 442.27 2386.61"/>
    <polygon id="s90" class="cls-1" points="504.27 2498.61 537.27 2590.61 459.27 2635.61 442.27 2535.61 504.27 2498.61"/>
    <polygon id="s92" class="cls-1" points="545.27 2402.61 592.27 2524.61 696.27 2586.61 633.27 2454.61 545.27 2402.61"/>
    <polygon id="s91" class="cls-1" points="463.27 2444.61 487.27 2584.61 591.27 2524.61 545.27 2396.61 463.27 2444.61"/>
    <polygon id="s89" class="cls-1" points="442.27 2535.61 458.27 2628.61 381.27 2583.61 380.27 2498.61 442.27 2535.61"/>
    <polygon id="s85" class="cls-1" points="138.27 2651.61 112.27 2706.61 202.27 2654.61 218.27 2605.61 138.27 2651.61"/>
    <polygon id="s84" class="cls-1" points="211.27 2409.61 221.27 2377.61 143.27 2422.61 126.27 2458.61 211.27 2409.61"/>
    <polygon id="s82" class="cls-1" points="291.27 2377.61 304.27 2288.61 235.27 2341.61 203.27 2430.61 291.27 2377.61"/>
    <polygon id="s80" class="cls-1" points="304.27 2185.61 380.73 2229.61 381.27 2222.61 310.27 2182.61 304.27 2185.61"/>
    <polygon id="s79" class="cls-1" points="291.27 2276.61 304.27 2196.61 304.27 2285.61 291.27 2379.61 291.27 2276.61"/>
    <polygon id="s78" class="cls-1" points="380.27 2112.61 380.27 2099.61 304.27 2143.61 297.27 2160.61 380.27 2112.61"/>
    <polygon id="s77" class="cls-1" points="55.27 2237.61 135.27 2283.61 193.27 2231.61 131.27 2198.61 55.27 2237.61"/>
    <polygon id="s76" class="cls-1" points="613.27 2234.61 566.27 2176.61 504.27 2212.61 536.27 2279.61 613.27 2234.61"/>
    <polygon id="s75" class="cls-1" points="708.27 2183.61 627.27 2143.61 566.27 2179.61 627.27 2230.61 708.27 2183.61"/>
    <polygon id="s73" class="cls-1" points="545.27 2170.61 518.27 2156.61 518.27 2234.61 545.27 2264.61 545.27 2170.61"/>
    <polygon id="s70" class="cls-1" points="466.27 1969.61 442.27 1957.61 380.27 1994.61 378.27 2020.61 466.27 1969.61"/>
    <polygon id="s68" class="cls-1" points="457.27 2199.61 459.27 2202.61 459.27 2290.61 457.27 2288.61 457.27 2199.61"/>
    <polygon id="s66" class="cls-1" points="296.27 2670.61 291.27 2706.61 202.27 2654.61 213.27 2622.61 296.27 2670.61"/>
    <polygon id="s67" class="cls-1" points="304.27 2716.61 291.27 2809.61 291.27 2718.61 304.27 2628.61 304.27 2716.61"/>
    <polygon id="s98" class="cls-1" points="271.27 458.61 307.27 583.61 307.27 660.61 271.27 583.61 271.27 458.61"/>
    <polygon id="s97" class="cls-1" points="235.27 2341.61 222.27 2377.61 300.27 2422.61 307.27 2381.61 235.27 2341.61"/>
    <polygon id="s93" class="cls-1" points="221.27 2558.61 218.27 2572.61 137.27 2526.61 143.27 2513.43 221.27 2558.61"/>
    <polygon id="s58" class="cls-1" points="461.27 2017.61 466.27 2050.61 378.27 1999.61 378.27 1969.53 461.27 2017.61"/>
    <polygon id="s35" class="cls-1" points="456.27 1805.61 461.27 1825.61 378.27 1873.61 378.27 1849.61 456.27 1805.61"/>
    <polygon id="s36" class="cls-1" points="456.27 1810.61 535.27 1855.61 544.27 1873.61 461.27 1825.61 456.27 1810.61"/>
    <polygon id="s83" class="cls-1" points="211.27 2310.61 235.27 2261.61 235.27 2341.61 211.27 2408.61 211.27 2310.61"/>
    <polygon id="_39" data-name="39" class="cls-2" points="457.27 2285.42 457.27 2197.04 380.73 2152.85 304.19 2197.04 304.19 2285.42 380.73 2329.61 457.27 2285.42"/>
    <polygon id="_37" data-name="37" class="cls-2" points="613.27 2295.06 613.27 2206.15 536.27 2161.7 459.27 2206.15 459.27 2295.06 536.27 2339.52 613.27 2295.06"/>
    <polygon id="_36" data-name="36" class="cls-2" points="545.27 2471.95 545.27 2377.26 463.27 2329.92 381.27 2377.26 381.27 2471.95 463.27 2519.29 545.27 2471.95"/>
    <polygon id="s86" class="cls-1" points="466.27 2478.61 486.27 2584.61 486.27 2705.61 466.27 2579.61 466.27 2478.61"/>
    <polygon id="_44" data-name="44" class="cls-2" points="695.27 2705.44 695.27 2584.78 590.77 2524.44 486.27 2584.78 486.27 2705.44 590.77 2765.77 695.27 2705.44"/>
    <polygon id="_43" data-name="43" class="cls-2" points="378.27 2692.53 378.27 2596.69 295.27 2548.77 212.27 2596.69 212.27 2692.53 295.27 2740.45 378.27 2692.53"/>
    <polygon id="s96" class="cls-1" points="290.81 2477.61 305.81 2381.61 379.27 2341.61 378.81 2426.61 290.81 2477.61"/>
    <polygon id="_46" data-name="46" class="cls-2" points="466.27 2578.47 466.27 2477.43 378.77 2426.92 291.27 2477.43 291.27 2578.47 378.77 2628.99 466.27 2578.47"/>
    <polygon id="_47" data-name="47" class="cls-2" points="210.27 2408.68 210.27 2310.53 125.27 2261.46 40.27 2310.53 40.27 2408.68 125.27 2457.76 210.27 2408.68"/>
    <polygon id="s81" class="cls-1" points="113.27 2361.61 125.27 2359.61 210.27 2408.61 201.27 2412.61 113.27 2361.61"/>
    <polygon id="_26" data-name="26" class="cls-2" points="456.27 1804.78 456.27 1715.29 378.77 1670.54 301.27 1715.29 301.27 1804.78 378.77 1849.52 456.27 1804.78"/>
    <polygon id="_27" data-name="27" class="cls-2" points="613.27 1810.43 613.27 1719.79 534.77 1674.46 456.27 1719.79 456.27 1810.43 534.77 1855.75 613.27 1810.43"/>
    <polygon id="_28" data-name="28" class="cls-2" points="544.27 1969.53 544.27 1873.69 461.27 1825.77 378.27 1873.69 378.27 1969.53 461.27 2017.45 544.27 1969.53"/>
    <polygon id="_33" data-name="33" class="cls-2" points="299.21 2084.52 299.21 1993.91 220.74 1948.61 142.27 1993.91 142.27 2084.52 220.74 2129.83 299.21 2084.52"/>
    <polygon id="_32" data-name="32" class="cls-2" points="216.27 2237.59 216.27 2144.63 135.77 2098.16 55.27 2144.63 55.27 2237.59 135.77 2284.06 216.27 2237.59"/>
    <polygon id="_41" data-name="41" class="cls-2" points="380.27 2191.53 380.27 2095.69 297.27 2047.77 214.27 2095.69 214.27 2191.53 297.27 2239.45 380.27 2191.53"/>
    <polygon id="s74" class="cls-1" points="544.27 2199.61 535.27 2191.61 612.27 2234.61 626.27 2246.61 544.27 2199.61"/>
    <polygon id="_38" data-name="38" class="cls-2" points="708.27 2273.65 708.27 2179.73 626.93 2132.77 545.6 2179.73 545.6 2273.65 626.93 2320.61 708.27 2273.65"/>
    <polygon id="_40" data-name="40" class="cls-2" points="291.27 2379.2 291.27 2277.01 202.77 2225.92 114.27 2277.01 114.27 2379.2 202.77 2430.3 291.27 2379.2"/>
    <polygon id="s71" class="cls-1" points="289.27 2148.61 317.27 2137.61 377.27 2174.61 377.27 2200.61 289.27 2148.61"/>
    <polygon id="s69" class="cls-1" points="590.27 2341.61 566.27 2214.61 466.27 2151.61 485.27 2281.61 590.27 2341.61"/>
    <polygon id="_35" data-name="35" class="cls-2" points="465.81 2151.63 465.81 2050.28 378.04 1999.61 290.27 2050.28 290.27 2151.63 378.04 2202.3 465.81 2151.63"/>
    <polygon id="_34" data-name="34" class="cls-2" points="209.27 1980.89 209.27 1883.32 124.77 1834.54 40.27 1883.32 40.27 1980.89 124.77 2029.68 209.27 1980.89"/>
    <polygon id="s55" class="cls-1" points="466.27 2151.61 485.27 2281.61 485.27 2159.61 465.81 2050.28 466.27 2151.61"/>
    <polygon id="s72" class="cls-1" points="694.27 2279.61 626.27 2269.61 544.27 2316.61 589.27 2339.61 694.27 2279.61"/>
    <polygon id="_31" data-name="31" class="cls-2" points="695.27 2281.23 695.27 2159.99 590.27 2099.36 485.27 2159.99 485.27 2281.23 590.27 2341.85 695.27 2281.23"/>
    <polygon id="s110" class="cls-1" points="566.27 1042.61 565.27 1113.61 580.27 1135.61 580.27 1058.61 566.27 1042.61"/>
    <polygon id="s1" class="cls-1" points="616.27 554.61 616.27 646.61 582.27 659.61 581.27 595.61 616.27 554.61"/>
    <polygon id="_2" data-name="2" class="cls-2" points="774.27 646.22 774.27 555 695.27 509.39 616.27 555 616.27 646.22 695.27 691.83 774.27 646.22"/>
    <polygon id="s33" class="cls-1" points="681.27 146.61 379.27 320.61 380.27 685.61 463.27 637.61 681.27 146.61"/>
    <polygon id="s3" class="cls-1" points="271.27 583.61 164.27 645.61 234.27 702.61 307.27 660.61 271.27 583.61"/>
    <polygon id="s20" class="cls-1" points="590.27 1500.61 517.27 1265.61 586.27 1305.61 695.27 1561.61 590.27 1500.61"/>
    <polygon id="s23" class="cls-1" points="380.27 1222.61 317.27 1257.61 292.27 1331.61 379.27 1280.61 380.27 1222.61"/>
    <polygon id="s50" class="cls-1" points="379.27 1500.61 379.27 1388.61 297.27 1437.61 273.27 1561.61 379.27 1500.61"/>
    <polygon id="s19" class="cls-1" points="545.27 685.61 545.27 781.61 563.27 776.61 563.27 671.61 545.27 685.61"/>
    <polygon id="s18" class="cls-1" points="590.27 770.61 545.27 780.61 463.27 828.61 486.27 829.61 590.27 770.61"/>
    <polygon id="s17" class="cls-1" points="380.27 791.61 379.27 779.61 467.27 829.61 440.27 826.61 380.27 791.61"/>
    <polygon id="s16" class="cls-1" points="380.27 791.61 319.27 827.61 292.27 829.61 379.27 779.61 380.27 791.61"/>
    <polygon id="s15" class="cls-1" points="235.27 786.61 235.27 704.61 210.27 683.61 210.27 781.61 235.27 786.61"/>
    <polygon id="s11" class="cls-1" points="296.27 1119.61 290.27 1138.61 201.27 1086.61 213.27 1070.61 296.27 1119.61"/>
    <polygon id="s10" class="cls-1" points="112.27 1138.61 137.27 1108.61 217.27 1061.61 201.27 1086.61 112.27 1138.61"/>
    <polygon id="s9" class="cls-1" points="574.27 1126.61 586.27 1145.61 655.27 1185.61 638.27 1163.61 574.27 1126.61"/>
    <polygon id="s8" class="cls-1" points="565.27 1113.61 504.27 1149.61 517.27 1185.61 586.27 1145.61 565.27 1113.61"/>
    <polygon id="s7" class="cls-1" points="504.27 1151.61 503.27 1220.61 517.27 1264.61 517.27 1185.61 504.27 1151.61"/>
    <polygon id="_9" data-name="9" class="cls-2" points="702.49 1126.31 702.49 1051.7 637.88 1014.4 573.27 1051.7 573.27 1126.31 637.88 1163.61 702.49 1126.31"/>
    <polygon id="s48" class="cls-1" points="442.27 1120.61 445.27 1135.61 513.27 1174.61 503.27 1156.61 442.27 1120.61"/>
    <polygon id="s54" class="cls-1" points="684.27 1048.61 638.27 1014.61 573.27 1051.61 608.27 1092.61 684.27 1048.61"/>
    <polygon id="_10" data-name="10" class="cls-2" points="580.27 1136.08 580.27 1058.14 512.77 1019.17 445.27 1058.14 445.27 1136.08 512.77 1175.05 580.27 1136.08"/>
    <polygon id="s6" class="cls-1" points="468.27 1134.61 479.27 1176.61 380.27 1119.61 380.27 1083.61 468.27 1134.61"/>
    <polygon id="_5" data-name="5" class="cls-2" points="210.27 781.76 210.27 683.61 125.27 634.54 40.27 683.61 40.27 781.76 125.27 830.84 210.27 781.76"/>
    <polygon id="s14" class="cls-1" points="269.27 830.61 319.27 827.61 255.27 791.61 161.27 768.61 269.27 830.61"/>
    <polygon id="s43" class="cls-1" points="50.27 957.61 136.27 923.61 213.27 967.61 160.27 1020.61 50.27 957.61"/>
    <polygon id="s53" class="cls-1" points="56.27 1061.61 137.27 1108.61 192.27 1042.61 131.27 1007.61 56.27 1061.61"/>
    <polygon id="_14" data-name="14" class="cls-2" points="217.27 1062.61 217.27 969.63 136.77 923.15 56.27 969.63 56.27 1062.59 136.77 1109.06 217.27 1062.61"/>
    <polygon id="s29" class="cls-1" points="192.27 1328.61 137.27 1563.61 56.27 1610.61 131.27 1364.61 192.27 1328.61"/>
    <polygon id="_23" data-name="23" class="cls-2" points="217.94 1703.62 217.94 1610.28 137.11 1563.61 56.27 1610.28 56.27 1703.62 137.11 1750.29 217.94 1703.62"/>
    <polygon id="s27" class="cls-1" points="256.27 1364.61 256.27 1435.61 218.27 1703.61 218.27 1610.61 256.27 1364.61"/>
    <polygon id="s28" class="cls-1" points="192.27 1328.61 256.27 1364.61 218.27 1610.61 137.27 1563.61 192.27 1328.61"/>
    <polygon id="_19" data-name="19" class="cls-2" points="296.81 1496.97 296.81 1401.39 214.04 1353.61 131.27 1401.39 131.27 1496.97 214.04 1544.76 296.81 1496.97"/>
    <polygon id="s26" class="cls-1" points="3.27 1317.61 131.27 1149.61 192.27 1114.61 98.27 1263.61 3.27 1317.61"/>
    <polygon id="_15" data-name="15" class="cls-2" points="290.27 1241.2 290.27 1138.4 201.24 1086.99 112.2 1138.4 112.2 1241.2 201.24 1292.61 290.27 1241.2"/>
    <polygon id="s12" class="cls-1" points="380.27 1070.61 380.27 1119.61 280.27 1176.61 296.27 1119.61 380.27 1070.61"/>
    <polygon id="_8" data-name="8" class="cls-2" points="684.27 1048.49 684.27 960.73 608.27 916.85 532.27 960.73 532.27 1048.49 608.27 1092.37 684.27 1048.49"/>
    <polygon id="s2" class="cls-1" points="563.27 671.61 654.27 618.61 566.27 684.61 504.27 719.61 563.27 671.61"/>
    <polygon id="s100" class="cls-1" points="555.27 1083.61 468.27 1134.61 445.27 1058.61 512.27 1019.61 555.27 1083.61"/>
    <polygon id="_6" data-name="6" class="cls-2" points="545.48 780.68 545.48 685.3 462.87 637.61 380.27 685.3 380.27 780.68 462.87 828.37 545.48 780.68"/>
    <polygon id="s45" class="cls-1" points="290.27 930.61 297.27 923.61 380.27 971.61 380.27 981.61 290.27 930.61"/>
    <polygon id="s49" class="cls-1" points="479.27 1290.61 471.27 1243.61 379.26 1305.61 379.77 1347.61 479.27 1290.61"/>
    <polygon id="s4" class="cls-1" points="467.27 828.61 486.27 830.61 486.27 951.61 467.27 930.61 467.27 828.61"/>
    <polygon id="s25" class="cls-1" points="379.77 1348 280.27 1290.61 273.27 1317.61 379.27 1378.61 379.77 1348"/>
    <polygon id="_17" data-name="17" class="cls-2" points="655.27 1265.52 655.27 1185.85 586.27 1146.01 517.27 1185.85 517.27 1265.52 586.27 1305.36 655.27 1265.52"/>
    <polygon id="_3" data-name="3" class="cls-2" points="271.27 583.17 271.27 459.04 163.77 396.98 56.27 459.04 56.27 583.17 163.77 645.24 271.27 583.17"/>
    <polygon id="s34" class="cls-1" points="746.27 776.61 705.27 781.61 695.27 786.61 695.27 806.61 746.27 776.61"/>
    <polygon id="_4" data-name="4" class="cls-2" points="746.27 776.93 746.27 671.28 654.77 618.45 563.27 671.28 563.27 776.93 654.77 829.76 746.27 776.93"/>
    <polygon id="s107" class="cls-1" points="695.27 1683.61 566.27 1510.61 503.27 1547.61 590.27 1744.61 695.27 1683.61"/>
    <polygon id="s106" class="cls-1" points="484.27 1683.61 590.27 1744.61 522.27 1584.61 467.27 1542.61 467.27 1542.61 484.27 1683.61"/>
    <polygon id="s21" class="cls-1" points="503.27 1220.61 442.27 1256.61 484.27 1561.61 590.27 1500.61 503.27 1220.61"/>
    <polygon id="s30" class="cls-1" points="442.27 1256.61 442.27 1330.61 484.27 1682.61 484.27 1561.61 442.27 1256.61"/>
    <polygon id="s22" class="cls-1" points="442.27 1256.61 380.27 1222.61 379.77 1389.07 467.27 1439.59 442.27 1256.61"/>
    <polygon id="_24" data-name="24" class="cls-2" points="695.27 1683.02 695.27 1561.2 589.77 1500.29 484.27 1561.2 484.27 1683.02 589.77 1743.93 695.27 1683.02"/>
    <polygon id="s31" class="cls-1" points="201.27 1292.61 192.27 1317.61 98.27 1263.61 112.27 1241.61 201.27 1292.61"/>
    <polygon id="s102" class="cls-1" points="3.27 1427.61 133.27 1401.61 133.27 1461.61 97.27 1482.61 3.27 1427.61"/>
    <polygon id="s64" class="cls-1" points="98.27 1482.61 192.27 1426.61 201.27 1392.61 133.27 1426.61 98.27 1482.61"/>
    <polygon id="s65" class="cls-1" points="201.27 1292.61 201.27 1392.85 192.27 1426.61 192.27 1317.61 201.27 1292.61"/>
    <polygon id="_21" data-name="21" class="cls-2" points="192.27 1427.67 192.27 1318.55 97.77 1263.99 3.27 1318.55 3.27 1427.67 97.77 1482.23 192.27 1427.67"/>
    <polygon id="s47" class="cls-1" points="486.27 951.61 590.27 1011.61 555.27 976.61 467.27 930.61 486.27 951.61"/>
    <polygon id="s46" class="cls-1" points="695.27 951.61 590.27 1011.61 590.27 1011.61 503.27 935.61 566.27 899.61 695.27 951.61"/>
    <polygon id="s44" class="cls-1" points="160.27 1020.61 213.27 967.61 292.27 929.61 269.27 957.61 160.27 1020.61"/>
    <polygon id="s5" class="cls-1" points="292.27 929.61 269.27 957.61 269.27 830.61 292.27 829.61 292.27 929.61"/>
    <polygon id="s37" class="cls-1" points="111.27 1731.61 137.27 1676.61 218.27 1575.61 201.27 1625.61 111.27 1731.61"/>
    <polygon id="s108" class="cls-1" points="201.27 1801.61 232.27 1708.61 304.27 1663.61 290.27 1749.61 201.27 1801.61"/>
    <polygon id="_29" data-name="29" class="cls-2" points="290.27 1834.78 290.27 1731.43 200.77 1679.76 111.27 1731.43 111.27 1834.78 200.77 1886.45 290.27 1834.78"/>
    <polygon id="s38" class="cls-1" points="292.27 1503.61 214.27 1544.61 133.27 1642.61 256.27 1573.61 292.27 1503.61"/>
    <polygon id="s105" class="cls-1" points="442.27 1529.61 378.27 1566.61 379.27 1591.61 467.27 1542.61 442.27 1529.61"/>
    <polygon id="_22" data-name="22" class="cls-2" points="467.27 1540.63 467.27 1439.59 379.77 1389.07 292.27 1439.59 292.27 1540.63 379.77 1591.14 467.27 1540.63"/>
    <polygon id="s103" class="cls-1" points="290.27 1646.61 290.27 1749.61 301.27 1661.61 301.27 1563.61 290.27 1646.61"/>
    <polygon id="s101" class="cls-1" points="168.27 1500.61 218.77 1398.11 297.27 1437.61 273.27 1561.61 168.27 1500.61"/>
    <polygon id="_20" data-name="20" class="cls-2" points="379.26 1500.61 379.26 1378.61 273.61 1317.61 167.95 1378.61 167.95 1500.61 273.61 1561.61 379.26 1500.61"/>
    <polygon id="s99" class="cls-1" points="210.27 682.61 164.27 645.61 56.27 583.61 125.27 633.61 210.27 682.61"/>
    <polygon id="s104" class="cls-1" points="256.27 1856.61 301.27 1726.61 379.27 1681.61 378.27 1785.61 256.27 1856.61"/>
    <polygon id="_30" data-name="30" class="cls-2" points="378.27 1784.83 378.27 1643.38 255.77 1572.66 133.27 1643.38 133.27 1784.83 255.77 1855.56 378.27 1784.83"/>
    <polygon id="s24" class="cls-1" points="290.27 1241.61 201.27 1292.61 168.27 1378.61 273.27 1317.61 290.27 1241.61"/>
    <polygon id="s42" class="cls-1" points="531.27 1048.61 511.77 1019.17 579.27 1058.61 607.27 1092.61 531.27 1048.61"/>
    <polygon id="_1" data-name="1" class="cls-2" points="379.05 319.61 76.82 145.12 77.27 -204.39 379.27 -379.39 681.27 -204.39 681.27 145.12 379.05 319.61"/>
    <polygon id="_13" data-name="13" class="cls-2" points="380.27 1070.55 380.27 974.13 296.77 925.92 213.27 974.13 213.27 1070.55 296.77 1118.76 380.27 1070.55"/>
    <polygon id="_12" data-name="12" class="cls-2" points="467.27 931.09 467.27 830.05 379.77 779.53 292.27 830.05 292.27 931.09 379.77 981.61 467.27 931.09"/>
    <polygon id="_11" data-name="11" class="cls-2" points="555.61 1083.99 555.61 982.76 467.94 932.15 380.27 982.76 380.27 1083.99 467.94 1134.61 555.61 1083.99"/>
    <polygon id="s95" class="cls-1" points="300.27 2513.61 296.27 2548.61 213.27 2596.61 221.27 2558.61 300.27 2513.61"/>
    <polygon id="_45" data-name="45" class="cls-2" points="300.27 2513.43 300.27 2422.79 221.77 2377.46 143.27 2422.79 143.27 2513.43 221.77 2558.75 300.27 2513.43"/>
    <polygon id="xx05" class="cls-1" points="203.27 2225.61 214.27 2191.61 297.27 2239.61 291.27 2276.61 203.27 2225.61"/>
    <polygon id="xx01" class="cls-1" points="467.27 2629.61 442.27 2598.61 379.27 2634.61 379.27 2679.99 467.27 2629.61"/>
    <polygon id="xx02" class="cls-1" points="467.27 2530.61 462.27 2519.61 380.27 2471.61 381.27 2480.78 467.27 2530.61"/>
    <polygon id="xx03" class="cls-1" points="463.27 2329.61 457.27 2310.61 536.27 2356.61 545.27 2377.61 463.27 2329.61"/>
    <polygon id="xx04" class="cls-1" points="457.27 2309.61 463.27 2329.61 380.27 2377.61 380.27 2353.61 457.27 2309.61"/>
    <polygon id="xxx07" class="cls-1" points="518.27 2104.61 536.27 2161.61 459.27 2206.61 448.27 2145.61 518.27 2104.61"/>
    <polygon id="xxx06" class="cls-1" points="380.27 2104.61 380.27 2152.61 457.27 2196.61 448.27 2145.61 380.27 2104.61"/>
    <polygon id="yy1" class="cls-1" points="317.27 1963.61 258.27 1999.61 215.27 2100.61 294.1 2055.11 317.27 1963.61"/>
    <polygon id="yy2" class="cls-1" points="136.27 2104.61 193.27 1965.61 258.27 1999.61 215.27 2150.61 136.27 2104.61"/>
    <polygon id="yy3" class="cls-1" points="55.27 2150.61 132.27 1999.61 193.27 1965.61 136.27 2104.61 55.27 2150.61"/>
    <polygon id="yy4" class="cls-1" points="220.27 2175.61 203.27 2231.61 114.27 2282.61 136.27 2225.61 220.27 2175.61"/>
    <polygon id="yy5" class="cls-1" points="193.27 2180.61 132.27 2215.61 40.27 2400.61 125.27 2351.61 193.27 2180.61"/>
    <polygon id="_7" data-name="7" class="cls-2" points="695.27 951.14 695.27 830.22 590.55 769.76 485.82 830.22 485.82 951.14 590.55 1011.61 695.27 951.14"/>
    <polygon id="_18" data-name="18" class="cls-2" points="269.27 957.4 269.27 830.97 159.77 767.75 50.27 830.97 50.27 957.4 159.77 1020.63 269.27 957.4"/>
    <polygon id="_16" data-name="16" class="cls-2" points="479.27 1290.55 479.27 1175.66 379.77 1118.21 280.27 1175.66 280.27 1290.55 379.77 1348 479.27 1290.55"/>
    <polygon id="s51" class="cls-1" points="378.27 1642.61 255.27 1571.61 292.27 1502.61 380.27 1553.61 378.27 1642.61"/>
    <polygon id="c1" class="cls-3" points="380.8 3292.61 122.82 3143.67 123.2 2845.33 380.99 2695.95 638.77 2845.33 638.77 3143.67 380.8 3292.61"/>
    <polygon id="bee2" class="cls-4" points="695.45 929.95 709.42 943.16 731.32 950.26 716.93 951.26 718.96 960.43 709.15 960.82 703.43 973.04 704.96 952.1 695.45 929.95"/>
    <polygon id="k01" class="cls-1" points="381.27 2557.61 381.27 2695.61 639.27 2845.61 537.27 2562.61 458.27 2512.61 381.27 2557.61"/>
    <polygon id="k02" class="cls-1" points="304.27 2512.61 201.27 2657.61 123.27 2845.61 381.27 2695.61 381.27 2557.61 304.27 2512.61"/>
  </g>
</svg>
