<svg xmlns="http://www.w3.org/2000/svg" width="760" height="3000" viewBox="0 0 760 3000">
  <defs>
    <style>
      .cls-1 {
        fill: #f2f2f2;
      }

      .cls-1, .cls-2, .cls-3, .cls-4 {
        stroke: #000;
        stroke-miterlimit: 10;
      }

      .cls-2, .cls-3 {
        fill: #fff;
      }

      .cls-3 {
        stroke-width: 2px;
      }
    </style>
  </defs>
  <title>aartics_polygons_vertical</title>
  <g id="_02stage" data-name="02stage">
    <polygon id="s63" class="cls-1" points="567.63 1602.6 627.63 1636.6 655.63 1670.6 587.63 1630.6 567.63 1602.6"/>
    <polygon id="_25" data-name="25" class="cls-2" points="656.04 1749.6 656.04 1670.27 587.33 1630.6 518.63 1670.27 518.63 1749.6 587.33 1789.27 656.04 1749.6"/>
    <polygon id="s41" class="cls-1" points="503.63 1437.6 441.63 1473.6 456.63 1579.6 535.63 1534.6 503.63 1437.6"/>
    <polygon id="s40" class="cls-1" points="379.63 1530.6 456.63 1575.6 441.63 1473.6 379.63 1436.6 379.63 1530.6"/>
    <polygon id="s88" class="cls-1" points="467.63 2438.6 467.63 2337.6 487.63 2444.6 487.63 2565.6 467.63 2438.6"/>
    <polygon id="s52" class="cls-1" points="503.63 1437.6 565.63 1473.6 613.63 1579.6 535.63 1534.6 503.63 1437.6"/>
    <polygon id="s60" class="cls-1" points="299.63 1853.6 306.63 1811.6 234.63 1770.6 220.63 1808.6 299.63 1853.6"/>
    <polygon id="s62" class="cls-1" points="125.63 1618.6 192.63 1601.6 125.63 1694.6 40.63 1743.6 125.63 1618.6"/>
    <polygon id="s59" class="cls-1" points="378.63 1859.6 290.63 1910.6 306.63 1811.6 378.39 1770.6 378.63 1859.6"/>
    <polygon id="s61" class="cls-1" points="234.63 1687.6 234.63 1770.6 221.06 1808.58 209.63 1840.6 209.63 1743.6 234.63 1687.6"/>
    <polygon id="s57" class="cls-1" points="518.63 1749.6 587.63 1789.6 695.63 2019.6 590.63 1959.6 518.63 1749.6"/>
    <polygon id="s56" class="cls-1" points="461.63 1877.6 544.63 1829.52 590.63 1959.6 485.63 2019.6 461.63 1877.6"/>
    <polygon id="s94" class="cls-1" points="195.63 2251.6 134.63 2286.6 57.63 2432.6 137.63 2386.6 195.63 2251.6"/>
    <polygon id="_42" data-name="42" class="cls-2" points="218.63 2525.57 218.63 2432.62 138.13 2386.14 57.63 2432.62 57.63 2525.57 138.13 2572.05 218.63 2525.57"/>
    <polygon id="_50" data-name="50" class="cls-2" points="615.63 2585.7 615.63 2495.63 537.62 2450.6 459.62 2495.63 459.62 2585.7 537.62 2630.74 615.63 2585.7"/>
    <polygon id="_49" data-name="49" class="cls-2" points="458.63 2577.05 458.63 2488.14 381.63 2443.68 304.63 2488.14 304.63 2577.05 381.63 2621.51 458.63 2577.05"/>
    <polygon id="_48" data-name="48" class="cls-2" points="291.63 2669.77 291.63 2566.42 202.13 2514.75 112.63 2566.42 112.63 2669.77 202.13 2721.44 291.63 2669.77"/>
    <polygon id="_51" data-name="51" class="cls-2" points="709.63 2475.15 709.63 2381.04 628.13 2333.99 546.63 2381.04 546.63 2475.15 628.13 2522.2 709.63 2475.15"/>
    <polygon id="s87" class="cls-1" points="442.63 2246.6 504.63 2286.6 592.63 2625.6 487.63 2565.6 442.63 2246.6"/>
    <polygon id="s90" class="cls-1" points="504.63 2358.6 537.63 2450.6 459.63 2495.6 442.63 2395.6 504.63 2358.6"/>
    <polygon id="s92" class="cls-1" points="545.63 2262.6 592.63 2384.6 696.63 2446.6 633.63 2314.6 545.63 2262.6"/>
    <polygon id="s91" class="cls-1" points="463.63 2304.6 487.63 2444.6 591.63 2384.6 545.63 2256.6 463.63 2304.6"/>
    <polygon id="s89" class="cls-1" points="442.63 2395.6 458.63 2488.6 381.63 2443.6 380.63 2358.6 442.63 2395.6"/>
    <polygon id="s85" class="cls-1" points="138.63 2511.6 112.63 2566.6 202.63 2514.6 218.63 2465.6 138.63 2511.6"/>
    <polygon id="s84" class="cls-1" points="211.63 2269.6 221.63 2237.6 143.63 2282.6 126.63 2318.6 211.63 2269.6"/>
    <polygon id="s82" class="cls-1" points="291.63 2237.6 304.63 2148.6 235.63 2201.6 203.63 2290.6 291.63 2237.6"/>
    <polygon id="s80" class="cls-1" points="304.63 2045.6 381.09 2089.6 381.63 2082.6 310.63 2042.6 304.63 2045.6"/>
    <polygon id="s79" class="cls-1" points="291.63 2136.6 304.63 2056.6 304.63 2145.6 291.63 2239.6 291.63 2136.6"/>
    <polygon id="s78" class="cls-1" points="380.63 1972.6 380.63 1959.6 304.63 2003.6 297.63 2020.6 380.63 1972.6"/>
    <polygon id="s77" class="cls-1" points="55.63 2097.6 135.63 2143.6 193.63 2091.6 131.63 2058.6 55.63 2097.6"/>
    <polygon id="s76" class="cls-1" points="613.63 2094.6 566.63 2036.6 504.63 2072.6 536.63 2139.6 613.63 2094.6"/>
    <polygon id="s75" class="cls-1" points="708.63 2043.6 627.63 2003.6 566.63 2039.6 627.63 2090.6 708.63 2043.6"/>
    <polygon id="s73" class="cls-1" points="545.63 2030.6 518.63 2016.6 518.63 2094.6 545.63 2124.6 545.63 2030.6"/>
    <polygon id="s70" class="cls-1" points="466.63 1829.6 442.63 1817.6 380.63 1854.6 378.63 1880.6 466.63 1829.6"/>
    <polygon id="s68" class="cls-1" points="457.63 2059.6 459.63 2062.6 459.63 2150.6 457.63 2148.6 457.63 2059.6"/>
    <polygon id="s66" class="cls-1" points="296.63 2530.6 291.63 2566.6 202.63 2514.6 213.63 2482.6 296.63 2530.6"/>
    <polygon id="s67" class="cls-1" points="304.63 2576.6 291.63 2669.6 291.63 2578.6 304.63 2488.6 304.63 2576.6"/>
    <polygon id="s97" class="cls-1" points="235.63 2201.6 222.63 2237.6 300.63 2282.6 307.63 2241.6 235.63 2201.6"/>
    <polygon id="s93" class="cls-1" points="221.63 2418.6 218.63 2432.6 137.63 2386.6 143.63 2373.42 221.63 2418.6"/>
    <polygon id="s58" class="cls-1" points="461.63 1877.6 466.63 1910.6 378.63 1859.6 378.63 1829.52 461.63 1877.6"/>
    <polygon id="s35" class="cls-1" points="456.63 1656.6 461.63 1699.6 378.63 1747.6 378.63 1701.6 456.63 1656.6"/>
    <polygon id="s36" class="cls-1" points="456.63 1664.6 535.63 1709.6 544.63 1747.6 461.63 1699.6 456.63 1664.6"/>
    <polygon id="s83" class="cls-1" points="211.63 2170.6 235.63 2121.6 235.63 2201.6 211.63 2268.6 211.63 2170.6"/>
    <polygon id="_39" data-name="39" class="cls-2" points="457.63 2145.41 457.63 2057.03 381.09 2012.84 304.55 2057.03 304.55 2145.41 381.09 2189.6 457.63 2145.41"/>
    <polygon id="_37" data-name="37" class="cls-2" points="613.63 2155.05 613.63 2066.14 536.63 2021.68 459.63 2066.14 459.63 2155.05 536.63 2199.51 613.63 2155.05"/>
    <polygon id="_36" data-name="36" class="cls-2" points="545.63 2331.94 545.63 2237.25 463.63 2189.91 381.63 2237.25 381.63 2331.94 463.63 2379.28 545.63 2331.94"/>
    <polygon id="s86" class="cls-1" points="466.63 2338.6 486.63 2444.6 486.63 2565.6 466.63 2439.6 466.63 2338.6"/>
    <polygon id="_44" data-name="44" class="cls-2" points="695.63 2565.43 695.63 2444.76 591.13 2384.43 486.63 2444.76 486.63 2565.43 591.13 2625.76 695.63 2565.43"/>
    <polygon id="_43" data-name="43" class="cls-2" points="378.63 2552.52 378.63 2456.68 295.63 2408.76 212.63 2456.68 212.63 2552.52 295.63 2600.44 378.63 2552.52"/>
    <polygon id="s96" class="cls-1" points="291.16 2337.6 306.16 2241.6 379.63 2201.6 379.16 2286.6 291.16 2337.6"/>
    <polygon id="_46" data-name="46" class="cls-2" points="466.63 2438.46 466.63 2337.42 379.13 2286.91 291.63 2337.42 291.63 2438.46 379.13 2488.98 466.63 2438.46"/>
    <polygon id="_47" data-name="47" class="cls-2" points="210.63 2268.67 210.63 2170.52 125.63 2121.45 40.63 2170.52 40.63 2268.67 125.63 2317.75 210.63 2268.67"/>
    <polygon id="s81" class="cls-1" points="113.63 2221.6 125.63 2219.6 210.63 2268.6 201.63 2272.6 113.63 2221.6"/>
    <polygon id="_26" data-name="26" class="cls-2" points="456.63 1664.76 456.63 1575.27 379.13 1530.53 301.63 1575.27 301.63 1664.76 379.13 1709.51 456.63 1664.76"/>
    <polygon id="_27" data-name="27" class="cls-2" points="613.63 1670.42 613.63 1579.77 535.13 1534.45 456.63 1579.77 456.63 1670.42 535.13 1715.74 613.63 1670.42"/>
    <polygon id="_28" data-name="28" class="cls-2" points="544.63 1829.52 544.63 1733.68 461.63 1685.76 378.63 1733.68 378.63 1829.52 461.63 1877.44 544.63 1829.52"/>
    <polygon id="_33" data-name="33" class="cls-2" points="299.57 1944.51 299.57 1853.9 221.1 1808.6 142.63 1853.9 142.63 1944.51 221.1 1989.82 299.57 1944.51"/>
    <polygon id="_32" data-name="32" class="cls-2" points="216.63 2097.57 216.63 2004.62 136.13 1958.14 55.63 2004.62 55.63 2097.57 136.13 2144.05 216.63 2097.57"/>
    <polygon id="_41" data-name="41" class="cls-2" points="380.63 2051.52 380.63 1955.68 297.63 1907.76 214.63 1955.68 214.63 2051.52 297.63 2099.44 380.63 2051.52"/>
    <polygon id="s74" class="cls-1" points="544.63 2059.6 535.63 2051.6 612.63 2094.6 626.63 2106.6 544.63 2059.6"/>
    <polygon id="_38" data-name="38" class="cls-2" points="708.63 2133.64 708.63 2039.72 627.29 1992.76 545.95 2039.72 545.95 2133.64 627.29 2180.6 708.63 2133.64"/>
    <polygon id="_40" data-name="40" class="cls-2" points="291.63 2239.19 291.63 2137 203.13 2085.91 114.63 2137 114.63 2239.19 203.13 2290.29 291.63 2239.19"/>
    <polygon id="s71" class="cls-1" points="289.63 2008.6 317.63 1997.6 377.63 2034.6 377.63 2060.6 289.63 2008.6"/>
    <polygon id="s69" class="cls-1" points="590.63 2201.6 566.63 2074.6 466.63 2011.6 485.63 2141.6 590.63 2201.6"/>
    <polygon id="_35" data-name="35" class="cls-2" points="466.16 2011.62 466.16 1910.27 378.39 1859.6 290.63 1910.27 290.63 2011.62 378.39 2062.29 466.16 2011.62"/>
    <polygon id="_34" data-name="34" class="cls-2" points="209.63 1840.88 209.63 1743.31 125.13 1694.52 40.63 1743.31 40.63 1840.88 125.13 1889.67 209.63 1840.88"/>
    <polygon id="s55" class="cls-1" points="466.63 2011.6 485.63 2141.6 485.63 2019.6 466.16 1910.27 466.63 2011.6"/>
    <polygon id="s72" class="cls-1" points="694.63 2139.6 626.63 2129.6 544.63 2176.6 589.63 2199.6 694.63 2139.6"/>
    <polygon id="_31" data-name="31" class="cls-2" points="695.63 2141.22 695.63 2019.97 590.63 1959.35 485.63 2019.97 485.63 2141.22 590.63 2201.84 695.63 2141.22"/>
    <polygon id="s110" class="cls-1" points="566.63 1042.6 565.63 1113.6 580.63 1115.6 580.63 1039.6 566.63 1042.6"/>
    <polygon id="s1" class="cls-1" points="616.63 484.6 616.63 576.6 582.63 649.6 581.63 573.6 616.63 484.6"/>
    <polygon id="_2" data-name="2" class="cls-2" points="774.63 576.21 774.63 484.99 695.63 439.38 616.63 484.99 616.63 576.21 695.63 621.82 774.63 576.21"/>
    <polygon id="s33" class="cls-1" points="681.63 144.6 379.63 319.6 380.63 604.6 463.63 556.6 681.63 144.6"/>
    <polygon id="s32" class="cls-1" points="77.63 145.6 307.63 618.6 380.4 659.6 379.63 319.6 77.63 145.6"/>
    <polygon id="s3" class="cls-1" points="271.63 393.6 164.63 455.6 234.63 659.6 307.63 618.6 271.63 393.6"/>
    <polygon id="s20" class="cls-1" points="589.63 1321.6 519.63 1239.6 586.63 1278.6 695.63 1382.6 589.63 1321.6"/>
    <polygon id="s23" class="cls-1" points="380.63 1222.6 317.63 1257.6 292.63 1331.6 379.63 1280.6 380.63 1222.6"/>
    <polygon id="s50" class="cls-1" points="379.63 1320.6 379.63 1280.6 292.63 1331.6 273.63 1381.6 379.63 1320.6"/>
    <polygon id="s19" class="cls-1" points="545.63 605.6 545.63 696.6 563.63 656.6 563.63 551.6 545.63 605.6"/>
    <polygon id="s18" class="cls-1" points="590.63 591.6 545.63 700.6 463.63 748.6 486.63 652.6 590.63 591.6"/>
    <polygon id="s17" class="cls-1" points="380.63 791.6 379.63 674.6 467.63 724.6 440.63 826.6 380.63 791.6"/>
    <polygon id="s16" class="cls-1" points="380.63 791.6 319.63 827.6 292.63 724.6 379.63 674.6 380.63 791.6"/>
    <polygon id="s15" class="cls-1" points="235.63 744.6 235.63 659.6 210.63 590.6 210.63 685.6 235.63 744.6"/>
    <polygon id="s14" class="cls-1" points="269.63 633.6 319.63 827.6 255.63 791.6 161.63 570.6 269.63 633.6"/>
    <polygon id="s11" class="cls-1" points="290.63 1028.6 290.63 1028.6 201.63 976.6 213.63 985.6 290.63 1028.6"/>
    <polygon id="s10" class="cls-1" points="112.63 1028.6 137.63 1030.6 217.63 985.6 201.63 976.6 112.63 1028.6"/>
    <polygon id="s9" class="cls-1" points="565.63 1113.6 586.63 1118.6 655.63 1158.6 625.63 1151.6 565.63 1113.6"/>
    <polygon id="s8" class="cls-1" points="565.63 1113.6 504.63 1149.6 517.63 1158.6 586.63 1118.6 565.63 1113.6"/>
    <polygon id="s7" class="cls-1" points="504.63 1151.6 503.63 1220.6 517.63 1236.6 517.63 1158.6 504.63 1151.6"/>
    <polygon id="_9" data-name="9" class="cls-2" points="702.85 1117.29 702.85 1042.69 638.24 1005.39 573.63 1042.69 573.63 1117.29 638.24 1154.6 702.85 1117.29"/>
    <polygon id="s48" class="cls-1" points="442.63 1115.6 445.63 1116.6 513.63 1155.6 503.63 1149.6 442.63 1115.6"/>
    <polygon id="s54" class="cls-1" points="683.63 991.6 638.63 1005.6 573.63 1042.6 608.63 1034.6 683.63 991.6"/>
    <polygon id="_10" data-name="10" class="cls-2" points="580.63 1117.07 580.63 1039.13 513.13 1000.15 445.63 1039.13 445.63 1117.07 513.13 1156.04 580.63 1117.07"/>
    <polygon id="s6" class="cls-1" points="468.63 1024.6 479.63 1019.6 380.63 962.6 380.63 973.6 468.63 1024.6"/>
    <polygon id="_5" data-name="5" class="cls-2" points="210.63 688.75 210.63 590.6 125.63 541.52 40.63 590.6 40.63 688.75 125.63 737.82 210.63 688.75"/>
    <polygon id="s43" class="cls-1" points="50.63 760.6 137.63 845.6 213.63 889.31 160.63 823.6 50.63 760.6"/>
    <polygon id="s53" class="cls-1" points="56.63 984.6 137.63 1030.6 192.63 1042.6 131.63 1009.6 56.63 984.6"/>
    <polygon id="_14" data-name="14" class="cls-2" points="217.63 984.6 217.63 891.62 137.13 845.14 56.63 891.62 56.63 984.57 137.13 1031.05 217.63 984.6"/>
    <polygon id="s29" class="cls-1" points="192.63 1329.1 137.63 1405.6 56.63 1452.6 131.63 1363.6 192.63 1329.1"/>
    <polygon id="s104" class="cls-1" points="256.63 1854.6 301.63 1724.6 379.63 1679.6 378.63 1783.6 256.63 1854.6"/>
    <polygon id="_23" data-name="23" class="cls-2" points="218.3 1545.61 218.3 1452.27 137.46 1405.6 56.63 1452.27 56.63 1545.61 137.46 1592.28 218.3 1545.61"/>
    <polygon id="s27" class="cls-1" points="256.63 1364.6 256.63 1435.6 218.63 1545.6 218.63 1452.6 256.63 1364.6"/>
    <polygon id="s28" class="cls-1" points="192.63 1328.6 256.63 1364.6 218.63 1452.6 137.63 1405.6 192.63 1328.6"/>
    <polygon id="_19" data-name="19" class="cls-2" points="297.17 1412.96 297.17 1317.38 214.4 1269.6 131.63 1317.38 131.63 1412.96 214.4 1460.75 297.17 1412.96"/>
    <polygon id="s26" class="cls-1" points="3.63 1187.6 131.63 1149.6 192.63 1114.6 98.63 1132.6 3.63 1187.6"/>
    <polygon id="_15" data-name="15" class="cls-2" points="290.63 1131.19 290.63 1028.39 201.59 976.98 112.56 1028.39 112.56 1131.19 201.59 1182.6 290.63 1131.19"/>
    <polygon id="s12" class="cls-1" points="380.63 982.6 380.63 962.6 280.63 1019.6 296.63 1030.6 380.63 982.6"/>
    <polygon id="s42" class="cls-1" points="532.63 991.6 513.13 1000.15 580.63 1039.6 608.63 1035.6 532.63 991.6"/>
    <polygon id="_8" data-name="8" class="cls-2" points="684.63 991.48 684.63 903.72 608.63 859.84 532.63 903.72 532.63 991.48 608.63 1035.35 684.63 991.48"/>
    <polygon id="s2" class="cls-1" points="563.63 551.6 655.63 498.6 566.63 684.6 504.63 719.6 563.63 551.6"/>
    <polygon id="_6" data-name="6" class="cls-2" points="545.83 700.67 545.83 605.29 463.23 557.6 380.63 605.29 380.63 700.67 463.23 748.36 545.83 700.67"/>
    <polygon id="s45" class="cls-1" points="291.63 822.6 297.63 837.6 380.63 886.12 380.13 874.6 291.63 822.6"/>
    <polygon id="s100" class="cls-1" points="555.63 975.6 468.63 1026.6 445.63 1039.6 513.63 1000.6 555.63 975.6"/>
    <polygon id="s49" class="cls-1" points="479.63 1137.6 471.63 1138.6 379.62 1187.6 380.13 1191.6 479.63 1137.6"/>
    <polygon id="s4" class="cls-1" points="467.63 724.6 485.63 655.6 486.63 773.6 468.63 824.6 467.63 724.6"/>
    <polygon id="s25" class="cls-1" points="380.63 1191.6 280.63 1134.6 273.63 1137.6 379.63 1198.6 380.63 1191.6"/>
    <polygon id="_17" data-name="17" class="cls-2" points="655.63 1238.51 655.63 1158.84 586.63 1119 517.63 1158.84 517.63 1238.51 586.63 1278.35 655.63 1238.51"/>
    <polygon id="s34" class="cls-1" points="746.63 656.6 705.63 703.6 695.63 709.75 695.63 686.37 746.63 656.6"/>
    <polygon id="_3" data-name="3" class="cls-2" points="271.63 393.16 271.63 269.03 164.13 206.97 56.63 269.03 56.63 393.16 164.13 455.23 271.63 393.16"/>
    <polygon id="_4" data-name="4" class="cls-2" points="746.63 656.92 746.63 551.27 655.13 498.44 563.63 551.27 563.63 656.92 655.13 709.75 746.63 656.92"/>
    <polygon id="s107" class="cls-1" points="695.63 1503.6 566.63 1330.6 503.63 1367.6 590.63 1564.6 695.63 1503.6"/>
    <polygon id="s106" class="cls-1" points="484.63 1503.6 590.63 1564.6 503.63 1360.6 442.63 1326.6 467.8 1432.6 484.63 1503.6"/>
    <polygon id="s21" class="cls-1" points="503.63 1220.6 442.63 1256.6 484.63 1382.6 589.63 1321.6 503.63 1220.6"/>
    <polygon id="s30" class="cls-1" points="442.63 1256.6 442.63 1330.6 484.63 1503.6 484.63 1382.6 442.63 1256.6"/>
    <polygon id="s22" class="cls-1" points="442.63 1256.6 380.63 1222.6 379.63 1280.6 467.63 1331.6 442.63 1256.6"/>
    <polygon id="_24" data-name="24" class="cls-2" points="695.63 1504.01 695.63 1382.19 590.13 1321.28 484.63 1382.19 484.63 1504.01 590.13 1564.92 695.63 1504.01"/>
    <polygon id="s31" class="cls-1" points="201.63 1179.6 192.63 1187.6 98.63 1132.6 112.63 1131.6 201.63 1179.6"/>
    <polygon id="s102" class="cls-1" points="3.63 1296.6 133.63 1317.6 133.63 1331.6 97.63 1351.6 3.63 1296.6"/>
    <polygon id="_21" data-name="21" class="cls-2" points="192.63 1296.66 192.63 1187.54 98.13 1132.98 3.63 1187.54 3.63 1296.66 98.13 1351.22 192.63 1296.66"/>
    <polygon id="s64" class="cls-1" points="98.63 1351.6 192.63 1296.6 211.61 1270.6 131.63 1318.6 98.63 1351.6"/>
    <polygon id="s24" class="cls-1" points="280.63 1134.6 201.63 1182.6 168.63 1198.6 274.63 1139.6 280.63 1134.6"/>
    <polygon id="s47" class="cls-1" points="486.63 773.6 590.63 833.6 555.63 874.6 467.63 826.6 486.63 773.6"/>
    <polygon id="s46" class="cls-1" points="695.63 773.6 590.63 833.6 555.63 874.6 555.96 890.25 608.63 859.6 695.63 773.6"/>
    <polygon id="s44" class="cls-1" points="160.63 823.6 213.63 886.6 297.63 837.6 269.63 760.6 160.63 823.6"/>
    <polygon id="s5" class="cls-1" points="292.63 823.6 269.63 760.6 269.63 633.6 292.63 724.6 292.63 823.6"/>
    <polygon id="s37" class="cls-1" points="111.63 1647.6 137.63 1592.6 218.63 1545.6 201.63 1595.6 111.63 1647.6"/>
    <polygon id="s108" class="cls-1" points="201.63 1802.6 209.63 1743.6 291.63 1687.6 290.63 1750.6 201.63 1802.6"/>
    <polygon id="_29" data-name="29" class="cls-2" points="290.63 1750.77 290.63 1647.42 201.13 1595.75 111.63 1647.42 111.63 1750.77 201.13 1802.44 290.63 1750.77"/>
    <polygon id="s38" class="cls-1" points="297.63 1412.6 214.63 1460.6 133.63 1642.6 256.63 1573.6 297.63 1412.6"/>
    <polygon id="s105" class="cls-1" points="442.63 1330.6 378.63 1365.6 379.63 1483.6 467.63 1434.6 442.63 1330.6"/>
    <polygon id="_22" data-name="22" class="cls-2" points="467.63 1432.62 467.63 1331.58 380.13 1281.06 292.63 1331.58 292.63 1432.62 380.13 1483.13 467.63 1432.62"/>
    <polygon id="s103" class="cls-1" points="290.63 1647.6 290.63 1750.6 301.63 1662.6 301.63 1564.6 290.63 1647.6"/>
    <polygon id="s65" class="cls-1" points="201.63 1179.6 201.63 1283.6 192.63 1295.6 192.63 1186.6 201.63 1179.6"/>
    <polygon id="s101" class="cls-1" points="168.63 1320.6 214.63 1269.6 297.63 1317.6 273.63 1381.6 168.63 1320.6"/>
    <polygon id="s99" class="cls-1" points="210.63 590.6 164.63 455.6 56.63 393.6 125.63 541.6 210.63 590.6"/>
    <polygon id="_20" data-name="20" class="cls-2" points="379.62 1320.6 379.62 1198.6 273.96 1137.6 168.31 1198.6 168.31 1320.6 273.96 1381.6 379.62 1320.6"/>
    <polygon id="_30" data-name="30" class="cls-2" points="378.63 1783.82 378.63 1642.37 256.13 1571.65 133.63 1642.37 133.63 1783.82 256.13 1854.55 378.63 1783.82"/>
    <polygon id="s98" class="cls-1" points="271.63 268.6 307.63 541.6 307.63 618.6 271.63 393.6 271.63 268.6"/>
    <polygon id="_1" data-name="1" class="cls-3" points="379.4 319.6 77.18 145.11 77.63 -204.4 379.63 -379.4 681.63 -204.4 681.63 145.11 379.4 319.6"/>
    <polygon id="_13" data-name="13" class="cls-2" points="380.63 982.54 380.63 886.12 297.13 837.91 213.63 886.12 213.63 982.54 297.13 1030.75 380.63 982.54"/>
    <polygon id="_12" data-name="12" class="cls-2" points="467.63 824.08 467.63 723.04 380.13 672.52 292.63 723.04 292.63 824.08 380.13 874.6 467.63 824.08"/>
    <polygon id="_11" data-name="11" class="cls-2" points="555.96 973.98 555.96 872.75 468.29 822.14 380.63 872.75 380.63 973.98 468.29 1024.6 555.96 973.98"/>
    <polygon id="s95" class="cls-1" points="300.63 2373.6 296.63 2408.6 213.63 2456.6 221.63 2418.6 300.63 2373.6"/>
    <polygon id="_45" data-name="45" class="cls-2" points="300.63 2373.42 300.63 2282.77 222.13 2237.45 143.63 2282.77 143.63 2373.42 222.13 2418.74 300.63 2373.42"/>
    <polygon id="xx05" class="cls-1" points="203.63 2085.6 214.63 2051.6 297.63 2099.6 291.63 2136.6 203.63 2085.6"/>
    <polygon id="xx01" class="cls-1" points="467.63 2488.6 442.63 2457.6 379.63 2493.6 379.63 2538.98 467.63 2488.6"/>
    <polygon id="xx02" class="cls-1" points="467.63 2389.6 462.63 2378.6 380.63 2330.6 381.63 2339.77 467.63 2389.6"/>
    <polygon id="xx03" class="cls-1" points="463.63 2188.6 457.63 2169.6 536.63 2215.6 545.63 2236.6 463.63 2188.6"/>
    <polygon id="xx04" class="cls-1" points="457.63 2168.6 463.63 2188.6 380.63 2236.6 380.63 2212.6 457.63 2168.6"/>
    <polygon id="xxx07" class="cls-1" points="518.63 1964.6 536.63 2021.6 459.63 2066.6 448.63 2005.6 518.63 1964.6"/>
    <polygon id="xxx06" class="cls-1" points="380.63 1964.6 380.63 2012.6 457.63 2056.6 448.63 2005.6 380.63 1964.6"/>
    <polygon id="yy1" class="cls-1" points="317.63 1823.6 258.63 1859.6 215.63 1960.6 294.46 1915.1 317.63 1823.6"/>
    <polygon id="yy2" class="cls-1" points="136.63 1964.6 193.63 1825.6 258.63 1859.6 215.63 2010.6 136.63 1964.6"/>
    <polygon id="yy3" class="cls-1" points="55.63 2010.6 132.63 1859.6 193.63 1825.6 136.63 1964.6 55.63 2010.6"/>
    <polygon id="yy4" class="cls-1" points="220.63 2035.6 203.63 2091.6 114.63 2142.6 136.63 2085.6 220.63 2035.6"/>
    <polygon id="yy5" class="cls-1" points="193.63 2040.6 132.63 2075.6 40.63 2260.6 125.63 2211.6 193.63 2040.6"/>
    <polygon id="_7" data-name="7" class="cls-2" points="695.63 773.13 695.63 652.21 590.9 591.75 486.18 652.21 486.18 773.13 590.9 833.6 695.63 773.13"/>
    <polygon id="_18" data-name="18" class="cls-2" points="269.63 760.39 269.63 633.95 160.13 570.73 50.63 633.95 50.63 760.39 160.13 823.61 269.63 760.39"/>
    <polygon id="_16" data-name="16" class="cls-2" points="479.63 1138.54 479.63 1023.65 380.13 966.2 280.63 1023.65 280.63 1138.54 380.13 1195.99 479.63 1138.54"/>
    <polygon id="s51" class="cls-1" points="378.63 1642.6 255.63 1571.6 292.63 1417.6 380.63 1468.6 378.63 1642.6"/>
    <polygon id="c1" class="cls-3" points="381.15 3292.6 123.18 3143.66 123.56 2845.32 381.34 2695.94 639.13 2845.32 639.13 3143.66 381.15 3292.6"/>
    <polygon id="bee2" class="cls-4" points="478.73 1102.69 488.31 1101.95 492.73 1089.42 494.2 1101.95 506 1105.64 494.94 1107.85 488.31 1118.17 490.79 1108.35 478.73 1102.69"/>
    <polygon id="k01" class="cls-1" points="381.63 2557.6 381.63 2695.6 639.63 2845.6 537.63 2562.6 458.63 2512.6 381.63 2557.6"/>
    <polygon id="k02" class="cls-1" points="304.63 2512.6 201.63 2657.6 123.63 2845.6 381.63 2695.6 381.63 2557.6 304.63 2512.6"/>
  </g>
</svg>
