<svg xmlns="http://www.w3.org/2000/svg" width="760" height="3000" viewBox="0 0 760 3000">
  <defs>
    <style>
      .cls-1 {
        fill: #f2f2f2;
      }

      .cls-1, .cls-2, .cls-3, .cls-4 {
        stroke: #000;
        stroke-miterlimit: 10;
      }

      .cls-2, .cls-3 {
        fill: #fff;
      }

      .cls-3 {
        stroke-width: 2px;
      }
    </style>
  </defs>
  <title>aartics_polygons_vertical</title>
  <g id="_05stage" data-name="05stage">
    <polygon id="s63" class="cls-1" points="567.49 1538.49 627.49 1572.49 655.49 1557.49 587.49 1517.49 567.49 1538.49"/>
    <polygon id="_25" data-name="25" class="cls-2" points="655.9 1636.49 655.9 1557.16 587.19 1517.49 518.49 1557.16 518.49 1636.49 587.19 1676.16 655.9 1636.49"/>
    <polygon id="s41" class="cls-1" points="519.49 1393.49 451.49 1436.49 456.49 1399.49 535.49 1354.49 519.49 1393.49"/>
    <polygon id="s88" class="cls-1" points="467.49 2374.49 467.49 2273.49 487.49 2380.49 487.49 2501.49 467.49 2374.49"/>
    <polygon id="s40" class="cls-1" points="379.49 1358.49 456.49 1403.49 449.49 1437.49 380.49 1398.49 379.49 1358.49"/>
    <polygon id="s52" class="cls-1" points="519.49 1393.49 590.49 1433.49 613.49 1399.49 535.49 1354.49 519.49 1393.49"/>
    <polygon id="s60" class="cls-1" points="299.49 1671.49 306.49 1676.49 234.49 1633.49 220.49 1625.49 299.49 1671.49"/>
    <polygon id="s62" class="cls-1" points="125.48 1471.49 192.49 1537.49 130.49 1576.49 42.48 1519.49 125.48 1471.49"/>
    <polygon id="s59" class="cls-1" points="378.49 1613.49 290.49 1665.49 306.49 1676.49 378.49 1633.49 378.49 1613.49"/>
    <polygon id="s61" class="cls-1" points="234.49 1550.49 234.49 1633.49 220.49 1625.49 209.49 1617.49 209.49 1520.49 234.49 1550.49"/>
    <polygon id="s57" class="cls-1" points="518.49 1636.49 587.49 1676.49 695.49 1652.49 590.49 1592.49 518.49 1636.49"/>
    <polygon id="s56" class="cls-1" points="461.49 1668.49 544.49 1620.49 590.49 1592.49 485.49 1652.49 461.49 1668.49"/>
    <polygon id="s94" class="cls-1" points="195.49 2187.49 134.49 2222.49 57.48 2368.49 137.49 2322.49 195.49 2187.49"/>
    <polygon id="_42" data-name="42" class="cls-2" points="218.49 2461.47 218.49 2368.51 137.99 2322.03 57.48 2368.51 57.48 2461.47 137.99 2507.94 218.49 2461.47"/>
    <polygon id="_50" data-name="50" class="cls-2" points="615.49 2521.6 615.49 2431.52 537.48 2386.49 459.48 2431.52 459.48 2521.6 537.48 2566.63 615.49 2521.6"/>
    <polygon id="_49" data-name="49" class="cls-2" points="458.49 2512.94 458.49 2424.03 381.49 2379.58 304.49 2424.03 304.49 2512.94 381.49 2557.4 458.49 2512.94"/>
    <polygon id="_48" data-name="48" class="cls-2" points="291.49 2605.66 291.49 2502.32 201.99 2450.64 112.48 2502.32 112.48 2605.66 201.99 2657.33 291.49 2605.66"/>
    <polygon id="_51" data-name="51" class="cls-2" points="709.49 2475.04 709.49 2380.93 627.99 2333.88 546.49 2380.93 546.49 2475.04 627.99 2522.1 709.49 2475.04"/>
    <polygon id="s87" class="cls-1" points="442.49 2182.49 504.49 2222.49 592.49 2561.49 487.49 2501.49 442.49 2182.49"/>
    <polygon id="s90" class="cls-1" points="504.49 2294.49 537.49 2386.49 459.49 2431.49 442.49 2331.49 504.49 2294.49"/>
    <polygon id="s92" class="cls-1" points="504.49 2077.49 592.49 2320.49 696.49 2382.49 567.49 2111.49 504.49 2077.49"/>
    <polygon id="s91" class="cls-1" points="441.49 2112.49 487.49 2380.49 591.49 2320.49 504.49 2077.49 441.49 2112.49"/>
    <polygon id="s89" class="cls-1" points="442.49 2331.49 458.49 2424.49 381.49 2379.49 380.49 2294.49 442.49 2331.49"/>
    <polygon id="s85" class="cls-1" points="138.49 2447.49 112.48 2502.49 202.49 2450.49 218.49 2401.49 138.49 2447.49"/>
    <polygon id="s84" class="cls-1" points="211.49 2205.49 221.49 2173.49 143.49 2218.49 126.48 2254.49 211.49 2205.49"/>
    <polygon id="s82" class="cls-1" points="291.49 2075.49 304.49 2028.49 235.49 2057.49 203.49 2126.49 291.49 2075.49"/>
    <polygon id="s80" class="cls-1" points="304.49 2028.49 380.49 2072.49 381.49 2049.49 310.49 2010.49 304.49 2028.49"/>
    <polygon id="s79" class="cls-1" points="291.49 1972.49 304.49 1939.49 304.49 2028.49 291.49 2075.49 291.49 1972.49"/>
    <polygon id="s78" class="cls-1" points="380.49 1908.49 380.49 1895.49 304.49 1939.49 297.49 1956.49 380.49 1908.49"/>
    <polygon id="s77" class="cls-1" points="55.48 1901.49 135.49 1947.49 193.49 1895.49 131.49 1862.49 55.48 1901.49"/>
    <polygon id="s76" class="cls-1" points="613.49 2030.49 566.49 1972.49 504.49 2008.49 536.49 2075.49 613.49 2030.49"/>
    <polygon id="s75" class="cls-1" points="708.49 1905.49 627.49 1865.49 566.49 1901.49 627.49 1952.49 708.49 1905.49"/>
    <polygon id="s73" class="cls-1" points="545.49 1811.49 518.49 1797.49 518.49 1875.49 545.49 1905.49 545.49 1811.49"/>
    <polygon id="s70" class="cls-1" points="466.49 1765.49 442.49 1753.49 380.49 1790.49 378.49 1816.49 466.49 1765.49"/>
    <polygon id="s68" class="cls-1" points="457.49 1939.49 459.49 1942.49 459.49 2030.49 457.49 2028.49 457.49 1939.49"/>
    <polygon id="s66" class="cls-1" points="296.49 2466.49 291.49 2502.49 202.49 2450.49 213.49 2418.49 296.49 2466.49"/>
    <polygon id="s67" class="cls-1" points="304.49 2512.49 291.49 2605.49 291.49 2514.49 304.49 2424.49 304.49 2512.49"/>
    <polygon id="s97" class="cls-1" points="235.49 2137.49 222.49 2173.49 300.49 2218.49 307.49 2177.49 235.49 2137.49"/>
    <polygon id="s95" class="cls-1" points="300.49 2309.49 296.49 2344.49 213.49 2392.49 221.49 2354.49 300.49 2309.49"/>
    <polygon id="s93" class="cls-1" points="221.49 2354.49 218.49 2368.49 137.49 2322.49 143.49 2309.31 221.49 2354.49"/>
    <polygon id="s58" class="cls-1" points="461.49 1668.49 466.49 1664.49 378.49 1613.49 378.49 1621.49 461.49 1668.49"/>
    <polygon id="s35" class="cls-1" points="456.49 1492.49 461.49 1476.49 378.49 1524.49 378.49 1538.49 456.49 1492.49"/>
    <polygon id="s36" class="cls-1" points="460.49 1491.49 534.49 1535.49 544.49 1524.49 461.49 1476.49 460.49 1491.49"/>
    <polygon id="s83" class="cls-1" points="211.49 2106.49 235.49 2057.49 235.49 2137.49 211.49 2204.49 211.49 2106.49"/>
    <polygon id="_45" data-name="45" class="cls-2" points="300.49 2309.31 300.49 2218.67 221.99 2173.34 143.49 2218.67 143.49 2309.31 221.99 2354.63 300.49 2309.31"/>
    <polygon id="_39" data-name="39" class="cls-2" points="457.49 2028.3 457.49 1939.92 380.95 1895.73 304.41 1939.92 304.41 2028.3 380.95 2072.49 457.49 2028.3"/>
    <polygon id="_37" data-name="37" class="cls-2" points="613.49 2030.94 613.49 1942.03 536.49 1897.58 459.49 1942.03 459.49 2030.94 536.49 2075.4 613.49 2030.94"/>
    <polygon id="_36" data-name="36" class="cls-2" points="545.49 2191.83 545.49 2097.14 463.49 2049.8 381.49 2097.14 381.49 2191.83 463.49 2239.17 545.49 2191.83"/>
    <polygon id="s86" class="cls-1" points="467.49 2273.49 487.49 2380.49 487.49 2501.49 467.49 2374.49 467.49 2273.49"/>
    <polygon id="_44" data-name="44" class="cls-2" points="696.49 2501.32 696.49 2380.66 591.99 2320.32 487.49 2380.66 487.49 2501.32 591.99 2561.65 696.49 2501.32"/>
    <polygon id="_43" data-name="43" class="cls-2" points="379.49 2488.41 379.49 2392.57 296.49 2344.65 213.49 2392.57 213.49 2488.41 296.49 2536.33 379.49 2488.41"/>
    <polygon id="s96" class="cls-1" points="292.02 2273.49 307.02 2177.49 380.49 2137.49 380.02 2222.49 292.02 2273.49"/>
    <polygon id="_46" data-name="46" class="cls-2" points="467.49 2374.35 467.49 2273.32 379.99 2222.8 292.49 2273.32 292.49 2374.35 379.99 2424.87 467.49 2374.35"/>
    <polygon id="_47" data-name="47" class="cls-2" points="211.49 2204.56 211.49 2106.41 126.48 2057.34 41.48 2106.41 41.48 2204.56 126.48 2253.64 211.49 2204.56"/>
    <polygon id="s81" class="cls-1" points="114.48 2075.49 126.48 2057.49 211.49 2106.49 202.49 2126.49 114.48 2075.49"/>
    <polygon id="_26" data-name="26" class="cls-2" points="456.49 1492.65 456.49 1403.17 378.99 1358.42 301.49 1403.17 301.49 1492.65 378.99 1537.4 456.49 1492.65"/>
    <polygon id="_27" data-name="27" class="cls-2" points="613.49 1490.31 613.49 1399.67 534.99 1354.34 456.49 1399.67 456.49 1490.31 534.99 1535.63 613.49 1490.31"/>
    <polygon id="_28" data-name="28" class="cls-2" points="544.49 1620.41 544.49 1524.57 461.49 1476.65 378.49 1524.57 378.49 1620.41 461.49 1668.33 544.49 1620.41"/>
    <polygon id="_33" data-name="33" class="cls-2" points="299.43 1761.4 299.43 1670.79 220.96 1625.49 142.49 1670.79 142.49 1761.4 220.96 1806.71 299.43 1761.4"/>
    <polygon id="_32" data-name="32" class="cls-2" points="216.49 1901.46 216.49 1808.51 135.99 1762.04 55.48 1808.51 55.48 1901.46 135.99 1947.94 216.49 1901.46"/>
    <polygon id="_41" data-name="41" class="cls-2" points="380.49 1908.41 380.49 1812.57 297.49 1764.65 214.49 1812.57 214.49 1908.41 297.49 1956.33 380.49 1908.41"/>
    <polygon id="s74" class="cls-1" points="545.49 1905.49 536.49 1897.49 613.49 1940.49 627.49 1952.49 545.49 1905.49"/>
    <polygon id="_38" data-name="38" class="cls-2" points="708.49 1905.53 708.49 1811.61 627.15 1764.65 545.81 1811.61 545.81 1905.53 627.15 1952.49 708.49 1905.53"/>
    <polygon id="_40" data-name="40" class="cls-2" points="291.49 2075.08 291.49 1972.89 202.99 1921.8 114.48 1972.89 114.48 2075.08 202.99 2126.18 291.49 2075.08"/>
    <polygon id="s71" class="cls-1" points="290.49 1764.49 318.49 1753.49 378.49 1790.49 378.49 1816.49 290.49 1764.49"/>
    <polygon id="s69" class="cls-1" points="590.49 1834.49 518.49 1797.49 448.49 1755.49 485.49 1774.49 590.49 1834.49"/>
    <polygon id="_35" data-name="35" class="cls-2" points="466.02 1765.51 466.02 1664.16 378.25 1613.49 290.49 1664.16 290.49 1765.51 378.25 1816.18 466.02 1765.51"/>
    <polygon id="_34" data-name="34" class="cls-2" points="209.49 1617.77 209.49 1520.2 124.98 1471.42 40.48 1520.2 40.48 1617.77 124.98 1666.56 209.49 1617.77"/>
    <polygon id="s55" class="cls-1" points="466.49 1765.49 485.49 1774.49 485.49 1652.49 466.02 1664.49 466.49 1765.49"/>
    <polygon id="s72" class="cls-1" points="695.49 1774.49 627.49 1764.49 545.49 1811.49 590.49 1834.49 695.49 1774.49"/>
    <polygon id="_31" data-name="31" class="cls-2" points="695.49 1774.11 695.49 1652.87 590.49 1592.24 485.49 1652.87 485.49 1774.11 590.49 1834.73 695.49 1774.11"/>
    <polygon id="s110" class="cls-1" points="566.49 1035.49 565.49 1100.49 573.49 1101.49 572.49 1028.49 566.49 1035.49"/>
    <polygon id="s1" class="cls-1" points="612.49 286.49 612.49 378.49 578.49 451.49 577.49 375.49 612.49 286.49"/>
    <polygon id="_2" data-name="2" class="cls-2" points="774.49 376.1 774.49 284.88 695.49 239.27 616.49 284.88 616.49 376.1 695.49 421.71 774.49 376.1"/>
    <polygon id="s33" class="cls-1" points="681.49 147.49 379.49 321.49 380.49 562.49 463.49 513.49 681.49 147.49"/>
    <polygon id="s32" class="cls-1" points="77.48 147.49 307.49 578.49 379.49 617.49 379.49 321.49 77.48 147.49"/>
    <polygon id="s3" class="cls-1" points="271.49 393.49 164.49 455.49 234.49 659.49 307.49 618.49 271.49 393.49"/>
    <polygon id="s20" class="cls-1" points="589.49 1019.49 503.49 1220.49 566.49 1253.49 695.49 1080.49 589.49 1019.49"/>
    <polygon id="s23" class="cls-1" points="380.49 1222.49 317.49 1257.49 292.49 1150.49 379.49 1099.49 380.49 1222.49"/>
    <polygon id="s50" class="cls-1" points="379.49 1017.49 379.49 1099.49 292.49 1150.49 273.49 1078.49 379.49 1017.49"/>
    <polygon id="s19" class="cls-1" points="544.49 470.49 544.49 560.49 562.49 453.49 562.49 348.49 544.49 470.49"/>
    <polygon id="s18" class="cls-1" points="590.49 441.49 553.49 578.49 467.49 628.49 486.49 502.49 590.49 441.49"/>
    <polygon id="s17" class="cls-1" points="380.49 695.49 379.49 578.49 467.49 628.49 440.49 730.49 380.49 695.49"/>
    <polygon id="s16" class="cls-1" points="380.49 695.49 319.49 731.49 292.49 628.49 379.49 578.49 380.49 695.49"/>
    <polygon id="s15" class="cls-1" points="235.49 744.49 235.49 659.49 210.49 590.49 210.49 685.49 235.49 744.49"/>
    <polygon id="s14" class="cls-1" points="269.49 463.49 319.49 731.49 255.49 699.49 161.49 400.49 269.49 463.49"/>
    <polygon id="s9" class="cls-1" points="565.49 1108.49 586.49 1068.49 655.49 1108.49 628.49 1144.49 565.49 1108.49"/>
    <polygon id="s8" class="cls-1" points="565.49 1108.49 503.49 1144.49 517.49 1108.49 586.49 1068.49 565.49 1108.49"/>
    <polygon id="s7" class="cls-1" points="503.49 1144.49 503.49 1220.49 517.49 1188.49 517.49 1108.49 503.49 1144.49"/>
    <polygon id="_9" data-name="9" class="cls-2" points="702.71 1095.19 702.71 1020.58 638.1 983.28 573.49 1020.58 573.49 1095.19 638.1 1132.49 702.71 1095.19"/>
    <polygon id="s48" class="cls-1" points="442.49 1108.49 445.49 1081.49 513.49 1120.49 503.49 1144.49 442.49 1108.49"/>
    <polygon id="s54" class="cls-1" points="683.49 886.49 638.49 989.49 573.49 1026.49 608.49 930.49 683.49 886.49"/>
    <polygon id="_10" data-name="10" class="cls-2" points="580.49 1081.96 580.49 1004.02 512.99 965.05 445.49 1004.02 445.49 1081.96 512.99 1120.93 580.49 1081.96"/>
    <polygon id="_5" data-name="5" class="cls-2" points="210.49 484.64 210.49 386.49 125.48 337.42 40.48 386.49 40.48 484.64 125.48 533.72 210.49 484.64"/>
    <polygon id="s43" class="cls-1" points="50.48 590.49 136.49 777.49 217.49 823.49 160.49 653.49 50.48 590.49"/>
    <polygon id="s53" class="cls-1" points="56.48 853.49 137.49 899.49 192.49 1037.49 131.49 1004.49 56.48 853.49"/>
    <polygon id="_14" data-name="14" class="cls-2" points="217.49 851.49 217.49 758.51 136.99 712.03 56.48 758.51 56.48 851.47 136.99 897.94 217.49 851.49"/>
    <polygon id="_13" data-name="13" class="cls-2" points="380.49 804.43 380.49 708.01 296.99 659.8 213.49 708.01 213.49 804.43 296.99 852.64 380.49 804.43"/>
    <polygon id="s29" class="cls-1" points="192.49 1328.99 137.49 1271.49 56.48 1318.49 131.49 1363.49 192.49 1328.99"/>
    <polygon id="_23" data-name="23" class="cls-2" points="218.16 1411.5 218.16 1318.16 137.32 1271.49 56.48 1318.16 56.48 1411.5 137.32 1458.17 218.16 1411.5"/>
    <polygon id="s27" class="cls-1" points="256.49 1364.49 255.49 1434.49 218.49 1409.49 218.49 1318.49 256.49 1364.49"/>
    <polygon id="s28" class="cls-1" points="192.49 1328.49 256.49 1364.49 218.49 1318.49 137.49 1271.49 192.49 1328.49"/>
    <polygon id="_19" data-name="19" class="cls-2" points="297.02 1266.85 297.02 1171.28 214.25 1123.49 131.49 1171.28 131.49 1266.85 214.25 1314.64 297.02 1266.85"/>
    <polygon id="s26" class="cls-1" points="3.48 961.49 131.49 1147.49 192.49 1109.49 98.48 909.49 3.48 961.49"/>
    <polygon id="_15" data-name="15" class="cls-2" points="290.49 928.09 290.49 825.28 201.45 773.87 112.42 825.28 112.42 928.09 201.45 979.49 290.49 928.09"/>
    <polygon id="s42" class="cls-1" points="532.49 886.49 512.99 964.49 580.49 1003.49 608.49 930.49 532.49 886.49"/>
    <polygon id="_8" data-name="8" class="cls-2" points="684.49 886.37 684.49 798.61 608.49 754.73 532.49 798.61 532.49 886.37 608.49 930.25 684.49 886.37"/>
    <polygon id="s2" class="cls-1" points="562.49 348.49 654.49 295.49 565.49 453.49 548.49 438.49 562.49 348.49"/>
    <polygon id="_6" data-name="6" class="cls-2" points="545.69 609.56 545.69 514.18 463.09 466.49 380.49 514.18 380.49 609.56 463.09 657.25 545.69 609.56"/>
    <polygon id="s45" class="cls-1" points="292.49 730.49 297.49 757.49 379.49 804.49 379.99 780.49 292.49 730.49"/>
    <polygon id="_12" data-name="12" class="cls-2" points="467.49 729.97 467.49 628.93 379.99 578.42 292.49 628.93 292.49 729.97 379.99 780.49 467.49 729.97"/>
    <polygon id="_11" data-name="11" class="cls-2" points="555.82 797.87 555.82 696.64 468.15 646.03 380.49 696.64 380.49 797.87 468.15 848.49 555.82 797.87"/>
    <polygon id="s100" class="cls-1" points="555.49 795.49 468.49 845.49 445.49 1004.49 512.49 965.49 555.49 795.49"/>
    <polygon id="s49" class="cls-1" points="479.49 876.49 441.49 1108.49 379.48 1144.49 379.99 933.49 479.49 876.49"/>
    <polygon id="s4" class="cls-1" points="467.49 628.49 485.49 503.49 486.49 621.49 468.49 730.49 467.49 628.49"/>
    <polygon id="_17" data-name="17" class="cls-2" points="655.49 1188.4 655.49 1108.73 586.49 1068.89 517.49 1108.73 517.49 1188.4 586.49 1228.24 655.49 1188.4"/>
    <polygon id="s34" class="cls-1" points="745.49 453.49 696.49 512.49 695.49 501.49 678.49 492.49 745.49 453.49"/>
    <polygon id="_3" data-name="3" class="cls-2" points="271.49 393.05 271.49 268.92 163.99 206.86 56.48 268.92 56.48 393.05 163.99 455.12 271.49 393.05"/>
    <polygon id="_4" data-name="4" class="cls-2" points="745.49 453.82 745.49 348.16 653.99 295.33 562.49 348.16 562.49 453.82 653.99 506.64 745.49 453.82"/>
    <polygon id="s107" class="cls-1" points="695.49 1141.49 566.49 1264.49 503.49 1300.49 590.49 1201.49 695.49 1141.49"/>
    <polygon id="s106" class="cls-1" points="484.49 1141.49 590.49 1201.49 503.49 1300.49 442.49 1266.49 467.66 1191.55 484.49 1141.49"/>
    <polygon id="s65" class="cls-1" points="201.49 967.49 201.49 1072.73 192.49 1065.49 192.49 956.49 201.49 967.49"/>
    <polygon id="s21" class="cls-1" points="503.49 1220.49 442.49 1256.49 484.49 1076.49 589.49 1015.49 503.49 1220.49"/>
    <polygon id="s30" class="cls-1" points="467.49 1090.49 467.49 1191.49 484.49 1140.49 484.49 1016.49 467.49 1090.49"/>
    <polygon id="s22" class="cls-1" points="442.49 1256.49 380.49 1222.49 379.49 1099.49 467.49 1150.49 442.49 1256.49"/>
    <polygon id="_24" data-name="24" class="cls-2" points="695.49 1140.9 695.49 1019.08 589.99 958.17 484.49 1019.08 484.49 1140.9 589.99 1201.81 695.49 1140.9"/>
    <polygon id="s102" class="cls-1" points="3.48 1070.49 133.49 1221.49 133.49 1170.49 97.48 1125.49 3.48 1070.49"/>
    <polygon id="_21" data-name="21" class="cls-2" points="192.49 1070.55 192.49 961.43 97.98 906.87 3.48 961.43 3.48 1070.55 97.98 1125.11 192.49 1070.55"/>
    <polygon id="s64" class="cls-1" points="97.48 1125.49 192.49 1070.49 214.49 1122.49 133.49 1170.49 97.48 1125.49"/>
    <polygon id="s47" class="cls-1" points="486.49 621.49 590.49 683.49 555.49 778.49 467.49 729.49 486.49 621.49"/>
    <polygon id="s46" class="cls-1" points="695.49 623.49 590.49 683.49 555.49 780.49 555.82 837.14 608.49 806.49 695.49 623.49"/>
    <polygon id="s44" class="cls-1" points="160.49 653.49 213.49 804.49 297.49 757.49 269.49 590.49 160.49 653.49"/>
    <polygon id="s5" class="cls-1" points="292.49 730.49 269.49 590.49 269.49 463.49 292.49 628.49 292.49 730.49"/>
    <polygon id="s37" class="cls-1" points="111.48 1453.49 137.49 1458.49 218.49 1411.49 201.49 1400.49 111.48 1453.49"/>
    <polygon id="s108" class="cls-1" points="201.49 1548.49 232.49 1529.49 301.49 1489.49 290.49 1497.49 201.49 1548.49"/>
    <polygon id="_29" data-name="29" class="cls-2" points="290.49 1496.66 290.49 1393.32 200.99 1341.64 111.48 1393.32 111.48 1496.66 200.99 1548.33 290.49 1496.66"/>
    <polygon id="s104" class="cls-1" points="256.49 1374.49 301.49 1400.49 379.49 1355.49 378.49 1303.49 256.49 1374.49"/>
    <polygon id="_7" data-name="7" class="cls-2" points="695.49 623.02 695.49 502.1 590.76 441.64 486.04 502.1 486.04 623.02 590.76 683.49 695.49 623.02"/>
    <polygon id="s105" class="cls-1" points="442.49 1266.49 378.49 1303.49 379.49 1242.49 467.49 1191.49 442.49 1266.49"/>
    <polygon id="_22" data-name="22" class="cls-2" points="467.49 1191.51 467.49 1090.47 379.99 1039.95 292.49 1090.47 292.49 1191.51 379.99 1242.02 467.49 1191.51"/>
    <polygon id="s103" class="cls-1" points="290.49 1393.49 290.49 1496.49 301.49 1489.49 301.49 1400.49 290.49 1393.49"/>
    <polygon id="s101" class="cls-1" points="168.49 1017.49 214.49 1123.49 297.49 1170.49 273.49 1078.49 168.49 1017.49"/>
    <polygon id="s99" class="cls-1" points="210.49 590.49 164.49 455.49 56.48 393.49 125.48 534.49 210.49 590.49"/>
    <polygon id="_18" data-name="18" class="cls-2" points="269.49 590.28 269.49 463.85 159.99 400.63 50.48 463.85 50.48 590.28 159.99 653.5 269.49 590.28"/>
    <polygon id="_20" data-name="20" class="cls-2" points="379.48 1017.49 379.48 895.49 273.82 834.49 168.16 895.49 168.16 1017.49 273.82 1078.49 379.48 1017.49"/>
    <polygon id="_30" data-name="30" class="cls-2" points="378.49 1303.71 378.49 1162.26 255.99 1091.54 133.49 1162.26 133.49 1303.71 255.99 1374.44 378.49 1303.71"/>
    <polygon id="s98" class="cls-1" points="271.49 268.49 307.49 541.49 307.49 618.49 271.49 393.49 271.49 268.49"/>
    <polygon id="_16" data-name="16" class="cls-2" points="479.49 873.43 479.49 758.54 379.99 701.1 280.49 758.54 280.49 873.43 379.99 930.88 479.49 873.43"/>
    <polygon id="s11" class="cls-1" points="290.49 832.49 290.49 797.49 201.49 745.49 217.49 786.49 290.49 832.49"/>
    <polygon id="s10" class="cls-1" points="112.48 797.49 137.49 832.49 217.49 786.49 201.49 745.49 112.48 797.49"/>
    <polygon id="s6" class="cls-1" points="468.49 802.49 479.49 757.49 380.49 701.49 380.49 751.49 468.49 802.49"/>
    <polygon id="s12" class="cls-1" points="380.49 720.49 380.49 700.49 280.49 757.49 296.49 768.49 380.49 720.49"/>
    <polygon id="s25" class="cls-1" points="379.49 937.49 292.49 886.49 273.49 833.49 378.49 894.49 379.49 937.49"/>
    <polygon id="s24" class="cls-1" points="290.49 880.49 201.49 930.49 168.49 893.49 273.49 833.49 290.49 880.49"/>
    <polygon id="s31" class="cls-1" points="201.49 974.49 192.49 963.49 98.48 908.49 112.48 923.49 201.49 974.49"/>
    <polygon id="s38" class="cls-1" points="297.49 1207.49 214.49 1255.49 133.49 1162.49 256.49 1091.49 297.49 1207.49"/>
    <polygon id="_1" data-name="1" class="cls-3" points="379.26 319.49 77.04 145 77.48 -204.51 379.49 -379.51 681.49 -204.51 681.49 145 379.26 319.49"/>
    <polygon id="xx05" class="cls-1" points="203.49 1921.49 214.49 1902.49 300.49 1951.49 291.49 1972.49 203.49 1921.49"/>
    <polygon id="xx01" class="cls-1" points="467.49 2374.49 442.49 2343.49 379.49 2379.49 379.49 2424.87 467.49 2374.49"/>
    <polygon id="xx02" class="cls-1" points="467.49 2273.49 462.49 2238.49 380.49 2190.49 381.49 2223.66 467.49 2273.49"/>
    <polygon id="xx03" class="cls-1" points="463.49 2049.49 457.49 2029.49 536.49 2075.49 545.49 2097.49 463.49 2049.49"/>
    <polygon id="xx04" class="cls-1" points="457.49 2029.49 463.49 2049.49 380.49 2097.49 380.49 2073.49 457.49 2029.49"/>
    <polygon id="xxx07" class="cls-1" points="518.49 1875.49 536.49 1897.49 459.49 1942.49 448.49 1916.49 518.49 1875.49"/>
    <polygon id="xxx06" class="cls-1" points="380.49 1875.49 380.49 1895.49 457.49 1939.49 448.49 1916.49 380.49 1875.49"/>
    <polygon id="s51" class="cls-1" points="378.49 1162.49 255.49 1091.49 291.49 1111.49 379.49 1162.49 378.49 1162.49"/>
    <polygon id="yy1" class="cls-1" points="317.49 1753.49 258.49 1789.49 215.49 1812.49 297.32 1764.99 317.49 1753.49"/>
    <polygon id="yy2" class="cls-1" points="136.49 1761.49 193.49 1755.49 258.49 1789.49 218.49 1808.49 136.49 1761.49"/>
    <polygon id="yy3" class="cls-1" points="55.48 1808.49 132.49 1789.49 193.49 1755.49 136.49 1762.49 55.48 1808.49"/>
    <polygon id="yy4" class="cls-1" points="215.49 1902.49 203.49 1921.49 114.48 1972.49 136.49 1947.49 215.49 1902.49"/>
    <polygon id="yy5" class="cls-1" points="193.49 1970.49 132.49 2005.49 41.48 2106.49 126.48 2057.49 193.49 1970.49"/>
    <polygon id="c1" class="cls-3" points="381.01 3292.49 123.04 3143.55 123.42 2845.21 381.2 2695.83 638.99 2845.21 638.99 3143.55 381.01 3292.49"/>
    <polygon id="bee2" class="cls-4" points="239.49 2144.49 238.49 2133.49 230.49 2135.49 237.49 2128.49 244.49 2124.49 244.49 2129.49 252.49 2130.49 242.49 2131.49 239.49 2144.49"/>
    <polygon id="k01" class="cls-1" points="381.49 2557.49 381.49 2695.49 639.49 2845.49 537.49 2562.49 458.49 2512.49 381.49 2557.49"/>
    <polygon id="k02" class="cls-1" points="304.49 2512.49 201.49 2657.49 123.48 2845.49 381.49 2695.49 381.49 2557.49 304.49 2512.49"/>
  </g>
</svg>
