<svg xmlns="http://www.w3.org/2000/svg" width="760" height="3000" viewBox="0 0 760 3000">
  <defs>
    <style>
      .cls-1 {
        fill: #f2f2f2;
      }

      .cls-1, .cls-2, .cls-3, .cls-4 {
        stroke: #000;
        stroke-miterlimit: 10;
      }

      .cls-2, .cls-3 {
        fill: #fff;
      }

      .cls-3 {
        stroke-width: 2px;
      }
    </style>
  </defs>
  <title>aartics_polygons_vertical</title>
  <g id="_07stage" data-name="07stage">
    <polygon id="s41" class="cls-1" points="520.75 1368.19 453.75 1409.19 457.75 1350.19 536.75 1305.19 520.75 1368.19"/>
    <polygon id="s88" class="cls-1" points="505.75 2407.19 505.75 2335.19 547.75 2358.19 547.75 2453.19 505.75 2407.19"/>
    <polygon id="s40" class="cls-1" points="380.75 1331.19 457.75 1376.19 450.75 1435.19 381.75 1394.19 380.75 1331.19"/>
    <polygon id="s52" class="cls-1" points="520.75 1369.19 591.75 1409.19 614.75 1350.19 536.75 1305.19 520.75 1369.19"/>
    <polygon id="s60" class="cls-1" points="300.75 1672.19 310.75 1701.19 235.75 1655.19 221.75 1627.19 300.75 1672.19"/>
    <polygon id="s62" class="cls-1" points="126.75 1429.19 194.75 1657.19 149.75 1682.19 41.75 1478.19 126.75 1429.19"/>
    <polygon id="s59" class="cls-1" points="379.75 1553.19 291.75 1604.19 310.75 1668.19 379.75 1626.19 379.75 1553.19"/>
    <polygon id="s61" class="cls-1" points="235.75 1591.19 235.75 1673.19 221.75 1624.19 210.75 1575.19 210.75 1478.19 235.75 1591.19"/>
    <polygon id="s57" class="cls-1" points="506.75 1764.19 568.75 1797.19 696.75 1470.19 591.75 1410.19 506.75 1764.19"/>
    <polygon id="s56" class="cls-1" points="444.75 1797.19 506.75 1764.19 591.75 1410.19 486.75 1470.19 444.75 1797.19"/>
    <polygon id="s94" class="cls-1" points="201.75 2296.19 140.75 2331.19 63.75 2354.19 143.75 2308.19 201.75 2296.19"/>
    <polygon id="_42" data-name="42" class="cls-2" points="219.75 2449.17 219.75 2356.22 139.25 2309.74 58.75 2356.22 58.75 2449.17 139.25 2495.64 219.75 2449.17"/>
    <polygon id="_50" data-name="50" class="cls-2" points="616.75 2578.3 616.75 2488.23 538.75 2443.19 460.74 2488.23 460.74 2578.3 538.75 2623.34 616.75 2578.3"/>
    <polygon id="_49" data-name="49" class="cls-2" points="459.75 2573.65 459.75 2484.74 382.75 2440.28 305.75 2484.74 305.75 2573.65 382.75 2618.1 459.75 2573.65"/>
    <polygon id="_48" data-name="48" class="cls-2" points="292.75 2622.36 292.75 2519.02 203.25 2467.35 113.75 2519.02 113.75 2622.36 203.25 2674.04 292.75 2622.36"/>
    <polygon id="_51" data-name="51" class="cls-2" points="710.75 2452.75 710.75 2358.64 629.25 2311.58 547.75 2358.64 547.75 2452.75 629.25 2499.8 710.75 2452.75"/>
    <polygon id="s87" class="cls-1" points="443.75 2300.19 505.75 2335.19 593.75 2380.19 488.75 2320.19 443.75 2300.19"/>
    <polygon id="s90" class="cls-1" points="505.75 2407.19 538.75 2443.19 460.75 2488.19 443.75 2443.19 505.75 2407.19"/>
    <polygon id="s92" class="cls-1" points="546.75 2165.19 592.75 2139.19 697.75 2199.19 634.75 2213.19 546.75 2165.19"/>
    <polygon id="s91" class="cls-1" points="468.75 2211.19 488.75 2199.19 592.75 2139.19 545.75 2166.19 468.75 2211.19"/>
    <polygon id="s89" class="cls-1" points="443.75 2443.19 459.75 2484.74 382.75 2440.19 381.75 2407.19 443.75 2443.19"/>
    <polygon id="s85" class="cls-1" points="139.75 2495.19 113.75 2519.19 202.75 2467.19 219.75 2449.19 139.75 2495.19"/>
    <polygon id="s84" class="cls-1" points="212.75 2163.19 223.75 2172.19 144.75 2217.19 127.75 2212.19 212.75 2163.19"/>
    <polygon id="s82" class="cls-1" points="292.75 2004.19 308.75 2054.19 236.75 2094.19 204.75 2055.19 292.75 2004.19"/>
    <polygon id="s80" class="cls-1" points="305.75 2041.19 382.21 2085.19 381.75 2097.19 308.75 2055.19 305.75 2041.19"/>
    <polygon id="s79" class="cls-1" points="292.75 1902.19 305.75 1952.19 305.75 2041.19 292.75 2004.19 292.75 1902.19"/>
    <polygon id="s78" class="cls-1" points="381.75 1875.19 381.75 1908.19 305.75 1952.19 298.75 1923.03 381.75 1875.19"/>
    <polygon id="s77" class="cls-1" points="56.75 1888.19 132.75 1977.19 194.75 2013.19 137.75 1934.19 56.75 1888.19"/>
    <polygon id="s76" class="cls-1" points="614.75 2035.19 567.75 2085.19 505.75 2121.19 537.75 2080.19 614.75 2035.19"/>
    <polygon id="s75" class="cls-1" points="709.75 1881.19 628.75 1979.19 567.75 2013.19 628.75 1928.19 709.75 1881.19"/>
    <polygon id="s73" class="cls-1" points="546.75 1787.19 519.75 1865.19 519.75 1944.19 546.75 1881.19 546.75 1787.19"/>
    <polygon id="s70" class="cls-1" points="467.75 1703.19 449.75 1824.19 382.21 1865.69 379.75 1754.19 467.75 1703.19"/>
    <polygon id="s68" class="cls-1" points="458.61 1952.19 460.73 1947.19 460.73 2035.19 458.61 2041.19 458.61 1952.19"/>
    <polygon id="s66" class="cls-1" points="297.75 2503.19 292.75 2519.19 202.75 2467.19 214.75 2455.19 297.75 2503.19"/>
    <polygon id="s67" class="cls-1" points="305.75 2573.19 292.75 2622.19 292.75 2515.19 305.75 2485.19 305.75 2573.19"/>
    <polygon id="s97" class="cls-1" points="236.75 2180.19 222.75 2172.19 301.75 2217.19 308.75 2222.19 236.75 2180.19"/>
    <polygon id="s95" class="cls-1" points="301.75 2308.19 294.75 2313.19 214.75 2359.19 222.75 2353.19 301.75 2308.19"/>
    <polygon id="s93" class="cls-1" points="222.75 2353.19 219.75 2356.19 138.75 2310.19 145.75 2309.19 222.75 2353.19"/>
    <polygon id="s58" class="cls-1" points="462.75 1603.19 467.75 1581.19 379.75 1530.19 379.75 1555.19 462.75 1603.19"/>
    <polygon id="s35" class="cls-1" points="457.75 1448.19 462.75 1411.19 379.75 1459.19 380.75 1495.19 457.75 1448.19"/>
    <polygon id="s36" class="cls-1" points="461.75 1443.19 535.75 1486.19 545.75 1459.19 462.75 1411.19 461.75 1443.19"/>
    <polygon id="s83" class="cls-1" points="212.75 2065.19 236.75 2094.19 236.75 2179.84 212.75 2163.19 212.75 2065.19"/>
    <polygon id="_45" data-name="45" class="cls-2" points="301.75 2308.01 301.75 2217.37 223.25 2172.05 144.75 2217.37 144.75 2308.01 223.25 2353.34 301.75 2308.01"/>
    <polygon id="_39" data-name="39" class="cls-2" points="458.75 2041 458.75 1952.62 382.21 1908.43 305.68 1952.62 305.68 2041 382.21 2085.19 458.75 2041"/>
    <polygon id="_37" data-name="37" class="cls-2" points="614.75 2035.65 614.75 1946.74 537.75 1902.28 460.75 1946.74 460.75 2035.65 537.75 2080.1 614.75 2035.65"/>
    <polygon id="_36" data-name="36" class="cls-2" points="546.75 2165.53 546.75 2070.85 464.75 2023.51 382.75 2070.85 382.75 2165.53 464.75 2212.88 546.75 2165.53"/>
    <polygon id="s86" class="cls-1" points="468.75 2211.19 488.75 2199.19 488.75 2320.19 468.75 2312.05 468.75 2211.19"/>
    <polygon id="_44" data-name="44" class="cls-2" points="697.75 2320.03 697.75 2199.36 593.25 2139.03 488.75 2199.36 488.75 2320.03 593.25 2380.36 697.75 2320.03"/>
    <polygon id="_43" data-name="43" class="cls-2" points="380.75 2455.11 380.75 2359.27 297.75 2311.35 214.75 2359.27 214.75 2455.11 297.75 2503.03 380.75 2455.11"/>
    <polygon id="s96" class="cls-1" points="293.75 2211.19 308.75 2222.19 382.21 2182.19 381.75 2160.19 293.75 2211.19"/>
    <polygon id="_46" data-name="46" class="cls-2" points="468.75 2312.05 468.75 2211.02 381.25 2160.5 293.75 2211.02 293.75 2312.05 381.25 2362.57 468.75 2312.05"/>
    <polygon id="_47" data-name="47" class="cls-2" points="212.75 2163.27 212.75 2065.12 127.75 2016.04 42.75 2065.12 42.75 2163.27 127.75 2212.34 212.75 2163.27"/>
    <polygon id="s81" class="cls-1" points="115.75 2004.19 127.75 2016.19 212.75 2065.12 204.75 2055.19 115.75 2004.19"/>
    <polygon id="_26" data-name="26" class="cls-2" points="457.75 1464.36 457.75 1374.87 380.25 1330.13 302.75 1374.87 302.75 1464.36 380.25 1509.1 457.75 1464.36"/>
    <polygon id="_27" data-name="27" class="cls-2" points="614.75 1441.01 614.75 1350.37 536.25 1305.05 457.75 1350.37 457.75 1441.01 536.25 1486.34 614.75 1441.01"/>
    <polygon id="_28" data-name="28" class="cls-2" points="545.75 1564.11 545.75 1468.27 462.75 1420.35 379.75 1468.27 379.75 1564.11 462.75 1612.03 545.75 1564.11"/>
    <polygon id="_33" data-name="33" class="cls-2" points="300.7 1760.11 300.7 1669.5 222.22 1624.19 143.75 1669.5 143.75 1760.11 222.22 1805.41 300.7 1760.11"/>
    <polygon id="_32" data-name="32" class="cls-2" points="217.75 1888.17 217.75 1795.21 137.25 1748.74 56.75 1795.21 56.75 1888.17 137.25 1934.64 217.75 1888.17"/>
    <polygon id="_41" data-name="41" class="cls-2" points="381.75 1875.11 381.75 1779.27 298.75 1731.35 215.75 1779.27 215.75 1875.11 298.75 1923.03 381.75 1875.11"/>
    <polygon id="s74" class="cls-1" points="546.75 1881.19 537.75 1902.19 614.75 1946.74 628.75 1928.19 546.75 1881.19"/>
    <polygon id="_38" data-name="38" class="cls-2" points="709.75 1881.23 709.75 1787.31 628.42 1740.35 547.08 1787.31 547.08 1881.23 628.42 1928.19 709.75 1881.23"/>
    <polygon id="_40" data-name="40" class="cls-2" points="292.75 2003.79 292.75 1901.6 204.25 1850.5 115.75 1901.6 115.75 2003.79 204.25 2054.88 292.75 2003.79"/>
    <polygon id="s71" class="cls-1" points="291.75 1703.19 298.75 1731.19 381.75 1779.19 379.75 1754.19 291.75 1703.19"/>
    <polygon id="s69" class="cls-1" points="591.75 1652.19 519.75 1866.19 449.75 1824.19 486.75 1592.19 591.75 1652.19"/>
    <polygon id="_35" data-name="35" class="cls-2" points="467.29 1703.21 467.29 1601.87 379.52 1551.19 291.75 1601.87 291.75 1703.21 379.52 1753.88 467.29 1703.21"/>
    <polygon id="_34" data-name="34" class="cls-2" points="210.75 1575.48 210.75 1477.91 126.25 1429.12 41.75 1477.91 41.75 1575.48 126.25 1624.26 210.75 1575.48"/>
    <polygon id="s55" class="cls-1" points="467.75 1703.19 486.75 1592.19 486.75 1470.19 467.75 1602.19 467.75 1703.19"/>
    <polygon id="s72" class="cls-1" points="696.75 1592.19 628.75 1740.19 546.75 1787.19 591.75 1652.19 696.75 1592.19"/>
    <polygon id="_31" data-name="31" class="cls-2" points="696.75 1591.81 696.75 1470.57 591.75 1409.95 486.75 1470.57 486.75 1591.81 591.75 1652.44 696.75 1591.81"/>
    <polygon id="s110" class="cls-1" points="567.75 1036.19 566.75 1101.19 574.75 1102.19 573.75 1029.19 567.75 1036.19"/>
    <polygon id="s1" class="cls-1" points="613.75 287.19 613.75 379.19 579.75 452.19 578.75 376.19 613.75 287.19"/>
    <polygon id="_2" data-name="2" class="cls-2" points="775.75 376.8 775.75 285.58 696.75 239.97 617.75 285.58 617.75 376.8 696.75 422.41 775.75 376.8"/>
    <polygon id="s33" class="cls-1" points="682.75 148.19 380.75 322.19 381.75 563.19 464.75 514.19 682.75 148.19"/>
    <polygon id="s32" class="cls-1" points="78.75 148.19 308.75 579.19 380.75 618.19 380.75 322.19 78.75 148.19"/>
    <polygon id="s3" class="cls-1" points="272.75 394.19 165.75 456.19 235.75 660.19 308.75 619.19 272.75 394.19"/>
    <polygon id="s20" class="cls-1" points="590.75 1020.19 504.75 1221.19 567.75 1254.19 696.75 1081.19 590.75 1020.19"/>
    <polygon id="s23" class="cls-1" points="381.75 1223.19 318.75 1258.19 293.75 1151.19 380.75 1100.19 381.75 1223.19"/>
    <polygon id="s50" class="cls-1" points="380.75 1018.19 380.75 1100.19 293.75 1151.19 274.75 1079.19 380.75 1018.19"/>
    <polygon id="s19" class="cls-1" points="545.75 471.19 545.75 561.19 563.75 454.19 563.75 349.19 545.75 471.19"/>
    <polygon id="s18" class="cls-1" points="591.75 442.19 554.75 579.19 468.75 629.19 487.75 503.19 591.75 442.19"/>
    <polygon id="s17" class="cls-1" points="381.75 696.19 380.75 579.19 468.75 629.19 441.75 731.19 381.75 696.19"/>
    <polygon id="s16" class="cls-1" points="381.75 696.19 320.75 732.19 293.75 629.19 380.75 579.19 381.75 696.19"/>
    <polygon id="s15" class="cls-1" points="236.75 745.19 236.75 660.19 211.75 591.19 211.75 686.19 236.75 745.19"/>
    <polygon id="s14" class="cls-1" points="270.75 464.19 320.75 732.19 256.75 700.19 162.75 401.19 270.75 464.19"/>
    <polygon id="s9" class="cls-1" points="566.75 1109.19 587.75 1069.19 656.75 1109.19 629.75 1145.19 566.75 1109.19"/>
    <polygon id="s8" class="cls-1" points="566.75 1109.19 504.75 1145.19 518.75 1109.19 587.75 1069.19 566.75 1109.19"/>
    <polygon id="s7" class="cls-1" points="504.75 1145.19 504.75 1221.19 518.75 1189.19 518.75 1109.19 504.75 1145.19"/>
    <polygon id="_9" data-name="9" class="cls-2" points="703.97 1095.89 703.97 1021.28 639.36 983.98 574.75 1021.28 574.75 1095.89 639.36 1133.19 703.97 1095.89"/>
    <polygon id="s48" class="cls-1" points="443.75 1109.19 446.75 1082.19 514.75 1121.19 504.75 1145.19 443.75 1109.19"/>
    <polygon id="s54" class="cls-1" points="684.75 887.19 639.75 990.19 574.75 1027.19 609.75 931.19 684.75 887.19"/>
    <polygon id="_10" data-name="10" class="cls-2" points="581.75 1082.66 581.75 1004.72 514.25 965.75 446.75 1004.72 446.75 1082.66 514.25 1121.63 581.75 1082.66"/>
    <polygon id="_5" data-name="5" class="cls-2" points="211.75 485.34 211.75 387.19 126.75 338.12 41.75 387.19 41.75 485.34 126.75 534.42 211.75 485.34"/>
    <polygon id="s43" class="cls-1" points="51.75 591.19 137.75 778.19 218.75 824.19 161.75 654.19 51.75 591.19"/>
    <polygon id="s53" class="cls-1" points="57.75 854.19 138.75 900.19 193.75 1038.19 132.75 1005.19 57.75 854.19"/>
    <polygon id="_14" data-name="14" class="cls-2" points="218.75 852.19 218.75 759.22 138.25 712.74 57.75 759.22 57.75 852.17 138.25 898.64 218.75 852.19"/>
    <polygon id="_13" data-name="13" class="cls-2" points="381.75 805.13 381.75 708.72 298.25 660.51 214.75 708.72 214.75 805.13 298.25 853.34 381.75 805.13"/>
    <polygon id="s29" class="cls-1" points="193.75 1329.69 138.75 1272.19 57.75 1319.19 132.75 1364.19 193.75 1329.69"/>
    <polygon id="_23" data-name="23" class="cls-2" points="219.43 1412.21 219.43 1318.86 138.59 1272.19 57.75 1318.86 57.75 1412.21 138.59 1458.88 219.43 1412.21"/>
    <polygon id="s27" class="cls-1" points="257.75 1365.19 256.75 1435.19 219.75 1410.19 219.75 1319.19 257.75 1365.19"/>
    <polygon id="s28" class="cls-1" points="193.75 1329.19 257.75 1365.19 219.75 1319.19 138.75 1272.19 193.75 1329.19"/>
    <polygon id="_19" data-name="19" class="cls-2" points="298.29 1267.55 298.29 1171.98 215.52 1124.19 132.75 1171.98 132.75 1267.55 215.52 1315.34 298.29 1267.55"/>
    <polygon id="s26" class="cls-1" points="4.75 962.19 132.75 1148.19 193.75 1110.19 99.75 910.19 4.75 962.19"/>
    <polygon id="_15" data-name="15" class="cls-2" points="291.75 928.79 291.75 825.98 202.72 774.58 113.69 825.98 113.69 928.79 202.72 980.19 291.75 928.79"/>
    <polygon id="s42" class="cls-1" points="533.75 887.19 514.25 965.19 581.75 1004.19 609.75 931.19 533.75 887.19"/>
    <polygon id="_8" data-name="8" class="cls-2" points="685.75 887.07 685.75 799.31 609.75 755.43 533.75 799.31 533.75 887.07 609.75 930.95 685.75 887.07"/>
    <polygon id="s2" class="cls-1" points="563.75 349.19 655.75 296.19 566.75 454.19 549.75 439.19 563.75 349.19"/>
    <polygon id="_6" data-name="6" class="cls-2" points="546.96 610.26 546.96 514.88 464.36 467.19 381.75 514.88 381.75 610.26 464.36 657.96 546.96 610.26"/>
    <polygon id="s45" class="cls-1" points="293.75 731.19 298.75 758.19 380.75 805.19 381.25 781.19 293.75 731.19"/>
    <polygon id="_12" data-name="12" class="cls-2" points="468.75 730.67 468.75 629.64 381.25 579.12 293.75 629.64 293.75 730.67 381.25 781.19 468.75 730.67"/>
    <polygon id="_11" data-name="11" class="cls-2" points="557.09 798.58 557.09 697.35 469.42 646.73 381.75 697.35 381.75 798.58 469.42 849.19 557.09 798.58"/>
    <polygon id="s100" class="cls-1" points="556.75 796.19 469.75 846.19 446.75 1005.19 513.75 966.19 556.75 796.19"/>
    <polygon id="s49" class="cls-1" points="480.75 877.19 442.75 1109.19 380.74 1145.19 381.25 934.19 480.75 877.19"/>
    <polygon id="s4" class="cls-1" points="468.75 629.19 486.75 504.19 487.75 622.19 469.75 731.19 468.75 629.19"/>
    <polygon id="_17" data-name="17" class="cls-2" points="656.75 1189.11 656.75 1109.43 587.75 1069.6 518.75 1109.43 518.75 1189.11 587.75 1228.94 656.75 1189.11"/>
    <polygon id="s34" class="cls-1" points="746.75 454.19 697.75 513.19 696.75 502.19 679.75 493.19 746.75 454.19"/>
    <polygon id="_3" data-name="3" class="cls-2" points="272.75 393.76 272.75 269.63 165.25 207.56 57.75 269.63 57.75 393.76 165.25 455.82 272.75 393.76"/>
    <polygon id="_4" data-name="4" class="cls-2" points="746.75 454.52 746.75 348.86 655.25 296.04 563.75 348.86 563.75 454.52 655.25 507.35 746.75 454.52"/>
    <polygon id="s107" class="cls-1" points="696.75 1132.19 567.75 1255.19 504.75 1291.19 591.75 1192.19 696.75 1132.19"/>
    <polygon id="s106" class="cls-1" points="485.75 1132.19 591.75 1192.19 504.75 1291.19 443.75 1257.19 468.93 1182.26 485.75 1132.19"/>
    <polygon id="s65" class="cls-1" points="202.75 968.19 202.75 1073.43 193.75 1066.19 193.75 957.19 202.75 968.19"/>
    <polygon id="s21" class="cls-1" points="504.75 1221.19 443.75 1257.19 485.75 1077.19 590.75 1016.19 504.75 1221.19"/>
    <polygon id="s30" class="cls-1" points="468.75 1081.19 468.75 1182.19 485.75 1131.19 485.75 1007.19 468.75 1081.19"/>
    <polygon id="s22" class="cls-1" points="443.75 1257.19 381.75 1223.19 380.75 1100.19 468.75 1151.19 443.75 1257.19"/>
    <polygon id="_24" data-name="24" class="cls-2" points="696.75 1131.6 696.75 1009.78 591.25 948.87 485.75 1009.78 485.75 1131.6 591.25 1192.51 696.75 1131.6"/>
    <polygon id="s102" class="cls-1" points="4.75 1071.19 134.75 1222.19 134.75 1171.19 98.75 1126.19 4.75 1071.19"/>
    <polygon id="_21" data-name="21" class="cls-2" points="193.75 1071.25 193.75 962.13 99.25 907.57 4.75 962.13 4.75 1071.25 99.25 1125.81 193.75 1071.25"/>
    <polygon id="s64" class="cls-1" points="98.75 1126.19 193.75 1071.19 215.75 1123.19 134.75 1171.19 98.75 1126.19"/>
    <polygon id="s47" class="cls-1" points="487.75 622.19 591.75 684.19 556.75 779.19 468.75 730.19 487.75 622.19"/>
    <polygon id="s46" class="cls-1" points="696.75 624.19 591.75 684.19 556.75 781.19 557.09 837.84 609.75 807.19 696.75 624.19"/>
    <polygon id="s44" class="cls-1" points="161.75 654.19 214.75 805.19 298.75 758.19 270.75 591.19 161.75 654.19"/>
    <polygon id="s5" class="cls-1" points="293.75 731.19 270.75 591.19 270.75 464.19 293.75 629.19 293.75 731.19"/>
    <polygon id="s37" class="cls-1" points="112.75 1454.19 138.75 1459.19 219.75 1412.19 202.75 1401.19 112.75 1454.19"/>
    <polygon id="s108" class="cls-1" points="202.75 1524.19 233.75 1505.19 302.75 1465.19 291.75 1473.19 202.75 1524.19"/>
    <polygon id="_29" data-name="29" class="cls-2" points="291.75 1472.37 291.75 1369.02 202.25 1317.35 112.75 1369.02 112.75 1472.37 202.25 1524.04 291.75 1472.37"/>
    <polygon id="s104" class="cls-1" points="257.75 1349.19 302.75 1375.19 380.75 1330.19 379.75 1278.19 257.75 1349.19"/>
    <polygon id="_7" data-name="7" class="cls-2" points="696.75 623.73 696.75 502.8 592.03 442.34 487.3 502.8 487.3 623.73 592.03 684.19 696.75 623.73"/>
    <polygon id="s105" class="cls-1" points="443.75 1257.19 379.75 1294.19 380.75 1233.19 468.75 1182.19 443.75 1257.19"/>
    <polygon id="_22" data-name="22" class="cls-2" points="468.75 1182.21 468.75 1081.17 381.25 1030.66 293.75 1081.17 293.75 1182.21 381.25 1232.73 468.75 1182.21"/>
    <polygon id="s103" class="cls-1" points="291.75 1369.19 291.75 1472.19 302.75 1465.19 302.75 1376.19 291.75 1369.19"/>
    <polygon id="s101" class="cls-1" points="169.75 1018.19 215.75 1124.19 298.75 1171.19 274.75 1079.19 169.75 1018.19"/>
    <polygon id="s99" class="cls-1" points="211.75 591.19 165.75 456.19 57.75 394.19 126.75 535.19 211.75 591.19"/>
    <polygon id="_18" data-name="18" class="cls-2" points="270.75 590.99 270.75 464.55 161.25 401.33 51.75 464.55 51.75 590.99 161.25 654.21 270.75 590.99"/>
    <polygon id="_20" data-name="20" class="cls-2" points="380.74 1018.19 380.74 896.19 275.09 835.19 169.43 896.19 169.43 1018.19 275.09 1079.19 380.74 1018.19"/>
    <polygon id="_30" data-name="30" class="cls-2" points="379.75 1278.42 379.75 1136.97 257.25 1066.24 134.75 1136.97 134.75 1278.42 257.25 1349.14 379.75 1278.42"/>
    <polygon id="s98" class="cls-1" points="272.75 269.19 308.75 542.19 308.75 619.19 272.75 394.19 272.75 269.19"/>
    <polygon id="_16" data-name="16" class="cls-2" points="480.75 874.14 480.75 759.25 381.25 701.8 281.75 759.25 281.75 874.14 381.25 931.59 480.75 874.14"/>
    <polygon id="s11" class="cls-1" points="291.75 833.19 291.75 798.19 202.75 746.19 218.75 787.19 291.75 833.19"/>
    <polygon id="s10" class="cls-1" points="113.75 798.19 138.75 833.19 218.75 787.19 202.75 746.19 113.75 798.19"/>
    <polygon id="s6" class="cls-1" points="469.75 803.19 480.75 758.19 381.75 702.19 381.75 752.19 469.75 803.19"/>
    <polygon id="s12" class="cls-1" points="381.75 721.19 381.75 701.19 281.75 758.19 297.75 769.19 381.75 721.19"/>
    <polygon id="s25" class="cls-1" points="380.75 941.19 293.75 890.19 274.75 837.19 379.75 898.19 380.75 941.19"/>
    <polygon id="s24" class="cls-1" points="291.75 884.19 202.75 934.19 169.75 897.19 274.75 837.19 291.75 884.19"/>
    <polygon id="s31" class="cls-1" points="202.75 974.19 193.75 963.19 99.75 908.19 113.75 923.19 202.75 974.19"/>
    <polygon id="s38" class="cls-1" points="298.75 1182.19 215.75 1230.19 134.75 1137.19 257.75 1066.19 298.75 1182.19"/>
    <polygon id="_25" data-name="25" class="cls-2" points="657.17 1664.2 657.17 1584.86 588.46 1545.19 519.75 1584.86 519.75 1664.2 588.46 1703.87 657.17 1664.2"/>
    <polygon id="s63" class="cls-1" points="572.75 1573.19 632.75 1607.19 660.75 1592.19 592.75 1552.19 572.75 1573.19"/>
    <polygon id="_1" data-name="1" class="cls-3" points="380.53 320.19 78.31 145.7 78.75 -203.81 380.75 -378.81 682.75 -203.81 682.75 145.7 380.53 320.19"/>
    <polygon id="xx05" class="cls-1" points="204.75 1851.19 215.75 1875.19 298.75 1923.19 292.75 1902.19 204.75 1851.19"/>
    <polygon id="xx01" class="cls-1" points="468.75 2312.19 443.75 2339.19 380.75 2375.19 380.75 2362.57 468.75 2312.19"/>
    <polygon id="xx02" class="cls-1" points="468.75 2211.19 464.75 2220.19 382.75 2172.19 382.75 2161.37 468.75 2211.19"/>
    <polygon id="xx03" class="cls-1" points="464.75 2030.19 460.75 2048.19 537.75 2093.19 546.75 2078.19 464.75 2030.19"/>
    <polygon id="xx04" class="cls-1" points="458.75 2057.19 464.75 2030.19 382.75 2078.19 381.75 2101.19 458.75 2057.19"/>
    <polygon id="xxx07" class="cls-1" points="530.75 1920.19 548.75 1910.19 471.75 1955.19 460.75 1961.19 530.75 1920.19"/>
    <polygon id="xxx06" class="cls-1" points="380.75 1919.19 380.75 1908.19 457.75 1952.19 448.75 1960.19 380.75 1919.19"/>
    <polygon id="s51" class="cls-1" points="379.75 1138.19 256.75 1067.19 292.75 1087.19 380.75 1138.19 379.75 1138.19"/>
    <polygon id="yy1" class="cls-1" points="318.75 1744.19 259.75 1780.19 216.75 1803.19 298.59 1755.69 318.75 1744.19"/>
    <polygon id="yy2" class="cls-1" points="137.75 1752.19 194.75 1746.19 259.75 1780.19 219.75 1799.19 137.75 1752.19"/>
    <polygon id="yy3" class="cls-1" points="56.75 1799.19 133.75 1780.19 194.75 1746.19 137.75 1753.19 56.75 1799.19"/>
    <polygon id="yy4" class="cls-1" points="216.75 1893.19 204.75 1912.19 115.75 1963.19 137.75 1938.19 216.75 1893.19"/>
    <polygon id="yy5" class="cls-1" points="194.75 1961.19 133.75 1996.19 42.75 2097.19 127.75 2048.19 194.75 1961.19"/>
    <polygon id="c1" class="cls-3" points="382.28 3293.19 124.31 3144.25 124.69 2845.91 382.47 2696.54 640.25 2845.91 640.25 3144.25 382.28 3293.19"/>
    <polygon id="bee2" class="cls-4" points="591.35 2645.27 598.75 2657.19 591.75 2654.19 599.75 2661.19 600.75 2666.19 601.75 2659.19 602.75 2650.19 600.75 2656.19 591.35 2645.27"/>
    <polygon id="k01" class="cls-1" points="382.75 2618.19 382.75 2696.19 640.75 2846.19 538.75 2623.19 459.75 2573.19 382.75 2618.19"/>
    <polygon id="k02" class="cls-1" points="305.75 2573.19 203.75 2670.19 124.75 2846.19 382.75 2696.19 382.75 2618.19 305.75 2573.19"/>
  </g>
</svg>
