<svg xmlns="http://www.w3.org/2000/svg" width="1200" height="5600" viewBox="0 0 1200 5600">
  <defs>
    <style>
      .cls-1 {
        fill: #f2f2f2;
      }

      .cls-1, .cls-2, .cls-3 {
        stroke: #000;
        stroke-miterlimit: 10;
      }

      .cls-2, .cls-3 {
        fill: #fff;
      }

      .cls-3 {
        stroke-width: 2px;
      }
    </style>
  </defs>
  <title>aartics_polygons_vertical</title>
  <g id="_06stage" data-name="06stage">
    <polygon id="s41" class="cls-1" points="805.05 2623.08 704.55 2684.58 710.55 2596.08 829.05 2528.58 805.05 2623.08"/>
    <polygon id="s88" class="cls-1" points="782.55 4013.58 782.55 3905.58 845.55 4046.58 845.55 4189.08 782.55 4013.58"/>
    <polygon id="s40" class="cls-1" points="595.05 2545.08 710.55 2612.58 700.05 2701.08 596.55 2639.58 595.05 2545.08"/>
    <polygon id="s52" class="cls-1" points="805.05 2624.58 911.55 2684.58 946.05 2596.08 829.05 2528.58 805.05 2624.58"/>
    <polygon id="s60" class="cls-1" points="475.05 2995.08 490.05 3038.58 377.55 2969.58 356.55 2927.58 475.05 2995.08"/>
    <polygon id="s62" class="cls-1" points="214.05 2668.08 317.55 2885.58 226.05 2938.08 86.55 2741.58 214.05 2668.08"/>
    <polygon id="s59" class="cls-1" points="593.55 2866.08 461.55 2942.58 490.05 3038.58 593.55 2975.58 593.55 2866.08"/>
    <polygon id="s61" class="cls-1" points="377.55 2846.58 377.55 2969.58 356.55 2927.58 340.05 2887.08 340.05 2741.58 377.55 2846.58"/>
    <polygon id="s57" class="cls-1" points="784.05 3047.58 877.05 3103.08 1069.05 2836.08 911.55 2746.08 784.05 3047.58"/>
    <polygon id="s56" class="cls-1" points="691.05 3100.08 784.05 3047.58 911.55 2746.08 754.05 2836.08 691.05 3100.08"/>
    <polygon id="s94" class="cls-1" points="319.05 3853.08 227.55 3905.58 116.55 4031.58 232.05 3965.58 319.05 3853.08"/>
    <polygon id="_42" data-name="42" class="cls-2" points="353.55 4174.04 353.55 4034.61 232.8 3964.9 112.05 4034.61 112.05 4174.04 232.8 4243.76 353.55 4174.04"/>
    <polygon id="_50" data-name="50" class="cls-2" points="949.05 4354.24 949.05 4219.13 832.05 4151.58 715.04 4219.13 715.04 4354.24 832.05 4421.79 949.05 4354.24"/>
    <polygon id="_49" data-name="49" class="cls-2" points="713.55 4341.26 713.55 4207.89 598.05 4141.21 482.55 4207.89 482.55 4341.26 598.05 4407.94 713.55 4341.26"/>
    <polygon id="_48" data-name="48" class="cls-2" points="463.05 4480.34 463.05 4325.32 328.8 4247.81 194.55 4325.32 194.55 4480.34 328.8 4557.84 463.05 4480.34"/>
    <polygon id="_51" data-name="51" class="cls-2" points="1090.05 4188.41 1090.05 4047.24 967.8 3976.66 845.55 4047.24 845.55 4188.41 967.8 4258.99 1090.05 4188.41"/>
    <polygon id="s87" class="cls-1" points="689.55 3856.08 782.55 3905.58 914.55 4201.08 757.05 4111.08 689.55 3856.08"/>
    <polygon id="s90" class="cls-1" points="782.55 4013.58 832.05 4151.58 715.05 4219.08 689.55 4069.08 782.55 4013.58"/>
    <polygon id="s92" class="cls-1" points="782.55 3694.08 914.55 3839.58 1070.55 3931.08 878.55 3745.08 782.55 3694.08"/>
    <polygon id="s91" class="cls-1" points="689.55 3748.08 757.05 3931.08 914.55 3839.58 782.55 3694.08 689.55 3748.08"/>
    <polygon id="s89" class="cls-1" points="689.55 4069.08 713.55 4208.58 598.05 4141.08 596.55 4013.58 689.55 4069.08"/>
    <polygon id="s85" class="cls-1" points="233.55 4243.08 194.55 4325.58 329.55 4247.58 353.55 4174.08 233.55 4243.08"/>
    <polygon id="s84" class="cls-1" points="343.05 3770.58 358.05 3751.08 241.05 3818.58 215.55 3844.08 343.05 3770.58"/>
    <polygon id="s82" class="cls-1" points="463.05 3553.08 482.55 3544.08 379.05 3599.58 331.05 3629.58 463.05 3553.08"/>
    <polygon id="s80" class="cls-1" points="482.55 3544.08 597.25 3610.08 598.05 3599.58 491.55 3539.58 482.55 3544.08"/>
    <polygon id="s79" class="cls-1" points="463.05 3398.58 482.55 3410.58 482.55 3544.08 463.05 3553.08 463.05 3398.58"/>
    <polygon id="s78" class="cls-1" points="596.55 3329.58 596.55 3344.58 482.55 3410.58 472.05 3401.58 596.55 3329.58"/>
    <polygon id="s77" class="cls-1" points="109.05 3335.58 230.55 3404.58 316.05 3422.58 230.55 3370.08 109.05 3335.58"/>
    <polygon id="s76" class="cls-1" points="946.05 3542.58 875.55 3530.58 782.55 3584.58 830.55 3610.08 946.05 3542.58"/>
    <polygon id="s75" class="cls-1" points="1088.55 3332.58 967.05 3370.08 875.55 3424.08 967.05 3403.08 1088.55 3332.58"/>
    <polygon id="s73" class="cls-1" points="844.05 3191.58 803.55 3238.08 803.55 3358.08 844.05 3332.58 844.05 3191.58"/>
    <polygon id="s70" class="cls-1" points="725.55 3094.08 698.55 3179.58 596.55 3239.58 593.55 3170.58 725.55 3094.08"/>
    <polygon id="s68" class="cls-1" points="712.05 3410.58 715.02 3410.58 715.05 3542.58 712.05 3544.08 712.05 3410.58"/>
    <polygon id="s66" class="cls-1" points="470.55 4271.58 463.05 4325.58 329.55 4247.58 346.05 4199.58 470.55 4271.58"/>
    <polygon id="s67" class="cls-1" points="482.55 4340.58 463.05 4480.08 463.05 4343.58 482.55 4208.58 482.55 4340.58"/>
    <polygon id="s97" class="cls-1" points="379.05 3728.58 358.05 3751.08 476.55 3818.58 487.05 3788.58 379.05 3728.58"/>
    <polygon id="s95" class="cls-1" points="476.55 3955.08 470.55 3983.58 346.05 4055.58 358.05 4022.58 476.55 3955.08"/>
    <polygon id="s93" class="cls-1" points="358.05 4022.58 353.55 4034.61 232.05 3965.58 241.05 3954.81 358.05 4022.58"/>
    <polygon id="s58" class="cls-1" points="718.05 2975.58 725.55 2942.58 593.55 2866.08 593.55 2903.58 718.05 2975.58"/>
    <polygon id="s35" class="cls-1" points="710.55 2743.08 718.05 2687.58 593.55 2759.58 595.05 2813.58 710.55 2743.08"/>
    <polygon id="s36" class="cls-1" points="716.55 2735.58 827.55 2800.08 842.55 2759.58 718.05 2687.58 716.55 2735.58"/>
    <polygon id="s83" class="cls-1" points="343.05 3623.58 379.05 3602.58 379.05 3728.58 343.05 3770.58 343.05 3623.58"/>
    <polygon id="_45" data-name="45" class="cls-2" points="476.55 3954.81 476.55 3818.84 358.8 3750.86 241.05 3818.84 241.05 3954.81 358.8 4022.79 476.55 3954.81"/>
    <polygon id="_39" data-name="39" class="cls-2" points="712.05 3543.79 712.05 3411.22 597.25 3344.94 482.44 3411.22 482.44 3543.79 597.25 3610.08 712.05 3543.79"/>
    <polygon id="_37" data-name="37" class="cls-2" points="946.05 3543.26 946.05 3409.89 830.55 3343.21 715.05 3409.89 715.05 3543.26 830.55 3609.94 946.05 3543.26"/>
    <polygon id="_36" data-name="36" class="cls-2" points="844.05 3762.09 844.05 3620.06 721.05 3549.05 598.05 3620.06 598.05 3762.09 721.05 3833.1 844.05 3762.09"/>
    <polygon id="s86" class="cls-1" points="727.05 3856.08 757.05 3929.58 757.05 4111.08 727.05 4006.08 727.05 3856.08"/>
    <polygon id="_44" data-name="44" class="cls-2" points="1070.55 4110.82 1070.55 3929.83 913.8 3839.33 757.05 3929.83 757.05 4110.82 913.8 4201.32 1070.55 4110.82"/>
    <polygon id="_43" data-name="43" class="cls-2" points="595.05 4199.46 595.05 4055.7 470.55 3983.82 346.05 4055.7 346.05 4199.46 470.55 4271.34 595.05 4199.46"/>
    <polygon id="s96" class="cls-1" points="464.55 3856.08 487.05 3788.58 597.25 3728.58 596.55 3779.58 464.55 3856.08"/>
    <polygon id="_46" data-name="46" class="cls-2" points="727.05 4007.37 727.05 3855.82 595.8 3780.04 464.55 3855.82 464.55 4007.37 595.8 4083.15 727.05 4007.37"/>
    <polygon id="_47" data-name="47" class="cls-2" points="343.05 3770.69 343.05 3623.46 215.55 3549.85 88.05 3623.46 88.05 3770.69 215.55 3844.3 343.05 3770.69"/>
    <polygon id="s81" class="cls-1" points="197.55 3553.08 215.55 3550.08 343.05 3623.58 329.55 3629.58 197.55 3553.08"/>
    <polygon id="_26" data-name="26" class="cls-2" points="710.55 2746.33 710.55 2612.09 594.3 2544.98 478.05 2612.09 478.05 2746.33 594.3 2813.44 710.55 2746.33"/>
    <polygon id="_27" data-name="27" class="cls-2" points="946.05 2732.31 946.05 2596.34 828.3 2528.36 710.55 2596.34 710.55 2732.31 828.3 2800.29 946.05 2732.31"/>
    <polygon id="_28" data-name="28" class="cls-2" points="842.55 2903.46 842.55 2759.7 718.05 2687.82 593.55 2759.7 593.55 2903.46 718.05 2975.34 842.55 2903.46"/>
    <polygon id="_33" data-name="33" class="cls-2" points="474.97 3131.45 474.97 2995.53 357.26 2927.58 239.55 2995.53 239.55 3131.45 357.26 3199.41 474.97 3131.45"/>
    <polygon id="_32" data-name="32" class="cls-2" points="350.55 3335.54 350.55 3196.11 229.8 3126.4 109.05 3196.11 109.05 3335.54 229.8 3405.26 350.55 3335.54"/>
    <polygon id="_41" data-name="41" class="cls-2" points="596.55 3329.46 596.55 3185.7 472.05 3113.82 347.55 3185.7 347.55 3329.46 472.05 3401.34 596.55 3329.46"/>
    <polygon id="s74" class="cls-1" points="844.05 3332.58 830.55 3343.08 946.05 3410.58 967.05 3403.08 844.05 3332.58"/>
    <polygon id="_38" data-name="38" class="cls-2" points="1088.55 3332.64 1088.55 3191.76 966.55 3121.32 844.54 3191.76 844.54 3332.64 966.55 3403.08 1088.55 3332.64"/>
    <polygon id="_40" data-name="40" class="cls-2" points="463.05 3552.47 463.05 3399.18 330.3 3322.54 197.55 3399.18 197.55 3552.47 330.3 3629.11 463.05 3552.47"/>
    <polygon id="s71" class="cls-1" points="461.55 3094.08 472.05 3113.58 593.55 3184.08 593.55 3170.58 461.55 3094.08"/>
    <polygon id="s69" class="cls-1" points="911.55 3109.08 803.55 3238.08 698.55 3179.58 754.05 3019.08 911.55 3109.08"/>
    <polygon id="_35" data-name="35" class="cls-2" points="724.86 3094.1 724.86 2942.09 593.21 2866.08 461.55 2942.09 461.55 3094.1 593.21 3170.11 724.86 3094.1"/>
    <polygon id="_34" data-name="34" class="cls-2" points="340.05 2887.51 340.05 2741.15 213.3 2667.97 86.55 2741.15 86.55 2887.51 213.3 2960.68 340.05 2887.51"/>
    <polygon id="s55" class="cls-1" points="725.55 3094.08 754.05 3019.08 754.05 2836.08 725.55 2942.58 725.55 3094.08"/>
    <polygon id="s72" class="cls-1" points="1069.05 3019.08 967.05 3121.08 844.05 3191.58 911.55 3109.08 1069.05 3019.08"/>
    <polygon id="_31" data-name="31" class="cls-2" points="1069.05 3018.51 1069.05 2836.64 911.55 2745.71 754.05 2836.64 754.05 3018.51 911.55 3109.44 1069.05 3018.51"/>
    <polygon id="s110" class="cls-1" points="875.55 2125.08 874.05 2222.58 886.05 2224.08 884.55 2114.58 875.55 2125.08"/>
    <polygon id="s1" class="cls-1" points="944.55 1001.58 944.55 1139.58 893.55 1249.08 892.05 1135.08 944.55 1001.58"/>
    <polygon id="_2" data-name="2" class="cls-2" points="1187.55 1135.99 1187.55 999.16 1069.05 930.74 950.55 999.16 950.55 1135.99 1069.05 1204.41 1187.55 1135.99"/>
    <polygon id="s33" class="cls-1" points="1048.05 793.08 595.05 1054.08 596.55 1415.58 721.05 1342.08 1048.05 793.08"/>
    <polygon id="s32" class="cls-1" points="142.05 793.08 487.05 1439.58 595.05 1498.08 595.05 1054.08 142.05 793.08"/>
    <polygon id="s3" class="cls-1" points="433.05 1162.08 272.55 1255.08 377.55 1561.08 487.05 1499.58 433.05 1162.08"/>
    <polygon id="s20" class="cls-1" points="910.05 2101.08 781.05 2402.58 875.55 2452.08 1069.05 2192.58 910.05 2101.08"/>
    <polygon id="s23" class="cls-1" points="596.55 2405.58 502.05 2458.08 464.55 2297.58 595.05 2221.08 596.55 2405.58"/>
    <polygon id="s50" class="cls-1" points="595.05 2098.08 595.05 2221.08 464.55 2297.58 436.05 2189.58 595.05 2098.08"/>
    <polygon id="s19" class="cls-1" points="842.55 1277.58 842.55 1412.58 869.55 1252.08 869.55 1094.58 842.55 1277.58"/>
    <polygon id="s18" class="cls-1" points="911.55 1234.08 856.05 1439.58 727.05 1514.58 755.55 1325.58 911.55 1234.08"/>
    <polygon id="s17" class="cls-1" points="596.55 1615.08 595.05 1439.58 727.05 1514.58 686.55 1667.58 596.55 1615.08"/>
    <polygon id="s16" class="cls-1" points="596.55 1615.08 505.05 1669.08 464.55 1514.58 595.05 1439.58 596.55 1615.08"/>
    <polygon id="s15" class="cls-1" points="379.05 1688.58 379.05 1561.08 341.55 1457.58 341.55 1600.08 379.05 1688.58"/>
    <polygon id="s14" class="cls-1" points="430.05 1267.08 505.05 1669.08 409.05 1621.08 268.05 1172.58 430.05 1267.08"/>
    <polygon id="s9" class="cls-1" points="874.05 2234.58 905.55 2174.58 1009.05 2234.58 968.55 2288.58 874.05 2234.58"/>
    <polygon id="s8" class="cls-1" points="874.05 2234.58 781.05 2288.58 802.05 2234.58 905.55 2174.58 874.05 2234.58"/>
    <polygon id="s7" class="cls-1" points="781.05 2288.58 781.05 2402.58 802.05 2354.58 802.05 2234.58 781.05 2288.58"/>
    <polygon id="_9" data-name="9" class="cls-2" points="1079.88 2214.62 1079.88 2102.71 982.97 2046.76 886.05 2102.71 886.05 2214.62 982.97 2270.58 1079.88 2214.62"/>
    <polygon id="s48" class="cls-1" points="689.55 2234.58 694.05 2194.08 796.05 2252.58 781.05 2288.58 689.55 2234.58"/>
    <polygon id="s54" class="cls-1" points="1051.05 1901.58 983.55 2056.08 886.05 2111.58 938.55 1967.58 1051.05 1901.58"/>
    <polygon id="_10" data-name="10" class="cls-2" points="896.55 2194.78 896.55 2077.87 795.3 2019.41 694.05 2077.87 694.05 2194.78 795.3 2253.24 896.55 2194.78"/>
    <polygon id="_5" data-name="5" class="cls-2" points="341.55 1298.8 341.55 1151.58 214.05 1077.97 86.55 1151.58 86.55 1298.8 214.05 1372.42 341.55 1298.8"/>
    <polygon id="s43" class="cls-1" points="101.55 1457.58 230.55 1738.08 352.05 1807.08 266.55 1552.08 101.55 1457.58"/>
    <polygon id="s53" class="cls-1" points="110.55 1852.08 232.05 1921.08 314.55 2128.08 223.05 2078.58 110.55 1852.08"/>
    <polygon id="_14" data-name="14" class="cls-2" points="352.05 1849.08 352.05 1709.61 231.3 1639.9 110.55 1709.61 110.55 1849.04 231.3 1918.76 352.05 1849.08"/>
    <polygon id="_13" data-name="13" class="cls-2" points="596.55 1778.49 596.55 1633.86 471.3 1561.55 346.05 1633.86 346.05 1778.49 471.3 1850.8 596.55 1778.49"/>
    <polygon id="s29" class="cls-1" points="314.55 2565.33 232.05 2479.08 110.55 2549.58 223.05 2617.08 314.55 2565.33"/>
    <polygon id="_23" data-name="23" class="cls-2" points="353.06 2689.1 353.06 2549.08 231.81 2479.08 110.55 2549.08 110.55 2689.1 231.81 2759.1 353.06 2689.1"/>
    <polygon id="s27" class="cls-1" points="410.55 2618.58 409.05 2723.58 353.55 2686.08 353.55 2549.58 410.55 2618.58"/>
    <polygon id="s28" class="cls-1" points="314.55 2564.58 410.55 2618.58 353.55 2549.58 232.05 2479.08 314.55 2564.58"/>
    <polygon id="_19" data-name="19" class="cls-2" points="471.36 2472.12 471.36 2328.76 347.21 2257.08 223.05 2328.76 223.05 2472.12 347.21 2543.8 471.36 2472.12"/>
    <polygon id="s26" class="cls-1" points="31.05 2014.08 223.05 2293.08 314.55 2236.08 173.55 1936.08 31.05 2014.08"/>
    <polygon id="_15" data-name="15" class="cls-2" points="461.55 1963.97 461.55 1809.76 328 1732.65 194.45 1809.76 194.45 1963.97 328 2041.08 461.55 1963.97"/>
    <polygon id="s42" class="cls-1" points="824.55 1901.58 795.3 2018.58 896.55 2077.08 938.55 1967.58 824.55 1901.58"/>
    <polygon id="_8" data-name="8" class="cls-2" points="1052.55 1901.39 1052.55 1769.76 938.55 1703.94 824.55 1769.76 824.55 1901.39 938.55 1967.21 1052.55 1901.39"/>
    <polygon id="s2" class="cls-1" points="869.55 1094.58 1007.55 1015.08 874.05 1252.08 848.55 1229.58 869.55 1094.58"/>
    <polygon id="_6" data-name="6" class="cls-2" points="844.36 1486.18 844.36 1343.11 720.46 1271.58 596.55 1343.11 596.55 1486.18 720.46 1557.72 844.36 1486.18"/>
    <polygon id="s45" class="cls-1" points="464.55 1667.58 472.05 1708.08 595.05 1778.58 595.8 1742.58 464.55 1667.58"/>
    <polygon id="_12" data-name="12" class="cls-2" points="727.05 1666.8 727.05 1515.24 595.8 1439.47 464.55 1515.24 464.55 1666.8 595.8 1742.58 727.05 1666.8"/>
    <polygon id="_11" data-name="11" class="cls-2" points="859.55 1768.65 859.55 1616.81 728.05 1540.89 596.55 1616.81 596.55 1768.65 728.05 1844.58 859.55 1768.65"/>
    <polygon id="s100" class="cls-1" points="859.05 1765.08 728.55 1840.08 694.05 2078.58 794.55 2020.08 859.05 1765.08"/>
    <polygon id="s49" class="cls-1" points="745.05 1886.58 688.05 2234.58 595.04 2288.58 595.8 1972.08 745.05 1886.58"/>
    <polygon id="s4" class="cls-1" points="727.05 1514.58 754.05 1327.08 755.55 1504.08 728.55 1667.58 727.05 1514.58"/>
    <polygon id="_17" data-name="17" class="cls-2" points="1009.05 2354.45 1009.05 2234.94 905.55 2175.18 802.05 2234.94 802.05 2354.45 905.55 2414.2 1009.05 2354.45"/>
    <polygon id="s34" class="cls-1" points="1144.05 1252.08 1070.55 1340.58 1069.05 1324.08 1043.55 1310.58 1144.05 1252.08"/>
    <polygon id="_3" data-name="3" class="cls-2" points="433.05 1161.42 433.05 975.23 271.8 882.13 110.55 975.23 110.55 1161.42 271.8 1254.52 433.05 1161.42"/>
    <polygon id="_4" data-name="4" class="cls-2" points="1144.05 1252.57 1144.05 1094.08 1006.8 1014.84 869.55 1094.08 869.55 1252.57 1006.8 1331.81 1144.05 1252.57"/>
    <polygon id="s107" class="cls-1" points="1069.05 2284.08 875.55 2468.58 781.05 2522.58 911.55 2374.08 1069.05 2284.08"/>
    <polygon id="s106" class="cls-1" points="752.55 2284.08 911.55 2374.08 781.05 2522.58 689.55 2471.58 727.32 2359.17 752.55 2284.08"/>
    <polygon id="s65" class="cls-1" points="328.05 2023.08 328.05 2180.93 314.55 2170.08 314.55 2006.58 328.05 2023.08"/>
    <polygon id="s21" class="cls-1" points="781.05 2402.58 689.55 2456.58 752.55 2186.58 910.05 2095.08 781.05 2402.58"/>
    <polygon id="s30" class="cls-1" points="727.05 2207.58 727.05 2359.08 752.55 2282.58 752.55 2096.58 727.05 2207.58"/>
    <polygon id="s22" class="cls-1" points="689.55 2456.58 596.55 2405.58 595.05 2221.08 727.05 2297.58 689.55 2456.58"/>
    <polygon id="_24" data-name="24" class="cls-2" points="1069.05 2283.19 1069.05 2100.46 910.8 2009.09 752.55 2100.46 752.55 2283.19 910.8 2374.56 1069.05 2283.19"/>
    <polygon id="s102" class="cls-1" points="31.05 2177.58 226.05 2404.08 226.05 2327.58 172.05 2260.08 31.05 2177.58"/>
    <polygon id="_21" data-name="21" class="cls-2" points="314.55 2177.66 314.55 2013.99 172.8 1932.15 31.05 2013.99 31.05 2177.66 172.8 2259.5 314.55 2177.66"/>
    <polygon id="s64" class="cls-1" points="172.05 2260.08 314.55 2177.58 347.55 2255.58 226.05 2327.58 172.05 2260.08"/>
    <polygon id="s47" class="cls-1" points="755.55 1504.08 911.55 1597.08 859.05 1739.58 727.05 1666.08 755.55 1504.08"/>
    <polygon id="s46" class="cls-1" points="1069.05 1507.08 911.55 1597.08 859.05 1742.58 859.55 1827.55 938.55 1781.58 1069.05 1507.08"/>
    <polygon id="s44" class="cls-1" points="266.55 1552.08 346.05 1778.58 472.05 1708.08 430.05 1457.58 266.55 1552.08"/>
    <polygon id="s5" class="cls-1" points="464.55 1667.58 430.05 1457.58 430.05 1267.08 464.55 1514.58 464.55 1667.58"/>
    <polygon id="s37" class="cls-1" points="193.05 2752.08 232.05 2759.58 353.55 2689.08 328.05 2672.58 193.05 2752.08"/>
    <polygon id="s108" class="cls-1" points="328.05 2834.58 374.55 2806.08 478.05 2746.08 461.55 2758.08 328.05 2834.58"/>
    <polygon id="_29" data-name="29" class="cls-2" points="461.55 2756.84 461.55 2601.82 327.3 2524.31 193.05 2601.82 193.05 2756.84 327.3 2834.34 461.55 2756.84"/>
    <polygon id="s104" class="cls-1" points="410.55 2573.58 478.05 2612.58 595.05 2545.08 593.55 2467.08 410.55 2573.58"/>
    <polygon id="_7" data-name="7" class="cls-2" points="1069.05 1506.38 1069.05 1324.99 911.97 1234.3 754.88 1324.99 754.88 1506.38 911.97 1597.08 1069.05 1506.38"/>
    <polygon id="s105" class="cls-1" points="689.55 2471.58 593.55 2527.08 595.05 2435.58 727.05 2359.08 689.55 2471.58"/>
    <polygon id="_22" data-name="22" class="cls-2" points="727.05 2359.1 727.05 2207.55 595.8 2131.77 464.55 2207.55 464.55 2359.1 595.8 2434.88 727.05 2359.1"/>
    <polygon id="s103" class="cls-1" points="461.55 2602.08 461.55 2756.58 478.05 2746.08 478.05 2612.58 461.55 2602.08"/>
    <polygon id="s101" class="cls-1" points="278.55 2098.08 347.55 2257.08 472.05 2327.58 436.05 2189.58 278.55 2098.08"/>
    <polygon id="s99" class="cls-1" points="341.55 1457.58 272.55 1255.08 110.55 1162.08 214.05 1373.58 341.55 1457.58"/>
    <polygon id="_18" data-name="18" class="cls-2" points="430.05 1457.27 430.05 1267.61 265.8 1172.78 101.55 1267.61 101.55 1457.27 265.8 1552.1 430.05 1457.27"/>
    <polygon id="_20" data-name="20" class="cls-2" points="595.04 2098.08 595.04 1915.08 436.56 1823.58 278.07 1915.08 278.07 2098.08 436.56 2189.58 595.04 2098.08"/>
    <polygon id="_30" data-name="30" class="cls-2" points="593.55 2467.41 593.55 2255.24 409.8 2149.15 226.05 2255.24 226.05 2467.41 409.8 2573.5 593.55 2467.41"/>
    <polygon id="s98" class="cls-1" points="433.05 974.58 487.05 1384.08 487.05 1499.58 433.05 1162.08 433.05 974.58"/>
    <polygon id="_16" data-name="16" class="cls-2" points="745.05 1881.99 745.05 1709.66 595.8 1623.49 446.55 1709.66 446.55 1881.99 595.8 1968.16 745.05 1881.99"/>
    <polygon id="s11" class="cls-1" points="461.55 1820.58 461.55 1768.08 328.05 1690.08 352.05 1751.58 461.55 1820.58"/>
    <polygon id="s10" class="cls-1" points="194.55 1768.08 232.05 1820.58 352.05 1751.58 328.05 1690.08 194.55 1768.08"/>
    <polygon id="s6" class="cls-1" points="728.55 1775.58 745.05 1708.08 596.55 1624.08 596.55 1699.08 728.55 1775.58"/>
    <polygon id="s12" class="cls-1" points="596.55 1652.58 596.55 1622.58 446.55 1708.08 470.55 1724.58 596.55 1652.58"/>
    <polygon id="s25" class="cls-1" points="595.05 1982.58 464.55 1906.08 436.05 1826.58 593.55 1918.08 595.05 1982.58"/>
    <polygon id="s24" class="cls-1" points="461.55 1897.08 328.05 1972.08 278.55 1916.58 436.05 1826.58 461.55 1897.08"/>
    <polygon id="s31" class="cls-1" points="328.05 2029.08 314.55 2012.58 173.55 1930.08 194.55 1952.58 328.05 2029.08"/>
    <polygon id="s38" class="cls-1" points="472.05 2323.08 347.55 2395.08 226.05 2255.58 410.55 2149.08 472.05 2323.08"/>
    <polygon id="_25" data-name="25" class="cls-2" points="1009.68 3067.08 1009.68 2948.08 906.62 2888.58 803.55 2948.08 803.55 3067.08 906.62 3126.59 1009.68 3067.08"/>
    <polygon id="s63" class="cls-1" points="883.05 2930.58 973.05 2981.58 1015.05 2959.08 913.05 2899.08 883.05 2930.58"/>
    <polygon id="_1" data-name="1" class="cls-3" points="594.72 1051.08 141.38 789.34 142.05 265.08 595.05 2.58 1048.05 265.08 1048.05 789.34 594.72 1051.08"/>
    <polygon id="xx05" class="cls-1" points="331.05 3322.08 347.55 3329.58 472.05 3401.58 463.05 3398.58 331.05 3322.08"/>
    <polygon id="xx01" class="cls-1" points="727.05 4006.08 689.55 3959.58 595.05 4013.58 595.05 4081.65 727.05 4006.08"/>
    <polygon id="xx02" class="cls-1" points="727.05 3854.58 721.05 3833.58 598.05 3761.58 598.05 3779.84 727.05 3854.58"/>
    <polygon id="xx03" class="cls-1" points="721.05 3548.58 715.05 3542.58 830.55 3610.08 844.05 3620.58 721.05 3548.58"/>
    <polygon id="xx04" class="cls-1" points="712.05 3541.08 721.05 3548.58 598.05 3620.58 596.55 3607.08 712.05 3541.08"/>
    <polygon id="xxx07" class="cls-1" points="803.55 3358.08 830.55 3343.08 715.05 3410.58 698.55 3419.58 803.55 3358.08"/>
    <polygon id="xxx06" class="cls-1" points="596.55 3359.58 596.55 3343.08 712.05 3409.08 698.55 3421.08 596.55 3359.58"/>
    <polygon id="s51" class="cls-1" points="593.55 2257.08 409.05 2150.58 463.05 2180.58 595.05 2257.08 593.55 2257.08"/>
    <polygon id="yy1" class="cls-1" points="502.05 3202.08 413.55 3256.08 349.05 3290.58 471.8 3219.33 502.05 3202.08"/>
    <polygon id="yy2" class="cls-1" points="230.55 3214.08 316.05 3205.08 413.55 3256.08 353.55 3284.58 230.55 3214.08"/>
    <polygon id="yy3" class="cls-1" points="109.05 3284.58 224.55 3256.08 316.05 3205.08 230.55 3215.58 109.05 3284.58"/>
    <polygon id="yy4" class="cls-1" points="349.05 3425.58 331.05 3454.08 197.55 3530.58 230.55 3493.08 349.05 3425.58"/>
    <polygon id="yy5" class="cls-1" points="316.05 3527.58 224.55 3580.08 88.05 3731.58 215.55 3658.08 316.05 3527.58"/>
    <polygon id="c1" class="cls-3" points="597.34 5510.58 210.38 5287.16 210.96 4839.66 597.63 4615.59 984.3 4839.66 984.3 5287.16 597.34 5510.58"/>
    <polygon id="k01" class="cls-1" points="598.05 4408.08 598.05 4615.08 985.05 4840.08 832.05 4415.58 713.55 4340.58 598.05 4408.08"/>
    <polygon id="k02" class="cls-1" points="482.55 4340.58 328.05 4558.08 211.05 4840.08 598.05 4615.08 598.05 4408.08 482.55 4340.58"/>
  </g>
</svg>
