<svg id="_00landingstage" data-name="00landingstage" xmlns="http://www.w3.org/2000/svg" width="1200" height="5600" viewBox="0 0 1200 5600">
  <defs>
    <style>
      .cls-1 {
        fill: #f2f2f2;
      }

      .cls-1, .cls-2, .cls-3 {
        stroke: #000;
        stroke-miterlimit: 10;
      }

      .cls-2, .cls-3 {
        fill: #fff;
      }

      .cls-3 {
        stroke-width: 2px;
      }
    </style>
  </defs>
  <title>aartics_polygons_vertical</title>
  <polygon id="xx03" class="cls-1" points="721.1 3970.96 712.1 3942.46 830.6 4011.46 844.1 4042.96 721.1 3970.96"/>
  <polygon id="xx04" class="cls-1" points="712.1 3940.96 721.1 3970.96 596.6 4042.96 596.6 4006.96 712.1 3940.96"/>
  <polygon id="s8" class="cls-1" points="896.6 2193.46 796.1 2250.46 802.1 2272.96 905.6 2212.96 896.6 2193.46"/>
  <polygon id="xx01" class="cls-1" points="727.1 4420.96 689.6 4374.46 595.1 4428.46 595.1 4496.53 727.1 4420.96"/>
  <polygon id="xx02" class="cls-1" points="727.1 4272.46 719.6 4255.96 596.6 4183.96 598.1 4197.72 727.1 4272.46"/>
  <polygon id="yy5" class="cls-1" points="316.1 3747.46 224.59 3799.96 86.59 4077.46 214.09 4003.96 316.1 3747.46"/>
  <polygon id="yy4" class="cls-1" points="356.6 3739.96 331.1 3823.96 197.59 3900.46 230.59 3814.96 356.6 3739.96"/>
  <polygon id="xxx07" class="cls-1" points="803.6 3633.46 830.6 3718.96 715.1 3786.46 698.6 3694.96 803.6 3633.46"/>
  <polygon id="xxx06" class="cls-1" points="596.6 3633.46 596.6 3705.46 712.1 3771.46 698.6 3694.96 596.6 3633.46"/>
  <polygon id="yy3" class="cls-1" points="109.09 3694.96 224.59 3468.46 316.1 3417.46 230.59 3625.96 109.09 3694.96"/>
  <polygon id="yy1" class="cls-1" points="502.1 3421.96 413.6 3475.96 349.1 3627.46 467.35 3559.21 502.1 3421.96"/>
  <polygon id="s103" class="cls-1" points="461.6 2946.46 461.6 3100.96 478.1 2968.96 478.1 2821.96 461.6 2946.46"/>
  <polygon id="s23" class="cls-1" points="596.6 2310.46 502.1 2362.96 464.6 2473.96 595.1 2397.46 596.6 2310.46"/>
  <polygon id="s48" class="cls-1" points="692.6 2172.46 697.1 2194.96 799.1 2253.46 784.1 2226.46 692.6 2172.46"/>
  <polygon id="s43" class="cls-1" points="101.59 2031.46 229.09 1972.96 344.6 2038.96 266.6 2125.96 101.59 2031.46"/>
  <polygon id="s53" class="cls-1" points="110.59 2113.96 232.09 2184.46 314.6 2085.46 223.09 2032.96 110.59 2113.96"/>
  <polygon id="s45" class="cls-1" points="463.1 1939.96 473.6 1929.46 598.1 2001.46 598.1 2016.46 463.1 1939.96"/>
  <polygon id="s34" class="cls-1" points="1144.1 1714.96 1082.6 1722.46 1067.6 1729.96 1067.6 1759.96 1144.1 1714.96"/>
  <polygon id="s47" class="cls-1" points="755.6 2013.46 911.6 2103.46 872.6 2011.96 740.6 1942.96 755.6 2013.46"/>
  <polygon id="s46" class="cls-1" points="1069.1 2011.96 911.6 2101.96 911.6 2101.96 781.1 1987.96 875.6 1933.96 1069.1 2011.96"/>
  <polygon id="s99" class="cls-1" points="340.1 1516.96 271.1 1555.96 109.09 1462.96 212.59 1443.46 340.1 1516.96"/>
  <polygon id="s110" class="cls-1" points="878.6 2046.46 877.1 2152.96 899.6 2185.96 899.6 2070.46 878.6 2046.46"/>
  <polygon id="s28" class="cls-1" points="314.6 2469.46 410.6 2523.46 353.6 2892.46 232.09 2821.96 314.6 2469.46"/>
  <polygon id="s65" class="cls-1" points="328.1 2415.46 328.1 2565.82 314.6 2616.46 314.6 2452.96 328.1 2415.46"/>
  <polygon id="s63" class="cls-1" points="877.1 3090.46 967.1 3141.46 1009.1 3192.46 907.1 3132.46 877.1 3090.46"/>
  <polygon id="_25" data-name="25" class="cls-2" points="1009.72 3310.97 1009.72 3191.96 906.66 3132.46 803.6 3191.96 803.6 3310.97 906.66 3370.47 1009.72 3310.97"/>
  <polygon id="s41" class="cls-1" points="803.6 2635.96 689.6 2683.96 710.6 3055.96 829.1 2988.46 803.6 2635.96"/>
  <polygon id="s88" class="cls-1" points="727.1 4344.46 727.1 4192.96 757.1 4353.46 757.1 4534.96 727.1 4344.46"/>
  <polygon id="s40" class="cls-1" points="595.1 2982.46 710.6 3049.96 689.6 2683.96 596.6 2628.46 595.1 2982.46"/>
  <polygon id="s52" class="cls-1" points="803.6 2628.46 910.1 2691.46 946.1 3055.96 829.1 2988.46 803.6 2628.46"/>
  <polygon id="s60" class="cls-1" points="475.1 3466.96 485.6 3403.96 377.6 3342.46 356.6 3399.46 475.1 3466.96"/>
  <polygon id="s62" class="cls-1" points="214.09 3114.46 314.6 3088.96 214.09 3228.46 86.59 3301.96 214.09 3114.46"/>
  <polygon id="s57" class="cls-1" points="803.6 3310.96 907.1 3370.96 1069.1 3715.96 911.6 3625.96 803.6 3310.96"/>
  <polygon id="s56" class="cls-1" points="718.1 3502.96 842.6 3430.84 911.6 3625.96 754.1 3715.96 718.1 3502.96"/>
  <polygon id="s94" class="cls-1" points="319.1 4063.96 227.59 4116.46 112.09 4335.46 232.09 4266.46 319.1 4063.96"/>
  <polygon id="_50" data-name="50" class="cls-2" points="949.1 4565.12 949.1 4430.02 832.09 4362.46 715.08 4430.02 715.08 4565.12 832.09 4632.68 949.1 4565.12"/>
  <polygon id="_49" data-name="49" class="cls-2" points="713.6 4552.15 713.6 4418.78 598.1 4352.09 482.6 4418.78 482.6 4552.15 598.1 4618.83 713.6 4552.15"/>
  <polygon id="_48" data-name="48" class="cls-2" points="463.1 4691.22 463.1 4536.2 328.85 4458.69 194.59 4536.2 194.59 4691.22 328.85 4768.73 463.1 4691.22"/>
  <polygon id="s85" class="cls-1" points="233.59 4453.96 194.59 4536.46 329.6 4458.46 353.6 4384.96 233.59 4453.96"/>
  <polygon id="s66" class="cls-1" points="470.6 4482.46 463.1 4536.46 329.6 4458.46 346.1 4410.46 470.6 4482.46"/>
  <polygon id="_42" data-name="42" class="cls-2" points="353.6 4474.93 353.6 4335.5 232.84 4265.78 112.09 4335.5 112.09 4474.93 232.84 4544.64 353.6 4474.93"/>
  <polygon id="_51" data-name="51" class="cls-2" points="1090.1 4399.29 1090.1 4258.13 967.85 4187.55 845.6 4258.13 845.6 4399.29 967.85 4469.87 1090.1 4399.29"/>
  <polygon id="s87" class="cls-1" points="689.6 4056.46 782.6 4116.46 914.6 4624.96 757.1 4534.96 689.6 4056.46"/>
  <polygon id="s90" class="cls-1" points="782.6 4224.46 832.1 4362.46 715.1 4429.96 689.6 4279.96 782.6 4224.46"/>
  <polygon id="s92" class="cls-1" points="844.1 4080.46 914.6 4263.46 1070.6 4356.46 976.1 4158.46 844.1 4080.46"/>
  <polygon id="s91" class="cls-1" points="721.1 4143.46 757.1 4353.46 913.1 4263.46 844.1 4071.46 721.1 4143.46"/>
  <polygon id="s89" class="cls-1" points="689.6 4279.96 713.6 4419.46 598.1 4351.96 596.6 4224.46 689.6 4279.96"/>
  <polygon id="s84" class="cls-1" points="343.1 4090.96 358.1 4042.96 241.09 4110.46 215.59 4164.46 343.1 4090.96"/>
  <polygon id="s82" class="cls-1" points="463.1 4042.96 482.6 3909.46 379.1 3988.96 331.1 4122.46 463.1 4042.96"/>
  <polygon id="s80" class="cls-1" points="482.6 3754.96 597.29 3820.96 598.1 3810.46 491.6 3750.46 482.6 3754.96"/>
  <polygon id="s79" class="cls-1" points="463.1 3891.46 482.6 3771.46 482.6 3904.96 463.1 4045.96 463.1 3891.46"/>
  <polygon id="s78" class="cls-1" points="596.6 3645.46 596.6 3625.96 482.6 3691.96 472.1 3717.46 596.6 3645.46"/>
  <polygon id="s77" class="cls-1" points="109.09 3832.96 229.09 3901.96 316.1 3823.96 223.09 3774.46 109.09 3832.96"/>
  <polygon id="s76" class="cls-1" points="946.1 3828.46 875.6 3741.46 782.6 3795.46 830.6 3895.96 946.1 3828.46"/>
  <polygon id="s75" class="cls-1" points="1088.6 3751.96 967.1 3691.96 875.6 3745.96 967.1 3822.46 1088.6 3751.96"/>
  <polygon id="s73" class="cls-1" points="844.1 3732.46 803.6 3711.46 803.6 3828.46 844.1 3873.46 844.1 3732.46"/>
  <polygon id="s70" class="cls-1" points="725.6 3430.96 689.6 3412.96 596.6 3468.46 593.6 3507.46 725.6 3430.96"/>
  <polygon id="s68" class="cls-1" points="712.1 3775.96 715.1 3780.46 715.1 3912.46 712.1 3909.46 712.1 3775.96"/>
  <polygon id="s67" class="cls-1" points="482.6 4551.46 463.1 4690.96 463.1 4554.46 482.6 4419.46 482.6 4551.46"/>
  <polygon id="s93" class="cls-1" points="358.1 4314.46 353.6 4335.46 232.09 4266.46 241.09 4246.69 358.1 4314.46"/>
  <polygon id="s58" class="cls-1" points="718.1 3502.96 725.6 3552.46 593.6 3475.96 593.6 3430.84 718.1 3502.96"/>
  <polygon id="s35" class="cls-1" points="710.6 3184.96 718.1 3214.96 593.6 3286.96 593.6 3250.96 710.6 3184.96"/>
  <polygon id="s36" class="cls-1" points="710.6 3192.46 829.1 3259.96 842.6 3286.96 718.1 3214.96 710.6 3192.46"/>
  <polygon id="_39" data-name="39" class="cls-2" points="712.1 3904.68 712.1 3772.11 597.29 3705.82 482.48 3772.11 482.48 3904.68 597.29 3970.96 712.1 3904.68"/>
  <polygon id="_41" data-name="41" class="cls-2" points="596.6 3763.84 596.6 3620.08 472.1 3548.2 347.6 3620.08 347.6 3763.84 472.1 3835.72 596.6 3763.84"/>
  <polygon id="s83" class="cls-1" points="343.1 3942.46 379.1 3868.96 379.1 3988.96 343.1 4089.46 343.1 3942.46"/>
  <polygon id="_37" data-name="37" class="cls-2" points="946.1 3919.14 946.1 3785.78 830.6 3719.09 715.1 3785.78 715.1 3919.14 830.6 3985.83 946.1 3919.14"/>
  <polygon id="s86" class="cls-1" points="725.6 4194.46 755.6 4353.46 755.6 4534.96 725.6 4345.96 725.6 4194.46"/>
  <polygon id="_44" data-name="44" class="cls-2" points="1069.1 4534.71 1069.1 4353.71 912.35 4263.21 755.6 4353.71 755.6 4534.71 912.35 4625.21 1069.1 4534.71"/>
  <polygon id="_43" data-name="43" class="cls-2" points="593.6 4515.34 593.6 4371.58 469.1 4299.7 344.6 4371.58 344.6 4515.34 469.1 4587.22 593.6 4515.34"/>
  <polygon id="_47" data-name="47" class="cls-2" points="341.6 4089.57 341.6 3942.35 214.09 3868.74 86.59 3942.35 86.59 4089.57 214.09 4163.19 341.6 4089.57"/>
  <polygon id="s81" class="cls-1" points="196.09 4018.96 214.09 4015.96 341.6 4089.46 328.1 4095.46 196.09 4018.96"/>
  <polygon id="_26" data-name="26" class="cls-2" points="710.6 3183.71 710.6 3049.48 594.35 2982.36 478.1 3049.48 478.1 3183.71 594.35 3250.83 710.6 3183.71"/>
  <polygon id="s51" class="cls-1" points="593.6 2940.46 409.1 2833.96 464.6 2712.46 596.6 2788.96 593.6 2940.46"/>
  <polygon id="_27" data-name="27" class="cls-2" points="946.1 3192.19 946.1 3056.23 828.35 2988.24 710.6 3056.23 710.6 3192.19 828.35 3260.18 946.1 3192.19"/>
  <polygon id="_28" data-name="28" class="cls-2" points="842.6 3430.84 842.6 3287.08 718.1 3215.2 593.6 3287.08 593.6 3430.84 718.1 3502.72 842.6 3430.84"/>
  <polygon id="yy2" class="cls-1" points="230.59 3625.96 316.1 3417.46 413.6 3468.46 349.1 3694.96 230.59 3625.96"/>
  <polygon id="_32" data-name="32" class="cls-2" points="350.6 3832.93 350.6 3693.5 229.84 3623.78 109.09 3693.5 109.09 3832.93 229.84 3902.64 350.6 3832.93"/>
  <polygon id="s74" class="cls-1" points="842.6 3775.96 829.1 3763.96 944.6 3828.46 965.6 3846.46 842.6 3775.96"/>
  <polygon id="_38" data-name="38" class="cls-2" points="1088.6 3887.02 1088.6 3746.14 966.59 3675.7 844.58 3746.14 844.58 3887.02 966.59 3957.46 1088.6 3887.02"/>
  <polygon id="s97" class="cls-1" points="379.1 3988.96 359.6 4042.96 476.6 4110.46 487.1 4048.96 379.1 3988.96"/>
  <polygon id="_45" data-name="45" class="cls-2" points="476.6 4246.69 476.6 4110.73 358.85 4042.74 241.09 4110.73 241.09 4246.69 358.85 4314.68 476.6 4246.69"/>
  <polygon id="s95" class="cls-1" points="476.6 4246.96 470.6 4299.46 346.1 4371.46 358.1 4314.46 476.6 4246.96"/>
  <polygon id="s96" class="cls-1" points="462.4 4192.96 484.9 4048.96 595.1 3988.96 594.4 4116.46 462.4 4192.96"/>
  <polygon id="_46" data-name="46" class="cls-2" points="725.6 4344.26 725.6 4192.7 594.35 4116.93 463.1 4192.7 463.1 4344.26 594.35 4420.03 725.6 4344.26"/>
  <polygon id="_36" data-name="36" class="cls-2" points="842.6 4185.98 842.6 4043.95 719.6 3972.93 596.6 4043.95 596.6 4185.98 719.6 4256.99 842.6 4185.98"/>
  <polygon id="s71" class="cls-1" points="460.1 3699.46 502.1 3682.96 592.1 3738.46 592.1 3777.46 460.1 3699.46"/>
  <polygon id="s69" class="cls-1" points="911.6 3988.96 875.6 3798.46 725.6 3703.96 754.1 3898.96 911.6 3988.96"/>
  <polygon id="s55" class="cls-1" points="725.6 3703.96 754.1 3898.96 754.1 3715.96 724.9 3551.97 725.6 3703.96"/>
  <polygon id="s72" class="cls-1" points="1067.6 3895.96 965.6 3880.96 842.6 3951.46 910.1 3985.96 1067.6 3895.96"/>
  <polygon id="_31" data-name="31" class="cls-2" points="1069.1 3898.39 1069.1 3716.53 911.6 3625.6 754.1 3716.53 754.1 3898.39 911.6 3989.33 1069.1 3898.39"/>
  <polygon id="_17" data-name="17" class="cls-2" points="1009.1 2392.83 1009.1 2273.32 905.6 2213.57 802.1 2273.32 802.1 2392.83 905.6 2452.59 1009.1 2392.83"/>
  <polygon id="s50" class="cls-1" points="595.1 2727.46 595.1 2559.46 472.1 2632.96 436.1 2818.96 595.1 2727.46"/>
  <polygon id="s29" class="cls-1" points="314.6 2469.46 232.09 2821.96 110.59 2892.46 223.09 2523.46 314.6 2469.46"/>
  <polygon id="s27" class="cls-1" points="410.6 2523.46 410.6 2629.96 353.6 3031.96 353.6 2892.46 410.6 2523.46"/>
  <polygon id="_19" data-name="19" class="cls-2" points="471.41 2722.01 471.41 2578.64 347.25 2506.96 223.09 2578.64 223.09 2722.01 347.25 2793.69 471.41 2722.01"/>
  <polygon id="s102" class="cls-1" points="31.09 2617.96 226.09 2578.96 226.09 2668.96 172.09 2700.46 31.09 2617.96"/>
  <polygon id="s64" class="cls-1" points="173.59 2700.46 314.6 2616.46 328.1 2565.46 226.09 2616.46 173.59 2700.46"/>
  <polygon id="s108" class="cls-1" points="328.1 3178.96 374.6 3039.46 482.6 2971.96 461.6 3100.96 328.1 3178.96"/>
  <polygon id="_23" data-name="23" class="cls-2" points="353.11 3031.98 353.11 2891.97 231.85 2821.96 110.59 2891.97 110.59 3031.98 231.85 3101.99 353.11 3031.98"/>
  <polygon id="_33" data-name="33" class="cls-2" points="475.01 3603.34 475.01 3467.42 357.3 3399.46 239.59 3467.42 239.59 3603.34 357.3 3671.29 475.01 3603.34"/>
  <polygon id="_34" data-name="34" class="cls-2" points="340.1 3447.89 340.1 3301.53 213.34 3228.35 86.59 3301.53 86.59 3447.89 213.34 3521.07 340.1 3447.89"/>
  <polygon id="s61" class="cls-1" points="377.6 3217.96 377.6 3342.46 357.25 3399.44 340.1 3447.46 340.1 3301.96 377.6 3217.96"/>
  <polygon id="_29" data-name="29" class="cls-2" points="461.6 3228.72 461.6 3073.7 327.35 2996.19 193.09 3073.7 193.09 3228.72 327.35 3306.23 461.6 3228.72"/>
  <polygon id="s37" class="cls-1" points="193.09 3073.96 232.09 2991.46 356.6 2919.46 326.6 2995.96 193.09 3073.96"/>
  <polygon id="s59" class="cls-1" points="593.6 3475.96 461.6 3552.46 485.6 3403.96 593.25 3342.46 593.6 3475.96"/>
  <polygon id="_35" data-name="35" class="cls-2" points="724.9 3703.99 724.9 3551.97 593.25 3475.96 461.6 3551.97 461.6 3703.99 593.25 3780 724.9 3703.99"/>
  <polygon id="s38" class="cls-1" points="466.1 2712.46 347.6 2793.46 226.09 2940.46 410.6 2836.96 466.1 2712.46"/>
  <polygon id="s107" class="cls-1" points="1069.1 3001.96 875.6 2742.46 781.1 2797.96 911.6 3093.46 1069.1 3001.96"/>
  <polygon id="s106" class="cls-1" points="752.6 3001.96 911.6 3093.46 809.6 2853.46 727.1 2790.46 727.1 2790.46 752.6 3001.96"/>
  <polygon id="s20" class="cls-1" points="911.6 2727.46 809.6 2397.46 905.6 2452.96 1069.1 2818.96 911.6 2727.46"/>
  <polygon id="s21" class="cls-1" points="781.1 2307.46 689.6 2361.46 752.6 2818.96 911.6 2727.46 781.1 2307.46"/>
  <polygon id="s30" class="cls-1" points="689.6 2361.46 689.6 2472.46 752.6 3000.46 752.6 2818.96 689.6 2361.46"/>
  <polygon id="s22" class="cls-1" points="689.6 2361.46 596.6 2310.46 595.85 2560.16 727.1 2635.93 689.6 2361.46"/>
  <polygon id="s105" class="cls-1" points="689.6 2770.96 593.6 2826.46 595.1 2863.96 727.1 2790.46 689.6 2770.96"/>
  <polygon id="_22" data-name="22" class="cls-2" points="727.1 2787.49 727.1 2635.93 595.85 2560.16 464.6 2635.93 464.6 2787.49 595.85 2863.27 727.1 2787.49"/>
  <polygon id="s101" class="cls-1" points="278.6 2727.46 354.35 2573.71 472.1 2632.96 436.1 2818.96 278.6 2727.46"/>
  <polygon id="s104" class="cls-1" points="410.6 3261.46 478.1 3066.46 595.1 2998.96 593.6 3154.96 410.6 3261.46"/>
  <polygon id="_30" data-name="30" class="cls-2" points="593.6 3153.8 593.6 2941.62 409.85 2835.53 226.09 2941.62 226.09 3153.8 409.85 3259.89 593.6 3153.8"/>
  <polygon id="s33" class="cls-1" points="1048.1 1297.96 595.1 1558.96 595.1 1558.96 689.6 1503.46 1048.1 1297.96"/>
  <polygon id="s32" class="cls-1" points="142.09 1297.96 485.6 1495.96 595.1 1558.96 595.1 1558.96 142.09 1297.96"/>
  <polygon id="s98" class="cls-1" points="428.6 1275.46 482.6 1378.96 482.6 1494.46 428.6 1462.96 428.6 1275.46"/>
  <polygon id="s17" class="cls-1" points="596.6 1699.96 596.6 1710.46 727.1 1786.13 721.1 1771.96 596.6 1699.96"/>
  <polygon id="s16" class="cls-1" points="596.6 1680.46 487.1 1744.96 464.6 1785.46 596.6 1710.46 596.6 1680.46"/>
  <polygon id="s15" class="cls-1" points="379.1 1681.96 379.1 1557.46 341.6 1557.46 341.6 1702.96 379.1 1681.96"/>
  <polygon id="s11" class="cls-1" points="472.1 2208.46 462.87 2253.52 328.1 2175.46 346.1 2136.46 472.1 2208.46"/>
  <polygon id="s26" class="cls-1" points="31.09 2452.96 223.09 2200.96 314.6 2148.46 173.59 2371.96 31.09 2452.96"/>
  <polygon id="s25" class="cls-1" points="595.85 2498.55 446.6 2412.46 436.1 2452.96 595.1 2544.46 595.85 2498.55"/>
  <polygon id="s10" class="cls-1" points="194.59 2253.46 230.59 2184.46 358.1 2112.46 328.1 2175.46 194.59 2253.46"/>
  <polygon id="s9" class="cls-1" points="886.1 2172.46 905.6 2212.96 1009.1 2272.96 983.6 2227.96 886.1 2172.46"/>
  <polygon id="s54" class="cls-1" points="1052.6 2083.96 983.6 2032.96 886.1 2088.46 938.6 2149.96 1052.6 2083.96"/>
  <polygon id="s7" class="cls-1" points="781.1 2196.46 781.1 2310.46 809.6 2397.46 802.1 2272.96 781.1 2196.46"/>
  <polygon id="_9" data-name="9" class="cls-2" points="1079.92 2172.01 1079.92 2060.1 983.01 2004.15 886.1 2060.1 886.1 2172.01 983.01 2227.96 1079.92 2172.01"/>
  <polygon id="s42" class="cls-1" points="823.1 2083.96 793.85 2039.8 895.1 2098.96 937.1 2149.96 823.1 2083.96"/>
  <polygon id="_10" data-name="10" class="cls-2" points="896.6 2192.67 896.6 2075.76 795.35 2017.3 694.1 2075.76 694.1 2192.67 795.35 2251.13 896.6 2192.67"/>
  <polygon id="s49" class="cls-1" points="745.11 2505.46 733.11 2434.96 595.1 2527.96 595.86 2590.96 745.11 2505.46"/>
  <polygon id="s6" class="cls-1" points="728.6 2241.46 745.1 2332.96 596.6 2247.46 596.6 2165.54 728.6 2241.46"/>
  <polygon id="s1" class="cls-1" points="950.6 1350.46 950.6 1488.46 898.1 1497.46 898.1 1383.83 950.6 1350.46"/>
  <polygon id="_5" data-name="5" class="cls-2" points="341.6 1703.19 341.6 1555.96 214.09 1482.35 86.59 1555.96 86.59 1703.19 214.09 1776.8 341.6 1703.19"/>
  <polygon id="s14" class="cls-1" points="430.1 1840.96 487.1 1744.96 379.1 1681.96 266.6 1746.46 430.1 1840.96"/>
  <polygon id="_2" data-name="2" class="cls-2" points="1187.6 1487.88 1187.6 1351.05 1069.1 1282.63 950.6 1351.05 950.6 1487.88 1069.1 1556.29 1187.6 1487.88"/>
  <polygon id="_14" data-name="14" class="cls-2" points="352.1 2115.43 352.1 1976 231.34 1906.28 110.59 1976 110.59 2115.43 231.34 2185.14 352.1 2115.43"/>
  <polygon id="_8" data-name="8" class="cls-2" points="1052.6 2085.28 1052.6 1953.64 938.6 1887.83 824.6 1953.64 824.6 2085.28 938.6 2151.1 1052.6 2085.28"/>
  <polygon id="s100" class="cls-1" points="859.1 2164.96 728.6 2241.46 694.1 2127.46 794.6 2068.96 859.1 2164.96"/>
  <polygon id="_13" data-name="13" class="cls-2" points="596.6 2136.37 596.6 1991.75 471.35 1919.43 346.1 1991.75 346.1 2136.37 471.35 2208.69 596.6 2136.37"/>
  <polygon id="s44" class="cls-1" points="262.1 2127.46 341.6 1998.46 460.1 1941.46 425.6 2032.96 262.1 2127.46"/>
  <polygon id="_15" data-name="15" class="cls-2" points="461.6 2407.36 461.6 2253.15 328.05 2176.04 194.5 2253.15 194.5 2407.36 328.05 2484.46 461.6 2407.36"/>
  <polygon id="s31" class="cls-1" points="328.1 2484.46 314.6 2452.96 173.59 2371.96 194.59 2407.96 328.1 2484.46"/>
  <polygon id="s12" class="cls-1" points="596.6 2136.46 596.6 2247.46 446.6 2332.96 472.1 2208.46 596.6 2136.46"/>
  <polygon id="_21" data-name="21" class="cls-2" points="314.6 2618.05 314.6 2454.37 172.84 2372.53 31.09 2454.37 31.09 2618.05 172.84 2699.89 314.6 2618.05"/>
  <polygon id="s24" class="cls-1" points="452.6 2413.96 319.1 2490.46 278.6 2544.46 436.1 2452.96 452.6 2413.96"/>
  <polygon id="s2" class="cls-1" points="898.1 1497.46 1009.1 1477.96 871.1 1555.96 797.6 1555.96 898.1 1497.46"/>
  <polygon id="_6" data-name="6" class="cls-2" points="844.4 1700.07 844.4 1557 720.5 1485.46 596.6 1557 596.6 1700.07 720.5 1771.61 844.4 1700.07"/>
  <polygon id="_11" data-name="11" class="cls-2" points="859.6 2165.54 859.6 2013.69 728.1 1937.77 596.6 2013.69 596.6 2165.54 728.1 2241.46 859.6 2165.54"/>
  <polygon id="s5" class="cls-1" points="464.6 1938.46 430.1 2031.46 430.1 1840.96 464.6 1783.96 464.6 1938.46"/>
  <polygon id="_4" data-name="4" class="cls-2" points="1145.6 1715.45 1145.6 1556.97 1008.35 1477.73 871.1 1556.97 871.1 1715.45 1008.35 1794.69 1145.6 1715.45"/>
  <polygon id="s19" class="cls-1" points="844.1 1555.96 844.1 1699.96 871.1 1714.96 871.1 1555.96 844.1 1555.96"/>
  <polygon id="s18" class="cls-1" points="911.6 1740.46 844.1 1699.96 721.1 1771.96 755.6 1831.96 911.6 1740.46"/>
  <polygon id="_12" data-name="12" class="cls-2" points="727.1 1937.68 727.1 1786.13 595.85 1710.35 464.6 1786.13 464.6 1937.68 595.85 2013.46 727.1 1937.68"/>
  <polygon id="s4" class="cls-1" points="727.1 1783.96 755.6 1831.96 755.6 2013.46 727.1 1938.46 727.1 1783.96"/>
  <polygon id="s3" class="cls-1" points="433.1 1464.46 271.1 1557.46 377.6 1557.46 485.6 1495.96 433.1 1464.46"/>
  <polygon id="_3" data-name="3" class="cls-2" points="433.1 1463.81 433.1 1277.61 271.85 1184.52 110.59 1277.61 110.59 1463.81 271.85 1556.91 433.1 1463.81"/>
  <polygon id="_24" data-name="24" class="cls-2" points="1069.1 3002.58 1069.1 2819.85 910.85 2728.48 752.6 2819.85 752.6 3002.58 910.85 3093.94 1069.1 3002.58"/>
  <polygon id="_7" data-name="7" class="cls-2" points="1069.1 2012.77 1069.1 1831.38 912.01 1740.68 754.92 1831.38 754.92 2012.77 912.01 2103.46 1069.1 2012.77"/>
  <polygon id="_18" data-name="18" class="cls-2" points="430.1 2031.16 430.1 1841.5 265.85 1746.67 101.59 1841.5 101.59 2031.16 265.85 2125.99 430.1 2031.16"/>
  <polygon id="_20" data-name="20" class="cls-2" points="595.08 2727.46 595.08 2544.46 436.6 2452.96 278.12 2544.46 278.12 2727.46 436.6 2818.96 595.08 2727.46"/>
  <polygon id="_16" data-name="16" class="cls-2" points="745.1 2505.38 745.1 2333.04 595.85 2246.87 446.6 2333.04 446.6 2505.38 595.85 2591.55 745.1 2505.38"/>
  <polygon id="_1" data-name="1" class="cls-2" points="594.76 1560.46 141.42 1298.73 142.09 774.46 595.1 511.96 1048.1 774.46 1048.1 1298.73 594.76 1560.46"/>
  <polygon id="xx05" class="cls-1" points="331.1 3814.96 347.6 3763.96 472.1 3835.96 463.1 3891.46 331.1 3814.96"/>
  <polygon id="_40" data-name="40" class="cls-2" points="463.1 4045.36 463.1 3892.07 330.35 3815.43 197.59 3892.07 197.59 4045.36 330.35 4122 463.1 4045.36"/>
  <polygon id="c1" class="cls-3" points="597.38 5415.46 210.42 5192.05 211 4744.54 597.67 4520.48 984.35 4744.54 984.35 5192.05 597.38 5415.46"/>
  <polygon id="k01" class="cls-1" points="598.1 4312.96 598.1 4519.96 985.1 4744.96 832.1 4320.46 713.6 4245.46 598.1 4312.96"/>
  <polygon id="k02" class="cls-1" points="482.6 4245.46 328.1 4462.96 211.09 4744.96 598.1 4519.96 598.1 4312.96 482.6 4245.46"/>
</svg>
