<svg xmlns="http://www.w3.org/2000/svg" width="1200" height="5600" viewBox="0 0 1200 5600">
  <defs>
    <style>
      .cls-1 {
        fill: #f2f2f2;
      }

      .cls-1, .cls-2, .cls-3 {
        stroke: #000;
        stroke-miterlimit: 10;
      }

      .cls-2, .cls-3 {
        fill: #fff;
      }

      .cls-3 {
        stroke-width: 2px;
      }
    </style>
  </defs>
  <title>aartics_polygons_vertical</title>
  <g id="_05stage" data-name="05stage">
    <polygon id="s63" class="cls-1" points="877.19 2879.49 967.19 2930.49 1009.19 2907.99 907.19 2847.99 877.19 2879.49"/>
    <polygon id="_25" data-name="25" class="cls-2" points="1009.82 3026.5 1009.82 2907.49 906.75 2847.99 803.69 2907.49 803.69 3026.5 906.75 3086 1009.82 3026.5"/>
    <polygon id="s41" class="cls-1" points="805.19 2661.99 703.19 2726.49 710.69 2670.99 829.19 2603.49 805.19 2661.99"/>
    <polygon id="s88" class="cls-1" points="727.19 4133.49 727.19 3981.99 757.19 4142.49 757.19 4323.99 727.19 4133.49"/>
    <polygon id="s40" class="cls-1" points="595.19 2609.49 710.69 2676.99 700.19 2727.99 596.69 2669.49 595.19 2609.49"/>
    <polygon id="s52" class="cls-1" points="805.19 2661.99 911.69 2721.99 946.19 2670.99 829.19 2603.49 805.19 2661.99"/>
    <polygon id="s60" class="cls-1" points="475.19 3078.99 485.69 3086.49 377.69 3021.99 356.69 3009.99 475.19 3078.99"/>
    <polygon id="s62" class="cls-1" points="214.19 2778.99 314.69 2877.99 221.69 2936.49 89.69 2850.99 214.19 2778.99"/>
    <polygon id="s59" class="cls-1" points="593.69 2991.99 461.69 3069.99 485.69 3086.49 593.69 3021.99 593.69 2991.99"/>
    <polygon id="s61" class="cls-1" points="377.69 2897.49 377.69 3021.99 356.69 3009.99 340.19 2997.99 340.19 2852.49 377.69 2897.49"/>
    <polygon id="s57" class="cls-1" points="803.69 3026.49 907.19 3086.49 1069.19 3050.49 911.69 2960.49 803.69 3026.49"/>
    <polygon id="s56" class="cls-1" points="718.19 3074.49 842.69 3002.49 911.69 2960.49 754.19 3050.49 718.19 3074.49"/>
    <polygon id="s94" class="cls-1" points="319.19 3852.99 227.69 3905.49 112.19 4124.49 232.19 4055.49 319.19 3852.99"/>
    <polygon id="_42" data-name="42" class="cls-2" points="353.69 4263.95 353.69 4124.52 232.94 4054.81 112.19 4124.52 112.19 4263.95 232.94 4333.67 353.69 4263.95"/>
    <polygon id="_50" data-name="50" class="cls-2" points="949.19 4354.15 949.19 4219.04 832.19 4151.49 715.18 4219.04 715.18 4354.15 832.19 4421.7 949.19 4354.15"/>
    <polygon id="_49" data-name="49" class="cls-2" points="713.69 4341.17 713.69 4207.8 598.19 4141.12 482.69 4207.8 482.69 4341.17 598.19 4407.86 713.69 4341.17"/>
    <polygon id="_48" data-name="48" class="cls-2" points="463.19 4480.25 463.19 4325.23 328.94 4247.72 194.69 4325.23 194.69 4480.25 328.94 4557.76 463.19 4480.25"/>
    <polygon id="_51" data-name="51" class="cls-2" points="1090.19 4284.32 1090.19 4143.16 967.94 4072.58 845.69 4143.16 845.69 4284.32 967.94 4354.9 1090.19 4284.32"/>
    <polygon id="s87" class="cls-1" points="689.69 3845.49 782.69 3905.49 914.69 4413.99 757.19 4323.99 689.69 3845.49"/>
    <polygon id="s90" class="cls-1" points="782.69 4013.49 832.19 4151.49 715.19 4218.99 689.69 4068.99 782.69 4013.49"/>
    <polygon id="s92" class="cls-1" points="782.69 3687.99 914.69 4052.49 1070.69 4145.49 877.19 3738.99 782.69 3687.99"/>
    <polygon id="s91" class="cls-1" points="688.19 3740.49 757.19 4142.49 913.19 4052.49 782.69 3687.99 688.19 3740.49"/>
    <polygon id="s89" class="cls-1" points="689.69 4068.99 713.69 4208.49 598.19 4140.99 596.69 4013.49 689.69 4068.99"/>
    <polygon id="s85" class="cls-1" points="233.69 4242.99 194.69 4325.49 329.69 4247.49 353.69 4173.99 233.69 4242.99"/>
    <polygon id="s84" class="cls-1" points="343.19 3879.99 358.19 3831.99 241.19 3899.49 215.69 3953.49 343.19 3879.99"/>
    <polygon id="s82" class="cls-1" points="463.19 3684.99 482.69 3614.49 379.19 3657.99 331.19 3761.49 463.19 3684.99"/>
    <polygon id="s80" class="cls-1" points="482.69 3614.49 596.69 3680.49 598.19 3645.99 491.69 3587.49 482.69 3614.49"/>
    <polygon id="s79" class="cls-1" points="463.19 3530.49 482.69 3480.99 482.69 3614.49 463.19 3684.99 463.19 3530.49"/>
    <polygon id="s78" class="cls-1" points="596.69 3434.49 596.69 3414.99 482.69 3480.99 472.19 3506.49 596.69 3434.49"/>
    <polygon id="s77" class="cls-1" points="109.19 3423.99 229.19 3492.99 316.19 3414.99 223.19 3365.49 109.19 3423.99"/>
    <polygon id="s76" class="cls-1" points="946.19 3617.49 875.69 3530.49 782.69 3584.49 830.69 3684.99 946.19 3617.49"/>
    <polygon id="s75" class="cls-1" points="1088.69 3429.99 967.19 3369.99 875.69 3423.99 967.19 3500.49 1088.69 3429.99"/>
    <polygon id="s73" class="cls-1" points="844.19 3288.99 803.69 3267.99 803.69 3384.99 844.19 3429.99 844.19 3288.99"/>
    <polygon id="s70" class="cls-1" points="725.69 3219.99 689.69 3201.99 596.69 3257.49 593.69 3296.49 725.69 3219.99"/>
    <polygon id="s68" class="cls-1" points="712.19 3480.99 715.19 3485.49 715.19 3617.49 712.19 3614.49 712.19 3480.99"/>
    <polygon id="s66" class="cls-1" points="470.69 4271.49 463.19 4325.49 329.69 4247.49 346.19 4199.49 470.69 4271.49"/>
    <polygon id="s67" class="cls-1" points="482.69 4340.49 463.19 4479.99 463.19 4343.49 482.69 4208.49 482.69 4340.49"/>
    <polygon id="s97" class="cls-1" points="379.19 3777.99 359.69 3831.99 476.69 3899.49 487.19 3837.99 379.19 3777.99"/>
    <polygon id="s95" class="cls-1" points="476.69 4035.99 470.69 4088.49 346.19 4160.49 358.19 4103.49 476.69 4035.99"/>
    <polygon id="s93" class="cls-1" points="358.19 4103.49 353.69 4124.49 232.19 4055.49 241.19 4035.72 358.19 4103.49"/>
    <polygon id="s58" class="cls-1" points="718.19 3074.49 725.69 3068.49 593.69 2991.99 593.69 3003.99 718.19 3074.49"/>
    <polygon id="s35" class="cls-1" points="710.69 2810.49 718.19 2786.49 593.69 2858.49 593.69 2879.49 710.69 2810.49"/>
    <polygon id="s36" class="cls-1" points="716.69 2808.99 827.69 2874.99 842.69 2858.49 718.19 2786.49 716.69 2808.99"/>
    <polygon id="s83" class="cls-1" points="343.19 3731.49 379.19 3657.99 379.19 3777.99 343.19 3878.49 343.19 3731.49"/>
    <polygon id="_45" data-name="45" class="cls-2" points="476.69 4035.72 476.69 3899.76 358.94 3831.77 241.19 3899.76 241.19 4035.72 358.94 4103.7 476.69 4035.72"/>
    <polygon id="_39" data-name="39" class="cls-2" points="712.19 3614.2 712.19 3481.64 597.39 3415.35 482.58 3481.64 482.58 3614.2 597.39 3680.49 712.19 3614.2"/>
    <polygon id="_37" data-name="37" class="cls-2" points="946.19 3618.17 946.19 3484.8 830.69 3418.12 715.19 3484.8 715.19 3618.17 830.69 3684.86 946.19 3618.17"/>
    <polygon id="_36" data-name="36" class="cls-2" points="844.19 3859.5 844.19 3717.47 721.19 3646.46 598.19 3717.47 598.19 3859.5 721.19 3930.52 844.19 3859.5"/>
    <polygon id="s86" class="cls-1" points="727.19 3981.99 757.19 4142.49 757.19 4323.99 727.19 4133.49 727.19 3981.99"/>
    <polygon id="_44" data-name="44" class="cls-2" points="1070.69 4323.74 1070.69 4142.74 913.94 4052.24 757.19 4142.74 757.19 4323.74 913.94 4414.24 1070.69 4323.74"/>
    <polygon id="_43" data-name="43" class="cls-2" points="595.19 4304.37 595.19 4160.61 470.69 4088.73 346.19 4160.61 346.19 4304.37 470.69 4376.25 595.19 4304.37"/>
    <polygon id="s96" class="cls-1" points="464 3981.99 486.5 3837.99 596.69 3777.99 596 3905.49 464 3981.99"/>
    <polygon id="_46" data-name="46" class="cls-2" points="727.19 4133.28 727.19 3981.73 595.94 3905.95 464.69 3981.73 464.69 4133.28 595.94 4209.06 727.19 4133.28"/>
    <polygon id="_47" data-name="47" class="cls-2" points="343.19 3878.6 343.19 3731.38 215.69 3657.76 88.19 3731.38 88.19 3878.6 215.69 3952.21 343.19 3878.6"/>
    <polygon id="s81" class="cls-1" points="197.69 3684.99 215.69 3657.99 343.19 3731.49 329.69 3761.49 197.69 3684.99"/>
    <polygon id="_26" data-name="26" class="cls-2" points="710.69 2810.74 710.69 2676.51 594.44 2609.39 478.19 2676.51 478.19 2810.74 594.44 2877.86 710.69 2810.74"/>
    <polygon id="_27" data-name="27" class="cls-2" points="946.19 2807.22 946.19 2671.26 828.44 2603.27 710.69 2671.26 710.69 2807.22 828.44 2875.2 946.19 2807.22"/>
    <polygon id="_28" data-name="28" class="cls-2" points="842.69 3002.37 842.69 2858.61 718.19 2786.73 593.69 2858.61 593.69 3002.37 718.19 3074.25 842.69 3002.37"/>
    <polygon id="_33" data-name="33" class="cls-2" points="475.11 3213.86 475.11 3077.95 357.4 3009.99 239.69 3077.95 239.69 3213.86 357.4 3281.82 475.11 3213.86"/>
    <polygon id="_32" data-name="32" class="cls-2" points="350.69 3423.95 350.69 3284.52 229.94 3214.81 109.19 3284.52 109.19 3423.95 229.94 3493.67 350.69 3423.95"/>
    <polygon id="_41" data-name="41" class="cls-2" points="596.69 3434.37 596.69 3290.61 472.19 3218.73 347.69 3290.61 347.69 3434.37 472.19 3506.25 596.69 3434.37"/>
    <polygon id="s74" class="cls-1" points="844.19 3429.99 830.69 3417.99 946.19 3482.49 967.19 3500.49 844.19 3429.99"/>
    <polygon id="_38" data-name="38" class="cls-2" points="1088.69 3430.05 1088.69 3289.17 966.69 3218.73 844.68 3289.17 844.68 3430.05 966.69 3500.49 1088.69 3430.05"/>
    <polygon id="_40" data-name="40" class="cls-2" points="463.19 3684.38 463.19 3531.09 330.44 3454.45 197.69 3531.09 197.69 3684.38 330.44 3761.03 463.19 3684.38"/>
    <polygon id="s71" class="cls-1" points="461.69 3218.49 503.69 3201.99 593.69 3257.49 593.69 3296.49 461.69 3218.49"/>
    <polygon id="s69" class="cls-1" points="911.69 3323.49 803.69 3267.99 698.69 3204.99 754.19 3233.49 911.69 3323.49"/>
    <polygon id="_35" data-name="35" class="cls-2" points="725 3220.02 725 3068 593.35 2991.99 461.69 3068 461.69 3220.02 593.35 3296.03 725 3220.02"/>
    <polygon id="_34" data-name="34" class="cls-2" points="340.19 2998.42 340.19 2852.06 213.44 2778.88 86.69 2852.06 86.69 2998.42 213.44 3071.6 340.19 2998.42"/>
    <polygon id="s55" class="cls-1" points="725.69 3219.99 754.19 3233.49 754.19 3050.49 725 3068.49 725.69 3219.99"/>
    <polygon id="s72" class="cls-1" points="1069.19 3233.49 967.19 3218.49 844.19 3288.99 911.69 3323.49 1069.19 3233.49"/>
    <polygon id="_31" data-name="31" class="cls-2" points="1069.19 3232.92 1069.19 3051.06 911.69 2960.12 754.19 3051.06 754.19 3232.92 911.69 3323.85 1069.19 3232.92"/>
    <polygon id="s110" class="cls-1" points="875.69 2124.99 874.19 2222.49 886.19 2223.99 884.69 2114.49 875.69 2124.99"/>
    <polygon id="s1" class="cls-1" points="944.69 1001.49 944.69 1139.49 893.69 1248.99 892.19 1134.99 944.69 1001.49"/>
    <polygon id="_2" data-name="2" class="cls-2" points="1187.69 1135.9 1187.69 999.07 1069.19 930.66 950.69 999.07 950.69 1135.9 1069.19 1204.32 1187.69 1135.9"/>
    <polygon id="s33" class="cls-1" points="1048.19 792.99 595.19 1053.99 596.69 1415.49 721.19 1341.99 1048.19 792.99"/>
    <polygon id="s32" class="cls-1" points="142.19 792.99 487.19 1439.49 595.19 1497.99 595.19 1053.99 142.19 792.99"/>
    <polygon id="s3" class="cls-1" points="433.19 1161.99 272.69 1254.99 377.69 1560.99 487.19 1499.49 433.19 1161.99"/>
    <polygon id="s20" class="cls-1" points="910.19 2100.99 781.19 2402.49 875.69 2451.99 1069.19 2192.49 910.19 2100.99"/>
    <polygon id="s23" class="cls-1" points="596.69 2405.49 502.19 2457.99 464.69 2297.49 595.19 2220.99 596.69 2405.49"/>
    <polygon id="s50" class="cls-1" points="595.19 2097.99 595.19 2220.99 464.69 2297.49 436.19 2189.49 595.19 2097.99"/>
    <polygon id="s19" class="cls-1" points="842.69 1277.49 842.69 1412.49 869.69 1251.99 869.69 1094.49 842.69 1277.49"/>
    <polygon id="s18" class="cls-1" points="911.69 1233.99 856.19 1439.49 727.19 1514.49 755.69 1325.49 911.69 1233.99"/>
    <polygon id="s17" class="cls-1" points="596.69 1614.99 595.19 1439.49 727.19 1514.49 686.69 1667.49 596.69 1614.99"/>
    <polygon id="s16" class="cls-1" points="596.69 1614.99 505.19 1668.99 464.69 1514.49 595.19 1439.49 596.69 1614.99"/>
    <polygon id="s15" class="cls-1" points="379.19 1688.49 379.19 1560.99 341.69 1457.49 341.69 1599.99 379.19 1688.49"/>
    <polygon id="s14" class="cls-1" points="430.19 1266.99 505.19 1668.99 409.19 1620.99 268.19 1172.49 430.19 1266.99"/>
    <polygon id="s9" class="cls-1" points="874.19 2234.49 905.69 2174.49 1009.19 2234.49 968.69 2288.49 874.19 2234.49"/>
    <polygon id="s8" class="cls-1" points="874.19 2234.49 781.19 2288.49 802.19 2234.49 905.69 2174.49 874.19 2234.49"/>
    <polygon id="s7" class="cls-1" points="781.19 2288.49 781.19 2402.49 802.19 2354.49 802.19 2234.49 781.19 2288.49"/>
    <polygon id="_9" data-name="9" class="cls-2" points="1080.02 2214.53 1080.02 2102.63 983.11 2046.67 886.19 2102.63 886.19 2214.53 983.11 2270.49 1080.02 2214.53"/>
    <polygon id="s48" class="cls-1" points="689.69 2234.49 694.19 2193.99 796.19 2252.49 781.19 2288.49 689.69 2234.49"/>
    <polygon id="s54" class="cls-1" points="1051.19 1901.49 983.69 2055.99 886.19 2111.49 938.69 1967.49 1051.19 1901.49"/>
    <polygon id="_10" data-name="10" class="cls-2" points="896.69 2194.7 896.69 2077.78 795.44 2019.33 694.19 2077.78 694.19 2194.7 795.44 2253.15 896.69 2194.7"/>
    <polygon id="_5" data-name="5" class="cls-2" points="341.69 1298.72 341.69 1151.49 214.19 1077.88 86.69 1151.49 86.69 1298.72 214.19 1372.33 341.69 1298.72"/>
    <polygon id="s43" class="cls-1" points="101.69 1457.49 230.69 1737.99 352.19 1806.99 266.69 1551.99 101.69 1457.49"/>
    <polygon id="s53" class="cls-1" points="110.69 1851.99 232.19 1920.99 314.69 2127.99 223.19 2078.49 110.69 1851.99"/>
    <polygon id="_14" data-name="14" class="cls-2" points="352.19 1848.99 352.19 1709.52 231.44 1639.81 110.69 1709.52 110.69 1848.95 231.44 1918.67 352.19 1848.99"/>
    <polygon id="_13" data-name="13" class="cls-2" points="596.69 1778.4 596.69 1633.77 471.44 1561.46 346.19 1633.77 346.19 1778.4 471.44 1850.71 596.69 1778.4"/>
    <polygon id="s29" class="cls-1" points="314.69 2565.24 232.19 2478.99 110.69 2549.49 223.19 2616.99 314.69 2565.24"/>
    <polygon id="_23" data-name="23" class="cls-2" points="353.2 2689.01 353.2 2548.99 231.95 2478.99 110.69 2548.99 110.69 2689.01 231.95 2759.02 353.2 2689.01"/>
    <polygon id="s27" class="cls-1" points="410.69 2618.49 409.19 2723.49 353.69 2685.99 353.69 2549.49 410.69 2618.49"/>
    <polygon id="s28" class="cls-1" points="314.69 2564.49 410.69 2618.49 353.69 2549.49 232.19 2478.99 314.69 2564.49"/>
    <polygon id="_19" data-name="19" class="cls-2" points="471.5 2472.03 471.5 2328.67 347.35 2256.99 223.19 2328.67 223.19 2472.03 347.35 2543.71 471.5 2472.03"/>
    <polygon id="s26" class="cls-1" points="31.19 2013.99 223.19 2292.99 314.69 2235.99 173.69 1935.99 31.19 2013.99"/>
    <polygon id="_15" data-name="15" class="cls-2" points="461.69 1963.88 461.69 1809.67 328.14 1732.57 194.59 1809.67 194.59 1963.88 328.14 2040.99 461.69 1963.88"/>
    <polygon id="s42" class="cls-1" points="824.69 1901.49 795.44 2018.49 896.69 2076.99 938.69 1967.49 824.69 1901.49"/>
    <polygon id="_8" data-name="8" class="cls-2" points="1052.69 1901.31 1052.69 1769.67 938.69 1703.85 824.69 1769.67 824.69 1901.31 938.69 1967.12 1052.69 1901.31"/>
    <polygon id="s2" class="cls-1" points="869.69 1094.49 1007.69 1014.99 874.19 1251.99 848.69 1229.49 869.69 1094.49"/>
    <polygon id="_6" data-name="6" class="cls-2" points="844.5 1486.1 844.5 1343.02 720.6 1271.49 596.69 1343.02 596.69 1486.1 720.6 1557.63 844.5 1486.1"/>
    <polygon id="s45" class="cls-1" points="464.69 1667.49 472.19 1707.99 595.19 1778.49 595.94 1742.49 464.69 1667.49"/>
    <polygon id="_12" data-name="12" class="cls-2" points="727.19 1666.71 727.19 1515.16 595.94 1439.38 464.69 1515.16 464.69 1666.71 595.94 1742.49 727.19 1666.71"/>
    <polygon id="_11" data-name="11" class="cls-2" points="859.7 1768.57 859.7 1616.72 728.19 1540.8 596.69 1616.72 596.69 1768.57 728.19 1844.49 859.7 1768.57"/>
    <polygon id="s100" class="cls-1" points="859.19 1764.99 728.69 1839.99 694.19 2078.49 794.69 2019.99 859.19 1764.99"/>
    <polygon id="s49" class="cls-1" points="745.19 1886.49 688.19 2234.49 595.18 2288.49 595.94 1971.99 745.19 1886.49"/>
    <polygon id="s4" class="cls-1" points="727.19 1514.49 754.19 1326.99 755.69 1503.99 728.69 1667.49 727.19 1514.49"/>
    <polygon id="_17" data-name="17" class="cls-2" points="1009.19 2354.36 1009.19 2234.85 905.69 2175.09 802.19 2234.85 802.19 2354.36 905.69 2414.12 1009.19 2354.36"/>
    <polygon id="s34" class="cls-1" points="1144.19 1251.99 1070.69 1340.49 1069.19 1323.99 1043.69 1310.49 1144.19 1251.99"/>
    <polygon id="_3" data-name="3" class="cls-2" points="433.19 1161.34 433.19 975.14 271.94 882.04 110.69 975.14 110.69 1161.34 271.94 1254.43 433.19 1161.34"/>
    <polygon id="_4" data-name="4" class="cls-2" points="1144.19 1252.48 1144.19 1094 1006.94 1014.76 869.69 1094 869.69 1252.48 1006.94 1331.72 1144.19 1252.48"/>
    <polygon id="s107" class="cls-1" points="1069.19 2283.99 875.69 2468.49 781.19 2522.49 911.69 2373.99 1069.19 2283.99"/>
    <polygon id="s106" class="cls-1" points="752.69 2283.99 911.69 2373.99 781.19 2522.49 689.69 2471.49 727.46 2359.09 752.69 2283.99"/>
    <polygon id="s65" class="cls-1" points="328.19 2022.99 328.19 2180.84 314.69 2169.99 314.69 2006.49 328.19 2022.99"/>
    <polygon id="s21" class="cls-1" points="781.19 2402.49 689.69 2456.49 752.69 2186.49 910.19 2094.99 781.19 2402.49"/>
    <polygon id="s30" class="cls-1" points="727.19 2207.49 727.19 2358.99 752.69 2282.49 752.69 2096.49 727.19 2207.49"/>
    <polygon id="s22" class="cls-1" points="689.69 2456.49 596.69 2405.49 595.19 2220.99 727.19 2297.49 689.69 2456.49"/>
    <polygon id="_24" data-name="24" class="cls-2" points="1069.19 2283.1 1069.19 2100.37 910.94 2009.01 752.69 2100.37 752.69 2283.1 910.94 2374.47 1069.19 2283.1"/>
    <polygon id="s102" class="cls-1" points="31.19 2177.49 226.19 2403.99 226.19 2327.49 172.19 2259.99 31.19 2177.49"/>
    <polygon id="_21" data-name="21" class="cls-2" points="314.69 2177.58 314.69 2013.9 172.94 1932.06 31.19 2013.9 31.19 2177.58 172.94 2259.42 314.69 2177.58"/>
    <polygon id="s64" class="cls-1" points="172.19 2259.99 314.69 2177.49 347.69 2255.49 226.19 2327.49 172.19 2259.99"/>
    <polygon id="s47" class="cls-1" points="755.69 1503.99 911.69 1596.99 859.19 1739.49 727.19 1665.99 755.69 1503.99"/>
    <polygon id="s46" class="cls-1" points="1069.19 1506.99 911.69 1596.99 859.19 1742.49 859.7 1827.46 938.69 1781.49 1069.19 1506.99"/>
    <polygon id="s44" class="cls-1" points="266.69 1551.99 346.19 1778.49 472.19 1707.99 430.19 1457.49 266.69 1551.99"/>
    <polygon id="s5" class="cls-1" points="464.69 1667.49 430.19 1457.49 430.19 1266.99 464.69 1514.49 464.69 1667.49"/>
    <polygon id="s37" class="cls-1" points="193.19 2751.99 232.19 2759.49 353.69 2688.99 328.19 2672.49 193.19 2751.99"/>
    <polygon id="s108" class="cls-1" points="328.19 2894.49 374.69 2865.99 478.19 2805.99 461.69 2817.99 328.19 2894.49"/>
    <polygon id="_29" data-name="29" class="cls-2" points="461.69 2816.75 461.69 2661.73 327.44 2584.22 193.19 2661.73 193.19 2816.75 327.44 2894.26 461.69 2816.75"/>
    <polygon id="s104" class="cls-1" points="410.69 2633.49 478.19 2672.49 595.19 2604.99 593.69 2526.99 410.69 2633.49"/>
    <polygon id="_7" data-name="7" class="cls-2" points="1069.19 1506.29 1069.19 1324.91 912.11 1234.21 755.02 1324.91 755.02 1506.29 912.11 1596.99 1069.19 1506.29"/>
    <polygon id="s105" class="cls-1" points="689.69 2471.49 593.69 2526.99 595.19 2435.49 727.19 2358.99 689.69 2471.49"/>
    <polygon id="_22" data-name="22" class="cls-2" points="727.19 2359.02 727.19 2207.46 595.94 2131.68 464.69 2207.46 464.69 2359.02 595.94 2434.79 727.19 2359.02"/>
    <polygon id="s103" class="cls-1" points="461.69 2661.99 461.69 2816.49 478.19 2805.99 478.19 2672.49 461.69 2661.99"/>
    <polygon id="s101" class="cls-1" points="278.69 2097.99 347.69 2256.99 472.19 2327.49 436.19 2189.49 278.69 2097.99"/>
    <polygon id="s99" class="cls-1" points="341.69 1457.49 272.69 1254.99 110.69 1161.99 214.19 1373.49 341.69 1457.49"/>
    <polygon id="_18" data-name="18" class="cls-2" points="430.19 1457.18 430.19 1267.53 265.94 1172.69 101.69 1267.53 101.69 1457.18 265.94 1552.01 430.19 1457.18"/>
    <polygon id="_20" data-name="20" class="cls-2" points="595.18 2097.99 595.18 1914.99 436.7 1823.49 278.21 1914.99 278.21 2097.99 436.7 2189.49 595.18 2097.99"/>
    <polygon id="_30" data-name="30" class="cls-2" points="593.69 2527.33 593.69 2315.15 409.94 2209.06 226.19 2315.15 226.19 2527.33 409.94 2633.41 593.69 2527.33"/>
    <polygon id="s98" class="cls-1" points="433.19 974.49 487.19 1383.99 487.19 1499.49 433.19 1161.99 433.19 974.49"/>
    <polygon id="_16" data-name="16" class="cls-2" points="745.19 1881.91 745.19 1709.57 595.94 1623.4 446.69 1709.57 446.69 1881.91 595.94 1968.08 745.19 1881.91"/>
    <polygon id="s11" class="cls-1" points="461.69 1820.49 461.69 1767.99 328.19 1689.99 352.19 1751.49 461.69 1820.49"/>
    <polygon id="s10" class="cls-1" points="194.69 1767.99 232.19 1820.49 352.19 1751.49 328.19 1689.99 194.69 1767.99"/>
    <polygon id="s6" class="cls-1" points="728.69 1775.49 745.19 1707.99 596.69 1623.99 596.69 1698.99 728.69 1775.49"/>
    <polygon id="s12" class="cls-1" points="596.69 1652.49 596.69 1622.49 446.69 1707.99 470.69 1724.49 596.69 1652.49"/>
    <polygon id="s25" class="cls-1" points="595.19 1977.99 464.69 1901.49 436.19 1821.99 593.69 1913.49 595.19 1977.99"/>
    <polygon id="s24" class="cls-1" points="461.69 1892.49 328.19 1967.49 278.69 1911.99 436.19 1821.99 461.69 1892.49"/>
    <polygon id="s31" class="cls-1" points="328.19 2033.49 314.69 2016.99 173.69 1934.49 194.69 1956.99 328.19 2033.49"/>
    <polygon id="s38" class="cls-1" points="472.19 2382.99 347.69 2454.99 226.19 2315.49 410.69 2208.99 472.19 2382.99"/>
    <polygon id="_1" data-name="1" class="cls-3" points="594.86 1050.99 141.52 789.25 142.19 264.99 595.19 2.49 1048.19 264.99 1048.19 789.25 594.86 1050.99"/>
    <polygon id="xx05" class="cls-1" points="331.19 3453.99 347.69 3425.49 476.69 3498.99 463.19 3530.49 331.19 3453.99"/>
    <polygon id="xx01" class="cls-1" points="727.19 4133.49 689.69 4086.99 595.19 4140.99 595.19 4209.06 727.19 4133.49"/>
    <polygon id="xx02" class="cls-1" points="727.19 3981.99 719.69 3929.49 596.69 3857.49 598.19 3907.25 727.19 3981.99"/>
    <polygon id="xx03" class="cls-1" points="721.19 3645.99 712.19 3615.99 830.69 3684.99 844.19 3717.99 721.19 3645.99"/>
    <polygon id="xx04" class="cls-1" points="712.19 3615.99 721.19 3645.99 596.69 3717.99 596.69 3681.99 712.19 3615.99"/>
    <polygon id="xxx07" class="cls-1" points="803.69 3384.99 830.69 3417.99 715.19 3485.49 698.69 3446.49 803.69 3384.99"/>
    <polygon id="xxx06" class="cls-1" points="596.69 3384.99 596.69 3414.99 712.19 3480.99 698.69 3446.49 596.69 3384.99"/>
    <polygon id="s51" class="cls-1" points="593.69 2315.49 409.19 2208.99 463.19 2238.99 595.19 2315.49 593.69 2315.49"/>
    <polygon id="yy1" class="cls-1" points="502.19 3201.99 413.69 3255.99 349.19 3290.49 471.94 3219.24 502.19 3201.99"/>
    <polygon id="yy2" class="cls-1" points="230.69 3213.99 316.19 3204.99 413.69 3255.99 353.69 3284.49 230.69 3213.99"/>
    <polygon id="yy3" class="cls-1" points="109.19 3284.49 224.69 3255.99 316.19 3204.99 230.69 3215.49 109.19 3284.49"/>
    <polygon id="yy4" class="cls-1" points="349.19 3425.49 331.19 3453.99 197.69 3530.49 230.69 3492.99 349.19 3425.49"/>
    <polygon id="yy5" class="cls-1" points="316.19 3527.49 224.69 3579.99 88.19 3731.49 215.69 3657.99 316.19 3527.49"/>
    <polygon id="c1" class="cls-3" points="597.48 5510.49 210.52 5287.08 211.09 4839.57 597.77 4615.5 984.44 4839.57 984.44 5287.08 597.48 5510.49"/>
    <polygon id="k01" class="cls-1" points="598.19 4407.99 598.19 4614.99 985.19 4839.99 832.19 4415.49 713.69 4340.49 598.19 4407.99"/>
    <polygon id="k02" class="cls-1" points="482.69 4340.49 328.19 4557.99 211.19 4839.99 598.19 4614.99 598.19 4407.99 482.69 4340.49"/>
  </g>
</svg>
