<svg xmlns="http://www.w3.org/2000/svg" width="1200" height="5600" viewBox="0 0 1200 5600">
  <defs>
    <style>
      .cls-1 {
        fill: #f2f2f2;
      }

      .cls-1, .cls-2, .cls-3 {
        stroke: #000;
        stroke-miterlimit: 10;
      }

      .cls-2, .cls-3 {
        fill: #fff;
      }

      .cls-3 {
        stroke-width: 2px;
      }
    </style>
  </defs>
  <title>aartics_polygons_vertical</title>
  <g id="_04stage" data-name="04stage">
    <polygon id="s63" class="cls-1" points="877.35 2879.48 967.35 2930.48 1009.35 2946.98 907.35 2886.98 877.35 2879.48"/>
    <polygon id="_25" data-name="25" class="cls-2" points="1009.97 3066.99 1009.97 2947.98 906.91 2888.48 803.85 2947.98 803.85 3066.99 906.91 3126.49 1009.97 3066.99"/>
    <polygon id="s41" class="cls-1" points="803.85 2709.98 697.35 2768.48 710.85 2760.98 829.35 2693.48 803.85 2709.98"/>
    <polygon id="s88" class="cls-1" points="727.35 4133.48 727.35 3981.98 757.35 4142.48 757.35 4323.98 727.35 4133.48"/>
    <polygon id="s40" class="cls-1" points="595.35 2696.48 710.85 2760.98 697.35 2768.48 596.85 2709.98 595.35 2696.48"/>
    <polygon id="s52" class="cls-1" points="805.35 2709.98 914.85 2768.48 946.35 2760.98 827.85 2693.48 805.35 2709.98"/>
    <polygon id="s60" class="cls-1" points="475.35 3170.48 485.85 3141.98 377.85 3078.98 356.85 3102.98 475.35 3170.48"/>
    <polygon id="s62" class="cls-1" points="214.35 2903.48 314.85 2877.98 221.85 2936.48 89.85 2975.48 214.35 2903.48"/>
    <polygon id="s59" class="cls-1" points="593.85 3132.98 461.85 3209.48 485.85 3141.98 593.85 3080.48 593.85 3132.98"/>
    <polygon id="s61" class="cls-1" points="377.85 2955.98 377.85 3078.98 356.85 3102.98 340.35 3122.48 340.35 2976.98 377.85 2955.98"/>
    <polygon id="s57" class="cls-1" points="803.85 3066.98 907.35 3126.98 1069.35 3288.98 911.85 3195.98 803.85 3066.98"/>
    <polygon id="s56" class="cls-1" points="718.35 3189.98 842.85 3117.98 911.85 3195.98 754.35 3285.98 718.35 3189.98"/>
    <polygon id="s94" class="cls-1" points="319.35 3852.98 227.85 3905.48 112.35 4124.48 232.35 4055.48 319.35 3852.98"/>
    <polygon id="_42" data-name="42" class="cls-2" points="353.85 4263.94 353.85 4124.51 233.1 4054.8 112.35 4124.51 112.35 4263.94 233.1 4333.66 353.85 4263.94"/>
    <polygon id="_50" data-name="50" class="cls-2" points="949.35 4354.14 949.35 4219.03 832.34 4151.48 715.34 4219.03 715.34 4354.14 832.34 4421.69 949.35 4354.14"/>
    <polygon id="_49" data-name="49" class="cls-2" points="713.85 4341.16 713.85 4207.8 598.35 4141.11 482.85 4207.8 482.85 4341.16 598.35 4407.85 713.85 4341.16"/>
    <polygon id="_48" data-name="48" class="cls-2" points="463.35 4480.24 463.35 4325.22 329.1 4247.71 194.85 4325.22 194.85 4480.24 329.1 4557.75 463.35 4480.24"/>
    <polygon id="_51" data-name="51" class="cls-2" points="1090.35 4353.31 1090.35 4212.15 968.1 4141.57 845.85 4212.15 845.85 4353.31 968.1 4423.89 1090.35 4353.31"/>
    <polygon id="s87" class="cls-1" points="689.85 3845.48 782.85 3905.48 914.85 4413.98 757.35 4323.98 689.85 3845.48"/>
    <polygon id="s90" class="cls-1" points="782.85 4013.48 832.35 4151.48 715.35 4218.98 689.85 4068.98 782.85 4013.48"/>
    <polygon id="s92" class="cls-1" points="782.85 3687.98 914.85 4052.48 1070.85 4145.48 875.85 3749.48 782.85 3687.98"/>
    <polygon id="s91" class="cls-1" points="659.85 3759.98 757.35 4142.48 913.35 4052.48 782.85 3687.98 659.85 3759.98"/>
    <polygon id="s89" class="cls-1" points="689.85 4068.98 713.85 4208.48 598.35 4140.98 596.85 4013.48 689.85 4068.98"/>
    <polygon id="s85" class="cls-1" points="233.85 4242.98 194.85 4325.48 329.85 4247.48 353.85 4173.98 233.85 4242.98"/>
    <polygon id="s84" class="cls-1" points="343.35 4002.98 358.35 3936.98 241.35 4002.98 215.85 4076.48 343.35 4002.98"/>
    <polygon id="s82" class="cls-1" points="463.35 3831.98 482.85 3698.48 379.35 3777.98 331.35 3911.48 463.35 3831.98"/>
    <polygon id="s80" class="cls-1" points="482.85 3693.98 597.54 3759.98 598.35 3704.48 488.85 3642.98 482.85 3693.98"/>
    <polygon id="s79" class="cls-1" points="463.35 3680.48 482.85 3560.48 482.85 3693.98 463.35 3834.98 463.35 3680.48"/>
    <polygon id="s78" class="cls-1" points="596.85 3552.98 596.85 3494.48 482.85 3560.48 472.35 3624.98 596.85 3552.98"/>
    <polygon id="s77" class="cls-1" points="109.35 3525.98 230.85 3594.98 316.35 3414.98 223.35 3365.48 109.35 3525.98"/>
    <polygon id="s76" class="cls-1" points="946.35 3710.48 875.85 3530.48 782.85 3584.48 830.85 3774.98 946.35 3710.48"/>
    <polygon id="s75" class="cls-1" points="1088.85 3540.98 967.35 3480.98 875.85 3534.98 967.35 3611.48 1088.85 3540.98"/>
    <polygon id="s73" class="cls-1" points="844.35 3399.98 803.85 3309.98 803.85 3426.98 844.35 3540.98 844.35 3399.98"/>
    <polygon id="s70" class="cls-1" points="725.85 3360.98 689.85 3201.98 596.85 3257.48 593.85 3437.48 725.85 3360.98"/>
    <polygon id="s68" class="cls-1" points="712.35 3560.48 715.35 3575.48 715.35 3708.98 712.35 3693.98 712.35 3560.48"/>
    <polygon id="s66" class="cls-1" points="470.85 4271.48 463.35 4325.48 329.85 4247.48 346.35 4199.48 470.85 4271.48"/>
    <polygon id="s67" class="cls-1" points="482.85 4340.48 463.35 4479.98 463.35 4343.48 482.85 4208.48 482.85 4340.48"/>
    <polygon id="s97" class="cls-1" points="379.35 3777.98 359.85 3831.98 476.85 3899.48 487.35 3837.98 379.35 3777.98"/>
    <polygon id="s95" class="cls-1" points="476.85 4035.98 469.35 4088.48 344.85 4160.48 358.35 4103.48 476.85 4035.98"/>
    <polygon id="s93" class="cls-1" points="358.35 4103.48 353.85 4124.48 232.35 4055.48 241.35 4035.71 358.35 4103.48"/>
    <polygon id="s58" class="cls-1" points="718.35 3189.98 725.85 3209.48 593.85 3132.98 593.85 3117.98 718.35 3189.98"/>
    <polygon id="s35" class="cls-1" points="710.85 2895.98 718.35 2901.98 593.85 2973.98 593.85 2963.48 710.85 2895.98"/>
    <polygon id="s36" class="cls-1" points="710.85 2895.98 829.35 2964.98 842.85 2973.98 718.35 2901.98 710.85 2895.98"/>
    <polygon id="s83" class="cls-1" points="343.35 3858.98 379.35 3708.98 379.35 3834.98 343.35 4005.98 343.35 3858.98"/>
    <polygon id="_45" data-name="45" class="cls-2" points="476.85 4035.71 476.85 3899.75 359.1 3831.76 241.35 3899.75 241.35 4035.71 359.1 4103.69 476.85 4035.71"/>
    <polygon id="_39" data-name="39" class="cls-2" points="712.35 3693.7 712.35 3561.13 597.54 3494.84 482.74 3561.13 482.74 3693.7 597.54 3759.98 712.35 3693.7"/>
    <polygon id="_37" data-name="37" class="cls-2" points="946.35 3708.16 946.35 3574.8 830.85 3508.11 715.35 3574.8 715.35 3708.16 830.85 3774.85 946.35 3708.16"/>
    <polygon id="_36" data-name="36" class="cls-2" points="844.35 3937.49 844.35 3795.47 721.35 3724.45 598.35 3795.47 598.35 3937.49 721.35 4008.51 844.35 3937.49"/>
    <polygon id="s86" class="cls-1" points="721.35 4008.98 755.85 4142.48 755.85 4323.98 725.85 4176.98 721.35 4008.98"/>
    <polygon id="_44" data-name="44" class="cls-2" points="1069.35 4323.73 1069.35 4142.73 912.6 4052.23 755.85 4142.73 755.85 4323.73 912.6 4414.23 1069.35 4323.73"/>
    <polygon id="_43" data-name="43" class="cls-2" points="593.85 4304.36 593.85 4160.6 469.35 4088.72 344.85 4160.6 344.85 4304.36 469.35 4376.24 593.85 4304.36"/>
    <polygon id="s96" class="cls-1" points="462.66 4025.48 485.16 3839.48 595.35 3779.48 594.66 3948.98 462.66 4025.48"/>
    <polygon id="_46" data-name="46" class="cls-2" points="725.85 4176.77 725.85 4025.22 594.6 3949.44 463.35 4025.22 463.35 4176.77 594.6 4252.55 725.85 4176.77"/>
    <polygon id="_47" data-name="47" class="cls-2" points="341.85 4004.59 341.85 3857.37 214.35 3783.75 86.85 3857.37 86.85 4004.59 214.35 4078.2 341.85 4004.59"/>
    <polygon id="s81" class="cls-1" points="197.85 3834.98 214.35 3804.98 341.85 3878.48 331.35 3911.48 197.85 3834.98"/>
    <polygon id="_26" data-name="26" class="cls-2" points="710.85 2896.23 710.85 2762 594.6 2694.88 478.35 2762 478.35 2896.23 594.6 2963.35 710.85 2896.23"/>
    <polygon id="_27" data-name="27" class="cls-2" points="946.35 2897.21 946.35 2761.25 828.6 2693.26 710.85 2761.25 710.85 2897.21 828.6 2965.2 946.35 2897.21"/>
    <polygon id="_28" data-name="28" class="cls-2" points="842.85 3117.86 842.85 2974.1 718.35 2902.22 593.85 2974.1 593.85 3117.86 718.35 3189.74 842.85 3117.86"/>
    <polygon id="_33" data-name="33" class="cls-2" points="475.26 3306.85 475.26 3170.94 357.56 3102.98 239.85 3170.94 239.85 3306.85 357.56 3374.81 475.26 3306.85"/>
    <polygon id="_32" data-name="32" class="cls-2" points="352.86 3528.36 352.86 3387.77 231.1 3317.48 109.35 3387.77 109.35 3528.36 231.1 3598.66 352.86 3528.36"/>
    <polygon id="_41" data-name="41" class="cls-2" points="596.85 3552.86 596.85 3409.1 472.35 3337.22 347.85 3409.1 347.85 3552.86 472.35 3624.74 596.85 3552.86"/>
    <polygon id="s74" class="cls-1" points="842.85 3539.48 830.85 3507.98 946.35 3575.48 965.85 3609.98 842.85 3539.48"/>
    <polygon id="_38" data-name="38" class="cls-2" points="1088.85 3541.04 1088.85 3400.16 966.84 3329.72 844.84 3400.16 844.84 3541.04 966.84 3611.48 1088.85 3541.04"/>
    <polygon id="_40" data-name="40" class="cls-2" points="463.35 3834.37 463.35 3681.09 330.6 3604.44 197.85 3681.09 197.85 3834.37 330.6 3911.01 463.35 3834.37"/>
    <polygon id="s71" class="cls-1" points="461.85 3360.98 502.35 3201.98 596.85 3257.48 593.85 3437.48 461.85 3360.98"/>
    <polygon id="s69" class="cls-1" points="910.35 3557.48 803.85 3309.98 700.35 3248.48 752.85 3470.48 910.35 3557.48"/>
    <polygon id="_35" data-name="35" class="cls-2" points="725.15 3361.01 725.15 3208.99 593.5 3132.98 461.85 3208.99 461.85 3361.01 593.5 3437.01 725.15 3361.01"/>
    <polygon id="_34" data-name="34" class="cls-2" points="340.35 3122.91 340.35 2976.55 213.6 2903.37 86.85 2976.55 86.85 3122.91 213.6 3196.09 340.35 3122.91"/>
    <polygon id="s55" class="cls-1" points="725.85 3360.98 754.35 3468.98 754.35 3285.98 725.15 3207.98 725.85 3360.98"/>
    <polygon id="s72" class="cls-1" points="1067.85 3473.48 965.85 3329.48 842.85 3401.48 910.35 3563.48 1067.85 3473.48"/>
    <polygon id="_31" data-name="31" class="cls-2" points="1069.35 3471.41 1069.35 3289.55 911.85 3198.61 754.35 3289.55 754.35 3471.41 911.85 3562.34 1069.35 3471.41"/>
    <polygon id="s110" class="cls-1" points="875.85 2124.98 874.35 2222.48 886.35 2223.98 884.85 2114.48 875.85 2124.98"/>
    <polygon id="s1" class="cls-1" points="944.85 1001.48 944.85 1139.48 893.85 1248.98 892.35 1134.98 944.85 1001.48"/>
    <polygon id="_2" data-name="2" class="cls-2" points="1187.85 1135.89 1187.85 999.06 1069.35 930.65 950.85 999.06 950.85 1135.89 1069.35 1204.31 1187.85 1135.89"/>
    <polygon id="s33" class="cls-1" points="1048.35 792.98 595.35 1053.98 596.85 1415.48 721.35 1341.98 1048.35 792.98"/>
    <polygon id="s32" class="cls-1" points="142.35 792.98 487.35 1439.48 595.35 1497.98 595.35 1053.98 142.35 792.98"/>
    <polygon id="s3" class="cls-1" points="433.35 1161.98 272.85 1254.98 377.85 1560.98 487.35 1499.48 433.35 1161.98"/>
    <polygon id="s20" class="cls-1" points="910.35 2100.98 781.35 2402.48 875.85 2451.98 1069.35 2192.48 910.35 2100.98"/>
    <polygon id="s23" class="cls-1" points="596.85 2405.48 502.35 2457.98 464.85 2297.48 595.35 2220.98 596.85 2405.48"/>
    <polygon id="s50" class="cls-1" points="595.35 2097.98 595.35 2220.98 464.85 2297.48 436.35 2189.48 595.35 2097.98"/>
    <polygon id="s19" class="cls-1" points="842.85 1277.48 842.85 1412.48 869.85 1251.98 869.85 1094.48 842.85 1277.48"/>
    <polygon id="s18" class="cls-1" points="911.85 1233.98 856.35 1439.48 727.35 1514.48 755.85 1325.48 911.85 1233.98"/>
    <polygon id="s17" class="cls-1" points="596.85 1614.98 595.35 1439.48 727.35 1514.48 686.85 1667.48 596.85 1614.98"/>
    <polygon id="s16" class="cls-1" points="596.85 1614.98 505.35 1668.98 464.85 1514.48 595.35 1439.48 596.85 1614.98"/>
    <polygon id="s15" class="cls-1" points="379.35 1688.48 379.35 1560.98 341.85 1457.48 341.85 1599.98 379.35 1688.48"/>
    <polygon id="s14" class="cls-1" points="430.35 1266.98 505.35 1668.98 409.35 1620.98 268.35 1172.48 430.35 1266.98"/>
    <polygon id="s9" class="cls-1" points="874.35 2234.48 905.85 2174.48 1009.35 2234.48 968.85 2288.48 874.35 2234.48"/>
    <polygon id="s8" class="cls-1" points="874.35 2234.48 781.35 2288.48 802.35 2234.48 905.85 2174.48 874.35 2234.48"/>
    <polygon id="s7" class="cls-1" points="781.35 2288.48 781.35 2402.48 802.35 2354.48 802.35 2234.48 781.35 2288.48"/>
    <polygon id="_9" data-name="9" class="cls-2" points="1080.18 2214.53 1080.18 2102.62 983.26 2046.66 886.35 2102.62 886.35 2214.53 983.26 2270.48 1080.18 2214.53"/>
    <polygon id="s48" class="cls-1" points="689.85 2234.48 694.35 2193.98 796.35 2252.48 781.35 2288.48 689.85 2234.48"/>
    <polygon id="s54" class="cls-1" points="1051.35 1901.48 983.85 2055.98 886.35 2111.48 938.85 1967.48 1051.35 1901.48"/>
    <polygon id="_10" data-name="10" class="cls-2" points="896.85 2194.68 896.85 2077.77 795.6 2019.32 694.35 2077.77 694.35 2194.68 795.6 2253.14 896.85 2194.68"/>
    <polygon id="_5" data-name="5" class="cls-2" points="341.85 1298.71 341.85 1151.48 214.35 1077.87 86.85 1151.48 86.85 1298.71 214.35 1372.32 341.85 1298.71"/>
    <polygon id="s43" class="cls-1" points="101.85 1457.48 230.85 1737.98 352.35 1806.98 266.85 1551.98 101.85 1457.48"/>
    <polygon id="s53" class="cls-1" points="110.85 1851.98 232.35 1920.98 314.85 2127.98 223.35 2078.48 110.85 1851.98"/>
    <polygon id="_14" data-name="14" class="cls-2" points="352.35 1848.98 352.35 1709.51 231.6 1639.8 110.85 1709.51 110.85 1848.94 231.6 1918.66 352.35 1848.98"/>
    <polygon id="_13" data-name="13" class="cls-2" points="596.85 1778.39 596.85 1633.76 471.6 1561.45 346.35 1633.76 346.35 1778.39 471.6 1850.7 596.85 1778.39"/>
    <polygon id="s29" class="cls-1" points="314.85 2565.23 232.35 2478.98 110.85 2549.48 223.35 2616.98 314.85 2565.23"/>
    <polygon id="_23" data-name="23" class="cls-2" points="353.36 2689 353.36 2548.99 232.1 2478.98 110.85 2548.99 110.85 2689 232.1 2759.01 353.36 2689"/>
    <polygon id="s27" class="cls-1" points="410.85 2618.48 409.35 2723.48 353.85 2685.98 353.85 2549.48 410.85 2618.48"/>
    <polygon id="s28" class="cls-1" points="314.85 2564.48 410.85 2618.48 353.85 2549.48 232.35 2478.98 314.85 2564.48"/>
    <polygon id="_19" data-name="19" class="cls-2" points="471.66 2472.02 471.66 2328.66 347.5 2256.98 223.35 2328.66 223.35 2472.02 347.5 2543.7 471.66 2472.02"/>
    <polygon id="s26" class="cls-1" points="31.35 2013.98 223.35 2292.98 314.85 2235.98 173.85 1935.98 31.35 2013.98"/>
    <polygon id="_15" data-name="15" class="cls-2" points="461.85 1963.87 461.85 1809.66 328.3 1732.56 194.75 1809.66 194.75 1963.87 328.3 2040.98 461.85 1963.87"/>
    <polygon id="s42" class="cls-1" points="824.85 1901.48 795.6 2018.48 896.85 2076.98 938.85 1967.48 824.85 1901.48"/>
    <polygon id="_8" data-name="8" class="cls-2" points="1052.85 1901.3 1052.85 1769.66 938.85 1703.84 824.85 1769.66 824.85 1901.3 938.85 1967.11 1052.85 1901.3"/>
    <polygon id="s2" class="cls-1" points="869.85 1094.48 1007.85 1014.98 874.35 1251.98 848.85 1229.48 869.85 1094.48"/>
    <polygon id="_6" data-name="6" class="cls-2" points="844.66 1486.09 844.66 1343.02 720.75 1271.48 596.85 1343.02 596.85 1486.09 720.75 1557.62 844.66 1486.09"/>
    <polygon id="s45" class="cls-1" points="464.85 1667.48 472.35 1707.98 595.35 1778.48 596.1 1742.48 464.85 1667.48"/>
    <polygon id="_12" data-name="12" class="cls-2" points="727.35 1666.7 727.35 1515.15 596.1 1439.37 464.85 1515.15 464.85 1666.7 596.1 1742.48 727.35 1666.7"/>
    <polygon id="_11" data-name="11" class="cls-2" points="859.85 1768.56 859.85 1616.71 728.35 1540.79 596.85 1616.71 596.85 1768.56 728.35 1844.48 859.85 1768.56"/>
    <polygon id="s100" class="cls-1" points="859.35 1764.98 728.85 1839.98 694.35 2078.48 794.85 2019.98 859.35 1764.98"/>
    <polygon id="s49" class="cls-1" points="745.35 1886.48 688.35 2234.48 595.33 2288.48 596.1 1971.98 745.35 1886.48"/>
    <polygon id="_16" data-name="16" class="cls-2" points="745.35 1881.9 745.35 1709.56 596.1 1623.39 446.85 1709.56 446.85 1881.9 596.1 1968.07 745.35 1881.9"/>
    <polygon id="s4" class="cls-1" points="727.35 1514.48 754.35 1326.98 755.85 1503.98 728.85 1667.48 727.35 1514.48"/>
    <polygon id="_17" data-name="17" class="cls-2" points="1009.35 2354.35 1009.35 2234.84 905.85 2175.08 802.35 2234.84 802.35 2354.35 905.85 2414.11 1009.35 2354.35"/>
    <polygon id="s34" class="cls-1" points="1144.35 1251.98 1070.85 1340.48 1069.35 1323.98 1043.85 1310.48 1144.35 1251.98"/>
    <polygon id="_3" data-name="3" class="cls-2" points="433.35 1161.33 433.35 975.13 272.1 882.03 110.85 975.13 110.85 1161.33 272.1 1254.42 433.35 1161.33"/>
    <polygon id="_4" data-name="4" class="cls-2" points="1144.35 1252.47 1144.35 1093.99 1007.1 1014.75 869.85 1093.99 869.85 1252.47 1007.1 1331.71 1144.35 1252.47"/>
    <polygon id="s107" class="cls-1" points="1069.35 2373.98 875.85 2558.48 781.35 2612.48 911.85 2463.98 1069.35 2373.98"/>
    <polygon id="s106" class="cls-1" points="752.85 2373.98 911.85 2463.98 781.35 2612.48 689.85 2561.48 727.62 2449.08 752.85 2373.98"/>
    <polygon id="s65" class="cls-1" points="328.35 2022.98 328.35 2180.84 314.85 2169.98 314.85 2006.48 328.35 2022.98"/>
    <polygon id="s21" class="cls-1" points="781.35 2402.48 689.85 2456.48 752.85 2186.48 910.35 2094.98 781.35 2402.48"/>
    <polygon id="s30" class="cls-1" points="727.35 2297.48 727.35 2448.98 752.85 2372.48 752.85 2186.48 727.35 2297.48"/>
    <polygon id="s22" class="cls-1" points="689.85 2456.48 596.85 2405.48 595.35 2220.98 727.35 2297.48 689.85 2456.48"/>
    <polygon id="_24" data-name="24" class="cls-2" points="1069.35 2373.09 1069.35 2190.36 911.1 2099 752.85 2190.36 752.85 2373.09 911.1 2464.46 1069.35 2373.09"/>
    <polygon id="s102" class="cls-1" points="31.35 2177.48 226.35 2403.98 226.35 2327.48 172.35 2259.98 31.35 2177.48"/>
    <polygon id="_21" data-name="21" class="cls-2" points="314.85 2177.57 314.85 2013.89 173.1 1932.05 31.35 2013.89 31.35 2177.57 173.1 2259.41 314.85 2177.57"/>
    <polygon id="s64" class="cls-1" points="172.35 2259.98 314.85 2177.48 347.85 2255.48 226.35 2327.48 172.35 2259.98"/>
    <polygon id="s47" class="cls-1" points="755.85 1503.98 911.85 1596.98 859.35 1739.48 727.35 1665.98 755.85 1503.98"/>
    <polygon id="s46" class="cls-1" points="1069.35 1506.98 911.85 1596.98 859.35 1742.48 859.85 1827.45 938.85 1781.48 1069.35 1506.98"/>
    <polygon id="s44" class="cls-1" points="266.85 1551.98 346.35 1778.48 472.35 1707.98 430.35 1457.48 266.85 1551.98"/>
    <polygon id="s5" class="cls-1" points="464.85 1667.48 430.35 1457.48 430.35 1266.98 464.85 1514.48 464.85 1667.48"/>
    <polygon id="s37" class="cls-1" points="193.35 2751.98 232.35 2759.48 353.85 2688.98 328.35 2672.48 193.35 2751.98"/>
    <polygon id="s108" class="cls-1" points="328.35 2984.48 374.85 2955.98 478.35 2895.98 461.85 2907.98 328.35 2984.48"/>
    <polygon id="_29" data-name="29" class="cls-2" points="461.85 2906.74 461.85 2751.72 327.6 2674.21 193.35 2751.72 193.35 2906.74 327.6 2984.25 461.85 2906.74"/>
    <polygon id="s104" class="cls-1" points="410.85 2723.48 478.35 2762.48 595.35 2694.98 593.85 2616.98 410.85 2723.48"/>
    <polygon id="_7" data-name="7" class="cls-2" points="1069.35 1506.28 1069.35 1324.9 912.26 1234.2 755.17 1324.9 755.17 1506.28 912.26 1596.98 1069.35 1506.28"/>
    <polygon id="s105" class="cls-1" points="689.85 2561.48 593.85 2616.98 595.35 2525.48 727.35 2448.98 689.85 2561.48"/>
    <polygon id="_22" data-name="22" class="cls-2" points="727.35 2449.01 727.35 2297.45 596.1 2221.67 464.85 2297.45 464.85 2449.01 596.1 2524.78 727.35 2449.01"/>
    <polygon id="s103" class="cls-1" points="461.85 2751.98 461.85 2906.48 478.35 2895.98 478.35 2762.48 461.85 2751.98"/>
    <polygon id="s101" class="cls-1" points="278.85 2097.98 347.85 2256.98 472.35 2327.48 436.35 2189.48 278.85 2097.98"/>
    <polygon id="s99" class="cls-1" points="341.85 1457.48 272.85 1254.98 110.85 1161.98 214.35 1373.48 341.85 1457.48"/>
    <polygon id="_18" data-name="18" class="cls-2" points="430.35 1457.17 430.35 1267.52 266.1 1172.68 101.85 1267.52 101.85 1457.17 266.1 1552 430.35 1457.17"/>
    <polygon id="_20" data-name="20" class="cls-2" points="595.33 2097.98 595.33 1914.98 436.85 1823.48 278.37 1914.98 278.37 2097.98 436.85 2189.48 595.33 2097.98"/>
    <polygon id="_30" data-name="30" class="cls-2" points="593.85 2617.32 593.85 2405.14 410.1 2299.05 226.35 2405.14 226.35 2617.32 410.1 2723.41 593.85 2617.32"/>
    <polygon id="s98" class="cls-1" points="433.35 974.48 487.35 1383.98 487.35 1499.48 433.35 1161.98 433.35 974.48"/>
    <polygon id="s11" class="cls-1" points="461.85 1820.48 461.85 1767.98 328.35 1689.98 352.35 1751.48 461.85 1820.48"/>
    <polygon id="s10" class="cls-1" points="194.85 1767.98 232.35 1820.48 352.35 1751.48 328.35 1689.98 194.85 1767.98"/>
    <polygon id="s6" class="cls-1" points="728.85 1775.48 745.35 1707.98 596.85 1623.98 596.85 1698.98 728.85 1775.48"/>
    <polygon id="s12" class="cls-1" points="596.85 1652.48 596.85 1622.48 446.85 1707.98 470.85 1724.48 596.85 1652.48"/>
    <polygon id="s25" class="cls-1" points="595.35 1982.48 464.85 1905.98 436.35 1826.48 593.85 1917.98 595.35 1982.48"/>
    <polygon id="s24" class="cls-1" points="461.85 1896.98 328.35 1971.98 278.85 1916.48 436.35 1826.48 461.85 1896.98"/>
    <polygon id="s31" class="cls-1" points="328.35 2028.98 314.85 2012.48 173.85 1929.98 194.85 1952.48 328.35 2028.98"/>
    <polygon id="s38" class="cls-1" points="472.35 2472.98 347.85 2544.98 226.35 2405.48 410.85 2298.98 472.35 2472.98"/>
    <polygon id="_1" data-name="1" class="cls-3" points="595.01 1050.98 141.68 789.25 142.35 264.98 595.35 2.48 1048.35 264.98 1048.35 789.25 595.01 1050.98"/>
    <polygon id="xx05" class="cls-1" points="331.35 3603.98 347.85 3552.98 472.35 3624.98 463.35 3680.48 331.35 3603.98"/>
    <polygon id="xx01" class="cls-1" points="727.35 4173.98 689.85 4127.48 595.35 4181.48 595.35 4249.55 727.35 4173.98"/>
    <polygon id="xx02" class="cls-1" points="727.35 4025.48 719.85 4008.98 596.85 3936.98 598.35 3950.74 727.35 4025.48"/>
    <polygon id="xx03" class="cls-1" points="721.35 3723.98 712.35 3695.48 830.85 3764.48 844.35 3795.98 721.35 3723.98"/>
    <polygon id="xx04" class="cls-1" points="712.35 3693.98 721.35 3723.98 596.85 3795.98 596.85 3759.98 712.35 3693.98"/>
    <polygon id="xxx07" class="cls-1" points="803.85 3422.48 830.85 3507.98 715.35 3575.48 698.85 3483.98 803.85 3422.48"/>
    <polygon id="xxx06" class="cls-1" points="596.85 3422.48 596.85 3494.48 712.35 3560.48 698.85 3483.98 596.85 3422.48"/>
    <polygon id="yy1" class="cls-1" points="502.35 3201.98 413.85 3255.98 344.85 3410.48 467.6 3339.23 502.35 3201.98"/>
    <polygon id="yy2" class="cls-1" points="230.85 3317.48 316.35 3204.98 413.85 3255.98 353.85 3387.98 230.85 3317.48"/>
    <polygon id="yy3" class="cls-1" points="109.35 3386.48 224.85 3255.98 316.35 3204.98 230.85 3317.48 109.35 3386.48"/>
    <polygon id="yy4" class="cls-1" points="356.85 3519.98 331.35 3603.98 197.85 3680.48 230.85 3594.98 356.85 3519.98"/>
    <polygon id="yy5" class="cls-1" points="316.35 3527.48 224.85 3579.98 86.85 3857.48 214.35 3783.98 316.35 3527.48"/>
    <polygon id="s51" class="cls-1" points="593.85 2406.98 409.35 2300.48 461.85 2442.98 593.85 2519.48 593.85 2406.98"/>
    <polygon id="c1" class="cls-3" points="597.64 5510.48 210.68 5287.07 211.25 4839.56 597.92 4615.49 984.6 4839.56 984.6 5287.07 597.64 5510.48"/>
    <polygon id="k01" class="cls-1" points="598.35 4407.98 598.35 4614.98 985.35 4839.98 832.35 4415.48 713.85 4340.48 598.35 4407.98"/>
    <polygon id="k02" class="cls-1" points="482.85 4340.48 328.35 4557.98 211.35 4839.98 598.35 4614.98 598.35 4407.98 482.85 4340.48"/>
  </g>
</svg>
