<svg xmlns="http://www.w3.org/2000/svg" width="3500" height="760" viewBox="0 0 3500 760">
  <defs>
    <style>
      .cls-1 {
        fill: #f2f2f2;
      }

      .cls-1, .cls-2, .cls-3 {
        stroke: #000;
        stroke-miterlimit: 10;
      }

      .cls-2, .cls-3 {
        fill: #fff;
      }

      .cls-3 {
        stroke-width: 2px;
      }
    </style>
  </defs>
  <title>aartics_polygons_v2</title>
  <g id="_01stage" data-name="01stage">
    <polygon id="s32" class="cls-1" points="501.5 682.5 1014.5 452.5 1057.5 379.72 675.5 380.5 501.5 682.5"/>
    <polygon id="s63" class="cls-1" points="2097.5 192.5 2131.5 132.5 2165.5 104.5 2125.5 172.5 2097.5 192.5"/>
    <polygon id="_25" data-name="25" class="cls-2" points="2244.51 104.08 2165.17 104.08 2125.5 172.79 2165.17 241.5 2244.51 241.5 2284.17 172.79 2244.51 104.08"/>
    <polygon id="s41" class="cls-1" points="1794.5 241.5 1826.5 317.5 2074.5 303.5 2029.5 224.5 1794.5 241.5"/>
    <polygon id="s88" class="cls-1" points="2933.5 292.5 2832.5 292.5 2939.5 272.5 3060.5 272.5 2933.5 292.5"/>
    <polygon id="s40" class="cls-1" points="2025.5 380.5 2070.5 303.5 1826.5 317.5 1789.5 379.5 2025.5 380.5"/>
    <polygon id="s52" class="cls-1" points="1789.5 241.5 1831.5 170.5 2074.5 146.5 2029.5 224.5 1789.5 241.5"/>
    <polygon id="s60" class="cls-1" points="2348.5 460.5 2306.5 453.5 2265.5 525.5 2303.5 539.5 2348.5 460.5"/>
    <polygon id="s62" class="cls-1" points="2113.5 634.5 2096.5 567.5 2189.5 634.5 2238.5 719.5 2113.5 634.5"/>
    <polygon id="s59" class="cls-1" points="2354.5 381.5 2405.5 469.5 2306.5 453.5 2265.5 381.73 2354.5 381.5"/>
    <polygon id="s61" class="cls-1" points="2182.5 525.5 2265.5 525.5 2303.48 539.07 2335.5 550.5 2238.5 550.5 2182.5 525.5"/>
    <polygon id="s57" class="cls-1" points="2244.5 241.5 2284.5 172.5 2514.5 64.5 2454.5 169.5 2244.5 241.5"/>
    <polygon id="s56" class="cls-1" points="2372.5 298.5 2324.42 215.5 2454.5 169.5 2514.5 274.5 2372.5 298.5"/>
    <polygon id="s94" class="cls-1" points="2746.5 564.5 2781.5 625.5 2927.5 702.5 2881.5 622.5 2746.5 564.5"/>
    <polygon id="_42" data-name="42" class="cls-2" points="3020.48 541.5 2927.52 541.5 2881.05 622 2927.52 702.5 3020.48 702.5 3066.95 622 3020.48 541.5"/>
    <polygon id="_50" data-name="50" class="cls-2" points="3080.61 144.5 2990.54 144.5 2945.5 222.5 2990.54 300.51 3080.61 300.51 3125.64 222.5 3080.61 144.5"/>
    <polygon id="_49" data-name="49" class="cls-2" points="3071.96 301.5 2983.04 301.5 2938.59 378.5 2983.04 455.5 3071.96 455.5 3116.41 378.5 3071.96 301.5"/>
    <polygon id="_48" data-name="48" class="cls-2" points="3164.67 468.5 3061.33 468.5 3009.65 558 3061.33 647.5 3164.67 647.5 3216.35 558 3164.67 468.5"/>
    <polygon id="_51" data-name="51" class="cls-2" points="2970.05 50.5 2875.95 50.5 2828.89 132 2875.95 213.5 2970.05 213.5 3017.11 132 2970.05 50.5"/>
    <polygon id="s87" class="cls-1" points="2741.5 317.5 2781.5 255.5 3120.5 167.5 3060.5 272.5 2741.5 317.5"/>
    <polygon id="s90" class="cls-1" points="2853.5 255.5 2945.5 222.5 2990.5 300.5 2890.5 317.5 2853.5 255.5"/>
    <polygon id="s92" class="cls-1" points="2757.5 214.5 2879.5 167.5 2941.5 63.5 2809.5 126.5 2757.5 214.5"/>
    <polygon id="s91" class="cls-1" points="2799.5 296.5 2939.5 272.5 2879.5 168.5 2751.5 214.5 2799.5 296.5"/>
    <polygon id="s89" class="cls-1" points="2890.5 317.5 2983.5 301.5 2938.5 378.5 2853.5 379.5 2890.5 317.5"/>
    <polygon id="s85" class="cls-1" points="3006.5 621.5 3061.5 647.5 3009.5 557.5 2960.5 541.5 3006.5 621.5"/>
    <polygon id="s84" class="cls-1" points="2764.5 548.5 2732.5 538.5 2777.5 616.5 2813.5 633.5 2764.5 548.5"/>
    <polygon id="s82" class="cls-1" points="2732.5 468.5 2643.5 455.5 2696.5 524.5 2785.5 556.5 2732.5 468.5"/>
    <polygon id="s80" class="cls-1" points="2540.5 455.5 2584.5 379.04 2577.5 378.5 2537.5 449.5 2540.5 455.5"/>
    <polygon id="s79" class="cls-1" points="2631.5 468.5 2551.5 455.5 2640.5 455.5 2734.5 468.5 2631.5 468.5"/>
    <polygon id="s78" class="cls-1" points="2467.5 379.5 2454.5 379.5 2498.5 455.5 2515.5 462.5 2467.5 379.5"/>
    <polygon id="s77" class="cls-1" points="2592.5 704.5 2638.5 624.5 2586.5 566.5 2553.5 628.5 2592.5 704.5"/>
    <polygon id="s76" class="cls-1" points="2589.5 146.5 2531.5 193.5 2567.5 255.5 2634.5 223.5 2589.5 146.5"/>
    <polygon id="s75" class="cls-1" points="2538.5 51.5 2498.5 132.5 2534.5 193.5 2585.5 132.5 2538.5 51.5"/>
    <polygon id="s73" class="cls-1" points="2525.5 214.5 2511.5 241.5 2589.5 241.5 2619.5 214.5 2525.5 214.5"/>
    <polygon id="s70" class="cls-1" points="2324.5 293.5 2312.5 317.5 2349.5 379.5 2375.5 381.5 2324.5 293.5"/>
    <polygon id="s68" class="cls-1" points="2554.5 302.5 2557.5 300.5 2645.5 300.5 2643.5 302.5 2554.5 302.5"/>
    <polygon id="s66" class="cls-1" points="3025.5 463.5 3061.5 468.5 3009.5 557.5 2977.5 546.5 3025.5 463.5"/>
    <polygon id="s67" class="cls-1" points="3071.5 455.5 3164.5 468.5 3073.5 468.5 2983.5 455.5 3071.5 455.5"/>
    <polygon id="s98" class="cls-1" points="813.5 488.5 938.5 452.5 1015.5 452.5 938.5 488.5 813.5 488.5"/>
    <polygon id="s97" class="cls-1" points="2696.5 524.5 2732.5 537.5 2777.5 459.5 2736.5 452.5 2696.5 524.5"/>
    <polygon id="s93" class="cls-1" points="2913.5 538.5 2927.5 541.5 2881.5 622.5 2868.32 616.5 2913.5 538.5"/>
    <polygon id="s58" class="cls-1" points="2372.5 298.5 2405.5 293.5 2354.5 381.5 2324.42 381.5 2372.5 298.5"/>
    <polygon id="s35" class="cls-1" points="2160.5 303.5 2180.5 298.5 2228.5 381.5 2204.5 381.5 2160.5 303.5"/>
    <polygon id="s36" class="cls-1" points="2165.5 303.5 2210.5 224.5 2228.5 215.5 2180.5 298.5 2165.5 303.5"/>
    <polygon id="s83" class="cls-1" points="2665.5 548.5 2616.5 524.5 2696.5 524.5 2763.5 548.5 2665.5 548.5"/>
    <polygon id="_39" data-name="39" class="cls-2" points="2640.31 302.5 2551.93 302.5 2507.74 379.04 2551.93 455.58 2640.31 455.58 2684.5 379.04 2640.31 302.5"/>
    <polygon id="_37" data-name="37" class="cls-2" points="2649.96 146.5 2561.04 146.5 2516.59 223.5 2561.04 300.5 2649.96 300.5 2694.41 223.5 2649.96 146.5"/>
    <polygon id="_36" data-name="36" class="cls-2" points="2826.84 214.5 2732.16 214.5 2684.82 296.5 2732.16 378.5 2826.84 378.5 2874.18 296.5 2826.84 214.5"/>
    <polygon id="s86" class="cls-1" points="2833.5 293.5 2939.5 273.5 3060.5 273.5 2934.5 293.5 2833.5 293.5"/>
    <polygon id="_44" data-name="44" class="cls-2" points="3060.33 64.5 2939.67 64.5 2879.33 169 2939.67 273.5 3060.33 273.5 3120.67 169 3060.33 64.5"/>
    <polygon id="_43" data-name="43" class="cls-2" points="3047.42 381.5 2951.58 381.5 2903.66 464.5 2951.58 547.5 3047.42 547.5 3095.34 464.5 3047.42 381.5"/>
    <polygon id="s96" class="cls-1" points="2832.5 468.96 2736.5 453.96 2696.5 380.5 2781.5 380.96 2832.5 468.96"/>
    <polygon id="_46" data-name="46" class="cls-2" points="2933.36 293.5 2832.33 293.5 2781.81 381 2832.33 468.5 2933.36 468.5 2983.88 381 2933.36 293.5"/>
    <polygon id="_47" data-name="47" class="cls-2" points="2763.57 549.5 2665.43 549.5 2616.35 634.5 2665.43 719.5 2763.57 719.5 2812.65 634.5 2763.57 549.5"/>
    <polygon id="s81" class="cls-1" points="2716.5 646.5 2714.5 634.5 2763.5 549.5 2767.5 558.5 2716.5 646.5"/>
    <polygon id="_26" data-name="26" class="cls-2" points="2159.67 303.5 2070.18 303.5 2025.43 381 2070.18 458.5 2159.67 458.5 2204.41 381 2159.67 303.5"/>
    <polygon id="_27" data-name="27" class="cls-2" points="2165.32 146.5 2074.68 146.5 2029.36 225 2074.68 303.5 2165.32 303.5 2210.64 225 2165.32 146.5"/>
    <polygon id="_28" data-name="28" class="cls-2" points="2324.42 215.5 2228.58 215.5 2180.66 298.5 2228.58 381.5 2324.42 381.5 2372.34 298.5 2324.42 215.5"/>
    <polygon id="_33" data-name="33" class="cls-2" points="2439.42 460.56 2348.8 460.56 2303.5 539.03 2348.8 617.5 2439.42 617.5 2484.72 539.03 2439.42 460.56"/>
    <polygon id="_32" data-name="32" class="cls-2" points="2592.48 543.5 2499.52 543.5 2453.05 624 2499.52 704.5 2592.48 704.5 2638.95 624 2592.48 543.5"/>
    <polygon id="_41" data-name="41" class="cls-2" points="2546.42 379.5 2450.58 379.5 2402.66 462.5 2450.58 545.5 2546.42 545.5 2594.34 462.5 2546.42 379.5"/>
    <polygon id="s74" class="cls-1" points="2554.5 215.5 2546.5 224.5 2589.5 147.5 2601.5 133.5 2554.5 215.5"/>
    <polygon id="_38" data-name="38" class="cls-2" points="2628.54 51.5 2534.62 51.5 2487.66 132.84 2534.62 214.17 2628.54 214.17 2675.5 132.84 2628.54 51.5"/>
    <polygon id="_40" data-name="40" class="cls-2" points="2734.09 468.5 2631.91 468.5 2580.81 557 2631.91 645.5 2734.09 645.5 2785.19 557 2734.09 468.5"/>
    <polygon id="s71" class="cls-1" points="2503.5 470.5 2492.5 442.5 2529.5 382.5 2555.5 382.5 2503.5 470.5"/>
    <polygon id="s69" class="cls-1" points="2696.5 169.5 2569.5 193.5 2506.5 293.5 2636.5 274.5 2696.5 169.5"/>
    <polygon id="_35" data-name="35" class="cls-2" points="2506.52 293.96 2405.17 293.96 2354.5 381.73 2405.17 469.5 2506.52 469.5 2557.19 381.73 2506.52 293.96"/>
    <polygon id="_34" data-name="34" class="cls-2" points="2335.79 550.5 2238.21 550.5 2189.43 635 2238.21 719.5 2335.79 719.5 2384.57 635 2335.79 550.5"/>
    <polygon id="s55" class="cls-1" points="2506.5 293.5 2636.5 274.5 2514.5 274.5 2405.17 293.96 2506.5 293.5"/>
    <polygon id="s72" class="cls-1" points="2634.5 65.5 2624.5 133.5 2671.5 215.5 2694.5 170.5 2634.5 65.5"/>
    <polygon id="_31" data-name="31" class="cls-2" points="2636.12 64.5 2514.88 64.5 2454.26 169.5 2514.88 274.5 2636.12 274.5 2696.74 169.5 2636.12 64.5"/>
    <polygon id="s110" class="cls-1" points="1397.5 193.5 1468.5 194.5 1490.5 179.5 1413.5 179.5 1397.5 193.5"/>
    <polygon id="s1" class="cls-1" points="909.5 143.5 1001.5 143.5 1014.5 177.5 950.5 178.5 909.5 143.5"/>
    <polygon id="_2" data-name="2" class="cls-2" points="1001.11 -14.5 909.89 -14.5 864.28 64.5 909.89 143.5 1001.11 143.5 1046.72 64.5 1001.11 -14.5"/>
    <polygon id="s33" class="cls-1" points="501.5 78.5 675.5 380.5 1040.5 379.5 992.5 296.5 501.5 78.5"/>
    <polygon id="s3" class="cls-1" points="938.5 488.5 1000.5 595.5 1057.5 525.5 1015.5 452.5 938.5 488.5"/>
    <polygon id="s20" class="cls-1" points="1855.5 169.5 1620.5 242.5 1660.5 173.5 1916.5 64.5 1855.5 169.5"/>
    <polygon id="s23" class="cls-1" points="1577.5 379.5 1612.5 442.5 1686.5 467.5 1635.5 380.5 1577.5 379.5"/>
    <polygon id="s50" class="cls-1" points="1855.5 380.5 1743.5 380.5 1792.5 462.5 1916.5 486.5 1855.5 380.5"/>
    <polygon id="s19" class="cls-1" points="1040.5 214.5 1136.5 214.5 1131.5 196.5 1026.5 196.5 1040.5 214.5"/>
    <polygon id="s18" class="cls-1" points="1125.5 169.5 1135.5 214.5 1183.5 296.5 1184.5 273.5 1125.5 169.5"/>
    <polygon id="s17" class="cls-1" points="1146.5 379.5 1134.5 380.5 1184.5 292.5 1181.5 319.5 1146.5 379.5"/>
    <polygon id="s16" class="cls-1" points="1146.5 379.5 1182.5 440.5 1184.5 467.5 1134.5 380.5 1146.5 379.5"/>
    <polygon id="s15" class="cls-1" points="1141.5 524.5 1059.5 524.5 1038.5 549.5 1136.5 549.5 1141.5 524.5"/>
    <polygon id="s11" class="cls-1" points="1474.5 463.5 1493.5 469.5 1441.5 558.5 1425.5 546.5 1474.5 463.5"/>
    <polygon id="s10" class="cls-1" points="1493.5 647.5 1463.5 622.5 1416.5 542.5 1441.5 558.5 1493.5 647.5"/>
    <polygon id="s9" class="cls-1" points="1481.5 185.5 1500.5 173.5 1540.5 104.5 1518.5 121.5 1481.5 185.5"/>
    <polygon id="s8" class="cls-1" points="1468.5 194.5 1504.5 255.5 1540.5 242.5 1500.5 173.5 1468.5 194.5"/>
    <polygon id="s7" class="cls-1" points="1506.5 255.5 1575.5 256.5 1619.5 242.5 1540.5 242.5 1506.5 255.5"/>
    <polygon id="_9" data-name="9" class="cls-2" points="1481.2 57.28 1406.59 57.28 1369.29 121.89 1406.59 186.5 1481.2 186.5 1518.5 121.89 1481.2 57.28"/>
    <polygon id="s48" class="cls-1" points="1475.5 317.5 1490.5 314.5 1529.5 246.5 1511.5 256.5 1475.5 317.5"/>
    <polygon id="s54" class="cls-1" points="1403.5 75.5 1369.5 121.5 1406.5 186.5 1447.5 151.5 1403.5 75.5"/>
    <polygon id="_10" data-name="10" class="cls-2" points="1490.97 179.5 1413.03 179.5 1374.06 247 1413.03 314.5 1490.97 314.5 1529.94 247 1490.97 179.5"/>
    <polygon id="s6" class="cls-1" points="1489.5 291.5 1531.5 280.5 1474.5 379.5 1438.5 379.5 1489.5 291.5"/>
    <polygon id="_5" data-name="5" class="cls-2" points="1136.65 549.5 1038.5 549.5 989.43 634.5 1038.5 719.5 1136.65 719.5 1185.73 634.5 1136.65 549.5"/>
    <polygon id="s14" class="cls-1" points="1185.5 490.5 1182.5 440.5 1146.5 504.5 1123.5 598.5 1185.5 490.5"/>
    <polygon id="s43" class="cls-1" points="1312.5 709.5 1278.5 623.5 1322.5 546.5 1375.5 599.5 1312.5 709.5"/>
    <polygon id="s53" class="cls-1" points="1416.5 703.5 1463.5 622.5 1397.5 567.5 1362.5 628.5 1416.5 703.5"/>
    <polygon id="_14" data-name="14" class="cls-2" points="1417.5 542.5 1324.52 542.5 1278.05 623 1324.52 703.5 1417.48 703.5 1463.95 623 1417.5 542.5"/>
    <polygon id="s29" class="cls-1" points="1683.5 567.5 1918.5 622.5 1965.5 703.5 1719.5 628.5 1683.5 567.5"/>
    <polygon id="_23" data-name="23" class="cls-2" points="2058.51 541.83 1965.17 541.83 1918.5 622.66 1965.17 703.5 2058.51 703.5 2105.18 622.66 2058.51 541.83"/>
    <polygon id="s27" class="cls-1" points="1719.5 503.5 1790.5 503.5 2058.5 541.5 1965.5 541.5 1719.5 503.5"/>
    <polygon id="s28" class="cls-1" points="1683.5 567.5 1719.5 503.5 1965.5 541.5 1918.5 622.5 1683.5 567.5"/>
    <polygon id="_19" data-name="19" class="cls-2" points="1851.86 462.96 1756.29 462.96 1708.5 545.73 1756.29 628.5 1851.86 628.5 1899.65 545.73 1851.86 462.96"/>
    <polygon id="s26" class="cls-1" points="1672.5 756.5 1504.5 628.5 1469.5 567.5 1618.5 661.5 1672.5 756.5"/>
    <polygon id="_15" data-name="15" class="cls-2" points="1596.1 469.5 1493.29 469.5 1441.89 558.53 1493.29 647.57 1596.1 647.57 1647.5 558.53 1596.1 469.5"/>
    <polygon id="s12" class="cls-1" points="1425.5 379.5 1474.5 379.5 1531.5 479.5 1474.5 463.5 1425.5 379.5"/>
    <polygon id="_8" data-name="8" class="cls-2" points="1403.38 75.5 1315.62 75.5 1271.74 151.5 1315.62 227.5 1403.38 227.5 1447.26 151.5 1403.38 75.5"/>
    <polygon id="s2" class="cls-1" points="1026.5 196.5 973.5 105.5 1039.5 193.5 1074.5 255.5 1026.5 196.5"/>
    <polygon id="s100" class="cls-1" points="1438.5 204.5 1489.5 291.5 1413.5 314.5 1374.5 247.5 1438.5 204.5"/>
    <polygon id="_6" data-name="6" class="cls-2" points="1135.57 214.29 1040.19 214.29 992.5 296.9 1040.19 379.5 1135.57 379.5 1183.26 296.9 1135.57 214.29"/>
    <polygon id="s45" class="cls-1" points="1285.5 469.5 1278.5 462.5 1326.5 379.5 1336.5 379.5 1285.5 469.5"/>
    <polygon id="s49" class="cls-1" points="1645.5 280.5 1598.5 288.5 1660.5 380.51 1702.5 380 1645.5 280.5"/>
    <polygon id="s4" class="cls-1" points="1183.5 292.5 1185.5 273.5 1306.5 273.5 1285.5 292.5 1183.5 292.5"/>
    <polygon id="s25" class="cls-1" points="1702.89 380 1645.5 479.5 1672.5 486.5 1733.5 380.5 1702.89 380"/>
    <polygon id="_17" data-name="17" class="cls-2" points="1620.41 104.5 1540.74 104.5 1500.9 173.5 1540.74 242.5 1620.41 242.5 1660.25 173.5 1620.41 104.5"/>
    <polygon id="_3" data-name="3" class="cls-2" points="938.07 488.5 813.93 488.5 751.87 596 813.93 703.5 938.07 703.5 1000.13 596 938.07 488.5"/>
    <polygon id="s34" class="cls-1" points="1131.5 13.5 1136.5 54.5 1141.5 64.5 1161.5 64.5 1131.5 13.5"/>
    <polygon id="_4" data-name="4" class="cls-2" points="1131.83 13.5 1026.17 13.5 973.35 105 1026.17 196.5 1131.83 196.5 1184.65 105 1131.83 13.5"/>
    <polygon id="s107" class="cls-1" points="2038.5 64.5 1865.5 193.5 1902.5 256.5 2099.5 169.5 2038.5 64.5"/>
    <polygon id="s106" class="cls-1" points="2038.5 275.5 2099.5 169.5 1939.5 237.5 1897.5 292.5 1897.5 292.5 2038.5 275.5"/>
    <polygon id="s21" class="cls-1" points="1575.5 256.5 1611.5 317.5 1916.5 275.5 1855.5 169.5 1575.5 256.5"/>
    <polygon id="s30" class="cls-1" points="1611.5 317.5 1685.5 317.5 2037.5 275.5 1916.5 275.5 1611.5 317.5"/>
    <polygon id="s22" class="cls-1" points="1611.5 317.5 1577.5 379.5 1743.96 380 1794.48 292.5 1611.5 317.5"/>
    <polygon id="_24" data-name="24" class="cls-2" points="2037.91 64.5 1916.09 64.5 1855.18 170 1916.09 275.5 2037.91 275.5 2098.82 170 2037.91 64.5"/>
    <polygon id="s31" class="cls-1" points="1647.5 558.5 1672.5 567.5 1618.5 661.5 1596.5 647.5 1647.5 558.5"/>
    <polygon id="s102" class="cls-1" points="1782.5 756.5 1756.5 626.5 1816.5 626.5 1837.5 662.5 1782.5 756.5"/>
    <polygon id="s64" class="cls-1" points="1837.5 661.5 1781.5 567.5 1747.5 558.5 1781.5 626.5 1837.5 661.5"/>
    <polygon id="s65" class="cls-1" points="1647.5 558.5 1747.74 558.5 1781.5 567.5 1672.5 567.5 1647.5 558.5"/>
    <polygon id="_21" data-name="21" class="cls-2" points="1782.56 567.5 1673.44 567.5 1618.88 662 1673.44 756.5 1782.56 756.5 1837.12 662 1782.56 567.5"/>
    <polygon id="s47" class="cls-1" points="1306.5 273.5 1366.5 169.5 1331.5 204.5 1285.5 292.5 1306.5 273.5"/>
    <polygon id="s46" class="cls-1" points="1306.5 64.5 1366.5 169.5 1366.5 169.5 1290.5 256.5 1254.5 193.5 1306.5 64.5"/>
    <polygon id="s44" class="cls-1" points="1375.5 599.5 1322.5 546.5 1284.5 467.5 1312.5 490.5 1375.5 599.5"/>
    <polygon id="s5" class="cls-1" points="1284.5 467.5 1312.5 490.5 1185.5 490.5 1184.5 467.5 1284.5 467.5"/>
    <polygon id="s37" class="cls-1" points="2086.5 648.5 2031.5 622.5 1930.5 541.5 1980.5 558.5 2086.5 648.5"/>
    <polygon id="s108" class="cls-1" points="2156.5 558.5 2063.5 527.5 2018.5 455.5 2104.5 469.5 2156.5 558.5"/>
    <polygon id="_29" data-name="29" class="cls-2" points="2189.67 469.5 2086.33 469.5 2034.65 559 2086.33 648.5 2189.67 648.5 2241.35 559 2189.67 469.5"/>
    <polygon id="s38" class="cls-1" points="1858.5 467.5 1899.5 545.5 1997.5 626.5 1928.5 503.5 1858.5 467.5"/>
    <polygon id="s105" class="cls-1" points="1884.5 317.5 1921.5 381.5 1946.5 380.5 1897.5 292.5 1884.5 317.5"/>
    <polygon id="_22" data-name="22" class="cls-2" points="1895.52 292.5 1794.48 292.5 1743.96 380 1794.48 467.5 1895.52 467.5 1946.04 380 1895.52 292.5"/>
    <polygon id="s103" class="cls-1" points="2001.5 469.5 2104.5 469.5 2016.5 458.5 1918.5 458.5 2001.5 469.5"/>
    <polygon id="s101" class="cls-1" points="1855.5 591.5 1753 541 1792.5 462.5 1916.5 486.5 1855.5 591.5"/>
    <polygon id="_20" data-name="20" class="cls-2" points="1855.5 380.51 1733.5 380.51 1672.5 486.17 1733.5 591.82 1855.5 591.82 1916.5 486.17 1855.5 380.51"/>
    <polygon id="s99" class="cls-1" points="1037.5 549.5 1000.5 595.5 938.5 703.5 988.5 634.5 1037.5 549.5"/>
    <polygon id="s104" class="cls-1" points="2211.5 503.5 2081.5 458.5 2036.5 380.5 2140.5 381.5 2211.5 503.5"/>
    <polygon id="_30" data-name="30" class="cls-2" points="2139.72 381.5 1998.28 381.5 1927.55 504 1998.28 626.5 2139.72 626.5 2210.45 504 2139.72 381.5"/>
    <polygon id="s24" class="cls-1" points="1596.5 469.5 1647.5 558.5 1733.5 591.5 1672.5 486.5 1596.5 469.5"/>
    <polygon id="s42" class="cls-1" points="1403.5 228.5 1374.06 248 1413.5 180.5 1447.5 152.5 1403.5 228.5"/>
    <polygon id="_1" data-name="1" class="cls-2" points="674.5 380.72 500.01 682.95 150.5 682.5 -24.5 380.5 150.5 78.5 500.01 78.5 674.5 380.72"/>
    <polygon id="_13" data-name="13" class="cls-2" points="1425.44 379.5 1329.02 379.5 1280.82 463 1329.02 546.5 1425.44 546.5 1473.65 463 1425.44 379.5"/>
    <polygon id="_12" data-name="12" class="cls-2" points="1285.98 292.5 1184.95 292.5 1134.43 380 1184.95 467.5 1285.98 467.5 1336.5 380 1285.98 292.5"/>
    <polygon id="_11" data-name="11" class="cls-2" points="1438.88 204.16 1337.66 204.16 1287.04 291.83 1337.66 379.5 1438.88 379.5 1489.5 291.83 1438.88 204.16"/>
    <polygon id="s95" class="cls-1" points="2868.5 459.5 2903.5 463.5 2951.5 546.5 2913.5 538.5 2868.5 459.5"/>
    <polygon id="_45" data-name="45" class="cls-2" points="2868.32 459.5 2777.68 459.5 2732.36 538 2777.68 616.5 2868.32 616.5 2913.64 538 2868.32 459.5"/>
    <polygon id="xx05" class="cls-1" points="2580.5 556.5 2546.5 545.5 2594.5 462.5 2631.5 468.5 2580.5 556.5"/>
    <polygon id="xx01" class="cls-1" points="2984.5 292.5 2953.5 317.5 2989.5 380.5 3034.88 380.5 2984.5 292.5"/>
    <polygon id="xx02" class="cls-1" points="2885.5 292.5 2874.5 297.5 2826.5 379.5 2835.68 378.5 2885.5 292.5"/>
    <polygon id="xx03" class="cls-1" points="2684.5 296.5 2665.5 302.5 2711.5 223.5 2732.5 214.5 2684.5 296.5"/>
    <polygon id="xx04" class="cls-1" points="2664.5 302.5 2684.5 296.5 2732.5 379.5 2708.5 379.5 2664.5 302.5"/>
    <polygon id="xxx07" class="cls-1" points="2459.5 241.5 2516.5 223.5 2561.5 300.5 2500.5 311.5 2459.5 241.5"/>
    <polygon id="xxx06" class="cls-1" points="2459.5 379.5 2507.5 379.5 2551.5 302.5 2500.5 311.5 2459.5 379.5"/>
    <polygon id="yy1" class="cls-1" points="2318.5 442.5 2354.5 501.5 2455.5 544.5 2410 465.67 2318.5 442.5"/>
    <polygon id="yy2" class="cls-1" points="2459.5 623.5 2320.5 566.5 2354.5 501.5 2505.5 544.5 2459.5 623.5"/>
    <polygon id="yy3" class="cls-1" points="2505.5 704.5 2354.5 627.5 2320.5 566.5 2459.5 623.5 2505.5 704.5"/>
    <polygon id="yy4" class="cls-1" points="2530.5 539.5 2586.5 556.5 2637.5 645.5 2580.5 623.5 2530.5 539.5"/>
    <polygon id="yy5" class="cls-1" points="2535.5 566.5 2570.5 627.5 2755.5 719.5 2706.5 634.5 2535.5 566.5"/>
    <polygon id="_7" data-name="7" class="cls-2" points="1306.04 64.5 1185.11 64.5 1124.65 169.22 1185.11 273.95 1306.04 273.95 1366.5 169.22 1306.04 64.5"/>
    <polygon id="_18" data-name="18" class="cls-2" points="1312.3 490.5 1185.86 490.5 1122.64 600 1185.86 709.5 1312.3 709.5 1375.52 600 1312.3 490.5"/>
    <polygon id="_16" data-name="16" class="cls-2" points="1645.45 280.5 1530.55 280.5 1473.11 380 1530.55 479.5 1645.45 479.5 1702.89 380 1645.45 280.5"/>
    <polygon id="s51" class="cls-1" points="1997.5 381.5 1926.5 504.5 1857.5 467.5 1908.5 379.5 1997.5 381.5"/>
    <polygon id="c1" class="cls-3" points="3647.5 378.97 3498.56 636.95 3200.22 636.57 3050.84 378.78 3200.22 121 3498.56 121 3647.5 378.97"/>
    <polygon id="k01" class="cls-1" points="2912.5 378.5 3050.5 378.5 3200.5 120.5 2917.5 222.5 2867.5 301.5 2912.5 378.5"/>
    <polygon id="k02" class="cls-1" points="2867.5 455.5 3012.5 558.5 3200.5 636.5 3050.5 378.5 2912.5 378.5 2867.5 455.5"/>
  </g>
</svg>
