<svg xmlns="http://www.w3.org/2000/svg" width="1200" height="5600" viewBox="0 0 1200 5600">
  <defs>
    <style>
      .cls-1 {
        fill: #f2f2f2;
      }

      .cls-1, .cls-2, .cls-3 {
        stroke: #000;
        stroke-miterlimit: 10;
      }

      .cls-2, .cls-3 {
        fill: #fff;
      }

      .cls-3 {
        stroke-width: 2px;
      }
    </style>
  </defs>
  <title>aartics_polygons_vertical</title>
  <g id="_03stage" data-name="03stage">
    <polygon id="s63" class="cls-1" points="877.78 2879.88 967.78 2930.88 1009.78 2981.88 907.78 2921.88 877.78 2879.88"/>
    <polygon id="_25" data-name="25" class="cls-2" points="1010.41 3100.38 1010.41 2981.38 907.35 2921.88 804.28 2981.38 804.28 3100.38 907.35 3159.89 1010.41 3100.38"/>
    <polygon id="s41" class="cls-1" points="783.28 2717.88 688.78 2771.88 711.28 2845.38 829.78 2777.88 783.28 2717.88"/>
    <polygon id="s88" class="cls-1" points="727.78 4133.88 727.78 3982.38 757.78 4142.88 757.78 4324.38 727.78 4133.88"/>
    <polygon id="s40" class="cls-1" points="595.78 2771.88 711.28 2839.38 688.78 2771.88 594.28 2716.38 595.78 2771.88"/>
    <polygon id="s52" class="cls-1" points="783.28 2717.88 874.78 2771.88 946.78 2845.38 829.78 2777.88 783.28 2717.88"/>
    <polygon id="s60" class="cls-1" points="475.79 3256.38 486.29 3193.38 378.29 3131.88 357.29 3188.88 475.79 3256.38"/>
    <polygon id="s62" class="cls-1" points="226.78 2927.88 315.29 2878.38 214.78 3017.88 87.28 3091.38 226.78 2927.88"/>
    <polygon id="s59" class="cls-1" points="594.28 3265.38 462.29 3341.88 486.29 3193.38 593.94 3131.88 594.28 3265.38"/>
    <polygon id="s61" class="cls-1" points="378.29 3007.38 378.29 3131.88 357.94 3188.85 340.79 3236.88 340.79 3091.38 378.29 3007.38"/>
    <polygon id="s57" class="cls-1" points="804.28 3100.38 907.78 3160.38 1069.79 3505.38 912.28 3415.38 804.28 3100.38"/>
    <polygon id="s56" class="cls-1" points="718.78 3292.38 843.28 3220.26 912.28 3415.38 754.78 3505.38 718.78 3292.38"/>
    <polygon id="s94" class="cls-1" points="319.79 3853.38 228.28 3905.88 112.78 4124.88 232.78 4055.88 319.79 3853.38"/>
    <polygon id="_42" data-name="42" class="cls-2" points="354.29 4264.34 354.29 4124.91 233.53 4055.2 112.78 4124.91 112.78 4264.34 233.53 4334.06 354.29 4264.34"/>
    <polygon id="_50" data-name="50" class="cls-2" points="949.78 4354.54 949.78 4219.43 832.78 4151.88 715.77 4219.43 715.77 4354.54 832.78 4422.09 949.78 4354.54"/>
    <polygon id="_49" data-name="49" class="cls-2" points="714.28 4341.56 714.28 4208.19 598.78 4141.51 483.29 4208.19 483.29 4341.56 598.78 4408.24 714.28 4341.56"/>
    <polygon id="_48" data-name="48" class="cls-2" points="463.79 4480.64 463.79 4325.62 329.54 4248.11 195.28 4325.62 195.28 4480.64 329.54 4558.14 463.79 4480.64"/>
    <polygon id="_51" data-name="51" class="cls-2" points="1090.79 4188.71 1090.79 4047.55 968.53 3976.96 846.28 4047.55 846.28 4188.71 968.53 4259.29 1090.79 4188.71"/>
    <polygon id="s87" class="cls-1" points="690.28 3845.88 783.28 3905.88 915.28 4414.38 757.78 4324.38 690.28 3845.88"/>
    <polygon id="s90" class="cls-1" points="783.28 4013.88 832.78 4151.88 715.78 4219.38 690.28 4069.38 783.28 4013.88"/>
    <polygon id="s92" class="cls-1" points="844.78 3869.88 915.28 4052.88 1071.29 4145.88 976.78 3947.88 844.78 3869.88"/>
    <polygon id="s91" class="cls-1" points="721.78 3932.88 757.78 4142.88 913.78 4052.88 844.78 3860.88 721.78 3932.88"/>
    <polygon id="s89" class="cls-1" points="690.28 4069.38 714.28 4208.88 598.78 4141.38 597.28 4013.88 690.28 4069.38"/>
    <polygon id="s85" class="cls-1" points="234.28 4243.38 195.28 4325.88 330.29 4247.88 354.29 4174.38 234.28 4243.38"/>
    <polygon id="s84" class="cls-1" points="343.79 3880.38 358.79 3832.38 241.78 3899.88 216.28 3953.88 343.79 3880.38"/>
    <polygon id="s82" class="cls-1" points="463.79 3832.38 483.29 3698.88 379.79 3778.38 331.79 3911.88 463.79 3832.38"/>
    <polygon id="s80" class="cls-1" points="483.29 3544.38 597.98 3610.38 598.78 3599.88 492.29 3539.88 483.29 3544.38"/>
    <polygon id="s79" class="cls-1" points="463.79 3680.88 483.29 3560.88 483.29 3694.38 463.79 3835.38 463.79 3680.88"/>
    <polygon id="s78" class="cls-1" points="597.28 3434.88 597.28 3415.38 483.29 3481.38 472.79 3506.88 597.28 3434.88"/>
    <polygon id="s77" class="cls-1" points="109.78 3622.38 229.78 3691.38 316.79 3613.38 223.78 3563.88 109.78 3622.38"/>
    <polygon id="s76" class="cls-1" points="946.78 3617.88 876.28 3530.88 783.28 3584.88 831.28 3685.38 946.78 3617.88"/>
    <polygon id="s75" class="cls-1" points="1089.29 3541.38 967.78 3481.38 876.28 3535.38 967.78 3611.88 1089.29 3541.38"/>
    <polygon id="s73" class="cls-1" points="844.78 3521.88 804.28 3500.88 804.28 3617.88 844.78 3662.88 844.78 3521.88"/>
    <polygon id="s70" class="cls-1" points="726.28 3220.38 690.28 3202.38 597.28 3257.88 594.28 3296.88 726.28 3220.38"/>
    <polygon id="s68" class="cls-1" points="712.78 3565.38 715.78 3569.88 715.78 3701.88 712.78 3698.88 712.78 3565.38"/>
    <polygon id="s66" class="cls-1" points="471.29 4271.88 463.79 4325.88 330.29 4247.88 346.79 4199.88 471.29 4271.88"/>
    <polygon id="s67" class="cls-1" points="483.29 4340.88 463.79 4480.38 463.79 4343.88 483.29 4208.88 483.29 4340.88"/>
    <polygon id="s97" class="cls-1" points="379.79 3778.38 360.29 3832.38 477.29 3899.88 487.79 3838.38 379.79 3778.38"/>
    <polygon id="s95" class="cls-1" points="477.29 4036.38 471.29 4088.88 346.79 4160.88 358.79 4103.88 477.29 4036.38"/>
    <polygon id="s93" class="cls-1" points="358.79 4103.88 354.29 4124.88 232.78 4055.88 241.78 4036.11 358.79 4103.88"/>
    <polygon id="s58" class="cls-1" points="718.78 3292.38 726.28 3341.88 594.28 3265.38 594.28 3220.26 718.78 3292.38"/>
    <polygon id="s35" class="cls-1" points="711.28 2974.38 718.78 3004.38 594.28 3076.38 594.28 3040.38 711.28 2974.38"/>
    <polygon id="s36" class="cls-1" points="711.28 2981.88 829.78 3049.38 843.28 3076.38 718.78 3004.38 711.28 2981.88"/>
    <polygon id="s83" class="cls-1" points="343.79 3731.88 379.79 3658.38 379.79 3778.38 343.79 3878.88 343.79 3731.88"/>
    <polygon id="_45" data-name="45" class="cls-2" points="477.29 4036.11 477.29 3900.14 359.54 3832.16 241.78 3900.14 241.78 4036.11 359.54 4104.09 477.29 4036.11"/>
    <polygon id="_39" data-name="39" class="cls-2" points="712.78 3694.09 712.78 3561.52 597.98 3495.24 483.17 3561.52 483.17 3694.09 597.98 3760.38 712.78 3694.09"/>
    <polygon id="_37" data-name="37" class="cls-2" points="946.78 3708.56 946.78 3575.19 831.28 3508.51 715.78 3575.19 715.78 3708.56 831.28 3775.24 946.78 3708.56"/>
    <polygon id="_36" data-name="36" class="cls-2" points="844.78 3939.39 844.78 3797.36 721.78 3726.35 598.78 3797.36 598.78 3939.39 721.78 4010.4 844.78 3939.39"/>
    <polygon id="s86" class="cls-1" points="726.28 4001.88 756.28 4142.88 756.28 4324.38 726.28 4153.38 726.28 4001.88"/>
    <polygon id="_44" data-name="44" class="cls-2" points="1069.79 4324.13 1069.79 4143.13 913.03 4052.63 756.28 4143.13 756.28 4324.13 913.03 4414.63 1069.79 4324.13"/>
    <polygon id="_43" data-name="43" class="cls-2" points="594.28 4304.76 594.28 4160.99 469.79 4089.11 345.29 4160.99 345.29 4304.76 469.79 4376.64 594.28 4304.76"/>
    <polygon id="s96" class="cls-1" points="463.09 4025.88 485.59 3838.38 595.78 3778.38 595.09 3949.38 463.09 4025.88"/>
    <polygon id="_46" data-name="46" class="cls-2" points="726.28 4177.17 726.28 4025.62 595.03 3949.84 463.79 4025.62 463.79 4177.17 595.03 4252.95 726.28 4177.17"/>
    <polygon id="_47" data-name="47" class="cls-2" points="342.29 4003.49 342.29 3856.26 214.78 3782.65 87.28 3856.26 87.28 4003.49 214.78 4077.1 342.29 4003.49"/>
    <polygon id="s81" class="cls-1" points="196.78 3808.38 214.78 3805.38 342.29 3878.88 328.79 3884.88 196.78 3808.38"/>
    <polygon id="_26" data-name="26" class="cls-2" points="711.28 2973.13 711.28 2838.89 595.03 2771.78 478.79 2838.89 478.79 2973.13 595.03 3040.24 711.28 2973.13"/>
    <polygon id="_27" data-name="27" class="cls-2" points="946.78 2981.61 946.78 2845.64 829.03 2777.66 711.28 2845.64 711.28 2981.61 829.03 3049.59 946.78 2981.61"/>
    <polygon id="_28" data-name="28" class="cls-2" points="843.28 3220.26 843.28 3076.49 718.78 3004.61 594.28 3076.49 594.28 3220.26 718.78 3292.14 843.28 3220.26"/>
    <polygon id="_33" data-name="33" class="cls-2" points="475.7 3392.75 475.7 3256.83 357.99 3188.88 240.28 3256.83 240.28 3392.75 357.99 3460.71 475.7 3392.75"/>
    <polygon id="_32" data-name="32" class="cls-2" points="351.29 3622.34 351.29 3482.91 230.53 3413.2 109.78 3482.91 109.78 3622.34 230.53 3692.06 351.29 3622.34"/>
    <polygon id="_41" data-name="41" class="cls-2" points="597.28 3553.26 597.28 3409.49 472.79 3337.61 348.29 3409.49 348.29 3553.26 472.79 3625.14 597.28 3553.26"/>
    <polygon id="s74" class="cls-1" points="843.28 3565.38 829.78 3553.38 945.28 3617.88 966.28 3635.88 843.28 3565.38"/>
    <polygon id="_38" data-name="38" class="cls-2" points="1089.29 3676.44 1089.29 3535.55 967.28 3465.11 845.27 3535.55 845.27 3676.44 967.28 3746.88 1089.29 3676.44"/>
    <polygon id="_40" data-name="40" class="cls-2" points="463.79 3834.77 463.79 3681.48 331.04 3604.84 198.28 3681.48 198.28 3834.77 331.04 3911.41 463.79 3834.77"/>
    <polygon id="s71" class="cls-1" points="460.79 3488.88 502.79 3472.38 592.78 3527.88 592.78 3566.88 460.79 3488.88"/>
    <polygon id="s69" class="cls-1" points="912.28 3778.38 876.28 3587.88 726.28 3493.38 754.78 3688.38 912.28 3778.38"/>
    <polygon id="_35" data-name="35" class="cls-2" points="725.59 3493.4 725.59 3341.39 593.94 3265.38 462.29 3341.39 462.29 3493.4 593.94 3569.41 725.59 3493.4"/>
    <polygon id="_34" data-name="34" class="cls-2" points="340.79 3237.3 340.79 3090.95 214.03 3017.77 87.28 3090.95 87.28 3237.3 214.03 3310.48 340.79 3237.3"/>
    <polygon id="s55" class="cls-1" points="726.28 3493.38 754.78 3688.38 754.78 3505.38 725.59 3341.39 726.28 3493.38"/>
    <polygon id="s72" class="cls-1" points="1068.29 3685.38 966.28 3670.38 843.28 3740.88 910.78 3775.38 1068.29 3685.38"/>
    <polygon id="_31" data-name="31" class="cls-2" points="1069.79 3687.81 1069.79 3505.94 912.28 3415.01 754.78 3505.94 754.78 3687.81 912.28 3778.74 1069.79 3687.81"/>
    <polygon id="s110" class="cls-1" points="876.28 2125.38 874.78 2222.88 886.78 2224.38 885.28 2114.88 876.28 2125.38"/>
    <polygon id="s1" class="cls-1" points="945.28 1001.88 945.28 1139.88 894.28 1249.38 892.78 1135.38 945.28 1001.88"/>
    <polygon id="_2" data-name="2" class="cls-2" points="1188.29 1136.29 1188.29 999.46 1069.79 931.04 951.28 999.46 951.28 1136.29 1069.79 1204.71 1188.29 1136.29"/>
    <polygon id="s33" class="cls-1" points="1048.79 790.38 595.78 1051.38 597.28 1415.88 721.78 1342.38 1048.79 790.38"/>
    <polygon id="s32" class="cls-1" points="142.78 790.38 487.79 1439.88 597.28 1498.38 595.78 1051.38 142.78 790.38"/>
    <polygon id="s3" class="cls-1" points="433.79 1162.38 273.29 1255.38 378.29 1561.38 487.79 1499.88 433.79 1162.38"/>
    <polygon id="s20" class="cls-1" points="910.78 2320.38 781.78 2402.88 876.28 2456.88 1069.79 2411.88 910.78 2320.38"/>
    <polygon id="s23" class="cls-1" points="597.28 2405.88 502.79 2458.38 465.29 2426.88 595.78 2350.38 597.28 2405.88"/>
    <polygon id="s50" class="cls-1" points="595.78 2323.38 597.28 2350.38 462.29 2426.89 436.79 2414.88 595.78 2323.38"/>
    <polygon id="s19" class="cls-1" points="843.28 1277.88 843.28 1412.88 870.28 1252.38 870.28 1094.88 843.28 1277.88"/>
    <polygon id="s18" class="cls-1" points="912.28 1234.38 856.78 1439.88 727.78 1514.88 756.28 1325.88 912.28 1234.38"/>
    <polygon id="s17" class="cls-1" points="597.28 1615.38 595.78 1439.88 727.78 1514.88 687.28 1667.88 597.28 1615.38"/>
    <polygon id="s16" class="cls-1" points="597.28 1615.38 505.79 1669.38 465.29 1514.88 595.78 1439.88 597.28 1615.38"/>
    <polygon id="s15" class="cls-1" points="379.79 1688.88 379.79 1561.38 342.29 1457.88 342.29 1600.38 379.79 1688.88"/>
    <polygon id="s14" class="cls-1" points="430.79 1267.38 505.79 1669.38 409.79 1621.38 268.79 1172.88 430.79 1267.38"/>
    <polygon id="s11" class="cls-1" points="462.29 2015.88 462.29 1963.38 328.79 1885.38 352.79 1946.88 462.29 2015.88"/>
    <polygon id="s10" class="cls-1" points="195.28 1963.38 232.78 2015.88 352.79 1946.88 328.79 1885.38 195.28 1963.38"/>
    <polygon id="s9" class="cls-1" points="874.78 2234.88 906.28 2204.88 1009.78 2264.88 969.28 2288.88 874.78 2234.88"/>
    <polygon id="s8" class="cls-1" points="874.78 2234.88 781.78 2288.88 802.78 2264.88 906.28 2204.88 874.78 2234.88"/>
    <polygon id="s7" class="cls-1" points="781.78 2288.88 781.78 2402.88 802.78 2384.88 802.78 2264.88 781.78 2288.88"/>
    <polygon id="_9" data-name="9" class="cls-2" points="1080.62 2223.92 1080.62 2112.01 983.7 2056.06 886.78 2112.01 886.78 2223.92 983.7 2279.88 1080.62 2223.92"/>
    <polygon id="s48" class="cls-1" points="690.28 2234.88 694.78 2216.08 796.78 2273.88 781.78 2288.88 690.28 2234.88"/>
    <polygon id="s54" class="cls-1" points="1051.79 1978.38 984.28 2056.38 886.78 2111.88 939.28 2042.88 1051.79 1978.38"/>
    <polygon id="_10" data-name="10" class="cls-2" points="897.28 2216.08 897.28 2099.17 796.03 2040.71 694.78 2099.17 694.78 2216.08 796.03 2274.54 897.28 2216.08"/>
    <polygon id="s6" class="cls-1" points="729.28 1970.88 745.78 1903.38 597.28 1819.38 597.28 1894.38 729.28 1970.88"/>
    <polygon id="_5" data-name="5" class="cls-2" points="342.29 1299.1 342.29 1151.88 214.78 1078.27 87.28 1151.88 87.28 1299.1 214.78 1372.72 342.29 1299.1"/>
    <polygon id="s43" class="cls-1" points="102.28 1457.88 231.28 1738.38 352.79 1807.38 267.29 1552.38 102.28 1457.88"/>
    <polygon id="s53" class="cls-1" points="111.28 1946.88 232.78 2015.88 315.29 2125.38 223.78 2075.88 111.28 1946.88"/>
    <polygon id="_14" data-name="14" class="cls-2" points="352.79 1946.88 352.79 1807.41 232.03 1737.69 111.28 1807.41 111.28 1946.84 232.03 2016.56 352.79 1946.88"/>
    <polygon id="_13" data-name="13" class="cls-2" points="597.28 1928.79 597.28 1784.16 472.04 1711.85 346.79 1784.16 346.79 1928.79 472.04 2001.1 597.28 1928.79"/>
    <polygon id="s29" class="cls-1" points="315.29 2565.63 232.78 2575.38 111.28 2642.88 223.78 2617.38 315.29 2565.63"/>
    <polygon id="_23" data-name="23" class="cls-2" points="353.8 2785.4 353.8 2645.38 232.54 2575.38 111.28 2645.38 111.28 2785.4 232.54 2855.4 353.8 2785.4"/>
    <polygon id="s27" class="cls-1" points="411.29 2618.88 411.29 2716.38 354.29 2785.38 354.29 2642.88 411.29 2618.88"/>
    <polygon id="s28" class="cls-1" points="315.29 2564.88 411.29 2618.88 354.29 2642.88 232.78 2575.38 315.29 2564.88"/>
    <polygon id="_19" data-name="19" class="cls-2" points="472.1 2575.92 472.1 2432.56 347.94 2360.88 223.78 2432.56 223.78 2575.92 347.94 2647.6 472.1 2575.92"/>
    <polygon id="s26" class="cls-1" points="31.79 2177.88 223.78 2288.88 315.29 2234.88 174.28 2095.38 31.79 2177.88"/>
    <polygon id="_15" data-name="15" class="cls-2" points="462.29 2117.27 462.29 1963.06 328.74 1885.95 195.19 1963.06 195.19 2117.27 328.74 2194.38 462.29 2117.27"/>
    <polygon id="s12" class="cls-1" points="597.28 1847.88 597.28 1817.88 447.29 1903.38 471.29 1919.88 597.28 1847.88"/>
    <polygon id="s42" class="cls-1" points="825.28 1976.88 796.03 2041.38 897.28 2099.88 939.28 2042.88 825.28 1976.88"/>
    <polygon id="_8" data-name="8" class="cls-2" points="1053.29 1976.69 1053.29 1845.06 939.28 1779.24 825.28 1845.06 825.28 1976.69 939.28 2042.51 1053.29 1976.69"/>
    <polygon id="s2" class="cls-1" points="870.28 1094.88 1008.28 1015.38 874.78 1252.38 849.28 1229.88 870.28 1094.88"/>
    <polygon id="_6" data-name="6" class="cls-2" points="845.09 1486.48 845.09 1343.41 721.19 1271.88 597.28 1343.41 597.28 1486.48 721.19 1558.02 845.09 1486.48"/>
    <polygon id="s45" class="cls-1" points="465.29 1667.88 472.79 1708.38 595.78 1778.88 596.53 1742.88 465.29 1667.88"/>
    <polygon id="_12" data-name="12" class="cls-2" points="727.78 1667.1 727.78 1515.54 596.53 1439.77 465.29 1515.54 465.29 1667.1 596.53 1742.88 727.78 1667.1"/>
    <polygon id="_11" data-name="11" class="cls-2" points="860.29 1894.95 860.29 1743.11 728.79 1667.19 597.28 1743.11 597.28 1894.95 728.79 1970.88 860.29 1894.95"/>
    <polygon id="s100" class="cls-1" points="859.78 1895.88 729.28 1970.88 694.78 2099.88 796.78 2041.38 859.78 1895.88"/>
    <polygon id="s49" class="cls-1" points="745.78 2075.88 688.78 2234.88 595.77 2288.88 596.53 2161.97 745.78 2075.88"/>
    <polygon id="s24" class="cls-1" points="462.29 2119.38 328.79 2195.88 279.29 2138.88 438.29 2048.88 462.29 2119.38"/>
    <polygon id="s107" class="cls-1" points="1069.79 2593.38 876.28 2558.88 781.78 2612.88 912.28 2684.88 1069.79 2593.38"/>
    <polygon id="s106" class="cls-1" points="753.28 2594.88 912.28 2684.88 781.78 2612.88 690.28 2561.88 728.05 2579.88 753.28 2594.88"/>
    <polygon id="s21" class="cls-1" points="781.78 2402.88 690.28 2456.88 753.28 2411.88 910.78 2320.38 781.78 2402.88"/>
    <polygon id="s30" class="cls-1" points="690.28 2456.88 690.28 2557.38 753.28 2593.38 753.28 2411.88 690.28 2456.88"/>
    <polygon id="s22" class="cls-1" points="690.28 2456.88 597.28 2405.88 595.78 2350.38 727.78 2426.88 690.28 2456.88"/>
    <polygon id="_17" data-name="17" class="cls-2" points="1009.78 2384.75 1009.78 2265.24 906.28 2205.48 802.78 2265.24 802.78 2384.75 906.28 2444.5 1009.78 2384.75"/>
    <polygon id="_24" data-name="24" class="cls-2" points="1069.79 2593.99 1069.79 2411.26 911.53 2319.89 753.28 2411.26 753.28 2593.99 911.53 2685.36 1069.79 2593.99"/>
    <polygon id="s31" class="cls-1" points="328.79 2194.38 315.29 2177.88 174.28 2095.38 195.28 2117.88 328.79 2194.38"/>
    <polygon id="s102" class="cls-1" points="31.79 2341.38 226.78 2393.88 226.78 2432.88 172.78 2423.88 31.79 2341.38"/>
    <polygon id="s65" class="cls-1" points="328.79 2194.38 328.79 2352.23 315.29 2341.38 315.29 2177.88 328.79 2194.38"/>
    <polygon id="_21" data-name="21" class="cls-2" points="315.29 2341.47 315.29 2177.79 173.53 2095.95 31.79 2177.79 31.79 2341.47 173.53 2423.3 315.29 2341.47"/>
    <polygon id="_16" data-name="16" class="cls-2" points="745.78 2075.8 745.78 1903.46 596.53 1817.29 447.29 1903.46 447.29 2075.8 596.53 2161.97 745.78 2075.8"/>
    <polygon id="s4" class="cls-1" points="727.78 1514.88 754.78 1327.38 756.28 1504.38 729.28 1667.88 727.78 1514.88"/>
    <polygon id="s25" class="cls-1" points="595.78 2204.88 465.29 2128.38 436.79 2048.88 594.28 2140.38 595.78 2204.88"/>
    <polygon id="s34" class="cls-1" points="1144.79 1252.38 1071.29 1340.88 1069.79 1324.38 1044.29 1310.88 1144.79 1252.38"/>
    <polygon id="_3" data-name="3" class="cls-2" points="433.79 1161.72 433.79 975.53 272.54 882.43 111.28 975.53 111.28 1161.72 272.54 1254.82 433.79 1161.72"/>
    <polygon id="_4" data-name="4" class="cls-2" points="1144.79 1252.87 1144.79 1094.38 1007.53 1015.14 870.28 1094.38 870.28 1252.87 1007.53 1332.11 1144.79 1252.87"/>
    <polygon id="s64" class="cls-1" points="174.28 2423.88 315.29 2341.38 343.76 2360.88 223.78 2432.88 174.28 2423.88"/>
    <polygon id="s47" class="cls-1" points="756.28 1504.38 912.28 1597.38 859.78 1739.88 727.78 1666.38 756.28 1504.38"/>
    <polygon id="s46" class="cls-1" points="1069.79 1507.38 912.28 1597.38 859.78 1742.88 860.29 1827.85 939.28 1781.88 1069.79 1507.38"/>
    <polygon id="s44" class="cls-1" points="267.29 1552.38 346.79 1778.88 472.79 1708.38 430.79 1457.88 267.29 1552.38"/>
    <polygon id="s5" class="cls-1" points="465.29 1667.88 430.79 1457.88 430.79 1267.38 465.29 1514.88 465.29 1667.88"/>
    <polygon id="s37" class="cls-1" points="193.78 2890.38 232.78 2855.88 354.29 2785.38 328.79 2812.38 193.78 2890.38"/>
    <polygon id="s108" class="cls-1" points="328.79 3122.88 375.29 3013.38 478.79 2965.38 462.29 3044.88 328.79 3122.88"/>
    <polygon id="_29" data-name="29" class="cls-2" points="462.29 3045.14 462.29 2890.12 328.04 2812.61 193.78 2890.12 193.78 3045.14 328.04 3122.64 462.29 3045.14"/>
    <polygon id="s104" class="cls-1" points="411.29 3034.38 478.79 2839.38 595.78 2771.88 594.28 2927.88 411.29 3034.38"/>
    <polygon id="_7" data-name="7" class="cls-2" points="1069.79 1506.68 1069.79 1325.29 912.7 1234.6 755.61 1325.29 755.61 1506.68 912.7 1597.38 1069.79 1506.68"/>
    <polygon id="s38" class="cls-1" points="472.79 2575.38 348.29 2647.38 226.78 2716.38 411.29 2609.88 472.79 2575.38"/>
    <polygon id="s105" class="cls-1" points="690.28 2561.88 594.28 2617.38 595.78 2654.88 727.78 2581.38 690.28 2561.88"/>
    <polygon id="_22" data-name="22" class="cls-2" points="727.78 2578.4 727.78 2426.85 596.53 2351.07 465.29 2426.85 465.29 2578.4 596.53 2654.18 727.78 2578.4"/>
    <polygon id="s103" class="cls-1" points="462.29 2890.38 462.29 3044.88 478.79 2972.88 478.79 2839.38 462.29 2890.38"/>
    <polygon id="s101" class="cls-1" points="279.29 2323.38 348.29 2360.88 465.29 2426.88 436.79 2411.88 279.29 2323.38"/>
    <polygon id="s99" class="cls-1" points="342.29 1457.88 273.29 1255.38 111.28 1162.38 214.78 1373.88 342.29 1457.88"/>
    <polygon id="_18" data-name="18" class="cls-2" points="430.79 1457.57 430.79 1267.91 266.54 1173.08 102.28 1267.91 102.28 1457.57 266.54 1552.4 430.79 1457.57"/>
    <polygon id="_20" data-name="20" class="cls-2" points="595.77 2323.38 595.77 2140.38 437.29 2048.88 278.81 2140.38 278.81 2323.38 437.29 2414.88 595.77 2323.38"/>
    <polygon id="_30" data-name="30" class="cls-2" points="594.28 2928.21 594.28 2716.04 410.54 2609.95 226.78 2716.04 226.78 2928.21 410.54 3034.3 594.28 2928.21"/>
    <polygon id="s98" class="cls-1" points="433.79 974.88 487.79 1384.38 487.79 1499.88 433.79 1162.38 433.79 974.88"/>
    <polygon id="_1" data-name="1" class="cls-3" points="595.45 1051.38 142.11 789.64 142.78 265.38 595.78 2.88 1048.79 265.38 1048.79 789.64 595.45 1051.38"/>
    <polygon id="xx05" class="cls-1" points="331.79 3604.38 348.29 3553.38 472.79 3625.38 463.79 3680.88 331.79 3604.38"/>
    <polygon id="xx01" class="cls-1" points="727.78 4174.38 690.28 4127.88 595.78 4181.88 595.78 4249.95 727.78 4174.38"/>
    <polygon id="xx02" class="cls-1" points="727.78 4025.88 720.28 4009.38 597.28 3937.38 598.78 3951.14 727.78 4025.88"/>
    <polygon id="xx03" class="cls-1" points="721.78 3724.38 712.78 3695.88 831.28 3764.88 844.78 3796.38 721.78 3724.38"/>
    <polygon id="xx04" class="cls-1" points="712.78 3694.38 721.78 3724.38 597.28 3796.38 597.28 3760.38 712.78 3694.38"/>
    <polygon id="xxx07" class="cls-1" points="804.28 3422.88 831.28 3508.38 715.78 3575.88 699.28 3484.38 804.28 3422.88"/>
    <polygon id="xxx06" class="cls-1" points="597.28 3422.88 597.28 3494.88 712.78 3560.88 699.28 3484.38 597.28 3422.88"/>
    <polygon id="yy1" class="cls-1" points="502.79 3202.38 414.29 3256.38 349.79 3407.88 468.04 3339.63 502.79 3202.38"/>
    <polygon id="yy2" class="cls-1" points="231.28 3413.88 316.79 3205.38 414.29 3256.38 349.79 3482.88 231.28 3413.88"/>
    <polygon id="yy3" class="cls-1" points="109.78 3482.88 225.28 3256.38 316.79 3205.38 231.28 3413.88 109.78 3482.88"/>
    <polygon id="yy4" class="cls-1" points="357.29 3520.38 331.79 3604.38 198.28 3680.88 231.28 3595.38 357.29 3520.38"/>
    <polygon id="yy5" class="cls-1" points="316.79 3527.88 225.28 3580.38 87.28 3857.88 214.78 3784.38 316.79 3527.88"/>
    <polygon id="s51" class="cls-1" points="594.28 2716.38 409.79 2609.88 465.29 2578.38 597.28 2654.88 594.28 2716.38"/>
    <polygon id="c1" class="cls-3" points="598.07 5510.88 211.11 5287.46 211.69 4839.96 598.36 4615.89 985.03 4839.96 985.03 5287.46 598.07 5510.88"/>
    <polygon id="k01" class="cls-1" points="598.78 4408.38 598.78 4615.38 985.78 4840.38 832.78 4415.88 714.28 4340.88 598.78 4408.38"/>
    <polygon id="k02" class="cls-1" points="483.29 4340.88 328.79 4558.38 211.78 4840.38 598.78 4615.38 598.78 4408.38 483.29 4340.88"/>
  </g>
</svg>
