<svg xmlns="http://www.w3.org/2000/svg" width="1200" height="5600" viewBox="0 0 1200 5600">
  <defs>
    <style>
      .cls-1 {
        fill: #f2f2f2;
      }

      .cls-1, .cls-2, .cls-3 {
        stroke: #000;
        stroke-miterlimit: 10;
      }

      .cls-2, .cls-3 {
        fill: #fff;
      }

      .cls-3 {
        stroke-width: 2px;
      }
    </style>
  </defs>
  <title>aartics_polygons_vertical</title>
  <g id="_08stage" data-name="08stage">
    <polygon id="s41" class="cls-1" points="805.47 2623.13 704.97 2684.63 710.97 2596.13 829.47 2528.63 805.47 2623.13"/>
    <polygon id="s88" class="cls-1" points="782.97 4243.13 782.97 4133.63 845.97 4115.63 845.97 4261.13 782.97 4243.13"/>
    <polygon id="s40" class="cls-1" points="595.47 2567.63 710.97 2635.13 700.47 2723.63 596.97 2662.13 595.47 2567.63"/>
    <polygon id="s52" class="cls-1" points="805.47 2624.63 911.97 2684.63 946.47 2596.13 829.47 2528.63 805.47 2624.63"/>
    <polygon id="s60" class="cls-1" points="475.47 3079.13 490.47 3122.63 377.97 3053.63 356.97 3011.63 475.47 3079.13"/>
    <polygon id="s62" class="cls-1" points="214.47 2716.13 317.97 3055.13 224.97 3104.63 86.97 2789.63 214.47 2716.13"/>
    <polygon id="s59" class="cls-1" points="595.47 2900.63 463.47 2977.13 491.97 3073.13 595.47 3010.13 595.47 2900.63"/>
    <polygon id="s61" class="cls-1" points="377.97 2959.13 377.97 3088.13 356.97 3007.13 340.47 2933.63 340.47 2788.13 377.97 2959.13"/>
    <polygon id="s57" class="cls-1" points="784.47 3274.13 871.47 3328.13 1069.47 2776.13 911.97 2686.13 784.47 3274.13"/>
    <polygon id="s56" class="cls-1" points="691.47 3328.13 784.47 3274.13 911.97 2686.13 754.47 2776.13 691.47 3328.13"/>
    <polygon id="s94" class="cls-1" points="308.97 4087.13 217.47 4139.63 116.97 4118.63 227.97 4054.13 308.97 4087.13"/>
    <polygon id="_42" data-name="42" class="cls-2" points="353.97 4259.6 353.97 4120.17 233.22 4050.45 112.47 4120.17 112.47 4259.6 233.22 4329.31 353.97 4259.6"/>
    <polygon id="_50" data-name="50" class="cls-2" points="949.47 4459.3 949.47 4324.19 832.46 4256.63 715.46 4324.19 715.46 4459.3 832.46 4526.85 949.47 4459.3"/>
    <polygon id="_49" data-name="49" class="cls-2" points="713.97 4455.32 713.97 4321.95 598.47 4255.27 482.97 4321.95 482.97 4455.32 598.47 4522 713.97 4455.32"/>
    <polygon id="_48" data-name="48" class="cls-2" points="463.47 4498.39 463.47 4343.37 329.22 4265.86 194.97 4343.37 194.97 4498.39 329.22 4575.9 463.47 4498.39"/>
    <polygon id="_51" data-name="51" class="cls-2" points="1090.47 4260.47 1090.47 4119.3 968.22 4048.72 845.97 4119.3 845.97 4260.47 968.22 4331.05 1090.47 4260.47"/>
    <polygon id="s87" class="cls-1" points="689.97 4079.63 782.97 4133.63 914.97 4094.63 757.47 4004.63 689.97 4079.63"/>
    <polygon id="s90" class="cls-1" points="782.97 4243.13 832.47 4256.63 715.47 4324.13 689.97 4295.63 782.97 4243.13"/>
    <polygon id="s92" class="cls-1" points="844.47 3829.13 914.97 3733.13 1070.97 3823.13 976.47 3896.63 844.47 3829.13"/>
    <polygon id="s91" class="cls-1" points="725.97 3898.13 757.47 3823.13 913.47 3733.13 844.47 3829.13 725.97 3898.13"/>
    <polygon id="s89" class="cls-1" points="689.97 4295.63 715.47 4324.13 595.47 4253.63 595.47 4237.13 689.97 4295.63"/>
    <polygon id="s85" class="cls-1" points="232.47 4328.63 194.97 4343.63 329.97 4265.63 353.97 4259.63 232.47 4328.63"/>
    <polygon id="s84" class="cls-1" points="343.47 3821.63 358.47 3847.13 241.47 3914.63 215.97 3895.13 343.47 3821.63"/>
    <polygon id="s82" class="cls-1" points="463.47 3569.63 487.47 3686.63 379.47 3748.13 329.97 3646.13 463.47 3569.63"/>
    <polygon id="s80" class="cls-1" points="482.97 3656.63 597.66 3722.63 598.47 3751.13 487.47 3686.63 482.97 3656.63"/>
    <polygon id="s79" class="cls-1" points="463.47 3424.13 482.97 3523.13 482.97 3656.63 463.47 3577.13 463.47 3424.13"/>
    <polygon id="s78" class="cls-1" points="596.97 3389.63 596.97 3457.13 482.97 3523.13 472.47 3461.63 596.97 3389.63"/>
    <polygon id="s77" class="cls-1" points="109.47 3419.63 220.47 3595.13 314.97 3652.13 229.47 3488.63 109.47 3419.63"/>
    <polygon id="s76" class="cls-1" points="946.47 3643.13 875.97 3755.63 782.97 3808.13 830.97 3710.63 946.47 3643.13"/>
    <polygon id="s75" class="cls-1" points="1088.97 3403.13 967.47 3596.63 871.47 3650.63 967.47 3473.63 1088.97 3403.13"/>
    <polygon id="s73" class="cls-1" points="844.47 3262.13 800.97 3409.13 800.97 3529.13 844.47 3403.13 844.47 3262.13"/>
    <polygon id="s70" class="cls-1" points="725.97 3125.63 695.97 3352.13 598.47 3410.63 593.97 3202.13 725.97 3125.63"/>
    <polygon id="s68" class="cls-1" points="712.25 3518.63 715.44 3511.13 715.44 3643.13 712.25 3652.13 712.25 3518.63"/>
    <polygon id="s66" class="cls-1" points="470.97 4333.13 463.47 4343.63 329.97 4265.63 346.47 4261.13 470.97 4333.13"/>
    <polygon id="s67" class="cls-1" points="482.97 4454.63 463.47 4498.13 463.47 4343.63 482.97 4322.63 482.97 4454.63"/>
    <polygon id="s97" class="cls-1" points="379.47 3859.13 358.47 3847.13 476.97 3914.63 487.47 3922.13 379.47 3859.13"/>
    <polygon id="s95" class="cls-1" points="476.97 4033.13 466.47 4040.63 346.47 4109.63 358.47 4100.63 476.97 4033.13"/>
    <polygon id="s93" class="cls-1" points="358.47 4117.13 353.97 4121.63 232.47 4052.63 242.97 4051.13 358.47 4117.13"/>
    <polygon id="s58" class="cls-1" points="718.47 2975.63 725.97 2942.63 593.97 2866.13 593.97 2903.63 718.47 2975.63"/>
    <polygon id="s35" class="cls-1" points="710.97 2743.13 718.47 2687.63 593.97 2759.63 595.47 2813.63 710.97 2743.13"/>
    <polygon id="s36" class="cls-1" points="716.97 2735.63 827.97 2800.13 842.97 2759.63 718.47 2687.63 716.97 2735.63"/>
    <polygon id="s83" class="cls-1" points="343.47 3674.63 379.47 3748.13 379.47 3880.13 343.47 3821.63 343.47 3674.63"/>
    <polygon id="_45" data-name="45" class="cls-2" points="476.97 4050.87 476.97 3914.9 359.22 3846.92 241.47 3914.9 241.47 4050.87 359.22 4118.85 476.97 4050.87"/>
    <polygon id="_39" data-name="39" class="cls-2" points="712.47 3656.35 712.47 3523.78 597.66 3457.5 482.86 3523.78 482.86 3656.35 597.66 3722.63 712.47 3656.35"/>
    <polygon id="_37" data-name="37" class="cls-2" points="946.47 3643.82 946.47 3510.45 830.97 3443.77 715.47 3510.45 715.47 3643.82 830.97 3710.5 946.47 3643.82"/>
    <polygon id="_36" data-name="36" class="cls-2" points="844.47 3829.65 844.47 3687.62 721.47 3616.61 598.47 3687.62 598.47 3829.65 721.47 3900.66 844.47 3829.65"/>
    <polygon id="s86" class="cls-1" points="727.47 3887.63 757.47 3823.13 757.47 4004.63 727.47 4038.93 727.47 3887.63"/>
    <polygon id="_44" data-name="44" class="cls-2" points="1070.97 4004.38 1070.97 3823.38 914.22 3732.88 757.47 3823.38 757.47 4004.38 914.22 4094.88 1070.97 4004.38"/>
    <polygon id="_43" data-name="43" class="cls-2" points="595.47 4261.01 595.47 4117.25 470.97 4045.37 346.47 4117.25 346.47 4261.01 470.97 4332.89 595.47 4261.01"/>
    <polygon id="s96" class="cls-1" points="464.97 3887.63 487.47 3904.13 597.66 3844.13 596.97 3811.13 464.97 3887.63"/>
    <polygon id="_46" data-name="46" class="cls-2" points="727.47 4038.93 727.47 3887.37 596.22 3811.6 464.97 3887.37 464.97 4038.93 596.22 4114.71 727.47 4038.93"/>
    <polygon id="_47" data-name="47" class="cls-2" points="343.47 3821.75 343.47 3674.52 215.97 3600.91 88.47 3674.52 88.47 3821.75 215.97 3895.36 343.47 3821.75"/>
    <polygon id="s81" class="cls-1" points="197.97 3569.63 215.97 3601.13 343.47 3674.63 331.47 3646.13 197.97 3569.63"/>
    <polygon id="_26" data-name="26" class="cls-2" points="710.97 2767.39 710.97 2633.15 594.72 2566.03 478.47 2633.15 478.47 2767.39 594.72 2834.5 710.97 2767.39"/>
    <polygon id="_27" data-name="27" class="cls-2" points="946.47 2732.37 946.47 2596.4 828.72 2528.42 710.97 2596.4 710.97 2732.37 828.72 2800.35 946.47 2732.37"/>
    <polygon id="_28" data-name="28" class="cls-2" points="842.97 2917.01 842.97 2773.25 718.47 2701.37 593.97 2773.25 593.97 2917.01 718.47 2988.89 842.97 2917.01"/>
    <polygon id="_33" data-name="33" class="cls-2" points="475.38 3211.01 475.38 3075.09 357.68 3007.13 239.97 3075.09 239.97 3211.01 357.68 3278.97 475.38 3211.01"/>
    <polygon id="_32" data-name="32" class="cls-2" points="350.97 3419.6 350.97 3280.17 230.22 3210.45 109.47 3280.17 109.47 3419.6 230.22 3489.31 350.97 3419.6"/>
    <polygon id="_41" data-name="41" class="cls-2" points="596.97 3389.51 596.97 3245.75 472.47 3173.87 347.97 3245.75 347.97 3389.51 472.47 3461.39 596.97 3389.51"/>
    <polygon id="s74" class="cls-1" points="844.47 3403.13 830.97 3443.63 946.47 3511.13 967.47 3473.63 844.47 3403.13"/>
    <polygon id="_38" data-name="38" class="cls-2" points="1088.97 3403.19 1088.97 3262.31 966.96 3191.87 844.96 3262.31 844.96 3403.19 966.96 3473.63 1088.97 3403.19"/>
    <polygon id="_40" data-name="40" class="cls-2" points="463.47 3569.03 463.47 3415.74 330.72 3339.1 197.97 3415.74 197.97 3569.03 330.72 3645.67 463.47 3569.03"/>
    <polygon id="_35" data-name="35" class="cls-2" points="725.27 3125.66 725.27 2973.64 593.62 2897.63 461.97 2973.64 461.97 3125.66 593.62 3201.67 725.27 3125.66"/>
    <polygon id="_34" data-name="34" class="cls-2" points="340.47 2934.06 340.47 2787.7 213.72 2714.53 86.97 2787.7 86.97 2934.06 213.72 3007.24 340.47 2934.06"/>
    <polygon id="s71" class="cls-1" points="461.97 3125.63 472.47 3173.63 596.97 3245.63 593.97 3202.13 461.97 3125.63"/>
    <polygon id="s69" class="cls-1" points="911.97 3049.13 800.97 3409.13 695.97 3352.13 754.47 2959.13 911.97 3049.13"/>
    <polygon id="s55" class="cls-1" points="725.97 3125.63 754.47 2959.13 754.47 2776.13 725.97 2974.13 725.97 3125.63"/>
    <polygon id="s72" class="cls-1" points="1069.47 2959.13 967.47 3191.63 844.47 3262.13 911.97 3049.13 1069.47 2959.13"/>
    <polygon id="_31" data-name="31" class="cls-2" points="1069.47 2958.57 1069.47 2776.7 911.97 2685.77 754.47 2776.7 754.47 2958.57 911.97 3049.5 1069.47 2958.57"/>
    <polygon id="s110" class="cls-1" points="875.97 2125.13 874.47 2222.63 886.47 2224.13 884.97 2114.63 875.97 2125.13"/>
    <polygon id="s1" class="cls-1" points="944.97 1001.63 944.97 1139.63 893.97 1249.13 892.47 1135.13 944.97 1001.63"/>
    <polygon id="_2" data-name="2" class="cls-2" points="1187.97 1136.05 1187.97 999.22 1069.47 930.8 950.97 999.22 950.97 1136.05 1069.47 1204.47 1187.97 1136.05"/>
    <polygon id="s33" class="cls-1" points="1048.47 793.13 595.47 1054.13 596.97 1415.63 721.47 1342.13 1048.47 793.13"/>
    <polygon id="s32" class="cls-1" points="142.47 793.13 487.47 1439.63 595.47 1498.13 595.47 1054.13 142.47 793.13"/>
    <polygon id="s3" class="cls-1" points="433.47 1162.13 272.97 1255.13 377.97 1561.13 487.47 1499.63 433.47 1162.13"/>
    <polygon id="s20" class="cls-1" points="910.47 2101.13 781.47 2402.63 875.97 2452.13 1069.47 2192.63 910.47 2101.13"/>
    <polygon id="s23" class="cls-1" points="596.97 2405.63 502.47 2458.13 464.97 2297.63 595.47 2221.13 596.97 2405.63"/>
    <polygon id="s50" class="cls-1" points="595.47 2098.13 595.47 2221.13 464.97 2297.63 436.47 2189.63 595.47 2098.13"/>
    <polygon id="s19" class="cls-1" points="842.97 1277.63 842.97 1412.63 869.97 1252.13 869.97 1094.63 842.97 1277.63"/>
    <polygon id="s18" class="cls-1" points="911.97 1234.13 856.47 1439.63 727.47 1514.63 755.97 1325.63 911.97 1234.13"/>
    <polygon id="s17" class="cls-1" points="596.97 1615.13 595.47 1439.63 727.47 1514.63 686.97 1667.63 596.97 1615.13"/>
    <polygon id="s16" class="cls-1" points="596.97 1615.13 505.47 1669.13 464.97 1514.63 595.47 1439.63 596.97 1615.13"/>
    <polygon id="s15" class="cls-1" points="379.47 1688.63 379.47 1561.13 341.97 1457.63 341.97 1600.13 379.47 1688.63"/>
    <polygon id="s14" class="cls-1" points="430.47 1267.13 505.47 1669.13 409.47 1621.13 268.47 1172.63 430.47 1267.13"/>
    <polygon id="s9" class="cls-1" points="874.47 2234.63 905.97 2174.63 1009.47 2234.63 968.97 2288.63 874.47 2234.63"/>
    <polygon id="s8" class="cls-1" points="874.47 2234.63 781.47 2288.63 802.47 2234.63 905.97 2174.63 874.47 2234.63"/>
    <polygon id="s7" class="cls-1" points="781.47 2288.63 781.47 2402.63 802.47 2354.63 802.47 2234.63 781.47 2288.63"/>
    <polygon id="_9" data-name="9" class="cls-2" points="1080.3 2214.68 1080.3 2102.77 983.38 2046.82 886.47 2102.77 886.47 2214.68 983.38 2270.63 1080.3 2214.68"/>
    <polygon id="s48" class="cls-1" points="689.97 2234.63 694.47 2194.13 796.47 2252.63 781.47 2288.63 689.97 2234.63"/>
    <polygon id="s54" class="cls-1" points="1051.47 1901.63 983.97 2056.13 886.47 2111.63 938.97 1967.63 1051.47 1901.63"/>
    <polygon id="_10" data-name="10" class="cls-2" points="896.97 2194.84 896.97 2077.93 795.72 2019.47 694.47 2077.93 694.47 2194.84 795.72 2253.3 896.97 2194.84"/>
    <polygon id="_5" data-name="5" class="cls-2" points="341.97 1298.86 341.97 1151.64 214.47 1078.03 86.97 1151.64 86.97 1298.86 214.47 1372.47 341.97 1298.86"/>
    <polygon id="s43" class="cls-1" points="101.97 1457.63 230.97 1738.13 352.47 1807.13 266.97 1552.13 101.97 1457.63"/>
    <polygon id="s53" class="cls-1" points="110.97 1852.13 232.47 1921.13 314.97 2128.13 223.47 2078.63 110.97 1852.13"/>
    <polygon id="_14" data-name="14" class="cls-2" points="352.47 1849.13 352.47 1709.67 231.72 1639.95 110.97 1709.67 110.97 1849.1 231.72 1918.81 352.47 1849.13"/>
    <polygon id="_13" data-name="13" class="cls-2" points="596.97 1778.55 596.97 1633.92 471.72 1561.61 346.47 1633.92 346.47 1778.55 471.72 1850.86 596.97 1778.55"/>
    <polygon id="s29" class="cls-1" points="314.97 2565.38 232.47 2479.13 110.97 2549.63 223.47 2617.13 314.97 2565.38"/>
    <polygon id="_23" data-name="23" class="cls-2" points="353.48 2689.16 353.48 2549.14 232.23 2479.13 110.97 2549.14 110.97 2689.16 232.23 2759.16 353.48 2689.16"/>
    <polygon id="s27" class="cls-1" points="410.97 2618.63 409.47 2723.63 353.97 2686.13 353.97 2549.63 410.97 2618.63"/>
    <polygon id="s28" class="cls-1" points="314.97 2564.63 410.97 2618.63 353.97 2549.63 232.47 2479.13 314.97 2564.63"/>
    <polygon id="_19" data-name="19" class="cls-2" points="471.78 2472.18 471.78 2328.82 347.63 2257.13 223.47 2328.82 223.47 2472.18 347.63 2543.86 471.78 2472.18"/>
    <polygon id="s26" class="cls-1" points="31.47 2014.13 223.47 2293.13 314.97 2236.13 173.97 1936.13 31.47 2014.13"/>
    <polygon id="_15" data-name="15" class="cls-2" points="461.97 1964.03 461.97 1809.82 328.42 1732.71 194.87 1809.82 194.87 1964.03 328.42 2041.13 461.97 1964.03"/>
    <polygon id="s42" class="cls-1" points="824.97 1901.63 795.72 2018.63 896.97 2077.13 938.97 1967.63 824.97 1901.63"/>
    <polygon id="_8" data-name="8" class="cls-2" points="1052.97 1901.45 1052.97 1769.82 938.97 1704 824.97 1769.82 824.97 1901.45 938.97 1967.27 1052.97 1901.45"/>
    <polygon id="s2" class="cls-1" points="869.97 1094.63 1007.97 1015.13 874.47 1252.13 848.97 1229.63 869.97 1094.63"/>
    <polygon id="_6" data-name="6" class="cls-2" points="844.78 1486.24 844.78 1343.17 720.87 1271.63 596.97 1343.17 596.97 1486.24 720.87 1557.78 844.78 1486.24"/>
    <polygon id="s45" class="cls-1" points="464.97 1667.63 472.47 1708.13 595.47 1778.63 596.22 1742.63 464.97 1667.63"/>
    <polygon id="_12" data-name="12" class="cls-2" points="727.47 1666.86 727.47 1515.3 596.22 1439.53 464.97 1515.3 464.97 1666.86 596.22 1742.63 727.47 1666.86"/>
    <polygon id="_11" data-name="11" class="cls-2" points="859.97 1768.71 859.97 1616.87 728.47 1540.94 596.97 1616.87 596.97 1768.71 728.47 1844.63 859.97 1768.71"/>
    <polygon id="s100" class="cls-1" points="859.47 1765.13 728.97 1840.13 694.47 2078.63 794.97 2020.13 859.47 1765.13"/>
    <polygon id="s49" class="cls-1" points="745.47 1886.63 688.47 2234.63 595.46 2288.63 596.22 1972.13 745.47 1886.63"/>
    <polygon id="s4" class="cls-1" points="727.47 1514.63 754.47 1327.13 755.97 1504.13 728.97 1667.63 727.47 1514.63"/>
    <polygon id="_17" data-name="17" class="cls-2" points="1009.47 2354.51 1009.47 2234.99 905.97 2175.24 802.47 2234.99 802.47 2354.51 905.97 2414.26 1009.47 2354.51"/>
    <polygon id="s34" class="cls-1" points="1144.47 1252.13 1070.97 1340.63 1069.47 1324.13 1043.97 1310.63 1144.47 1252.13"/>
    <polygon id="_3" data-name="3" class="cls-2" points="433.47 1161.48 433.47 975.29 272.22 882.19 110.97 975.29 110.97 1161.48 272.22 1254.58 433.47 1161.48"/>
    <polygon id="_4" data-name="4" class="cls-2" points="1144.47 1252.63 1144.47 1094.14 1007.22 1014.9 869.97 1094.14 869.97 1252.63 1007.22 1331.87 1144.47 1252.63"/>
    <polygon id="s107" class="cls-1" points="1069.47 2269.13 875.97 2453.63 781.47 2507.63 911.97 2359.13 1069.47 2269.13"/>
    <polygon id="s106" class="cls-1" points="752.97 2269.13 911.97 2359.13 781.47 2507.63 689.97 2456.63 727.74 2344.23 752.97 2269.13"/>
    <polygon id="s65" class="cls-1" points="328.47 2023.13 328.47 2180.99 314.97 2170.13 314.97 2006.63 328.47 2023.13"/>
    <polygon id="s21" class="cls-1" points="781.47 2402.63 689.97 2456.63 752.97 2186.63 910.47 2095.13 781.47 2402.63"/>
    <polygon id="s30" class="cls-1" points="727.47 2192.63 727.47 2344.13 752.97 2267.63 752.97 2081.63 727.47 2192.63"/>
    <polygon id="s22" class="cls-1" points="689.97 2456.63 596.97 2405.63 595.47 2221.13 727.47 2297.63 689.97 2456.63"/>
    <polygon id="_24" data-name="24" class="cls-2" points="1069.47 2268.25 1069.47 2085.52 911.22 1994.15 752.97 2085.52 752.97 2268.25 911.22 2359.61 1069.47 2268.25"/>
    <polygon id="s102" class="cls-1" points="31.47 2177.63 226.47 2404.13 226.47 2327.63 172.47 2260.13 31.47 2177.63"/>
    <polygon id="_21" data-name="21" class="cls-2" points="314.97 2177.72 314.97 2014.04 173.22 1932.2 31.47 2014.04 31.47 2177.72 173.22 2259.56 314.97 2177.72"/>
    <polygon id="s64" class="cls-1" points="172.47 2260.13 314.97 2177.63 347.97 2255.63 226.47 2327.63 172.47 2260.13"/>
    <polygon id="s47" class="cls-1" points="755.97 1504.13 911.97 1597.13 859.47 1739.63 727.47 1666.13 755.97 1504.13"/>
    <polygon id="s46" class="cls-1" points="1069.47 1507.13 911.97 1597.13 859.47 1742.63 859.97 1827.61 938.97 1781.63 1069.47 1507.13"/>
    <polygon id="s44" class="cls-1" points="266.97 1552.13 346.47 1778.63 472.47 1708.13 430.47 1457.63 266.97 1552.13"/>
    <polygon id="s5" class="cls-1" points="464.97 1667.63 430.47 1457.63 430.47 1267.13 464.97 1514.63 464.97 1667.63"/>
    <polygon id="s37" class="cls-1" points="193.47 2752.13 232.47 2759.63 353.97 2689.13 328.47 2672.63 193.47 2752.13"/>
    <polygon id="s108" class="cls-1" points="328.47 2855.63 374.97 2827.13 478.47 2767.13 461.97 2779.13 328.47 2855.63"/>
    <polygon id="_29" data-name="29" class="cls-2" points="461.97 2777.89 461.97 2622.87 327.72 2545.36 193.47 2622.87 193.47 2777.89 327.72 2855.4 461.97 2777.89"/>
    <polygon id="s104" class="cls-1" points="410.97 2594.63 478.47 2633.63 595.47 2566.13 593.97 2488.13 410.97 2594.63"/>
    <polygon id="_7" data-name="7" class="cls-2" points="1069.47 1506.44 1069.47 1325.05 912.38 1234.36 755.3 1325.05 755.3 1506.44 912.38 1597.13 1069.47 1506.44"/>
    <polygon id="s105" class="cls-1" points="689.97 2456.63 593.97 2512.13 595.47 2420.63 727.47 2344.13 689.97 2456.63"/>
    <polygon id="_22" data-name="22" class="cls-2" points="727.47 2344.16 727.47 2192.61 596.22 2116.83 464.97 2192.61 464.97 2344.16 596.22 2419.94 727.47 2344.16"/>
    <polygon id="s103" class="cls-1" points="461.97 2623.13 461.97 2777.63 478.47 2767.13 478.47 2633.63 461.97 2623.13"/>
    <polygon id="s101" class="cls-1" points="278.97 2098.13 347.97 2257.13 472.47 2327.63 436.47 2189.63 278.97 2098.13"/>
    <polygon id="s99" class="cls-1" points="341.97 1457.63 272.97 1255.13 110.97 1162.13 214.47 1373.63 341.97 1457.63"/>
    <polygon id="_18" data-name="18" class="cls-2" points="430.47 1457.33 430.47 1267.67 266.22 1172.84 101.97 1267.67 101.97 1457.33 266.22 1552.16 430.47 1457.33"/>
    <polygon id="_20" data-name="20" class="cls-2" points="595.46 2098.13 595.46 1915.13 436.97 1823.63 278.49 1915.13 278.49 2098.13 436.97 2189.63 595.46 2098.13"/>
    <polygon id="_30" data-name="30" class="cls-2" points="593.97 2488.47 593.97 2276.3 410.22 2170.21 226.47 2276.3 226.47 2488.47 410.22 2594.56 593.97 2488.47"/>
    <polygon id="s98" class="cls-1" points="433.47 974.63 487.47 1384.13 487.47 1499.63 433.47 1162.13 433.47 974.63"/>
    <polygon id="_16" data-name="16" class="cls-2" points="745.47 1882.05 745.47 1709.71 596.22 1623.55 446.97 1709.71 446.97 1882.05 596.22 1968.22 745.47 1882.05"/>
    <polygon id="s11" class="cls-1" points="461.97 1820.63 461.97 1768.13 328.47 1690.13 352.47 1751.63 461.97 1820.63"/>
    <polygon id="s10" class="cls-1" points="194.97 1768.13 232.47 1820.63 352.47 1751.63 328.47 1690.13 194.97 1768.13"/>
    <polygon id="s6" class="cls-1" points="728.97 1775.63 745.47 1708.13 596.97 1624.13 596.97 1699.13 728.97 1775.63"/>
    <polygon id="s12" class="cls-1" points="596.97 1652.63 596.97 1622.63 446.97 1708.13 470.97 1724.63 596.97 1652.63"/>
    <polygon id="s25" class="cls-1" points="595.47 1979.63 464.97 1903.13 436.47 1823.63 593.97 1915.13 595.47 1979.63"/>
    <polygon id="s24" class="cls-1" points="461.97 1894.13 328.47 1969.13 278.97 1913.63 436.47 1823.63 461.97 1894.13"/>
    <polygon id="s31" class="cls-1" points="328.47 2029.13 314.97 2012.63 173.97 1930.13 194.97 1952.63 328.47 2029.13"/>
    <polygon id="s38" class="cls-1" points="472.47 2344.13 347.97 2416.13 226.47 2276.63 410.97 2170.13 472.47 2344.13"/>
    <polygon id="_25" data-name="25" class="cls-2" points="1010.09 3067.14 1010.09 2948.14 907.03 2888.63 803.97 2948.14 803.97 3067.14 907.03 3126.64 1010.09 3067.14"/>
    <polygon id="s63" class="cls-1" points="883.47 2930.63 973.47 2981.63 1015.47 2959.13 913.47 2899.13 883.47 2930.63"/>
    <polygon id="_1" data-name="1" class="cls-3" points="595.13 1051.13 141.8 789.4 142.47 265.13 595.47 2.63 1048.47 265.13 1048.47 789.4 595.13 1051.13"/>
    <polygon id="xx05" class="cls-1" points="331.47 3338.63 347.97 3389.63 472.47 3461.63 463.47 3415.13 331.47 3338.63"/>
    <polygon id="xx01" class="cls-1" points="727.47 4039.13 689.97 4079.63 595.47 4133.63 595.47 4114.71 727.47 4039.13"/>
    <polygon id="xx02" class="cls-1" points="727.47 3887.63 721.47 3901.13 598.47 3829.13 598.47 3812.9 727.47 3887.63"/>
    <polygon id="xx03" class="cls-1" points="721.47 3616.13 715.47 3643.13 830.97 3710.63 844.47 3688.13 721.47 3616.13"/>
    <polygon id="xx04" class="cls-1" points="712.47 3656.63 721.47 3616.13 598.47 3688.13 596.97 3722.63 712.47 3656.63"/>
    <polygon id="xxx07" class="cls-1" points="820.47 3478.13 847.47 3463.13 731.97 3530.63 715.47 3539.63 820.47 3478.13"/>
    <polygon id="xxx06" class="cls-1" points="595.47 3476.63 595.47 3460.13 710.97 3526.13 697.47 3538.13 595.47 3476.63"/>
    <polygon id="s51" class="cls-1" points="593.97 2278.13 409.47 2171.63 463.47 2200.13 595.47 2276.63 593.97 2278.13"/>
    <polygon id="yy1" class="cls-1" points="502.47 3202.13 413.97 3256.13 349.47 3290.63 472.22 3219.38 502.47 3202.13"/>
    <polygon id="yy2" class="cls-1" points="230.97 3214.13 316.47 3205.13 413.97 3256.13 353.97 3284.63 230.97 3214.13"/>
    <polygon id="yy3" class="cls-1" points="109.47 3284.63 224.97 3256.13 316.47 3205.13 230.97 3215.63 109.47 3284.63"/>
    <polygon id="yy4" class="cls-1" points="349.47 3425.63 331.47 3454.13 197.97 3530.63 230.97 3493.13 349.47 3425.63"/>
    <polygon id="yy5" class="cls-1" points="316.47 3527.63 224.97 3580.13 88.47 3731.63 215.97 3658.13 316.47 3527.63"/>
    <polygon id="c1" class="cls-3" points="597.76 5510.63 210.8 5287.22 211.37 4839.72 598.05 4615.65 984.72 4839.72 984.72 5287.22 597.76 5510.63"/>
    <polygon id="k01" class="cls-1" points="598.47 4522.13 598.47 4615.13 985.47 4840.13 832.47 4526.63 713.97 4454.63 598.47 4522.13"/>
    <polygon id="k02" class="cls-1" points="482.97 4454.63 329.97 4576.13 211.47 4840.13 598.47 4615.13 598.47 4522.13 482.97 4454.63"/>
  </g>
</svg>
