<svg xmlns="http://www.w3.org/2000/svg" width="3000" height="760" viewBox="0 0 3000 760">
  <defs>
    <style>
      .cls-1 {
        fill: #4d4d4d;
        stroke: #7ea824;
      }

      .cls-1, .cls-2 {
        stroke-miterlimit: 10;
      }

      .cls-2 {
        fill: #fff;
        stroke: #ed1c24;
      }
    </style>
  </defs>
  <title>aartics_artboards</title>
  <g id="_01stage" data-name="01stage">
    <g id="_01-svg-right" data-name="01-svg-right">
      <polygon id="s63" class="cls-1" points="1742.5 192.5 1776.5 132.5 1810.5 104.5 1770.5 172.5 1742.5 192.5"/>
      <polygon id="_25" data-name="25" class="cls-2" points="1889.51 104.08 1810.17 104.08 1770.5 172.79 1810.17 241.5 1889.51 241.5 1929.17 172.79 1889.51 104.08"/>
      <polygon id="s41" class="cls-1" points="1439.5 241.5 1471.5 317.5 1719.5 303.5 1674.5 224.5 1439.5 241.5"/>
      <polygon id="s88" class="cls-1" points="2578.5 292.5 2477.5 292.5 2584.5 272.5 2705.5 272.5 2578.5 292.5"/>
      <polygon id="s40" class="cls-1" points="1670.5 380.5 1715.5 303.5 1471.5 317.5 1434.5 379.5 1670.5 380.5"/>
      <polygon id="s52" class="cls-1" points="1434.5 241.5 1476.5 170.5 1719.5 146.5 1674.5 224.5 1434.5 241.5"/>
      <polygon id="s60" class="cls-1" points="1993.5 460.5 1951.5 453.5 1910.5 525.5 1948.5 539.5 1993.5 460.5"/>
      <polygon id="s62" class="cls-1" points="1758.5 634.5 1741.5 567.5 1834.5 634.5 1883.5 719.5 1758.5 634.5"/>
      <polygon id="s59" class="cls-1" points="1999.5 381.5 2050.5 469.5 1951.5 453.5 1910.5 381.73 1999.5 381.5"/>
      <polygon id="s61" class="cls-1" points="1827.5 525.5 1910.5 525.5 1948.48 539.07 1980.5 550.5 1883.5 550.5 1827.5 525.5"/>
      <polygon id="s57" class="cls-1" points="1889.5 241.5 1929.5 172.5 2159.5 64.5 2099.5 169.5 1889.5 241.5"/>
      <polygon id="s56" class="cls-1" points="2017.5 298.5 1969.42 215.5 2099.5 169.5 2159.5 274.5 2017.5 298.5"/>
      <polygon id="s94" class="cls-1" points="2391.5 564.5 2426.5 625.5 2572.5 702.5 2526.5 622.5 2391.5 564.5"/>
      <polygon id="_42" data-name="42" class="cls-2" points="2665.48 541.5 2572.52 541.5 2526.05 622 2572.52 702.5 2665.48 702.5 2711.95 622 2665.48 541.5"/>
      <polygon id="_50" data-name="50" class="cls-2" points="2725.61 144.5 2635.54 144.5 2590.5 222.5 2635.54 300.51 2725.61 300.51 2770.64 222.5 2725.61 144.5"/>
      <polygon id="_49" data-name="49" class="cls-2" points="2716.96 301.5 2628.04 301.5 2583.59 378.5 2628.04 455.5 2716.96 455.5 2761.41 378.5 2716.96 301.5"/>
      <polygon id="_48" data-name="48" class="cls-2" points="2809.67 468.5 2706.33 468.5 2654.65 558 2706.33 647.5 2809.67 647.5 2861.35 558 2809.67 468.5"/>
      <polygon id="_51" data-name="51" class="cls-2" points="2615.05 50.5 2520.95 50.5 2473.89 132 2520.95 213.5 2615.05 213.5 2662.11 132 2615.05 50.5"/>
      <polygon id="s87" class="cls-1" points="2386.5 317.5 2426.5 255.5 2765.5 167.5 2705.5 272.5 2386.5 317.5"/>
      <polygon id="s90" class="cls-1" points="2498.5 255.5 2590.5 222.5 2635.5 300.5 2535.5 317.5 2498.5 255.5"/>
      <polygon id="s92" class="cls-1" points="2402.5 214.5 2524.5 167.5 2586.5 63.5 2454.5 126.5 2402.5 214.5"/>
      <polygon id="s91" class="cls-1" points="2444.5 296.5 2584.5 272.5 2524.5 168.5 2396.5 214.5 2444.5 296.5"/>
      <polygon id="s89" class="cls-1" points="2535.5 317.5 2628.5 301.5 2583.5 378.5 2498.5 379.5 2535.5 317.5"/>
      <polygon id="s85" class="cls-1" points="2651.5 621.5 2706.5 647.5 2654.5 557.5 2605.5 541.5 2651.5 621.5"/>
      <polygon id="s84" class="cls-1" points="2409.5 548.5 2377.5 538.5 2422.5 616.5 2458.5 633.5 2409.5 548.5"/>
      <polygon id="s82" class="cls-1" points="2377.5 468.5 2288.5 455.5 2341.5 524.5 2430.5 556.5 2377.5 468.5"/>
      <polygon id="s80" class="cls-1" points="2185.5 455.5 2229.5 379.04 2222.5 378.5 2182.5 449.5 2185.5 455.5"/>
      <polygon id="s79" class="cls-1" points="2276.5 468.5 2196.5 455.5 2285.5 455.5 2379.5 468.5 2276.5 468.5"/>
      <polygon id="s78" class="cls-1" points="2112.5 379.5 2099.5 379.5 2143.5 455.5 2160.5 462.5 2112.5 379.5"/>
      <polygon id="s77" class="cls-1" points="2237.5 704.5 2283.5 624.5 2231.5 566.5 2198.5 628.5 2237.5 704.5"/>
      <polygon id="s76" class="cls-1" points="2234.5 146.5 2176.5 193.5 2212.5 255.5 2279.5 223.5 2234.5 146.5"/>
      <polygon id="s75" class="cls-1" points="2183.5 51.5 2143.5 132.5 2179.5 193.5 2230.5 132.5 2183.5 51.5"/>
      <polygon id="s73" class="cls-1" points="2170.5 214.5 2156.5 241.5 2234.5 241.5 2264.5 214.5 2170.5 214.5"/>
      <polygon id="s70" class="cls-1" points="1969.5 293.5 1957.5 317.5 1994.5 379.5 2020.5 381.5 1969.5 293.5"/>
      <polygon id="s68" class="cls-1" points="2199.5 302.5 2202.5 300.5 2290.5 300.5 2288.5 302.5 2199.5 302.5"/>
      <polygon id="s66" class="cls-1" points="2670.5 463.5 2706.5 468.5 2654.5 557.5 2622.5 546.5 2670.5 463.5"/>
      <polygon id="s67" class="cls-1" points="2716.5 455.5 2809.5 468.5 2718.5 468.5 2628.5 455.5 2716.5 455.5"/>
      <polygon id="s97" class="cls-1" points="2341.5 524.5 2377.5 537.5 2422.5 459.5 2381.5 452.5 2341.5 524.5"/>
      <polygon id="s95" class="cls-1" points="2459.5 459.5 2478.5 463.5 2526.5 546.5 2504.5 538.5 2459.5 459.5"/>
      <polygon id="s93" class="cls-1" points="2558.5 538.5 2572.5 541.5 2526.5 622.5 2513.32 616.5 2558.5 538.5"/>
      <polygon id="s58" class="cls-1" points="2017.5 298.5 2050.5 293.5 1999.5 381.5 1969.42 381.5 2017.5 298.5"/>
      <polygon id="s35" class="cls-1" points="1805.5 303.5 1825.5 298.5 1873.5 381.5 1849.5 381.5 1805.5 303.5"/>
      <polygon id="s36" class="cls-1" points="1810.5 303.5 1855.5 224.5 1873.5 215.5 1825.5 298.5 1810.5 303.5"/>
      <polygon id="s83" class="cls-1" points="2310.5 548.5 2261.5 524.5 2341.5 524.5 2408.5 548.5 2310.5 548.5"/>
      <polygon id="_45" data-name="45" class="cls-2" points="2513.32 459.5 2422.68 459.5 2377.36 538 2422.68 616.5 2513.32 616.5 2558.64 538 2513.32 459.5"/>
      <polygon id="_39" data-name="39" class="cls-2" points="2285.31 302.5 2196.93 302.5 2152.74 379.04 2196.93 455.58 2285.31 455.58 2329.5 379.04 2285.31 302.5"/>
      <polygon id="_37" data-name="37" class="cls-2" points="2294.96 146.5 2206.04 146.5 2161.59 223.5 2206.04 300.5 2294.96 300.5 2339.41 223.5 2294.96 146.5"/>
      <polygon id="_36" data-name="36" class="cls-2" points="2471.84 214.5 2377.16 214.5 2329.82 296.5 2377.16 378.5 2471.84 378.5 2519.18 296.5 2471.84 214.5"/>
      <polygon id="s86" class="cls-1" points="2478.5 293.5 2584.5 273.5 2705.5 273.5 2579.5 293.5 2478.5 293.5"/>
      <polygon id="_44" data-name="44" class="cls-2" points="2705.33 64.5 2584.67 64.5 2524.33 169 2584.67 273.5 2705.33 273.5 2765.67 169 2705.33 64.5"/>
      <polygon id="_43" data-name="43" class="cls-2" points="2692.42 381.5 2596.58 381.5 2548.66 464.5 2596.58 547.5 2692.42 547.5 2740.34 464.5 2692.42 381.5"/>
      <polygon id="s96" class="cls-1" points="2477.5 468.96 2381.5 453.96 2341.5 380.5 2426.5 380.96 2477.5 468.96"/>
      <polygon id="_46" data-name="46" class="cls-2" points="2578.36 293.5 2477.33 293.5 2426.81 381 2477.33 468.5 2578.36 468.5 2628.88 381 2578.36 293.5"/>
      <polygon id="_47" data-name="47" class="cls-2" points="2408.57 549.5 2310.43 549.5 2261.35 634.5 2310.43 719.5 2408.57 719.5 2457.65 634.5 2408.57 549.5"/>
      <polygon id="s81" class="cls-1" points="2361.5 646.5 2359.5 634.5 2408.5 549.5 2412.5 558.5 2361.5 646.5"/>
      <polygon id="_26" data-name="26" class="cls-2" points="1804.67 303.5 1715.18 303.5 1670.43 381 1715.18 458.5 1804.67 458.5 1849.41 381 1804.67 303.5"/>
      <polygon id="_27" data-name="27" class="cls-2" points="1810.32 146.5 1719.68 146.5 1674.36 225 1719.68 303.5 1810.32 303.5 1855.64 225 1810.32 146.5"/>
      <polygon id="_28" data-name="28" class="cls-2" points="1969.42 215.5 1873.58 215.5 1825.66 298.5 1873.58 381.5 1969.42 381.5 2017.34 298.5 1969.42 215.5"/>
      <polygon id="_33" data-name="33" class="cls-2" points="2084.42 460.56 1993.81 460.56 1948.5 539.03 1993.81 617.5 2084.42 617.5 2129.72 539.03 2084.42 460.56"/>
      <polygon id="_32" data-name="32" class="cls-2" points="2237.48 543.5 2144.52 543.5 2098.05 624 2144.52 704.5 2237.48 704.5 2283.95 624 2237.48 543.5"/>
      <polygon id="_41" data-name="41" class="cls-2" points="2191.42 379.5 2095.58 379.5 2047.66 462.5 2095.58 545.5 2191.42 545.5 2239.34 462.5 2191.42 379.5"/>
      <polygon id="s74" class="cls-1" points="2199.5 215.5 2191.5 224.5 2234.5 147.5 2246.5 133.5 2199.5 215.5"/>
      <polygon id="_38" data-name="38" class="cls-2" points="2273.54 51.5 2179.62 51.5 2132.66 132.84 2179.62 214.17 2273.54 214.17 2320.5 132.84 2273.54 51.5"/>
      <polygon id="_40" data-name="40" class="cls-2" points="2379.09 468.5 2276.91 468.5 2225.81 557 2276.91 645.5 2379.09 645.5 2430.19 557 2379.09 468.5"/>
      <polygon id="s71" class="cls-1" points="2148.5 470.5 2137.5 442.5 2174.5 382.5 2200.5 382.5 2148.5 470.5"/>
      <polygon id="s69" class="cls-1" points="2341.5 169.5 2214.5 193.5 2151.5 293.5 2281.5 274.5 2341.5 169.5"/>
      <polygon id="_35" data-name="35" class="cls-2" points="2151.52 293.96 2050.17 293.96 1999.5 381.73 2050.17 469.5 2151.52 469.5 2202.19 381.73 2151.52 293.96"/>
      <polygon id="_34" data-name="34" class="cls-2" points="1980.79 550.5 1883.21 550.5 1834.43 635 1883.21 719.5 1980.79 719.5 2029.57 635 1980.79 550.5"/>
      <polygon id="s55" class="cls-1" points="2151.5 293.5 2281.5 274.5 2159.5 274.5 2050.17 293.96 2151.5 293.5"/>
      <polygon id="s72" class="cls-1" points="2279.5 65.5 2269.5 133.5 2316.5 215.5 2339.5 170.5 2279.5 65.5"/>
      <polygon id="_31" data-name="31" class="cls-2" points="2281.12 64.5 2159.88 64.5 2099.26 169.5 2159.88 274.5 2281.12 274.5 2341.74 169.5 2281.12 64.5"/>
    </g>
    <g id="_01-svg-left" data-name="01-svg-left">
      <polygon id="s110" class="cls-1" points="1042.5 193.5 1113.5 194.5 1135.5 179.5 1058.5 179.5 1042.5 193.5"/>
      <polygon id="s1" class="cls-1" points="554.5 143.5 646.5 143.5 659.5 177.5 595.5 178.5 554.5 143.5"/>
      <polygon id="_2" data-name="2" class="cls-2" points="646.11 -14.5 554.89 -14.5 509.28 64.5 554.89 143.5 646.11 143.5 691.72 64.5 646.11 -14.5"/>
      <polygon id="s33" class="cls-1" points="147.5 78.5 321.5 380.5 685.5 379.5 637.5 296.5 147.5 78.5"/>
      <polygon id="s32" class="cls-1" points="147.5 682.5 659.5 452.5 702.5 380.72 321.5 380.5 147.5 682.5"/>
      <polygon id="s3" class="cls-1" points="583.5 488.5 645.5 595.5 702.5 525.5 660.5 452.5 583.5 488.5"/>
      <polygon id="s20" class="cls-1" points="1500.5 169.5 1220.5 256.5 1256.5 193.5 1561.5 64.5 1500.5 169.5"/>
      <polygon id="s23" class="cls-1" points="1222.5 379.5 1257.5 442.5 1331.5 467.5 1280.5 380.5 1222.5 379.5"/>
      <polygon id="s50" class="cls-1" points="1500.5 380.5 1388.5 380.5 1437.5 462.5 1561.5 486.5 1500.5 380.5"/>
      <polygon id="s19" class="cls-1" points="685.5 214.5 781.5 214.5 776.5 196.5 671.5 196.5 685.5 214.5"/>
      <polygon id="s18" class="cls-1" points="770.5 169.5 780.5 214.5 828.5 296.5 829.5 273.5 770.5 169.5"/>
      <polygon id="s17" class="cls-1" points="791.5 379.5 779.5 380.5 829.5 292.5 826.5 319.5 791.5 379.5"/>
      <polygon id="s16" class="cls-1" points="791.5 379.5 827.5 440.5 829.5 467.5 779.5 380.5 791.5 379.5"/>
      <polygon id="s15" class="cls-1" points="786.5 524.5 704.5 524.5 683.5 549.5 781.5 549.5 786.5 524.5"/>
      <polygon id="s11" class="cls-1" points="1119.5 463.5 1138.5 469.5 1086.5 558.5 1070.5 546.5 1119.5 463.5"/>
      <polygon id="s10" class="cls-1" points="1138.5 647.5 1108.5 622.5 1061.5 542.5 1086.5 558.5 1138.5 647.5"/>
      <polygon id="s9" class="cls-1" points="1126.5 185.5 1145.5 173.5 1185.5 104.5 1163.5 121.5 1126.5 185.5"/>
      <polygon id="s8" class="cls-1" points="1113.5 194.5 1149.5 255.5 1185.5 242.5 1145.5 173.5 1113.5 194.5"/>
      <polygon id="s7" class="cls-1" points="1151.5 255.5 1220.5 256.5 1264.5 242.5 1185.5 242.5 1151.5 255.5"/>
      <polygon id="_9" data-name="9" class="cls-2" points="1126.2 57.28 1051.59 57.28 1014.29 121.89 1051.59 186.5 1126.2 186.5 1163.5 121.89 1126.2 57.28"/>
      <polygon id="s48" class="cls-1" points="1120.5 317.5 1135.5 314.5 1174.5 246.5 1156.5 256.5 1120.5 317.5"/>
      <polygon id="s54" class="cls-1" points="1048.5 75.5 1014.5 121.5 1051.5 186.5 1092.5 151.5 1048.5 75.5"/>
      <polygon id="_10" data-name="10" class="cls-2" points="1135.97 179.5 1058.03 179.5 1019.06 247 1058.03 314.5 1135.97 314.5 1174.94 247 1135.97 179.5"/>
      <polygon id="s6" class="cls-1" points="1134.5 291.5 1176.5 280.5 1119.5 379.5 1083.5 379.5 1134.5 291.5"/>
      <polygon id="_5" data-name="5" class="cls-2" points="781.65 549.5 683.5 549.5 634.43 634.5 683.5 719.5 781.65 719.5 830.73 634.5 781.65 549.5"/>
      <polygon id="s14" class="cls-1" points="830.5 490.5 827.5 440.5 791.5 504.5 768.5 598.5 830.5 490.5"/>
      <polygon id="s43" class="cls-1" points="957.5 709.5 923.5 623.5 967.5 546.5 1020.5 599.5 957.5 709.5"/>
      <polygon id="s53" class="cls-1" points="1061.5 703.5 1108.5 622.5 1042.5 567.5 1007.5 628.5 1061.5 703.5"/>
      <polygon id="_14" data-name="14" class="cls-2" points="1062.5 542.5 969.52 542.5 923.05 623 969.52 703.5 1062.48 703.5 1108.95 623 1062.5 542.5"/>
      <polygon id="_13" data-name="13" class="cls-2" points="1071.44 379.5 975.02 379.5 926.82 463 975.02 546.5 1071.44 546.5 1119.65 463 1071.44 379.5"/>
      <polygon id="s29" class="cls-1" points="1328.5 567.5 1563.5 622.5 1610.5 703.5 1364.5 628.5 1328.5 567.5"/>
      <polygon id="_23" data-name="23" class="cls-2" points="1703.51 541.83 1610.17 541.83 1563.5 622.66 1610.17 703.5 1703.51 703.5 1750.18 622.66 1703.51 541.83"/>
      <polygon id="s27" class="cls-1" points="1364.5 503.5 1435.5 503.5 1703.5 541.5 1610.5 541.5 1364.5 503.5"/>
      <polygon id="s28" class="cls-1" points="1328.5 567.5 1364.5 503.5 1610.5 541.5 1563.5 622.5 1328.5 567.5"/>
      <polygon id="_19" data-name="19" class="cls-2" points="1496.86 462.96 1401.29 462.96 1353.5 545.73 1401.29 628.5 1496.86 628.5 1544.65 545.73 1496.86 462.96"/>
      <polygon id="s26" class="cls-1" points="1317.5 756.5 1149.5 628.5 1114.5 567.5 1263.5 661.5 1317.5 756.5"/>
      <polygon id="_15" data-name="15" class="cls-2" points="1241.1 469.5 1138.29 469.5 1086.89 558.53 1138.29 647.57 1241.1 647.57 1292.5 558.53 1241.1 469.5"/>
      <polygon id="s12" class="cls-1" points="1070.5 379.5 1119.5 379.5 1176.5 479.5 1119.5 463.5 1070.5 379.5"/>
      <polygon id="s42" class="cls-1" points="1048.5 227.5 1019.06 247 1058.5 179.5 1092.5 151.5 1048.5 227.5"/>
      <polygon id="_8" data-name="8" class="cls-2" points="1048.38 75.5 960.62 75.5 916.74 151.5 960.62 227.5 1048.38 227.5 1092.26 151.5 1048.38 75.5"/>
      <polygon id="s2" class="cls-1" points="671.5 196.5 618.5 105.5 684.5 193.5 719.5 255.5 671.5 196.5"/>
      <polygon id="s100" class="cls-1" points="1083.5 204.5 1134.5 291.5 1058.5 314.5 1019.5 247.5 1083.5 204.5"/>
      <polygon id="_6" data-name="6" class="cls-2" points="780.57 214.29 685.19 214.29 637.5 296.9 685.19 379.5 780.57 379.5 828.26 296.9 780.57 214.29"/>
      <polygon id="s45" class="cls-1" points="930.5 469.5 923.5 462.5 971.5 379.5 981.5 379.5 930.5 469.5"/>
      <polygon id="_12" data-name="12" class="cls-2" points="930.98 292.5 829.95 292.5 779.43 380 829.95 467.5 930.98 467.5 981.5 380 930.98 292.5"/>
      <polygon id="_11" data-name="11" class="cls-2" points="1083.88 204.16 982.66 204.16 932.04 291.83 982.66 379.5 1083.88 379.5 1134.5 291.83 1083.88 204.16"/>
      <polygon id="s49" class="cls-1" points="1290.5 280.5 1243.5 288.5 1305.5 380.51 1347.5 380 1290.5 280.5"/>
      <polygon id="s4" class="cls-1" points="828.5 292.5 830.5 273.5 951.5 273.5 930.5 292.5 828.5 292.5"/>
      <polygon id="s25" class="cls-1" points="1347.89 380 1290.5 479.5 1317.5 486.5 1378.5 380.5 1347.89 380"/>
      <polygon id="_17" data-name="17" class="cls-2" points="1265.41 104.5 1185.74 104.5 1145.9 173.5 1185.74 242.5 1265.41 242.5 1305.25 173.5 1265.41 104.5"/>
      <polygon id="_3" data-name="3" class="cls-2" points="583.07 488.5 458.94 488.5 396.87 596 458.94 703.5 583.07 703.5 645.13 596 583.07 488.5"/>
      <polygon id="s34" class="cls-1" points="776.5 13.5 781.5 54.5 786.5 64.5 806.5 64.5 776.5 13.5"/>
      <polygon id="_4" data-name="4" class="cls-2" points="776.83 13.5 671.17 13.5 618.35 105 671.17 196.5 776.83 196.5 829.65 105 776.83 13.5"/>
      <polygon id="s107" class="cls-1" points="1683.5 64.5 1510.5 193.5 1547.5 256.5 1744.5 169.5 1683.5 64.5"/>
      <polygon id="s106" class="cls-1" points="1683.5 275.5 1744.5 169.5 1584.5 237.5 1542.5 292.5 1542.5 292.5 1683.5 275.5"/>
      <polygon id="s21" class="cls-1" points="1220.5 256.5 1256.5 317.5 1561.5 275.5 1500.5 169.5 1220.5 256.5"/>
      <polygon id="s30" class="cls-1" points="1256.5 317.5 1330.5 317.5 1682.5 275.5 1561.5 275.5 1256.5 317.5"/>
      <polygon id="s22" class="cls-1" points="1256.5 317.5 1222.5 379.5 1388.96 380 1439.48 292.5 1256.5 317.5"/>
      <polygon id="_24" data-name="24" class="cls-2" points="1682.91 64.5 1561.09 64.5 1500.18 170 1561.09 275.5 1682.91 275.5 1743.82 170 1682.91 64.5"/>
      <polygon id="s31" class="cls-1" points="1292.5 558.5 1317.5 567.5 1263.5 661.5 1241.5 647.5 1292.5 558.5"/>
      <polygon id="s102" class="cls-1" points="1427.5 756.5 1401.5 626.5 1461.5 626.5 1482.5 662.5 1427.5 756.5"/>
      <polygon id="s64" class="cls-1" points="1482.5 661.5 1426.5 567.5 1392.5 558.5 1426.5 626.5 1482.5 661.5"/>
      <polygon id="s65" class="cls-1" points="1292.5 558.5 1392.74 558.5 1426.5 567.5 1317.5 567.5 1292.5 558.5"/>
      <polygon id="_21" data-name="21" class="cls-2" points="1427.56 567.5 1318.44 567.5 1263.88 662 1318.44 756.5 1427.56 756.5 1482.12 662 1427.56 567.5"/>
      <polygon id="s24" class="cls-1" points="1241.5 469.5 1292.5 558.5 1378.5 591.5 1317.5 486.5 1241.5 469.5"/>
      <polygon id="_16" data-name="16" class="cls-2" points="1290.45 280.5 1175.55 280.5 1118.11 380 1175.55 479.5 1290.45 479.5 1347.89 380 1290.45 280.5"/>
      <polygon id="s47" class="cls-1" points="951.5 273.5 1011.5 169.5 976.5 204.5 930.5 292.5 951.5 273.5"/>
      <polygon id="s46" class="cls-1" points="951.5 64.5 1011.5 169.5 1011.5 169.5 935.5 256.5 899.5 193.5 951.5 64.5"/>
      <polygon id="s44" class="cls-1" points="1020.5 599.5 967.5 546.5 929.5 467.5 957.5 490.5 1020.5 599.5"/>
      <polygon id="s5" class="cls-1" points="929.5 467.5 957.5 490.5 830.5 490.5 829.5 467.5 929.5 467.5"/>
      <polygon id="s37" class="cls-1" points="1731.5 648.5 1676.5 622.5 1575.5 541.5 1625.5 558.5 1731.5 648.5"/>
      <polygon id="s109" class="cls-1" points="1748.5 634.5 1750.5 648.5 1802.5 558.5 1797.5 550.5 1748.5 634.5"/>
      <polygon id="s108" class="cls-1" points="1801.5 558.5 1708.5 527.5 1663.5 455.5 1749.5 469.5 1801.5 558.5"/>
      <polygon id="_29" data-name="29" class="cls-2" points="1834.67 469.5 1731.33 469.5 1679.65 559 1731.33 648.5 1834.67 648.5 1886.35 559 1834.67 469.5"/>
      <polygon id="_7" data-name="7" class="cls-2" points="951.04 64.5 830.11 64.5 769.65 169.22 830.11 273.95 951.04 273.95 1011.5 169.22 951.04 64.5"/>
      <polygon id="s38" class="cls-1" points="1493.5 473.5 1544.5 545.5 1642.5 626.5 1573.5 503.5 1493.5 473.5"/>
      <polygon id="s105" class="cls-1" points="1529.5 317.5 1566.5 381.5 1591.5 380.5 1542.5 292.5 1529.5 317.5"/>
      <polygon id="_22" data-name="22" class="cls-2" points="1540.52 292.5 1439.48 292.5 1388.96 380 1439.48 467.5 1540.52 467.5 1591.04 380 1540.52 292.5"/>
      <polygon id="s103" class="cls-1" points="1646.5 469.5 1749.5 469.5 1661.5 458.5 1563.5 458.5 1646.5 469.5"/>
      <polyline id="s51" class="cls-1" points="1571.5 503.5 1530.5 482.5 1591.5 380.5 1642.5 381.5 1571.5 503.5"/>
      <polygon id="s101" class="cls-1" points="1500.5 591.5 1398 541 1437.5 462.5 1561.5 486.5 1500.5 591.5"/>
      <polygon id="_20" data-name="20" class="cls-2" points="1500.5 380.51 1378.5 380.51 1317.5 486.17 1378.5 591.82 1500.5 591.82 1561.5 486.17 1500.5 380.51"/>
      <polygon id="s99" class="cls-1" points="682.5 549.5 645.5 595.5 583.5 703.5 633.5 634.5 682.5 549.5"/>
      <polygon id="_18" data-name="18" class="cls-2" points="957.3 490.5 830.86 490.5 767.64 600 830.86 709.5 957.3 709.5 1020.52 600 957.3 490.5"/>
      <polygon id="s104" class="cls-1" points="1856.5 503.5 1726.5 458.5 1681.5 380.5 1785.5 381.5 1856.5 503.5"/>
      <polygon id="_30" data-name="30" class="cls-2" points="1784.72 381.5 1643.28 381.5 1572.55 504 1643.28 626.5 1784.72 626.5 1855.45 504 1784.72 381.5"/>
      <polygon id="_1" data-name="1" class="cls-2" points="321.5 380.72 147.01 682.95 0.5 682.95 0.5 78.5 0.5 78.5 147.01 78.5 321.5 380.72"/>
      <polygon id="s98" class="cls-1" points="458.5 488.5 583.5 452.5 660.5 452.5 583.5 488.5 458.5 488.5"/>
    </g>
  </g>
</svg>
