<svg xmlns="http://www.w3.org/2000/svg" width="3500" height="760" viewBox="0 0 3500 760">
  <defs>
    <style>
      .cls-1 {
        fill: #f2f2f2;
      }

      .cls-1, .cls-2, .cls-3 {
        stroke: #000;
        stroke-miterlimit: 10;
      }

      .cls-2, .cls-3 {
        fill: #fff;
      }

      .cls-3 {
        stroke-width: 2px;
      }
    </style>
  </defs>
  <title>aartics_polygons_v2</title>
  <g id="_02stage" data-name="02stage">
    <polygon id="s63" class="cls-1" points="1957.5 192.5 1991.5 132.5 2025.5 104.5 1985.5 172.5 1957.5 192.5"/>
    <polygon id="_25" data-name="25" class="cls-2" points="2104.51 104.08 2025.17 104.08 1985.5 172.79 2025.17 241.5 2104.51 241.5 2144.17 172.79 2104.51 104.08"/>
    <polygon id="s41" class="cls-1" points="1792.5 256.5 1828.5 318.5 1934.5 303.5 1889.5 224.5 1792.5 256.5"/>
    <polygon id="s40" class="cls-1" points="1885.5 380.5 1930.5 303.5 1828.5 318.5 1791.5 380.5 1885.5 380.5"/>
    <polygon id="s88" class="cls-1" points="2793.5 292.5 2692.5 292.5 2799.5 272.5 2920.5 272.5 2793.5 292.5"/>
    <polygon id="s52" class="cls-1" points="1792.5 256.5 1828.5 194.5 1934.5 146.5 1889.5 224.5 1792.5 256.5"/>
    <polygon id="s60" class="cls-1" points="2208.5 460.5 2166.5 453.5 2125.5 525.5 2163.5 539.5 2208.5 460.5"/>
    <polygon id="s62" class="cls-1" points="1973.5 634.5 1956.5 567.5 2049.5 634.5 2098.5 719.5 1973.5 634.5"/>
    <polygon id="s59" class="cls-1" points="2214.5 381.5 2265.5 469.5 2166.5 453.5 2125.5 381.73 2214.5 381.5"/>
    <polygon id="s61" class="cls-1" points="2042.5 525.5 2125.5 525.5 2163.48 539.07 2195.5 550.5 2098.5 550.5 2042.5 525.5"/>
    <polygon id="s57" class="cls-1" points="2104.5 241.5 2144.5 172.5 2374.5 64.5 2314.5 169.5 2104.5 241.5"/>
    <polygon id="s56" class="cls-1" points="2232.5 298.5 2184.42 215.5 2314.5 169.5 2374.5 274.5 2232.5 298.5"/>
    <polygon id="s94" class="cls-1" points="2606.5 564.5 2641.5 625.5 2787.5 702.5 2741.5 622.5 2606.5 564.5"/>
    <polygon id="_42" data-name="42" class="cls-2" points="2880.48 541.5 2787.52 541.5 2741.05 622 2787.52 702.5 2880.48 702.5 2926.95 622 2880.48 541.5"/>
    <polygon id="_50" data-name="50" class="cls-2" points="2940.61 144.5 2850.54 144.5 2805.5 222.5 2850.54 300.51 2940.61 300.51 2985.64 222.5 2940.61 144.5"/>
    <polygon id="_49" data-name="49" class="cls-2" points="2931.96 301.5 2843.04 301.5 2798.59 378.5 2843.04 455.5 2931.96 455.5 2976.41 378.5 2931.96 301.5"/>
    <polygon id="_48" data-name="48" class="cls-2" points="3024.67 468.5 2921.33 468.5 2869.65 558 2921.33 647.5 3024.67 647.5 3076.35 558 3024.67 468.5"/>
    <polygon id="_51" data-name="51" class="cls-2" points="2830.05 50.5 2735.95 50.5 2688.89 132 2735.95 213.5 2830.05 213.5 2877.11 132 2830.05 50.5"/>
    <polygon id="s87" class="cls-1" points="2601.5 317.5 2641.5 255.5 2980.5 167.5 2920.5 272.5 2601.5 317.5"/>
    <polygon id="s90" class="cls-1" points="2713.5 255.5 2805.5 222.5 2850.5 300.5 2750.5 317.5 2713.5 255.5"/>
    <polygon id="s92" class="cls-1" points="2617.5 214.5 2739.5 167.5 2801.5 63.5 2669.5 126.5 2617.5 214.5"/>
    <polygon id="s91" class="cls-1" points="2659.5 296.5 2799.5 272.5 2739.5 168.5 2611.5 214.5 2659.5 296.5"/>
    <polygon id="s89" class="cls-1" points="2750.5 317.5 2843.5 301.5 2798.5 378.5 2713.5 379.5 2750.5 317.5"/>
    <polygon id="s85" class="cls-1" points="2866.5 621.5 2921.5 647.5 2869.5 557.5 2820.5 541.5 2866.5 621.5"/>
    <polygon id="s84" class="cls-1" points="2624.5 548.5 2592.5 538.5 2637.5 616.5 2673.5 633.5 2624.5 548.5"/>
    <polygon id="s82" class="cls-1" points="2592.5 468.5 2503.5 455.5 2556.5 524.5 2645.5 556.5 2592.5 468.5"/>
    <polygon id="s80" class="cls-1" points="2400.5 455.5 2444.5 379.04 2437.5 378.5 2397.5 449.5 2400.5 455.5"/>
    <polygon id="s79" class="cls-1" points="2491.5 468.5 2411.5 455.5 2500.5 455.5 2594.5 468.5 2491.5 468.5"/>
    <polygon id="s78" class="cls-1" points="2327.5 379.5 2314.5 379.5 2358.5 455.5 2375.5 462.5 2327.5 379.5"/>
    <polygon id="s77" class="cls-1" points="2452.5 704.5 2498.5 624.5 2446.5 566.5 2413.5 628.5 2452.5 704.5"/>
    <polygon id="s76" class="cls-1" points="2449.5 146.5 2391.5 193.5 2427.5 255.5 2494.5 223.5 2449.5 146.5"/>
    <polygon id="s75" class="cls-1" points="2398.5 51.5 2358.5 132.5 2394.5 193.5 2445.5 132.5 2398.5 51.5"/>
    <polygon id="s73" class="cls-1" points="2385.5 214.5 2371.5 241.5 2449.5 241.5 2479.5 214.5 2385.5 214.5"/>
    <polygon id="s70" class="cls-1" points="2184.5 293.5 2172.5 317.5 2209.5 379.5 2235.5 381.5 2184.5 293.5"/>
    <polygon id="s68" class="cls-1" points="2414.5 302.5 2417.5 300.5 2505.5 300.5 2503.5 302.5 2414.5 302.5"/>
    <polygon id="s66" class="cls-1" points="2885.5 463.5 2921.5 468.5 2869.5 557.5 2837.5 546.5 2885.5 463.5"/>
    <polygon id="s67" class="cls-1" points="2931.5 455.5 3024.5 468.5 2933.5 468.5 2843.5 455.5 2931.5 455.5"/>
    <polygon id="s97" class="cls-1" points="2556.5 524.5 2592.5 537.5 2637.5 459.5 2596.5 452.5 2556.5 524.5"/>
    <polygon id="s93" class="cls-1" points="2773.5 538.5 2787.5 541.5 2741.5 622.5 2728.32 616.5 2773.5 538.5"/>
    <polygon id="s58" class="cls-1" points="2232.5 298.5 2265.5 293.5 2214.5 381.5 2184.42 381.5 2232.5 298.5"/>
    <polygon id="s35" class="cls-1" points="2011.5 303.5 2054.5 298.5 2102.5 381.5 2056.5 381.5 2011.5 303.5"/>
    <polygon id="s36" class="cls-1" points="2019.5 303.5 2064.5 224.5 2102.5 215.5 2054.5 298.5 2019.5 303.5"/>
    <polygon id="s83" class="cls-1" points="2525.5 548.5 2476.5 524.5 2556.5 524.5 2623.5 548.5 2525.5 548.5"/>
    <polygon id="_39" data-name="39" class="cls-2" points="2500.31 302.5 2411.93 302.5 2367.74 379.04 2411.93 455.58 2500.31 455.58 2544.5 379.04 2500.31 302.5"/>
    <polygon id="_37" data-name="37" class="cls-2" points="2509.96 146.5 2421.04 146.5 2376.59 223.5 2421.04 300.5 2509.96 300.5 2554.41 223.5 2509.96 146.5"/>
    <polygon id="_36" data-name="36" class="cls-2" points="2686.84 214.5 2592.16 214.5 2544.82 296.5 2592.16 378.5 2686.84 378.5 2734.18 296.5 2686.84 214.5"/>
    <polygon id="s86" class="cls-1" points="2693.5 293.5 2799.5 273.5 2920.5 273.5 2794.5 293.5 2693.5 293.5"/>
    <polygon id="_44" data-name="44" class="cls-2" points="2920.33 64.5 2799.67 64.5 2739.33 169 2799.67 273.5 2920.33 273.5 2980.67 169 2920.33 64.5"/>
    <polygon id="_43" data-name="43" class="cls-2" points="2907.42 381.5 2811.58 381.5 2763.66 464.5 2811.58 547.5 2907.42 547.5 2955.34 464.5 2907.42 381.5"/>
    <polygon id="s96" class="cls-1" points="2692.5 468.96 2596.5 453.96 2556.5 380.5 2641.5 380.96 2692.5 468.96"/>
    <polygon id="_46" data-name="46" class="cls-2" points="2793.36 293.5 2692.33 293.5 2641.81 381 2692.33 468.5 2793.36 468.5 2843.88 381 2793.36 293.5"/>
    <polygon id="_47" data-name="47" class="cls-2" points="2623.57 549.5 2525.43 549.5 2476.35 634.5 2525.43 719.5 2623.57 719.5 2672.65 634.5 2623.57 549.5"/>
    <polygon id="s81" class="cls-1" points="2576.5 646.5 2574.5 634.5 2623.5 549.5 2627.5 558.5 2576.5 646.5"/>
    <polygon id="_26" data-name="26" class="cls-2" points="2019.67 303.5 1930.18 303.5 1885.43 381 1930.18 458.5 2019.67 458.5 2064.41 381 2019.67 303.5"/>
    <polygon id="_27" data-name="27" class="cls-2" points="2025.32 146.5 1934.68 146.5 1889.36 225 1934.68 303.5 2025.32 303.5 2070.64 225 2025.32 146.5"/>
    <polygon id="_28" data-name="28" class="cls-2" points="2184.42 215.5 2088.58 215.5 2040.66 298.5 2088.58 381.5 2184.42 381.5 2232.34 298.5 2184.42 215.5"/>
    <polygon id="_33" data-name="33" class="cls-2" points="2299.42 460.56 2208.8 460.56 2163.5 539.03 2208.8 617.5 2299.42 617.5 2344.72 539.03 2299.42 460.56"/>
    <polygon id="_32" data-name="32" class="cls-2" points="2452.48 543.5 2359.52 543.5 2313.05 624 2359.52 704.5 2452.48 704.5 2498.95 624 2452.48 543.5"/>
    <polygon id="_41" data-name="41" class="cls-2" points="2406.42 379.5 2310.58 379.5 2262.66 462.5 2310.58 545.5 2406.42 545.5 2454.34 462.5 2406.42 379.5"/>
    <polygon id="s74" class="cls-1" points="2414.5 215.5 2406.5 224.5 2449.5 147.5 2461.5 133.5 2414.5 215.5"/>
    <polygon id="_38" data-name="38" class="cls-2" points="2488.54 51.5 2394.62 51.5 2347.66 132.84 2394.62 214.17 2488.54 214.17 2535.5 132.84 2488.54 51.5"/>
    <polygon id="_40" data-name="40" class="cls-2" points="2594.09 468.5 2491.91 468.5 2440.81 557 2491.91 645.5 2594.09 645.5 2645.19 557 2594.09 468.5"/>
    <polygon id="s71" class="cls-1" points="2363.5 470.5 2352.5 442.5 2389.5 382.5 2415.5 382.5 2363.5 470.5"/>
    <polygon id="s69" class="cls-1" points="2556.5 169.5 2429.5 193.5 2366.5 293.5 2496.5 274.5 2556.5 169.5"/>
    <polygon id="_35" data-name="35" class="cls-2" points="2366.52 293.96 2265.17 293.96 2214.5 381.73 2265.17 469.5 2366.52 469.5 2417.19 381.73 2366.52 293.96"/>
    <polygon id="_34" data-name="34" class="cls-2" points="2195.79 550.5 2098.21 550.5 2049.43 635 2098.21 719.5 2195.79 719.5 2244.57 635 2195.79 550.5"/>
    <polygon id="s55" class="cls-1" points="2366.5 293.5 2496.5 274.5 2374.5 274.5 2265.17 293.96 2366.5 293.5"/>
    <polygon id="s72" class="cls-1" points="2494.5 65.5 2484.5 133.5 2531.5 215.5 2554.5 170.5 2494.5 65.5"/>
    <polygon id="_31" data-name="31" class="cls-2" points="2496.12 64.5 2374.88 64.5 2314.26 169.5 2374.88 274.5 2496.12 274.5 2556.74 169.5 2496.12 64.5"/>
    <polygon id="s110" class="cls-1" points="1397.5 193.5 1468.5 194.5 1470.5 179.5 1394.5 179.5 1397.5 193.5"/>
    <polygon id="s1" class="cls-1" points="839.5 143.5 931.5 143.5 1004.5 177.5 928.5 178.5 839.5 143.5"/>
    <polygon id="_2" data-name="2" class="cls-2" points="931.11 -14.5 839.89 -14.5 794.28 64.5 839.89 143.5 931.11 143.5 976.72 64.5 931.11 -14.5"/>
    <polygon id="s33" class="cls-1" points="499.5 78.5 674.5 380.5 959.5 379.5 911.5 296.5 499.5 78.5"/>
    <polygon id="s32" class="cls-1" points="500.5 682.5 973.5 452.5 1014.5 379.72 674.5 380.5 500.5 682.5"/>
    <polygon id="s3" class="cls-1" points="748.5 488.5 810.5 595.5 1014.5 525.5 973.5 452.5 748.5 488.5"/>
    <polygon id="s20" class="cls-1" points="1676.5 170.5 1594.5 240.5 1633.5 173.5 1737.5 64.5 1676.5 170.5"/>
    <polygon id="s23" class="cls-1" points="1577.5 379.5 1612.5 442.5 1686.5 467.5 1635.5 380.5 1577.5 379.5"/>
    <polygon id="s50" class="cls-1" points="1675.5 380.5 1635.5 380.5 1686.5 467.5 1736.5 486.5 1675.5 380.5"/>
    <polygon id="s19" class="cls-1" points="960.5 214.5 1051.5 214.5 1011.5 196.5 906.5 196.5 960.5 214.5"/>
    <polygon id="s18" class="cls-1" points="946.5 169.5 1055.5 214.5 1103.5 296.5 1007.5 273.5 946.5 169.5"/>
    <polygon id="s17" class="cls-1" points="1146.5 379.5 1029.5 380.5 1079.5 292.5 1181.5 319.5 1146.5 379.5"/>
    <polygon id="s16" class="cls-1" points="1146.5 379.5 1182.5 440.5 1079.5 467.5 1029.5 380.5 1146.5 379.5"/>
    <polygon id="s15" class="cls-1" points="1099.5 524.5 1014.5 524.5 945.5 549.5 1040.5 549.5 1099.5 524.5"/>
    <polygon id="s14" class="cls-1" points="988.5 490.5 1182.5 440.5 1146.5 504.5 925.5 598.5 988.5 490.5"/>
    <polygon id="s11" class="cls-1" points="1383.5 469.5 1383.5 469.5 1331.5 558.5 1340.5 546.5 1383.5 469.5"/>
    <polygon id="s10" class="cls-1" points="1383.5 647.5 1385.5 622.5 1340.5 542.5 1331.5 558.5 1383.5 647.5"/>
    <polygon id="s9" class="cls-1" points="1468.5 194.5 1473.5 173.5 1513.5 104.5 1506.5 134.5 1468.5 194.5"/>
    <polygon id="s8" class="cls-1" points="1468.5 194.5 1504.5 255.5 1513.5 242.5 1473.5 173.5 1468.5 194.5"/>
    <polygon id="s7" class="cls-1" points="1506.5 255.5 1575.5 256.5 1591.5 242.5 1513.5 242.5 1506.5 255.5"/>
    <polygon id="_9" data-name="9" class="cls-2" points="1472.2 57.28 1397.59 57.28 1360.29 121.89 1397.59 186.5 1472.2 186.5 1509.5 121.89 1472.2 57.28"/>
    <polygon id="s48" class="cls-1" points="1470.5 317.5 1471.5 314.5 1510.5 246.5 1504.5 256.5 1470.5 317.5"/>
    <polygon id="s54" class="cls-1" points="1346.5 76.5 1360.5 121.5 1397.5 186.5 1389.5 151.5 1346.5 76.5"/>
    <polygon id="_10" data-name="10" class="cls-2" points="1471.97 179.5 1394.03 179.5 1355.06 247 1394.03 314.5 1471.97 314.5 1510.94 247 1471.97 179.5"/>
    <polygon id="s6" class="cls-1" points="1379.5 291.5 1374.5 280.5 1317.5 379.5 1328.5 379.5 1379.5 291.5"/>
    <polygon id="_5" data-name="5" class="cls-2" points="1043.65 549.5 945.5 549.5 896.43 634.5 945.5 719.5 1043.65 719.5 1092.73 634.5 1043.65 549.5"/>
    <polygon id="s43" class="cls-1" points="1115.5 709.5 1200.5 622.5 1244.21 546.5 1178.5 599.5 1115.5 709.5"/>
    <polygon id="s53" class="cls-1" points="1339.5 703.5 1385.5 622.5 1397.5 567.5 1364.5 628.5 1339.5 703.5"/>
    <polygon id="_14" data-name="14" class="cls-2" points="1339.5 542.5 1246.52 542.5 1200.05 623 1246.52 703.5 1339.48 703.5 1385.95 623 1339.5 542.5"/>
    <polygon id="s29" class="cls-1" points="1684 567.5 1760.5 622.5 1807.5 703.5 1718.5 628.5 1684 567.5"/>
    <polygon id="s104" class="cls-1" points="2209.5 503.5 2079.5 458.5 2034.5 380.5 2138.5 381.5 2209.5 503.5"/>
    <polygon id="_23" data-name="23" class="cls-2" points="1900.51 541.83 1807.17 541.83 1760.5 622.66 1807.17 703.5 1900.51 703.5 1947.18 622.66 1900.51 541.83"/>
    <polygon id="s27" class="cls-1" points="1719.5 503.5 1790.5 503.5 1900.5 541.5 1807.5 541.5 1719.5 503.5"/>
    <polygon id="s28" class="cls-1" points="1683.5 567.5 1719.5 503.5 1807.5 541.5 1760.5 622.5 1683.5 567.5"/>
    <polygon id="_19" data-name="19" class="cls-2" points="1767.86 462.96 1672.29 462.96 1624.5 545.73 1672.29 628.5 1767.86 628.5 1815.65 545.73 1767.86 462.96"/>
    <polygon id="s26" class="cls-1" points="1542.5 756.5 1504.5 628.5 1469.5 567.5 1487.5 661.5 1542.5 756.5"/>
    <polygon id="_15" data-name="15" class="cls-2" points="1486.1 469.5 1383.29 469.5 1331.89 558.53 1383.29 647.57 1486.1 647.57 1537.5 558.53 1486.1 469.5"/>
    <polygon id="s12" class="cls-1" points="1337.5 379.5 1317.5 379.5 1374.5 479.5 1385.5 463.5 1337.5 379.5"/>
    <polygon id="s42" class="cls-1" points="1346.5 227.5 1355.06 247 1394.5 179.5 1390.5 151.5 1346.5 227.5"/>
    <polygon id="_8" data-name="8" class="cls-2" points="1346.38 75.5 1258.62 75.5 1214.74 151.5 1258.62 227.5 1346.38 227.5 1390.26 151.5 1346.38 75.5"/>
    <polygon id="s2" class="cls-1" points="906.5 196.5 853.5 104.5 1039.5 193.5 1074.5 255.5 906.5 196.5"/>
    <polygon id="_6" data-name="6" class="cls-2" points="1055.57 214.29 960.19 214.29 912.5 296.9 960.19 379.5 1055.57 379.5 1103.26 296.9 1055.57 214.29"/>
    <polygon id="s45" class="cls-1" points="1177.5 468.5 1192.5 462.5 1241.02 379.5 1229.5 380 1177.5 468.5"/>
    <polygon id="s100" class="cls-1" points="1330.5 204.5 1381.5 291.5 1394.5 314.5 1355.5 246.5 1330.5 204.5"/>
    <polygon id="s49" class="cls-1" points="1492.5 280.5 1493.5 288.5 1542.5 380.51 1546.5 380 1492.5 280.5"/>
    <polygon id="s4" class="cls-1" points="1079.5 292.5 1010.5 274.5 1128.5 273.5 1179.5 291.5 1079.5 292.5"/>
    <polygon id="s25" class="cls-1" points="1546.5 379.5 1489.5 479.5 1492.5 486.5 1553.5 380.5 1546.5 379.5"/>
    <polygon id="_17" data-name="17" class="cls-2" points="1593.41 104.5 1513.74 104.5 1473.9 173.5 1513.74 242.5 1593.41 242.5 1633.25 173.5 1593.41 104.5"/>
    <polygon id="s34" class="cls-1" points="1011.5 13.5 1058.5 54.5 1064.65 64.5 1041.27 64.5 1011.5 13.5"/>
    <polygon id="_3" data-name="3" class="cls-2" points="748.07 488.5 623.93 488.5 561.87 596 623.93 703.5 748.07 703.5 810.13 596 748.07 488.5"/>
    <polygon id="_4" data-name="4" class="cls-2" points="1011.83 13.5 906.17 13.5 853.35 105 906.17 196.5 1011.83 196.5 1064.65 105 1011.83 13.5"/>
    <polygon id="s107" class="cls-1" points="1858.5 64.5 1685.5 193.5 1722.5 256.5 1919.5 169.5 1858.5 64.5"/>
    <polygon id="s106" class="cls-1" points="1858.5 275.5 1919.5 169.5 1715.5 256.5 1681.5 317.5 1787.5 292.32 1858.5 275.5"/>
    <polygon id="s21" class="cls-1" points="1575.5 256.5 1611.5 317.5 1737.5 275.5 1676.5 170.5 1575.5 256.5"/>
    <polygon id="s30" class="cls-1" points="1611.5 317.5 1685.5 317.5 1858.5 275.5 1737.5 275.5 1611.5 317.5"/>
    <polygon id="s22" class="cls-1" points="1611.5 317.5 1577.5 379.5 1635.5 380.5 1686.5 292.5 1611.5 317.5"/>
    <polygon id="_24" data-name="24" class="cls-2" points="1858.91 64.5 1737.09 64.5 1676.18 170 1737.09 275.5 1858.91 275.5 1919.82 170 1858.91 64.5"/>
    <polygon id="s31" class="cls-1" points="1534.5 558.5 1542.5 567.5 1487.5 661.5 1486.5 647.5 1534.5 558.5"/>
    <polygon id="s102" class="cls-1" points="1651.5 756.5 1672.5 626.5 1686.5 626.5 1706.5 662.5 1651.5 756.5"/>
    <polygon id="_21" data-name="21" class="cls-2" points="1651.56 567.5 1542.44 567.5 1487.88 662 1542.44 756.5 1651.56 756.5 1706.12 662 1651.56 567.5"/>
    <polygon id="s64" class="cls-1" points="1706.5 661.5 1651.5 567.5 1625.5 548.52 1673.5 628.5 1706.5 661.5"/>
    <polygon id="s24" class="cls-1" points="1489.5 479.5 1537.5 558.5 1553.5 591.5 1494.5 485.5 1489.5 479.5"/>
    <polygon id="s47" class="cls-1" points="1128.5 273.5 1188.5 169.5 1229.5 204.5 1181.5 292.5 1128.5 273.5"/>
    <polygon id="s46" class="cls-1" points="1128.5 64.5 1188.5 169.5 1229.5 204.5 1245.15 204.16 1214.5 151.5 1128.5 64.5"/>
    <polygon id="s44" class="cls-1" points="1178.5 599.5 1241.5 546.5 1192.5 462.5 1115.5 490.5 1178.5 599.5"/>
    <polygon id="s5" class="cls-1" points="1178.5 467.5 1115.5 490.5 988.5 490.5 1079.5 467.5 1178.5 467.5"/>
    <polygon id="s37" class="cls-1" points="2002.5 648.5 1947.5 622.5 1900.5 541.5 1950.5 558.5 2002.5 648.5"/>
    <polygon id="s108" class="cls-1" points="2157.5 558.5 2098.5 550.5 2042.5 468.5 2105.5 469.5 2157.5 558.5"/>
    <polygon id="_29" data-name="29" class="cls-2" points="2105.67 469.5 2002.33 469.5 1950.65 559 2002.33 648.5 2105.67 648.5 2157.35 559 2105.67 469.5"/>
    <polygon id="s38" class="cls-1" points="1767.5 462.5 1815.5 545.5 1997.5 626.5 1928.5 503.5 1767.5 462.5"/>
    <polygon id="s105" class="cls-1" points="1685.5 317.5 1720.5 381.5 1838.5 380.5 1789.5 292.5 1685.5 317.5"/>
    <polygon id="_22" data-name="22" class="cls-2" points="1787.52 292.5 1686.48 292.5 1635.96 380 1686.48 467.5 1787.52 467.5 1838.04 380 1787.52 292.5"/>
    <polygon id="s103" class="cls-1" points="2002.5 469.5 2105.5 469.5 2017.5 458.5 1919.5 458.5 2002.5 469.5"/>
    <polygon id="s65" class="cls-1" points="1534.5 558.5 1638.5 558.5 1650.5 567.5 1541.5 567.5 1534.5 558.5"/>
    <polygon id="s101" class="cls-1" points="1675.5 591.5 1624.5 545.5 1672.5 462.5 1736.5 486.5 1675.5 591.5"/>
    <polygon id="s99" class="cls-1" points="945.5 549.5 810.5 595.5 748.5 703.5 896.5 634.5 945.5 549.5"/>
    <polygon id="_20" data-name="20" class="cls-2" points="1675.5 380.51 1553.5 380.51 1492.5 486.17 1553.5 591.82 1675.5 591.82 1736.5 486.17 1675.5 380.51"/>
    <polygon id="_30" data-name="30" class="cls-2" points="2138.72 381.5 1997.28 381.5 1926.55 504 1997.28 626.5 2138.72 626.5 2209.45 504 2138.72 381.5"/>
    <polygon id="s98" class="cls-1" points="623.5 488.5 896.5 452.5 973.5 452.5 748.5 488.5 623.5 488.5"/>
    <polygon id="_1" data-name="1" class="cls-3" points="674.5 380.72 500.01 682.95 150.5 682.5 -24.5 380.5 150.5 78.5 500.01 78.5 674.5 380.72"/>
    <polygon id="_13" data-name="13" class="cls-2" points="1337.44 379.5 1241.02 379.5 1192.82 463 1241.02 546.5 1337.44 546.5 1385.65 463 1337.44 379.5"/>
    <polygon id="_12" data-name="12" class="cls-2" points="1178.98 292.5 1077.95 292.5 1027.43 380 1077.95 467.5 1178.98 467.5 1229.5 380 1178.98 292.5"/>
    <polygon id="_11" data-name="11" class="cls-2" points="1328.88 204.16 1227.66 204.16 1177.04 291.83 1227.66 379.5 1328.88 379.5 1379.5 291.83 1328.88 204.16"/>
    <polygon id="s95" class="cls-1" points="2728.5 459.5 2763.5 463.5 2811.5 546.5 2773.5 538.5 2728.5 459.5"/>
    <polygon id="_45" data-name="45" class="cls-2" points="2728.32 459.5 2637.68 459.5 2592.36 538 2637.68 616.5 2728.32 616.5 2773.64 538 2728.32 459.5"/>
    <polygon id="xx05" class="cls-1" points="2440.5 556.5 2406.5 545.5 2454.5 462.5 2491.5 468.5 2440.5 556.5"/>
    <polygon id="xx01" class="cls-1" points="2843.5 292.5 2812.5 317.5 2848.5 380.5 2893.88 380.5 2843.5 292.5"/>
    <polygon id="xx02" class="cls-1" points="2744.5 292.5 2733.5 297.5 2685.5 379.5 2694.68 378.5 2744.5 292.5"/>
    <polygon id="xx03" class="cls-1" points="2543.5 296.5 2524.5 302.5 2570.5 223.5 2591.5 214.5 2543.5 296.5"/>
    <polygon id="xx04" class="cls-1" points="2523.5 302.5 2543.5 296.5 2591.5 379.5 2567.5 379.5 2523.5 302.5"/>
    <polygon id="xxx07" class="cls-1" points="2319.5 241.5 2376.5 223.5 2421.5 300.5 2360.5 311.5 2319.5 241.5"/>
    <polygon id="xxx06" class="cls-1" points="2319.5 379.5 2367.5 379.5 2411.5 302.5 2360.5 311.5 2319.5 379.5"/>
    <polygon id="yy1" class="cls-1" points="2178.5 442.5 2214.5 501.5 2315.5 544.5 2270 465.67 2178.5 442.5"/>
    <polygon id="yy2" class="cls-1" points="2319.5 623.5 2180.5 566.5 2214.5 501.5 2365.5 544.5 2319.5 623.5"/>
    <polygon id="yy3" class="cls-1" points="2365.5 704.5 2214.5 627.5 2180.5 566.5 2319.5 623.5 2365.5 704.5"/>
    <polygon id="yy4" class="cls-1" points="2390.5 539.5 2446.5 556.5 2497.5 645.5 2440.5 623.5 2390.5 539.5"/>
    <polygon id="yy5" class="cls-1" points="2395.5 566.5 2430.5 627.5 2615.5 719.5 2566.5 634.5 2395.5 566.5"/>
    <polygon id="_7" data-name="7" class="cls-2" points="1128.04 64.5 1007.11 64.5 946.65 169.22 1007.11 273.95 1128.04 273.95 1188.5 169.22 1128.04 64.5"/>
    <polygon id="_18" data-name="18" class="cls-2" points="1115.3 490.5 988.86 490.5 925.64 600 988.86 709.5 1115.3 709.5 1178.52 600 1115.3 490.5"/>
    <polygon id="_16" data-name="16" class="cls-2" points="1493.45 280.5 1378.55 280.5 1321.11 380 1378.55 479.5 1493.45 479.5 1550.89 380 1493.45 280.5"/>
    <polygon id="s51" class="cls-1" points="1997.5 381.5 1926.5 504.5 1772.5 467.5 1823.5 379.5 1997.5 381.5"/>
    <polygon id="c1" class="cls-3" points="3647.5 378.97 3498.56 636.95 3200.22 636.57 3050.84 378.78 3200.22 121 3498.56 121 3647.5 378.97"/>
    <polygon id="k01" class="cls-1" points="2912.5 378.5 3050.5 378.5 3200.5 120.5 2917.5 222.5 2867.5 301.5 2912.5 378.5"/>
    <polygon id="k02" class="cls-1" points="2867.5 455.5 3012.5 558.5 3200.5 636.5 3050.5 378.5 2912.5 378.5 2867.5 455.5"/>
  </g>
</svg>
