<svg xmlns="http://www.w3.org/2000/svg" width="3500" height="760" viewBox="0 0 3500 760">
  <defs>
    <style>
      .cls-1 {
        fill: #f2f2f2;
      }

      .cls-1, .cls-2, .cls-3 {
        stroke: #000;
        stroke-miterlimit: 10;
      }

      .cls-2, .cls-3 {
        fill: #fff;
      }

      .cls-3 {
        stroke-width: 2px;
      }
    </style>
  </defs>
  <title>aartics_polygons_v2</title>
  <g id="_05stage" data-name="05stage">
    <polygon id="s63" class="cls-1" points="1893.5 192.5 1927.5 132.5 1912.5 104.5 1872.5 172.5 1893.5 192.5"/>
    <polygon id="_25" data-name="25" class="cls-2" points="1991.51 104.08 1912.17 104.08 1872.5 172.79 1912.17 241.5 1991.51 241.5 2031.17 172.79 1991.51 104.08"/>
    <polygon id="s41" class="cls-1" points="1748.5 240.5 1791.5 308.5 1754.5 303.5 1709.5 224.5 1748.5 240.5"/>
    <polygon id="s88" class="cls-1" points="2729.5 292.5 2628.5 292.5 2735.5 272.5 2856.5 272.5 2729.5 292.5"/>
    <polygon id="s40" class="cls-1" points="1713.5 380.5 1758.5 303.5 1792.5 310.5 1753.5 379.5 1713.5 380.5"/>
    <polygon id="s52" class="cls-1" points="1748.5 240.5 1788.5 169.5 1754.5 146.5 1709.5 224.5 1748.5 240.5"/>
    <polygon id="s60" class="cls-1" points="2026.5 460.5 2031.5 453.5 1988.5 525.5 1980.5 539.5 2026.5 460.5"/>
    <polygon id="s62" class="cls-1" points="1826.5 634.5 1892.5 567.5 1931.5 629.5 1874.5 717.5 1826.5 634.5"/>
    <polygon id="s59" class="cls-1" points="1968.5 381.5 2020.5 469.5 2031.5 453.5 1988.5 381.5 1968.5 381.5"/>
    <polygon id="s61" class="cls-1" points="1905.5 525.5 1988.5 525.5 1980.5 539.5 1972.5 550.5 1875.5 550.5 1905.5 525.5"/>
    <polygon id="s57" class="cls-1" points="1991.5 241.5 2031.5 172.5 2007.5 64.5 1947.5 169.5 1991.5 241.5"/>
    <polygon id="s56" class="cls-1" points="2023.5 298.5 1975.5 215.5 1947.5 169.5 2007.5 274.5 2023.5 298.5"/>
    <polygon id="s94" class="cls-1" points="2542.5 564.5 2577.5 625.5 2723.5 702.5 2677.5 622.5 2542.5 564.5"/>
    <polygon id="_42" data-name="42" class="cls-2" points="2816.48 541.5 2723.52 541.5 2677.05 622 2723.52 702.5 2816.48 702.5 2862.95 622 2816.48 541.5"/>
    <polygon id="_50" data-name="50" class="cls-2" points="2876.61 144.5 2786.54 144.5 2741.5 222.5 2786.54 300.51 2876.61 300.51 2921.64 222.5 2876.61 144.5"/>
    <polygon id="_49" data-name="49" class="cls-2" points="2867.96 301.5 2779.04 301.5 2734.59 378.5 2779.04 455.5 2867.96 455.5 2912.41 378.5 2867.96 301.5"/>
    <polygon id="_48" data-name="48" class="cls-2" points="2960.67 468.5 2857.33 468.5 2805.65 558 2857.33 647.5 2960.67 647.5 3012.35 558 2960.67 468.5"/>
    <polygon id="_51" data-name="51" class="cls-2" points="2830.05 50.5 2735.95 50.5 2688.89 132 2735.95 213.5 2830.05 213.5 2877.11 132 2830.05 50.5"/>
    <polygon id="s87" class="cls-1" points="2537.5 317.5 2577.5 255.5 2916.5 167.5 2856.5 272.5 2537.5 317.5"/>
    <polygon id="s90" class="cls-1" points="2649.5 255.5 2741.5 222.5 2786.5 300.5 2686.5 317.5 2649.5 255.5"/>
    <polygon id="s92" class="cls-1" points="2432.5 255.5 2675.5 167.5 2737.5 63.5 2466.5 192.5 2432.5 255.5"/>
    <polygon id="s91" class="cls-1" points="2467.5 318.5 2735.5 272.5 2675.5 168.5 2432.5 255.5 2467.5 318.5"/>
    <polygon id="s89" class="cls-1" points="2686.5 317.5 2779.5 301.5 2734.5 378.5 2649.5 379.5 2686.5 317.5"/>
    <polygon id="s85" class="cls-1" points="2802.5 621.5 2857.5 647.5 2805.5 557.5 2756.5 541.5 2802.5 621.5"/>
    <polygon id="s84" class="cls-1" points="2560.5 548.5 2528.5 538.5 2573.5 616.5 2609.5 633.5 2560.5 548.5"/>
    <polygon id="s82" class="cls-1" points="2430.5 468.5 2383.5 455.5 2412.5 524.5 2481.5 556.5 2430.5 468.5"/>
    <polygon id="s80" class="cls-1" points="2383.5 455.5 2427.5 379.5 2404.5 378.5 2365.5 449.5 2383.5 455.5"/>
    <polygon id="s79" class="cls-1" points="2327.5 468.5 2294.5 455.5 2383.5 455.5 2430.5 468.5 2327.5 468.5"/>
    <polygon id="s78" class="cls-1" points="2263.5 379.5 2250.5 379.5 2294.5 455.5 2311.5 462.5 2263.5 379.5"/>
    <polygon id="s77" class="cls-1" points="2256.5 704.5 2302.5 624.5 2250.5 566.5 2217.5 628.5 2256.5 704.5"/>
    <polygon id="s76" class="cls-1" points="2385.5 146.5 2327.5 193.5 2363.5 255.5 2430.5 223.5 2385.5 146.5"/>
    <polygon id="s75" class="cls-1" points="2260.5 51.5 2220.5 132.5 2256.5 193.5 2307.5 132.5 2260.5 51.5"/>
    <polygon id="s73" class="cls-1" points="2166.5 214.5 2152.5 241.5 2230.5 241.5 2260.5 214.5 2166.5 214.5"/>
    <polygon id="s70" class="cls-1" points="2120.5 293.5 2108.5 317.5 2145.5 379.5 2171.5 381.5 2120.5 293.5"/>
    <polygon id="s68" class="cls-1" points="2294.5 302.5 2297.5 300.5 2385.5 300.5 2383.5 302.5 2294.5 302.5"/>
    <polygon id="s66" class="cls-1" points="2821.5 463.5 2857.5 468.5 2805.5 557.5 2773.5 546.5 2821.5 463.5"/>
    <polygon id="s67" class="cls-1" points="2867.5 455.5 2960.5 468.5 2869.5 468.5 2779.5 455.5 2867.5 455.5"/>
    <polygon id="s97" class="cls-1" points="2492.5 524.5 2528.5 537.5 2573.5 459.5 2532.5 452.5 2492.5 524.5"/>
    <polygon id="s95" class="cls-1" points="2664.5 459.5 2699.5 463.5 2747.5 546.5 2709.5 538.5 2664.5 459.5"/>
    <polygon id="s93" class="cls-1" points="2709.5 538.5 2723.5 541.5 2677.5 622.5 2664.32 616.5 2709.5 538.5"/>
    <polygon id="s58" class="cls-1" points="2023.5 298.5 2019.5 293.5 1968.5 381.5 1976.5 381.5 2023.5 298.5"/>
    <polygon id="s35" class="cls-1" points="1847.5 303.5 1831.5 298.5 1879.5 381.5 1893.5 381.5 1847.5 303.5"/>
    <polygon id="s36" class="cls-1" points="1846.5 299.5 1890.5 225.5 1879.5 215.5 1831.5 298.5 1846.5 299.5"/>
    <polygon id="s83" class="cls-1" points="2461.5 548.5 2412.5 524.5 2492.5 524.5 2559.5 548.5 2461.5 548.5"/>
    <polygon id="_45" data-name="45" class="cls-2" points="2664.32 459.5 2573.68 459.5 2528.36 538 2573.68 616.5 2664.32 616.5 2709.64 538 2664.32 459.5"/>
    <polygon id="_39" data-name="39" class="cls-2" points="2383.31 302.5 2294.93 302.5 2250.74 379.04 2294.93 455.58 2383.31 455.58 2427.5 379.04 2383.31 302.5"/>
    <polygon id="_37" data-name="37" class="cls-2" points="2385.96 146.5 2297.04 146.5 2252.59 223.5 2297.04 300.5 2385.96 300.5 2430.41 223.5 2385.96 146.5"/>
    <polygon id="_36" data-name="36" class="cls-2" points="2546.84 214.5 2452.16 214.5 2404.82 296.5 2452.16 378.5 2546.84 378.5 2594.18 296.5 2546.84 214.5"/>
    <polygon id="s86" class="cls-1" points="2628.5 292.5 2735.5 272.5 2856.5 272.5 2729.5 292.5 2628.5 292.5"/>
    <polygon id="_44" data-name="44" class="cls-2" points="2856.33 63.5 2735.67 63.5 2675.33 168 2735.67 272.5 2856.33 272.5 2916.67 168 2856.33 63.5"/>
    <polygon id="_43" data-name="43" class="cls-2" points="2843.42 380.5 2747.58 380.5 2699.66 463.5 2747.58 546.5 2843.42 546.5 2891.34 463.5 2843.42 380.5"/>
    <polygon id="s96" class="cls-1" points="2628.5 467.96 2532.5 452.96 2492.5 379.5 2577.5 379.96 2628.5 467.96"/>
    <polygon id="_46" data-name="46" class="cls-2" points="2729.36 292.5 2628.33 292.5 2577.81 380 2628.33 467.5 2729.36 467.5 2779.88 380 2729.36 292.5"/>
    <polygon id="_47" data-name="47" class="cls-2" points="2559.57 548.5 2461.43 548.5 2412.35 633.5 2461.43 718.5 2559.57 718.5 2608.65 633.5 2559.57 548.5"/>
    <polygon id="s81" class="cls-1" points="2430.5 645.5 2412.5 633.5 2461.5 548.5 2481.5 557.5 2430.5 645.5"/>
    <polygon id="_26" data-name="26" class="cls-2" points="1847.67 303.5 1758.18 303.5 1713.43 381 1758.18 458.5 1847.67 458.5 1892.41 381 1847.67 303.5"/>
    <polygon id="_27" data-name="27" class="cls-2" points="1845.32 146.5 1754.68 146.5 1709.36 225 1754.68 303.5 1845.32 303.5 1890.64 225 1845.32 146.5"/>
    <polygon id="_28" data-name="28" class="cls-2" points="1975.42 215.5 1879.58 215.5 1831.66 298.5 1879.58 381.5 1975.42 381.5 2023.34 298.5 1975.42 215.5"/>
    <polygon id="_33" data-name="33" class="cls-2" points="2116.42 460.56 2025.81 460.56 1980.5 539.03 2025.81 617.5 2116.42 617.5 2161.72 539.03 2116.42 460.56"/>
    <polygon id="_32" data-name="32" class="cls-2" points="2256.48 543.5 2163.52 543.5 2117.05 624 2163.52 704.5 2256.48 704.5 2302.95 624 2256.48 543.5"/>
    <polygon id="_41" data-name="41" class="cls-2" points="2263.42 379.5 2167.58 379.5 2119.66 462.5 2167.58 545.5 2263.42 545.5 2311.34 462.5 2263.42 379.5"/>
    <polygon id="s74" class="cls-1" points="2260.5 214.5 2252.5 223.5 2295.5 146.5 2307.5 132.5 2260.5 214.5"/>
    <polygon id="_38" data-name="38" class="cls-2" points="2260.54 51.5 2166.62 51.5 2119.66 132.84 2166.62 214.17 2260.54 214.17 2307.5 132.84 2260.54 51.5"/>
    <polygon id="_40" data-name="40" class="cls-2" points="2430.09 468.5 2327.91 468.5 2276.81 557 2327.91 645.5 2430.09 645.5 2481.19 557 2430.09 468.5"/>
    <polygon id="s71" class="cls-1" points="2119.5 469.5 2108.5 441.5 2145.5 381.5 2171.5 381.5 2119.5 469.5"/>
    <polygon id="s69" class="cls-1" points="2189.5 169.5 2152.5 241.5 2110.5 311.5 2129.5 274.5 2189.5 169.5"/>
    <polygon id="_35" data-name="35" class="cls-2" points="2120.52 293.96 2019.17 293.96 1968.5 381.73 2019.17 469.5 2120.52 469.5 2171.19 381.73 2120.52 293.96"/>
    <polygon id="_34" data-name="34" class="cls-2" points="1972.79 550.5 1875.21 550.5 1826.43 635 1875.21 719.5 1972.79 719.5 2021.57 635 1972.79 550.5"/>
    <polygon id="s55" class="cls-1" points="2120.5 293.5 2129.5 274.5 2007.5 274.5 2019.5 293.96 2120.5 293.5"/>
    <polygon id="s72" class="cls-1" points="2129.5 64.5 2119.5 132.5 2166.5 214.5 2189.5 169.5 2129.5 64.5"/>
    <polygon id="_31" data-name="31" class="cls-2" points="2129.12 64.5 2007.88 64.5 1947.26 169.5 2007.88 274.5 2129.12 274.5 2189.74 169.5 2129.12 64.5"/>
    <polygon id="s110" class="cls-1" points="1390.5 193.5 1455.5 194.5 1456.5 186.5 1383.5 187.5 1390.5 193.5"/>
    <polygon id="s1" class="cls-1" points="641.5 147.5 733.5 147.5 806.5 181.5 730.5 182.5 641.5 147.5"/>
    <polygon id="_2" data-name="2" class="cls-2" points="731.11 -14.5 639.89 -14.5 594.28 64.5 639.89 143.5 731.11 143.5 776.72 64.5 731.11 -14.5"/>
    <polygon id="s33" class="cls-1" points="502.5 78.5 676.5 380.5 917.5 379.5 868.5 296.5 502.5 78.5"/>
    <polygon id="s32" class="cls-1" points="502.5 682.5 933.5 452.5 972.5 380.5 676.5 380.5 502.5 682.5"/>
    <polygon id="s3" class="cls-1" points="748.5 488.5 810.5 595.5 1014.5 525.5 973.5 452.5 748.5 488.5"/>
    <polygon id="s20" class="cls-1" points="1374.5 170.5 1575.5 256.5 1608.5 193.5 1435.5 64.5 1374.5 170.5"/>
    <polygon id="s23" class="cls-1" points="1577.5 379.5 1612.5 442.5 1505.5 467.5 1454.5 380.5 1577.5 379.5"/>
    <polygon id="s50" class="cls-1" points="1372.5 380.5 1454.5 380.5 1505.5 467.5 1433.5 486.5 1372.5 380.5"/>
    <polygon id="s19" class="cls-1" points="825.5 215.5 915.5 215.5 808.5 197.5 703.5 197.5 825.5 215.5"/>
    <polygon id="s18" class="cls-1" points="796.5 169.5 933.5 206.5 983.5 292.5 857.5 273.5 796.5 169.5"/>
    <polygon id="s17" class="cls-1" points="1050.5 379.5 933.5 380.5 983.5 292.5 1085.5 319.5 1050.5 379.5"/>
    <polygon id="s16" class="cls-1" points="1050.5 379.5 1086.5 440.5 983.5 467.5 933.5 380.5 1050.5 379.5"/>
    <polygon id="s15" class="cls-1" points="1099.5 524.5 1014.5 524.5 945.5 549.5 1040.5 549.5 1099.5 524.5"/>
    <polygon id="s14" class="cls-1" points="818.5 490.5 1086.5 440.5 1054.5 504.5 755.5 598.5 818.5 490.5"/>
    <polygon id="s9" class="cls-1" points="1463.5 194.5 1423.5 173.5 1463.5 104.5 1499.5 131.5 1463.5 194.5"/>
    <polygon id="s8" class="cls-1" points="1463.5 194.5 1499.5 256.5 1463.5 242.5 1423.5 173.5 1463.5 194.5"/>
    <polygon id="s7" class="cls-1" points="1499.5 256.5 1575.5 256.5 1543.5 242.5 1463.5 242.5 1499.5 256.5"/>
    <polygon id="_9" data-name="9" class="cls-2" points="1450.2 57.28 1375.59 57.28 1338.29 121.89 1375.59 186.5 1450.2 186.5 1487.5 121.89 1450.2 57.28"/>
    <polygon id="s48" class="cls-1" points="1463.5 317.5 1436.5 314.5 1475.5 246.5 1499.5 256.5 1463.5 317.5"/>
    <polygon id="s54" class="cls-1" points="1241.5 76.5 1344.5 121.5 1381.5 186.5 1285.5 151.5 1241.5 76.5"/>
    <polygon id="_10" data-name="10" class="cls-2" points="1436.97 179.5 1359.03 179.5 1320.06 247 1359.03 314.5 1436.97 314.5 1475.94 247 1436.97 179.5"/>
    <polygon id="_5" data-name="5" class="cls-2" points="839.65 549.5 741.5 549.5 692.43 634.5 741.5 719.5 839.65 719.5 888.73 634.5 839.65 549.5"/>
    <polygon id="s43" class="cls-1" points="945.5 709.5 1132.5 623.5 1178.5 542.5 1008.5 599.5 945.5 709.5"/>
    <polygon id="s53" class="cls-1" points="1208.5 703.5 1254.5 622.5 1392.5 567.5 1359.5 628.5 1208.5 703.5"/>
    <polygon id="_14" data-name="14" class="cls-2" points="1206.5 542.5 1113.52 542.5 1067.05 623 1113.52 703.5 1206.48 703.5 1252.95 623 1206.5 542.5"/>
    <polygon id="_13" data-name="13" class="cls-2" points="1159.44 379.5 1063.02 379.5 1014.82 463 1063.02 546.5 1159.44 546.5 1207.65 463 1159.44 379.5"/>
    <polygon id="s29" class="cls-1" points="1684 567.5 1626.5 622.5 1673.5 703.5 1718.5 628.5 1684 567.5"/>
    <polygon id="_23" data-name="23" class="cls-2" points="1766.51 541.83 1673.17 541.83 1626.5 622.66 1673.17 703.5 1766.51 703.5 1813.18 622.66 1766.51 541.83"/>
    <polygon id="s27" class="cls-1" points="1719.5 503.5 1789.5 504.5 1764.5 541.5 1673.5 541.5 1719.5 503.5"/>
    <polygon id="s28" class="cls-1" points="1683.5 567.5 1719.5 503.5 1673.5 541.5 1626.5 622.5 1683.5 567.5"/>
    <polygon id="_19" data-name="19" class="cls-2" points="1621.86 462.96 1526.29 462.96 1478.5 545.73 1526.29 628.5 1621.86 628.5 1669.65 545.73 1621.86 462.96"/>
    <polygon id="s26" class="cls-1" points="1316.5 756.5 1502.5 628.5 1464.5 567.5 1264.5 661.5 1316.5 756.5"/>
    <polygon id="_15" data-name="15" class="cls-2" points="1283.1 469.5 1180.29 469.5 1128.89 558.53 1180.29 647.57 1283.1 647.57 1334.5 558.53 1283.1 469.5"/>
    <polygon id="s42" class="cls-1" points="1241.5 227.5 1319.5 247 1358.5 179.5 1285.5 151.5 1241.5 227.5"/>
    <polygon id="_8" data-name="8" class="cls-2" points="1241.38 75.5 1153.62 75.5 1109.74 151.5 1153.62 227.5 1241.38 227.5 1285.26 151.5 1241.38 75.5"/>
    <polygon id="s2" class="cls-1" points="703.5 197.5 650.5 105.5 808.5 194.5 793.5 211.5 703.5 197.5"/>
    <polygon id="_6" data-name="6" class="cls-2" points="964.57 214.29 869.19 214.29 821.5 296.9 869.19 379.5 964.57 379.5 1012.26 296.9 964.57 214.29"/>
    <polygon id="s45" class="cls-1" points="1085.5 467.5 1112.5 462.5 1159.5 380.5 1135.5 380 1085.5 467.5"/>
    <polygon id="_12" data-name="12" class="cls-2" points="1084.98 292.5 983.95 292.5 933.43 380 983.95 467.5 1084.98 467.5 1135.5 380 1084.98 292.5"/>
    <polygon id="_11" data-name="11" class="cls-2" points="1152.88 204.16 1051.66 204.16 1001.04 291.83 1051.66 379.5 1152.88 379.5 1203.5 291.83 1152.88 204.16"/>
    <polygon id="s100" class="cls-1" points="1150.5 204.5 1200.5 291.5 1359.5 314.5 1320.5 247.5 1150.5 204.5"/>
    <polygon id="s49" class="cls-1" points="1231.5 280.5 1463.5 318.5 1499.5 380.51 1288.5 380 1231.5 280.5"/>
    <polygon id="s4" class="cls-1" points="983.5 292.5 858.5 274.5 976.5 273.5 1085.5 291.5 983.5 292.5"/>
    <polygon id="_17" data-name="17" class="cls-2" points="1543.41 104.5 1463.74 104.5 1423.9 173.5 1463.74 242.5 1543.41 242.5 1583.25 173.5 1543.41 104.5"/>
    <polygon id="s34" class="cls-1" points="808.5 14.5 867.5 63.5 856.5 64.5 847.5 81.5 808.5 14.5"/>
    <polygon id="_3" data-name="3" class="cls-2" points="748.07 488.5 623.93 488.5 561.87 596 623.93 703.5 748.07 703.5 810.13 596 748.07 488.5"/>
    <polygon id="_4" data-name="4" class="cls-2" points="808.83 14.5 703.17 14.5 650.35 106 703.17 197.5 808.83 197.5 861.65 106 808.83 14.5"/>
    <polygon id="s107" class="cls-1" points="1496.5 64.5 1619.5 193.5 1655.5 256.5 1556.5 169.5 1496.5 64.5"/>
    <polygon id="s106" class="cls-1" points="1496.5 275.5 1556.5 169.5 1655.5 256.5 1621.5 317.5 1546.57 292.32 1496.5 275.5"/>
    <polygon id="s65" class="cls-1" points="1322.5 558.5 1427.74 558.5 1420.5 567.5 1311.5 567.5 1322.5 558.5"/>
    <polygon id="s21" class="cls-1" points="1575.5 256.5 1611.5 317.5 1431.5 275.5 1370.5 170.5 1575.5 256.5"/>
    <polygon id="s30" class="cls-1" points="1445.5 292.5 1546.5 292.5 1495.5 275.5 1371.5 275.5 1445.5 292.5"/>
    <polygon id="s22" class="cls-1" points="1611.5 317.5 1577.5 379.5 1454.5 380.5 1505.5 292.5 1611.5 317.5"/>
    <polygon id="_24" data-name="24" class="cls-2" points="1495.91 64.5 1374.09 64.5 1313.18 170 1374.09 275.5 1495.91 275.5 1556.82 170 1495.91 64.5"/>
    <polygon id="s102" class="cls-1" points="1425.5 756.5 1576.5 626.5 1525.5 626.5 1480.5 662.5 1425.5 756.5"/>
    <polygon id="_21" data-name="21" class="cls-2" points="1425.56 567.5 1316.44 567.5 1261.88 662 1316.44 756.5 1425.56 756.5 1480.12 662 1425.56 567.5"/>
    <polygon id="s64" class="cls-1" points="1480.5 662.5 1425.5 567.5 1477.5 545.5 1525.5 626.5 1480.5 662.5"/>
    <polygon id="s47" class="cls-1" points="976.5 273.5 1038.5 169.5 1133.5 204.5 1084.5 292.5 976.5 273.5"/>
    <polygon id="s46" class="cls-1" points="978.5 64.5 1038.5 169.5 1135.5 204.5 1192.15 204.16 1161.5 151.5 978.5 64.5"/>
    <polygon id="s44" class="cls-1" points="1008.5 599.5 1159.5 546.5 1112.5 462.5 945.5 490.5 1008.5 599.5"/>
    <polygon id="s5" class="cls-1" points="1085.5 467.5 945.5 490.5 818.5 490.5 983.5 467.5 1085.5 467.5"/>
    <polygon id="s37" class="cls-1" points="1808.5 648.5 1813.5 622.5 1766.5 541.5 1755.5 558.5 1808.5 648.5"/>
    <polygon id="s108" class="cls-1" points="1903.5 558.5 1884.5 527.5 1844.5 458.5 1852.5 469.5 1903.5 558.5"/>
    <polygon id="_29" data-name="29" class="cls-2" points="1851.67 469.5 1748.33 469.5 1696.65 559 1748.33 648.5 1851.67 648.5 1903.35 559 1851.67 469.5"/>
    <polygon id="s104" class="cls-1" points="1729.5 503.5 1755.5 458.5 1710.5 380.5 1658.5 381.5 1729.5 503.5"/>
    <polygon id="_7" data-name="7" class="cls-2" points="978.04 64.5 857.11 64.5 796.65 169.22 857.11 273.95 978.04 273.95 1038.5 169.22 978.04 64.5"/>
    <polygon id="s105" class="cls-1" points="1621.5 317.5 1658.5 381.5 1597.5 380.5 1546.5 292.5 1621.5 317.5"/>
    <polygon id="_22" data-name="22" class="cls-2" points="1546.52 292.5 1445.48 292.5 1394.96 380 1445.48 467.5 1546.52 467.5 1597.04 380 1546.52 292.5"/>
    <polygon id="s103" class="cls-1" points="1748.5 469.5 1851.5 469.5 1844.5 458.5 1755.5 458.5 1748.5 469.5"/>
    <polygon id="s101" class="cls-1" points="1372.5 591.5 1478.5 545.5 1525.5 462.5 1433.5 486.5 1372.5 591.5"/>
    <polygon id="s99" class="cls-1" points="945.5 549.5 810.5 595.5 748.5 703.5 889.5 634.5 945.5 549.5"/>
    <polygon id="_18" data-name="18" class="cls-2" points="945.3 490.5 818.86 490.5 755.64 600 818.86 709.5 945.3 709.5 1008.52 600 945.3 490.5"/>
    <polygon id="_20" data-name="20" class="cls-2" points="1372.5 380.51 1250.5 380.51 1189.5 486.17 1250.5 591.82 1372.5 591.82 1433.5 486.17 1372.5 380.51"/>
    <polygon id="_30" data-name="30" class="cls-2" points="1658.72 381.5 1517.28 381.5 1446.55 504 1517.28 626.5 1658.72 626.5 1729.45 504 1658.72 381.5"/>
    <polygon id="s98" class="cls-1" points="623.5 488.5 896.5 452.5 973.5 452.5 748.5 488.5 623.5 488.5"/>
    <polygon id="_16" data-name="16" class="cls-2" points="1228.45 280.5 1113.55 280.5 1056.11 380 1113.55 479.5 1228.45 479.5 1285.89 380 1228.45 280.5"/>
    <polygon id="s11" class="cls-1" points="1187.5 469.5 1152.5 469.5 1100.5 558.5 1141.5 542.5 1187.5 469.5"/>
    <polygon id="s10" class="cls-1" points="1152.5 647.5 1187.5 622.5 1141.5 542.5 1100.5 558.5 1152.5 647.5"/>
    <polygon id="s6" class="cls-1" points="1157.5 291.5 1112.5 280.5 1056.5 379.5 1106.5 379.5 1157.5 291.5"/>
    <polygon id="s12" class="cls-1" points="1075.5 379.5 1055.5 379.5 1112.5 479.5 1123.5 463.5 1075.5 379.5"/>
    <polygon id="s25" class="cls-1" points="1292.5 380.5 1241.5 467.5 1188.5 486.5 1249.5 381.5 1292.5 380.5"/>
    <polygon id="s24" class="cls-1" points="1235.5 469.5 1285.5 558.5 1248.5 591.5 1188.5 486.5 1235.5 469.5"/>
    <polygon id="s31" class="cls-1" points="1329.5 558.5 1318.5 567.5 1263.5 661.5 1278.5 647.5 1329.5 558.5"/>
    <polygon id="s38" class="cls-1" points="1562.5 462.5 1610.5 545.5 1517.5 626.5 1446.5 503.5 1562.5 462.5"/>
    <polygon id="_1" data-name="1" class="cls-3" points="674.5 380.72 500.01 682.95 150.5 682.5 -24.5 380.5 150.5 78.5 500.01 78.5 674.5 380.72"/>
    <polygon id="xx05" class="cls-1" points="2276.5 556.5 2257.5 545.5 2306.5 459.5 2327.5 468.5 2276.5 556.5"/>
    <polygon id="xx01" class="cls-1" points="2729.5 292.5 2698.5 317.5 2734.5 380.5 2779.88 380.5 2729.5 292.5"/>
    <polygon id="xx02" class="cls-1" points="2628.5 292.5 2593.5 297.5 2545.5 379.5 2578.68 378.5 2628.5 292.5"/>
    <polygon id="xx03" class="cls-1" points="2404.5 296.5 2384.5 302.5 2430.5 223.5 2452.5 214.5 2404.5 296.5"/>
    <polygon id="xx04" class="cls-1" points="2384.5 302.5 2404.5 296.5 2452.5 379.5 2428.5 379.5 2384.5 302.5"/>
    <polygon id="xxx07" class="cls-1" points="2230.5 241.5 2252.5 223.5 2297.5 300.5 2271.5 311.5 2230.5 241.5"/>
    <polygon id="xxx06" class="cls-1" points="2230.5 379.5 2250.5 379.5 2294.5 302.5 2271.5 311.5 2230.5 379.5"/>
    <polygon id="s51" class="cls-1" points="1517.5 381.5 1446.5 504.5 1466.5 468.5 1517.5 380.5 1517.5 381.5"/>
    <polygon id="yy1" class="cls-1" points="2108.5 442.5 2144.5 501.5 2167.5 544.5 2120 462.67 2108.5 442.5"/>
    <polygon id="yy2" class="cls-1" points="2116.5 623.5 2110.5 566.5 2144.5 501.5 2163.5 541.5 2116.5 623.5"/>
    <polygon id="yy3" class="cls-1" points="2163.5 704.5 2144.5 627.5 2110.5 566.5 2117.5 623.5 2163.5 704.5"/>
    <polygon id="yy4" class="cls-1" points="2257.5 544.5 2276.5 556.5 2327.5 645.5 2302.5 623.5 2257.5 544.5"/>
    <polygon id="yy5" class="cls-1" points="2325.5 566.5 2360.5 627.5 2461.5 718.5 2412.5 633.5 2325.5 566.5"/>
    <polygon id="c1" class="cls-3" points="3647.5 378.97 3498.56 636.95 3200.22 636.57 3050.84 378.78 3200.22 121 3498.56 121 3647.5 378.97"/>
    <polygon id="k01" class="cls-1" points="2912.5 378.5 3050.5 378.5 3200.5 120.5 2917.5 222.5 2867.5 301.5 2912.5 378.5"/>
    <polygon id="k02" class="cls-1" points="2867.5 455.5 3012.5 558.5 3200.5 636.5 3050.5 378.5 2912.5 378.5 2867.5 455.5"/>
  </g>
</svg>
