<svg xmlns="http://www.w3.org/2000/svg" width="3000" height="760" viewBox="0 0 3000 760">
  <defs>
    <style>
      .cls-1 {
        fill: #f2f2f2;
      }

      .cls-1, .cls-2, .cls-3, .cls-4 {
        stroke: #000;
        stroke-miterlimit: 10;
      }

      .cls-2, .cls-3 {
        fill: #fff;
      }

      .cls-3 {
        stroke-width: 2px;
      }

      .cls-4 {
        fill: aqua;
      }
    </style>
  </defs>
  <title>aartics_polygons_all_states</title>
  <g id="_03stage" data-name="03stage">
    <polygon id="s63" class="cls-1" points="1538.5 192.5 1572.5 132.5 1606.5 104.5 1566.5 172.5 1538.5 192.5"/>
    <polygon id="_25" data-name="25" class="cls-2" points="1685.51 104.08 1606.17 104.08 1566.5 172.79 1606.17 241.5 1685.51 241.5 1725.17 172.79 1685.51 104.08"/>
    <polygon id="s41" class="cls-1" points="1430.5 255.5 1466.5 318.5 1515.5 303.5 1470.5 224.5 1430.5 255.5"/>
    <polygon id="s88" class="cls-1" points="2374.5 292.5 2273.5 292.5 2380.5 272.5 2501.5 272.5 2374.5 292.5"/>
    <polygon id="s40" class="cls-1" points="1466.5 380.5 1511.5 303.5 1466.5 318.5 1429.5 381.5 1466.5 380.5"/>
    <polygon id="s52" class="cls-1" points="1430.5 255.5 1466.5 194.5 1515.5 146.5 1470.5 224.5 1430.5 255.5"/>
    <polygon id="s60" class="cls-1" points="1789.5 460.5 1747.5 453.5 1706.5 525.5 1744.5 539.5 1789.5 460.5"/>
    <polygon id="s62" class="cls-1" points="1570.5 626.5 1537.5 567.5 1630.5 634.5 1679.5 719.5 1570.5 626.5"/>
    <polygon id="s59" class="cls-1" points="1795.5 381.5 1846.5 469.5 1747.5 453.5 1706.5 381.73 1795.5 381.5"/>
    <polygon id="s61" class="cls-1" points="1623.5 525.5 1706.5 525.5 1744.48 539.07 1776.5 550.5 1679.5 550.5 1623.5 525.5"/>
    <polygon id="s57" class="cls-1" points="1685.5 241.5 1725.5 172.5 1955.5 64.5 1895.5 169.5 1685.5 241.5"/>
    <polygon id="s56" class="cls-1" points="1813.5 298.5 1765.42 215.5 1895.5 169.5 1955.5 274.5 1813.5 298.5"/>
    <polygon id="s94" class="cls-1" points="2187.5 564.5 2222.5 625.5 2368.5 702.5 2322.5 622.5 2187.5 564.5"/>
    <polygon id="_42" data-name="42" class="cls-2" points="2461.48 541.5 2368.52 541.5 2322.05 622 2368.52 702.5 2461.48 702.5 2507.95 622 2461.48 541.5"/>
    <polygon id="_50" data-name="50" class="cls-2" points="2521.61 144.5 2431.54 144.5 2386.5 222.5 2431.54 300.51 2521.61 300.51 2566.64 222.5 2521.61 144.5"/>
    <polygon id="_49" data-name="49" class="cls-2" points="2512.96 301.5 2424.04 301.5 2379.59 378.5 2424.04 455.5 2512.96 455.5 2557.41 378.5 2512.96 301.5"/>
    <polygon id="_48" data-name="48" class="cls-2" points="2605.67 468.5 2502.33 468.5 2450.65 558 2502.33 647.5 2605.67 647.5 2657.35 558 2605.67 468.5"/>
    <polygon id="_51" data-name="51" class="cls-2" points="2411.05 50.5 2316.95 50.5 2269.89 132 2316.95 213.5 2411.05 213.5 2458.11 132 2411.05 50.5"/>
    <polygon id="s87" class="cls-1" points="2182.5 317.5 2222.5 255.5 2561.5 167.5 2501.5 272.5 2182.5 317.5"/>
    <polygon id="s90" class="cls-1" points="2294.5 255.5 2386.5 222.5 2431.5 300.5 2331.5 317.5 2294.5 255.5"/>
    <polygon id="s92" class="cls-1" points="2198.5 214.5 2320.5 167.5 2382.5 63.5 2250.5 126.5 2198.5 214.5"/>
    <polygon id="s91" class="cls-1" points="2240.5 296.5 2380.5 272.5 2320.5 168.5 2192.5 214.5 2240.5 296.5"/>
    <polygon id="s89" class="cls-1" points="2331.5 317.5 2424.5 301.5 2379.5 378.5 2294.5 379.5 2331.5 317.5"/>
    <polygon id="s85" class="cls-1" points="2447.5 621.5 2502.5 647.5 2450.5 557.5 2401.5 541.5 2447.5 621.5"/>
    <polygon id="s84" class="cls-1" points="2205.5 548.5 2173.5 538.5 2218.5 616.5 2254.5 633.5 2205.5 548.5"/>
    <polygon id="s82" class="cls-1" points="2173.5 468.5 2084.5 455.5 2137.5 524.5 2226.5 556.5 2173.5 468.5"/>
    <polygon id="s80" class="cls-1" points="1981.5 455.5 2025.5 379.04 2018.5 378.5 1978.5 449.5 1981.5 455.5"/>
    <polygon id="s79" class="cls-1" points="2072.5 468.5 1992.5 455.5 2081.5 455.5 2175.5 468.5 2072.5 468.5"/>
    <polygon id="s78" class="cls-1" points="1908.5 379.5 1895.5 379.5 1939.5 455.5 1956.5 462.5 1908.5 379.5"/>
    <polygon id="s77" class="cls-1" points="2033.5 704.5 2079.5 624.5 2027.5 566.5 1994.5 628.5 2033.5 704.5"/>
    <polygon id="s76" class="cls-1" points="2030.5 146.5 1972.5 193.5 2008.5 255.5 2075.5 223.5 2030.5 146.5"/>
    <polygon id="s75" class="cls-1" points="1979.5 51.5 1939.5 132.5 1975.5 193.5 2026.5 132.5 1979.5 51.5"/>
    <polygon id="s73" class="cls-1" points="1966.5 214.5 1952.5 241.5 2030.5 241.5 2060.5 214.5 1966.5 214.5"/>
    <polygon id="s70" class="cls-1" points="1765.5 293.5 1753.5 317.5 1790.5 379.5 1816.5 381.5 1765.5 293.5"/>
    <polygon id="s68" class="cls-1" points="1995.5 302.5 1998.5 300.5 2086.5 300.5 2084.5 302.5 1995.5 302.5"/>
    <polygon id="s66" class="cls-1" points="2466.5 463.5 2502.5 468.5 2450.5 557.5 2418.5 546.5 2466.5 463.5"/>
    <polygon id="s67" class="cls-1" points="2512.5 455.5 2605.5 468.5 2514.5 468.5 2424.5 455.5 2512.5 455.5"/>
    <polygon id="s97" class="cls-1" points="2137.5 524.5 2173.5 537.5 2218.5 459.5 2177.5 452.5 2137.5 524.5"/>
    <polygon id="s95" class="cls-1" points="2309.5 459.5 2344.5 463.5 2392.5 546.5 2354.5 538.5 2309.5 459.5"/>
    <polygon id="s93" class="cls-1" points="2354.5 538.5 2368.5 541.5 2322.5 622.5 2309.32 616.5 2354.5 538.5"/>
    <polygon id="s58" class="cls-1" points="1813.5 298.5 1846.5 293.5 1795.5 381.5 1765.42 381.5 1813.5 298.5"/>
    <polygon id="s35" class="cls-1" points="1601.5 303.5 1621.5 298.5 1669.5 381.5 1645.5 381.5 1601.5 303.5"/>
    <polygon id="s36" class="cls-1" points="1606.5 303.5 1651.5 224.5 1669.5 215.5 1621.5 298.5 1606.5 303.5"/>
    <polygon id="s83" class="cls-1" points="2106.5 548.5 2057.5 524.5 2137.5 524.5 2204.5 548.5 2106.5 548.5"/>
    <polygon id="_45" data-name="45" class="cls-2" points="2309.32 459.5 2218.68 459.5 2173.36 538 2218.68 616.5 2309.32 616.5 2354.64 538 2309.32 459.5"/>
    <polygon id="_39" data-name="39" class="cls-2" points="2081.31 302.5 1992.93 302.5 1948.74 379.04 1992.93 455.58 2081.31 455.58 2125.5 379.04 2081.31 302.5"/>
    <polygon id="_37" data-name="37" class="cls-2" points="2090.96 146.5 2002.04 146.5 1957.59 223.5 2002.04 300.5 2090.96 300.5 2135.41 223.5 2090.96 146.5"/>
    <polygon id="_36" data-name="36" class="cls-2" points="2244.84 214.5 2150.16 214.5 2102.82 296.5 2150.16 378.5 2244.84 378.5 2292.18 296.5 2244.84 214.5"/>
    <polygon id="s86" class="cls-1" points="2286.5 293.5 2380.5 273.5 2501.5 273.5 2387.5 293.5 2286.5 293.5"/>
    <polygon id="_44" data-name="44" class="cls-2" points="2501.33 64.5 2380.67 64.5 2320.33 169 2380.67 273.5 2501.33 273.5 2561.67 169 2501.33 64.5"/>
    <polygon id="_43" data-name="43" class="cls-2" points="2488.42 381.5 2392.58 381.5 2344.66 464.5 2392.58 547.5 2488.42 547.5 2536.34 464.5 2488.42 381.5"/>
    <polygon id="s96" class="cls-1" points="2302.5 468.96 2177.5 453.96 2137.5 380.5 2251.5 380.96 2302.5 468.96"/>
    <polygon id="_46" data-name="46" class="cls-2" points="2403.36 293.5 2302.33 293.5 2251.81 381 2302.33 468.5 2403.36 468.5 2453.88 381 2403.36 293.5"/>
    <polygon id="_47" data-name="47" class="cls-2" points="2287.57 549.5 2189.43 549.5 2140.35 634.5 2189.43 719.5 2287.57 719.5 2336.65 634.5 2287.57 549.5"/>
    <polygon id="s81" class="cls-1" points="2157.5 646.5 2155.5 634.5 2204.5 549.5 2208.5 558.5 2157.5 646.5"/>
    <polygon id="_26" data-name="26" class="cls-2" points="1600.67 303.5 1511.18 303.5 1466.43 381 1511.18 458.5 1600.67 458.5 1645.41 381 1600.67 303.5"/>
    <polygon id="_27" data-name="27" class="cls-2" points="1606.32 146.5 1515.68 146.5 1470.36 225 1515.68 303.5 1606.32 303.5 1651.64 225 1606.32 146.5"/>
    <polygon id="_28" data-name="28" class="cls-2" points="1765.42 215.5 1669.58 215.5 1621.66 298.5 1669.58 381.5 1765.42 381.5 1813.34 298.5 1765.42 215.5"/>
    <polygon id="_33" data-name="33" class="cls-2" points="1880.42 460.56 1789.81 460.56 1744.5 539.03 1789.81 617.5 1880.42 617.5 1925.72 539.03 1880.42 460.56"/>
    <polygon id="_32" data-name="32" class="cls-2" points="2033.48 543.5 1940.52 543.5 1894.05 624 1940.52 704.5 2033.48 704.5 2079.95 624 2033.48 543.5"/>
    <polygon id="_41" data-name="41" class="cls-2" points="1987.42 379.5 1891.58 379.5 1843.66 462.5 1891.58 545.5 1987.42 545.5 2035.34 462.5 1987.42 379.5"/>
    <polygon id="s74" class="cls-1" points="1995.5 215.5 1987.5 224.5 2030.5 147.5 2042.5 133.5 1995.5 215.5"/>
    <polygon id="_38" data-name="38" class="cls-2" points="2069.54 51.5 1975.62 51.5 1928.66 132.84 1975.62 214.17 2069.54 214.17 2116.5 132.84 2069.54 51.5"/>
    <polygon id="_40" data-name="40" class="cls-2" points="2175.09 468.5 2072.91 468.5 2021.81 557 2072.91 645.5 2175.09 645.5 2226.19 557 2175.09 468.5"/>
    <polygon id="s71" class="cls-1" points="1944.5 470.5 1933.5 442.5 1970.5 382.5 1996.5 382.5 1944.5 470.5"/>
    <polygon id="s69" class="cls-1" points="2137.5 169.5 2010.5 193.5 1947.5 293.5 2077.5 274.5 2137.5 169.5"/>
    <polygon id="_35" data-name="35" class="cls-2" points="1947.52 293.96 1846.17 293.96 1795.5 381.73 1846.17 469.5 1947.52 469.5 1998.19 381.73 1947.52 293.96"/>
    <polygon id="_34" data-name="34" class="cls-2" points="1776.79 550.5 1679.21 550.5 1630.43 635 1679.21 719.5 1776.79 719.5 1825.57 635 1776.79 550.5"/>
    <polygon id="s55" class="cls-1" points="1947.5 293.5 2077.5 274.5 1955.5 274.5 1846.17 293.96 1947.5 293.5"/>
    <polygon id="s72" class="cls-1" points="2075.5 65.5 2065.5 133.5 2112.5 215.5 2135.5 170.5 2075.5 65.5"/>
    <polygon id="_31" data-name="31" class="cls-2" points="2077.12 64.5 1955.88 64.5 1895.26 169.5 1955.88 274.5 2077.12 274.5 2137.74 169.5 2077.12 64.5"/>
    <polygon id="s110" class="cls-1" points="1035.5 193.5 1100.5 194.5 1101.5 186.5 1028.5 187.5 1035.5 193.5"/>
    <polygon id="s1" class="cls-1" points="286.5 147.5 378.5 147.5 451.5 181.5 375.5 182.5 286.5 147.5"/>
    <polygon id="_2" data-name="2" class="cls-2" points="376.11 -14.5 284.89 -14.5 239.28 64.5 284.89 143.5 376.11 143.5 421.72 64.5 376.11 -14.5"/>
    <polygon id="s33" class="cls-1" points="145.5 78.5 319.5 380.5 562.5 379.5 513.5 296.5 145.5 78.5"/>
    <polygon id="s32" class="cls-1" points="145.5 682.5 578.5 452.5 617.5 379.5 319.5 380.5 145.5 682.5"/>
    <polygon id="s3" class="cls-1" points="393.5 488.5 455.5 595.5 659.5 525.5 618.5 452.5 393.5 488.5"/>
    <polygon id="s20" class="cls-1" points="1165.5 170.5 1220.5 256.5 1256.5 193.5 1226.5 64.5 1165.5 170.5"/>
    <polygon id="s23" class="cls-1" points="1222.5 379.5 1257.5 442.5 1236.5 467.5 1185.5 380.5 1222.5 379.5"/>
    <polygon id="s50" class="cls-1" points="1167.5 380.5 1185.5 379.5 1236.51 469.5 1228.5 486.5 1167.5 380.5"/>
    <polygon id="s19" class="cls-1" points="470.5 215.5 560.5 215.5 453.5 197.5 348.5 197.5 470.5 215.5"/>
    <polygon id="s18" class="cls-1" points="441.5 169.5 578.5 206.5 628.5 292.5 502.5 273.5 441.5 169.5"/>
    <polygon id="s17" class="cls-1" points="695.5 379.5 578.5 380.5 628.5 292.5 730.5 319.5 695.5 379.5"/>
    <polygon id="s16" class="cls-1" points="695.5 379.5 731.5 440.5 628.5 467.5 578.5 380.5 695.5 379.5"/>
    <polygon id="s15" class="cls-1" points="744.5 524.5 659.5 524.5 590.5 549.5 685.5 549.5 744.5 524.5"/>
    <polygon id="s14" class="cls-1" points="463.5 490.5 731.5 440.5 699.5 504.5 400.5 598.5 463.5 490.5"/>
    <polygon id="s11" class="cls-1" points="962.5 469.5 927.5 469.5 875.5 558.5 916.5 542.5 962.5 469.5"/>
    <polygon id="s10" class="cls-1" points="927.5 647.5 962.5 622.5 916.5 542.5 875.5 558.5 927.5 647.5"/>
    <polygon id="s9" class="cls-1" points="1108.5 194.5 1088.5 173.5 1128.5 104.5 1144.5 131.5 1108.5 194.5"/>
    <polygon id="s8" class="cls-1" points="1108.5 194.5 1144.5 256.5 1128.5 242.5 1088.5 173.5 1108.5 194.5"/>
    <polygon id="s7" class="cls-1" points="1144.5 256.5 1220.5 256.5 1208.5 242.5 1128.5 242.5 1144.5 256.5"/>
    <polygon id="_9" data-name="9" class="cls-2" points="1101.2 57.28 1026.59 57.28 989.29 121.89 1026.59 186.5 1101.2 186.5 1138.5 121.89 1101.2 57.28"/>
    <polygon id="s48" class="cls-1" points="1108.5 317.5 1095.97 314.5 1134.5 246.5 1144.5 256.5 1108.5 317.5"/>
    <polygon id="s54" class="cls-1" points="937.5 76.5 989.5 121.5 1026.5 186.5 980.5 151.5 937.5 76.5"/>
    <polygon id="_10" data-name="10" class="cls-2" points="1095.97 179.5 1018.03 179.5 979.06 247 1018.03 314.5 1095.97 314.5 1134.94 247 1095.97 179.5"/>
    <polygon id="s6" class="cls-1" points="932.5 291.5 887.5 280.5 831.5 379.5 881.5 379.5 932.5 291.5"/>
    <polygon id="_5" data-name="5" class="cls-2" points="484.65 549.5 386.5 549.5 337.43 634.5 386.5 719.5 484.65 719.5 533.73 634.5 484.65 549.5"/>
    <polygon id="s43" class="cls-1" points="590.5 709.5 777.5 623.5 823.5 542.5 653.5 599.5 590.5 709.5"/>
    <polygon id="s53" class="cls-1" points="916.5 703.5 962.5 622.5 1035.5 567.5 1002.5 628.5 916.5 703.5"/>
    <polygon id="_14" data-name="14" class="cls-2" points="916.5 542.5 823.52 542.5 777.05 623 823.52 703.5 916.48 703.5 962.95 623 916.5 542.5"/>
    <polygon id="_13" data-name="13" class="cls-2" points="904.44 379.5 808.02 379.5 759.82 463 808.02 546.5 904.44 546.5 952.65 463 904.44 379.5"/>
    <polygon id="s29" class="cls-1" points="1329 567.5 1335.5 622.5 1380.5 703.5 1363.5 628.5 1329 567.5"/>
    <polygon id="_23" data-name="23" class="cls-2" points="1475.51 541.83 1382.17 541.83 1335.5 622.66 1382.17 703.5 1475.51 703.5 1522.18 622.66 1475.51 541.83"/>
    <polygon id="s27" class="cls-1" points="1364.5 503.5 1429.5 503.5 1475.5 541.5 1380.5 541.5 1364.5 503.5"/>
    <polygon id="s28" class="cls-1" points="1328.5 567.5 1364.5 503.5 1380.5 541.5 1335.5 622.5 1328.5 567.5"/>
    <polygon id="_19" data-name="19" class="cls-2" points="1335.86 462.96 1240.29 462.96 1192.5 545.73 1240.29 628.5 1335.86 628.5 1383.65 545.73 1335.86 462.96"/>
    <polygon id="s26" class="cls-1" points="1070.5 756.5 1144.5 628.5 1108.5 567.5 1015.5 661.5 1070.5 756.5"/>
    <polygon id="_15" data-name="15" class="cls-2" points="1030.1 469.5 927.29 469.5 875.89 558.53 927.29 647.57 1030.1 647.57 1081.5 558.53 1030.1 469.5"/>
    <polygon id="s12" class="cls-1" points="850.5 379.5 830.5 379.5 887.5 479.5 898.5 463.5 850.5 379.5"/>
    <polygon id="s42" class="cls-1" points="936.5 227.5 979.5 247 1018.5 179.5 980.5 151.5 936.5 227.5"/>
    <polygon id="_8" data-name="8" class="cls-2" points="936.38 75.5 848.62 75.5 804.74 151.5 848.62 227.5 936.38 227.5 980.26 151.5 936.38 75.5"/>
    <polygon id="s2" class="cls-1" points="348.5 197.5 295.5 105.5 453.5 194.5 438.5 211.5 348.5 197.5"/>
    <polygon id="_6" data-name="6" class="cls-2" points="609.57 214.29 514.19 214.29 466.5 296.9 514.19 379.5 609.57 379.5 657.26 296.9 609.57 214.29"/>
    <polygon id="s45" class="cls-1" points="730.5 467.5 757.5 462.5 804.5 380.5 780.5 380 730.5 467.5"/>
    <polygon id="_12" data-name="12" class="cls-2" points="729.98 292.5 628.95 292.5 578.43 380 628.95 467.5 729.98 467.5 780.5 380 729.98 292.5"/>
    <polygon id="_11" data-name="11" class="cls-2" points="881.88 204.16 780.66 204.16 730.04 291.83 780.66 379.5 881.88 379.5 932.5 291.83 881.88 204.16"/>
    <polygon id="s100" class="cls-1" points="882.5 204.5 932.5 291.5 1018.5 314.5 979.5 246.5 882.5 204.5"/>
    <polygon id="s49" class="cls-1" points="1002.5 280.5 1108.5 318.5 1144.5 380.51 1059.89 380 1002.5 280.5"/>
    <polygon id="s24" class="cls-1" points="1031.5 469.5 1082.5 558.5 1044.5 591.5 984.5 485.5 1031.5 469.5"/>
    <polygon id="s107" class="cls-1" points="1347.5 64.5 1324.5 193.5 1360.5 256.5 1408.5 169.5 1347.5 64.5"/>
    <polygon id="s106" class="cls-1" points="1348.5 275.5 1408.5 169.5 1360.5 256.5 1326.5 317.5 1338.5 292.32 1348.5 275.5"/>
    <polygon id="s21" class="cls-1" points="1220.5 256.5 1256.5 317.5 1226.5 275.5 1165.5 170.5 1220.5 256.5"/>
    <polygon id="s30" class="cls-1" points="1256.5 317.5 1323.5 317.5 1347.5 275.5 1226.5 275.5 1256.5 317.5"/>
    <polygon id="s22" class="cls-1" points="1256.5 317.5 1222.5 379.5 1185.5 380.5 1236.5 292.5 1256.5 317.5"/>
    <polygon id="_17" data-name="17" class="cls-2" points="1208.41 104.5 1128.74 104.5 1088.9 173.5 1128.74 242.5 1208.41 242.5 1248.25 173.5 1208.41 104.5"/>
    <polygon id="_24" data-name="24" class="cls-2" points="1347.91 64.5 1226.09 64.5 1165.18 170 1226.09 275.5 1347.91 275.5 1408.82 170 1347.91 64.5"/>
    <polygon id="s31" class="cls-1" points="1081.5 558.5 1070.5 567.5 1015.5 661.5 1030.5 647.5 1081.5 558.5"/>
    <polygon id="s102" class="cls-1" points="1179.5 756.5 1214.5 626.5 1240.5 626.5 1234.5 662.5 1179.5 756.5"/>
    <polygon id="s65" class="cls-1" points="1081.5 558.5 1186.74 558.5 1179.5 567.5 1070.5 567.5 1081.5 558.5"/>
    <polygon id="_21" data-name="21" class="cls-2" points="1179.56 567.5 1070.44 567.5 1015.88 662 1070.44 756.5 1179.56 756.5 1234.12 662 1179.56 567.5"/>
    <polygon id="_16" data-name="16" class="cls-2" points="1002.45 280.5 887.55 280.5 830.11 380 887.55 479.5 1002.45 479.5 1059.89 380 1002.45 280.5"/>
    <polygon id="s4" class="cls-1" points="628.5 292.5 503.5 274.5 621.5 273.5 730.5 291.5 628.5 292.5"/>
    <polygon id="s25" class="cls-1" points="1088.5 380.5 1037.5 467.5 984.5 486.5 1045.5 381.5 1088.5 380.5"/>
    <polygon id="s34" class="cls-1" points="453.5 14.5 512.5 63.5 501.5 64.5 492.5 81.5 453.5 14.5"/>
    <polygon id="_3" data-name="3" class="cls-2" points="393.06 488.5 268.94 488.5 206.87 596 268.94 703.5 393.06 703.5 455.13 596 393.06 488.5"/>
    <polygon id="_4" data-name="4" class="cls-2" points="453.83 14.5 348.17 14.5 295.35 106 348.17 197.5 453.83 197.5 506.65 106 453.83 14.5"/>
    <polygon id="s64" class="cls-1" points="1234.5 661.5 1179.5 567.5 1192.5 548.52 1240.5 628.5 1234.5 661.5"/>
    <polygon id="s47" class="cls-1" points="621.5 273.5 683.5 169.5 778.5 204.5 729.5 292.5 621.5 273.5"/>
    <polygon id="s46" class="cls-1" points="623.5 64.5 683.5 169.5 780.5 204.5 837.15 204.16 806.5 151.5 623.5 64.5"/>
    <polygon id="s44" class="cls-1" points="653.5 599.5 804.5 546.5 757.5 462.5 590.5 490.5 653.5 599.5"/>
    <polygon id="s5" class="cls-1" points="730.5 467.5 590.5 490.5 463.5 490.5 628.5 467.5 730.5 467.5"/>
    <polygon id="s37" class="cls-1" points="1545.5 648.5 1522.5 622.5 1475.5 541.5 1493.5 558.5 1545.5 648.5"/>
    <polygon id="s108" class="cls-1" points="1700.5 558.5 1627.5 527.5 1595.5 458.5 1648.5 469.5 1700.5 558.5"/>
    <polygon id="_29" data-name="29" class="cls-2" points="1648.67 469.5 1545.33 469.5 1493.65 559 1545.33 648.5 1648.67 648.5 1700.35 559 1648.67 469.5"/>
    <polygon id="s104" class="cls-1" points="1641.5 503.5 1511.5 458.5 1466.5 380.5 1570.5 381.5 1641.5 503.5"/>
    <polygon id="_7" data-name="7" class="cls-2" points="623.04 64.5 502.11 64.5 441.65 169.22 502.11 273.95 623.04 273.95 683.5 169.22 623.04 64.5"/>
    <polygon id="s38" class="cls-1" points="1335.5 462.5 1383.5 545.5 1429.5 626.5 1358.5 503.5 1335.5 462.5"/>
    <polygon id="s105" class="cls-1" points="1326.5 317.5 1363.5 381.5 1388.5 380.5 1339.5 292.5 1326.5 317.5"/>
    <polygon id="_22" data-name="22" class="cls-2" points="1337.52 292.5 1236.48 292.5 1185.96 380 1236.48 467.5 1337.52 467.5 1388.04 380 1337.52 292.5"/>
    <polygon id="s103" class="cls-1" points="1545.5 469.5 1648.5 469.5 1600.5 458.5 1511.5 458.5 1545.5 469.5"/>
    <polygon id="s101" class="cls-1" points="1167.5 591.5 1192.5 545.5 1236.5 467.5 1226.5 486.5 1167.5 591.5"/>
    <polygon id="s99" class="cls-1" points="590.5 549.5 455.5 595.5 393.5 703.5 534.5 634.5 590.5 549.5"/>
    <polygon id="_18" data-name="18" class="cls-2" points="590.3 490.5 463.86 490.5 400.64 600 463.86 709.5 590.3 709.5 653.52 600 590.3 490.5"/>
    <polygon id="_20" data-name="20" class="cls-2" points="1167.5 380.51 1045.5 380.51 984.5 486.17 1045.5 591.82 1167.5 591.82 1228.5 486.17 1167.5 380.51"/>
    <polygon id="_30" data-name="30" class="cls-2" points="1570.72 381.5 1429.28 381.5 1358.55 504 1429.28 626.5 1570.72 626.5 1641.45 504 1570.72 381.5"/>
    <polygon id="s98" class="cls-1" points="268.5 488.5 541.5 452.5 618.5 452.5 393.5 488.5 268.5 488.5"/>
    <polygon id="_1" data-name="1" class="cls-3" points="319.5 380.72 145.01 682.95 -204.5 682.5 -379.5 380.5 -204.5 78.5 145.01 78.5 319.5 380.72"/>
    <polygon id="xx05" class="cls-1" points="2021.5 556.5 1987.5 545.5 2035.5 462.5 2072.5 468.5 2021.5 556.5"/>
    <polygon id="xx01" class="cls-1" points="2401.5 292.5 2370.5 317.5 2406.5 380.5 2451.88 380.5 2401.5 292.5"/>
    <polygon id="xx02" class="cls-1" points="2302.5 292.5 2291.5 297.5 2243.5 379.5 2252.68 378.5 2302.5 292.5"/>
    <polygon id="xx03" class="cls-1" points="2101.5 296.5 2082.5 302.5 2128.5 223.5 2149.5 214.5 2101.5 296.5"/>
    <polygon id="xx04" class="cls-1" points="2081.5 302.5 2101.5 296.5 2149.5 379.5 2125.5 379.5 2081.5 302.5"/>
    <polygon id="xxx07" class="cls-1" points="1900.5 241.5 1957.5 223.5 2002.5 300.5 1941.5 311.5 1900.5 241.5"/>
    <polygon id="xxx06" class="cls-1" points="1900.5 379.5 1948.5 379.5 1992.5 302.5 1941.5 311.5 1900.5 379.5"/>
    <polygon id="yy1" class="cls-1" points="1753.5 442.5 1789.5 501.5 1890.5 544.5 1845 465.67 1753.5 442.5"/>
    <polygon id="yy2" class="cls-1" points="1894.5 623.5 1755.5 566.5 1789.5 501.5 1940.5 544.5 1894.5 623.5"/>
    <polygon id="yy3" class="cls-1" points="1940.5 704.5 1789.5 627.5 1755.5 566.5 1894.5 623.5 1940.5 704.5"/>
    <polygon id="yy4" class="cls-1" points="1965.5 539.5 2021.5 556.5 2072.5 645.5 2015.5 623.5 1965.5 539.5"/>
    <polygon id="yy5" class="cls-1" points="1970.5 566.5 2005.5 627.5 2190.5 719.5 2141.5 634.5 1970.5 566.5"/>
    <polygon id="s51" class="cls-1" points="1429.5 381.5 1358.5 504.5 1337.5 467.5 1388.5 379.5 1429.5 381.5"/>
    <polygon id="c1" class="cls-3" points="3292.5 378.97 3143.56 636.95 2845.22 636.57 2695.84 378.78 2845.22 121 3143.56 121 3292.5 378.97"/>
    <path id="bee" class="cls-4" d="M1484.27,675.5h5.23c2,0-.28,2.91-2,4l-5,3c-1.5,0-1.11,5.66-1,6.8a1.91,1.91,0,0,1,0,.46c-.13.82-.61,3.4-1.26,6.11a2,2,0,0,1-4-.3c-.15-1.48-.37-2.47-.7-2.08,0,0-3.27,12.68-3,10h-6c-.06-.21-.18-7,3-11.33,6.08-8.29,6.88-19-1-17.67-2.29.39.15-5.66,1.66-3.9h0c1.12,1.3,5.08,2.6,5.34.9,1.82-11.68,11.24-13.3,7,2C1482.14,674.8,1482.92,675.5,1484.27,675.5Z"/>
  </g>
</svg>
