<svg xmlns="http://www.w3.org/2000/svg" width="1200" height="5600" viewBox="0 0 1200 5600">
  <defs>
    <style>
      .cls-1 {
        fill: #f2f2f2;
      }

      .cls-1, .cls-2, .cls-3 {
        stroke: #000;
        stroke-miterlimit: 10;
      }

      .cls-2, .cls-3 {
        fill: #fff;
      }

      .cls-3 {
        stroke-width: 2px;
      }
    </style>
  </defs>
  <title>aartics_polygons_vertical</title>
  <g id="_07stage" data-name="07stage">
    <polygon id="s41" class="cls-1" points="806.46 2623.69 705.96 2685.19 711.96 2596.69 830.46 2529.19 806.46 2623.69"/>
    <polygon id="s88" class="cls-1" points="783.96 4182.19 783.96 4074.19 846.96 4108.69 846.96 4251.19 783.96 4182.19"/>
    <polygon id="s40" class="cls-1" points="596.46 2568.19 711.96 2635.69 701.46 2724.19 597.96 2662.69 596.46 2568.19"/>
    <polygon id="s52" class="cls-1" points="806.46 2625.19 912.96 2685.19 947.46 2596.69 830.46 2529.19 806.46 2625.19"/>
    <polygon id="s60" class="cls-1" points="476.46 3079.69 491.46 3123.19 378.96 3054.19 357.96 3012.19 476.46 3079.69"/>
    <polygon id="s62" class="cls-1" points="215.46 2715.19 317.46 3057.19 249.96 3094.69 87.96 2788.69 215.46 2715.19"/>
    <polygon id="s59" class="cls-1" points="594.96 2901.19 462.96 2977.69 491.46 3073.69 594.96 3010.69 594.96 2901.19"/>
    <polygon id="s61" class="cls-1" points="378.96 2958.19 378.96 3081.19 357.96 3007.69 341.46 2934.19 341.46 2788.69 378.96 2958.19"/>
    <polygon id="s57" class="cls-1" points="785.46 3217.69 878.46 3267.19 1070.46 2776.69 912.96 2686.69 785.46 3217.69"/>
    <polygon id="s56" class="cls-1" points="692.46 3267.19 785.46 3217.69 912.96 2686.69 755.46 2776.69 692.46 3267.19"/>
    <polygon id="s94" class="cls-1" points="327.96 4015.69 236.46 4068.19 120.96 4102.69 240.96 4033.69 327.96 4015.69"/>
    <polygon id="_42" data-name="42" class="cls-2" points="354.96 4245.16 354.96 4105.73 234.21 4036.01 113.46 4105.73 113.46 4245.16 234.21 4314.87 354.96 4245.16"/>
    <polygon id="_50" data-name="50" class="cls-2" points="950.46 4438.85 950.46 4303.75 833.46 4236.19 716.45 4303.75 716.45 4438.85 833.46 4506.41 950.46 4438.85"/>
    <polygon id="_49" data-name="49" class="cls-2" points="714.96 4431.88 714.96 4298.51 599.46 4231.82 483.96 4298.51 483.96 4431.88 599.46 4498.56 714.96 4431.88"/>
    <polygon id="_48" data-name="48" class="cls-2" points="464.46 4504.95 464.46 4349.93 330.21 4272.42 195.96 4349.93 195.96 4504.95 330.21 4582.46 464.46 4504.95"/>
    <polygon id="_51" data-name="51" class="cls-2" points="1091.46 4250.52 1091.46 4109.36 969.21 4038.78 846.96 4109.36 846.96 4250.52 969.21 4321.1 1091.46 4250.52"/>
    <polygon id="s87" class="cls-1" points="690.96 4021.69 783.96 4074.19 915.96 4141.69 758.46 4051.69 690.96 4021.69"/>
    <polygon id="s90" class="cls-1" points="783.96 4182.19 833.46 4236.19 716.46 4303.69 690.96 4236.19 783.96 4182.19"/>
    <polygon id="s92" class="cls-1" points="845.46 3819.19 914.46 3780.19 1071.96 3870.19 977.46 3891.19 845.46 3819.19"/>
    <polygon id="s91" class="cls-1" points="728.46 3888.19 758.46 3870.19 914.46 3780.19 843.96 3820.69 728.46 3888.19"/>
    <polygon id="s89" class="cls-1" points="690.96 4236.19 714.96 4298.51 599.46 4231.69 597.96 4182.19 690.96 4236.19"/>
    <polygon id="s85" class="cls-1" points="234.96 4314.19 195.96 4350.19 329.46 4272.19 354.96 4245.19 234.96 4314.19"/>
    <polygon id="s84" class="cls-1" points="344.46 3816.19 360.96 3829.69 242.46 3897.19 216.96 3889.69 344.46 3816.19"/>
    <polygon id="s82" class="cls-1" points="464.46 3577.69 488.46 3652.69 380.46 3712.69 332.46 3654.19 464.46 3577.69"/>
    <polygon id="s80" class="cls-1" points="483.96 3633.19 598.65 3699.19 597.96 3717.19 488.46 3654.19 483.96 3633.19"/>
    <polygon id="s79" class="cls-1" points="464.46 3424.69 483.96 3499.69 483.96 3633.19 464.46 3577.69 464.46 3424.69"/>
    <polygon id="s78" class="cls-1" points="597.96 3384.19 597.96 3433.69 483.96 3499.69 473.46 3455.95 597.96 3384.19"/>
    <polygon id="s77" class="cls-1" points="110.46 3403.69 224.46 3537.19 317.46 3591.19 231.96 3472.69 110.46 3403.69"/>
    <polygon id="s76" class="cls-1" points="947.46 3624.19 876.96 3699.19 783.96 3753.19 831.96 3691.69 947.46 3624.19"/>
    <polygon id="s75" class="cls-1" points="1089.96 3393.19 968.46 3540.19 876.96 3591.19 968.46 3463.69 1089.96 3393.19"/>
    <polygon id="s73" class="cls-1" points="845.46 3252.19 804.96 3369.19 804.96 3487.69 845.46 3393.19 845.46 3252.19"/>
    <polygon id="s70" class="cls-1" points="726.96 3126.19 699.96 3307.69 598.65 3369.94 594.96 3202.69 726.96 3126.19"/>
    <polygon id="s68" class="cls-1" points="713.24 3499.69 716.43 3492.19 716.43 3624.19 713.24 3633.19 713.24 3499.69"/>
    <polygon id="s66" class="cls-1" points="471.96 4326.19 464.46 4350.19 329.46 4272.19 347.46 4254.19 471.96 4326.19"/>
    <polygon id="s67" class="cls-1" points="483.96 4431.19 464.46 4504.69 464.46 4344.19 483.96 4299.19 483.96 4431.19"/>
    <polygon id="s97" class="cls-1" points="380.46 3841.69 359.46 3829.69 477.96 3897.19 488.46 3904.69 380.46 3841.69"/>
    <polygon id="s95" class="cls-1" points="477.96 4033.69 467.46 4041.19 347.46 4110.19 359.46 4101.19 477.96 4033.69"/>
    <polygon id="s93" class="cls-1" points="359.46 4101.19 354.96 4105.69 233.46 4036.69 243.96 4035.19 359.46 4101.19"/>
    <polygon id="s58" class="cls-1" points="719.46 2976.19 726.96 2943.19 594.96 2866.69 594.96 2904.19 719.46 2976.19"/>
    <polygon id="s35" class="cls-1" points="711.96 2743.69 719.46 2688.19 594.96 2760.19 596.46 2814.19 711.96 2743.69"/>
    <polygon id="s36" class="cls-1" points="717.96 2736.19 828.96 2800.69 843.96 2760.19 719.46 2688.19 717.96 2736.19"/>
    <polygon id="s83" class="cls-1" points="344.46 3669.19 380.46 3712.69 380.46 3841.17 344.46 3816.19 344.46 3669.19"/>
    <polygon id="_45" data-name="45" class="cls-2" points="477.96 4033.43 477.96 3897.46 360.21 3829.48 242.46 3897.46 242.46 4033.43 360.21 4101.41 477.96 4033.43"/>
    <polygon id="_39" data-name="39" class="cls-2" points="713.46 3632.91 713.46 3500.34 598.65 3434.06 483.85 3500.34 483.85 3632.91 598.65 3699.19 713.46 3632.91"/>
    <polygon id="_37" data-name="37" class="cls-2" points="947.46 3624.88 947.46 3491.51 831.96 3424.82 716.46 3491.51 716.46 3624.88 831.96 3691.56 947.46 3624.88"/>
    <polygon id="_36" data-name="36" class="cls-2" points="845.46 3819.71 845.46 3677.68 722.46 3606.66 599.46 3677.68 599.46 3819.71 722.46 3890.72 845.46 3819.71"/>
    <polygon id="s86" class="cls-1" points="728.46 3888.19 758.46 3870.19 758.46 4051.69 728.46 4039.49 728.46 3888.19"/>
    <polygon id="_44" data-name="44" class="cls-2" points="1071.96 4051.44 1071.96 3870.44 915.21 3779.94 758.46 3870.44 758.46 4051.44 915.21 4141.94 1071.96 4051.44"/>
    <polygon id="_43" data-name="43" class="cls-2" points="596.46 4254.07 596.46 4110.31 471.96 4038.43 347.46 4110.31 347.46 4254.07 471.96 4325.95 596.46 4254.07"/>
    <polygon id="s96" class="cls-1" points="465.96 3888.19 488.46 3904.69 598.65 3844.69 597.96 3811.69 465.96 3888.19"/>
    <polygon id="_46" data-name="46" class="cls-2" points="728.46 4039.49 728.46 3887.93 597.21 3812.16 465.96 3887.93 465.96 4039.49 597.21 4115.27 728.46 4039.49"/>
    <polygon id="_47" data-name="47" class="cls-2" points="344.46 3816.3 344.46 3669.08 216.96 3595.47 89.46 3669.08 89.46 3816.3 216.96 3889.92 344.46 3816.3"/>
    <polygon id="s81" class="cls-1" points="198.96 3577.69 216.96 3595.69 344.46 3669.08 332.46 3654.19 198.96 3577.69"/>
    <polygon id="_26" data-name="26" class="cls-2" points="711.96 2767.94 711.96 2633.71 595.71 2566.59 479.46 2633.71 479.46 2767.94 595.71 2835.06 711.96 2767.94"/>
    <polygon id="_27" data-name="27" class="cls-2" points="947.46 2732.93 947.46 2596.96 829.71 2528.98 711.96 2596.96 711.96 2732.93 829.71 2800.91 947.46 2732.93"/>
    <polygon id="_28" data-name="28" class="cls-2" points="843.96 2917.57 843.96 2773.81 719.46 2701.93 594.96 2773.81 594.96 2917.57 719.46 2989.45 843.96 2917.57"/>
    <polygon id="_33" data-name="33" class="cls-2" points="476.38 3211.57 476.38 3075.65 358.67 3007.69 240.96 3075.65 240.96 3211.57 358.67 3279.52 476.38 3211.57"/>
    <polygon id="_32" data-name="32" class="cls-2" points="351.96 3403.66 351.96 3264.23 231.21 3194.51 110.46 3264.23 110.46 3403.66 231.21 3473.37 351.96 3403.66"/>
    <polygon id="_41" data-name="41" class="cls-2" points="597.96 3384.07 597.96 3240.31 473.46 3168.43 348.96 3240.31 348.96 3384.07 473.46 3455.95 597.96 3384.07"/>
    <polygon id="s74" class="cls-1" points="845.46 3393.19 831.96 3424.69 947.46 3491.51 968.46 3463.69 845.46 3393.19"/>
    <polygon id="_38" data-name="38" class="cls-2" points="1089.96 3393.25 1089.96 3252.37 967.96 3181.93 845.95 3252.37 845.95 3393.25 967.96 3463.69 1089.96 3393.25"/>
    <polygon id="_40" data-name="40" class="cls-2" points="464.46 3577.09 464.46 3423.8 331.71 3347.16 198.96 3423.8 198.96 3577.09 331.71 3653.73 464.46 3577.09"/>
    <polygon id="s71" class="cls-1" points="462.96 3126.19 473.46 3168.19 597.96 3240.19 594.96 3202.69 462.96 3126.19"/>
    <polygon id="s69" class="cls-1" points="912.96 3049.69 804.96 3370.69 699.96 3307.69 755.46 2959.69 912.96 3049.69"/>
    <polygon id="_35" data-name="35" class="cls-2" points="726.27 3126.22 726.27 2974.2 594.61 2898.19 462.96 2974.2 462.96 3126.22 594.61 3202.23 726.27 3126.22"/>
    <polygon id="_34" data-name="34" class="cls-2" points="341.46 2934.62 341.46 2788.26 214.71 2715.08 87.96 2788.26 87.96 2934.62 214.71 3007.8 341.46 2934.62"/>
    <polygon id="s55" class="cls-1" points="726.96 3126.19 755.46 2959.69 755.46 2776.69 726.96 2974.69 726.96 3126.19"/>
    <polygon id="s72" class="cls-1" points="1070.46 2959.69 968.46 3181.69 845.46 3252.19 912.96 3049.69 1070.46 2959.69"/>
    <polygon id="_31" data-name="31" class="cls-2" points="1070.46 2959.13 1070.46 2777.26 912.96 2686.33 755.46 2777.26 755.46 2959.13 912.96 3050.06 1070.46 2959.13"/>
    <polygon id="s110" class="cls-1" points="876.96 2125.69 875.46 2223.19 887.46 2224.69 885.96 2115.19 876.96 2125.69"/>
    <polygon id="s1" class="cls-1" points="945.96 1002.19 945.96 1140.19 894.96 1249.69 893.46 1135.69 945.96 1002.19"/>
    <polygon id="_2" data-name="2" class="cls-2" points="1188.96 1136.61 1188.96 999.78 1070.46 931.36 951.96 999.78 951.96 1136.61 1070.46 1205.02 1188.96 1136.61"/>
    <polygon id="s33" class="cls-1" points="1049.46 793.69 596.46 1054.69 597.96 1416.19 722.46 1342.69 1049.46 793.69"/>
    <polygon id="s32" class="cls-1" points="143.46 793.69 488.46 1440.19 596.46 1498.69 596.46 1054.69 143.46 793.69"/>
    <polygon id="s3" class="cls-1" points="434.46 1162.69 273.96 1255.69 378.96 1561.69 488.46 1500.19 434.46 1162.69"/>
    <polygon id="s20" class="cls-1" points="911.46 2101.69 782.46 2403.19 876.96 2452.69 1070.46 2193.19 911.46 2101.69"/>
    <polygon id="s23" class="cls-1" points="597.96 2406.19 503.46 2458.69 465.96 2298.19 596.46 2221.69 597.96 2406.19"/>
    <polygon id="s50" class="cls-1" points="596.46 2098.69 596.46 2221.69 465.96 2298.19 437.46 2190.19 596.46 2098.69"/>
    <polygon id="s19" class="cls-1" points="843.96 1278.19 843.96 1413.19 870.96 1252.69 870.96 1095.19 843.96 1278.19"/>
    <polygon id="s18" class="cls-1" points="912.96 1234.69 857.46 1440.19 728.46 1515.19 756.96 1326.19 912.96 1234.69"/>
    <polygon id="s17" class="cls-1" points="597.96 1615.69 596.46 1440.19 728.46 1515.19 687.96 1668.19 597.96 1615.69"/>
    <polygon id="s16" class="cls-1" points="597.96 1615.69 506.46 1669.69 465.96 1515.19 596.46 1440.19 597.96 1615.69"/>
    <polygon id="s15" class="cls-1" points="380.46 1689.19 380.46 1561.69 342.96 1458.19 342.96 1600.69 380.46 1689.19"/>
    <polygon id="s14" class="cls-1" points="431.46 1267.69 506.46 1669.69 410.46 1621.69 269.46 1173.19 431.46 1267.69"/>
    <polygon id="s9" class="cls-1" points="875.46 2235.19 906.96 2175.19 1010.46 2235.19 969.96 2289.19 875.46 2235.19"/>
    <polygon id="s8" class="cls-1" points="875.46 2235.19 782.46 2289.19 803.46 2235.19 906.96 2175.19 875.46 2235.19"/>
    <polygon id="s7" class="cls-1" points="782.46 2289.19 782.46 2403.19 803.46 2355.19 803.46 2235.19 782.46 2289.19"/>
    <polygon id="_9" data-name="9" class="cls-2" points="1081.29 2215.24 1081.29 2103.33 984.38 2047.38 887.46 2103.33 887.46 2215.24 984.38 2271.19 1081.29 2215.24"/>
    <polygon id="s48" class="cls-1" points="690.96 2235.19 695.46 2194.69 797.46 2253.19 782.46 2289.19 690.96 2235.19"/>
    <polygon id="s54" class="cls-1" points="1052.46 1902.19 984.96 2056.69 887.46 2112.19 939.96 1968.19 1052.46 1902.19"/>
    <polygon id="_10" data-name="10" class="cls-2" points="897.96 2195.4 897.96 2078.49 796.71 2020.03 695.46 2078.49 695.46 2195.4 796.71 2253.86 897.96 2195.4"/>
    <polygon id="_5" data-name="5" class="cls-2" points="342.96 1299.42 342.96 1152.2 215.46 1078.58 87.96 1152.2 87.96 1299.42 215.46 1373.03 342.96 1299.42"/>
    <polygon id="s43" class="cls-1" points="102.96 1458.19 231.96 1738.69 353.46 1807.69 267.96 1552.69 102.96 1458.19"/>
    <polygon id="s53" class="cls-1" points="111.96 1852.69 233.46 1921.69 315.96 2128.69 224.46 2079.19 111.96 1852.69"/>
    <polygon id="_14" data-name="14" class="cls-2" points="353.46 1849.69 353.46 1710.23 232.71 1640.51 111.96 1710.23 111.96 1849.66 232.71 1919.37 353.46 1849.69"/>
    <polygon id="_13" data-name="13" class="cls-2" points="597.96 1779.1 597.96 1634.48 472.71 1562.16 347.46 1634.48 347.46 1779.1 472.71 1851.42 597.96 1779.1"/>
    <polygon id="s29" class="cls-1" points="315.96 2565.94 233.46 2479.69 111.96 2550.19 224.46 2617.69 315.96 2565.94"/>
    <polygon id="_23" data-name="23" class="cls-2" points="354.47 2689.71 354.47 2549.7 233.22 2479.69 111.96 2549.7 111.96 2689.71 233.22 2759.72 354.47 2689.71"/>
    <polygon id="s27" class="cls-1" points="411.96 2619.19 410.46 2724.19 354.96 2686.69 354.96 2550.19 411.96 2619.19"/>
    <polygon id="s28" class="cls-1" points="315.96 2565.19 411.96 2619.19 354.96 2550.19 233.46 2479.69 315.96 2565.19"/>
    <polygon id="_19" data-name="19" class="cls-2" points="472.77 2472.74 472.77 2329.37 348.62 2257.69 224.46 2329.37 224.46 2472.74 348.62 2544.42 472.77 2472.74"/>
    <polygon id="s26" class="cls-1" points="32.46 2014.69 224.46 2293.69 315.96 2236.69 174.96 1936.69 32.46 2014.69"/>
    <polygon id="_15" data-name="15" class="cls-2" points="462.96 1964.59 462.96 1810.38 329.41 1733.27 195.86 1810.38 195.86 1964.59 329.41 2041.69 462.96 1964.59"/>
    <polygon id="s42" class="cls-1" points="825.96 1902.19 796.71 2019.19 897.96 2077.69 939.96 1968.19 825.96 1902.19"/>
    <polygon id="_8" data-name="8" class="cls-2" points="1053.96 1902.01 1053.96 1770.37 939.96 1704.56 825.96 1770.37 825.96 1902.01 939.96 1967.83 1053.96 1902.01"/>
    <polygon id="s2" class="cls-1" points="870.96 1095.19 1008.96 1015.69 875.46 1252.69 849.96 1230.19 870.96 1095.19"/>
    <polygon id="_6" data-name="6" class="cls-2" points="845.77 1486.8 845.77 1343.73 721.87 1272.19 597.96 1343.73 597.96 1486.8 721.87 1558.34 845.77 1486.8"/>
    <polygon id="s45" class="cls-1" points="465.96 1668.19 473.46 1708.69 596.46 1779.19 597.21 1743.19 465.96 1668.19"/>
    <polygon id="_12" data-name="12" class="cls-2" points="728.46 1667.41 728.46 1515.86 597.21 1440.08 465.96 1515.86 465.96 1667.41 597.21 1743.19 728.46 1667.41"/>
    <polygon id="_11" data-name="11" class="cls-2" points="860.96 1769.27 860.96 1617.43 729.46 1541.5 597.96 1617.43 597.96 1769.27 729.46 1845.19 860.96 1769.27"/>
    <polygon id="s100" class="cls-1" points="860.46 1765.69 729.96 1840.69 695.46 2079.19 795.96 2020.69 860.46 1765.69"/>
    <polygon id="s49" class="cls-1" points="746.46 1887.19 689.46 2235.19 596.45 2289.19 597.21 1972.69 746.46 1887.19"/>
    <polygon id="s4" class="cls-1" points="728.46 1515.19 755.46 1327.69 756.96 1504.69 729.96 1668.19 728.46 1515.19"/>
    <polygon id="_17" data-name="17" class="cls-2" points="1010.46 2355.06 1010.46 2235.55 906.96 2175.8 803.46 2235.55 803.46 2355.06 906.96 2414.82 1010.46 2355.06"/>
    <polygon id="s34" class="cls-1" points="1145.46 1252.69 1071.96 1341.19 1070.46 1324.69 1044.96 1311.19 1145.46 1252.69"/>
    <polygon id="_3" data-name="3" class="cls-2" points="434.46 1162.04 434.46 975.85 273.21 882.75 111.96 975.85 111.96 1162.04 273.21 1255.14 434.46 1162.04"/>
    <polygon id="_4" data-name="4" class="cls-2" points="1145.46 1253.18 1145.46 1094.7 1008.21 1015.46 870.96 1094.7 870.96 1253.18 1008.21 1332.42 1145.46 1253.18"/>
    <polygon id="s107" class="cls-1" points="1070.46 2269.69 876.96 2454.19 782.46 2508.19 912.96 2359.69 1070.46 2269.69"/>
    <polygon id="s106" class="cls-1" points="753.96 2269.69 912.96 2359.69 782.46 2508.19 690.96 2457.19 728.73 2344.79 753.96 2269.69"/>
    <polygon id="s65" class="cls-1" points="329.46 2023.69 329.46 2181.55 315.96 2170.69 315.96 2007.19 329.46 2023.69"/>
    <polygon id="s21" class="cls-1" points="782.46 2403.19 690.96 2457.19 753.96 2187.19 911.46 2095.69 782.46 2403.19"/>
    <polygon id="s30" class="cls-1" points="728.46 2193.19 728.46 2344.69 753.96 2268.19 753.96 2082.19 728.46 2193.19"/>
    <polygon id="s22" class="cls-1" points="690.96 2457.19 597.96 2406.19 596.46 2221.69 728.46 2298.19 690.96 2457.19"/>
    <polygon id="_24" data-name="24" class="cls-2" points="1070.46 2268.81 1070.46 2086.08 912.21 1994.71 753.96 2086.08 753.96 2268.81 912.21 2360.17 1070.46 2268.81"/>
    <polygon id="s102" class="cls-1" points="32.46 2178.19 227.46 2404.69 227.46 2328.19 173.46 2260.69 32.46 2178.19"/>
    <polygon id="_21" data-name="21" class="cls-2" points="315.96 2178.28 315.96 2014.6 174.21 1932.76 32.46 2014.6 32.46 2178.28 174.21 2260.12 315.96 2178.28"/>
    <polygon id="s64" class="cls-1" points="173.46 2260.69 315.96 2178.19 348.96 2256.19 227.46 2328.19 173.46 2260.69"/>
    <polygon id="s47" class="cls-1" points="756.96 1504.69 912.96 1597.69 860.46 1740.19 728.46 1666.69 756.96 1504.69"/>
    <polygon id="s46" class="cls-1" points="1070.46 1507.69 912.96 1597.69 860.46 1743.19 860.96 1828.17 939.96 1782.19 1070.46 1507.69"/>
    <polygon id="s44" class="cls-1" points="267.96 1552.69 347.46 1779.19 473.46 1708.69 431.46 1458.19 267.96 1552.69"/>
    <polygon id="s5" class="cls-1" points="465.96 1668.19 431.46 1458.19 431.46 1267.69 465.96 1515.19 465.96 1668.19"/>
    <polygon id="s37" class="cls-1" points="194.46 2752.69 233.46 2760.19 354.96 2689.69 329.46 2673.19 194.46 2752.69"/>
    <polygon id="s108" class="cls-1" points="329.46 2857.69 375.96 2829.19 479.46 2769.19 462.96 2781.19 329.46 2857.69"/>
    <polygon id="_29" data-name="29" class="cls-2" points="462.96 2779.95 462.96 2624.93 328.71 2547.42 194.46 2624.93 194.46 2779.95 328.71 2857.46 462.96 2779.95"/>
    <polygon id="s104" class="cls-1" points="411.96 2595.19 479.46 2634.19 596.46 2566.69 594.96 2488.69 411.96 2595.19"/>
    <polygon id="_7" data-name="7" class="cls-2" points="1070.46 1507 1070.46 1325.61 913.38 1234.91 756.29 1325.61 756.29 1507 913.38 1597.69 1070.46 1507"/>
    <polygon id="s105" class="cls-1" points="690.96 2457.19 594.96 2512.69 596.46 2421.19 728.46 2344.69 690.96 2457.19"/>
    <polygon id="_22" data-name="22" class="cls-2" points="728.46 2344.72 728.46 2193.16 597.21 2117.39 465.96 2193.16 465.96 2344.72 597.21 2420.5 728.46 2344.72"/>
    <polygon id="s103" class="cls-1" points="462.96 2625.19 462.96 2779.69 479.46 2769.19 479.46 2635.69 462.96 2625.19"/>
    <polygon id="s101" class="cls-1" points="279.96 2098.69 348.96 2257.69 473.46 2328.19 437.46 2190.19 279.96 2098.69"/>
    <polygon id="s99" class="cls-1" points="342.96 1458.19 273.96 1255.69 111.96 1162.69 215.46 1374.19 342.96 1458.19"/>
    <polygon id="_18" data-name="18" class="cls-2" points="431.46 1457.89 431.46 1268.23 267.21 1173.4 102.96 1268.23 102.96 1457.89 267.21 1552.72 431.46 1457.89"/>
    <polygon id="_20" data-name="20" class="cls-2" points="596.45 2098.69 596.45 1915.69 437.96 1824.19 279.48 1915.69 279.48 2098.69 437.96 2190.19 596.45 2098.69"/>
    <polygon id="_30" data-name="30" class="cls-2" points="594.96 2489.03 594.96 2276.85 411.21 2170.77 227.46 2276.85 227.46 2489.03 411.21 2595.12 594.96 2489.03"/>
    <polygon id="s98" class="cls-1" points="434.46 975.19 488.46 1384.69 488.46 1500.19 434.46 1162.69 434.46 975.19"/>
    <polygon id="_16" data-name="16" class="cls-2" points="746.46 1882.61 746.46 1710.27 597.21 1624.1 447.96 1710.27 447.96 1882.61 597.21 1968.78 746.46 1882.61"/>
    <polygon id="s11" class="cls-1" points="462.96 1821.19 462.96 1768.69 329.46 1690.69 353.46 1752.19 462.96 1821.19"/>
    <polygon id="s10" class="cls-1" points="195.96 1768.69 233.46 1821.19 353.46 1752.19 329.46 1690.69 195.96 1768.69"/>
    <polygon id="s6" class="cls-1" points="729.96 1776.19 746.46 1708.69 597.96 1624.69 597.96 1699.69 729.96 1776.19"/>
    <polygon id="s12" class="cls-1" points="597.96 1653.19 597.96 1623.19 447.96 1708.69 471.96 1725.19 597.96 1653.19"/>
    <polygon id="s25" class="cls-1" points="596.46 1983.19 465.96 1906.69 437.46 1827.19 594.96 1918.69 596.46 1983.19"/>
    <polygon id="s24" class="cls-1" points="462.96 1897.69 329.46 1972.69 279.96 1917.19 437.46 1827.19 462.96 1897.69"/>
    <polygon id="s31" class="cls-1" points="329.46 2032.69 315.96 2016.19 174.96 1933.69 195.96 1956.19 329.46 2032.69"/>
    <polygon id="s38" class="cls-1" points="473.46 2344.69 348.96 2416.69 227.46 2277.19 411.96 2170.69 473.46 2344.69"/>
    <polygon id="_25" data-name="25" class="cls-2" points="1011.09 3067.7 1011.09 2948.7 908.02 2889.19 804.96 2948.7 804.96 3067.7 908.02 3127.2 1011.09 3067.7"/>
    <polygon id="s63" class="cls-1" points="884.46 2931.19 974.46 2982.19 1016.46 2959.69 914.46 2899.69 884.46 2931.19"/>
    <polygon id="_1" data-name="1" class="cls-3" points="596.13 1051.69 142.79 789.96 143.46 265.69 596.46 3.19 1049.46 265.69 1049.46 789.96 596.13 1051.69"/>
    <polygon id="xx05" class="cls-1" points="332.46 3348.19 348.96 3384.19 473.46 3456.19 464.46 3424.69 332.46 3348.19"/>
    <polygon id="xx01" class="cls-1" points="728.46 4039.69 690.96 4080.19 596.46 4134.19 596.46 4115.27 728.46 4039.69"/>
    <polygon id="xx02" class="cls-1" points="728.46 3888.19 722.46 3901.69 599.46 3829.69 599.46 3813.45 728.46 3888.19"/>
    <polygon id="xx03" class="cls-1" points="722.46 3616.69 716.46 3643.69 831.96 3711.19 845.46 3688.69 722.46 3616.69"/>
    <polygon id="xx04" class="cls-1" points="713.46 3657.19 722.46 3616.69 599.46 3688.69 597.96 3723.19 713.46 3657.19"/>
    <polygon id="xxx07" class="cls-1" points="821.46 3451.69 848.46 3436.69 732.96 3504.19 716.46 3513.19 821.46 3451.69"/>
    <polygon id="xxx06" class="cls-1" points="596.46 3450.19 596.46 3433.69 711.96 3499.69 698.46 3511.69 596.46 3450.19"/>
    <polygon id="s51" class="cls-1" points="594.96 2278.69 410.46 2172.19 464.46 2202.19 596.46 2278.69 594.96 2278.69"/>
    <polygon id="yy1" class="cls-1" points="503.46 3187.69 414.96 3241.69 350.46 3276.19 473.21 3204.94 503.46 3187.69"/>
    <polygon id="yy2" class="cls-1" points="231.96 3199.69 317.46 3190.69 414.96 3241.69 354.96 3270.19 231.96 3199.69"/>
    <polygon id="yy3" class="cls-1" points="110.46 3270.19 225.96 3241.69 317.46 3190.69 231.96 3201.19 110.46 3270.19"/>
    <polygon id="yy4" class="cls-1" points="350.46 3411.19 332.46 3439.69 198.96 3516.19 231.96 3478.69 350.46 3411.19"/>
    <polygon id="yy5" class="cls-1" points="317.46 3513.19 225.96 3565.69 89.46 3717.19 216.96 3643.69 317.46 3513.19"/>
    <polygon id="c1" class="cls-3" points="598.75 5511.19 211.79 5287.78 212.36 4840.27 599.04 4616.21 985.71 4840.27 985.71 5287.78 598.75 5511.19"/>
    <polygon id="k01" class="cls-1" points="599.46 4498.69 599.46 4615.69 986.46 4840.69 833.46 4506.19 714.96 4431.19 599.46 4498.69"/>
    <polygon id="k02" class="cls-1" points="483.96 4431.19 330.96 4576.69 212.46 4840.69 599.46 4615.69 599.46 4498.69 483.96 4431.19"/>
  </g>
</svg>
