<svg xmlns="http://www.w3.org/2000/svg" width="1200" height="5600" viewBox="0 0 1200 5600">
  <defs>
    <style>
      .cls-1 {
        fill: #f2f2f2;
      }

      .cls-1, .cls-2, .cls-3 {
        stroke: #000;
        stroke-miterlimit: 10;
      }

      .cls-2, .cls-3 {
        fill: #fff;
      }

      .cls-3 {
        stroke-width: 2px;
      }
    </style>
  </defs>
  <title>aartics_polygons_vertical</title>
  <g id="_01stage" data-name="01stage">
    <polygon id="s32" class="cls-1" points="141.87 791.46 486.87 1560.96 596.03 1625.46 594.87 1052.46 141.87 791.46"/>
    <polygon id="s63" class="cls-1" points="876.87 3185.46 966.87 3236.46 1008.87 3287.46 906.87 3227.46 876.87 3185.46"/>
    <polygon id="_25" data-name="25" class="cls-2" points="1009.49 3405.97 1009.49 3286.97 906.43 3227.46 803.37 3286.97 803.37 3405.97 906.43 3465.47 1009.49 3405.97"/>
    <polygon id="s41" class="cls-1" points="803.37 2730.96 689.37 2778.96 710.37 3150.96 828.87 3083.46 803.37 2730.96"/>
    <polygon id="s88" class="cls-1" points="726.87 4439.46 726.87 4287.96 756.87 4448.46 756.87 4629.96 726.87 4439.46"/>
    <polygon id="s40" class="cls-1" points="594.87 3077.46 710.37 3144.96 689.37 2778.96 596.37 2723.46 594.87 3077.46"/>
    <polygon id="s52" class="cls-1" points="803.37 2723.46 909.87 2786.46 945.87 3150.96 828.87 3083.46 803.37 2723.46"/>
    <polygon id="s60" class="cls-1" points="474.87 3561.96 485.37 3498.96 377.37 3437.46 356.37 3494.46 474.87 3561.96"/>
    <polygon id="s62" class="cls-1" points="213.87 3209.46 314.37 3183.96 213.87 3323.46 86.37 3396.96 213.87 3209.46"/>
    <polygon id="s59" class="cls-1" points="593.37 3570.96 461.37 3647.46 485.37 3498.96 593.02 3437.46 593.37 3570.96"/>
    <polygon id="s61" class="cls-1" points="377.37 3312.96 377.37 3437.46 357.02 3494.44 339.87 3542.46 339.87 3396.96 377.37 3312.96"/>
    <polygon id="s57" class="cls-1" points="803.37 3405.96 906.87 3465.96 1068.87 3810.96 911.37 3720.96 803.37 3405.96"/>
    <polygon id="s56" class="cls-1" points="717.87 3597.96 842.37 3525.84 911.37 3720.96 753.87 3810.96 717.87 3597.96"/>
    <polygon id="s94" class="cls-1" points="318.87 4158.96 227.37 4211.46 111.87 4430.46 231.87 4361.46 318.87 4158.96"/>
    <polygon id="_42" data-name="42" class="cls-2" points="353.37 4569.93 353.37 4430.5 232.62 4360.78 111.87 4430.5 111.87 4569.93 232.62 4639.64 353.37 4569.93"/>
    <polygon id="_50" data-name="50" class="cls-2" points="948.87 4660.13 948.87 4525.02 831.86 4457.46 714.85 4525.02 714.85 4660.13 831.86 4727.68 948.87 4660.13"/>
    <polygon id="_49" data-name="49" class="cls-2" points="713.37 4647.15 713.37 4513.78 597.87 4447.1 482.37 4513.78 482.37 4647.15 597.87 4713.83 713.37 4647.15"/>
    <polygon id="_48" data-name="48" class="cls-2" points="462.87 4786.22 462.87 4631.2 328.62 4553.69 194.37 4631.2 194.37 4786.22 328.62 4863.73 462.87 4786.22"/>
    <polygon id="_51" data-name="51" class="cls-2" points="1089.87 4494.3 1089.87 4353.13 967.62 4282.55 845.37 4353.13 845.37 4494.3 967.62 4564.88 1089.87 4494.3"/>
    <polygon id="s87" class="cls-1" points="689.37 4151.46 782.37 4211.46 914.37 4719.96 756.87 4629.96 689.37 4151.46"/>
    <polygon id="s90" class="cls-1" points="782.37 4319.46 831.87 4457.46 714.87 4524.96 689.37 4374.96 782.37 4319.46"/>
    <polygon id="s92" class="cls-1" points="843.87 4175.46 914.37 4358.46 1070.37 4451.46 975.87 4253.46 843.87 4175.46"/>
    <polygon id="s91" class="cls-1" points="720.87 4238.46 756.87 4448.46 912.87 4358.46 843.87 4166.46 720.87 4238.46"/>
    <polygon id="s89" class="cls-1" points="689.37 4374.96 713.37 4514.46 597.87 4446.96 596.37 4319.46 689.37 4374.96"/>
    <polygon id="s85" class="cls-1" points="233.37 4548.96 194.37 4631.46 329.37 4553.46 353.37 4479.96 233.37 4548.96"/>
    <polygon id="s84" class="cls-1" points="342.87 4185.96 357.87 4137.96 240.87 4205.46 215.37 4259.46 342.87 4185.96"/>
    <polygon id="s82" class="cls-1" points="462.87 4137.96 482.37 4004.46 378.87 4083.96 330.87 4217.46 462.87 4137.96"/>
    <polygon id="s80" class="cls-1" points="482.37 3849.96 597.06 3915.96 597.87 3905.46 491.37 3845.46 482.37 3849.96"/>
    <polygon id="s79" class="cls-1" points="462.87 3986.46 482.37 3866.46 482.37 3999.96 462.87 4140.96 462.87 3986.46"/>
    <polygon id="s78" class="cls-1" points="596.37 3740.46 596.37 3720.96 482.37 3786.96 471.87 3812.46 596.37 3740.46"/>
    <polygon id="s77" class="cls-1" points="108.87 3927.96 228.87 3996.96 315.87 3918.96 222.87 3869.46 108.87 3927.96"/>
    <polygon id="s76" class="cls-1" points="945.87 3923.46 875.37 3836.46 782.37 3890.46 830.37 3990.96 945.87 3923.46"/>
    <polygon id="s75" class="cls-1" points="1088.37 3846.96 966.87 3786.96 875.37 3840.96 966.87 3917.46 1088.37 3846.96"/>
    <polygon id="s73" class="cls-1" points="843.87 3827.46 803.37 3806.46 803.37 3923.46 843.87 3968.46 843.87 3827.46"/>
    <polygon id="s70" class="cls-1" points="725.37 3525.96 689.37 3507.96 596.37 3563.46 593.37 3602.46 725.37 3525.96"/>
    <polygon id="s68" class="cls-1" points="711.87 3870.96 714.87 3875.46 714.87 4007.46 711.87 4004.46 711.87 3870.96"/>
    <polygon id="s66" class="cls-1" points="470.37 4577.46 462.87 4631.46 329.37 4553.46 345.87 4505.46 470.37 4577.46"/>
    <polygon id="s67" class="cls-1" points="482.37 4646.46 462.87 4785.96 462.87 4649.46 482.37 4514.46 482.37 4646.46"/>
    <polygon id="s98" class="cls-1" points="432.87 1259.46 486.87 1446.96 486.87 1562.46 432.87 1446.96 432.87 1259.46"/>
    <polygon id="s97" class="cls-1" points="378.87 4083.96 359.37 4137.96 476.37 4205.46 486.87 4143.96 378.87 4083.96"/>
    <polygon id="s93" class="cls-1" points="357.87 4409.46 353.37 4430.46 231.87 4361.46 240.87 4341.7 357.87 4409.46"/>
    <polygon id="s58" class="cls-1" points="717.87 3597.96 725.37 3647.46 593.37 3570.96 593.37 3525.84 717.87 3597.96"/>
    <polygon id="s35" class="cls-1" points="710.37 3279.96 717.87 3309.96 593.37 3381.96 593.37 3345.96 710.37 3279.96"/>
    <polygon id="s36" class="cls-1" points="710.37 3287.46 828.87 3354.96 842.37 3381.96 717.87 3309.96 710.37 3287.46"/>
    <polygon id="s83" class="cls-1" points="342.87 4037.46 378.87 3963.96 378.87 4083.96 342.87 4184.46 342.87 4037.46"/>
    <polygon id="_39" data-name="39" class="cls-2" points="711.87 3999.68 711.87 3867.11 597.06 3800.83 482.25 3867.11 482.25 3999.68 597.06 4065.96 711.87 3999.68"/>
    <polygon id="_37" data-name="37" class="cls-2" points="945.87 4014.15 945.87 3880.78 830.37 3814.1 714.87 3880.78 714.87 4014.15 830.37 4080.83 945.87 4014.15"/>
    <polygon id="_36" data-name="36" class="cls-2" points="843.87 4279.48 843.87 4137.45 720.87 4066.44 597.87 4137.45 597.87 4279.48 720.87 4350.49 843.87 4279.48"/>
    <polygon id="s86" class="cls-1" points="725.37 4289.46 755.37 4448.46 755.37 4629.96 725.37 4440.96 725.37 4289.46"/>
    <polygon id="_44" data-name="44" class="cls-2" points="1068.87 4629.71 1068.87 4448.71 912.12 4358.21 755.37 4448.71 755.37 4629.71 912.12 4720.21 1068.87 4629.71"/>
    <polygon id="_43" data-name="43" class="cls-2" points="593.37 4610.34 593.37 4466.58 468.87 4394.7 344.37 4466.58 344.37 4610.34 468.87 4682.22 593.37 4610.34"/>
    <polygon id="s96" class="cls-1" points="462.17 4287.96 484.67 4143.96 594.87 4083.96 594.17 4211.46 462.17 4287.96"/>
    <polygon id="_46" data-name="46" class="cls-2" points="725.37 4439.26 725.37 4287.7 594.12 4211.93 462.87 4287.7 462.87 4439.26 594.12 4515.04 725.37 4439.26"/>
    <polygon id="_47" data-name="47" class="cls-2" points="341.37 4184.58 341.37 4037.35 213.87 3963.74 86.37 4037.35 86.37 4184.58 213.87 4258.19 341.37 4184.58"/>
    <polygon id="s81" class="cls-1" points="195.87 4113.96 213.87 4110.96 341.37 4184.46 327.87 4190.46 195.87 4113.96"/>
    <polygon id="_26" data-name="26" class="cls-2" points="710.37 3278.72 710.37 3144.48 594.12 3077.36 477.87 3144.48 477.87 3278.72 594.12 3345.83 710.37 3278.72"/>
    <polygon id="_27" data-name="27" class="cls-2" points="945.87 3287.2 945.87 3151.23 828.12 3083.25 710.37 3151.23 710.37 3287.2 828.12 3355.18 945.87 3287.2"/>
    <polygon id="_28" data-name="28" class="cls-2" points="842.37 3525.84 842.37 3382.08 717.87 3310.2 593.37 3382.08 593.37 3525.84 717.87 3597.72 842.37 3525.84"/>
    <polygon id="_33" data-name="33" class="cls-2" points="474.78 3698.34 474.78 3562.42 357.07 3494.46 239.37 3562.42 239.37 3698.34 357.07 3766.3 474.78 3698.34"/>
    <polygon id="_32" data-name="32" class="cls-2" points="350.37 3927.93 350.37 3788.5 229.62 3718.78 108.87 3788.5 108.87 3927.93 229.62 3997.64 350.37 3927.93"/>
    <polygon id="_41" data-name="41" class="cls-2" points="596.37 3858.84 596.37 3715.08 471.87 3643.2 347.37 3715.08 347.37 3858.84 471.87 3930.72 596.37 3858.84"/>
    <polygon id="s74" class="cls-1" points="842.37 3870.96 828.87 3858.96 944.37 3923.46 965.37 3941.46 842.37 3870.96"/>
    <polygon id="_38" data-name="38" class="cls-2" points="1088.37 3982.02 1088.37 3841.14 966.36 3770.7 844.36 3841.14 844.36 3982.02 966.36 4052.46 1088.37 3982.02"/>
    <polygon id="_40" data-name="40" class="cls-2" points="462.87 4140.36 462.87 3987.07 330.12 3910.43 197.37 3987.07 197.37 4140.36 330.12 4217 462.87 4140.36"/>
    <polygon id="s71" class="cls-1" points="459.87 3794.46 501.87 3777.96 591.87 3833.46 591.87 3872.46 459.87 3794.46"/>
    <polygon id="s69" class="cls-1" points="911.37 4083.96 875.37 3893.46 725.37 3798.96 753.87 3993.96 911.37 4083.96"/>
    <polygon id="_35" data-name="35" class="cls-2" points="724.67 3798.99 724.67 3646.97 593.02 3570.96 461.37 3646.97 461.37 3798.99 593.02 3875 724.67 3798.99"/>
    <polygon id="_34" data-name="34" class="cls-2" points="339.87 3542.89 339.87 3396.53 213.12 3323.36 86.37 3396.53 86.37 3542.89 213.12 3616.07 339.87 3542.89"/>
    <polygon id="s55" class="cls-1" points="725.37 3798.96 753.87 3993.96 753.87 3810.96 724.67 3646.97 725.37 3798.96"/>
    <polygon id="s72" class="cls-1" points="1067.37 3990.96 965.37 3975.96 842.37 4046.46 909.87 4080.96 1067.37 3990.96"/>
    <polygon id="_31" data-name="31" class="cls-2" points="1068.87 3993.4 1068.87 3811.53 911.37 3720.6 753.87 3811.53 753.87 3993.4 911.37 4084.33 1068.87 3993.4"/>
    <polygon id="s110" class="cls-1" points="875.37 2135.46 873.87 2241.96 896.37 2274.96 896.37 2159.46 875.37 2135.46"/>
    <polygon id="s1" class="cls-1" points="950.37 1403.46 950.37 1541.46 899.37 1560.96 897.87 1464.96 950.37 1403.46"/>
    <polygon id="_2" data-name="2" class="cls-2" points="1187.37 1540.88 1187.37 1404.05 1068.87 1335.63 950.37 1404.05 950.37 1540.88 1068.87 1609.3 1187.37 1540.88"/>
    <polygon id="s33" class="cls-1" points="1047.87 791.46 594.87 1052.46 596.37 1599.96 720.87 1527.96 1047.87 791.46"/>
    <polygon id="s3" class="cls-1" points="432.87 1446.96 272.37 1539.96 377.37 1625.46 486.87 1562.46 432.87 1446.96"/>
    <polygon id="s20" class="cls-1" points="911.37 2822.46 801.87 2469.96 905.37 2529.96 1068.87 2913.96 911.37 2822.46"/>
    <polygon id="s23" class="cls-1" points="596.37 2405.46 501.87 2457.96 464.37 2568.96 594.87 2492.46 596.37 2405.46"/>
    <polygon id="s50" class="cls-1" points="594.87 2822.46 594.87 2654.46 471.87 2727.96 435.87 2913.96 594.87 2822.46"/>
    <polygon id="s19" class="cls-1" points="843.87 1599.96 843.87 1743.96 870.87 1736.46 870.87 1578.96 843.87 1599.96"/>
    <polygon id="s18" class="cls-1" points="911.37 1727.46 843.87 1742.46 720.87 1814.46 755.37 1815.96 911.37 1727.46"/>
    <polygon id="s17" class="cls-1" points="596.37 1758.96 594.87 1740.96 726.87 1815.96 686.37 1811.46 596.37 1758.96"/>
    <polygon id="s16" class="cls-1" points="596.37 1758.96 504.87 1812.96 464.37 1815.96 594.87 1740.96 596.37 1758.96"/>
    <polygon id="s15" class="cls-1" points="378.87 1751.46 378.87 1628.46 341.37 1596.96 341.37 1743.96 378.87 1751.46"/>
    <polygon id="s11" class="cls-1" points="470.37 2250.96 461.37 2279.46 327.87 2201.46 345.87 2177.46 470.37 2250.96"/>
    <polygon id="s10" class="cls-1" points="194.37 2279.46 231.87 2234.46 351.87 2163.96 327.87 2201.46 194.37 2279.46"/>
    <polygon id="s9" class="cls-1" points="887.37 2261.46 905.37 2289.96 1008.87 2349.96 983.37 2316.96 887.37 2261.46"/>
    <polygon id="s8" class="cls-1" points="873.87 2241.96 782.37 2295.96 801.87 2349.96 905.37 2289.96 873.87 2241.96"/>
    <polygon id="s7" class="cls-1" points="782.37 2298.96 780.87 2402.46 801.87 2468.46 801.87 2349.96 782.37 2298.96"/>
    <polygon id="_9" data-name="9" class="cls-2" points="1079.7 2261.01 1079.7 2149.1 982.78 2093.15 885.87 2149.1 885.87 2261.01 982.78 2316.96 1079.7 2261.01"/>
    <polygon id="s48" class="cls-1" points="689.37 2252.46 693.87 2274.96 795.87 2333.46 780.87 2306.46 689.37 2252.46"/>
    <polygon id="s54" class="cls-1" points="1052.37 2144.46 983.37 2093.46 885.87 2148.96 938.37 2210.46 1052.37 2144.46"/>
    <polygon id="_10" data-name="10" class="cls-2" points="896.37 2275.67 896.37 2158.76 795.12 2100.3 693.87 2158.76 693.87 2275.67 795.12 2334.13 896.37 2275.67"/>
    <polygon id="s6" class="cls-1" points="728.37 2273.46 744.87 2336.46 596.37 2250.96 596.37 2196.96 728.37 2273.46"/>
    <polygon id="_5" data-name="5" class="cls-2" points="341.37 1744.19 341.37 1596.97 213.87 1523.36 86.37 1596.97 86.37 1744.19 213.87 1817.8 341.37 1744.19"/>
    <polygon id="s14" class="cls-1" points="429.87 1817.46 504.87 1812.96 408.87 1758.96 267.87 1724.46 429.87 1817.46"/>
    <polygon id="s43" class="cls-1" points="101.37 2007.96 230.37 1956.96 345.87 2022.96 266.37 2102.46 101.37 2007.96"/>
    <polygon id="s53" class="cls-1" points="110.37 2163.96 231.87 2234.46 314.37 2135.46 222.87 2082.96 110.37 2163.96"/>
    <polygon id="_14" data-name="14" class="cls-2" points="351.87 2165.46 351.87 2026 231.12 1956.28 110.37 2026 110.37 2165.43 231.12 2235.14 351.87 2165.46"/>
    <polygon id="s29" class="cls-1" points="314.37 2564.46 231.87 2916.96 110.37 2987.46 222.87 2618.46 314.37 2564.46"/>
    <polygon id="_23" data-name="23" class="cls-2" points="352.88 3126.99 352.88 2986.97 231.62 2916.96 110.37 2986.97 110.37 3126.99 231.62 3196.99 352.88 3126.99"/>
    <polygon id="s27" class="cls-1" points="410.37 2618.46 410.37 2724.96 353.37 3126.96 353.37 2987.46 410.37 2618.46"/>
    <polygon id="s28" class="cls-1" points="314.37 2564.46 410.37 2618.46 353.37 2987.46 231.87 2916.96 314.37 2564.46"/>
    <polygon id="_19" data-name="19" class="cls-2" points="471.18 2817.01 471.18 2673.64 347.02 2601.96 222.87 2673.64 222.87 2817.01 347.02 2888.69 471.18 2817.01"/>
    <polygon id="s26" class="cls-1" points="30.87 2547.96 222.87 2295.96 314.37 2243.46 173.37 2466.96 30.87 2547.96"/>
    <polygon id="_15" data-name="15" class="cls-2" points="461.37 2433.36 461.37 2279.15 327.82 2202.04 194.27 2279.15 194.27 2433.36 327.82 2510.46 461.37 2433.36"/>
    <polygon id="s12" class="cls-1" points="596.37 2177.46 596.37 2250.96 446.37 2336.46 470.37 2250.96 596.37 2177.46"/>
    <polygon id="_8" data-name="8" class="cls-2" points="1052.37 2144.28 1052.37 2012.65 938.37 1946.83 824.37 2012.65 824.37 2144.28 938.37 2210.1 1052.37 2144.28"/>
    <polygon id="s2" class="cls-1" points="870.87 1578.96 1007.37 1499.46 875.37 1598.46 782.37 1650.96 870.87 1578.96"/>
    <polygon id="s100" class="cls-1" points="858.87 2196.96 728.37 2273.46 693.87 2159.46 794.37 2100.96 858.87 2196.96"/>
    <polygon id="_6" data-name="6" class="cls-2" points="844.17 1742.57 844.17 1599.5 720.27 1527.96 596.37 1599.5 596.37 1742.57 720.27 1814.11 844.17 1742.57"/>
    <polygon id="s45" class="cls-1" points="461.37 1967.46 471.87 1956.96 596.37 2028.96 596.37 2043.96 461.37 1967.46"/>
    <polygon id="s49" class="cls-1" points="744.87 2507.46 732.87 2436.96 594.85 2529.96 595.62 2592.96 744.87 2507.46"/>
    <polygon id="s4" class="cls-1" points="726.87 1814.46 755.37 1817.46 755.37 1998.96 726.87 1967.46 726.87 1814.46"/>
    <polygon id="s25" class="cls-1" points="595.62 2593.55 446.37 2507.46 435.87 2547.96 594.87 2639.46 595.62 2593.55"/>
    <polygon id="_17" data-name="17" class="cls-2" points="1008.87 2469.84 1008.87 2350.32 905.37 2290.57 801.87 2350.32 801.87 2469.84 905.37 2529.59 1008.87 2469.84"/>
    <polygon id="_3" data-name="3" class="cls-2" points="432.87 1446.31 432.87 1260.12 271.62 1167.02 110.37 1260.12 110.37 1446.31 271.62 1539.41 432.87 1446.31"/>
    <polygon id="s34" class="cls-1" points="1145.37 1736.46 1083.87 1743.96 1068.87 1751.46 1068.87 1781.46 1145.37 1736.46"/>
    <polygon id="_4" data-name="4" class="cls-2" points="1145.37 1736.95 1145.37 1578.47 1008.12 1499.23 870.87 1578.47 870.87 1736.95 1008.12 1816.2 1145.37 1736.95"/>
    <polygon id="s107" class="cls-1" points="1068.87 3096.96 875.37 2837.46 780.87 2892.96 911.37 3188.46 1068.87 3096.96"/>
    <polygon id="s106" class="cls-1" points="752.37 3096.96 911.37 3188.46 809.37 2948.46 726.87 2885.46 726.87 2885.46 752.37 3096.96"/>
    <polygon id="s21" class="cls-1" points="780.87 2402.46 689.37 2456.46 752.37 2913.96 911.37 2822.46 780.87 2402.46"/>
    <polygon id="s30" class="cls-1" points="689.37 2456.46 689.37 2567.46 752.37 3095.46 752.37 2913.96 689.37 2456.46"/>
    <polygon id="s22" class="cls-1" points="689.37 2456.46 596.37 2405.46 595.62 2655.16 726.87 2730.94 689.37 2456.46"/>
    <polygon id="_24" data-name="24" class="cls-2" points="1068.87 3096.08 1068.87 2913.35 910.62 2821.98 752.37 2913.35 752.37 3096.08 910.62 3187.45 1068.87 3096.08"/>
    <polygon id="s31" class="cls-1" points="327.87 2510.46 314.37 2547.96 173.37 2466.96 194.37 2433.96 327.87 2510.46"/>
    <polygon id="s102" class="cls-1" points="30.87 2712.96 225.87 2673.96 225.87 2763.96 171.87 2795.46 30.87 2712.96"/>
    <polygon id="s64" class="cls-1" points="173.37 2795.46 314.37 2711.46 327.87 2660.46 225.87 2711.46 173.37 2795.46"/>
    <polygon id="s65" class="cls-1" points="327.87 2510.46 327.87 2660.82 314.37 2711.46 314.37 2547.96 327.87 2510.46"/>
    <polygon id="_21" data-name="21" class="cls-2" points="314.37 2713.05 314.37 2549.37 172.62 2467.53 30.87 2549.37 30.87 2713.05 172.62 2794.89 314.37 2713.05"/>
    <polygon id="s47" class="cls-1" points="755.37 1998.96 911.37 2088.96 858.87 2036.46 726.87 1967.46 755.37 1998.96"/>
    <polygon id="s46" class="cls-1" points="1068.87 1998.96 911.37 2088.96 911.37 2088.96 780.87 1974.96 875.37 1920.96 1068.87 1998.96"/>
    <polygon id="s44" class="cls-1" points="266.37 2102.46 345.87 2022.96 464.37 1965.96 429.87 2007.96 266.37 2102.46"/>
    <polygon id="s5" class="cls-1" points="464.37 1965.96 429.87 2007.96 429.87 1817.46 464.37 1815.96 464.37 1965.96"/>
    <polygon id="s37" class="cls-1" points="192.87 3168.96 231.87 3086.46 353.37 2934.96 327.87 3009.96 192.87 3168.96"/>
    <polygon id="s108" class="cls-1" points="327.87 3273.96 374.37 3134.46 482.37 3066.96 461.37 3195.96 327.87 3273.96"/>
    <polygon id="_29" data-name="29" class="cls-2" points="461.37 3323.72 461.37 3168.7 327.12 3091.2 192.87 3168.7 192.87 3323.72 327.12 3401.23 461.37 3323.72"/>
    <polygon id="s38" class="cls-1" points="464.37 2826.96 347.37 2888.46 225.87 3035.46 410.37 2931.96 464.37 2826.96"/>
    <polygon id="s105" class="cls-1" points="689.37 2865.96 593.37 2921.46 594.87 2958.96 726.87 2885.46 689.37 2865.96"/>
    <polygon id="_22" data-name="22" class="cls-2" points="726.87 2882.49 726.87 2730.94 595.62 2655.16 464.37 2730.94 464.37 2882.49 595.62 2958.27 726.87 2882.49"/>
    <polygon id="s103" class="cls-1" points="461.37 3041.46 461.37 3195.96 477.87 3063.96 477.87 2916.96 461.37 3041.46"/>
    <polygon id="s101" class="cls-1" points="278.37 2822.46 354.12 2668.71 471.87 2727.96 435.87 2913.96 278.37 2822.46"/>
    <polygon id="_20" data-name="20" class="cls-2" points="594.85 2822.46 594.85 2639.46 436.37 2547.96 277.89 2639.46 277.89 2822.46 436.37 2913.96 594.85 2822.46"/>
    <polygon id="s99" class="cls-1" points="341.37 1595.46 272.37 1539.96 110.37 1446.96 213.87 1521.96 341.37 1595.46"/>
    <polygon id="s104" class="cls-1" points="410.37 3356.46 477.87 3161.46 594.87 3093.96 593.37 3249.96 410.37 3356.46"/>
    <polygon id="_30" data-name="30" class="cls-2" points="593.37 3248.8 593.37 3036.63 409.62 2930.54 225.87 3036.63 225.87 3248.8 409.62 3354.89 593.37 3248.8"/>
    <polygon id="s24" class="cls-1" points="461.37 2433.96 327.87 2510.46 278.37 2639.46 435.87 2547.96 461.37 2433.96"/>
    <polygon id="s42" class="cls-1" points="822.87 2144.46 793.62 2100.3 894.87 2159.46 936.87 2210.46 822.87 2144.46"/>
    <polygon id="_1" data-name="1" class="cls-2" points="594.53 1050.96 141.19 789.23 141.87 264.96 594.87 2.46 1047.87 264.96 1047.87 789.23 594.53 1050.96"/>
    <polygon id="_13" data-name="13" class="cls-2" points="596.37 2177.38 596.37 2032.75 471.12 1960.44 345.87 2032.75 345.87 2177.38 471.12 2249.69 596.37 2177.38"/>
    <polygon id="_12" data-name="12" class="cls-2" points="726.87 1968.19 726.87 1816.63 595.62 1740.86 464.37 1816.63 464.37 1968.19 595.62 2043.96 726.87 1968.19"/>
    <polygon id="_11" data-name="11" class="cls-2" points="859.37 2197.54 859.37 2045.7 727.87 1969.78 596.37 2045.7 596.37 2197.54 727.87 2273.46 859.37 2197.54"/>
    <polygon id="s95" class="cls-1" points="476.37 4341.96 470.37 4394.46 345.87 4466.46 357.87 4409.46 476.37 4341.96"/>
    <polygon id="_45" data-name="45" class="cls-2" points="476.37 4341.7 476.37 4205.73 358.62 4137.75 240.87 4205.73 240.87 4341.7 358.62 4409.68 476.37 4341.7"/>
    <polygon id="xx05" class="cls-1" points="330.87 3909.96 347.37 3858.96 471.87 3930.96 462.87 3986.46 330.87 3909.96"/>
    <polygon id="xx01" class="cls-1" points="726.87 4515.96 689.37 4469.46 594.87 4523.46 594.87 4591.54 726.87 4515.96"/>
    <polygon id="xx02" class="cls-1" points="726.87 4367.46 719.37 4350.96 596.37 4278.96 597.87 4292.73 726.87 4367.46"/>
    <polygon id="xx03" class="cls-1" points="720.87 4065.96 711.87 4037.46 830.37 4106.46 843.87 4137.96 720.87 4065.96"/>
    <polygon id="xx04" class="cls-1" points="711.87 4035.96 720.87 4065.96 596.37 4137.96 596.37 4101.96 711.87 4035.96"/>
    <polygon id="xxx07" class="cls-1" points="803.37 3728.46 830.37 3813.96 714.87 3881.46 698.37 3789.96 803.37 3728.46"/>
    <polygon id="xxx06" class="cls-1" points="596.37 3728.46 596.37 3800.46 711.87 3866.46 698.37 3789.96 596.37 3728.46"/>
    <polygon id="yy1" class="cls-1" points="501.87 3516.96 413.37 3570.96 348.87 3722.46 467.12 3654.21 501.87 3516.96"/>
    <polygon id="yy2" class="cls-1" points="230.37 3728.46 315.87 3519.96 413.37 3570.96 348.87 3797.46 230.37 3728.46"/>
    <polygon id="yy3" class="cls-1" points="108.87 3797.46 224.37 3570.96 315.87 3519.96 230.37 3728.46 108.87 3797.46"/>
    <polygon id="yy4" class="cls-1" points="356.37 3834.96 330.87 3918.96 197.37 3995.46 230.37 3909.96 356.37 3834.96"/>
    <polygon id="yy5" class="cls-1" points="315.87 3842.46 224.37 3894.96 86.37 4172.46 213.87 4098.96 315.87 3842.46"/>
    <polygon id="_7" data-name="7" class="cls-2" points="1068.87 1998.27 1068.87 1816.88 911.78 1726.19 754.69 1816.88 754.69 1998.27 911.78 2088.96 1068.87 1998.27"/>
    <polygon id="_18" data-name="18" class="cls-2" points="429.87 2007.66 429.87 1818 265.62 1723.17 101.37 1818 101.37 2007.66 265.62 2102.49 429.87 2007.66"/>
    <polygon id="_16" data-name="16" class="cls-2" points="744.87 2507.38 744.87 2335.04 595.62 2248.88 446.37 2335.04 446.37 2507.38 595.62 2593.55 744.87 2507.38"/>
    <polygon id="s51" class="cls-1" points="593.37 3035.46 408.87 2928.96 464.37 2825.46 596.37 2901.96 593.37 3035.46"/>
    <polygon id="c1" class="cls-3" points="597.15 5510.46 210.19 5287.05 210.77 4839.55 597.44 4615.48 984.12 4839.55 984.12 5287.05 597.15 5510.46"/>
    <polygon id="k01" class="cls-1" points="597.87 4407.96 597.87 4614.96 984.87 4839.96 831.87 4415.46 713.37 4340.46 597.87 4407.96"/>
    <polygon id="k02" class="cls-1" points="482.37 4340.46 327.87 4557.96 210.87 4839.96 597.87 4614.96 597.87 4407.96 482.37 4340.46"/>
  </g>
</svg>
