<svg xmlns="http://www.w3.org/2000/svg" width="1200" height="5600" viewBox="0 0 1200 5600">
  <defs>
    <style>
      .cls-1 {
        fill: #f2f2f2;
      }

      .cls-1, .cls-2, .cls-3 {
        stroke: #000;
        stroke-miterlimit: 10;
      }

      .cls-2, .cls-3 {
        fill: #fff;
      }

      .cls-3 {
        stroke-width: 2px;
      }
    </style>
  </defs>
  <title>aartics_polygons_vertical</title>
  <g id="_02stage" data-name="02stage">
    <polygon id="s63" class="cls-1" points="877.73 2975.6 967.73 3026.6 1009.73 3077.6 907.73 3017.6 877.73 2975.6"/>
    <polygon id="_25" data-name="25" class="cls-2" points="1010.35 3196.11 1010.35 3077.1 907.29 3017.6 804.23 3077.1 804.23 3196.11 907.29 3255.61 1010.35 3196.11"/>
    <polygon id="s41" class="cls-1" points="781.73 2728.1 688.73 2782.1 711.23 2941.1 829.73 2873.6 781.73 2728.1"/>
    <polygon id="s40" class="cls-1" points="595.73 2867.6 711.23 2935.1 688.73 2782.1 595.73 2726.6 595.73 2867.6"/>
    <polygon id="s88" class="cls-1" points="727.73 4229.6 727.73 4078.1 757.73 4238.6 757.73 4420.1 727.73 4229.6"/>
    <polygon id="s52" class="cls-1" points="781.73 2728.1 874.73 2782.1 946.73 2941.1 829.73 2873.6 781.73 2728.1"/>
    <polygon id="s60" class="cls-1" points="475.73 3352.1 486.23 3289.1 378.23 3227.6 357.23 3284.6 475.73 3352.1"/>
    <polygon id="s62" class="cls-1" points="214.72 2999.6 315.23 2974.1 214.72 3113.6 87.22 3187.1 214.72 2999.6"/>
    <polygon id="s59" class="cls-1" points="594.23 3361.1 462.23 3437.6 486.23 3289.1 593.88 3227.6 594.23 3361.1"/>
    <polygon id="s61" class="cls-1" points="378.23 3103.1 378.23 3227.6 357.88 3284.57 340.73 3332.6 340.73 3187.1 378.23 3103.1"/>
    <polygon id="s57" class="cls-1" points="804.23 3196.1 907.73 3256.1 1069.72 3601.1 912.23 3511.1 804.23 3196.1"/>
    <polygon id="s56" class="cls-1" points="718.73 3388.1 843.23 3315.98 912.23 3511.1 754.73 3601.1 718.73 3388.1"/>
    <polygon id="s94" class="cls-1" points="319.73 3949.1 228.22 4001.6 112.72 4220.6 232.72 4151.6 319.73 3949.1"/>
    <polygon id="_42" data-name="42" class="cls-2" points="354.23 4360.06 354.23 4220.63 233.47 4150.92 112.72 4220.63 112.72 4360.06 233.47 4429.78 354.23 4360.06"/>
    <polygon id="_50" data-name="50" class="cls-2" points="949.73 4450.26 949.73 4315.15 832.72 4247.6 715.71 4315.15 715.71 4450.26 832.72 4517.81 949.73 4450.26"/>
    <polygon id="_49" data-name="49" class="cls-2" points="714.23 4437.28 714.23 4303.91 598.73 4237.23 483.23 4303.91 483.23 4437.28 598.73 4503.97 714.23 4437.28"/>
    <polygon id="_48" data-name="48" class="cls-2" points="463.73 4576.36 463.73 4421.34 329.48 4343.83 195.22 4421.34 195.22 4576.36 329.48 4653.86 463.73 4576.36"/>
    <polygon id="_51" data-name="51" class="cls-2" points="1090.72 4284.43 1090.72 4143.27 968.48 4072.68 846.23 4143.27 846.23 4284.43 968.48 4355.01 1090.72 4284.43"/>
    <polygon id="s87" class="cls-1" points="690.23 3941.6 783.23 4001.6 915.23 4510.1 757.73 4420.1 690.23 3941.6"/>
    <polygon id="s90" class="cls-1" points="783.23 4109.6 832.73 4247.6 715.73 4315.1 690.23 4165.1 783.23 4109.6"/>
    <polygon id="s92" class="cls-1" points="844.73 3965.6 915.23 4148.6 1071.22 4241.6 976.73 4043.6 844.73 3965.6"/>
    <polygon id="s91" class="cls-1" points="721.73 4028.6 757.73 4238.6 913.73 4148.6 844.73 3956.6 721.73 4028.6"/>
    <polygon id="s89" class="cls-1" points="690.23 4165.1 714.23 4304.6 598.73 4237.1 597.23 4109.6 690.23 4165.1"/>
    <polygon id="s85" class="cls-1" points="234.22 4339.1 195.22 4421.6 330.23 4343.6 354.23 4270.1 234.22 4339.1"/>
    <polygon id="s84" class="cls-1" points="343.73 3976.1 358.73 3928.1 241.72 3995.6 216.22 4049.6 343.73 3976.1"/>
    <polygon id="s82" class="cls-1" points="463.73 3928.1 483.23 3794.6 379.73 3874.1 331.73 4007.6 463.73 3928.1"/>
    <polygon id="s80" class="cls-1" points="483.23 3640.1 597.92 3706.1 598.73 3695.6 492.23 3635.6 483.23 3640.1"/>
    <polygon id="s79" class="cls-1" points="463.73 3776.6 483.23 3656.6 483.23 3790.1 463.73 3931.1 463.73 3776.6"/>
    <polygon id="s78" class="cls-1" points="597.23 3530.6 597.23 3511.1 483.23 3577.1 472.73 3602.6 597.23 3530.6"/>
    <polygon id="s77" class="cls-1" points="109.72 3718.1 229.72 3787.1 316.73 3709.1 223.72 3659.6 109.72 3718.1"/>
    <polygon id="s76" class="cls-1" points="946.73 3713.6 876.23 3626.6 783.23 3680.6 831.23 3781.1 946.73 3713.6"/>
    <polygon id="s75" class="cls-1" points="1089.22 3637.1 967.73 3577.1 876.23 3631.1 967.73 3707.6 1089.22 3637.1"/>
    <polygon id="s73" class="cls-1" points="844.73 3617.6 804.23 3596.6 804.23 3713.6 844.73 3758.6 844.73 3617.6"/>
    <polygon id="s70" class="cls-1" points="726.23 3316.1 690.23 3298.1 597.23 3353.6 594.23 3392.6 726.23 3316.1"/>
    <polygon id="s68" class="cls-1" points="712.73 3661.1 715.73 3665.6 715.73 3797.6 712.73 3794.6 712.73 3661.1"/>
    <polygon id="s66" class="cls-1" points="471.23 4367.6 463.73 4421.6 330.23 4343.6 346.73 4295.6 471.23 4367.6"/>
    <polygon id="s67" class="cls-1" points="483.23 4436.6 463.73 4576.1 463.73 4439.6 483.23 4304.6 483.23 4436.6"/>
    <polygon id="s97" class="cls-1" points="379.73 3874.1 360.23 3928.1 477.23 3995.6 487.73 3934.1 379.73 3874.1"/>
    <polygon id="s93" class="cls-1" points="358.73 4199.6 354.23 4220.6 232.72 4151.6 241.72 4131.83 358.73 4199.6"/>
    <polygon id="s58" class="cls-1" points="718.73 3388.1 726.23 3437.6 594.23 3361.1 594.23 3315.98 718.73 3388.1"/>
    <polygon id="s35" class="cls-1" points="711.23 3056.6 718.73 3121.1 594.23 3193.1 594.23 3124.1 711.23 3056.6"/>
    <polygon id="s36" class="cls-1" points="711.23 3068.6 829.73 3136.1 843.23 3193.1 718.73 3121.1 711.23 3068.6"/>
    <polygon id="s83" class="cls-1" points="343.73 3827.6 379.73 3754.1 379.73 3874.1 343.73 3974.6 343.73 3827.6"/>
    <polygon id="_39" data-name="39" class="cls-2" points="712.73 3789.81 712.73 3657.24 597.92 3590.96 483.11 3657.24 483.11 3789.81 597.92 3856.1 712.73 3789.81"/>
    <polygon id="_37" data-name="37" class="cls-2" points="946.73 3804.28 946.73 3670.91 831.23 3604.23 715.73 3670.91 715.73 3804.28 831.23 3870.97 946.73 3804.28"/>
    <polygon id="_36" data-name="36" class="cls-2" points="844.73 4069.61 844.73 3927.58 721.73 3856.57 598.73 3927.58 598.73 4069.61 721.73 4140.63 844.73 4069.61"/>
    <polygon id="s86" class="cls-1" points="726.23 4079.6 756.23 4238.6 756.23 4420.1 726.23 4231.1 726.23 4079.6"/>
    <polygon id="_44" data-name="44" class="cls-2" points="1069.72 4419.85 1069.72 4238.85 912.98 4148.35 756.23 4238.85 756.23 4419.85 912.98 4510.35 1069.72 4419.85"/>
    <polygon id="_43" data-name="43" class="cls-2" points="594.23 4400.48 594.23 4256.72 469.73 4184.84 345.23 4256.72 345.23 4400.48 469.73 4472.36 594.23 4400.48"/>
    <polygon id="s96" class="cls-1" points="463.03 4078.1 485.53 3934.1 595.73 3874.1 595.03 4001.6 463.03 4078.1"/>
    <polygon id="_46" data-name="46" class="cls-2" points="726.23 4229.39 726.23 4077.84 594.98 4002.06 463.73 4077.84 463.73 4229.39 594.98 4305.17 726.23 4229.39"/>
    <polygon id="_47" data-name="47" class="cls-2" points="342.23 3974.71 342.23 3827.49 214.72 3753.87 87.22 3827.49 87.22 3974.71 214.72 4048.32 342.23 3974.71"/>
    <polygon id="s81" class="cls-1" points="196.72 3904.1 214.72 3901.1 342.23 3974.6 328.73 3980.6 196.72 3904.1"/>
    <polygon id="_26" data-name="26" class="cls-2" points="711.23 3068.85 711.23 2934.61 594.98 2867.5 478.73 2934.61 478.73 3068.85 594.98 3135.97 711.23 3068.85"/>
    <polygon id="_27" data-name="27" class="cls-2" points="946.73 3077.33 946.73 2941.36 828.98 2873.38 711.23 2941.36 711.23 3077.33 828.98 3145.31 946.73 3077.33"/>
    <polygon id="_28" data-name="28" class="cls-2" points="843.23 3315.98 843.23 3172.22 718.73 3100.34 594.23 3172.22 594.23 3315.98 718.73 3387.86 843.23 3315.98"/>
    <polygon id="_33" data-name="33" class="cls-2" points="475.64 3488.47 475.64 3352.55 357.93 3284.6 240.22 3352.55 240.22 3488.47 357.93 3556.43 475.64 3488.47"/>
    <polygon id="_32" data-name="32" class="cls-2" points="351.23 3718.06 351.23 3578.63 230.47 3508.92 109.72 3578.63 109.72 3718.06 230.47 3787.78 351.23 3718.06"/>
    <polygon id="_41" data-name="41" class="cls-2" points="597.23 3648.98 597.23 3505.22 472.73 3433.34 348.23 3505.22 348.23 3648.98 472.73 3720.86 597.23 3648.98"/>
    <polygon id="s74" class="cls-1" points="843.23 3661.1 829.73 3649.1 945.23 3713.6 966.23 3731.6 843.23 3661.1"/>
    <polygon id="_38" data-name="38" class="cls-2" points="1089.22 3772.16 1089.22 3631.28 967.22 3560.84 845.21 3631.28 845.21 3772.16 967.22 3842.6 1089.22 3772.16"/>
    <polygon id="_40" data-name="40" class="cls-2" points="463.73 3930.49 463.73 3777.2 330.98 3700.56 198.22 3777.2 198.22 3930.49 330.98 4007.13 463.73 3930.49"/>
    <polygon id="s71" class="cls-1" points="460.73 3584.6 502.73 3568.1 592.73 3623.6 592.73 3662.6 460.73 3584.6"/>
    <polygon id="s69" class="cls-1" points="912.23 3874.1 876.23 3683.6 726.23 3589.1 754.73 3784.1 912.23 3874.1"/>
    <polygon id="_35" data-name="35" class="cls-2" points="725.53 3589.12 725.53 3437.11 593.88 3361.1 462.23 3437.11 462.23 3589.12 593.88 3665.13 725.53 3589.12"/>
    <polygon id="_34" data-name="34" class="cls-2" points="340.73 3333.03 340.73 3186.67 213.97 3113.49 87.22 3186.67 87.22 3333.03 213.97 3406.2 340.73 3333.03"/>
    <polygon id="s55" class="cls-1" points="726.23 3589.1 754.73 3784.1 754.73 3601.1 725.53 3437.11 726.23 3589.1"/>
    <polygon id="s72" class="cls-1" points="1068.22 3781.1 966.23 3766.1 843.23 3836.6 910.73 3871.1 1068.22 3781.1"/>
    <polygon id="_31" data-name="31" class="cls-2" points="1069.72 3783.53 1069.72 3601.66 912.23 3510.73 754.73 3601.66 754.73 3783.53 912.23 3874.46 1069.72 3783.53"/>
    <polygon id="s110" class="cls-1" points="876.23 2135.6 874.73 2242.1 897.23 2245.1 897.23 2131.1 876.23 2135.6"/>
    <polygon id="s1" class="cls-1" points="951.23 1298.6 951.23 1436.6 900.23 1546.1 898.73 1432.1 951.23 1298.6"/>
    <polygon id="_2" data-name="2" class="cls-2" points="1188.22 1436.01 1188.22 1299.18 1069.72 1230.77 951.23 1299.18 951.23 1436.01 1069.72 1504.43 1188.22 1436.01"/>
    <polygon id="s33" class="cls-1" points="1048.72 788.6 595.73 1051.1 597.23 1478.6 721.73 1406.6 1048.72 788.6"/>
    <polygon id="s32" class="cls-1" points="142.72 790.1 487.73 1499.6 596.89 1561.1 595.73 1051.1 142.72 790.1"/>
    <polygon id="s3" class="cls-1" points="433.73 1162.1 273.23 1255.1 378.23 1561.1 487.73 1499.6 433.73 1162.1"/>
    <polygon id="s20" class="cls-1" points="910.73 2554.1 805.73 2431.1 906.23 2489.6 1069.72 2645.6 910.73 2554.1"/>
    <polygon id="s23" class="cls-1" points="597.23 2405.6 502.73 2458.1 465.23 2569.1 595.73 2492.6 597.23 2405.6"/>
    <polygon id="s50" class="cls-1" points="595.73 2552.6 595.73 2492.6 465.23 2569.1 436.73 2644.1 595.73 2552.6"/>
    <polygon id="s19" class="cls-1" points="844.73 1480.1 844.73 1616.6 871.73 1556.6 871.73 1399.1 844.73 1480.1"/>
    <polygon id="s18" class="cls-1" points="912.23 1459.1 844.73 1622.6 721.73 1694.6 756.23 1550.6 912.23 1459.1"/>
    <polygon id="s17" class="cls-1" points="597.23 1759.1 595.73 1583.6 727.73 1658.6 687.23 1811.6 597.23 1759.1"/>
    <polygon id="s16" class="cls-1" points="597.23 1759.1 505.73 1813.1 465.23 1658.6 595.73 1583.6 597.23 1759.1"/>
    <polygon id="s15" class="cls-1" points="379.73 1688.6 379.73 1561.1 342.23 1457.6 342.23 1600.1 379.73 1688.6"/>
    <polygon id="s14" class="cls-1" points="430.73 1522.1 505.73 1813.1 409.73 1759.1 268.73 1427.6 430.73 1522.1"/>
    <polygon id="s11" class="cls-1" points="462.23 2114.6 462.23 2114.6 328.73 2036.6 346.73 2050.1 462.23 2114.6"/>
    <polygon id="s10" class="cls-1" points="195.22 2114.6 232.72 2117.6 352.73 2050.1 328.73 2036.6 195.22 2114.6"/>
    <polygon id="s9" class="cls-1" points="874.73 2242.1 906.23 2249.6 1009.73 2309.6 964.73 2299.1 874.73 2242.1"/>
    <polygon id="s8" class="cls-1" points="874.73 2242.1 783.23 2296.1 802.73 2309.6 906.23 2249.6 874.73 2242.1"/>
    <polygon id="s7" class="cls-1" points="783.23 2299.1 781.73 2402.6 802.73 2426.6 802.73 2309.6 783.23 2299.1"/>
    <polygon id="_9" data-name="9" class="cls-2" points="1080.56 2247.64 1080.56 2135.74 983.64 2079.78 886.73 2135.74 886.73 2247.64 983.64 2303.6 1080.56 2247.64"/>
    <polygon id="s48" class="cls-1" points="690.23 2245.1 694.73 2246.6 796.73 2305.1 781.73 2296.1 690.23 2245.1"/>
    <polygon id="s54" class="cls-1" points="1051.72 2059.1 984.23 2080.1 886.73 2135.6 939.23 2123.6 1051.72 2059.1"/>
    <polygon id="_10" data-name="10" class="cls-2" points="897.23 2247.3 897.23 2130.39 795.98 2071.93 694.73 2130.39 694.73 2247.3 795.98 2305.76 897.23 2247.3"/>
    <polygon id="s6" class="cls-1" points="729.23 2108.6 745.73 2101.1 597.23 2015.6 597.23 2032.1 729.23 2108.6"/>
    <polygon id="_5" data-name="5" class="cls-2" points="342.23 1604.83 342.23 1457.6 214.72 1383.99 87.22 1457.6 87.22 1604.83 214.72 1678.44 342.23 1604.83"/>
    <polygon id="s43" class="cls-1" points="102.22 1712.6 232.72 1840.1 346.73 1905.67 267.23 1807.1 102.22 1712.6"/>
    <polygon id="s53" class="cls-1" points="111.22 2048.6 232.72 2117.6 315.23 2135.6 223.72 2086.1 111.22 2048.6"/>
    <polygon id="_14" data-name="14" class="cls-2" points="352.73 2048.6 352.73 1909.13 231.97 1839.42 111.22 1909.13 111.22 2048.56 231.97 2118.28 352.73 2048.6"/>
    <polygon id="s29" class="cls-1" points="315.23 2565.35 232.72 2680.1 111.22 2750.6 223.72 2617.1 315.23 2565.35"/>
    <polygon id="s104" class="cls-1" points="411.23 3353.6 478.73 3158.6 595.73 3091.1 594.23 3247.1 411.23 3353.6"/>
    <polygon id="_23" data-name="23" class="cls-2" points="353.74 2890.12 353.74 2750.1 232.48 2680.1 111.22 2750.1 111.22 2890.12 232.48 2960.13 353.74 2890.12"/>
    <polygon id="s27" class="cls-1" points="411.23 2618.6 411.23 2725.1 354.23 2890.1 354.23 2750.6 411.23 2618.6"/>
    <polygon id="s28" class="cls-1" points="315.23 2564.6 411.23 2618.6 354.23 2750.6 232.72 2680.1 315.23 2564.6"/>
    <polygon id="_19" data-name="19" class="cls-2" points="472.04 2691.14 472.04 2547.78 347.88 2476.1 223.72 2547.78 223.72 2691.14 347.88 2762.82 472.04 2691.14"/>
    <polygon id="s26" class="cls-1" points="31.73 2353.1 223.72 2296.1 315.23 2243.6 174.22 2270.6 31.73 2353.1"/>
    <polygon id="_15" data-name="15" class="cls-2" points="462.23 2268.49 462.23 2114.28 328.68 2037.18 195.13 2114.28 195.13 2268.49 328.68 2345.6 462.23 2268.49"/>
    <polygon id="s12" class="cls-1" points="597.23 2045.6 597.23 2015.6 447.23 2101.1 471.23 2117.6 597.23 2045.6"/>
    <polygon id="s42" class="cls-1" points="825.23 2059.1 795.98 2071.93 897.23 2131.1 939.23 2125.1 825.23 2059.1"/>
    <polygon id="_8" data-name="8" class="cls-2" points="1053.22 2058.91 1053.22 1927.28 939.23 1861.46 825.23 1927.28 825.23 2058.91 939.23 2124.73 1053.22 2058.91"/>
    <polygon id="s2" class="cls-1" points="871.73 1399.1 1009.73 1319.6 876.23 1598.6 783.23 1651.1 871.73 1399.1"/>
    <polygon id="_6" data-name="6" class="cls-2" points="845.03 1622.7 845.03 1479.63 721.13 1408.1 597.23 1479.63 597.23 1622.7 721.13 1694.24 845.03 1622.7"/>
    <polygon id="s45" class="cls-1" points="463.73 1805.6 472.73 1828.1 597.23 1900.88 596.48 1883.6 463.73 1805.6"/>
    <polygon id="s100" class="cls-1" points="859.73 2035.1 729.23 2111.6 694.73 2131.1 796.73 2072.6 859.73 2035.1"/>
    <polygon id="s49" class="cls-1" points="745.73 2278.1 733.73 2279.6 595.71 2353.1 596.48 2359.1 745.73 2278.1"/>
    <polygon id="s4" class="cls-1" points="727.73 1658.6 754.73 1555.1 756.23 1732.1 729.23 1808.6 727.73 1658.6"/>
    <polygon id="s25" class="cls-1" points="597.23 2359.1 447.23 2273.6 436.73 2278.1 595.73 2369.6 597.23 2359.1"/>
    <polygon id="_17" data-name="17" class="cls-2" points="1009.73 2429.47 1009.73 2309.96 906.23 2250.2 802.73 2309.96 802.73 2429.47 906.23 2489.22 1009.73 2429.47"/>
    <polygon id="s34" class="cls-1" points="1146.22 1556.6 1084.72 1627.1 1069.72 1636.33 1069.72 1601.26 1146.22 1556.6"/>
    <polygon id="_3" data-name="3" class="cls-2" points="433.73 1161.44 433.73 975.25 272.48 882.15 111.22 975.25 111.22 1161.44 272.48 1254.54 433.73 1161.44"/>
    <polygon id="_4" data-name="4" class="cls-2" points="1146.22 1557.09 1146.22 1398.61 1008.98 1319.36 871.73 1398.61 871.73 1557.09 1008.98 1636.33 1146.22 1557.09"/>
    <polygon id="s107" class="cls-1" points="1069.72 2827.1 876.23 2567.6 781.73 2623.1 912.23 2918.6 1069.72 2827.1"/>
    <polygon id="s106" class="cls-1" points="753.23 2827.1 912.23 2918.6 781.73 2612.6 690.23 2561.6 727.99 2720.6 753.23 2827.1"/>
    <polygon id="s21" class="cls-1" points="781.73 2402.6 690.23 2456.6 753.23 2645.6 910.73 2554.1 781.73 2402.6"/>
    <polygon id="s30" class="cls-1" points="690.23 2456.6 690.23 2567.6 753.23 2827.1 753.23 2645.6 690.23 2456.6"/>
    <polygon id="s22" class="cls-1" points="690.23 2456.6 597.23 2405.6 595.73 2492.6 727.73 2569.1 690.23 2456.6"/>
    <polygon id="_24" data-name="24" class="cls-2" points="1069.72 2827.71 1069.72 2644.98 911.48 2553.61 753.23 2644.98 753.23 2827.71 911.48 2919.08 1069.72 2827.71"/>
    <polygon id="s31" class="cls-1" points="328.73 2341.1 315.23 2353.1 174.22 2270.6 195.22 2269.1 328.73 2341.1"/>
    <polygon id="s102" class="cls-1" points="31.73 2516.6 226.72 2548.1 226.72 2569.1 172.72 2599.1 31.73 2516.6"/>
    <polygon id="_21" data-name="21" class="cls-2" points="315.23 2516.69 315.23 2353.01 173.47 2271.17 31.73 2353.01 31.73 2516.69 173.47 2598.53 315.23 2516.69"/>
    <polygon id="s64" class="cls-1" points="174.22 2599.1 315.23 2516.6 343.7 2477.6 223.72 2549.6 174.22 2599.1"/>
    <polygon id="s24" class="cls-1" points="447.23 2273.6 328.73 2345.6 279.23 2369.6 438.23 2281.1 447.23 2273.6"/>
    <polygon id="s47" class="cls-1" points="756.23 1732.1 912.23 1822.1 859.73 1883.6 727.73 1811.6 756.23 1732.1"/>
    <polygon id="s46" class="cls-1" points="1069.72 1732.1 912.23 1822.1 859.73 1883.6 860.23 1907.07 939.23 1861.1 1069.72 1732.1"/>
    <polygon id="s44" class="cls-1" points="267.23 1807.1 346.73 1901.6 472.73 1828.1 430.73 1712.6 267.23 1807.1"/>
    <polygon id="s5" class="cls-1" points="465.23 1807.1 430.73 1712.6 430.73 1522.1 465.23 1658.6 465.23 1807.1"/>
    <polygon id="s37" class="cls-1" points="193.72 3043.1 232.72 2960.6 354.23 2890.1 328.73 2965.1 193.72 3043.1"/>
    <polygon id="s108" class="cls-1" points="328.73 3275.6 340.73 3187.1 463.73 3103.1 462.23 3197.6 328.73 3275.6"/>
    <polygon id="_29" data-name="29" class="cls-2" points="462.23 3197.86 462.23 3042.84 327.98 2965.33 193.72 3042.84 193.72 3197.86 327.98 3275.36 462.23 3197.86"/>
    <polygon id="s38" class="cls-1" points="472.73 2690.6 348.23 2762.6 226.72 3035.6 411.23 2932.1 472.73 2690.6"/>
    <polygon id="s105" class="cls-1" points="690.23 2567.6 594.23 2620.1 595.73 2797.1 727.73 2723.6 690.23 2567.6"/>
    <polygon id="_22" data-name="22" class="cls-2" points="727.73 2720.62 727.73 2569.07 596.48 2493.29 465.23 2569.07 465.23 2720.62 596.48 2796.4 727.73 2720.62"/>
    <polygon id="s103" class="cls-1" points="462.23 3043.1 462.23 3197.6 478.73 3065.6 478.73 2918.6 462.23 3043.1"/>
    <polygon id="s65" class="cls-1" points="328.73 2341.1 328.73 2497.1 315.23 2515.1 315.23 2351.6 328.73 2341.1"/>
    <polygon id="s101" class="cls-1" points="279.23 2552.6 348.23 2476.1 472.73 2548.1 436.73 2644.1 279.23 2552.6"/>
    <polygon id="s99" class="cls-1" points="342.23 1457.6 273.23 1255.1 111.22 1162.1 214.72 1384.1 342.23 1457.6"/>
    <polygon id="_20" data-name="20" class="cls-2" points="595.71 2552.6 595.71 2369.6 437.23 2278.1 278.75 2369.6 278.75 2552.6 437.23 2644.1 595.71 2552.6"/>
    <polygon id="_30" data-name="30" class="cls-2" points="594.23 3247.43 594.23 3035.26 410.48 2929.17 226.72 3035.26 226.72 3247.43 410.48 3353.52 594.23 3247.43"/>
    <polygon id="s98" class="cls-1" points="433.73 974.6 487.73 1384.1 487.73 1499.6 433.73 1162.1 433.73 974.6"/>
    <polygon id="_1" data-name="1" class="cls-3" points="595.39 1051.1 142.05 789.36 142.72 265.1 595.73 2.6 1048.72 265.1 1048.72 789.36 595.39 1051.1"/>
    <polygon id="_13" data-name="13" class="cls-2" points="597.23 2045.51 597.23 1900.88 471.98 1828.57 346.73 1900.88 346.73 2045.51 471.98 2117.82 597.23 2045.51"/>
    <polygon id="_12" data-name="12" class="cls-2" points="727.73 1807.82 727.73 1656.27 596.48 1580.49 465.23 1656.27 465.23 1807.82 596.48 1883.6 727.73 1807.82"/>
    <polygon id="_11" data-name="11" class="cls-2" points="860.23 2032.67 860.23 1880.83 728.73 1804.91 597.23 1880.83 597.23 2032.67 728.73 2108.6 860.23 2032.67"/>
    <polygon id="s95" class="cls-1" points="477.23 4132.1 471.23 4184.6 346.73 4256.6 358.73 4199.6 477.23 4132.1"/>
    <polygon id="_45" data-name="45" class="cls-2" points="477.23 4131.83 477.23 3995.86 359.48 3927.88 241.72 3995.86 241.72 4131.83 359.48 4199.81 477.23 4131.83"/>
    <polygon id="xx05" class="cls-1" points="331.73 3700.1 348.23 3649.1 472.73 3721.1 463.73 3776.6 331.73 3700.1"/>
    <polygon id="xx01" class="cls-1" points="727.73 4304.6 690.23 4258.1 595.73 4312.1 595.73 4380.17 727.73 4304.6"/>
    <polygon id="xx02" class="cls-1" points="727.73 4156.1 720.23 4139.6 597.23 4067.6 598.73 4081.36 727.73 4156.1"/>
    <polygon id="xx03" class="cls-1" points="721.73 3854.6 712.73 3826.1 831.23 3895.1 844.73 3926.6 721.73 3854.6"/>
    <polygon id="xx04" class="cls-1" points="712.73 3824.6 721.73 3854.6 597.23 3926.6 597.23 3890.6 712.73 3824.6"/>
    <polygon id="xxx07" class="cls-1" points="804.23 3518.6 831.23 3604.1 715.73 3671.6 699.23 3580.1 804.23 3518.6"/>
    <polygon id="xxx06" class="cls-1" points="597.23 3518.6 597.23 3590.6 712.73 3656.6 699.23 3580.1 597.23 3518.6"/>
    <polygon id="yy1" class="cls-1" points="502.73 3307.1 414.23 3361.1 349.73 3512.6 467.98 3444.35 502.73 3307.1"/>
    <polygon id="yy2" class="cls-1" points="231.22 3518.6 316.73 3310.1 414.23 3361.1 349.73 3587.6 231.22 3518.6"/>
    <polygon id="yy3" class="cls-1" points="109.72 3587.6 225.22 3361.1 316.73 3310.1 231.22 3518.6 109.72 3587.6"/>
    <polygon id="yy4" class="cls-1" points="357.23 3625.1 331.73 3709.1 198.22 3785.6 231.22 3700.1 357.23 3625.1"/>
    <polygon id="yy5" class="cls-1" points="316.73 3632.6 225.22 3685.1 87.22 3962.6 214.72 3889.1 316.73 3632.6"/>
    <polygon id="_7" data-name="7" class="cls-2" points="1069.72 1731.4 1069.72 1550.01 912.64 1459.32 755.55 1550.01 755.55 1731.4 912.64 1822.1 1069.72 1731.4"/>
    <polygon id="_18" data-name="18" class="cls-2" points="430.73 1712.29 430.73 1522.63 266.48 1427.8 102.22 1522.63 102.22 1712.29 266.48 1807.12 430.73 1712.29"/>
    <polygon id="_16" data-name="16" class="cls-2" points="745.73 2279.52 745.73 2107.18 596.48 2021.01 447.23 2107.18 447.23 2279.52 596.48 2365.69 745.73 2279.52"/>
    <polygon id="s51" class="cls-1" points="594.23 3035.6 409.73 2929.1 465.23 2698.1 597.23 2774.6 594.23 3035.6"/>
    <polygon id="c1" class="cls-3" points="598.01 5510.6 211.05 5287.19 211.63 4839.68 598.3 4615.61 984.98 4839.68 984.98 5287.19 598.01 5510.6"/>
    <polygon id="k01" class="cls-1" points="598.73 4408.1 598.73 4615.1 985.73 4840.1 832.73 4415.6 714.23 4340.6 598.73 4408.1"/>
    <polygon id="k02" class="cls-1" points="483.23 4340.6 328.73 4558.1 211.72 4840.1 598.73 4615.1 598.73 4408.1 483.23 4340.6"/>
  </g>
</svg>
