<svg xmlns="http://www.w3.org/2000/svg" width="3000" height="760" viewBox="0 0 3000 760">
  <defs>
    <style>
      .cls-1 {
        fill: #f2f2f2;
      }

      .cls-1, .cls-2 {
        stroke: #000;
        stroke-miterlimit: 10;
      }

      .cls-2 {
        fill: #fff;
      }
    </style>
  </defs>
  <title>aartics_artboards_ungroupedfortest</title>
  <g id="_07stage" data-name="07stage">
    <polygon id="s41" class="cls-1" points="1367.5 240.5 1408.5 307.5 1349.5 303.5 1304.5 224.5 1367.5 240.5"/>
    <polygon id="s88" class="cls-1" points="2406.5 255.5 2334.5 255.5 2357.5 213.5 2452.5 213.5 2406.5 255.5"/>
    <polygon id="s40" class="cls-1" points="1330.5 380.5 1375.5 303.5 1434.5 310.5 1393.5 379.5 1330.5 380.5"/>
    <polygon id="s52" class="cls-1" points="1368.5 240.5 1408.5 169.5 1349.5 146.5 1304.5 224.5 1368.5 240.5"/>
    <polygon id="s60" class="cls-1" points="1671.5 460.5 1700.5 450.5 1654.5 525.5 1626.5 539.5 1671.5 460.5"/>
    <polygon id="s62" class="cls-1" points="1428.5 634.5 1656.5 566.5 1681.5 611.5 1477.5 719.5 1428.5 634.5"/>
    <polygon id="s59" class="cls-1" points="1552.5 381.5 1603.5 469.5 1667.5 450.5 1625.5 381.5 1552.5 381.5"/>
    <polygon id="s61" class="cls-1" points="1590.5 525.5 1672.5 525.5 1623.5 539.5 1574.5 550.5 1477.5 550.5 1590.5 525.5"/>
    <polygon id="s57" class="cls-1" points="1763.5 254.5 1796.5 192.5 1469.5 64.5 1409.5 169.5 1763.5 254.5"/>
    <polygon id="s56" class="cls-1" points="1796.5 316.5 1763.5 254.5 1409.5 169.5 1469.5 274.5 1796.5 316.5"/>
    <polygon id="s94" class="cls-1" points="2297.5 564.5 2332.5 625.5 2355.5 702.5 2309.5 622.5 2297.5 564.5"/>
    <polygon id="_42" data-name="42" class="cls-2" points="2448.48 541.5 2355.52 541.5 2309.05 622 2355.52 702.5 2448.48 702.5 2494.95 622 2448.48 541.5"/>
    <polygon id="_50" data-name="50" class="cls-2" points="2577.61 144.5 2487.54 144.5 2442.5 222.5 2487.54 300.51 2577.61 300.51 2622.64 222.5 2577.61 144.5"/>
    <polygon id="_49" data-name="49" class="cls-2" points="2572.96 301.5 2484.04 301.5 2439.59 378.5 2484.04 455.5 2572.96 455.5 2617.41 378.5 2572.96 301.5"/>
    <polygon id="_48" data-name="48" class="cls-2" points="2621.67 468.5 2518.33 468.5 2466.65 558 2518.33 647.5 2621.67 647.5 2673.35 558 2621.67 468.5"/>
    <polygon id="_51" data-name="51" class="cls-2" points="2452.05 50.5 2357.95 50.5 2310.89 132 2357.95 213.5 2452.05 213.5 2499.11 132 2452.05 50.5"/>
    <polygon id="s87" class="cls-1" points="2299.5 317.5 2334.5 255.5 2379.5 167.5 2319.5 272.5 2299.5 317.5"/>
    <polygon id="s90" class="cls-1" points="2406.5 255.5 2442.5 222.5 2487.5 300.5 2442.5 317.5 2406.5 255.5"/>
    <polygon id="s92" class="cls-1" points="2164.5 214.5 2138.5 168.5 2198.5 63.5 2212.5 126.5 2164.5 214.5"/>
    <polygon id="s91" class="cls-1" points="2210.5 292.5 2198.5 272.5 2138.5 168.5 2165.5 215.5 2210.5 292.5"/>
    <polygon id="s89" class="cls-1" points="2442.5 317.5 2484.04 301.5 2439.5 378.5 2406.5 379.5 2442.5 317.5"/>
    <polygon id="s85" class="cls-1" points="2494.5 621.5 2518.5 647.5 2466.5 558.5 2448.5 541.5 2494.5 621.5"/>
    <polygon id="s84" class="cls-1" points="2162.5 548.5 2171.5 537.5 2216.5 616.5 2211.5 633.5 2162.5 548.5"/>
    <polygon id="s82" class="cls-1" points="2003.5 468.5 2053.5 452.5 2093.5 524.5 2054.5 556.5 2003.5 468.5"/>
    <polygon id="s80" class="cls-1" points="2040.5 455.5 2084.5 379.04 2096.5 379.5 2054.5 452.5 2040.5 455.5"/>
    <polygon id="s79" class="cls-1" points="1901.5 468.5 1951.5 455.5 2040.5 455.5 2003.5 468.5 1901.5 468.5"/>
    <polygon id="s78" class="cls-1" points="1874.5 379.5 1907.5 379.5 1951.5 455.5 1922.34 462.5 1874.5 379.5"/>
    <polygon id="s77" class="cls-1" points="1887.5 704.5 1976.5 628.5 2012.5 566.5 1933.5 623.5 1887.5 704.5"/>
    <polygon id="s76" class="cls-1" points="2034.5 146.5 2084.5 193.5 2120.5 255.5 2079.5 223.5 2034.5 146.5"/>
    <polygon id="s75" class="cls-1" points="1880.5 51.5 1978.5 132.5 2012.5 193.5 1927.5 132.5 1880.5 51.5"/>
    <polygon id="s73" class="cls-1" points="1786.5 214.5 1864.5 241.5 1943.5 241.5 1880.5 214.5 1786.5 214.5"/>
    <polygon id="s70" class="cls-1" points="1702.5 293.5 1823.5 311.5 1865 379.04 1753.5 381.5 1702.5 293.5"/>
    <polygon id="s68" class="cls-1" points="1951.5 302.65 1946.5 300.52 2034.5 300.52 2040.5 302.65 1951.5 302.65"/>
    <polygon id="s66" class="cls-1" points="2502.5 463.5 2518.5 468.5 2466.5 558.5 2454.5 546.5 2502.5 463.5"/>
    <polygon id="s67" class="cls-1" points="2572.5 455.5 2621.5 468.5 2514.5 468.5 2484.5 455.5 2572.5 455.5"/>
    <polygon id="s97" class="cls-1" points="2179.5 524.5 2171.5 538.5 2216.5 459.5 2221.5 452.5 2179.5 524.5"/>
    <polygon id="s95" class="cls-1" points="2307.5 459.5 2312.5 466.5 2358.5 546.5 2352.5 538.5 2307.5 459.5"/>
    <polygon id="s93" class="cls-1" points="2352.5 538.5 2355.5 541.5 2309.5 622.5 2308.5 615.5 2352.5 538.5"/>
    <polygon id="s58" class="cls-1" points="1602.5 298.5 1580.5 293.5 1529.5 381.5 1554.5 381.5 1602.5 298.5"/>
    <polygon id="s35" class="cls-1" points="1447.5 303.5 1410.5 298.5 1458.5 381.5 1494.5 380.5 1447.5 303.5"/>
    <polygon id="s36" class="cls-1" points="1442.5 299.5 1485.5 225.5 1458.5 215.5 1410.5 298.5 1442.5 299.5"/>
    <polygon id="s83" class="cls-1" points="2064.5 548.5 2093.5 524.5 2179.15 524.5 2162.5 548.5 2064.5 548.5"/>
    <polygon id="_45" data-name="45" class="cls-2" points="2307.32 459.5 2216.68 459.5 2171.36 538 2216.68 616.5 2307.32 616.5 2352.64 538 2307.32 459.5"/>
    <polygon id="_39" data-name="39" class="cls-2" points="2040.31 302.5 1951.93 302.5 1907.74 379.04 1951.93 455.58 2040.31 455.58 2084.5 379.04 2040.31 302.5"/>
    <polygon id="_37" data-name="37" class="cls-2" points="2034.96 146.5 1946.04 146.5 1901.59 223.5 1946.04 300.5 2034.96 300.5 2079.41 223.5 2034.96 146.5"/>
    <polygon id="_36" data-name="36" class="cls-2" points="2164.84 214.5 2070.16 214.5 2022.82 296.5 2070.16 378.5 2164.84 378.5 2212.18 296.5 2164.84 214.5"/>
    <polygon id="s86" class="cls-1" points="2210.5 292.5 2198.5 272.5 2319.5 272.5 2311.36 292.5 2210.5 292.5"/>
    <polygon id="_44" data-name="44" class="cls-2" points="2319.33 63.5 2198.67 63.5 2138.33 168 2198.67 272.5 2319.33 272.5 2379.67 168 2319.33 63.5"/>
    <polygon id="_43" data-name="43" class="cls-2" points="2454.42 380.5 2358.58 380.5 2310.66 463.5 2358.58 546.5 2454.42 546.5 2502.34 463.5 2454.42 380.5"/>
    <polygon id="s96" class="cls-1" points="2210.5 467.5 2221.5 452.5 2181.5 379.04 2159.5 379.5 2210.5 467.5"/>
    <polygon id="_46" data-name="46" class="cls-2" points="2311.36 292.5 2210.33 292.5 2159.81 380 2210.33 467.5 2311.36 467.5 2361.88 380 2311.36 292.5"/>
    <polygon id="_47" data-name="47" class="cls-2" points="2162.57 548.5 2064.43 548.5 2015.35 633.5 2064.43 718.5 2162.57 718.5 2211.65 633.5 2162.57 548.5"/>
    <polygon id="s81" class="cls-1" points="2003.5 645.5 2015.5 633.5 2064.43 548.5 2054.5 556.5 2003.5 645.5"/>
    <polygon id="_26" data-name="26" class="cls-2" points="1463.67 303.5 1374.18 303.5 1329.43 381 1374.18 458.5 1463.67 458.5 1508.41 381 1463.67 303.5"/>
    <polygon id="_27" data-name="27" class="cls-2" points="1440.32 146.5 1349.68 146.5 1304.36 225 1349.68 303.5 1440.32 303.5 1485.64 225 1440.32 146.5"/>
    <polygon id="_28" data-name="28" class="cls-2" points="1563.42 215.5 1467.58 215.5 1419.66 298.5 1467.58 381.5 1563.42 381.5 1611.34 298.5 1563.42 215.5"/>
    <polygon id="_33" data-name="33" class="cls-2" points="1759.42 460.56 1668.81 460.56 1623.5 539.03 1668.81 617.5 1759.42 617.5 1804.72 539.03 1759.42 460.56"/>
    <polygon id="_32" data-name="32" class="cls-2" points="1887.48 543.5 1794.52 543.5 1748.05 624 1794.52 704.5 1887.48 704.5 1933.95 624 1887.48 543.5"/>
    <polygon id="_41" data-name="41" class="cls-2" points="1874.42 379.5 1778.58 379.5 1730.66 462.5 1778.58 545.5 1874.42 545.5 1922.34 462.5 1874.42 379.5"/>
    <polygon id="s74" class="cls-1" points="1880.5 214.5 1901.5 223.5 1946.04 146.5 1927.5 132.5 1880.5 214.5"/>
    <polygon id="_38" data-name="38" class="cls-2" points="1880.54 51.5 1786.62 51.5 1739.66 132.84 1786.62 214.17 1880.54 214.17 1927.5 132.84 1880.54 51.5"/>
    <polygon id="_40" data-name="40" class="cls-2" points="2003.1 468.5 1900.9 468.5 1849.81 557 1900.9 645.5 2003.1 645.5 2054.19 557 2003.1 468.5"/>
    <polygon id="s71" class="cls-1" points="1702.5 469.5 1730.5 462.5 1778.5 379.5 1753.5 381.5 1702.5 469.5"/>
    <polygon id="s69" class="cls-1" points="1651.5 169.5 1865.5 241.5 1823.5 311.5 1591.5 274.5 1651.5 169.5"/>
    <polygon id="_35" data-name="35" class="cls-2" points="1702.52 293.96 1601.17 293.96 1550.5 381.73 1601.17 469.5 1702.52 469.5 1753.19 381.73 1702.52 293.96"/>
    <polygon id="_34" data-name="34" class="cls-2" points="1574.79 550.5 1477.21 550.5 1428.43 635 1477.21 719.5 1574.79 719.5 1623.57 635 1574.79 550.5"/>
    <polygon id="s55" class="cls-1" points="1702.5 293.5 1591.5 274.5 1469.5 274.5 1601.5 293.5 1702.5 293.5"/>
    <polygon id="s72" class="cls-1" points="1591.5 64.5 1739.5 132.5 1786.5 214.5 1651.5 169.5 1591.5 64.5"/>
    <polygon id="_31" data-name="31" class="cls-2" points="1591.12 64.5 1469.88 64.5 1409.26 169.5 1469.88 274.5 1591.12 274.5 1651.74 169.5 1591.12 64.5"/>
    <polygon id="s110" class="cls-1" points="1035.5 193.5 1100.5 194.5 1101.5 186.5 1028.5 187.5 1035.5 193.5"/>
    <polygon id="s1" class="cls-1" points="286.5 147.5 378.5 147.5 451.5 181.5 375.5 182.5 286.5 147.5"/>
    <polygon id="_2" data-name="2" class="cls-2" points="376.11 -14.5 284.89 -14.5 239.28 64.5 284.89 143.5 376.11 143.5 421.72 64.5 376.11 -14.5"/>
    <polygon id="s33" class="cls-1" points="147.5 78.5 321.5 380.5 562.5 379.5 513.5 296.5 147.5 78.5"/>
    <polygon id="s32" class="cls-1" points="147.5 682.5 578.5 452.5 617.5 380.5 321.5 380.5 147.5 682.5"/>
    <polygon id="s3" class="cls-1" points="393.5 488.5 455.5 595.5 659.5 525.5 618.5 452.5 393.5 488.5"/>
    <polygon id="s20" class="cls-1" points="1019.5 170.5 1220.5 256.5 1253.5 193.5 1080.5 64.5 1019.5 170.5"/>
    <polygon id="s23" class="cls-1" points="1222.5 379.5 1257.5 442.5 1150.5 467.5 1099.5 380.5 1222.5 379.5"/>
    <polygon id="s50" class="cls-1" points="1017.5 380.5 1099.5 380.5 1150.5 467.5 1078.5 486.5 1017.5 380.5"/>
    <polygon id="s19" class="cls-1" points="470.5 215.5 560.5 215.5 453.5 197.5 348.5 197.5 470.5 215.5"/>
    <polygon id="s18" class="cls-1" points="441.5 169.5 578.5 206.5 628.5 292.5 502.5 273.5 441.5 169.5"/>
    <polygon id="s17" class="cls-1" points="695.5 379.5 578.5 380.5 628.5 292.5 730.5 319.5 695.5 379.5"/>
    <polygon id="s16" class="cls-1" points="695.5 379.5 731.5 440.5 628.5 467.5 578.5 380.5 695.5 379.5"/>
    <polygon id="s15" class="cls-1" points="744.5 524.5 659.5 524.5 590.5 549.5 685.5 549.5 744.5 524.5"/>
    <polygon id="s14" class="cls-1" points="463.5 490.5 731.5 440.5 699.5 504.5 400.5 598.5 463.5 490.5"/>
    <polygon id="s9" class="cls-1" points="1108.5 194.5 1068.5 173.5 1108.5 104.5 1144.5 131.5 1108.5 194.5"/>
    <polygon id="s8" class="cls-1" points="1108.5 194.5 1144.5 256.5 1108.5 242.5 1068.5 173.5 1108.5 194.5"/>
    <polygon id="s7" class="cls-1" points="1144.5 256.5 1220.5 256.5 1188.5 242.5 1108.5 242.5 1144.5 256.5"/>
    <polygon id="_9" data-name="9" class="cls-2" points="1095.2 57.28 1020.59 57.28 983.29 121.89 1020.59 186.5 1095.2 186.5 1132.5 121.89 1095.2 57.28"/>
    <polygon id="s48" class="cls-1" points="1108.5 317.5 1081.5 314.5 1120.5 246.5 1144.5 256.5 1108.5 317.5"/>
    <polygon id="s54" class="cls-1" points="886.5 76.5 989.5 121.5 1026.5 186.5 930.5 151.5 886.5 76.5"/>
    <polygon id="_10" data-name="10" class="cls-2" points="1081.97 179.5 1004.03 179.5 965.06 247 1004.03 314.5 1081.97 314.5 1120.94 247 1081.97 179.5"/>
    <polygon id="_5" data-name="5" class="cls-2" points="484.65 549.5 386.5 549.5 337.43 634.5 386.5 719.5 484.65 719.5 533.73 634.5 484.65 549.5"/>
    <polygon id="s43" class="cls-1" points="590.5 709.5 777.5 623.5 823.5 542.5 653.5 599.5 590.5 709.5"/>
    <polygon id="s53" class="cls-1" points="853.5 703.5 899.5 622.5 1037.5 567.5 1004.5 628.5 853.5 703.5"/>
    <polygon id="_14" data-name="14" class="cls-2" points="851.5 542.5 758.52 542.5 712.05 623 758.52 703.5 851.48 703.5 897.95 623 851.5 542.5"/>
    <polygon id="_13" data-name="13" class="cls-2" points="804.44 379.5 708.02 379.5 659.82 463 708.02 546.5 804.44 546.5 852.65 463 804.44 379.5"/>
    <polygon id="s29" class="cls-1" points="1329 567.5 1271.5 622.5 1318.5 703.5 1363.5 628.5 1329 567.5"/>
    <polygon id="_23" data-name="23" class="cls-2" points="1411.51 541.83 1318.17 541.83 1271.5 622.66 1318.17 703.5 1411.51 703.5 1458.18 622.66 1411.51 541.83"/>
    <polygon id="s27" class="cls-1" points="1364.5 503.5 1434.5 504.5 1409.5 541.5 1318.5 541.5 1364.5 503.5"/>
    <polygon id="s28" class="cls-1" points="1328.5 567.5 1364.5 503.5 1318.5 541.5 1271.5 622.5 1328.5 567.5"/>
    <polygon id="_19" data-name="19" class="cls-2" points="1266.86 462.96 1171.29 462.96 1123.5 545.73 1171.29 628.5 1266.86 628.5 1314.65 545.73 1266.86 462.96"/>
    <polygon id="s26" class="cls-1" points="961.5 756.5 1147.5 628.5 1109.5 567.5 909.5 661.5 961.5 756.5"/>
    <polygon id="_15" data-name="15" class="cls-2" points="928.1 469.5 825.29 469.5 773.89 558.53 825.29 647.57 928.1 647.57 979.5 558.53 928.1 469.5"/>
    <polygon id="s42" class="cls-1" points="886.5 227.5 964.5 247 1003.5 179.5 930.5 151.5 886.5 227.5"/>
    <polygon id="_8" data-name="8" class="cls-2" points="886.38 75.5 798.62 75.5 754.74 151.5 798.62 227.5 886.38 227.5 930.26 151.5 886.38 75.5"/>
    <polygon id="s2" class="cls-1" points="348.5 197.5 295.5 105.5 453.5 194.5 438.5 211.5 348.5 197.5"/>
    <polygon id="_6" data-name="6" class="cls-2" points="609.57 214.29 514.19 214.29 466.5 296.9 514.19 379.5 609.57 379.5 657.26 296.9 609.57 214.29"/>
    <polygon id="s45" class="cls-1" points="730.5 467.5 757.5 462.5 804.5 380.5 780.5 380 730.5 467.5"/>
    <polygon id="_12" data-name="12" class="cls-2" points="729.98 292.5 628.95 292.5 578.43 380 628.95 467.5 729.98 467.5 780.5 380 729.98 292.5"/>
    <polygon id="_11" data-name="11" class="cls-2" points="797.88 204.16 696.66 204.16 646.04 291.83 696.66 379.5 797.88 379.5 848.5 291.83 797.88 204.16"/>
    <polygon id="s100" class="cls-1" points="795.5 204.5 845.5 291.5 1004.5 314.5 965.5 247.5 795.5 204.5"/>
    <polygon id="s49" class="cls-1" points="876.5 280.5 1108.5 318.5 1144.5 380.51 933.5 380 876.5 280.5"/>
    <polygon id="s4" class="cls-1" points="628.5 292.5 503.5 274.5 621.5 273.5 730.5 291.5 628.5 292.5"/>
    <polygon id="_17" data-name="17" class="cls-2" points="1188.41 104.5 1108.74 104.5 1068.9 173.5 1108.74 242.5 1188.41 242.5 1228.25 173.5 1188.41 104.5"/>
    <polygon id="s34" class="cls-1" points="453.5 14.5 512.5 63.5 501.5 64.5 492.5 81.5 453.5 14.5"/>
    <polygon id="_3" data-name="3" class="cls-2" points="393.06 488.5 268.94 488.5 206.87 596 268.94 703.5 393.06 703.5 455.13 596 393.06 488.5"/>
    <polygon id="_4" data-name="4" class="cls-2" points="453.83 14.5 348.17 14.5 295.35 106 348.17 197.5 453.83 197.5 506.65 106 453.83 14.5"/>
    <polygon id="s107" class="cls-1" points="1201.5 64.5 1324.5 193.5 1360.5 256.5 1261.5 169.5 1201.5 64.5"/>
    <polygon id="s106" class="cls-1" points="1201.5 275.5 1261.5 169.5 1360.5 256.5 1326.5 317.5 1251.57 292.32 1201.5 275.5"/>
    <polygon id="s65" class="cls-1" points="967.5 558.5 1072.74 558.5 1065.5 567.5 956.5 567.5 967.5 558.5"/>
    <polygon id="s21" class="cls-1" points="1220.5 256.5 1256.5 317.5 1076.5 275.5 1015.5 170.5 1220.5 256.5"/>
    <polygon id="s30" class="cls-1" points="1150.5 292.5 1251.5 292.5 1200.5 275.5 1076.5 275.5 1150.5 292.5"/>
    <polygon id="s22" class="cls-1" points="1256.5 317.5 1222.5 379.5 1099.5 380.5 1150.5 292.5 1256.5 317.5"/>
    <polygon id="_24" data-name="24" class="cls-2" points="1200.91 64.5 1079.09 64.5 1018.18 170 1079.09 275.5 1200.91 275.5 1261.82 170 1200.91 64.5"/>
    <polygon id="s102" class="cls-1" points="1070.5 756.5 1221.5 626.5 1170.5 626.5 1125.5 662.5 1070.5 756.5"/>
    <polygon id="_21" data-name="21" class="cls-2" points="1070.56 567.5 961.44 567.5 906.88 662 961.44 756.5 1070.56 756.5 1125.12 662 1070.56 567.5"/>
    <polygon id="s64" class="cls-1" points="1125.5 662.5 1070.5 567.5 1122.5 545.5 1170.5 626.5 1125.5 662.5"/>
    <polygon id="s47" class="cls-1" points="621.5 273.5 683.5 169.5 778.5 204.5 729.5 292.5 621.5 273.5"/>
    <polygon id="s46" class="cls-1" points="623.5 64.5 683.5 169.5 780.5 204.5 837.15 204.16 806.5 151.5 623.5 64.5"/>
    <polygon id="s44" class="cls-1" points="653.5 599.5 804.5 546.5 757.5 462.5 590.5 490.5 653.5 599.5"/>
    <polygon id="s5" class="cls-1" points="730.5 467.5 590.5 490.5 463.5 490.5 628.5 467.5 730.5 467.5"/>
    <polygon id="s37" class="cls-1" points="1453.5 648.5 1458.5 622.5 1411.5 541.5 1400.5 558.5 1453.5 648.5"/>
    <polygon id="s109" class="cls-1" points="1554.5 634.5 1556.5 648.5 1608.5 558.5 1603.5 550.5 1554.5 634.5"/>
    <polygon id="s108" class="cls-1" points="1608.5 558.5 1589.5 527.5 1549.5 458.5 1557.5 469.5 1608.5 558.5"/>
    <polygon id="_29" data-name="29" class="cls-2" points="1556.67 469.5 1453.33 469.5 1401.65 559 1453.33 648.5 1556.67 648.5 1608.35 559 1556.67 469.5"/>
    <polygon id="s104" class="cls-1" points="1434.5 503.5 1460.5 458.5 1415.5 380.5 1363.5 381.5 1434.5 503.5"/>
    <polygon id="_7" data-name="7" class="cls-2" points="623.04 64.5 502.11 64.5 441.65 169.22 502.11 273.95 623.04 273.95 683.5 169.22 623.04 64.5"/>
    <polygon id="s105" class="cls-1" points="1326.5 317.5 1363.5 381.5 1302.5 380.5 1251.5 292.5 1326.5 317.5"/>
    <polygon id="_22" data-name="22" class="cls-2" points="1251.52 292.5 1150.48 292.5 1099.96 380 1150.48 467.5 1251.52 467.5 1302.04 380 1251.52 292.5"/>
    <polygon id="s103" class="cls-1" points="1453.5 469.5 1556.5 469.5 1549.5 458.5 1460.5 458.5 1453.5 469.5"/>
    <polygon id="s51" class="cls-1" points="1222.5 379.5 1151.5 503.5 1251.5 467.5 1302.5 380.5 1222.5 379.5"/>
    <polygon id="s101" class="cls-1" points="1017.5 591.5 1123.5 545.5 1170.5 462.5 1078.5 486.5 1017.5 591.5"/>
    <polygon id="s99" class="cls-1" points="590.5 549.5 455.5 595.5 393.5 703.5 534.5 634.5 590.5 549.5"/>
    <polygon id="_18" data-name="18" class="cls-2" points="590.3 490.5 463.86 490.5 400.64 600 463.86 709.5 590.3 709.5 653.52 600 590.3 490.5"/>
    <polygon id="_20" data-name="20" class="cls-2" points="1017.5 380.51 895.5 380.51 834.5 486.17 895.5 591.82 1017.5 591.82 1078.5 486.17 1017.5 380.51"/>
    <polygon id="_30" data-name="30" class="cls-2" points="1363.72 381.5 1222.28 381.5 1151.55 504 1222.28 626.5 1363.72 626.5 1434.45 504 1363.72 381.5"/>
    <polygon id="s98" class="cls-1" points="268.5 488.5 541.5 452.5 618.5 452.5 393.5 488.5 268.5 488.5"/>
    <polygon id="_1" data-name="1" class="cls-2" points="321.5 380.72 147.01 682.95 0.5 682.95 0.5 78.5 0.5 78.5 147.01 78.5 321.5 380.72"/>
    <polygon id="_16" data-name="16" class="cls-2" points="873.45 280.5 758.55 280.5 701.11 380 758.55 479.5 873.45 479.5 930.89 380 873.45 280.5"/>
    <polygon id="s11" class="cls-1" points="832.5 469.5 797.5 469.5 745.5 558.5 786.5 542.5 832.5 469.5"/>
    <polygon id="s10" class="cls-1" points="797.5 647.5 832.5 622.5 786.5 542.5 745.5 558.5 797.5 647.5"/>
    <polygon id="s6" class="cls-1" points="802.5 291.5 757.5 280.5 701.5 379.5 751.5 379.5 802.5 291.5"/>
    <polygon id="s12" class="cls-1" points="720.5 379.5 700.5 379.5 757.5 479.5 768.5 463.5 720.5 379.5"/>
    <polygon id="s25" class="cls-1" points="940.5 380.5 889.5 467.5 836.5 486.5 897.5 381.5 940.5 380.5"/>
    <polygon id="s24" class="cls-1" points="883.5 469.5 933.5 558.5 896.5 591.5 836.5 486.5 883.5 469.5"/>
    <polygon id="s31" class="cls-1" points="973.5 558.5 962.5 567.5 907.5 661.5 922.5 647.5 973.5 558.5"/>
    <polygon id="s38" class="cls-1" points="1267.5 462.5 1315.5 545.5 1222.5 626.5 1151.5 503.5 1267.5 462.5"/>
    <polygon id="_25" data-name="25" class="cls-2" points="1663.51 104.08 1584.17 104.08 1544.5 172.79 1584.17 241.5 1663.51 241.5 1703.17 172.79 1663.51 104.08"/>
    <polygon id="s63" class="cls-1" points="1572.5 188.5 1606.5 128.5 1591.5 100.5 1551.5 168.5 1572.5 188.5"/>
  </g>
</svg>
