<svg xmlns="http://www.w3.org/2000/svg" width="1200" height="4736.84" viewBox="0 0 1200 4736.84">
  <defs>
    <style>
      .cls-1 {
        fill: #f2f2f2;
      }

      .cls-1, .cls-2, .cls-3 {
        stroke: #000;
        stroke-miterlimit: 10;
      }

      .cls-2, .cls-3 {
        fill: #fff;
      }

      .cls-3 {
        stroke-width: 2px;
      }
    </style>
  </defs>
  <title>aartics_polygons_vertical</title>
  <g id="_08stage" data-name="08stage">
    <polygon id="s41" class="cls-1" points="805.47 2191.55 704.97 2253.05 710.97 2164.55 829.47 2097.05 805.47 2191.55"/>
    <polygon id="s88" class="cls-1" points="782.97 3811.55 782.97 3702.05 845.97 3684.05 845.97 3829.55 782.97 3811.55"/>
    <polygon id="s40" class="cls-1" points="595.47 2136.05 710.97 2203.55 700.47 2292.05 596.97 2230.55 595.47 2136.05"/>
    <polygon id="s52" class="cls-1" points="805.47 2193.05 911.97 2253.05 946.47 2164.55 829.47 2097.05 805.47 2193.05"/>
    <polygon id="s60" class="cls-1" points="475.47 2647.55 490.47 2691.05 377.97 2622.05 356.97 2580.05 475.47 2647.55"/>
    <polygon id="s62" class="cls-1" points="214.47 2284.55 317.97 2623.55 224.97 2673.05 86.97 2358.05 214.47 2284.55"/>
    <polygon id="s59" class="cls-1" points="595.47 2469.05 463.47 2545.55 491.97 2641.55 595.47 2578.55 595.47 2469.05"/>
    <polygon id="s61" class="cls-1" points="377.97 2527.55 377.97 2656.55 356.97 2575.55 340.47 2502.05 340.47 2356.55 377.97 2527.55"/>
    <polygon id="s57" class="cls-1" points="784.47 2842.55 871.47 2896.55 1069.47 2344.55 911.97 2254.55 784.47 2842.55"/>
    <polygon id="s56" class="cls-1" points="691.47 2896.55 784.47 2842.55 911.97 2254.55 754.47 2344.55 691.47 2896.55"/>
    <polygon id="s94" class="cls-1" points="308.97 3655.55 217.47 3708.05 116.97 3687.05 227.97 3622.55 308.97 3655.55"/>
    <polygon id="_42" data-name="42" class="cls-2" points="353.97 3828.02 353.97 3688.59 233.22 3618.88 112.47 3688.59 112.47 3828.02 233.22 3897.74 353.97 3828.02"/>
    <polygon id="_50" data-name="50" class="cls-2" points="949.47 4027.72 949.47 3892.61 832.46 3825.05 715.46 3892.61 715.46 4027.72 832.46 4095.27 949.47 4027.72"/>
    <polygon id="_49" data-name="49" class="cls-2" points="713.97 4023.74 713.97 3890.37 598.47 3823.69 482.97 3890.37 482.97 4023.74 598.47 4090.42 713.97 4023.74"/>
    <polygon id="_48" data-name="48" class="cls-2" points="463.47 4066.81 463.47 3911.8 329.22 3834.29 194.97 3911.8 194.97 4066.81 329.22 4144.32 463.47 4066.81"/>
    <polygon id="_51" data-name="51" class="cls-2" points="1090.47 3828.89 1090.47 3687.72 968.22 3617.14 845.97 3687.72 845.97 3828.89 968.22 3899.47 1090.47 3828.89"/>
    <polygon id="s87" class="cls-1" points="689.97 3648.05 782.97 3702.05 914.97 3663.05 757.47 3573.05 689.97 3648.05"/>
    <polygon id="s90" class="cls-1" points="782.97 3811.55 832.47 3825.05 715.47 3892.55 689.97 3864.05 782.97 3811.55"/>
    <polygon id="s92" class="cls-1" points="844.47 3397.55 914.97 3301.55 1070.97 3391.55 976.47 3465.05 844.47 3397.55"/>
    <polygon id="s91" class="cls-1" points="725.97 3466.55 757.47 3391.55 913.47 3301.55 844.47 3397.55 725.97 3466.55"/>
    <polygon id="s89" class="cls-1" points="689.97 3864.05 715.47 3892.55 595.47 3822.05 595.47 3805.55 689.97 3864.05"/>
    <polygon id="s85" class="cls-1" points="232.47 3897.05 194.97 3912.05 329.97 3834.05 353.97 3828.05 232.47 3897.05"/>
    <polygon id="s84" class="cls-1" points="343.47 3390.05 358.47 3415.55 241.47 3483.05 215.97 3463.55 343.47 3390.05"/>
    <polygon id="s82" class="cls-1" points="463.47 3138.05 487.47 3255.05 379.47 3316.55 329.97 3214.55 463.47 3138.05"/>
    <polygon id="s80" class="cls-1" points="482.97 3225.05 597.66 3291.05 598.47 3319.55 487.47 3255.05 482.97 3225.05"/>
    <polygon id="s79" class="cls-1" points="463.47 2992.55 482.97 3091.55 482.97 3225.05 463.47 3145.55 463.47 2992.55"/>
    <polygon id="s78" class="cls-1" points="596.97 2958.05 596.97 3025.55 482.97 3091.55 472.47 3030.05 596.97 2958.05"/>
    <polygon id="s77" class="cls-1" points="109.47 2988.05 220.47 3163.55 314.97 3220.55 229.47 3057.05 109.47 2988.05"/>
    <polygon id="s76" class="cls-1" points="946.47 3211.55 875.97 3324.05 782.97 3376.55 830.97 3279.05 946.47 3211.55"/>
    <polygon id="s75" class="cls-1" points="1088.97 2971.55 967.47 3165.05 871.47 3219.05 967.47 3042.05 1088.97 2971.55"/>
    <polygon id="s73" class="cls-1" points="844.47 2830.55 800.97 2977.55 800.97 3097.55 844.47 2971.55 844.47 2830.55"/>
    <polygon id="s70" class="cls-1" points="725.97 2694.05 695.97 2920.55 598.47 2979.05 593.97 2770.55 725.97 2694.05"/>
    <polygon id="s68" class="cls-1" points="712.25 3087.05 715.44 3079.55 715.44 3211.55 712.25 3220.55 712.25 3087.05"/>
    <polygon id="s66" class="cls-1" points="470.97 3901.55 463.47 3912.05 329.97 3834.05 346.47 3829.55 470.97 3901.55"/>
    <polygon id="s67" class="cls-1" points="482.97 4023.05 463.47 4066.55 463.47 3912.05 482.97 3891.05 482.97 4023.05"/>
    <polygon id="s97" class="cls-1" points="379.47 3427.55 358.47 3415.55 476.97 3483.05 487.47 3490.55 379.47 3427.55"/>
    <polygon id="s95" class="cls-1" points="476.97 3601.55 466.47 3609.05 346.47 3678.05 358.47 3669.05 476.97 3601.55"/>
    <polygon id="s93" class="cls-1" points="358.47 3685.55 353.97 3690.05 232.47 3621.05 242.97 3619.55 358.47 3685.55"/>
    <polygon id="s58" class="cls-1" points="718.47 2544.05 725.97 2511.05 593.97 2434.55 593.97 2472.05 718.47 2544.05"/>
    <polygon id="s35" class="cls-1" points="710.97 2311.55 718.47 2256.05 593.97 2328.05 595.47 2382.05 710.97 2311.55"/>
    <polygon id="s36" class="cls-1" points="716.97 2304.05 827.97 2368.55 842.97 2328.05 718.47 2256.05 716.97 2304.05"/>
    <polygon id="s83" class="cls-1" points="343.47 3243.05 379.47 3316.55 379.47 3448.55 343.47 3390.05 343.47 3243.05"/>
    <polygon id="_45" data-name="45" class="cls-2" points="476.97 3619.29 476.97 3483.32 359.22 3415.34 241.47 3483.32 241.47 3619.29 359.22 3687.27 476.97 3619.29"/>
    <polygon id="_39" data-name="39" class="cls-2" points="712.47 3224.77 712.47 3092.2 597.66 3025.92 482.86 3092.2 482.86 3224.77 597.66 3291.05 712.47 3224.77"/>
    <polygon id="_37" data-name="37" class="cls-2" points="946.47 3212.24 946.47 3078.87 830.97 3012.19 715.47 3078.87 715.47 3212.24 830.97 3278.92 946.47 3212.24"/>
    <polygon id="_36" data-name="36" class="cls-2" points="844.47 3398.07 844.47 3256.04 721.47 3185.03 598.47 3256.04 598.47 3398.07 721.47 3469.08 844.47 3398.07"/>
    <polygon id="s86" class="cls-1" points="727.47 3456.05 757.47 3391.55 757.47 3573.05 727.47 3607.35 727.47 3456.05"/>
    <polygon id="_44" data-name="44" class="cls-2" points="1070.97 3572.8 1070.97 3391.8 914.22 3301.3 757.47 3391.8 757.47 3572.8 914.22 3663.3 1070.97 3572.8"/>
    <polygon id="_43" data-name="43" class="cls-2" points="595.47 3829.43 595.47 3685.68 470.97 3613.8 346.47 3685.68 346.47 3829.43 470.97 3901.32 595.47 3829.43"/>
    <polygon id="s96" class="cls-1" points="464.97 3456.05 487.47 3472.55 597.66 3412.55 596.97 3379.55 464.97 3456.05"/>
    <polygon id="_46" data-name="46" class="cls-2" points="727.47 3607.35 727.47 3455.8 596.22 3380.02 464.97 3455.8 464.97 3607.35 596.22 3683.13 727.47 3607.35"/>
    <polygon id="_47" data-name="47" class="cls-2" points="343.47 3390.17 343.47 3242.94 215.97 3169.33 88.47 3242.94 88.47 3390.17 215.97 3463.78 343.47 3390.17"/>
    <polygon id="s81" class="cls-1" points="197.97 3138.05 215.97 3169.55 343.47 3243.05 331.47 3214.55 197.97 3138.05"/>
    <polygon id="_26" data-name="26" class="cls-2" points="710.97 2335.81 710.97 2201.57 594.72 2134.45 478.47 2201.57 478.47 2335.81 594.72 2402.92 710.97 2335.81"/>
    <polygon id="_27" data-name="27" class="cls-2" points="946.47 2300.79 946.47 2164.82 828.72 2096.84 710.97 2164.82 710.97 2300.79 828.72 2368.77 946.47 2300.79"/>
    <polygon id="_28" data-name="28" class="cls-2" points="842.97 2485.43 842.97 2341.68 718.47 2269.8 593.97 2341.68 593.97 2485.43 718.47 2557.32 842.97 2485.43"/>
    <polygon id="_33" data-name="33" class="cls-2" points="475.38 2779.43 475.38 2643.51 357.68 2575.55 239.97 2643.51 239.97 2779.43 357.68 2847.39 475.38 2779.43"/>
    <polygon id="_32" data-name="32" class="cls-2" points="350.97 2988.02 350.97 2848.59 230.22 2778.88 109.47 2848.59 109.47 2988.02 230.22 3057.74 350.97 2988.02"/>
    <polygon id="_41" data-name="41" class="cls-2" points="596.97 2957.93 596.97 2814.18 472.47 2742.3 347.97 2814.18 347.97 2957.93 472.47 3029.82 596.97 2957.93"/>
    <polygon id="s74" class="cls-1" points="844.47 2971.55 830.97 3012.05 946.47 3079.55 967.47 3042.05 844.47 2971.55"/>
    <polygon id="_38" data-name="38" class="cls-2" points="1088.97 2971.61 1088.97 2830.74 966.96 2760.3 844.96 2830.74 844.96 2971.61 966.96 3042.05 1088.97 2971.61"/>
    <polygon id="_40" data-name="40" class="cls-2" points="463.47 3137.45 463.47 2984.16 330.72 2907.52 197.97 2984.16 197.97 3137.45 330.72 3214.09 463.47 3137.45"/>
    <polygon id="_35" data-name="35" class="cls-2" points="725.27 2694.08 725.27 2542.06 593.62 2466.05 461.97 2542.06 461.97 2694.08 593.62 2770.09 725.27 2694.08"/>
    <polygon id="_34" data-name="34" class="cls-2" points="340.47 2502.48 340.47 2356.13 213.72 2282.95 86.97 2356.13 86.97 2502.48 213.72 2575.66 340.47 2502.48"/>
    <polygon id="s71" class="cls-1" points="461.97 2694.05 472.47 2742.05 596.97 2814.05 593.97 2770.55 461.97 2694.05"/>
    <polygon id="s69" class="cls-1" points="911.97 2617.55 800.97 2977.55 695.97 2920.55 754.47 2527.55 911.97 2617.55"/>
    <polygon id="s55" class="cls-1" points="725.97 2694.05 754.47 2527.55 754.47 2344.55 725.97 2542.55 725.97 2694.05"/>
    <polygon id="s72" class="cls-1" points="1069.47 2527.55 967.47 2760.05 844.47 2830.55 911.97 2617.55 1069.47 2527.55"/>
    <polygon id="_31" data-name="31" class="cls-2" points="1069.47 2526.99 1069.47 2345.12 911.97 2254.19 754.47 2345.12 754.47 2526.99 911.97 2617.92 1069.47 2526.99"/>
    <polygon id="s110" class="cls-1" points="875.97 1693.56 874.47 1791.06 886.47 1792.56 884.97 1683.06 875.97 1693.56"/>
    <polygon id="s1" class="cls-1" points="944.97 570.05 944.97 708.05 893.97 817.55 892.47 703.55 944.97 570.05"/>
    <polygon id="_2" data-name="2" class="cls-2" points="1187.97 704.47 1187.97 567.64 1069.47 499.22 950.97 567.64 950.97 704.47 1069.47 772.89 1187.97 704.47"/>
    <polygon id="s33" class="cls-1" points="1048.47 361.56 595.47 622.55 596.97 984.05 721.47 910.55 1048.47 361.56"/>
    <polygon id="s32" class="cls-1" points="142.47 361.56 487.47 1008.05 595.47 1066.56 595.47 622.55 142.47 361.56"/>
    <polygon id="s3" class="cls-1" points="433.47 730.55 272.97 823.55 377.97 1129.56 487.47 1068.06 433.47 730.55"/>
    <polygon id="s20" class="cls-1" points="910.47 1669.56 781.47 1971.06 875.97 2020.56 1069.47 1761.06 910.47 1669.56"/>
    <polygon id="s23" class="cls-1" points="596.97 1974.06 502.47 2026.56 464.97 1866.06 595.47 1789.56 596.97 1974.06"/>
    <polygon id="s50" class="cls-1" points="595.47 1666.56 595.47 1789.56 464.97 1866.06 436.47 1758.06 595.47 1666.56"/>
    <polygon id="s19" class="cls-1" points="842.97 846.05 842.97 981.05 869.97 820.55 869.97 663.05 842.97 846.05"/>
    <polygon id="s18" class="cls-1" points="911.97 802.55 856.47 1008.05 727.47 1083.06 755.97 894.05 911.97 802.55"/>
    <polygon id="s17" class="cls-1" points="596.97 1183.56 595.47 1008.05 727.47 1083.06 686.97 1236.06 596.97 1183.56"/>
    <polygon id="s16" class="cls-1" points="596.97 1183.56 505.47 1237.56 464.97 1083.06 595.47 1008.05 596.97 1183.56"/>
    <polygon id="s15" class="cls-1" points="379.47 1257.06 379.47 1129.56 341.97 1026.06 341.97 1168.56 379.47 1257.06"/>
    <polygon id="s14" class="cls-1" points="430.47 835.55 505.47 1237.56 409.47 1189.56 268.47 741.05 430.47 835.55"/>
    <polygon id="s9" class="cls-1" points="874.47 1803.06 905.97 1743.06 1009.47 1803.06 968.97 1857.06 874.47 1803.06"/>
    <polygon id="s8" class="cls-1" points="874.47 1803.06 781.47 1857.06 802.47 1803.06 905.97 1743.06 874.47 1803.06"/>
    <polygon id="s7" class="cls-1" points="781.47 1857.06 781.47 1971.06 802.47 1923.06 802.47 1803.06 781.47 1857.06"/>
    <polygon id="_9" data-name="9" class="cls-2" points="1080.3 1783.1 1080.3 1671.19 983.38 1615.24 886.47 1671.19 886.47 1783.1 983.38 1839.06 1080.3 1783.1"/>
    <polygon id="s48" class="cls-1" points="689.97 1803.06 694.47 1762.56 796.47 1821.06 781.47 1857.06 689.97 1803.06"/>
    <polygon id="s54" class="cls-1" points="1051.47 1470.06 983.97 1624.56 886.47 1680.06 938.97 1536.06 1051.47 1470.06"/>
    <polygon id="_10" data-name="10" class="cls-2" points="896.97 1763.26 896.97 1646.35 795.72 1587.89 694.47 1646.35 694.47 1763.26 795.72 1821.72 896.97 1763.26"/>
    <polygon id="_5" data-name="5" class="cls-2" points="341.97 867.28 341.97 720.06 214.47 646.45 86.97 720.06 86.97 867.28 214.47 940.89 341.97 867.28"/>
    <polygon id="s43" class="cls-1" points="101.97 1026.06 230.97 1306.56 352.47 1375.56 266.97 1120.56 101.97 1026.06"/>
    <polygon id="s53" class="cls-1" points="110.97 1420.56 232.47 1489.56 314.97 1696.56 223.47 1647.06 110.97 1420.56"/>
    <polygon id="_14" data-name="14" class="cls-2" points="352.47 1417.56 352.47 1278.09 231.72 1208.38 110.97 1278.09 110.97 1417.52 231.72 1487.23 352.47 1417.56"/>
    <polygon id="_13" data-name="13" class="cls-2" points="596.97 1346.97 596.97 1202.34 471.72 1130.03 346.47 1202.34 346.47 1346.97 471.72 1419.28 596.97 1346.97"/>
    <polygon id="s29" class="cls-1" points="314.97 2133.8 232.47 2047.56 110.97 2118.05 223.47 2185.55 314.97 2133.8"/>
    <polygon id="_23" data-name="23" class="cls-2" points="353.48 2257.58 353.48 2117.56 232.23 2047.56 110.97 2117.56 110.97 2257.58 232.23 2327.58 353.48 2257.58"/>
    <polygon id="s27" class="cls-1" points="410.97 2187.05 409.47 2292.05 353.97 2254.55 353.97 2118.05 410.97 2187.05"/>
    <polygon id="s28" class="cls-1" points="314.97 2133.05 410.97 2187.05 353.97 2118.05 232.47 2047.56 314.97 2133.05"/>
    <polygon id="_19" data-name="19" class="cls-2" points="471.78 2040.6 471.78 1897.24 347.63 1825.56 223.47 1897.24 223.47 2040.6 347.63 2112.28 471.78 2040.6"/>
    <polygon id="s26" class="cls-1" points="31.47 1582.56 223.47 1861.56 314.97 1804.56 173.97 1504.56 31.47 1582.56"/>
    <polygon id="_15" data-name="15" class="cls-2" points="461.97 1532.45 461.97 1378.24 328.42 1301.13 194.87 1378.24 194.87 1532.45 328.42 1609.56 461.97 1532.45"/>
    <polygon id="s42" class="cls-1" points="824.97 1470.06 795.72 1587.06 896.97 1645.56 938.97 1536.06 824.97 1470.06"/>
    <polygon id="_8" data-name="8" class="cls-2" points="1052.97 1469.87 1052.97 1338.24 938.97 1272.42 824.97 1338.24 824.97 1469.87 938.97 1535.69 1052.97 1469.87"/>
    <polygon id="s2" class="cls-1" points="869.97 663.05 1007.97 583.55 874.47 820.55 848.97 798.05 869.97 663.05"/>
    <polygon id="_6" data-name="6" class="cls-2" points="844.78 1054.66 844.78 911.59 720.87 840.05 596.97 911.59 596.97 1054.66 720.87 1126.2 844.78 1054.66"/>
    <polygon id="s45" class="cls-1" points="464.97 1236.06 472.47 1276.56 595.47 1347.06 596.22 1311.06 464.97 1236.06"/>
    <polygon id="_12" data-name="12" class="cls-2" points="727.47 1235.28 727.47 1083.72 596.22 1007.95 464.97 1083.72 464.97 1235.28 596.22 1311.06 727.47 1235.28"/>
    <polygon id="_11" data-name="11" class="cls-2" points="859.97 1337.13 859.97 1185.29 728.47 1109.37 596.97 1185.29 596.97 1337.13 728.47 1413.06 859.97 1337.13"/>
    <polygon id="s100" class="cls-1" points="859.47 1333.56 728.97 1408.56 694.47 1647.06 794.97 1588.56 859.47 1333.56"/>
    <polygon id="s49" class="cls-1" points="745.47 1455.06 688.47 1803.06 595.46 1857.06 596.22 1540.56 745.47 1455.06"/>
    <polygon id="s4" class="cls-1" points="727.47 1083.06 754.47 895.55 755.97 1072.56 728.97 1236.06 727.47 1083.06"/>
    <polygon id="_17" data-name="17" class="cls-2" points="1009.47 1922.93 1009.47 1803.41 905.97 1743.66 802.47 1803.41 802.47 1922.93 905.97 1982.68 1009.47 1922.93"/>
    <polygon id="s34" class="cls-1" points="1144.47 820.55 1070.97 909.05 1069.47 892.55 1043.97 879.05 1144.47 820.55"/>
    <polygon id="_3" data-name="3" class="cls-2" points="433.47 729.9 433.47 543.71 272.22 450.61 110.97 543.71 110.97 729.9 272.22 823 433.47 729.9"/>
    <polygon id="_4" data-name="4" class="cls-2" points="1144.47 821.05 1144.47 662.56 1007.22 583.32 869.97 662.56 869.97 821.05 1007.22 900.29 1144.47 821.05"/>
    <polygon id="s107" class="cls-1" points="1069.47 1837.56 875.97 2022.06 781.47 2076.05 911.97 1927.56 1069.47 1837.56"/>
    <polygon id="s106" class="cls-1" points="752.97 1837.56 911.97 1927.56 781.47 2076.05 689.97 2025.06 727.74 1912.65 752.97 1837.56"/>
    <polygon id="s65" class="cls-1" points="328.47 1591.56 328.47 1749.41 314.97 1738.56 314.97 1575.06 328.47 1591.56"/>
    <polygon id="s21" class="cls-1" points="781.47 1971.06 689.97 2025.06 752.97 1755.06 910.47 1663.56 781.47 1971.06"/>
    <polygon id="s30" class="cls-1" points="727.47 1761.06 727.47 1912.56 752.97 1836.06 752.97 1650.06 727.47 1761.06"/>
    <polygon id="s22" class="cls-1" points="689.97 2025.06 596.97 1974.06 595.47 1789.56 727.47 1866.06 689.97 2025.06"/>
    <polygon id="_24" data-name="24" class="cls-2" points="1069.47 1836.67 1069.47 1653.94 911.22 1562.57 752.97 1653.94 752.97 1836.67 911.22 1928.04 1069.47 1836.67"/>
    <polygon id="s102" class="cls-1" points="31.47 1746.06 226.47 1972.56 226.47 1896.06 172.47 1828.56 31.47 1746.06"/>
    <polygon id="_21" data-name="21" class="cls-2" points="314.97 1746.14 314.97 1582.46 173.22 1500.63 31.47 1582.46 31.47 1746.14 173.22 1827.98 314.97 1746.14"/>
    <polygon id="s64" class="cls-1" points="172.47 1828.56 314.97 1746.06 347.97 1824.06 226.47 1896.06 172.47 1828.56"/>
    <polygon id="s47" class="cls-1" points="755.97 1072.56 911.97 1165.56 859.47 1308.06 727.47 1234.56 755.97 1072.56"/>
    <polygon id="s46" class="cls-1" points="1069.47 1075.56 911.97 1165.56 859.47 1311.06 859.97 1396.03 938.97 1350.06 1069.47 1075.56"/>
    <polygon id="s44" class="cls-1" points="266.97 1120.56 346.47 1347.06 472.47 1276.56 430.47 1026.06 266.97 1120.56"/>
    <polygon id="s5" class="cls-1" points="464.97 1236.06 430.47 1026.06 430.47 835.55 464.97 1083.06 464.97 1236.06"/>
    <polygon id="s37" class="cls-1" points="193.47 2320.55 232.47 2328.05 353.97 2257.55 328.47 2241.05 193.47 2320.55"/>
    <polygon id="s108" class="cls-1" points="328.47 2424.05 374.97 2395.55 478.47 2335.55 461.97 2347.55 328.47 2424.05"/>
    <polygon id="_29" data-name="29" class="cls-2" points="461.97 2346.31 461.97 2191.3 327.72 2113.79 193.47 2191.3 193.47 2346.31 327.72 2423.82 461.97 2346.31"/>
    <polygon id="s104" class="cls-1" points="410.97 2163.05 478.47 2202.05 595.47 2134.55 593.97 2056.55 410.97 2163.05"/>
    <polygon id="_7" data-name="7" class="cls-2" points="1069.47 1074.86 1069.47 893.47 912.38 802.78 755.3 893.47 755.3 1074.86 912.38 1165.56 1069.47 1074.86"/>
    <polygon id="s105" class="cls-1" points="689.97 2025.06 593.97 2080.55 595.47 1989.06 727.47 1912.56 689.97 2025.06"/>
    <polygon id="_22" data-name="22" class="cls-2" points="727.47 1912.58 727.47 1761.03 596.22 1685.25 464.97 1761.03 464.97 1912.58 596.22 1988.36 727.47 1912.58"/>
    <polygon id="s103" class="cls-1" points="461.97 2191.55 461.97 2346.05 478.47 2335.55 478.47 2202.05 461.97 2191.55"/>
    <polygon id="s101" class="cls-1" points="278.97 1666.56 347.97 1825.56 472.47 1896.06 436.47 1758.06 278.97 1666.56"/>
    <polygon id="s99" class="cls-1" points="341.97 1026.06 272.97 823.55 110.97 730.55 214.47 942.05 341.97 1026.06"/>
    <polygon id="_18" data-name="18" class="cls-2" points="430.47 1025.75 430.47 836.09 266.22 741.26 101.97 836.09 101.97 1025.75 266.22 1120.58 430.47 1025.75"/>
    <polygon id="_20" data-name="20" class="cls-2" points="595.46 1666.56 595.46 1483.56 436.97 1392.06 278.49 1483.56 278.49 1666.56 436.97 1758.06 595.46 1666.56"/>
    <polygon id="_30" data-name="30" class="cls-2" points="593.97 2056.89 593.97 1844.72 410.22 1738.63 226.47 1844.72 226.47 2056.89 410.22 2162.98 593.97 2056.89"/>
    <polygon id="s98" class="cls-1" points="433.47 543.05 487.47 952.55 487.47 1068.06 433.47 730.55 433.47 543.05"/>
    <polygon id="_16" data-name="16" class="cls-2" points="745.47 1450.47 745.47 1278.13 596.22 1191.97 446.97 1278.13 446.97 1450.47 596.22 1536.64 745.47 1450.47"/>
    <polygon id="s11" class="cls-1" points="461.97 1389.06 461.97 1336.56 328.47 1258.56 352.47 1320.06 461.97 1389.06"/>
    <polygon id="s10" class="cls-1" points="194.97 1336.56 232.47 1389.06 352.47 1320.06 328.47 1258.56 194.97 1336.56"/>
    <polygon id="s6" class="cls-1" points="728.97 1344.06 745.47 1276.56 596.97 1192.56 596.97 1267.56 728.97 1344.06"/>
    <polygon id="s12" class="cls-1" points="596.97 1221.06 596.97 1191.06 446.97 1276.56 470.97 1293.06 596.97 1221.06"/>
    <polygon id="s25" class="cls-1" points="595.47 1548.06 464.97 1471.56 436.47 1392.06 593.97 1483.56 595.47 1548.06"/>
    <polygon id="s24" class="cls-1" points="461.97 1462.56 328.47 1537.56 278.97 1482.06 436.47 1392.06 461.97 1462.56"/>
    <polygon id="s31" class="cls-1" points="328.47 1597.56 314.97 1581.06 173.97 1498.56 194.97 1521.06 328.47 1597.56"/>
    <polygon id="s38" class="cls-1" points="472.47 1912.56 347.97 1984.56 226.47 1845.06 410.97 1738.56 472.47 1912.56"/>
    <polygon id="_25" data-name="25" class="cls-2" points="1010.09 2635.56 1010.09 2516.56 907.03 2457.05 803.97 2516.56 803.97 2635.56 907.03 2695.07 1010.09 2635.56"/>
    <polygon id="s63" class="cls-1" points="883.47 2499.05 973.47 2550.05 1015.47 2527.55 913.47 2467.55 883.47 2499.05"/>
    <polygon id="_1" data-name="1" class="cls-3" points="595.13 619.55 141.8 357.82 142.47 -166.44 595.47 -428.94 1048.47 -166.44 1048.47 357.82 595.13 619.55"/>
    <polygon id="xx05" class="cls-1" points="331.47 2907.05 347.97 2958.05 472.47 3030.05 463.47 2983.55 331.47 2907.05"/>
    <polygon id="xx01" class="cls-1" points="727.47 3607.55 689.97 3648.05 595.47 3702.05 595.47 3683.13 727.47 3607.55"/>
    <polygon id="xx02" class="cls-1" points="727.47 3456.05 721.47 3469.55 598.47 3397.55 598.47 3381.32 727.47 3456.05"/>
    <polygon id="xx03" class="cls-1" points="721.47 3184.55 715.47 3211.55 830.97 3279.05 844.47 3256.55 721.47 3184.55"/>
    <polygon id="xx04" class="cls-1" points="712.47 3225.05 721.47 3184.55 598.47 3256.55 596.97 3291.05 712.47 3225.05"/>
    <polygon id="xxx07" class="cls-1" points="820.47 3046.55 847.47 3031.55 731.97 3099.05 715.47 3108.05 820.47 3046.55"/>
    <polygon id="xxx06" class="cls-1" points="595.47 3045.05 595.47 3028.55 710.97 3094.55 697.47 3106.55 595.47 3045.05"/>
    <polygon id="s51" class="cls-1" points="593.97 1846.56 409.47 1740.06 463.47 1768.56 595.47 1845.06 593.97 1846.56"/>
    <polygon id="yy1" class="cls-1" points="502.47 2770.55 413.97 2824.55 349.47 2859.05 472.22 2787.8 502.47 2770.55"/>
    <polygon id="yy2" class="cls-1" points="230.97 2782.55 316.47 2773.55 413.97 2824.55 353.97 2853.05 230.97 2782.55"/>
    <polygon id="yy3" class="cls-1" points="109.47 2853.05 224.97 2824.55 316.47 2773.55 230.97 2784.05 109.47 2853.05"/>
    <polygon id="yy4" class="cls-1" points="349.47 2994.05 331.47 3022.55 197.97 3099.05 230.97 3061.55 349.47 2994.05"/>
    <polygon id="yy5" class="cls-1" points="316.47 3096.05 224.97 3148.55 88.47 3300.05 215.97 3226.55 316.47 3096.05"/>
    <polygon id="c1" class="cls-3" points="597.76 5079.06 210.8 4855.64 211.37 4408.14 598.05 4184.07 984.72 4408.14 984.72 4855.64 597.76 5079.06"/>
    <polygon id="k01" class="cls-1" points="598.47 4090.55 598.47 4183.56 985.47 4408.56 832.47 4095.05 713.97 4023.05 598.47 4090.55"/>
    <polygon id="k02" class="cls-1" points="482.97 4023.05 329.97 4144.56 211.47 4408.56 598.47 4183.56 598.47 4090.55 482.97 4023.05"/>
  </g>
</svg>
