<svg xmlns="http://www.w3.org/2000/svg" width="1200" height="4736.84" viewBox="0 0 1200 4736.84">
  <defs>
    <style>
      .cls-1 {
        fill: #f2f2f2;
      }

      .cls-1, .cls-2, .cls-3 {
        stroke: #000;
        stroke-miterlimit: 10;
      }

      .cls-2, .cls-3 {
        fill: #fff;
      }

      .cls-3 {
        stroke-width: 2px;
      }
    </style>
  </defs>
  <title>aartics_polygons_vertical</title>
  <g id="_07stage" data-name="07stage">
    <polygon id="s41" class="cls-1" points="806.46 2192.11 705.96 2253.61 711.96 2165.11 830.46 2097.61 806.46 2192.11"/>
    <polygon id="s88" class="cls-1" points="783.96 3750.61 783.96 3642.61 846.96 3677.11 846.96 3819.61 783.96 3750.61"/>
    <polygon id="s40" class="cls-1" points="596.46 2136.61 711.96 2204.11 701.46 2292.61 597.96 2231.11 596.46 2136.61"/>
    <polygon id="s52" class="cls-1" points="806.46 2193.61 912.96 2253.61 947.46 2165.11 830.46 2097.61 806.46 2193.61"/>
    <polygon id="s60" class="cls-1" points="476.46 2648.11 491.46 2691.61 378.96 2622.61 357.96 2580.61 476.46 2648.11"/>
    <polygon id="s62" class="cls-1" points="215.46 2283.61 317.46 2625.61 249.96 2663.11 87.96 2357.11 215.46 2283.61"/>
    <polygon id="s59" class="cls-1" points="594.96 2469.61 462.96 2546.11 491.46 2642.11 594.96 2579.11 594.96 2469.61"/>
    <polygon id="s61" class="cls-1" points="378.96 2526.61 378.96 2649.61 357.96 2576.11 341.46 2502.61 341.46 2357.11 378.96 2526.61"/>
    <polygon id="s57" class="cls-1" points="785.46 2786.11 878.46 2835.61 1070.46 2345.11 912.96 2255.11 785.46 2786.11"/>
    <polygon id="s56" class="cls-1" points="692.46 2835.61 785.46 2786.11 912.96 2255.11 755.46 2345.11 692.46 2835.61"/>
    <polygon id="s94" class="cls-1" points="327.96 3584.11 236.46 3636.61 120.96 3671.11 240.96 3602.11 327.96 3584.11"/>
    <polygon id="_42" data-name="42" class="cls-2" points="354.96 3813.58 354.96 3674.15 234.21 3604.43 113.46 3674.15 113.46 3813.58 234.21 3883.29 354.96 3813.58"/>
    <polygon id="_50" data-name="50" class="cls-2" points="950.46 4007.28 950.46 3872.17 833.46 3804.61 716.45 3872.17 716.45 4007.28 833.46 4074.83 950.46 4007.28"/>
    <polygon id="_49" data-name="49" class="cls-2" points="714.96 4000.3 714.96 3866.93 599.46 3800.24 483.96 3866.93 483.96 4000.3 599.46 4066.98 714.96 4000.3"/>
    <polygon id="_48" data-name="48" class="cls-2" points="464.46 4073.37 464.46 3918.35 330.21 3840.84 195.96 3918.35 195.96 4073.37 330.21 4150.88 464.46 4073.37"/>
    <polygon id="_51" data-name="51" class="cls-2" points="1091.46 3818.94 1091.46 3677.78 969.21 3607.2 846.96 3677.78 846.96 3818.94 969.21 3889.53 1091.46 3818.94"/>
    <polygon id="s87" class="cls-1" points="690.96 3590.11 783.96 3642.61 915.96 3710.11 758.46 3620.11 690.96 3590.11"/>
    <polygon id="s90" class="cls-1" points="783.96 3750.61 833.46 3804.61 716.46 3872.11 690.96 3804.61 783.96 3750.61"/>
    <polygon id="s92" class="cls-1" points="845.46 3387.61 914.46 3348.61 1071.96 3438.61 977.46 3459.61 845.46 3387.61"/>
    <polygon id="s91" class="cls-1" points="728.46 3456.61 758.46 3438.61 914.46 3348.61 843.96 3389.11 728.46 3456.61"/>
    <polygon id="s89" class="cls-1" points="690.96 3804.61 714.96 3866.93 599.46 3800.11 597.96 3750.61 690.96 3804.61"/>
    <polygon id="s85" class="cls-1" points="234.96 3882.61 195.96 3918.61 329.46 3840.61 354.96 3813.61 234.96 3882.61"/>
    <polygon id="s84" class="cls-1" points="344.46 3384.61 360.96 3398.11 242.46 3465.61 216.96 3458.11 344.46 3384.61"/>
    <polygon id="s82" class="cls-1" points="464.46 3146.11 488.46 3221.11 380.46 3281.11 332.46 3222.61 464.46 3146.11"/>
    <polygon id="s80" class="cls-1" points="483.96 3201.61 598.65 3267.61 597.96 3285.61 488.46 3222.61 483.96 3201.61"/>
    <polygon id="s79" class="cls-1" points="464.46 2993.11 483.96 3068.11 483.96 3201.61 464.46 3146.11 464.46 2993.11"/>
    <polygon id="s78" class="cls-1" points="597.96 2952.61 597.96 3002.11 483.96 3068.11 473.46 3024.37 597.96 2952.61"/>
    <polygon id="s77" class="cls-1" points="110.46 2972.11 224.46 3105.61 317.46 3159.61 231.96 3041.11 110.46 2972.11"/>
    <polygon id="s76" class="cls-1" points="947.46 3192.61 876.96 3267.61 783.96 3321.61 831.96 3260.11 947.46 3192.61"/>
    <polygon id="s75" class="cls-1" points="1089.96 2961.61 968.46 3108.61 876.96 3159.61 968.46 3032.11 1089.96 2961.61"/>
    <polygon id="s73" class="cls-1" points="845.46 2820.61 804.96 2937.61 804.96 3056.11 845.46 2961.61 845.46 2820.61"/>
    <polygon id="s70" class="cls-1" points="726.96 2694.61 699.96 2876.11 598.65 2938.36 594.96 2771.11 726.96 2694.61"/>
    <polygon id="s68" class="cls-1" points="713.24 3068.11 716.43 3060.61 716.43 3192.61 713.24 3201.61 713.24 3068.11"/>
    <polygon id="s66" class="cls-1" points="471.96 3894.61 464.46 3918.61 329.46 3840.61 347.46 3822.61 471.96 3894.61"/>
    <polygon id="s67" class="cls-1" points="483.96 3999.61 464.46 4073.11 464.46 3912.61 483.96 3867.61 483.96 3999.61"/>
    <polygon id="s97" class="cls-1" points="380.46 3410.11 359.46 3398.11 477.96 3465.61 488.46 3473.11 380.46 3410.11"/>
    <polygon id="s95" class="cls-1" points="477.96 3602.11 467.46 3609.61 347.46 3678.61 359.46 3669.61 477.96 3602.11"/>
    <polygon id="s93" class="cls-1" points="359.46 3669.61 354.96 3674.11 233.46 3605.11 243.96 3603.61 359.46 3669.61"/>
    <polygon id="s58" class="cls-1" points="719.46 2544.61 726.96 2511.61 594.96 2435.11 594.96 2472.61 719.46 2544.61"/>
    <polygon id="s35" class="cls-1" points="711.96 2312.11 719.46 2256.61 594.96 2328.61 596.46 2382.61 711.96 2312.11"/>
    <polygon id="s36" class="cls-1" points="717.96 2304.61 828.96 2369.11 843.96 2328.61 719.46 2256.61 717.96 2304.61"/>
    <polygon id="s83" class="cls-1" points="344.46 3237.61 380.46 3281.11 380.46 3409.59 344.46 3384.61 344.46 3237.61"/>
    <polygon id="_45" data-name="45" class="cls-2" points="477.96 3601.85 477.96 3465.88 360.21 3397.9 242.46 3465.88 242.46 3601.85 360.21 3669.83 477.96 3601.85"/>
    <polygon id="_39" data-name="39" class="cls-2" points="713.46 3201.33 713.46 3068.76 598.65 3002.48 483.85 3068.76 483.85 3201.33 598.65 3267.61 713.46 3201.33"/>
    <polygon id="_37" data-name="37" class="cls-2" points="947.46 3193.3 947.46 3059.93 831.96 2993.24 716.46 3059.93 716.46 3193.3 831.96 3259.98 947.46 3193.3"/>
    <polygon id="_36" data-name="36" class="cls-2" points="845.46 3388.13 845.46 3246.1 722.46 3175.09 599.46 3246.1 599.46 3388.13 722.46 3459.14 845.46 3388.13"/>
    <polygon id="s86" class="cls-1" points="728.46 3456.61 758.46 3438.61 758.46 3620.11 728.46 3607.91 728.46 3456.61"/>
    <polygon id="_44" data-name="44" class="cls-2" points="1071.96 3619.86 1071.96 3438.86 915.21 3348.36 758.46 3438.86 758.46 3619.86 915.21 3710.36 1071.96 3619.86"/>
    <polygon id="_43" data-name="43" class="cls-2" points="596.46 3822.49 596.46 3678.73 471.96 3606.85 347.46 3678.73 347.46 3822.49 471.96 3894.37 596.46 3822.49"/>
    <polygon id="s96" class="cls-1" points="465.96 3456.61 488.46 3473.11 598.65 3413.11 597.96 3380.11 465.96 3456.61"/>
    <polygon id="_46" data-name="46" class="cls-2" points="728.46 3607.91 728.46 3456.35 597.21 3380.58 465.96 3456.35 465.96 3607.91 597.21 3683.69 728.46 3607.91"/>
    <polygon id="_47" data-name="47" class="cls-2" points="344.46 3384.72 344.46 3237.5 216.96 3163.89 89.46 3237.5 89.46 3384.72 216.96 3458.34 344.46 3384.72"/>
    <polygon id="s81" class="cls-1" points="198.96 3146.11 216.96 3164.11 344.46 3237.5 332.46 3222.61 198.96 3146.11"/>
    <polygon id="_26" data-name="26" class="cls-2" points="711.96 2336.36 711.96 2202.13 595.71 2135.01 479.46 2202.13 479.46 2336.36 595.71 2403.48 711.96 2336.36"/>
    <polygon id="_27" data-name="27" class="cls-2" points="947.46 2301.35 947.46 2165.38 829.71 2097.4 711.96 2165.38 711.96 2301.35 829.71 2369.33 947.46 2301.35"/>
    <polygon id="_28" data-name="28" class="cls-2" points="843.96 2485.99 843.96 2342.23 719.46 2270.35 594.96 2342.23 594.96 2485.99 719.46 2557.87 843.96 2485.99"/>
    <polygon id="_33" data-name="33" class="cls-2" points="476.38 2779.99 476.38 2644.07 358.67 2576.11 240.96 2644.07 240.96 2779.99 358.67 2847.95 476.38 2779.99"/>
    <polygon id="_32" data-name="32" class="cls-2" points="351.96 2972.08 351.96 2832.65 231.21 2762.93 110.46 2832.65 110.46 2972.08 231.21 3041.79 351.96 2972.08"/>
    <polygon id="_41" data-name="41" class="cls-2" points="597.96 2952.49 597.96 2808.73 473.46 2736.85 348.96 2808.73 348.96 2952.49 473.46 3024.37 597.96 2952.49"/>
    <polygon id="s74" class="cls-1" points="845.46 2961.61 831.96 2993.11 947.46 3059.93 968.46 3032.11 845.46 2961.61"/>
    <polygon id="_38" data-name="38" class="cls-2" points="1089.96 2961.67 1089.96 2820.79 967.96 2750.35 845.95 2820.79 845.95 2961.67 967.96 3032.11 1089.96 2961.67"/>
    <polygon id="_40" data-name="40" class="cls-2" points="464.46 3145.51 464.46 2992.22 331.71 2915.58 198.96 2992.22 198.96 3145.51 331.71 3222.15 464.46 3145.51"/>
    <polygon id="s71" class="cls-1" points="462.96 2694.61 473.46 2736.61 597.96 2808.61 594.96 2771.11 462.96 2694.61"/>
    <polygon id="s69" class="cls-1" points="912.96 2618.11 804.96 2939.11 699.96 2876.11 755.46 2528.11 912.96 2618.11"/>
    <polygon id="_35" data-name="35" class="cls-2" points="726.27 2694.64 726.27 2542.62 594.61 2466.61 462.96 2542.62 462.96 2694.64 594.61 2770.65 726.27 2694.64"/>
    <polygon id="_34" data-name="34" class="cls-2" points="341.46 2503.04 341.46 2356.68 214.71 2283.51 87.96 2356.68 87.96 2503.04 214.71 2576.22 341.46 2503.04"/>
    <polygon id="s55" class="cls-1" points="726.96 2694.61 755.46 2528.11 755.46 2345.11 726.96 2543.11 726.96 2694.61"/>
    <polygon id="s72" class="cls-1" points="1070.46 2528.11 968.46 2750.11 845.46 2820.61 912.96 2618.11 1070.46 2528.11"/>
    <polygon id="_31" data-name="31" class="cls-2" points="1070.46 2527.55 1070.46 2345.68 912.96 2254.75 755.46 2345.68 755.46 2527.55 912.96 2618.48 1070.46 2527.55"/>
    <polygon id="s110" class="cls-1" points="876.96 1694.11 875.46 1791.61 887.46 1793.11 885.96 1683.61 876.96 1694.11"/>
    <polygon id="s1" class="cls-1" points="945.96 570.61 945.96 708.61 894.96 818.11 893.46 704.11 945.96 570.61"/>
    <polygon id="_2" data-name="2" class="cls-2" points="1188.96 705.03 1188.96 568.2 1070.46 499.78 951.96 568.2 951.96 705.03 1070.46 773.45 1188.96 705.03"/>
    <polygon id="s33" class="cls-1" points="1049.46 362.11 596.46 623.11 597.96 984.61 722.46 911.11 1049.46 362.11"/>
    <polygon id="s32" class="cls-1" points="143.46 362.11 488.46 1008.61 596.46 1067.11 596.46 623.11 143.46 362.11"/>
    <polygon id="s3" class="cls-1" points="434.46 731.11 273.96 824.11 378.96 1130.11 488.46 1068.61 434.46 731.11"/>
    <polygon id="s20" class="cls-1" points="911.46 1670.11 782.46 1971.61 876.96 2021.11 1070.46 1761.61 911.46 1670.11"/>
    <polygon id="s23" class="cls-1" points="597.96 1974.61 503.46 2027.11 465.96 1866.61 596.46 1790.11 597.96 1974.61"/>
    <polygon id="s50" class="cls-1" points="596.46 1667.11 596.46 1790.11 465.96 1866.61 437.46 1758.61 596.46 1667.11"/>
    <polygon id="s19" class="cls-1" points="843.96 846.61 843.96 981.61 870.96 821.11 870.96 663.61 843.96 846.61"/>
    <polygon id="s18" class="cls-1" points="912.96 803.11 857.46 1008.61 728.46 1083.61 756.96 894.61 912.96 803.11"/>
    <polygon id="s17" class="cls-1" points="597.96 1184.11 596.46 1008.61 728.46 1083.61 687.96 1236.61 597.96 1184.11"/>
    <polygon id="s16" class="cls-1" points="597.96 1184.11 506.46 1238.11 465.96 1083.61 596.46 1008.61 597.96 1184.11"/>
    <polygon id="s15" class="cls-1" points="380.46 1257.61 380.46 1130.11 342.96 1026.61 342.96 1169.11 380.46 1257.61"/>
    <polygon id="s14" class="cls-1" points="431.46 836.11 506.46 1238.11 410.46 1190.11 269.46 741.61 431.46 836.11"/>
    <polygon id="s9" class="cls-1" points="875.46 1803.61 906.96 1743.61 1010.46 1803.61 969.96 1857.61 875.46 1803.61"/>
    <polygon id="s8" class="cls-1" points="875.46 1803.61 782.46 1857.61 803.46 1803.61 906.96 1743.61 875.46 1803.61"/>
    <polygon id="s7" class="cls-1" points="782.46 1857.61 782.46 1971.61 803.46 1923.61 803.46 1803.61 782.46 1857.61"/>
    <polygon id="_9" data-name="9" class="cls-2" points="1081.29 1783.66 1081.29 1671.75 984.38 1615.8 887.46 1671.75 887.46 1783.66 984.38 1839.61 1081.29 1783.66"/>
    <polygon id="s48" class="cls-1" points="690.96 1803.61 695.46 1763.11 797.46 1821.61 782.46 1857.61 690.96 1803.61"/>
    <polygon id="s54" class="cls-1" points="1052.46 1470.61 984.96 1625.11 887.46 1680.61 939.96 1536.61 1052.46 1470.61"/>
    <polygon id="_10" data-name="10" class="cls-2" points="897.96 1763.82 897.96 1646.91 796.71 1588.45 695.46 1646.91 695.46 1763.82 796.71 1822.28 897.96 1763.82"/>
    <polygon id="_5" data-name="5" class="cls-2" points="342.96 867.84 342.96 720.62 215.46 647 87.96 720.62 87.96 867.84 215.46 941.45 342.96 867.84"/>
    <polygon id="s43" class="cls-1" points="102.96 1026.61 231.96 1307.11 353.46 1376.11 267.96 1121.11 102.96 1026.61"/>
    <polygon id="s53" class="cls-1" points="111.96 1421.11 233.46 1490.11 315.96 1697.11 224.46 1647.61 111.96 1421.11"/>
    <polygon id="_14" data-name="14" class="cls-2" points="353.46 1418.11 353.46 1278.65 232.71 1208.93 111.96 1278.65 111.96 1418.08 232.71 1487.79 353.46 1418.11"/>
    <polygon id="_13" data-name="13" class="cls-2" points="597.96 1347.52 597.96 1202.9 472.71 1130.59 347.46 1202.9 347.46 1347.52 472.71 1419.84 597.96 1347.52"/>
    <polygon id="s29" class="cls-1" points="315.96 2134.36 233.46 2048.11 111.96 2118.61 224.46 2186.11 315.96 2134.36"/>
    <polygon id="_23" data-name="23" class="cls-2" points="354.47 2258.13 354.47 2118.12 233.22 2048.11 111.96 2118.12 111.96 2258.13 233.22 2328.14 354.47 2258.13"/>
    <polygon id="s27" class="cls-1" points="411.96 2187.61 410.46 2292.61 354.96 2255.11 354.96 2118.61 411.96 2187.61"/>
    <polygon id="s28" class="cls-1" points="315.96 2133.61 411.96 2187.61 354.96 2118.61 233.46 2048.11 315.96 2133.61"/>
    <polygon id="_19" data-name="19" class="cls-2" points="472.77 2041.16 472.77 1897.79 348.62 1826.11 224.46 1897.79 224.46 2041.16 348.62 2112.84 472.77 2041.16"/>
    <polygon id="s26" class="cls-1" points="32.46 1583.11 224.46 1862.11 315.96 1805.11 174.96 1505.11 32.46 1583.11"/>
    <polygon id="_15" data-name="15" class="cls-2" points="462.96 1533.01 462.96 1378.8 329.41 1301.69 195.86 1378.8 195.86 1533.01 329.41 1610.11 462.96 1533.01"/>
    <polygon id="s42" class="cls-1" points="825.96 1470.61 796.71 1587.61 897.96 1646.11 939.96 1536.61 825.96 1470.61"/>
    <polygon id="_8" data-name="8" class="cls-2" points="1053.96 1470.43 1053.96 1338.8 939.96 1272.98 825.96 1338.8 825.96 1470.43 939.96 1536.25 1053.96 1470.43"/>
    <polygon id="s2" class="cls-1" points="870.96 663.61 1008.96 584.11 875.46 821.11 849.96 798.61 870.96 663.61"/>
    <polygon id="_6" data-name="6" class="cls-2" points="845.77 1055.22 845.77 912.15 721.87 840.61 597.96 912.15 597.96 1055.22 721.87 1126.76 845.77 1055.22"/>
    <polygon id="s45" class="cls-1" points="465.96 1236.61 473.46 1277.11 596.46 1347.61 597.21 1311.61 465.96 1236.61"/>
    <polygon id="_12" data-name="12" class="cls-2" points="728.46 1235.84 728.46 1084.28 597.21 1008.5 465.96 1084.28 465.96 1235.84 597.21 1311.61 728.46 1235.84"/>
    <polygon id="_11" data-name="11" class="cls-2" points="860.96 1337.69 860.96 1185.85 729.46 1109.92 597.96 1185.85 597.96 1337.69 729.46 1413.61 860.96 1337.69"/>
    <polygon id="s100" class="cls-1" points="860.46 1334.11 729.96 1409.11 695.46 1647.61 795.96 1589.11 860.46 1334.11"/>
    <polygon id="s49" class="cls-1" points="746.46 1455.61 689.46 1803.61 596.45 1857.61 597.21 1541.11 746.46 1455.61"/>
    <polygon id="s4" class="cls-1" points="728.46 1083.61 755.46 896.11 756.96 1073.11 729.96 1236.61 728.46 1083.61"/>
    <polygon id="_17" data-name="17" class="cls-2" points="1010.46 1923.48 1010.46 1803.97 906.96 1744.22 803.46 1803.97 803.46 1923.48 906.96 1983.24 1010.46 1923.48"/>
    <polygon id="s34" class="cls-1" points="1145.46 821.11 1071.96 909.61 1070.46 893.11 1044.96 879.61 1145.46 821.11"/>
    <polygon id="_3" data-name="3" class="cls-2" points="434.46 730.46 434.46 544.27 273.21 451.17 111.96 544.27 111.96 730.46 273.21 823.56 434.46 730.46"/>
    <polygon id="_4" data-name="4" class="cls-2" points="1145.46 821.61 1145.46 663.12 1008.21 583.88 870.96 663.12 870.96 821.61 1008.21 900.85 1145.46 821.61"/>
    <polygon id="s107" class="cls-1" points="1070.46 1838.11 876.96 2022.61 782.46 2076.61 912.96 1928.11 1070.46 1838.11"/>
    <polygon id="s106" class="cls-1" points="753.96 1838.11 912.96 1928.11 782.46 2076.61 690.96 2025.61 728.73 1913.21 753.96 1838.11"/>
    <polygon id="s65" class="cls-1" points="329.46 1592.11 329.46 1749.97 315.96 1739.11 315.96 1575.61 329.46 1592.11"/>
    <polygon id="s21" class="cls-1" points="782.46 1971.61 690.96 2025.61 753.96 1755.61 911.46 1664.11 782.46 1971.61"/>
    <polygon id="s30" class="cls-1" points="728.46 1761.61 728.46 1913.11 753.96 1836.61 753.96 1650.61 728.46 1761.61"/>
    <polygon id="s22" class="cls-1" points="690.96 2025.61 597.96 1974.61 596.46 1790.11 728.46 1866.61 690.96 2025.61"/>
    <polygon id="_24" data-name="24" class="cls-2" points="1070.46 1837.23 1070.46 1654.5 912.21 1563.13 753.96 1654.5 753.96 1837.23 912.21 1928.6 1070.46 1837.23"/>
    <polygon id="s102" class="cls-1" points="32.46 1746.61 227.46 1973.11 227.46 1896.61 173.46 1829.11 32.46 1746.61"/>
    <polygon id="_21" data-name="21" class="cls-2" points="315.96 1746.7 315.96 1583.02 174.21 1501.18 32.46 1583.02 32.46 1746.7 174.21 1828.54 315.96 1746.7"/>
    <polygon id="s64" class="cls-1" points="173.46 1829.11 315.96 1746.61 348.96 1824.61 227.46 1896.61 173.46 1829.11"/>
    <polygon id="s47" class="cls-1" points="756.96 1073.11 912.96 1166.11 860.46 1308.61 728.46 1235.11 756.96 1073.11"/>
    <polygon id="s46" class="cls-1" points="1070.46 1076.11 912.96 1166.11 860.46 1311.61 860.96 1396.59 939.96 1350.61 1070.46 1076.11"/>
    <polygon id="s44" class="cls-1" points="267.96 1121.11 347.46 1347.61 473.46 1277.11 431.46 1026.61 267.96 1121.11"/>
    <polygon id="s5" class="cls-1" points="465.96 1236.61 431.46 1026.61 431.46 836.11 465.96 1083.61 465.96 1236.61"/>
    <polygon id="s37" class="cls-1" points="194.46 2321.11 233.46 2328.61 354.96 2258.11 329.46 2241.61 194.46 2321.11"/>
    <polygon id="s108" class="cls-1" points="329.46 2426.11 375.96 2397.61 479.46 2337.61 462.96 2349.61 329.46 2426.11"/>
    <polygon id="_29" data-name="29" class="cls-2" points="462.96 2348.37 462.96 2193.35 328.71 2115.84 194.46 2193.35 194.46 2348.37 328.71 2425.88 462.96 2348.37"/>
    <polygon id="s104" class="cls-1" points="411.96 2163.61 479.46 2202.61 596.46 2135.11 594.96 2057.11 411.96 2163.61"/>
    <polygon id="_7" data-name="7" class="cls-2" points="1070.46 1075.42 1070.46 894.03 913.38 803.34 756.29 894.03 756.29 1075.42 913.38 1166.11 1070.46 1075.42"/>
    <polygon id="s105" class="cls-1" points="690.96 2025.61 594.96 2081.11 596.46 1989.61 728.46 1913.11 690.96 2025.61"/>
    <polygon id="_22" data-name="22" class="cls-2" points="728.46 1913.14 728.46 1761.59 597.21 1685.81 465.96 1761.59 465.96 1913.14 597.21 1988.92 728.46 1913.14"/>
    <polygon id="s103" class="cls-1" points="462.96 2193.61 462.96 2348.11 479.46 2337.61 479.46 2204.11 462.96 2193.61"/>
    <polygon id="s101" class="cls-1" points="279.96 1667.11 348.96 1826.11 473.46 1896.61 437.46 1758.61 279.96 1667.11"/>
    <polygon id="s99" class="cls-1" points="342.96 1026.61 273.96 824.11 111.96 731.11 215.46 942.61 342.96 1026.61"/>
    <polygon id="_18" data-name="18" class="cls-2" points="431.46 1026.31 431.46 836.65 267.21 741.82 102.96 836.65 102.96 1026.31 267.21 1121.14 431.46 1026.31"/>
    <polygon id="_20" data-name="20" class="cls-2" points="596.45 1667.11 596.45 1484.11 437.96 1392.61 279.48 1484.11 279.48 1667.11 437.96 1758.61 596.45 1667.11"/>
    <polygon id="_30" data-name="30" class="cls-2" points="594.96 2057.45 594.96 1845.28 411.21 1739.19 227.46 1845.28 227.46 2057.45 411.21 2163.54 594.96 2057.45"/>
    <polygon id="s98" class="cls-1" points="434.46 543.61 488.46 953.11 488.46 1068.61 434.46 731.11 434.46 543.61"/>
    <polygon id="_16" data-name="16" class="cls-2" points="746.46 1451.03 746.46 1278.69 597.21 1192.52 447.96 1278.69 447.96 1451.03 597.21 1537.2 746.46 1451.03"/>
    <polygon id="s11" class="cls-1" points="462.96 1389.61 462.96 1337.11 329.46 1259.11 353.46 1320.61 462.96 1389.61"/>
    <polygon id="s10" class="cls-1" points="195.96 1337.11 233.46 1389.61 353.46 1320.61 329.46 1259.11 195.96 1337.11"/>
    <polygon id="s6" class="cls-1" points="729.96 1344.61 746.46 1277.11 597.96 1193.11 597.96 1268.11 729.96 1344.61"/>
    <polygon id="s12" class="cls-1" points="597.96 1221.61 597.96 1191.61 447.96 1277.11 471.96 1293.61 597.96 1221.61"/>
    <polygon id="s25" class="cls-1" points="596.46 1551.61 465.96 1475.11 437.46 1395.61 594.96 1487.11 596.46 1551.61"/>
    <polygon id="s24" class="cls-1" points="462.96 1466.11 329.46 1541.11 279.96 1485.61 437.46 1395.61 462.96 1466.11"/>
    <polygon id="s31" class="cls-1" points="329.46 1601.11 315.96 1584.61 174.96 1502.11 195.96 1524.61 329.46 1601.11"/>
    <polygon id="s38" class="cls-1" points="473.46 1913.11 348.96 1985.11 227.46 1845.61 411.96 1739.11 473.46 1913.11"/>
    <polygon id="_25" data-name="25" class="cls-2" points="1011.09 2636.12 1011.09 2517.12 908.02 2457.61 804.96 2517.12 804.96 2636.12 908.02 2695.63 1011.09 2636.12"/>
    <polygon id="s63" class="cls-1" points="884.46 2499.61 974.46 2550.61 1016.46 2528.11 914.46 2468.11 884.46 2499.61"/>
    <polygon id="_1" data-name="1" class="cls-3" points="596.13 620.11 142.79 358.38 143.46 -165.89 596.46 -428.39 1049.46 -165.89 1049.46 358.38 596.13 620.11"/>
    <polygon id="xx05" class="cls-1" points="332.46 2916.61 348.96 2952.61 473.46 3024.61 464.46 2993.11 332.46 2916.61"/>
    <polygon id="xx01" class="cls-1" points="728.46 3608.11 690.96 3648.61 596.46 3702.61 596.46 3683.69 728.46 3608.11"/>
    <polygon id="xx02" class="cls-1" points="728.46 3456.61 722.46 3470.11 599.46 3398.11 599.46 3381.88 728.46 3456.61"/>
    <polygon id="xx03" class="cls-1" points="722.46 3185.11 716.46 3212.11 831.96 3279.61 845.46 3257.11 722.46 3185.11"/>
    <polygon id="xx04" class="cls-1" points="713.46 3225.61 722.46 3185.11 599.46 3257.11 597.96 3291.61 713.46 3225.61"/>
    <polygon id="xxx07" class="cls-1" points="821.46 3020.11 848.46 3005.11 732.96 3072.61 716.46 3081.61 821.46 3020.11"/>
    <polygon id="xxx06" class="cls-1" points="596.46 3018.61 596.46 3002.11 711.96 3068.11 698.46 3080.11 596.46 3018.61"/>
    <polygon id="s51" class="cls-1" points="594.96 1847.11 410.46 1740.61 464.46 1770.61 596.46 1847.11 594.96 1847.11"/>
    <polygon id="yy1" class="cls-1" points="503.46 2756.11 414.96 2810.11 350.46 2844.61 473.21 2773.36 503.46 2756.11"/>
    <polygon id="yy2" class="cls-1" points="231.96 2768.11 317.46 2759.11 414.96 2810.11 354.96 2838.61 231.96 2768.11"/>
    <polygon id="yy3" class="cls-1" points="110.46 2838.61 225.96 2810.11 317.46 2759.11 231.96 2769.61 110.46 2838.61"/>
    <polygon id="yy4" class="cls-1" points="350.46 2979.61 332.46 3008.11 198.96 3084.61 231.96 3047.11 350.46 2979.61"/>
    <polygon id="yy5" class="cls-1" points="317.46 3081.61 225.96 3134.11 89.46 3285.61 216.96 3212.11 317.46 3081.61"/>
    <polygon id="c1" class="cls-3" points="598.75 5079.61 211.79 4856.2 212.36 4408.69 599.04 4184.63 985.71 4408.69 985.71 4856.2 598.75 5079.61"/>
    <polygon id="k01" class="cls-1" points="599.46 4067.11 599.46 4184.11 986.46 4409.11 833.46 4074.61 714.96 3999.61 599.46 4067.11"/>
    <polygon id="k02" class="cls-1" points="483.96 3999.61 330.96 4145.11 212.46 4409.11 599.46 4184.11 599.46 4067.11 483.96 3999.61"/>
  </g>
</svg>
