<svg xmlns="http://www.w3.org/2000/svg" width="1200" height="4736.84" viewBox="0 0 1200 4736.84">
  <defs>
    <style>
      .cls-1 {
        fill: #f2f2f2;
      }

      .cls-1, .cls-2, .cls-3 {
        stroke: #000;
        stroke-miterlimit: 10;
      }

      .cls-2, .cls-3 {
        fill: #fff;
      }

      .cls-3 {
        stroke-width: 2px;
      }
    </style>
  </defs>
  <title>aartics_polygons_vertical</title>
  <g id="_02stage" data-name="02stage">
    <polygon id="s63" class="cls-1" points="877.73 2544.02 967.73 2595.02 1009.73 2646.02 907.73 2586.02 877.73 2544.02"/>
    <polygon id="_25" data-name="25" class="cls-2" points="1010.35 2764.53 1010.35 2645.52 907.29 2586.02 804.23 2645.52 804.23 2764.53 907.29 2824.03 1010.35 2764.53"/>
    <polygon id="s41" class="cls-1" points="781.73 2296.52 688.73 2350.52 711.23 2509.52 829.73 2442.02 781.73 2296.52"/>
    <polygon id="s40" class="cls-1" points="595.73 2436.02 711.23 2503.52 688.73 2350.52 595.73 2295.02 595.73 2436.02"/>
    <polygon id="s88" class="cls-1" points="727.73 3798.02 727.73 3646.52 757.73 3807.02 757.73 3988.52 727.73 3798.02"/>
    <polygon id="s52" class="cls-1" points="781.73 2296.52 874.73 2350.52 946.73 2509.52 829.73 2442.02 781.73 2296.52"/>
    <polygon id="s60" class="cls-1" points="475.73 2920.52 486.23 2857.52 378.23 2796.02 357.23 2853.02 475.73 2920.52"/>
    <polygon id="s62" class="cls-1" points="214.72 2568.02 315.23 2542.52 214.72 2682.02 87.22 2755.52 214.72 2568.02"/>
    <polygon id="s59" class="cls-1" points="594.23 2929.52 462.23 3006.02 486.23 2857.52 593.88 2796.02 594.23 2929.52"/>
    <polygon id="s61" class="cls-1" points="378.23 2671.52 378.23 2796.02 357.88 2852.99 340.73 2901.02 340.73 2755.52 378.23 2671.52"/>
    <polygon id="s57" class="cls-1" points="804.23 2764.52 907.73 2824.52 1069.72 3169.52 912.23 3079.52 804.23 2764.52"/>
    <polygon id="s56" class="cls-1" points="718.73 2956.52 843.23 2884.4 912.23 3079.52 754.73 3169.52 718.73 2956.52"/>
    <polygon id="s94" class="cls-1" points="319.73 3517.52 228.22 3570.02 112.72 3789.02 232.72 3720.02 319.73 3517.52"/>
    <polygon id="_42" data-name="42" class="cls-2" points="354.23 3928.48 354.23 3789.05 233.47 3719.34 112.72 3789.05 112.72 3928.48 233.47 3998.2 354.23 3928.48"/>
    <polygon id="_50" data-name="50" class="cls-2" points="949.73 4018.68 949.73 3883.57 832.72 3816.02 715.71 3883.57 715.71 4018.68 832.72 4086.23 949.73 4018.68"/>
    <polygon id="_49" data-name="49" class="cls-2" points="714.23 4005.7 714.23 3872.33 598.73 3805.65 483.23 3872.33 483.23 4005.7 598.73 4072.39 714.23 4005.7"/>
    <polygon id="_48" data-name="48" class="cls-2" points="463.73 4144.78 463.73 3989.76 329.48 3912.25 195.22 3989.76 195.22 4144.78 329.48 4222.29 463.73 4144.78"/>
    <polygon id="_51" data-name="51" class="cls-2" points="1090.72 3852.85 1090.72 3711.69 968.48 3641.11 846.23 3711.69 846.23 3852.85 968.48 3923.43 1090.72 3852.85"/>
    <polygon id="s87" class="cls-1" points="690.23 3510.02 783.23 3570.02 915.23 4078.52 757.73 3988.52 690.23 3510.02"/>
    <polygon id="s90" class="cls-1" points="783.23 3678.02 832.73 3816.02 715.73 3883.52 690.23 3733.52 783.23 3678.02"/>
    <polygon id="s92" class="cls-1" points="844.73 3534.02 915.23 3717.02 1071.22 3810.02 976.73 3612.02 844.73 3534.02"/>
    <polygon id="s91" class="cls-1" points="721.73 3597.02 757.73 3807.02 913.73 3717.02 844.73 3525.02 721.73 3597.02"/>
    <polygon id="s89" class="cls-1" points="690.23 3733.52 714.23 3873.02 598.73 3805.52 597.23 3678.02 690.23 3733.52"/>
    <polygon id="s85" class="cls-1" points="234.22 3907.52 195.22 3990.02 330.23 3912.02 354.23 3838.52 234.22 3907.52"/>
    <polygon id="s84" class="cls-1" points="343.73 3544.52 358.73 3496.52 241.72 3564.02 216.22 3618.02 343.73 3544.52"/>
    <polygon id="s82" class="cls-1" points="463.73 3496.52 483.23 3363.02 379.73 3442.52 331.73 3576.02 463.73 3496.52"/>
    <polygon id="s80" class="cls-1" points="483.23 3208.52 597.92 3274.52 598.73 3264.02 492.23 3204.02 483.23 3208.52"/>
    <polygon id="s79" class="cls-1" points="463.73 3345.02 483.23 3225.02 483.23 3358.52 463.73 3499.52 463.73 3345.02"/>
    <polygon id="s78" class="cls-1" points="597.23 3099.02 597.23 3079.52 483.23 3145.52 472.73 3171.02 597.23 3099.02"/>
    <polygon id="s77" class="cls-1" points="109.72 3286.52 229.72 3355.52 316.73 3277.52 223.72 3228.02 109.72 3286.52"/>
    <polygon id="s76" class="cls-1" points="946.73 3282.02 876.23 3195.02 783.23 3249.02 831.23 3349.52 946.73 3282.02"/>
    <polygon id="s75" class="cls-1" points="1089.22 3205.52 967.73 3145.52 876.23 3199.52 967.73 3276.02 1089.22 3205.52"/>
    <polygon id="s73" class="cls-1" points="844.73 3186.02 804.23 3165.02 804.23 3282.02 844.73 3327.02 844.73 3186.02"/>
    <polygon id="s70" class="cls-1" points="726.23 2884.52 690.23 2866.52 597.23 2922.02 594.23 2961.02 726.23 2884.52"/>
    <polygon id="s68" class="cls-1" points="712.73 3229.52 715.73 3234.02 715.73 3366.02 712.73 3363.02 712.73 3229.52"/>
    <polygon id="s66" class="cls-1" points="471.23 3936.02 463.73 3990.02 330.23 3912.02 346.73 3864.02 471.23 3936.02"/>
    <polygon id="s67" class="cls-1" points="483.23 4005.02 463.73 4144.52 463.73 4008.02 483.23 3873.02 483.23 4005.02"/>
    <polygon id="s97" class="cls-1" points="379.73 3442.52 360.23 3496.52 477.23 3564.02 487.73 3502.52 379.73 3442.52"/>
    <polygon id="s93" class="cls-1" points="358.73 3768.02 354.23 3789.02 232.72 3720.02 241.72 3700.25 358.73 3768.02"/>
    <polygon id="s58" class="cls-1" points="718.73 2956.52 726.23 3006.02 594.23 2929.52 594.23 2884.4 718.73 2956.52"/>
    <polygon id="s35" class="cls-1" points="711.23 2625.02 718.73 2689.52 594.23 2761.52 594.23 2692.52 711.23 2625.02"/>
    <polygon id="s36" class="cls-1" points="711.23 2637.02 829.73 2704.52 843.23 2761.52 718.73 2689.52 711.23 2637.02"/>
    <polygon id="s83" class="cls-1" points="343.73 3396.02 379.73 3322.52 379.73 3442.52 343.73 3543.02 343.73 3396.02"/>
    <polygon id="_39" data-name="39" class="cls-2" points="712.73 3358.23 712.73 3225.67 597.92 3159.38 483.11 3225.67 483.11 3358.23 597.92 3424.52 712.73 3358.23"/>
    <polygon id="_37" data-name="37" class="cls-2" points="946.73 3372.7 946.73 3239.33 831.23 3172.65 715.73 3239.33 715.73 3372.7 831.23 3439.39 946.73 3372.7"/>
    <polygon id="_36" data-name="36" class="cls-2" points="844.73 3638.03 844.73 3496 721.73 3424.99 598.73 3496 598.73 3638.03 721.73 3709.05 844.73 3638.03"/>
    <polygon id="s86" class="cls-1" points="726.23 3648.02 756.23 3807.02 756.23 3988.52 726.23 3799.52 726.23 3648.02"/>
    <polygon id="_44" data-name="44" class="cls-2" points="1069.72 3988.27 1069.72 3807.27 912.98 3716.77 756.23 3807.27 756.23 3988.27 912.98 4078.77 1069.72 3988.27"/>
    <polygon id="_43" data-name="43" class="cls-2" points="594.23 3968.9 594.23 3825.14 469.73 3753.26 345.23 3825.14 345.23 3968.9 469.73 4040.78 594.23 3968.9"/>
    <polygon id="s96" class="cls-1" points="463.03 3646.52 485.53 3502.52 595.73 3442.52 595.03 3570.02 463.03 3646.52"/>
    <polygon id="_46" data-name="46" class="cls-2" points="726.23 3797.81 726.23 3646.26 594.98 3570.48 463.73 3646.26 463.73 3797.81 594.98 3873.59 726.23 3797.81"/>
    <polygon id="_47" data-name="47" class="cls-2" points="342.23 3543.13 342.23 3395.91 214.72 3322.29 87.22 3395.91 87.22 3543.13 214.72 3616.74 342.23 3543.13"/>
    <polygon id="s81" class="cls-1" points="196.72 3472.52 214.72 3469.52 342.23 3543.02 328.73 3549.02 196.72 3472.52"/>
    <polygon id="_26" data-name="26" class="cls-2" points="711.23 2637.27 711.23 2503.03 594.98 2435.92 478.73 2503.03 478.73 2637.27 594.98 2704.39 711.23 2637.27"/>
    <polygon id="_27" data-name="27" class="cls-2" points="946.73 2645.75 946.73 2509.78 828.98 2441.8 711.23 2509.78 711.23 2645.75 828.98 2713.73 946.73 2645.75"/>
    <polygon id="_28" data-name="28" class="cls-2" points="843.23 2884.4 843.23 2740.64 718.73 2668.76 594.23 2740.64 594.23 2884.4 718.73 2956.28 843.23 2884.4"/>
    <polygon id="_33" data-name="33" class="cls-2" points="475.64 3056.89 475.64 2920.98 357.93 2853.02 240.22 2920.98 240.22 3056.89 357.93 3124.85 475.64 3056.89"/>
    <polygon id="_32" data-name="32" class="cls-2" points="351.23 3286.48 351.23 3147.05 230.47 3077.34 109.72 3147.05 109.72 3286.48 230.47 3356.2 351.23 3286.48"/>
    <polygon id="_41" data-name="41" class="cls-2" points="597.23 3217.4 597.23 3073.64 472.73 3001.76 348.23 3073.64 348.23 3217.4 472.73 3289.28 597.23 3217.4"/>
    <polygon id="s74" class="cls-1" points="843.23 3229.52 829.73 3217.52 945.23 3282.02 966.23 3300.02 843.23 3229.52"/>
    <polygon id="_38" data-name="38" class="cls-2" points="1089.22 3340.58 1089.22 3199.7 967.22 3129.26 845.21 3199.7 845.21 3340.58 967.22 3411.02 1089.22 3340.58"/>
    <polygon id="_40" data-name="40" class="cls-2" points="463.73 3498.91 463.73 3345.62 330.98 3268.98 198.22 3345.62 198.22 3498.91 330.98 3575.55 463.73 3498.91"/>
    <polygon id="s71" class="cls-1" points="460.73 3153.02 502.73 3136.52 592.73 3192.02 592.73 3231.02 460.73 3153.02"/>
    <polygon id="s69" class="cls-1" points="912.23 3442.52 876.23 3252.02 726.23 3157.52 754.73 3352.52 912.23 3442.52"/>
    <polygon id="_35" data-name="35" class="cls-2" points="725.53 3157.55 725.53 3005.53 593.88 2929.52 462.23 3005.53 462.23 3157.55 593.88 3233.55 725.53 3157.55"/>
    <polygon id="_34" data-name="34" class="cls-2" points="340.73 2901.45 340.73 2755.09 213.97 2681.91 87.22 2755.09 87.22 2901.45 213.97 2974.63 340.73 2901.45"/>
    <polygon id="s55" class="cls-1" points="726.23 3157.52 754.73 3352.52 754.73 3169.52 725.53 3005.53 726.23 3157.52"/>
    <polygon id="s72" class="cls-1" points="1068.22 3349.52 966.23 3334.52 843.23 3405.02 910.73 3439.52 1068.22 3349.52"/>
    <polygon id="_31" data-name="31" class="cls-2" points="1069.72 3351.95 1069.72 3170.09 912.23 3079.15 754.73 3170.09 754.73 3351.95 912.23 3442.88 1069.72 3351.95"/>
    <polygon id="s110" class="cls-1" points="876.23 1704.02 874.73 1810.52 897.23 1813.52 897.23 1699.52 876.23 1704.02"/>
    <polygon id="s1" class="cls-1" points="951.23 867.02 951.23 1005.02 900.23 1114.52 898.73 1000.52 951.23 867.02"/>
    <polygon id="_2" data-name="2" class="cls-2" points="1188.22 1004.43 1188.22 867.6 1069.72 799.19 951.23 867.6 951.23 1004.43 1069.72 1072.85 1188.22 1004.43"/>
    <polygon id="s33" class="cls-1" points="1048.72 357.02 595.73 619.52 597.23 1047.02 721.73 975.02 1048.72 357.02"/>
    <polygon id="s32" class="cls-1" points="142.72 358.52 487.73 1068.02 596.89 1129.52 595.73 619.52 142.72 358.52"/>
    <polygon id="s3" class="cls-1" points="433.73 730.52 273.23 823.52 378.23 1129.52 487.73 1068.02 433.73 730.52"/>
    <polygon id="s20" class="cls-1" points="910.73 2122.52 805.73 1999.52 906.23 2058.02 1069.72 2214.02 910.73 2122.52"/>
    <polygon id="s23" class="cls-1" points="597.23 1974.02 502.73 2026.52 465.23 2137.52 595.73 2061.02 597.23 1974.02"/>
    <polygon id="s50" class="cls-1" points="595.73 2121.02 595.73 2061.02 465.23 2137.52 436.73 2212.52 595.73 2121.02"/>
    <polygon id="s19" class="cls-1" points="844.73 1048.52 844.73 1185.02 871.73 1125.02 871.73 967.52 844.73 1048.52"/>
    <polygon id="s18" class="cls-1" points="912.23 1027.52 844.73 1191.02 721.73 1263.02 756.23 1119.02 912.23 1027.52"/>
    <polygon id="s17" class="cls-1" points="597.23 1327.52 595.73 1152.02 727.73 1227.02 687.23 1380.02 597.23 1327.52"/>
    <polygon id="s16" class="cls-1" points="597.23 1327.52 505.73 1381.52 465.23 1227.02 595.73 1152.02 597.23 1327.52"/>
    <polygon id="s15" class="cls-1" points="379.73 1257.02 379.73 1129.52 342.23 1026.02 342.23 1168.52 379.73 1257.02"/>
    <polygon id="s14" class="cls-1" points="430.73 1090.52 505.73 1381.52 409.73 1327.52 268.73 996.02 430.73 1090.52"/>
    <polygon id="s11" class="cls-1" points="462.23 1683.02 462.23 1683.02 328.73 1605.02 346.73 1618.52 462.23 1683.02"/>
    <polygon id="s10" class="cls-1" points="195.22 1683.02 232.72 1686.02 352.73 1618.52 328.73 1605.02 195.22 1683.02"/>
    <polygon id="s9" class="cls-1" points="874.73 1810.52 906.23 1818.02 1009.73 1878.02 964.73 1867.52 874.73 1810.52"/>
    <polygon id="s8" class="cls-1" points="874.73 1810.52 783.23 1864.52 802.73 1878.02 906.23 1818.02 874.73 1810.52"/>
    <polygon id="s7" class="cls-1" points="783.23 1867.52 781.73 1971.02 802.73 1995.02 802.73 1878.02 783.23 1867.52"/>
    <polygon id="_9" data-name="9" class="cls-2" points="1080.56 1816.06 1080.56 1704.16 983.64 1648.2 886.73 1704.16 886.73 1816.06 983.64 1872.02 1080.56 1816.06"/>
    <polygon id="s48" class="cls-1" points="690.23 1813.52 694.73 1815.02 796.73 1873.52 781.73 1864.52 690.23 1813.52"/>
    <polygon id="s54" class="cls-1" points="1051.72 1627.52 984.23 1648.52 886.73 1704.02 939.23 1692.02 1051.72 1627.52"/>
    <polygon id="_10" data-name="10" class="cls-2" points="897.23 1815.72 897.23 1698.81 795.98 1640.35 694.73 1698.81 694.73 1815.72 795.98 1874.18 897.23 1815.72"/>
    <polygon id="s6" class="cls-1" points="729.23 1677.02 745.73 1669.52 597.23 1584.02 597.23 1600.52 729.23 1677.02"/>
    <polygon id="_5" data-name="5" class="cls-2" points="342.23 1173.25 342.23 1026.02 214.72 952.41 87.22 1026.02 87.22 1173.25 214.72 1246.86 342.23 1173.25"/>
    <polygon id="s43" class="cls-1" points="102.22 1281.02 232.72 1408.52 346.73 1474.09 267.23 1375.52 102.22 1281.02"/>
    <polygon id="s53" class="cls-1" points="111.22 1617.02 232.72 1686.02 315.23 1704.02 223.72 1654.52 111.22 1617.02"/>
    <polygon id="_14" data-name="14" class="cls-2" points="352.73 1617.02 352.73 1477.55 231.97 1407.84 111.22 1477.55 111.22 1616.98 231.97 1686.7 352.73 1617.02"/>
    <polygon id="s29" class="cls-1" points="315.23 2133.77 232.72 2248.52 111.22 2319.02 223.72 2185.52 315.23 2133.77"/>
    <polygon id="s104" class="cls-1" points="411.23 2922.02 478.73 2727.02 595.73 2659.52 594.23 2815.52 411.23 2922.02"/>
    <polygon id="_23" data-name="23" class="cls-2" points="353.74 2458.54 353.74 2318.53 232.48 2248.52 111.22 2318.53 111.22 2458.54 232.48 2528.55 353.74 2458.54"/>
    <polygon id="s27" class="cls-1" points="411.23 2187.02 411.23 2293.52 354.23 2458.52 354.23 2319.02 411.23 2187.02"/>
    <polygon id="s28" class="cls-1" points="315.23 2133.02 411.23 2187.02 354.23 2319.02 232.72 2248.52 315.23 2133.02"/>
    <polygon id="_19" data-name="19" class="cls-2" points="472.04 2259.56 472.04 2116.2 347.88 2044.52 223.72 2116.2 223.72 2259.56 347.88 2331.24 472.04 2259.56"/>
    <polygon id="s26" class="cls-1" points="31.73 1921.52 223.72 1864.52 315.23 1812.02 174.22 1839.02 31.73 1921.52"/>
    <polygon id="_15" data-name="15" class="cls-2" points="462.23 1836.91 462.23 1682.7 328.68 1605.6 195.13 1682.7 195.13 1836.91 328.68 1914.02 462.23 1836.91"/>
    <polygon id="s12" class="cls-1" points="597.23 1614.02 597.23 1584.02 447.23 1669.52 471.23 1686.02 597.23 1614.02"/>
    <polygon id="s42" class="cls-1" points="825.23 1627.52 795.98 1640.35 897.23 1699.52 939.23 1693.52 825.23 1627.52"/>
    <polygon id="_8" data-name="8" class="cls-2" points="1053.22 1627.34 1053.22 1495.7 939.23 1429.88 825.23 1495.7 825.23 1627.34 939.23 1693.15 1053.22 1627.34"/>
    <polygon id="s2" class="cls-1" points="871.73 967.52 1009.73 888.02 876.23 1167.02 783.23 1219.52 871.73 967.52"/>
    <polygon id="_6" data-name="6" class="cls-2" points="845.03 1191.13 845.03 1048.05 721.13 976.52 597.23 1048.05 597.23 1191.13 721.13 1262.66 845.03 1191.13"/>
    <polygon id="s45" class="cls-1" points="463.73 1374.02 472.73 1396.52 597.23 1469.3 596.48 1452.02 463.73 1374.02"/>
    <polygon id="s100" class="cls-1" points="859.73 1603.52 729.23 1680.02 694.73 1699.52 796.73 1641.02 859.73 1603.52"/>
    <polygon id="s49" class="cls-1" points="745.73 1846.52 733.73 1848.02 595.71 1921.52 596.48 1927.52 745.73 1846.52"/>
    <polygon id="s4" class="cls-1" points="727.73 1227.02 754.73 1123.52 756.23 1300.52 729.23 1377.02 727.73 1227.02"/>
    <polygon id="s25" class="cls-1" points="597.23 1927.52 447.23 1842.02 436.73 1846.52 595.73 1938.02 597.23 1927.52"/>
    <polygon id="_17" data-name="17" class="cls-2" points="1009.73 1997.89 1009.73 1878.38 906.23 1818.62 802.73 1878.38 802.73 1997.89 906.23 2057.64 1009.73 1997.89"/>
    <polygon id="s34" class="cls-1" points="1146.22 1125.02 1084.72 1195.52 1069.72 1204.75 1069.72 1169.68 1146.22 1125.02"/>
    <polygon id="_3" data-name="3" class="cls-2" points="433.73 729.87 433.73 543.67 272.48 450.57 111.22 543.67 111.22 729.87 272.48 822.96 433.73 729.87"/>
    <polygon id="_4" data-name="4" class="cls-2" points="1146.22 1125.51 1146.22 967.03 1008.98 887.78 871.73 967.03 871.73 1125.51 1008.98 1204.75 1146.22 1125.51"/>
    <polygon id="s107" class="cls-1" points="1069.72 2395.52 876.23 2136.02 781.73 2191.52 912.23 2487.02 1069.72 2395.52"/>
    <polygon id="s106" class="cls-1" points="753.23 2395.52 912.23 2487.02 781.73 2181.02 690.23 2130.02 727.99 2289.02 753.23 2395.52"/>
    <polygon id="s21" class="cls-1" points="781.73 1971.02 690.23 2025.02 753.23 2214.02 910.73 2122.52 781.73 1971.02"/>
    <polygon id="s30" class="cls-1" points="690.23 2025.02 690.23 2136.02 753.23 2395.52 753.23 2214.02 690.23 2025.02"/>
    <polygon id="s22" class="cls-1" points="690.23 2025.02 597.23 1974.02 595.73 2061.02 727.73 2137.52 690.23 2025.02"/>
    <polygon id="_24" data-name="24" class="cls-2" points="1069.72 2396.13 1069.72 2213.4 911.48 2122.04 753.23 2213.4 753.23 2396.13 911.48 2487.5 1069.72 2396.13"/>
    <polygon id="s31" class="cls-1" points="328.73 1909.52 315.23 1921.52 174.22 1839.02 195.22 1837.52 328.73 1909.52"/>
    <polygon id="s102" class="cls-1" points="31.73 2085.02 226.72 2116.52 226.72 2137.52 172.72 2167.52 31.73 2085.02"/>
    <polygon id="_21" data-name="21" class="cls-2" points="315.23 2085.11 315.23 1921.43 173.47 1839.59 31.73 1921.43 31.73 2085.11 173.47 2166.95 315.23 2085.11"/>
    <polygon id="s64" class="cls-1" points="174.22 2167.52 315.23 2085.02 343.7 2046.02 223.72 2118.02 174.22 2167.52"/>
    <polygon id="s24" class="cls-1" points="447.23 1842.02 328.73 1914.02 279.23 1938.02 438.23 1849.52 447.23 1842.02"/>
    <polygon id="s47" class="cls-1" points="756.23 1300.52 912.23 1390.52 859.73 1452.02 727.73 1380.02 756.23 1300.52"/>
    <polygon id="s46" class="cls-1" points="1069.72 1300.52 912.23 1390.52 859.73 1452.02 860.23 1475.49 939.23 1429.52 1069.72 1300.52"/>
    <polygon id="s44" class="cls-1" points="267.23 1375.52 346.73 1470.02 472.73 1396.52 430.73 1281.02 267.23 1375.52"/>
    <polygon id="s5" class="cls-1" points="465.23 1375.52 430.73 1281.02 430.73 1090.52 465.23 1227.02 465.23 1375.52"/>
    <polygon id="s37" class="cls-1" points="193.72 2611.52 232.72 2529.02 354.23 2458.52 328.73 2533.52 193.72 2611.52"/>
    <polygon id="s108" class="cls-1" points="328.73 2844.02 340.73 2755.52 463.73 2671.52 462.23 2766.02 328.73 2844.02"/>
    <polygon id="_29" data-name="29" class="cls-2" points="462.23 2766.28 462.23 2611.26 327.98 2533.75 193.72 2611.26 193.72 2766.28 327.98 2843.79 462.23 2766.28"/>
    <polygon id="s38" class="cls-1" points="472.73 2259.02 348.23 2331.02 226.72 2604.02 411.23 2500.52 472.73 2259.02"/>
    <polygon id="s105" class="cls-1" points="690.23 2136.02 594.23 2188.52 595.73 2365.52 727.73 2292.02 690.23 2136.02"/>
    <polygon id="_22" data-name="22" class="cls-2" points="727.73 2289.05 727.73 2137.49 596.48 2061.71 465.23 2137.49 465.23 2289.05 596.48 2364.82 727.73 2289.05"/>
    <polygon id="s103" class="cls-1" points="462.23 2611.52 462.23 2766.02 478.73 2634.02 478.73 2487.02 462.23 2611.52"/>
    <polygon id="s65" class="cls-1" points="328.73 1909.52 328.73 2065.52 315.23 2083.52 315.23 1920.02 328.73 1909.52"/>
    <polygon id="s101" class="cls-1" points="279.23 2121.02 348.23 2044.52 472.73 2116.52 436.73 2212.52 279.23 2121.02"/>
    <polygon id="s99" class="cls-1" points="342.23 1026.02 273.23 823.52 111.22 730.52 214.72 952.52 342.23 1026.02"/>
    <polygon id="_20" data-name="20" class="cls-2" points="595.71 2121.02 595.71 1938.02 437.23 1846.52 278.75 1938.02 278.75 2121.02 437.23 2212.52 595.71 2121.02"/>
    <polygon id="_30" data-name="30" class="cls-2" points="594.23 2815.86 594.23 2603.68 410.48 2497.59 226.72 2603.68 226.72 2815.86 410.48 2921.94 594.23 2815.86"/>
    <polygon id="s98" class="cls-1" points="433.73 543.02 487.73 952.52 487.73 1068.02 433.73 730.52 433.73 543.02"/>
    <polygon id="_1" data-name="1" class="cls-3" points="595.39 619.52 142.05 357.78 142.72 -166.48 595.73 -428.98 1048.72 -166.48 1048.72 357.78 595.39 619.52"/>
    <polygon id="_13" data-name="13" class="cls-2" points="597.23 1613.93 597.23 1469.3 471.98 1396.99 346.73 1469.3 346.73 1613.93 471.98 1686.24 597.23 1613.93"/>
    <polygon id="_12" data-name="12" class="cls-2" points="727.73 1376.24 727.73 1224.69 596.48 1148.91 465.23 1224.69 465.23 1376.24 596.48 1452.02 727.73 1376.24"/>
    <polygon id="_11" data-name="11" class="cls-2" points="860.23 1601.1 860.23 1449.25 728.73 1373.33 597.23 1449.25 597.23 1601.1 728.73 1677.02 860.23 1601.1"/>
    <polygon id="s95" class="cls-1" points="477.23 3700.52 471.23 3753.02 346.73 3825.02 358.73 3768.02 477.23 3700.52"/>
    <polygon id="_45" data-name="45" class="cls-2" points="477.23 3700.25 477.23 3564.28 359.48 3496.3 241.72 3564.28 241.72 3700.25 359.48 3768.23 477.23 3700.25"/>
    <polygon id="xx05" class="cls-1" points="331.73 3268.52 348.23 3217.52 472.73 3289.52 463.73 3345.02 331.73 3268.52"/>
    <polygon id="xx01" class="cls-1" points="727.73 3873.02 690.23 3826.52 595.73 3880.52 595.73 3948.59 727.73 3873.02"/>
    <polygon id="xx02" class="cls-1" points="727.73 3724.52 720.23 3708.02 597.23 3636.02 598.73 3649.78 727.73 3724.52"/>
    <polygon id="xx03" class="cls-1" points="721.73 3423.02 712.73 3394.52 831.23 3463.52 844.73 3495.02 721.73 3423.02"/>
    <polygon id="xx04" class="cls-1" points="712.73 3393.02 721.73 3423.02 597.23 3495.02 597.23 3459.02 712.73 3393.02"/>
    <polygon id="xxx07" class="cls-1" points="804.23 3087.02 831.23 3172.52 715.73 3240.02 699.23 3148.52 804.23 3087.02"/>
    <polygon id="xxx06" class="cls-1" points="597.23 3087.02 597.23 3159.02 712.73 3225.02 699.23 3148.52 597.23 3087.02"/>
    <polygon id="yy1" class="cls-1" points="502.73 2875.52 414.23 2929.52 349.73 3081.02 467.98 3012.77 502.73 2875.52"/>
    <polygon id="yy2" class="cls-1" points="231.22 3087.02 316.73 2878.52 414.23 2929.52 349.73 3156.02 231.22 3087.02"/>
    <polygon id="yy3" class="cls-1" points="109.72 3156.02 225.22 2929.52 316.73 2878.52 231.22 3087.02 109.72 3156.02"/>
    <polygon id="yy4" class="cls-1" points="357.23 3193.52 331.73 3277.52 198.22 3354.02 231.22 3268.52 357.23 3193.52"/>
    <polygon id="yy5" class="cls-1" points="316.73 3201.02 225.22 3253.52 87.22 3531.02 214.72 3457.52 316.73 3201.02"/>
    <polygon id="_7" data-name="7" class="cls-2" points="1069.72 1299.82 1069.72 1118.43 912.64 1027.74 755.55 1118.43 755.55 1299.82 912.64 1390.52 1069.72 1299.82"/>
    <polygon id="_18" data-name="18" class="cls-2" points="430.73 1280.71 430.73 1091.05 266.48 996.22 102.22 1091.05 102.22 1280.71 266.48 1375.54 430.73 1280.71"/>
    <polygon id="_16" data-name="16" class="cls-2" points="745.73 1847.94 745.73 1675.6 596.48 1589.43 447.23 1675.6 447.23 1847.94 596.48 1934.11 745.73 1847.94"/>
    <polygon id="s51" class="cls-1" points="594.23 2604.02 409.73 2497.52 465.23 2266.52 597.23 2343.02 594.23 2604.02"/>
    <polygon id="c1" class="cls-3" points="598.01 5079.02 211.05 4855.61 211.63 4408.1 598.3 4184.03 984.98 4408.1 984.98 4855.61 598.01 5079.02"/>
    <polygon id="k01" class="cls-1" points="598.73 3976.52 598.73 4183.52 985.73 4408.52 832.73 3984.02 714.23 3909.02 598.73 3976.52"/>
    <polygon id="k02" class="cls-1" points="483.23 3909.02 328.73 4126.52 211.72 4408.52 598.73 4183.52 598.73 3976.52 483.23 3909.02"/>
  </g>
</svg>
