<svg id="_00landingstage" data-name="00landingstage" xmlns="http://www.w3.org/2000/svg" width="1200" height="4736.84" viewBox="0 0 1200 4736.84">
  <defs>
    <style>
      .cls-1 {
        fill: #f2f2f2;
      }

      .cls-1, .cls-2, .cls-3 {
        stroke: #000;
        stroke-miterlimit: 10;
      }

      .cls-2, .cls-3 {
        fill: #fff;
      }

      .cls-3 {
        stroke-width: 2px;
      }
    </style>
  </defs>
  <title>aartics_polygons_vertical</title>
  <polygon id="xx03" class="cls-1" points="721.1 3539.38 712.1 3510.88 830.6 3579.88 844.1 3611.38 721.1 3539.38"/>
  <polygon id="xx04" class="cls-1" points="712.1 3509.38 721.1 3539.38 596.6 3611.38 596.6 3575.38 712.1 3509.38"/>
  <polygon id="s8" class="cls-1" points="896.6 1761.88 796.1 1818.88 802.1 1841.38 905.6 1781.38 896.6 1761.88"/>
  <polygon id="xx01" class="cls-1" points="727.1 3989.38 689.6 3942.88 595.1 3996.88 595.1 4064.95 727.1 3989.38"/>
  <polygon id="xx02" class="cls-1" points="727.1 3840.88 719.6 3824.38 596.6 3752.38 598.1 3766.14 727.1 3840.88"/>
  <polygon id="yy5" class="cls-1" points="316.1 3315.88 224.59 3368.38 86.59 3645.88 214.09 3572.38 316.1 3315.88"/>
  <polygon id="yy4" class="cls-1" points="356.6 3308.38 331.1 3392.38 197.59 3468.88 230.59 3383.38 356.6 3308.38"/>
  <polygon id="xxx07" class="cls-1" points="803.6 3201.88 830.6 3287.38 715.1 3354.88 698.6 3263.38 803.6 3201.88"/>
  <polygon id="xxx06" class="cls-1" points="596.6 3201.88 596.6 3273.88 712.1 3339.88 698.6 3263.38 596.6 3201.88"/>
  <polygon id="yy3" class="cls-1" points="109.09 3263.38 224.59 3036.88 316.1 2985.88 230.59 3194.38 109.09 3263.38"/>
  <polygon id="yy1" class="cls-1" points="502.1 2990.38 413.6 3044.38 349.1 3195.88 467.35 3127.63 502.1 2990.38"/>
  <polygon id="s103" class="cls-1" points="461.6 2514.88 461.6 2669.38 478.1 2537.38 478.1 2390.38 461.6 2514.88"/>
  <polygon id="s23" class="cls-1" points="596.6 1878.88 502.1 1931.38 464.6 2042.38 595.1 1965.88 596.6 1878.88"/>
  <polygon id="s48" class="cls-1" points="692.6 1740.88 697.1 1763.38 799.1 1821.88 784.1 1794.88 692.6 1740.88"/>
  <polygon id="s43" class="cls-1" points="101.59 1599.88 229.09 1541.38 344.6 1607.38 266.6 1694.38 101.59 1599.88"/>
  <polygon id="s53" class="cls-1" points="110.59 1682.38 232.09 1752.88 314.6 1653.88 223.09 1601.38 110.59 1682.38"/>
  <polygon id="s45" class="cls-1" points="463.1 1508.38 473.6 1497.88 598.1 1569.88 598.1 1584.88 463.1 1508.38"/>
  <polygon id="s34" class="cls-1" points="1144.1 1283.38 1082.6 1290.88 1067.6 1298.38 1067.6 1328.38 1144.1 1283.38"/>
  <polygon id="s47" class="cls-1" points="755.6 1581.88 911.6 1671.88 872.6 1580.38 740.6 1511.38 755.6 1581.88"/>
  <polygon id="s46" class="cls-1" points="1069.1 1580.38 911.6 1670.38 911.6 1670.38 781.1 1556.38 875.6 1502.38 1069.1 1580.38"/>
  <polygon id="s99" class="cls-1" points="340.1 1085.38 271.1 1124.38 109.09 1031.38 212.59 1011.88 340.1 1085.38"/>
  <polygon id="s110" class="cls-1" points="878.6 1614.88 877.1 1721.38 899.6 1754.38 899.6 1638.88 878.6 1614.88"/>
  <polygon id="s28" class="cls-1" points="314.6 2037.88 410.6 2091.88 353.6 2460.88 232.09 2390.38 314.6 2037.88"/>
  <polygon id="s65" class="cls-1" points="328.1 1983.88 328.1 2134.24 314.6 2184.88 314.6 2021.38 328.1 1983.88"/>
  <polygon id="s63" class="cls-1" points="877.1 2658.88 967.1 2709.88 1009.1 2760.88 907.1 2700.88 877.1 2658.88"/>
  <polygon id="_25" data-name="25" class="cls-2" points="1009.72 2879.39 1009.72 2760.39 906.66 2700.88 803.6 2760.39 803.6 2879.39 906.66 2938.89 1009.72 2879.39"/>
  <polygon id="s41" class="cls-1" points="803.6 2204.38 689.6 2252.38 710.6 2624.38 829.1 2556.88 803.6 2204.38"/>
  <polygon id="s88" class="cls-1" points="727.1 3912.88 727.1 3761.38 757.1 3921.88 757.1 4103.38 727.1 3912.88"/>
  <polygon id="s40" class="cls-1" points="595.1 2550.88 710.6 2618.38 689.6 2252.38 596.6 2196.88 595.1 2550.88"/>
  <polygon id="s52" class="cls-1" points="803.6 2196.88 910.1 2259.88 946.1 2624.38 829.1 2556.88 803.6 2196.88"/>
  <polygon id="s60" class="cls-1" points="475.1 3035.38 485.6 2972.38 377.6 2910.88 356.6 2967.88 475.1 3035.38"/>
  <polygon id="s62" class="cls-1" points="214.09 2682.88 314.6 2657.38 214.09 2796.88 86.59 2870.38 214.09 2682.88"/>
  <polygon id="s57" class="cls-1" points="803.6 2879.38 907.1 2939.38 1069.1 3284.38 911.6 3194.38 803.6 2879.38"/>
  <polygon id="s56" class="cls-1" points="718.1 3071.38 842.6 2999.26 911.6 3194.38 754.1 3284.38 718.1 3071.38"/>
  <polygon id="s94" class="cls-1" points="319.1 3632.38 227.59 3684.88 112.09 3903.88 232.09 3834.88 319.1 3632.38"/>
  <polygon id="_50" data-name="50" class="cls-2" points="949.1 4133.54 949.1 3998.44 832.09 3930.88 715.08 3998.44 715.08 4133.54 832.09 4201.1 949.1 4133.54"/>
  <polygon id="_49" data-name="49" class="cls-2" points="713.6 4120.57 713.6 3987.2 598.1 3920.51 482.6 3987.2 482.6 4120.57 598.1 4187.25 713.6 4120.57"/>
  <polygon id="_48" data-name="48" class="cls-2" points="463.1 4259.64 463.1 4104.62 328.85 4027.11 194.59 4104.62 194.59 4259.64 328.85 4337.15 463.1 4259.64"/>
  <polygon id="s85" class="cls-1" points="233.59 4022.38 194.59 4104.88 329.6 4026.88 353.6 3953.38 233.59 4022.38"/>
  <polygon id="s66" class="cls-1" points="470.6 4050.88 463.1 4104.88 329.6 4026.88 346.1 3978.88 470.6 4050.88"/>
  <polygon id="_42" data-name="42" class="cls-2" points="353.6 4043.35 353.6 3903.92 232.84 3834.2 112.09 3903.92 112.09 4043.35 232.84 4113.06 353.6 4043.35"/>
  <polygon id="_51" data-name="51" class="cls-2" points="1090.1 3967.71 1090.1 3826.55 967.85 3755.97 845.6 3826.55 845.6 3967.71 967.85 4038.3 1090.1 3967.71"/>
  <polygon id="s87" class="cls-1" points="689.6 3624.88 782.6 3684.88 914.6 4193.38 757.1 4103.38 689.6 3624.88"/>
  <polygon id="s90" class="cls-1" points="782.6 3792.88 832.1 3930.88 715.1 3998.38 689.6 3848.38 782.6 3792.88"/>
  <polygon id="s92" class="cls-1" points="844.1 3648.88 914.6 3831.88 1070.6 3924.88 976.1 3726.88 844.1 3648.88"/>
  <polygon id="s91" class="cls-1" points="721.1 3711.88 757.1 3921.88 913.1 3831.88 844.1 3639.88 721.1 3711.88"/>
  <polygon id="s89" class="cls-1" points="689.6 3848.38 713.6 3987.88 598.1 3920.38 596.6 3792.88 689.6 3848.38"/>
  <polygon id="s84" class="cls-1" points="343.1 3659.38 358.1 3611.38 241.09 3678.88 215.59 3732.88 343.1 3659.38"/>
  <polygon id="s82" class="cls-1" points="463.1 3611.38 482.6 3477.88 379.1 3557.38 331.1 3690.88 463.1 3611.38"/>
  <polygon id="s80" class="cls-1" points="482.6 3323.38 597.29 3389.38 598.1 3378.88 491.6 3318.88 482.6 3323.38"/>
  <polygon id="s79" class="cls-1" points="463.1 3459.88 482.6 3339.88 482.6 3473.38 463.1 3614.38 463.1 3459.88"/>
  <polygon id="s78" class="cls-1" points="596.6 3213.88 596.6 3194.38 482.6 3260.38 472.1 3285.88 596.6 3213.88"/>
  <polygon id="s77" class="cls-1" points="109.09 3401.38 229.09 3470.38 316.1 3392.38 223.09 3342.88 109.09 3401.38"/>
  <polygon id="s76" class="cls-1" points="946.1 3396.88 875.6 3309.88 782.6 3363.88 830.6 3464.38 946.1 3396.88"/>
  <polygon id="s75" class="cls-1" points="1088.6 3320.38 967.1 3260.38 875.6 3314.38 967.1 3390.88 1088.6 3320.38"/>
  <polygon id="s73" class="cls-1" points="844.1 3300.88 803.6 3279.88 803.6 3396.88 844.1 3441.88 844.1 3300.88"/>
  <polygon id="s70" class="cls-1" points="725.6 2999.38 689.6 2981.38 596.6 3036.88 593.6 3075.88 725.6 2999.38"/>
  <polygon id="s68" class="cls-1" points="712.1 3344.38 715.1 3348.88 715.1 3480.88 712.1 3477.88 712.1 3344.38"/>
  <polygon id="s67" class="cls-1" points="482.6 4119.88 463.1 4259.38 463.1 4122.88 482.6 3987.88 482.6 4119.88"/>
  <polygon id="s93" class="cls-1" points="358.1 3882.88 353.6 3903.88 232.09 3834.88 241.09 3815.11 358.1 3882.88"/>
  <polygon id="s58" class="cls-1" points="718.1 3071.38 725.6 3120.88 593.6 3044.38 593.6 2999.26 718.1 3071.38"/>
  <polygon id="s35" class="cls-1" points="710.6 2753.38 718.1 2783.38 593.6 2855.38 593.6 2819.38 710.6 2753.38"/>
  <polygon id="s36" class="cls-1" points="710.6 2760.88 829.1 2828.38 842.6 2855.38 718.1 2783.38 710.6 2760.88"/>
  <polygon id="_39" data-name="39" class="cls-2" points="712.1 3473.1 712.1 3340.53 597.29 3274.25 482.48 3340.53 482.48 3473.1 597.29 3539.38 712.1 3473.1"/>
  <polygon id="_41" data-name="41" class="cls-2" points="596.6 3332.26 596.6 3188.5 472.1 3116.62 347.6 3188.5 347.6 3332.26 472.1 3404.14 596.6 3332.26"/>
  <polygon id="s83" class="cls-1" points="343.1 3510.88 379.1 3437.38 379.1 3557.38 343.1 3657.88 343.1 3510.88"/>
  <polygon id="_37" data-name="37" class="cls-2" points="946.1 3487.57 946.1 3354.2 830.6 3287.51 715.1 3354.2 715.1 3487.57 830.6 3554.25 946.1 3487.57"/>
  <polygon id="s86" class="cls-1" points="725.6 3762.88 755.6 3921.88 755.6 4103.38 725.6 3914.38 725.6 3762.88"/>
  <polygon id="_44" data-name="44" class="cls-2" points="1069.1 4103.13 1069.1 3922.13 912.35 3831.63 755.6 3922.13 755.6 4103.13 912.35 4193.63 1069.1 4103.13"/>
  <polygon id="_43" data-name="43" class="cls-2" points="593.6 4083.76 593.6 3940 469.1 3868.12 344.6 3940 344.6 4083.76 469.1 4155.64 593.6 4083.76"/>
  <polygon id="_47" data-name="47" class="cls-2" points="341.6 3657.99 341.6 3510.77 214.09 3437.16 86.59 3510.77 86.59 3657.99 214.09 3731.61 341.6 3657.99"/>
  <polygon id="s81" class="cls-1" points="196.09 3587.38 214.09 3584.38 341.6 3657.88 328.1 3663.88 196.09 3587.38"/>
  <polygon id="_26" data-name="26" class="cls-2" points="710.6 2752.13 710.6 2617.9 594.35 2550.78 478.1 2617.9 478.1 2752.13 594.35 2819.25 710.6 2752.13"/>
  <polygon id="s51" class="cls-1" points="593.6 2508.88 409.1 2402.38 464.6 2280.88 596.6 2357.38 593.6 2508.88"/>
  <polygon id="_27" data-name="27" class="cls-2" points="946.1 2760.61 946.1 2624.65 828.35 2556.67 710.6 2624.65 710.6 2760.61 828.35 2828.6 946.1 2760.61"/>
  <polygon id="_28" data-name="28" class="cls-2" points="842.6 2999.26 842.6 2855.5 718.1 2783.62 593.6 2855.5 593.6 2999.26 718.1 3071.14 842.6 2999.26"/>
  <polygon id="yy2" class="cls-1" points="230.59 3194.38 316.1 2985.88 413.6 3036.88 349.1 3263.38 230.59 3194.38"/>
  <polygon id="_32" data-name="32" class="cls-2" points="350.6 3401.35 350.6 3261.92 229.84 3192.2 109.09 3261.92 109.09 3401.35 229.84 3471.06 350.6 3401.35"/>
  <polygon id="s74" class="cls-1" points="842.6 3344.38 829.1 3332.38 944.6 3396.88 965.6 3414.88 842.6 3344.38"/>
  <polygon id="_38" data-name="38" class="cls-2" points="1088.6 3455.44 1088.6 3314.56 966.59 3244.12 844.58 3314.56 844.58 3455.44 966.59 3525.88 1088.6 3455.44"/>
  <polygon id="s97" class="cls-1" points="379.1 3557.38 359.6 3611.38 476.6 3678.88 487.1 3617.38 379.1 3557.38"/>
  <polygon id="_45" data-name="45" class="cls-2" points="476.6 3815.11 476.6 3679.15 358.85 3611.17 241.09 3679.15 241.09 3815.11 358.85 3883.1 476.6 3815.11"/>
  <polygon id="s95" class="cls-1" points="476.6 3815.38 470.6 3867.88 346.1 3939.88 358.1 3882.88 476.6 3815.38"/>
  <polygon id="s96" class="cls-1" points="462.4 3761.38 484.9 3617.38 595.1 3557.38 594.4 3684.88 462.4 3761.38"/>
  <polygon id="_46" data-name="46" class="cls-2" points="725.6 3912.68 725.6 3761.12 594.35 3685.35 463.1 3761.12 463.1 3912.68 594.35 3988.45 725.6 3912.68"/>
  <polygon id="_36" data-name="36" class="cls-2" points="842.6 3754.4 842.6 3612.37 719.6 3541.35 596.6 3612.37 596.6 3754.4 719.6 3825.41 842.6 3754.4"/>
  <polygon id="s71" class="cls-1" points="460.1 3267.88 502.1 3251.38 592.1 3306.88 592.1 3345.88 460.1 3267.88"/>
  <polygon id="s69" class="cls-1" points="911.6 3557.38 875.6 3366.88 725.6 3272.38 754.1 3467.38 911.6 3557.38"/>
  <polygon id="s55" class="cls-1" points="725.6 3272.38 754.1 3467.38 754.1 3284.38 724.9 3120.39 725.6 3272.38"/>
  <polygon id="s72" class="cls-1" points="1067.6 3464.38 965.6 3449.38 842.6 3519.88 910.1 3554.38 1067.6 3464.38"/>
  <polygon id="_31" data-name="31" class="cls-2" points="1069.1 3466.82 1069.1 3284.95 911.6 3194.02 754.1 3284.95 754.1 3466.82 911.6 3557.75 1069.1 3466.82"/>
  <polygon id="_17" data-name="17" class="cls-2" points="1009.1 1961.25 1009.1 1841.74 905.6 1781.99 802.1 1841.74 802.1 1961.25 905.6 2021.01 1009.1 1961.25"/>
  <polygon id="s50" class="cls-1" points="595.1 2295.88 595.1 2127.88 472.1 2201.38 436.1 2387.38 595.1 2295.88"/>
  <polygon id="s29" class="cls-1" points="314.6 2037.88 232.09 2390.38 110.59 2460.88 223.09 2091.88 314.6 2037.88"/>
  <polygon id="s27" class="cls-1" points="410.6 2091.88 410.6 2198.38 353.6 2600.38 353.6 2460.88 410.6 2091.88"/>
  <polygon id="_19" data-name="19" class="cls-2" points="471.41 2290.43 471.41 2147.06 347.25 2075.38 223.09 2147.06 223.09 2290.43 347.25 2362.11 471.41 2290.43"/>
  <polygon id="s102" class="cls-1" points="31.09 2186.38 226.09 2147.38 226.09 2237.38 172.09 2268.88 31.09 2186.38"/>
  <polygon id="s64" class="cls-1" points="173.59 2268.88 314.6 2184.88 328.1 2133.88 226.09 2184.88 173.59 2268.88"/>
  <polygon id="s108" class="cls-1" points="328.1 2747.38 374.6 2607.88 482.6 2540.38 461.6 2669.38 328.1 2747.38"/>
  <polygon id="_23" data-name="23" class="cls-2" points="353.11 2600.4 353.11 2460.39 231.85 2390.38 110.59 2460.39 110.59 2600.4 231.85 2670.41 353.11 2600.4"/>
  <polygon id="_33" data-name="33" class="cls-2" points="475.01 3171.76 475.01 3035.84 357.3 2967.88 239.59 3035.84 239.59 3171.76 357.3 3239.71 475.01 3171.76"/>
  <polygon id="_34" data-name="34" class="cls-2" points="340.1 3016.31 340.1 2869.95 213.34 2796.77 86.59 2869.95 86.59 3016.31 213.34 3089.49 340.1 3016.31"/>
  <polygon id="s61" class="cls-1" points="377.6 2786.38 377.6 2910.88 357.25 2967.86 340.1 3015.88 340.1 2870.38 377.6 2786.38"/>
  <polygon id="_29" data-name="29" class="cls-2" points="461.6 2797.14 461.6 2642.12 327.35 2564.61 193.09 2642.12 193.09 2797.14 327.35 2874.65 461.6 2797.14"/>
  <polygon id="s37" class="cls-1" points="193.09 2642.38 232.09 2559.88 356.6 2487.88 326.6 2564.38 193.09 2642.38"/>
  <polygon id="s59" class="cls-1" points="593.6 3044.38 461.6 3120.88 485.6 2972.38 593.25 2910.88 593.6 3044.38"/>
  <polygon id="_35" data-name="35" class="cls-2" points="724.9 3272.41 724.9 3120.39 593.25 3044.38 461.6 3120.39 461.6 3272.41 593.25 3348.42 724.9 3272.41"/>
  <polygon id="s38" class="cls-1" points="466.1 2280.88 347.6 2361.88 226.09 2508.88 410.6 2405.38 466.1 2280.88"/>
  <polygon id="s107" class="cls-1" points="1069.1 2570.38 875.6 2310.88 781.1 2366.38 911.6 2661.88 1069.1 2570.38"/>
  <polygon id="s106" class="cls-1" points="752.6 2570.38 911.6 2661.88 809.6 2421.88 727.1 2358.88 727.1 2358.88 752.6 2570.38"/>
  <polygon id="s20" class="cls-1" points="911.6 2295.88 809.6 1965.88 905.6 2021.38 1069.1 2387.38 911.6 2295.88"/>
  <polygon id="s21" class="cls-1" points="781.1 1875.88 689.6 1929.88 752.6 2387.38 911.6 2295.88 781.1 1875.88"/>
  <polygon id="s30" class="cls-1" points="689.6 1929.88 689.6 2040.88 752.6 2568.88 752.6 2387.38 689.6 1929.88"/>
  <polygon id="s22" class="cls-1" points="689.6 1929.88 596.6 1878.88 595.85 2128.58 727.1 2204.36 689.6 1929.88"/>
  <polygon id="s105" class="cls-1" points="689.6 2339.38 593.6 2394.88 595.1 2432.38 727.1 2358.88 689.6 2339.38"/>
  <polygon id="_22" data-name="22" class="cls-2" points="727.1 2355.91 727.1 2204.36 595.85 2128.58 464.6 2204.36 464.6 2355.91 595.85 2431.69 727.1 2355.91"/>
  <polygon id="s101" class="cls-1" points="278.6 2295.88 354.35 2142.13 472.1 2201.38 436.1 2387.38 278.6 2295.88"/>
  <polygon id="s104" class="cls-1" points="410.6 2829.88 478.1 2634.88 595.1 2567.38 593.6 2723.38 410.6 2829.88"/>
  <polygon id="_30" data-name="30" class="cls-2" points="593.6 2722.22 593.6 2510.04 409.85 2403.96 226.09 2510.04 226.09 2722.22 409.85 2828.31 593.6 2722.22"/>
  <polygon id="s33" class="cls-1" points="1048.1 866.38 595.1 1127.38 595.1 1127.38 689.6 1071.88 1048.1 866.38"/>
  <polygon id="s32" class="cls-1" points="142.09 866.38 485.6 1064.38 595.1 1127.38 595.1 1127.38 142.09 866.38"/>
  <polygon id="s98" class="cls-1" points="428.6 843.88 482.6 947.38 482.6 1062.88 428.6 1031.38 428.6 843.88"/>
  <polygon id="s17" class="cls-1" points="596.6 1268.38 596.6 1278.88 727.1 1354.55 721.1 1340.38 596.6 1268.38"/>
  <polygon id="s16" class="cls-1" points="596.6 1248.88 487.1 1313.38 464.6 1353.88 596.6 1278.88 596.6 1248.88"/>
  <polygon id="s15" class="cls-1" points="379.1 1250.38 379.1 1125.88 341.6 1125.88 341.6 1271.38 379.1 1250.38"/>
  <polygon id="s11" class="cls-1" points="472.1 1776.88 462.87 1821.94 328.1 1743.88 346.1 1704.88 472.1 1776.88"/>
  <polygon id="s26" class="cls-1" points="31.09 2021.38 223.09 1769.38 314.6 1716.88 173.59 1940.38 31.09 2021.38"/>
  <polygon id="s25" class="cls-1" points="595.85 2066.97 446.6 1980.88 436.1 2021.38 595.1 2112.88 595.85 2066.97"/>
  <polygon id="s10" class="cls-1" points="194.59 1821.88 230.59 1752.88 358.1 1680.88 328.1 1743.88 194.59 1821.88"/>
  <polygon id="s9" class="cls-1" points="886.1 1740.88 905.6 1781.38 1009.1 1841.38 983.6 1796.38 886.1 1740.88"/>
  <polygon id="s54" class="cls-1" points="1052.6 1652.38 983.6 1601.38 886.1 1656.88 938.6 1718.38 1052.6 1652.38"/>
  <polygon id="s7" class="cls-1" points="781.1 1764.88 781.1 1878.88 809.6 1965.88 802.1 1841.38 781.1 1764.88"/>
  <polygon id="_9" data-name="9" class="cls-2" points="1079.92 1740.43 1079.92 1628.52 983.01 1572.57 886.1 1628.52 886.1 1740.43 983.01 1796.38 1079.92 1740.43"/>
  <polygon id="s42" class="cls-1" points="823.1 1652.38 793.85 1608.22 895.1 1667.38 937.1 1718.38 823.1 1652.38"/>
  <polygon id="_10" data-name="10" class="cls-2" points="896.6 1761.09 896.6 1644.18 795.35 1585.72 694.1 1644.18 694.1 1761.09 795.35 1819.55 896.6 1761.09"/>
  <polygon id="s49" class="cls-1" points="745.11 2073.88 733.11 2003.38 595.1 2096.38 595.86 2159.38 745.11 2073.88"/>
  <polygon id="s6" class="cls-1" points="728.6 1809.88 745.1 1901.38 596.6 1815.88 596.6 1733.96 728.6 1809.88"/>
  <polygon id="s1" class="cls-1" points="950.6 918.88 950.6 1056.88 898.1 1065.88 898.1 952.25 950.6 918.88"/>
  <polygon id="_5" data-name="5" class="cls-2" points="341.6 1271.61 341.6 1124.39 214.09 1050.77 86.59 1124.39 86.59 1271.61 214.09 1345.22 341.6 1271.61"/>
  <polygon id="s14" class="cls-1" points="430.1 1409.38 487.1 1313.38 379.1 1250.38 266.6 1314.88 430.1 1409.38"/>
  <polygon id="_2" data-name="2" class="cls-2" points="1187.6 1056.3 1187.6 919.47 1069.1 851.05 950.6 919.47 950.6 1056.3 1069.1 1124.71 1187.6 1056.3"/>
  <polygon id="_14" data-name="14" class="cls-2" points="352.1 1683.85 352.1 1544.42 231.34 1474.7 110.59 1544.42 110.59 1683.85 231.34 1753.56 352.1 1683.85"/>
  <polygon id="_8" data-name="8" class="cls-2" points="1052.6 1653.7 1052.6 1522.06 938.6 1456.25 824.6 1522.06 824.6 1653.7 938.6 1719.52 1052.6 1653.7"/>
  <polygon id="s100" class="cls-1" points="859.1 1733.38 728.6 1809.88 694.1 1695.88 794.6 1637.38 859.1 1733.38"/>
  <polygon id="_13" data-name="13" class="cls-2" points="596.6 1704.79 596.6 1560.17 471.35 1487.85 346.1 1560.17 346.1 1704.79 471.35 1777.11 596.6 1704.79"/>
  <polygon id="s44" class="cls-1" points="262.1 1695.88 341.6 1566.88 460.1 1509.88 425.6 1601.38 262.1 1695.88"/>
  <polygon id="_15" data-name="15" class="cls-2" points="461.6 1975.78 461.6 1821.57 328.05 1744.46 194.5 1821.57 194.5 1975.78 328.05 2052.88 461.6 1975.78"/>
  <polygon id="s31" class="cls-1" points="328.1 2052.88 314.6 2021.38 173.59 1940.38 194.59 1976.38 328.1 2052.88"/>
  <polygon id="s12" class="cls-1" points="596.6 1704.88 596.6 1815.88 446.6 1901.38 472.1 1776.88 596.6 1704.88"/>
  <polygon id="_21" data-name="21" class="cls-2" points="314.6 2186.47 314.6 2022.79 172.84 1940.95 31.09 2022.79 31.09 2186.47 172.84 2268.31 314.6 2186.47"/>
  <polygon id="s24" class="cls-1" points="452.6 1982.38 319.1 2058.88 278.6 2112.88 436.1 2021.38 452.6 1982.38"/>
  <polygon id="s2" class="cls-1" points="898.1 1065.88 1009.1 1046.38 871.1 1124.38 797.6 1124.38 898.1 1065.88"/>
  <polygon id="_6" data-name="6" class="cls-2" points="844.4 1268.49 844.4 1125.42 720.5 1053.88 596.6 1125.42 596.6 1268.49 720.5 1340.03 844.4 1268.49"/>
  <polygon id="_11" data-name="11" class="cls-2" points="859.6 1733.96 859.6 1582.12 728.1 1506.19 596.6 1582.12 596.6 1733.96 728.1 1809.88 859.6 1733.96"/>
  <polygon id="s5" class="cls-1" points="464.6 1506.88 430.1 1599.88 430.1 1409.38 464.6 1352.38 464.6 1506.88"/>
  <polygon id="_4" data-name="4" class="cls-2" points="1145.6 1283.87 1145.6 1125.39 1008.35 1046.15 871.1 1125.39 871.1 1283.87 1008.35 1363.12 1145.6 1283.87"/>
  <polygon id="s19" class="cls-1" points="844.1 1124.38 844.1 1268.38 871.1 1283.38 871.1 1124.38 844.1 1124.38"/>
  <polygon id="s18" class="cls-1" points="911.6 1308.88 844.1 1268.38 721.1 1340.38 755.6 1400.38 911.6 1308.88"/>
  <polygon id="_12" data-name="12" class="cls-2" points="727.1 1506.11 727.1 1354.55 595.85 1278.77 464.6 1354.55 464.6 1506.11 595.85 1581.88 727.1 1506.11"/>
  <polygon id="s4" class="cls-1" points="727.1 1352.38 755.6 1400.38 755.6 1581.88 727.1 1506.88 727.1 1352.38"/>
  <polygon id="s3" class="cls-1" points="433.1 1032.88 271.1 1125.88 377.6 1125.88 485.6 1064.38 433.1 1032.88"/>
  <polygon id="_3" data-name="3" class="cls-2" points="433.1 1032.23 433.1 846.03 271.85 752.94 110.59 846.03 110.59 1032.23 271.85 1125.33 433.1 1032.23"/>
  <polygon id="_24" data-name="24" class="cls-2" points="1069.1 2571 1069.1 2388.27 910.85 2296.9 752.6 2388.27 752.6 2571 910.85 2662.36 1069.1 2571"/>
  <polygon id="_7" data-name="7" class="cls-2" points="1069.1 1581.19 1069.1 1399.8 912.01 1309.11 754.92 1399.8 754.92 1581.19 912.01 1671.88 1069.1 1581.19"/>
  <polygon id="_18" data-name="18" class="cls-2" points="430.1 1599.58 430.1 1409.92 265.85 1315.09 101.59 1409.92 101.59 1599.58 265.85 1694.41 430.1 1599.58"/>
  <polygon id="_20" data-name="20" class="cls-2" points="595.08 2295.88 595.08 2112.88 436.6 2021.38 278.12 2112.88 278.12 2295.88 436.6 2387.38 595.08 2295.88"/>
  <polygon id="_16" data-name="16" class="cls-2" points="745.1 2073.8 745.1 1901.46 595.85 1815.29 446.6 1901.46 446.6 2073.8 595.85 2159.97 745.1 2073.8"/>
  <polygon id="_1" data-name="1" class="cls-2" points="594.76 1128.88 141.42 867.15 142.09 342.88 595.1 80.38 1048.1 342.88 1048.1 867.15 594.76 1128.88"/>
  <polygon id="xx05" class="cls-1" points="331.1 3383.38 347.6 3332.38 472.1 3404.38 463.1 3459.88 331.1 3383.38"/>
  <polygon id="_40" data-name="40" class="cls-2" points="463.1 3613.78 463.1 3460.49 330.35 3383.85 197.59 3460.49 197.59 3613.78 330.35 3690.42 463.1 3613.78"/>
  <polygon id="c1" class="cls-3" points="597.38 4983.88 210.42 4760.47 211 4312.96 597.67 4088.9 984.35 4312.96 984.35 4760.47 597.38 4983.88"/>
  <polygon id="k01" class="cls-1" points="598.1 3881.38 598.1 4088.38 985.1 4313.38 832.1 3888.88 713.6 3813.88 598.1 3881.38"/>
  <polygon id="k02" class="cls-1" points="482.6 3813.88 328.1 4031.38 211.09 4313.38 598.1 4088.38 598.1 3881.38 482.6 3813.88"/>
</svg>
