<svg xmlns="http://www.w3.org/2000/svg" width="1200" height="4736.84" viewBox="0 0 1200 4736.84">
  <defs>
    <style>
      .cls-1 {
        fill: #f2f2f2;
      }

      .cls-1, .cls-2, .cls-3 {
        stroke: #000;
        stroke-miterlimit: 10;
      }

      .cls-2, .cls-3 {
        fill: #fff;
      }

      .cls-3 {
        stroke-width: 2px;
      }
    </style>
  </defs>
  <title>aartics_polygons_vertical</title>
  <g id="_03stage" data-name="03stage">
    <polygon id="s63" class="cls-1" points="877.78 2448.3 967.78 2499.3 1009.78 2550.3 907.78 2490.3 877.78 2448.3"/>
    <polygon id="_25" data-name="25" class="cls-2" points="1010.41 2668.8 1010.41 2549.8 907.35 2490.3 804.28 2549.8 804.28 2668.8 907.35 2728.31 1010.41 2668.8"/>
    <polygon id="s41" class="cls-1" points="783.28 2286.3 688.78 2340.3 711.28 2413.8 829.78 2346.3 783.28 2286.3"/>
    <polygon id="s88" class="cls-1" points="727.78 3702.3 727.78 3550.8 757.78 3711.3 757.78 3892.8 727.78 3702.3"/>
    <polygon id="s40" class="cls-1" points="595.78 2340.3 711.28 2407.8 688.78 2340.3 594.28 2284.8 595.78 2340.3"/>
    <polygon id="s52" class="cls-1" points="783.28 2286.3 874.78 2340.3 946.78 2413.8 829.78 2346.3 783.28 2286.3"/>
    <polygon id="s60" class="cls-1" points="475.79 2824.8 486.29 2761.8 378.29 2700.3 357.29 2757.3 475.79 2824.8"/>
    <polygon id="s62" class="cls-1" points="226.78 2496.3 315.29 2446.8 214.78 2586.3 87.28 2659.8 226.78 2496.3"/>
    <polygon id="s59" class="cls-1" points="594.28 2833.8 462.29 2910.3 486.29 2761.8 593.94 2700.3 594.28 2833.8"/>
    <polygon id="s61" class="cls-1" points="378.29 2575.8 378.29 2700.3 357.94 2757.27 340.79 2805.3 340.79 2659.8 378.29 2575.8"/>
    <polygon id="s57" class="cls-1" points="804.28 2668.8 907.78 2728.8 1069.79 3073.8 912.28 2983.8 804.28 2668.8"/>
    <polygon id="s56" class="cls-1" points="718.78 2860.8 843.28 2788.68 912.28 2983.8 754.78 3073.8 718.78 2860.8"/>
    <polygon id="s94" class="cls-1" points="319.79 3421.8 228.28 3474.3 112.78 3693.3 232.78 3624.3 319.79 3421.8"/>
    <polygon id="_42" data-name="42" class="cls-2" points="354.29 3832.76 354.29 3693.33 233.53 3623.62 112.78 3693.33 112.78 3832.76 233.53 3902.48 354.29 3832.76"/>
    <polygon id="_50" data-name="50" class="cls-2" points="949.78 3922.96 949.78 3787.85 832.78 3720.3 715.77 3787.85 715.77 3922.96 832.78 3990.51 949.78 3922.96"/>
    <polygon id="_49" data-name="49" class="cls-2" points="714.28 3909.98 714.28 3776.61 598.78 3709.93 483.29 3776.61 483.29 3909.98 598.78 3976.66 714.28 3909.98"/>
    <polygon id="_48" data-name="48" class="cls-2" points="463.79 4049.06 463.79 3894.04 329.54 3816.53 195.28 3894.04 195.28 4049.06 329.54 4126.56 463.79 4049.06"/>
    <polygon id="_51" data-name="51" class="cls-2" points="1090.79 3757.13 1090.79 3615.97 968.53 3545.39 846.28 3615.97 846.28 3757.13 968.53 3827.71 1090.79 3757.13"/>
    <polygon id="s87" class="cls-1" points="690.28 3414.3 783.28 3474.3 915.28 3982.8 757.78 3892.8 690.28 3414.3"/>
    <polygon id="s90" class="cls-1" points="783.28 3582.3 832.78 3720.3 715.78 3787.8 690.28 3637.8 783.28 3582.3"/>
    <polygon id="s92" class="cls-1" points="844.78 3438.3 915.28 3621.3 1071.29 3714.3 976.78 3516.3 844.78 3438.3"/>
    <polygon id="s91" class="cls-1" points="721.78 3501.3 757.78 3711.3 913.78 3621.3 844.78 3429.3 721.78 3501.3"/>
    <polygon id="s89" class="cls-1" points="690.28 3637.8 714.28 3777.3 598.78 3709.8 597.28 3582.3 690.28 3637.8"/>
    <polygon id="s85" class="cls-1" points="234.28 3811.8 195.28 3894.3 330.29 3816.3 354.29 3742.8 234.28 3811.8"/>
    <polygon id="s84" class="cls-1" points="343.79 3448.8 358.79 3400.8 241.78 3468.3 216.28 3522.3 343.79 3448.8"/>
    <polygon id="s82" class="cls-1" points="463.79 3400.8 483.29 3267.3 379.79 3346.8 331.79 3480.3 463.79 3400.8"/>
    <polygon id="s80" class="cls-1" points="483.29 3112.8 597.98 3178.8 598.78 3168.3 492.29 3108.3 483.29 3112.8"/>
    <polygon id="s79" class="cls-1" points="463.79 3249.3 483.29 3129.3 483.29 3262.8 463.79 3403.8 463.79 3249.3"/>
    <polygon id="s78" class="cls-1" points="597.28 3003.3 597.28 2983.8 483.29 3049.8 472.79 3075.3 597.28 3003.3"/>
    <polygon id="s77" class="cls-1" points="109.78 3190.8 229.78 3259.8 316.79 3181.8 223.78 3132.3 109.78 3190.8"/>
    <polygon id="s76" class="cls-1" points="946.78 3186.3 876.28 3099.3 783.28 3153.3 831.28 3253.8 946.78 3186.3"/>
    <polygon id="s75" class="cls-1" points="1089.29 3109.8 967.78 3049.8 876.28 3103.8 967.78 3180.3 1089.29 3109.8"/>
    <polygon id="s73" class="cls-1" points="844.78 3090.3 804.28 3069.3 804.28 3186.3 844.78 3231.3 844.78 3090.3"/>
    <polygon id="s70" class="cls-1" points="726.28 2788.8 690.28 2770.8 597.28 2826.3 594.28 2865.3 726.28 2788.8"/>
    <polygon id="s68" class="cls-1" points="712.78 3133.8 715.78 3138.3 715.78 3270.3 712.78 3267.3 712.78 3133.8"/>
    <polygon id="s66" class="cls-1" points="471.29 3840.3 463.79 3894.3 330.29 3816.3 346.79 3768.3 471.29 3840.3"/>
    <polygon id="s67" class="cls-1" points="483.29 3909.3 463.79 4048.8 463.79 3912.3 483.29 3777.3 483.29 3909.3"/>
    <polygon id="s97" class="cls-1" points="379.79 3346.8 360.29 3400.8 477.29 3468.3 487.79 3406.8 379.79 3346.8"/>
    <polygon id="s95" class="cls-1" points="477.29 3604.8 471.29 3657.3 346.79 3729.3 358.79 3672.3 477.29 3604.8"/>
    <polygon id="s93" class="cls-1" points="358.79 3672.3 354.29 3693.3 232.78 3624.3 241.78 3604.53 358.79 3672.3"/>
    <polygon id="s58" class="cls-1" points="718.78 2860.8 726.28 2910.3 594.28 2833.8 594.28 2788.68 718.78 2860.8"/>
    <polygon id="s35" class="cls-1" points="711.28 2542.8 718.78 2572.8 594.28 2644.8 594.28 2608.8 711.28 2542.8"/>
    <polygon id="s36" class="cls-1" points="711.28 2550.3 829.78 2617.8 843.28 2644.8 718.78 2572.8 711.28 2550.3"/>
    <polygon id="s83" class="cls-1" points="343.79 3300.3 379.79 3226.8 379.79 3346.8 343.79 3447.3 343.79 3300.3"/>
    <polygon id="_45" data-name="45" class="cls-2" points="477.29 3604.53 477.29 3468.56 359.54 3400.58 241.78 3468.56 241.78 3604.53 359.54 3672.51 477.29 3604.53"/>
    <polygon id="_39" data-name="39" class="cls-2" points="712.78 3262.51 712.78 3129.95 597.98 3063.66 483.17 3129.95 483.17 3262.51 597.98 3328.8 712.78 3262.51"/>
    <polygon id="_37" data-name="37" class="cls-2" points="946.78 3276.98 946.78 3143.61 831.28 3076.93 715.78 3143.61 715.78 3276.98 831.28 3343.66 946.78 3276.98"/>
    <polygon id="_36" data-name="36" class="cls-2" points="844.78 3507.81 844.78 3365.78 721.78 3294.77 598.78 3365.78 598.78 3507.81 721.78 3578.82 844.78 3507.81"/>
    <polygon id="s86" class="cls-1" points="726.28 3570.3 756.28 3711.3 756.28 3892.8 726.28 3721.8 726.28 3570.3"/>
    <polygon id="_44" data-name="44" class="cls-2" points="1069.79 3892.55 1069.79 3711.55 913.03 3621.05 756.28 3711.55 756.28 3892.55 913.03 3983.05 1069.79 3892.55"/>
    <polygon id="_43" data-name="43" class="cls-2" points="594.28 3873.18 594.28 3729.42 469.79 3657.54 345.29 3729.42 345.29 3873.18 469.79 3945.06 594.28 3873.18"/>
    <polygon id="s96" class="cls-1" points="463.09 3594.3 485.59 3406.8 595.78 3346.8 595.09 3517.8 463.09 3594.3"/>
    <polygon id="_46" data-name="46" class="cls-2" points="726.28 3745.59 726.28 3594.04 595.03 3518.26 463.79 3594.04 463.79 3745.59 595.03 3821.37 726.28 3745.59"/>
    <polygon id="_47" data-name="47" class="cls-2" points="342.29 3571.91 342.29 3424.68 214.78 3351.07 87.28 3424.68 87.28 3571.91 214.78 3645.52 342.29 3571.91"/>
    <polygon id="s81" class="cls-1" points="196.78 3376.8 214.78 3373.8 342.29 3447.3 328.79 3453.3 196.78 3376.8"/>
    <polygon id="_26" data-name="26" class="cls-2" points="711.28 2541.55 711.28 2407.31 595.03 2340.2 478.79 2407.31 478.79 2541.55 595.03 2608.66 711.28 2541.55"/>
    <polygon id="_27" data-name="27" class="cls-2" points="946.78 2550.03 946.78 2414.06 829.03 2346.08 711.28 2414.06 711.28 2550.03 829.03 2618.01 946.78 2550.03"/>
    <polygon id="_28" data-name="28" class="cls-2" points="843.28 2788.68 843.28 2644.92 718.78 2573.04 594.28 2644.92 594.28 2788.68 718.78 2860.56 843.28 2788.68"/>
    <polygon id="_33" data-name="33" class="cls-2" points="475.7 2961.17 475.7 2825.26 357.99 2757.3 240.28 2825.26 240.28 2961.17 357.99 3029.13 475.7 2961.17"/>
    <polygon id="_32" data-name="32" class="cls-2" points="351.29 3190.76 351.29 3051.33 230.53 2981.62 109.78 3051.33 109.78 3190.76 230.53 3260.48 351.29 3190.76"/>
    <polygon id="_41" data-name="41" class="cls-2" points="597.28 3121.68 597.28 2977.92 472.79 2906.04 348.29 2977.92 348.29 3121.68 472.79 3193.56 597.28 3121.68"/>
    <polygon id="s74" class="cls-1" points="843.28 3133.8 829.78 3121.8 945.28 3186.3 966.28 3204.3 843.28 3133.8"/>
    <polygon id="_38" data-name="38" class="cls-2" points="1089.29 3244.86 1089.29 3103.98 967.28 3033.54 845.27 3103.98 845.27 3244.86 967.28 3315.3 1089.29 3244.86"/>
    <polygon id="_40" data-name="40" class="cls-2" points="463.79 3403.19 463.79 3249.9 331.04 3173.26 198.28 3249.9 198.28 3403.19 331.04 3479.83 463.79 3403.19"/>
    <polygon id="s71" class="cls-1" points="460.79 3057.3 502.79 3040.8 592.78 3096.3 592.78 3135.3 460.79 3057.3"/>
    <polygon id="s69" class="cls-1" points="912.28 3346.8 876.28 3156.3 726.28 3061.8 754.78 3256.8 912.28 3346.8"/>
    <polygon id="_35" data-name="35" class="cls-2" points="725.59 3061.82 725.59 2909.81 593.94 2833.8 462.29 2909.81 462.29 3061.82 593.94 3137.83 725.59 3061.82"/>
    <polygon id="_34" data-name="34" class="cls-2" points="340.79 2805.73 340.79 2659.37 214.03 2586.19 87.28 2659.37 87.28 2805.73 214.03 2878.91 340.79 2805.73"/>
    <polygon id="s55" class="cls-1" points="726.28 3061.8 754.78 3256.8 754.78 3073.8 725.59 2909.81 726.28 3061.8"/>
    <polygon id="s72" class="cls-1" points="1068.29 3253.8 966.28 3238.8 843.28 3309.3 910.78 3343.8 1068.29 3253.8"/>
    <polygon id="_31" data-name="31" class="cls-2" points="1069.79 3256.23 1069.79 3074.36 912.28 2983.43 754.78 3074.36 754.78 3256.23 912.28 3347.16 1069.79 3256.23"/>
    <polygon id="s110" class="cls-1" points="876.28 1693.8 874.78 1791.3 886.78 1792.8 885.28 1683.3 876.28 1693.8"/>
    <polygon id="s1" class="cls-1" points="945.28 570.3 945.28 708.3 894.28 817.8 892.78 703.8 945.28 570.3"/>
    <polygon id="_2" data-name="2" class="cls-2" points="1188.29 704.71 1188.29 567.88 1069.79 499.46 951.28 567.88 951.28 704.71 1069.79 773.13 1188.29 704.71"/>
    <polygon id="s33" class="cls-1" points="1048.79 358.8 595.78 619.8 597.28 984.3 721.78 910.8 1048.79 358.8"/>
    <polygon id="s32" class="cls-1" points="142.78 358.8 487.79 1008.3 597.28 1066.8 595.78 619.8 142.78 358.8"/>
    <polygon id="s3" class="cls-1" points="433.79 730.8 273.29 823.8 378.29 1129.8 487.79 1068.3 433.79 730.8"/>
    <polygon id="s20" class="cls-1" points="910.78 1888.8 781.78 1971.3 876.28 2025.3 1069.79 1980.3 910.78 1888.8"/>
    <polygon id="s23" class="cls-1" points="597.28 1974.3 502.79 2026.8 465.29 1995.3 595.78 1918.8 597.28 1974.3"/>
    <polygon id="s50" class="cls-1" points="595.78 1891.8 597.28 1918.8 462.29 1995.31 436.79 1983.3 595.78 1891.8"/>
    <polygon id="s19" class="cls-1" points="843.28 846.3 843.28 981.3 870.28 820.8 870.28 663.3 843.28 846.3"/>
    <polygon id="s18" class="cls-1" points="912.28 802.8 856.78 1008.3 727.78 1083.3 756.28 894.3 912.28 802.8"/>
    <polygon id="s17" class="cls-1" points="597.28 1183.8 595.78 1008.3 727.78 1083.3 687.28 1236.3 597.28 1183.8"/>
    <polygon id="s16" class="cls-1" points="597.28 1183.8 505.79 1237.8 465.29 1083.3 595.78 1008.3 597.28 1183.8"/>
    <polygon id="s15" class="cls-1" points="379.79 1257.3 379.79 1129.8 342.29 1026.3 342.29 1168.8 379.79 1257.3"/>
    <polygon id="s14" class="cls-1" points="430.79 835.8 505.79 1237.8 409.79 1189.8 268.79 741.3 430.79 835.8"/>
    <polygon id="s11" class="cls-1" points="462.29 1584.3 462.29 1531.8 328.79 1453.8 352.79 1515.3 462.29 1584.3"/>
    <polygon id="s10" class="cls-1" points="195.28 1531.8 232.78 1584.3 352.79 1515.3 328.79 1453.8 195.28 1531.8"/>
    <polygon id="s9" class="cls-1" points="874.78 1803.3 906.28 1773.3 1009.78 1833.3 969.28 1857.3 874.78 1803.3"/>
    <polygon id="s8" class="cls-1" points="874.78 1803.3 781.78 1857.3 802.78 1833.3 906.28 1773.3 874.78 1803.3"/>
    <polygon id="s7" class="cls-1" points="781.78 1857.3 781.78 1971.3 802.78 1953.3 802.78 1833.3 781.78 1857.3"/>
    <polygon id="_9" data-name="9" class="cls-2" points="1080.62 1792.34 1080.62 1680.43 983.7 1624.48 886.78 1680.43 886.78 1792.34 983.7 1848.3 1080.62 1792.34"/>
    <polygon id="s48" class="cls-1" points="690.28 1803.3 694.78 1784.5 796.78 1842.3 781.78 1857.3 690.28 1803.3"/>
    <polygon id="s54" class="cls-1" points="1051.79 1546.8 984.28 1624.8 886.78 1680.3 939.28 1611.3 1051.79 1546.8"/>
    <polygon id="_10" data-name="10" class="cls-2" points="897.28 1784.5 897.28 1667.59 796.03 1609.13 694.78 1667.59 694.78 1784.5 796.03 1842.96 897.28 1784.5"/>
    <polygon id="s6" class="cls-1" points="729.28 1539.3 745.78 1471.8 597.28 1387.8 597.28 1462.8 729.28 1539.3"/>
    <polygon id="_5" data-name="5" class="cls-2" points="342.29 867.52 342.29 720.3 214.78 646.69 87.28 720.3 87.28 867.52 214.78 941.14 342.29 867.52"/>
    <polygon id="s43" class="cls-1" points="102.28 1026.3 231.28 1306.8 352.79 1375.8 267.29 1120.8 102.28 1026.3"/>
    <polygon id="s53" class="cls-1" points="111.28 1515.3 232.78 1584.3 315.29 1693.8 223.78 1644.3 111.28 1515.3"/>
    <polygon id="_14" data-name="14" class="cls-2" points="352.79 1515.3 352.79 1375.83 232.03 1306.12 111.28 1375.83 111.28 1515.26 232.03 1584.98 352.79 1515.3"/>
    <polygon id="_13" data-name="13" class="cls-2" points="597.28 1497.21 597.28 1352.58 472.04 1280.27 346.79 1352.58 346.79 1497.21 472.04 1569.52 597.28 1497.21"/>
    <polygon id="s29" class="cls-1" points="315.29 2134.05 232.78 2143.8 111.28 2211.3 223.78 2185.8 315.29 2134.05"/>
    <polygon id="_23" data-name="23" class="cls-2" points="353.8 2353.82 353.8 2213.8 232.54 2143.8 111.28 2213.8 111.28 2353.82 232.54 2423.82 353.8 2353.82"/>
    <polygon id="s27" class="cls-1" points="411.29 2187.3 411.29 2284.8 354.29 2353.8 354.29 2211.3 411.29 2187.3"/>
    <polygon id="s28" class="cls-1" points="315.29 2133.3 411.29 2187.3 354.29 2211.3 232.78 2143.8 315.29 2133.3"/>
    <polygon id="_19" data-name="19" class="cls-2" points="472.1 2144.34 472.1 2000.98 347.94 1929.3 223.78 2000.98 223.78 2144.34 347.94 2216.02 472.1 2144.34"/>
    <polygon id="s26" class="cls-1" points="31.79 1746.3 223.78 1857.3 315.29 1803.3 174.28 1663.8 31.79 1746.3"/>
    <polygon id="_15" data-name="15" class="cls-2" points="462.29 1685.69 462.29 1531.48 328.74 1454.38 195.19 1531.48 195.19 1685.69 328.74 1762.8 462.29 1685.69"/>
    <polygon id="s12" class="cls-1" points="597.28 1416.3 597.28 1386.3 447.29 1471.8 471.29 1488.3 597.28 1416.3"/>
    <polygon id="s42" class="cls-1" points="825.28 1545.3 796.03 1609.8 897.28 1668.3 939.28 1611.3 825.28 1545.3"/>
    <polygon id="_8" data-name="8" class="cls-2" points="1053.29 1545.12 1053.29 1413.48 939.28 1347.66 825.28 1413.48 825.28 1545.12 939.28 1610.93 1053.29 1545.12"/>
    <polygon id="s2" class="cls-1" points="870.28 663.3 1008.28 583.8 874.78 820.8 849.28 798.3 870.28 663.3"/>
    <polygon id="_6" data-name="6" class="cls-2" points="845.09 1054.9 845.09 911.83 721.19 840.3 597.28 911.83 597.28 1054.9 721.19 1126.44 845.09 1054.9"/>
    <polygon id="s45" class="cls-1" points="465.29 1236.3 472.79 1276.8 595.78 1347.3 596.53 1311.3 465.29 1236.3"/>
    <polygon id="_12" data-name="12" class="cls-2" points="727.78 1235.52 727.78 1083.96 596.53 1008.19 465.29 1083.96 465.29 1235.52 596.53 1311.3 727.78 1235.52"/>
    <polygon id="_11" data-name="11" class="cls-2" points="860.29 1463.38 860.29 1311.53 728.79 1235.61 597.28 1311.53 597.28 1463.38 728.79 1539.3 860.29 1463.38"/>
    <polygon id="s100" class="cls-1" points="859.78 1464.3 729.28 1539.3 694.78 1668.3 796.78 1609.8 859.78 1464.3"/>
    <polygon id="s49" class="cls-1" points="745.78 1644.3 688.78 1803.3 595.77 1857.3 596.53 1730.39 745.78 1644.3"/>
    <polygon id="s24" class="cls-1" points="462.29 1687.8 328.79 1764.3 279.29 1707.3 438.29 1617.3 462.29 1687.8"/>
    <polygon id="s107" class="cls-1" points="1069.79 2161.8 876.28 2127.3 781.78 2181.3 912.28 2253.3 1069.79 2161.8"/>
    <polygon id="s106" class="cls-1" points="753.28 2163.3 912.28 2253.3 781.78 2181.3 690.28 2130.3 728.05 2148.3 753.28 2163.3"/>
    <polygon id="s21" class="cls-1" points="781.78 1971.3 690.28 2025.3 753.28 1980.3 910.78 1888.8 781.78 1971.3"/>
    <polygon id="s30" class="cls-1" points="690.28 2025.3 690.28 2125.8 753.28 2161.8 753.28 1980.3 690.28 2025.3"/>
    <polygon id="s22" class="cls-1" points="690.28 2025.3 597.28 1974.3 595.78 1918.8 727.78 1995.3 690.28 2025.3"/>
    <polygon id="_17" data-name="17" class="cls-2" points="1009.78 1953.17 1009.78 1833.66 906.28 1773.9 802.78 1833.66 802.78 1953.17 906.28 2012.92 1009.78 1953.17"/>
    <polygon id="_24" data-name="24" class="cls-2" points="1069.79 2162.41 1069.79 1979.68 911.53 1888.32 753.28 1979.68 753.28 2162.41 911.53 2253.78 1069.79 2162.41"/>
    <polygon id="s31" class="cls-1" points="328.79 1762.8 315.29 1746.3 174.28 1663.8 195.28 1686.3 328.79 1762.8"/>
    <polygon id="s102" class="cls-1" points="31.79 1909.8 226.78 1962.3 226.78 2001.3 172.78 1992.3 31.79 1909.8"/>
    <polygon id="s65" class="cls-1" points="328.79 1762.8 328.79 1920.65 315.29 1909.8 315.29 1746.3 328.79 1762.8"/>
    <polygon id="_21" data-name="21" class="cls-2" points="315.29 1909.89 315.29 1746.21 173.53 1664.37 31.79 1746.21 31.79 1909.89 173.53 1991.72 315.29 1909.89"/>
    <polygon id="_16" data-name="16" class="cls-2" points="745.78 1644.22 745.78 1471.88 596.53 1385.71 447.29 1471.88 447.29 1644.22 596.53 1730.39 745.78 1644.22"/>
    <polygon id="s4" class="cls-1" points="727.78 1083.3 754.78 895.8 756.28 1072.8 729.28 1236.3 727.78 1083.3"/>
    <polygon id="s25" class="cls-1" points="595.78 1773.3 465.29 1696.8 436.79 1617.3 594.28 1708.8 595.78 1773.3"/>
    <polygon id="s34" class="cls-1" points="1144.79 820.8 1071.29 909.3 1069.79 892.8 1044.29 879.3 1144.79 820.8"/>
    <polygon id="_3" data-name="3" class="cls-2" points="433.79 730.14 433.79 543.95 272.54 450.85 111.28 543.95 111.28 730.14 272.54 823.24 433.79 730.14"/>
    <polygon id="_4" data-name="4" class="cls-2" points="1144.79 821.29 1144.79 662.8 1007.53 583.56 870.28 662.8 870.28 821.29 1007.53 900.53 1144.79 821.29"/>
    <polygon id="s64" class="cls-1" points="174.28 1992.3 315.29 1909.8 343.76 1929.3 223.78 2001.3 174.28 1992.3"/>
    <polygon id="s47" class="cls-1" points="756.28 1072.8 912.28 1165.8 859.78 1308.3 727.78 1234.8 756.28 1072.8"/>
    <polygon id="s46" class="cls-1" points="1069.79 1075.8 912.28 1165.8 859.78 1311.3 860.29 1396.27 939.28 1350.3 1069.79 1075.8"/>
    <polygon id="s44" class="cls-1" points="267.29 1120.8 346.79 1347.3 472.79 1276.8 430.79 1026.3 267.29 1120.8"/>
    <polygon id="s5" class="cls-1" points="465.29 1236.3 430.79 1026.3 430.79 835.8 465.29 1083.3 465.29 1236.3"/>
    <polygon id="s37" class="cls-1" points="193.78 2458.8 232.78 2424.3 354.29 2353.8 328.79 2380.8 193.78 2458.8"/>
    <polygon id="s108" class="cls-1" points="328.79 2691.3 375.29 2581.8 478.79 2533.8 462.29 2613.3 328.79 2691.3"/>
    <polygon id="_29" data-name="29" class="cls-2" points="462.29 2613.56 462.29 2458.54 328.04 2381.03 193.78 2458.54 193.78 2613.56 328.04 2691.07 462.29 2613.56"/>
    <polygon id="s104" class="cls-1" points="411.29 2602.8 478.79 2407.8 595.78 2340.3 594.28 2496.3 411.29 2602.8"/>
    <polygon id="_7" data-name="7" class="cls-2" points="1069.79 1075.1 1069.79 893.71 912.7 803.02 755.61 893.71 755.61 1075.1 912.7 1165.8 1069.79 1075.1"/>
    <polygon id="s38" class="cls-1" points="472.79 2143.8 348.29 2215.8 226.78 2284.8 411.29 2178.3 472.79 2143.8"/>
    <polygon id="s105" class="cls-1" points="690.28 2130.3 594.28 2185.8 595.78 2223.3 727.78 2149.8 690.28 2130.3"/>
    <polygon id="_22" data-name="22" class="cls-2" points="727.78 2146.82 727.78 1995.27 596.53 1919.49 465.29 1995.27 465.29 2146.82 596.53 2222.6 727.78 2146.82"/>
    <polygon id="s103" class="cls-1" points="462.29 2458.8 462.29 2613.3 478.79 2541.3 478.79 2407.8 462.29 2458.8"/>
    <polygon id="s101" class="cls-1" points="279.29 1891.8 348.29 1929.3 465.29 1995.3 436.79 1980.3 279.29 1891.8"/>
    <polygon id="s99" class="cls-1" points="342.29 1026.3 273.29 823.8 111.28 730.8 214.78 942.3 342.29 1026.3"/>
    <polygon id="_18" data-name="18" class="cls-2" points="430.79 1025.99 430.79 836.33 266.54 741.5 102.28 836.33 102.28 1025.99 266.54 1120.82 430.79 1025.99"/>
    <polygon id="_20" data-name="20" class="cls-2" points="595.77 1891.8 595.77 1708.8 437.29 1617.3 278.81 1708.8 278.81 1891.8 437.29 1983.3 595.77 1891.8"/>
    <polygon id="_30" data-name="30" class="cls-2" points="594.28 2496.64 594.28 2284.46 410.54 2178.37 226.78 2284.46 226.78 2496.64 410.54 2602.72 594.28 2496.64"/>
    <polygon id="s98" class="cls-1" points="433.79 543.3 487.79 952.8 487.79 1068.3 433.79 730.8 433.79 543.3"/>
    <polygon id="_1" data-name="1" class="cls-3" points="595.45 619.8 142.11 358.06 142.78 -166.2 595.78 -428.7 1048.79 -166.2 1048.79 358.06 595.45 619.8"/>
    <polygon id="xx05" class="cls-1" points="331.79 3172.8 348.29 3121.8 472.79 3193.8 463.79 3249.3 331.79 3172.8"/>
    <polygon id="xx01" class="cls-1" points="727.78 3742.8 690.28 3696.3 595.78 3750.3 595.78 3818.37 727.78 3742.8"/>
    <polygon id="xx02" class="cls-1" points="727.78 3594.3 720.28 3577.8 597.28 3505.8 598.78 3519.56 727.78 3594.3"/>
    <polygon id="xx03" class="cls-1" points="721.78 3292.8 712.78 3264.3 831.28 3333.3 844.78 3364.8 721.78 3292.8"/>
    <polygon id="xx04" class="cls-1" points="712.78 3262.8 721.78 3292.8 597.28 3364.8 597.28 3328.8 712.78 3262.8"/>
    <polygon id="xxx07" class="cls-1" points="804.28 2991.3 831.28 3076.8 715.78 3144.3 699.28 3052.8 804.28 2991.3"/>
    <polygon id="xxx06" class="cls-1" points="597.28 2991.3 597.28 3063.3 712.78 3129.3 699.28 3052.8 597.28 2991.3"/>
    <polygon id="yy1" class="cls-1" points="502.79 2770.8 414.29 2824.8 349.79 2976.3 468.04 2908.05 502.79 2770.8"/>
    <polygon id="yy2" class="cls-1" points="231.28 2982.3 316.79 2773.8 414.29 2824.8 349.79 3051.3 231.28 2982.3"/>
    <polygon id="yy3" class="cls-1" points="109.78 3051.3 225.28 2824.8 316.79 2773.8 231.28 2982.3 109.78 3051.3"/>
    <polygon id="yy4" class="cls-1" points="357.29 3088.8 331.79 3172.8 198.28 3249.3 231.28 3163.8 357.29 3088.8"/>
    <polygon id="yy5" class="cls-1" points="316.79 3096.3 225.28 3148.8 87.28 3426.3 214.78 3352.8 316.79 3096.3"/>
    <polygon id="s51" class="cls-1" points="594.28 2284.8 409.79 2178.3 465.29 2146.8 597.28 2223.3 594.28 2284.8"/>
    <polygon id="c1" class="cls-3" points="598.07 5079.3 211.11 4855.88 211.69 4408.38 598.36 4184.31 985.03 4408.38 985.03 4855.88 598.07 5079.3"/>
    <polygon id="k01" class="cls-1" points="598.78 3976.8 598.78 4183.8 985.78 4408.8 832.78 3984.3 714.28 3909.3 598.78 3976.8"/>
    <polygon id="k02" class="cls-1" points="483.29 3909.3 328.79 4126.8 211.78 4408.8 598.78 4183.8 598.78 3976.8 483.29 3909.3"/>
  </g>
</svg>
