<svg xmlns="http://www.w3.org/2000/svg" width="1200" height="4736.84" viewBox="0 0 1200 4736.84">
  <defs>
    <style>
      .cls-1 {
        fill: #f2f2f2;
      }

      .cls-1, .cls-2, .cls-3 {
        stroke: #000;
        stroke-miterlimit: 10;
      }

      .cls-2, .cls-3 {
        fill: #fff;
      }

      .cls-3 {
        stroke-width: 2px;
      }
    </style>
  </defs>
  <title>aartics_polygons_vertical</title>
  <g id="_06stage" data-name="06stage">
    <polygon id="s41" class="cls-1" points="805.05 2191.5 704.55 2253 710.55 2164.5 829.05 2097 805.05 2191.5"/>
    <polygon id="s88" class="cls-1" points="782.55 3582 782.55 3474 845.55 3615 845.55 3757.5 782.55 3582"/>
    <polygon id="s40" class="cls-1" points="595.05 2113.5 710.55 2181 700.05 2269.5 596.55 2208 595.05 2113.5"/>
    <polygon id="s52" class="cls-1" points="805.05 2193 911.55 2253 946.05 2164.5 829.05 2097 805.05 2193"/>
    <polygon id="s60" class="cls-1" points="475.05 2563.5 490.05 2607 377.55 2538 356.55 2496 475.05 2563.5"/>
    <polygon id="s62" class="cls-1" points="214.05 2236.5 317.55 2454 226.05 2506.5 86.55 2310 214.05 2236.5"/>
    <polygon id="s59" class="cls-1" points="593.55 2434.5 461.55 2511 490.05 2607 593.55 2544 593.55 2434.5"/>
    <polygon id="s61" class="cls-1" points="377.55 2415 377.55 2538 356.55 2496 340.05 2455.5 340.05 2310 377.55 2415"/>
    <polygon id="s57" class="cls-1" points="784.05 2616 877.05 2671.5 1069.05 2404.5 911.55 2314.5 784.05 2616"/>
    <polygon id="s56" class="cls-1" points="691.05 2668.5 784.05 2616 911.55 2314.5 754.05 2404.5 691.05 2668.5"/>
    <polygon id="s94" class="cls-1" points="319.05 3421.5 227.55 3474 116.55 3600 232.05 3534 319.05 3421.5"/>
    <polygon id="_42" data-name="42" class="cls-2" points="353.55 3742.46 353.55 3603.03 232.8 3533.32 112.05 3603.03 112.05 3742.46 232.8 3812.18 353.55 3742.46"/>
    <polygon id="_50" data-name="50" class="cls-2" points="949.05 3922.66 949.05 3787.55 832.05 3720 715.04 3787.55 715.04 3922.66 832.05 3990.21 949.05 3922.66"/>
    <polygon id="_49" data-name="49" class="cls-2" points="713.55 3909.68 713.55 3776.31 598.05 3709.63 482.55 3776.31 482.55 3909.68 598.05 3976.36 713.55 3909.68"/>
    <polygon id="_48" data-name="48" class="cls-2" points="463.05 4048.76 463.05 3893.74 328.8 3816.23 194.55 3893.74 194.55 4048.76 328.8 4126.27 463.05 4048.76"/>
    <polygon id="_51" data-name="51" class="cls-2" points="1090.05 3756.83 1090.05 3615.67 967.8 3545.09 845.55 3615.67 845.55 3756.83 967.8 3827.41 1090.05 3756.83"/>
    <polygon id="s87" class="cls-1" points="689.55 3424.5 782.55 3474 914.55 3769.5 757.05 3679.5 689.55 3424.5"/>
    <polygon id="s90" class="cls-1" points="782.55 3582 832.05 3720 715.05 3787.5 689.55 3637.5 782.55 3582"/>
    <polygon id="s92" class="cls-1" points="782.55 3262.5 914.55 3408 1070.55 3499.5 878.55 3313.5 782.55 3262.5"/>
    <polygon id="s91" class="cls-1" points="689.55 3316.5 757.05 3499.5 914.55 3408 782.55 3262.5 689.55 3316.5"/>
    <polygon id="s89" class="cls-1" points="689.55 3637.5 713.55 3777 598.05 3709.5 596.55 3582 689.55 3637.5"/>
    <polygon id="s85" class="cls-1" points="233.55 3811.5 194.55 3894 329.55 3816 353.55 3742.5 233.55 3811.5"/>
    <polygon id="s84" class="cls-1" points="343.05 3339 358.05 3319.5 241.05 3387 215.55 3412.5 343.05 3339"/>
    <polygon id="s82" class="cls-1" points="463.05 3121.5 482.55 3112.5 379.05 3168 331.05 3198 463.05 3121.5"/>
    <polygon id="s80" class="cls-1" points="482.55 3112.5 597.25 3178.5 598.05 3168 491.55 3108 482.55 3112.5"/>
    <polygon id="s79" class="cls-1" points="463.05 2967 482.55 2979 482.55 3112.5 463.05 3121.5 463.05 2967"/>
    <polygon id="s78" class="cls-1" points="596.55 2898 596.55 2913 482.55 2979 472.05 2970 596.55 2898"/>
    <polygon id="s77" class="cls-1" points="109.05 2904 230.55 2973 316.05 2991 230.55 2938.5 109.05 2904"/>
    <polygon id="s76" class="cls-1" points="946.05 3111 875.55 3099 782.55 3153 830.55 3178.5 946.05 3111"/>
    <polygon id="s75" class="cls-1" points="1088.55 2901 967.05 2938.5 875.55 2992.5 967.05 2971.5 1088.55 2901"/>
    <polygon id="s73" class="cls-1" points="844.05 2760 803.55 2806.5 803.55 2926.5 844.05 2901 844.05 2760"/>
    <polygon id="s70" class="cls-1" points="725.55 2662.5 698.55 2748 596.55 2808 593.55 2739 725.55 2662.5"/>
    <polygon id="s68" class="cls-1" points="712.05 2979 715.02 2979 715.05 3111 712.05 3112.5 712.05 2979"/>
    <polygon id="s66" class="cls-1" points="470.55 3840 463.05 3894 329.55 3816 346.05 3768 470.55 3840"/>
    <polygon id="s67" class="cls-1" points="482.55 3909 463.05 4048.5 463.05 3912 482.55 3777 482.55 3909"/>
    <polygon id="s97" class="cls-1" points="379.05 3297 358.05 3319.5 476.55 3387 487.05 3357 379.05 3297"/>
    <polygon id="s95" class="cls-1" points="476.55 3523.5 470.55 3552 346.05 3624 358.05 3591 476.55 3523.5"/>
    <polygon id="s93" class="cls-1" points="358.05 3591 353.55 3603.03 232.05 3534 241.05 3523.23 358.05 3591"/>
    <polygon id="s58" class="cls-1" points="718.05 2544 725.55 2511 593.55 2434.5 593.55 2472 718.05 2544"/>
    <polygon id="s35" class="cls-1" points="710.55 2311.5 718.05 2256 593.55 2328 595.05 2382 710.55 2311.5"/>
    <polygon id="s36" class="cls-1" points="716.55 2304 827.55 2368.5 842.55 2328 718.05 2256 716.55 2304"/>
    <polygon id="s83" class="cls-1" points="343.05 3192 379.05 3171 379.05 3297 343.05 3339 343.05 3192"/>
    <polygon id="_45" data-name="45" class="cls-2" points="476.55 3523.23 476.55 3387.26 358.8 3319.28 241.05 3387.26 241.05 3523.23 358.8 3591.21 476.55 3523.23"/>
    <polygon id="_39" data-name="39" class="cls-2" points="712.05 3112.21 712.05 2979.64 597.25 2913.36 482.44 2979.64 482.44 3112.21 597.25 3178.5 712.05 3112.21"/>
    <polygon id="_37" data-name="37" class="cls-2" points="946.05 3111.68 946.05 2978.31 830.55 2911.63 715.05 2978.31 715.05 3111.68 830.55 3178.36 946.05 3111.68"/>
    <polygon id="_36" data-name="36" class="cls-2" points="844.05 3330.51 844.05 3188.48 721.05 3117.47 598.05 3188.48 598.05 3330.51 721.05 3401.53 844.05 3330.51"/>
    <polygon id="s86" class="cls-1" points="727.05 3424.5 757.05 3498 757.05 3679.5 727.05 3574.5 727.05 3424.5"/>
    <polygon id="_44" data-name="44" class="cls-2" points="1070.55 3679.25 1070.55 3498.25 913.8 3407.75 757.05 3498.25 757.05 3679.25 913.8 3769.75 1070.55 3679.25"/>
    <polygon id="_43" data-name="43" class="cls-2" points="595.05 3767.88 595.05 3624.12 470.55 3552.24 346.05 3624.12 346.05 3767.88 470.55 3839.76 595.05 3767.88"/>
    <polygon id="s96" class="cls-1" points="464.55 3424.5 487.05 3357 597.25 3297 596.55 3348 464.55 3424.5"/>
    <polygon id="_46" data-name="46" class="cls-2" points="727.05 3575.79 727.05 3424.24 595.8 3348.46 464.55 3424.24 464.55 3575.79 595.8 3651.57 727.05 3575.79"/>
    <polygon id="_47" data-name="47" class="cls-2" points="343.05 3339.11 343.05 3191.89 215.55 3118.27 88.05 3191.89 88.05 3339.11 215.55 3412.72 343.05 3339.11"/>
    <polygon id="s81" class="cls-1" points="197.55 3121.5 215.55 3118.5 343.05 3192 329.55 3198 197.55 3121.5"/>
    <polygon id="_26" data-name="26" class="cls-2" points="710.55 2314.75 710.55 2180.51 594.3 2113.4 478.05 2180.51 478.05 2314.75 594.3 2381.86 710.55 2314.75"/>
    <polygon id="_27" data-name="27" class="cls-2" points="946.05 2300.73 946.05 2164.76 828.3 2096.78 710.55 2164.76 710.55 2300.73 828.3 2368.71 946.05 2300.73"/>
    <polygon id="_28" data-name="28" class="cls-2" points="842.55 2471.88 842.55 2328.12 718.05 2256.24 593.55 2328.12 593.55 2471.88 718.05 2543.76 842.55 2471.88"/>
    <polygon id="_33" data-name="33" class="cls-2" points="474.97 2699.87 474.97 2563.95 357.26 2496 239.55 2563.95 239.55 2699.87 357.26 2767.83 474.97 2699.87"/>
    <polygon id="_32" data-name="32" class="cls-2" points="350.55 2903.96 350.55 2764.53 229.8 2694.82 109.05 2764.53 109.05 2903.96 229.8 2973.68 350.55 2903.96"/>
    <polygon id="_41" data-name="41" class="cls-2" points="596.55 2897.88 596.55 2754.12 472.05 2682.24 347.55 2754.12 347.55 2897.88 472.05 2969.76 596.55 2897.88"/>
    <polygon id="s74" class="cls-1" points="844.05 2901 830.55 2911.5 946.05 2979 967.05 2971.5 844.05 2901"/>
    <polygon id="_38" data-name="38" class="cls-2" points="1088.55 2901.06 1088.55 2760.18 966.55 2689.74 844.54 2760.18 844.54 2901.06 966.55 2971.5 1088.55 2901.06"/>
    <polygon id="_40" data-name="40" class="cls-2" points="463.05 3120.89 463.05 2967.6 330.3 2890.96 197.55 2967.6 197.55 3120.89 330.3 3197.53 463.05 3120.89"/>
    <polygon id="s71" class="cls-1" points="461.55 2662.5 472.05 2682 593.55 2752.5 593.55 2739 461.55 2662.5"/>
    <polygon id="s69" class="cls-1" points="911.55 2677.5 803.55 2806.5 698.55 2748 754.05 2587.5 911.55 2677.5"/>
    <polygon id="_35" data-name="35" class="cls-2" points="724.86 2662.52 724.86 2510.51 593.21 2434.5 461.55 2510.51 461.55 2662.52 593.21 2738.53 724.86 2662.52"/>
    <polygon id="_34" data-name="34" class="cls-2" points="340.05 2455.93 340.05 2309.57 213.3 2236.39 86.55 2309.57 86.55 2455.93 213.3 2529.11 340.05 2455.93"/>
    <polygon id="s55" class="cls-1" points="725.55 2662.5 754.05 2587.5 754.05 2404.5 725.55 2511 725.55 2662.5"/>
    <polygon id="s72" class="cls-1" points="1069.05 2587.5 967.05 2689.5 844.05 2760 911.55 2677.5 1069.05 2587.5"/>
    <polygon id="_31" data-name="31" class="cls-2" points="1069.05 2586.93 1069.05 2405.06 911.55 2314.13 754.05 2405.06 754.05 2586.93 911.55 2677.86 1069.05 2586.93"/>
    <polygon id="s110" class="cls-1" points="875.55 1693.5 874.05 1791 886.05 1792.5 884.55 1683 875.55 1693.5"/>
    <polygon id="s1" class="cls-1" points="944.55 570 944.55 708 893.55 817.5 892.05 703.5 944.55 570"/>
    <polygon id="_2" data-name="2" class="cls-2" points="1187.55 704.41 1187.55 567.58 1069.05 499.17 950.55 567.58 950.55 704.41 1069.05 772.83 1187.55 704.41"/>
    <polygon id="s33" class="cls-1" points="1048.05 361.5 595.05 622.5 596.55 984 721.05 910.5 1048.05 361.5"/>
    <polygon id="s32" class="cls-1" points="142.05 361.5 487.05 1008 595.05 1066.5 595.05 622.5 142.05 361.5"/>
    <polygon id="s3" class="cls-1" points="433.05 730.5 272.55 823.5 377.55 1129.5 487.05 1068 433.05 730.5"/>
    <polygon id="s20" class="cls-1" points="910.05 1669.5 781.05 1971 875.55 2020.5 1069.05 1761 910.05 1669.5"/>
    <polygon id="s23" class="cls-1" points="596.55 1974 502.05 2026.5 464.55 1866 595.05 1789.5 596.55 1974"/>
    <polygon id="s50" class="cls-1" points="595.05 1666.5 595.05 1789.5 464.55 1866 436.05 1758 595.05 1666.5"/>
    <polygon id="s19" class="cls-1" points="842.55 846 842.55 981 869.55 820.5 869.55 663 842.55 846"/>
    <polygon id="s18" class="cls-1" points="911.55 802.5 856.05 1008 727.05 1083 755.55 894 911.55 802.5"/>
    <polygon id="s17" class="cls-1" points="596.55 1183.5 595.05 1008 727.05 1083 686.55 1236 596.55 1183.5"/>
    <polygon id="s16" class="cls-1" points="596.55 1183.5 505.05 1237.5 464.55 1083 595.05 1008 596.55 1183.5"/>
    <polygon id="s15" class="cls-1" points="379.05 1257 379.05 1129.5 341.55 1026 341.55 1168.5 379.05 1257"/>
    <polygon id="s14" class="cls-1" points="430.05 835.5 505.05 1237.5 409.05 1189.5 268.05 741 430.05 835.5"/>
    <polygon id="s9" class="cls-1" points="874.05 1803 905.55 1743 1009.05 1803 968.55 1857 874.05 1803"/>
    <polygon id="s8" class="cls-1" points="874.05 1803 781.05 1857 802.05 1803 905.55 1743 874.05 1803"/>
    <polygon id="s7" class="cls-1" points="781.05 1857 781.05 1971 802.05 1923 802.05 1803 781.05 1857"/>
    <polygon id="_9" data-name="9" class="cls-2" points="1079.88 1783.04 1079.88 1671.13 982.97 1615.18 886.05 1671.13 886.05 1783.04 982.97 1839 1079.88 1783.04"/>
    <polygon id="s48" class="cls-1" points="689.55 1803 694.05 1762.5 796.05 1821 781.05 1857 689.55 1803"/>
    <polygon id="s54" class="cls-1" points="1051.05 1470 983.55 1624.5 886.05 1680 938.55 1536 1051.05 1470"/>
    <polygon id="_10" data-name="10" class="cls-2" points="896.55 1763.2 896.55 1646.29 795.3 1587.83 694.05 1646.29 694.05 1763.2 795.3 1821.66 896.55 1763.2"/>
    <polygon id="_5" data-name="5" class="cls-2" points="341.55 867.23 341.55 720 214.05 646.39 86.55 720 86.55 867.23 214.05 940.84 341.55 867.23"/>
    <polygon id="s43" class="cls-1" points="101.55 1026 230.55 1306.5 352.05 1375.5 266.55 1120.5 101.55 1026"/>
    <polygon id="s53" class="cls-1" points="110.55 1420.5 232.05 1489.5 314.55 1696.5 223.05 1647 110.55 1420.5"/>
    <polygon id="_14" data-name="14" class="cls-2" points="352.05 1417.5 352.05 1278.03 231.3 1208.32 110.55 1278.03 110.55 1417.46 231.3 1487.18 352.05 1417.5"/>
    <polygon id="_13" data-name="13" class="cls-2" points="596.55 1346.91 596.55 1202.28 471.3 1129.97 346.05 1202.28 346.05 1346.91 471.3 1419.22 596.55 1346.91"/>
    <polygon id="s29" class="cls-1" points="314.55 2133.75 232.05 2047.5 110.55 2118 223.05 2185.5 314.55 2133.75"/>
    <polygon id="_23" data-name="23" class="cls-2" points="353.06 2257.52 353.06 2117.5 231.81 2047.5 110.55 2117.5 110.55 2257.52 231.81 2327.53 353.06 2257.52"/>
    <polygon id="s27" class="cls-1" points="410.55 2187 409.05 2292 353.55 2254.5 353.55 2118 410.55 2187"/>
    <polygon id="s28" class="cls-1" points="314.55 2133 410.55 2187 353.55 2118 232.05 2047.5 314.55 2133"/>
    <polygon id="_19" data-name="19" class="cls-2" points="471.36 2040.54 471.36 1897.18 347.21 1825.5 223.05 1897.18 223.05 2040.54 347.21 2112.22 471.36 2040.54"/>
    <polygon id="s26" class="cls-1" points="31.05 1582.5 223.05 1861.5 314.55 1804.5 173.55 1504.5 31.05 1582.5"/>
    <polygon id="_15" data-name="15" class="cls-2" points="461.55 1532.39 461.55 1378.18 328 1301.08 194.45 1378.18 194.45 1532.39 328 1609.5 461.55 1532.39"/>
    <polygon id="s42" class="cls-1" points="824.55 1470 795.3 1587 896.55 1645.5 938.55 1536 824.55 1470"/>
    <polygon id="_8" data-name="8" class="cls-2" points="1052.55 1469.82 1052.55 1338.18 938.55 1272.36 824.55 1338.18 824.55 1469.82 938.55 1535.63 1052.55 1469.82"/>
    <polygon id="s2" class="cls-1" points="869.55 663 1007.55 583.5 874.05 820.5 848.55 798 869.55 663"/>
    <polygon id="_6" data-name="6" class="cls-2" points="844.36 1054.61 844.36 911.53 720.46 840 596.55 911.53 596.55 1054.61 720.46 1126.14 844.36 1054.61"/>
    <polygon id="s45" class="cls-1" points="464.55 1236 472.05 1276.5 595.05 1347 595.8 1311 464.55 1236"/>
    <polygon id="_12" data-name="12" class="cls-2" points="727.05 1235.22 727.05 1083.66 595.8 1007.89 464.55 1083.66 464.55 1235.22 595.8 1311 727.05 1235.22"/>
    <polygon id="_11" data-name="11" class="cls-2" points="859.55 1337.08 859.55 1185.23 728.05 1109.31 596.55 1185.23 596.55 1337.08 728.05 1413 859.55 1337.08"/>
    <polygon id="s100" class="cls-1" points="859.05 1333.5 728.55 1408.5 694.05 1647 794.55 1588.5 859.05 1333.5"/>
    <polygon id="s49" class="cls-1" points="745.05 1455 688.05 1803 595.04 1857 595.8 1540.5 745.05 1455"/>
    <polygon id="s4" class="cls-1" points="727.05 1083 754.05 895.5 755.55 1072.5 728.55 1236 727.05 1083"/>
    <polygon id="_17" data-name="17" class="cls-2" points="1009.05 1922.87 1009.05 1803.36 905.55 1743.6 802.05 1803.36 802.05 1922.87 905.55 1982.62 1009.05 1922.87"/>
    <polygon id="s34" class="cls-1" points="1144.05 820.5 1070.55 909 1069.05 892.5 1043.55 879 1144.05 820.5"/>
    <polygon id="_3" data-name="3" class="cls-2" points="433.05 729.84 433.05 543.65 271.8 450.55 110.55 543.65 110.55 729.84 271.8 822.94 433.05 729.84"/>
    <polygon id="_4" data-name="4" class="cls-2" points="1144.05 820.99 1144.05 662.5 1006.8 583.26 869.55 662.5 869.55 820.99 1006.8 900.23 1144.05 820.99"/>
    <polygon id="s107" class="cls-1" points="1069.05 1852.5 875.55 2037 781.05 2091 911.55 1942.5 1069.05 1852.5"/>
    <polygon id="s106" class="cls-1" points="752.55 1852.5 911.55 1942.5 781.05 2091 689.55 2040 727.32 1927.6 752.55 1852.5"/>
    <polygon id="s65" class="cls-1" points="328.05 1591.5 328.05 1749.35 314.55 1738.5 314.55 1575 328.05 1591.5"/>
    <polygon id="s21" class="cls-1" points="781.05 1971 689.55 2025 752.55 1755 910.05 1663.5 781.05 1971"/>
    <polygon id="s30" class="cls-1" points="727.05 1776 727.05 1927.5 752.55 1851 752.55 1665 727.05 1776"/>
    <polygon id="s22" class="cls-1" points="689.55 2025 596.55 1974 595.05 1789.5 727.05 1866 689.55 2025"/>
    <polygon id="_24" data-name="24" class="cls-2" points="1069.05 1851.61 1069.05 1668.88 910.8 1577.52 752.55 1668.88 752.55 1851.61 910.8 1942.98 1069.05 1851.61"/>
    <polygon id="s102" class="cls-1" points="31.05 1746 226.05 1972.5 226.05 1896 172.05 1828.5 31.05 1746"/>
    <polygon id="_21" data-name="21" class="cls-2" points="314.55 1746.09 314.55 1582.41 172.8 1500.57 31.05 1582.41 31.05 1746.09 172.8 1827.93 314.55 1746.09"/>
    <polygon id="s64" class="cls-1" points="172.05 1828.5 314.55 1746 347.55 1824 226.05 1896 172.05 1828.5"/>
    <polygon id="s47" class="cls-1" points="755.55 1072.5 911.55 1165.5 859.05 1308 727.05 1234.5 755.55 1072.5"/>
    <polygon id="s46" class="cls-1" points="1069.05 1075.5 911.55 1165.5 859.05 1311 859.55 1395.97 938.55 1350 1069.05 1075.5"/>
    <polygon id="s44" class="cls-1" points="266.55 1120.5 346.05 1347 472.05 1276.5 430.05 1026 266.55 1120.5"/>
    <polygon id="s5" class="cls-1" points="464.55 1236 430.05 1026 430.05 835.5 464.55 1083 464.55 1236"/>
    <polygon id="s37" class="cls-1" points="193.05 2320.5 232.05 2328 353.55 2257.5 328.05 2241 193.05 2320.5"/>
    <polygon id="s108" class="cls-1" points="328.05 2403 374.55 2374.5 478.05 2314.5 461.55 2326.5 328.05 2403"/>
    <polygon id="_29" data-name="29" class="cls-2" points="461.55 2325.26 461.55 2170.24 327.3 2092.73 193.05 2170.24 193.05 2325.26 327.3 2402.76 461.55 2325.26"/>
    <polygon id="s104" class="cls-1" points="410.55 2142 478.05 2181 595.05 2113.5 593.55 2035.5 410.55 2142"/>
    <polygon id="_7" data-name="7" class="cls-2" points="1069.05 1074.8 1069.05 893.41 911.97 802.72 754.88 893.41 754.88 1074.8 911.97 1165.5 1069.05 1074.8"/>
    <polygon id="s105" class="cls-1" points="689.55 2040 593.55 2095.5 595.05 2004 727.05 1927.5 689.55 2040"/>
    <polygon id="_22" data-name="22" class="cls-2" points="727.05 1927.52 727.05 1775.97 595.8 1700.19 464.55 1775.97 464.55 1927.52 595.8 2003.3 727.05 1927.52"/>
    <polygon id="s103" class="cls-1" points="461.55 2170.5 461.55 2325 478.05 2314.5 478.05 2181 461.55 2170.5"/>
    <polygon id="s101" class="cls-1" points="278.55 1666.5 347.55 1825.5 472.05 1896 436.05 1758 278.55 1666.5"/>
    <polygon id="s99" class="cls-1" points="341.55 1026 272.55 823.5 110.55 730.5 214.05 942 341.55 1026"/>
    <polygon id="_18" data-name="18" class="cls-2" points="430.05 1025.69 430.05 836.03 265.8 741.2 101.55 836.03 101.55 1025.69 265.8 1120.52 430.05 1025.69"/>
    <polygon id="_20" data-name="20" class="cls-2" points="595.04 1666.5 595.04 1483.5 436.56 1392 278.07 1483.5 278.07 1666.5 436.56 1758 595.04 1666.5"/>
    <polygon id="_30" data-name="30" class="cls-2" points="593.55 2035.84 593.55 1823.66 409.8 1717.57 226.05 1823.66 226.05 2035.84 409.8 2141.92 593.55 2035.84"/>
    <polygon id="s98" class="cls-1" points="433.05 543 487.05 952.5 487.05 1068 433.05 730.5 433.05 543"/>
    <polygon id="_16" data-name="16" class="cls-2" points="745.05 1450.42 745.05 1278.08 595.8 1191.91 446.55 1278.08 446.55 1450.42 595.8 1536.59 745.05 1450.42"/>
    <polygon id="s11" class="cls-1" points="461.55 1389 461.55 1336.5 328.05 1258.5 352.05 1320 461.55 1389"/>
    <polygon id="s10" class="cls-1" points="194.55 1336.5 232.05 1389 352.05 1320 328.05 1258.5 194.55 1336.5"/>
    <polygon id="s6" class="cls-1" points="728.55 1344 745.05 1276.5 596.55 1192.5 596.55 1267.5 728.55 1344"/>
    <polygon id="s12" class="cls-1" points="596.55 1221 596.55 1191 446.55 1276.5 470.55 1293 596.55 1221"/>
    <polygon id="s25" class="cls-1" points="595.05 1551 464.55 1474.5 436.05 1395 593.55 1486.5 595.05 1551"/>
    <polygon id="s24" class="cls-1" points="461.55 1465.5 328.05 1540.5 278.55 1485 436.05 1395 461.55 1465.5"/>
    <polygon id="s31" class="cls-1" points="328.05 1597.5 314.55 1581 173.55 1498.5 194.55 1521 328.05 1597.5"/>
    <polygon id="s38" class="cls-1" points="472.05 1891.5 347.55 1963.5 226.05 1824 410.55 1717.5 472.05 1891.5"/>
    <polygon id="_25" data-name="25" class="cls-2" points="1009.68 2635.51 1009.68 2516.5 906.62 2457 803.55 2516.5 803.55 2635.51 906.62 2695.01 1009.68 2635.51"/>
    <polygon id="s63" class="cls-1" points="883.05 2499 973.05 2550 1015.05 2527.5 913.05 2467.5 883.05 2499"/>
    <polygon id="_1" data-name="1" class="cls-3" points="594.72 619.5 141.38 357.76 142.05 -166.5 595.05 -429 1048.05 -166.5 1048.05 357.76 594.72 619.5"/>
    <polygon id="xx05" class="cls-1" points="331.05 2890.5 347.55 2898 472.05 2970 463.05 2967 331.05 2890.5"/>
    <polygon id="xx01" class="cls-1" points="727.05 3574.5 689.55 3528 595.05 3582 595.05 3650.07 727.05 3574.5"/>
    <polygon id="xx02" class="cls-1" points="727.05 3423 721.05 3402 598.05 3330 598.05 3348.26 727.05 3423"/>
    <polygon id="xx03" class="cls-1" points="721.05 3117 715.05 3111 830.55 3178.5 844.05 3189 721.05 3117"/>
    <polygon id="xx04" class="cls-1" points="712.05 3109.5 721.05 3117 598.05 3189 596.55 3175.5 712.05 3109.5"/>
    <polygon id="xxx07" class="cls-1" points="803.55 2926.5 830.55 2911.5 715.05 2979 698.55 2988 803.55 2926.5"/>
    <polygon id="xxx06" class="cls-1" points="596.55 2928 596.55 2911.5 712.05 2977.5 698.55 2989.5 596.55 2928"/>
    <polygon id="s51" class="cls-1" points="593.55 1825.5 409.05 1719 463.05 1749 595.05 1825.5 593.55 1825.5"/>
    <polygon id="yy1" class="cls-1" points="502.05 2770.5 413.55 2824.5 349.05 2859 471.8 2787.75 502.05 2770.5"/>
    <polygon id="yy2" class="cls-1" points="230.55 2782.5 316.05 2773.5 413.55 2824.5 353.55 2853 230.55 2782.5"/>
    <polygon id="yy3" class="cls-1" points="109.05 2853 224.55 2824.5 316.05 2773.5 230.55 2784 109.05 2853"/>
    <polygon id="yy4" class="cls-1" points="349.05 2994 331.05 3022.5 197.55 3099 230.55 3061.5 349.05 2994"/>
    <polygon id="yy5" class="cls-1" points="316.05 3096 224.55 3148.5 88.05 3300 215.55 3226.5 316.05 3096"/>
    <polygon id="c1" class="cls-3" points="597.34 5079 210.38 4855.59 210.96 4408.08 597.63 4184.01 984.3 4408.08 984.3 4855.59 597.34 5079"/>
    <polygon id="k01" class="cls-1" points="598.05 3976.5 598.05 4183.5 985.05 4408.5 832.05 3984 713.55 3909 598.05 3976.5"/>
    <polygon id="k02" class="cls-1" points="482.55 3909 328.05 4126.5 211.05 4408.5 598.05 4183.5 598.05 3976.5 482.55 3909"/>
  </g>
</svg>
