<svg xmlns="http://www.w3.org/2000/svg" width="1200" height="4736.84" viewBox="0 0 1200 4736.84">
  <defs>
    <style>
      .cls-1 {
        fill: #f2f2f2;
      }

      .cls-1, .cls-2, .cls-3 {
        stroke: #000;
        stroke-miterlimit: 10;
      }

      .cls-2, .cls-3 {
        fill: #fff;
      }

      .cls-3 {
        stroke-width: 2px;
      }
    </style>
  </defs>
  <title>aartics_polygons_vertical</title>
  <g id="_05stage" data-name="05stage">
    <polygon id="s63" class="cls-1" points="877.19 2447.91 967.19 2498.91 1009.19 2476.41 907.19 2416.41 877.19 2447.91"/>
    <polygon id="_25" data-name="25" class="cls-2" points="1009.82 2594.92 1009.82 2475.91 906.75 2416.41 803.69 2475.91 803.69 2594.92 906.75 2654.42 1009.82 2594.92"/>
    <polygon id="s41" class="cls-1" points="805.19 2230.41 703.19 2294.91 710.69 2239.41 829.19 2171.91 805.19 2230.41"/>
    <polygon id="s88" class="cls-1" points="727.19 3701.91 727.19 3550.41 757.19 3710.91 757.19 3892.41 727.19 3701.91"/>
    <polygon id="s40" class="cls-1" points="595.19 2177.91 710.69 2245.41 700.19 2296.41 596.69 2237.91 595.19 2177.91"/>
    <polygon id="s52" class="cls-1" points="805.19 2230.41 911.69 2290.41 946.19 2239.41 829.19 2171.91 805.19 2230.41"/>
    <polygon id="s60" class="cls-1" points="475.19 2647.41 485.69 2654.91 377.69 2590.41 356.69 2578.41 475.19 2647.41"/>
    <polygon id="s62" class="cls-1" points="214.19 2347.41 314.69 2446.41 221.69 2504.91 89.69 2419.41 214.19 2347.41"/>
    <polygon id="s59" class="cls-1" points="593.69 2560.41 461.69 2638.41 485.69 2654.91 593.69 2590.41 593.69 2560.41"/>
    <polygon id="s61" class="cls-1" points="377.69 2465.91 377.69 2590.41 356.69 2578.41 340.19 2566.41 340.19 2420.91 377.69 2465.91"/>
    <polygon id="s57" class="cls-1" points="803.69 2594.91 907.19 2654.91 1069.19 2618.91 911.69 2528.91 803.69 2594.91"/>
    <polygon id="s56" class="cls-1" points="718.19 2642.91 842.69 2570.91 911.69 2528.91 754.19 2618.91 718.19 2642.91"/>
    <polygon id="s94" class="cls-1" points="319.19 3421.41 227.69 3473.91 112.19 3692.91 232.19 3623.91 319.19 3421.41"/>
    <polygon id="_42" data-name="42" class="cls-2" points="353.69 3832.37 353.69 3692.94 232.94 3623.23 112.19 3692.94 112.19 3832.37 232.94 3902.09 353.69 3832.37"/>
    <polygon id="_50" data-name="50" class="cls-2" points="949.19 3922.57 949.19 3787.46 832.19 3719.91 715.18 3787.46 715.18 3922.57 832.19 3990.13 949.19 3922.57"/>
    <polygon id="_49" data-name="49" class="cls-2" points="713.69 3909.59 713.69 3776.22 598.19 3709.54 482.69 3776.22 482.69 3909.59 598.19 3976.28 713.69 3909.59"/>
    <polygon id="_48" data-name="48" class="cls-2" points="463.19 4048.67 463.19 3893.65 328.94 3816.14 194.69 3893.65 194.69 4048.67 328.94 4126.18 463.19 4048.67"/>
    <polygon id="_51" data-name="51" class="cls-2" points="1090.19 3852.74 1090.19 3711.58 967.94 3641 845.69 3711.58 845.69 3852.74 967.94 3923.32 1090.19 3852.74"/>
    <polygon id="s87" class="cls-1" points="689.69 3413.91 782.69 3473.91 914.69 3982.41 757.19 3892.41 689.69 3413.91"/>
    <polygon id="s90" class="cls-1" points="782.69 3581.91 832.19 3719.91 715.19 3787.41 689.69 3637.41 782.69 3581.91"/>
    <polygon id="s92" class="cls-1" points="782.69 3256.41 914.69 3620.91 1070.69 3713.91 877.19 3307.41 782.69 3256.41"/>
    <polygon id="s91" class="cls-1" points="688.19 3308.91 757.19 3710.91 913.19 3620.91 782.69 3256.41 688.19 3308.91"/>
    <polygon id="s89" class="cls-1" points="689.69 3637.41 713.69 3776.91 598.19 3709.41 596.69 3581.91 689.69 3637.41"/>
    <polygon id="s85" class="cls-1" points="233.69 3811.41 194.69 3893.91 329.69 3815.91 353.69 3742.41 233.69 3811.41"/>
    <polygon id="s84" class="cls-1" points="343.19 3448.41 358.19 3400.41 241.19 3467.91 215.69 3521.91 343.19 3448.41"/>
    <polygon id="s82" class="cls-1" points="463.19 3253.41 482.69 3182.91 379.19 3226.41 331.19 3329.91 463.19 3253.41"/>
    <polygon id="s80" class="cls-1" points="482.69 3182.91 596.69 3248.91 598.19 3214.41 491.69 3155.91 482.69 3182.91"/>
    <polygon id="s79" class="cls-1" points="463.19 3098.91 482.69 3049.41 482.69 3182.91 463.19 3253.41 463.19 3098.91"/>
    <polygon id="s78" class="cls-1" points="596.69 3002.91 596.69 2983.41 482.69 3049.41 472.19 3074.91 596.69 3002.91"/>
    <polygon id="s77" class="cls-1" points="109.19 2992.41 229.19 3061.41 316.19 2983.41 223.19 2933.91 109.19 2992.41"/>
    <polygon id="s76" class="cls-1" points="946.19 3185.91 875.69 3098.91 782.69 3152.91 830.69 3253.41 946.19 3185.91"/>
    <polygon id="s75" class="cls-1" points="1088.69 2998.41 967.19 2938.41 875.69 2992.41 967.19 3068.91 1088.69 2998.41"/>
    <polygon id="s73" class="cls-1" points="844.19 2857.41 803.69 2836.41 803.69 2953.41 844.19 2998.41 844.19 2857.41"/>
    <polygon id="s70" class="cls-1" points="725.69 2788.41 689.69 2770.41 596.69 2825.91 593.69 2864.91 725.69 2788.41"/>
    <polygon id="s68" class="cls-1" points="712.19 3049.41 715.19 3053.91 715.19 3185.91 712.19 3182.91 712.19 3049.41"/>
    <polygon id="s66" class="cls-1" points="470.69 3839.91 463.19 3893.91 329.69 3815.91 346.19 3767.91 470.69 3839.91"/>
    <polygon id="s67" class="cls-1" points="482.69 3908.91 463.19 4048.41 463.19 3911.91 482.69 3776.91 482.69 3908.91"/>
    <polygon id="s97" class="cls-1" points="379.19 3346.41 359.69 3400.41 476.69 3467.91 487.19 3406.41 379.19 3346.41"/>
    <polygon id="s95" class="cls-1" points="476.69 3604.41 470.69 3656.91 346.19 3728.91 358.19 3671.91 476.69 3604.41"/>
    <polygon id="s93" class="cls-1" points="358.19 3671.91 353.69 3692.91 232.19 3623.91 241.19 3604.14 358.19 3671.91"/>
    <polygon id="s58" class="cls-1" points="718.19 2642.91 725.69 2636.91 593.69 2560.41 593.69 2572.41 718.19 2642.91"/>
    <polygon id="s35" class="cls-1" points="710.69 2378.91 718.19 2354.91 593.69 2426.91 593.69 2447.91 710.69 2378.91"/>
    <polygon id="s36" class="cls-1" points="716.69 2377.41 827.69 2443.41 842.69 2426.91 718.19 2354.91 716.69 2377.41"/>
    <polygon id="s83" class="cls-1" points="343.19 3299.91 379.19 3226.41 379.19 3346.41 343.19 3446.91 343.19 3299.91"/>
    <polygon id="_45" data-name="45" class="cls-2" points="476.69 3604.14 476.69 3468.18 358.94 3400.19 241.19 3468.18 241.19 3604.14 358.94 3672.13 476.69 3604.14"/>
    <polygon id="_39" data-name="39" class="cls-2" points="712.19 3182.63 712.19 3050.06 597.39 2983.77 482.58 3050.06 482.58 3182.63 597.39 3248.91 712.19 3182.63"/>
    <polygon id="_37" data-name="37" class="cls-2" points="946.19 3186.59 946.19 3053.22 830.69 2986.54 715.19 3053.22 715.19 3186.59 830.69 3253.28 946.19 3186.59"/>
    <polygon id="_36" data-name="36" class="cls-2" points="844.19 3427.92 844.19 3285.89 721.19 3214.88 598.19 3285.89 598.19 3427.92 721.19 3498.94 844.19 3427.92"/>
    <polygon id="s86" class="cls-1" points="727.19 3550.41 757.19 3710.91 757.19 3892.41 727.19 3701.91 727.19 3550.41"/>
    <polygon id="_44" data-name="44" class="cls-2" points="1070.69 3892.16 1070.69 3711.16 913.94 3620.66 757.19 3711.16 757.19 3892.16 913.94 3982.66 1070.69 3892.16"/>
    <polygon id="_43" data-name="43" class="cls-2" points="595.19 3872.79 595.19 3729.03 470.69 3657.15 346.19 3729.03 346.19 3872.79 470.69 3944.67 595.19 3872.79"/>
    <polygon id="s96" class="cls-1" points="464 3550.41 486.5 3406.41 596.69 3346.41 596 3473.91 464 3550.41"/>
    <polygon id="_46" data-name="46" class="cls-2" points="727.19 3701.7 727.19 3550.15 595.94 3474.37 464.69 3550.15 464.69 3701.7 595.94 3777.48 727.19 3701.7"/>
    <polygon id="_47" data-name="47" class="cls-2" points="343.19 3447.02 343.19 3299.8 215.69 3226.18 88.19 3299.8 88.19 3447.02 215.69 3520.63 343.19 3447.02"/>
    <polygon id="s81" class="cls-1" points="197.69 3253.41 215.69 3226.41 343.19 3299.91 329.69 3329.91 197.69 3253.41"/>
    <polygon id="_26" data-name="26" class="cls-2" points="710.69 2379.16 710.69 2244.93 594.44 2177.81 478.19 2244.93 478.19 2379.16 594.44 2446.28 710.69 2379.16"/>
    <polygon id="_27" data-name="27" class="cls-2" points="946.19 2375.64 946.19 2239.68 828.44 2171.69 710.69 2239.68 710.69 2375.64 828.44 2443.63 946.19 2375.64"/>
    <polygon id="_28" data-name="28" class="cls-2" points="842.69 2570.79 842.69 2427.03 718.19 2355.15 593.69 2427.03 593.69 2570.79 718.19 2642.67 842.69 2570.79"/>
    <polygon id="_33" data-name="33" class="cls-2" points="475.11 2782.28 475.11 2646.37 357.4 2578.41 239.69 2646.37 239.69 2782.28 357.4 2850.24 475.11 2782.28"/>
    <polygon id="_32" data-name="32" class="cls-2" points="350.69 2992.37 350.69 2852.94 229.94 2783.23 109.19 2852.94 109.19 2992.37 229.94 3062.09 350.69 2992.37"/>
    <polygon id="_41" data-name="41" class="cls-2" points="596.69 3002.79 596.69 2859.03 472.19 2787.15 347.69 2859.03 347.69 3002.79 472.19 3074.67 596.69 3002.79"/>
    <polygon id="s74" class="cls-1" points="844.19 2998.41 830.69 2986.41 946.19 3050.91 967.19 3068.91 844.19 2998.41"/>
    <polygon id="_38" data-name="38" class="cls-2" points="1088.69 2998.47 1088.69 2857.59 966.69 2787.15 844.68 2857.59 844.68 2998.47 966.69 3068.91 1088.69 2998.47"/>
    <polygon id="_40" data-name="40" class="cls-2" points="463.19 3252.8 463.19 3099.52 330.44 3022.87 197.69 3099.52 197.69 3252.8 330.44 3329.45 463.19 3252.8"/>
    <polygon id="s71" class="cls-1" points="461.69 2786.91 503.69 2770.41 593.69 2825.91 593.69 2864.91 461.69 2786.91"/>
    <polygon id="s69" class="cls-1" points="911.69 2891.91 803.69 2836.41 698.69 2773.41 754.19 2801.91 911.69 2891.91"/>
    <polygon id="_35" data-name="35" class="cls-2" points="725 2788.44 725 2636.42 593.35 2560.41 461.69 2636.42 461.69 2788.44 593.35 2864.45 725 2788.44"/>
    <polygon id="_34" data-name="34" class="cls-2" points="340.19 2566.84 340.19 2420.48 213.44 2347.3 86.69 2420.48 86.69 2566.84 213.44 2640.02 340.19 2566.84"/>
    <polygon id="s55" class="cls-1" points="725.69 2788.41 754.19 2801.91 754.19 2618.91 725 2636.91 725.69 2788.41"/>
    <polygon id="s72" class="cls-1" points="1069.19 2801.91 967.19 2786.91 844.19 2857.41 911.69 2891.91 1069.19 2801.91"/>
    <polygon id="_31" data-name="31" class="cls-2" points="1069.19 2801.34 1069.19 2619.48 911.69 2528.54 754.19 2619.48 754.19 2801.34 911.69 2892.28 1069.19 2801.34"/>
    <polygon id="s110" class="cls-1" points="875.69 1693.41 874.19 1790.91 886.19 1792.41 884.69 1682.91 875.69 1693.41"/>
    <polygon id="s1" class="cls-1" points="944.69 569.91 944.69 707.91 893.69 817.41 892.19 703.41 944.69 569.91"/>
    <polygon id="_2" data-name="2" class="cls-2" points="1187.69 704.33 1187.69 567.49 1069.19 499.08 950.69 567.49 950.69 704.33 1069.19 772.74 1187.69 704.33"/>
    <polygon id="s33" class="cls-1" points="1048.19 361.41 595.19 622.41 596.69 983.91 721.19 910.41 1048.19 361.41"/>
    <polygon id="s32" class="cls-1" points="142.19 361.41 487.19 1007.91 595.19 1066.41 595.19 622.41 142.19 361.41"/>
    <polygon id="s3" class="cls-1" points="433.19 730.41 272.69 823.41 377.69 1129.41 487.19 1067.91 433.19 730.41"/>
    <polygon id="s20" class="cls-1" points="910.19 1669.41 781.19 1970.91 875.69 2020.41 1069.19 1760.91 910.19 1669.41"/>
    <polygon id="s23" class="cls-1" points="596.69 1973.91 502.19 2026.41 464.69 1865.91 595.19 1789.41 596.69 1973.91"/>
    <polygon id="s50" class="cls-1" points="595.19 1666.41 595.19 1789.41 464.69 1865.91 436.19 1757.91 595.19 1666.41"/>
    <polygon id="s19" class="cls-1" points="842.69 845.91 842.69 980.91 869.69 820.41 869.69 662.91 842.69 845.91"/>
    <polygon id="s18" class="cls-1" points="911.69 802.41 856.19 1007.91 727.19 1082.91 755.69 893.91 911.69 802.41"/>
    <polygon id="s17" class="cls-1" points="596.69 1183.41 595.19 1007.91 727.19 1082.91 686.69 1235.91 596.69 1183.41"/>
    <polygon id="s16" class="cls-1" points="596.69 1183.41 505.19 1237.41 464.69 1082.91 595.19 1007.91 596.69 1183.41"/>
    <polygon id="s15" class="cls-1" points="379.19 1256.91 379.19 1129.41 341.69 1025.91 341.69 1168.41 379.19 1256.91"/>
    <polygon id="s14" class="cls-1" points="430.19 835.41 505.19 1237.41 409.19 1189.41 268.19 740.91 430.19 835.41"/>
    <polygon id="s9" class="cls-1" points="874.19 1802.91 905.69 1742.91 1009.19 1802.91 968.69 1856.91 874.19 1802.91"/>
    <polygon id="s8" class="cls-1" points="874.19 1802.91 781.19 1856.91 802.19 1802.91 905.69 1742.91 874.19 1802.91"/>
    <polygon id="s7" class="cls-1" points="781.19 1856.91 781.19 1970.91 802.19 1922.91 802.19 1802.91 781.19 1856.91"/>
    <polygon id="_9" data-name="9" class="cls-2" points="1080.02 1782.96 1080.02 1671.05 983.11 1615.09 886.19 1671.05 886.19 1782.96 983.11 1838.91 1080.02 1782.96"/>
    <polygon id="s48" class="cls-1" points="689.69 1802.91 694.19 1762.41 796.19 1820.91 781.19 1856.91 689.69 1802.91"/>
    <polygon id="s54" class="cls-1" points="1051.19 1469.91 983.69 1624.41 886.19 1679.91 938.69 1535.91 1051.19 1469.91"/>
    <polygon id="_10" data-name="10" class="cls-2" points="896.69 1763.12 896.69 1646.2 795.44 1587.75 694.19 1646.2 694.19 1763.12 795.44 1821.57 896.69 1763.12"/>
    <polygon id="_5" data-name="5" class="cls-2" points="341.69 867.14 341.69 719.91 214.19 646.3 86.69 719.91 86.69 867.14 214.19 940.75 341.69 867.14"/>
    <polygon id="s43" class="cls-1" points="101.69 1025.91 230.69 1306.41 352.19 1375.41 266.69 1120.41 101.69 1025.91"/>
    <polygon id="s53" class="cls-1" points="110.69 1420.41 232.19 1489.41 314.69 1696.41 223.19 1646.91 110.69 1420.41"/>
    <polygon id="_14" data-name="14" class="cls-2" points="352.19 1417.41 352.19 1277.94 231.44 1208.23 110.69 1277.94 110.69 1417.37 231.44 1487.09 352.19 1417.41"/>
    <polygon id="_13" data-name="13" class="cls-2" points="596.69 1346.82 596.69 1202.19 471.44 1129.88 346.19 1202.19 346.19 1346.82 471.44 1419.13 596.69 1346.82"/>
    <polygon id="s29" class="cls-1" points="314.69 2133.66 232.19 2047.41 110.69 2117.91 223.19 2185.41 314.69 2133.66"/>
    <polygon id="_23" data-name="23" class="cls-2" points="353.2 2257.43 353.2 2117.42 231.95 2047.41 110.69 2117.42 110.69 2257.43 231.95 2327.44 353.2 2257.43"/>
    <polygon id="s27" class="cls-1" points="410.69 2186.91 409.19 2291.91 353.69 2254.41 353.69 2117.91 410.69 2186.91"/>
    <polygon id="s28" class="cls-1" points="314.69 2132.91 410.69 2186.91 353.69 2117.91 232.19 2047.41 314.69 2132.91"/>
    <polygon id="_19" data-name="19" class="cls-2" points="471.5 2040.45 471.5 1897.09 347.35 1825.41 223.19 1897.09 223.19 2040.45 347.35 2112.13 471.5 2040.45"/>
    <polygon id="s26" class="cls-1" points="31.19 1582.41 223.19 1861.41 314.69 1804.41 173.69 1504.41 31.19 1582.41"/>
    <polygon id="_15" data-name="15" class="cls-2" points="461.69 1532.3 461.69 1378.09 328.14 1300.99 194.59 1378.09 194.59 1532.3 328.14 1609.41 461.69 1532.3"/>
    <polygon id="s42" class="cls-1" points="824.69 1469.91 795.44 1586.91 896.69 1645.41 938.69 1535.91 824.69 1469.91"/>
    <polygon id="_8" data-name="8" class="cls-2" points="1052.69 1469.73 1052.69 1338.09 938.69 1272.27 824.69 1338.09 824.69 1469.73 938.69 1535.55 1052.69 1469.73"/>
    <polygon id="s2" class="cls-1" points="869.69 662.91 1007.69 583.41 874.19 820.41 848.69 797.91 869.69 662.91"/>
    <polygon id="_6" data-name="6" class="cls-2" points="844.5 1054.52 844.5 911.45 720.6 839.91 596.69 911.45 596.69 1054.52 720.6 1126.05 844.5 1054.52"/>
    <polygon id="s45" class="cls-1" points="464.69 1235.91 472.19 1276.41 595.19 1346.91 595.94 1310.91 464.69 1235.91"/>
    <polygon id="_12" data-name="12" class="cls-2" points="727.19 1235.13 727.19 1083.58 595.94 1007.8 464.69 1083.58 464.69 1235.13 595.94 1310.91 727.19 1235.13"/>
    <polygon id="_11" data-name="11" class="cls-2" points="859.7 1336.99 859.7 1185.14 728.19 1109.22 596.69 1185.14 596.69 1336.99 728.19 1412.91 859.7 1336.99"/>
    <polygon id="s100" class="cls-1" points="859.19 1333.41 728.69 1408.41 694.19 1646.91 794.69 1588.41 859.19 1333.41"/>
    <polygon id="s49" class="cls-1" points="745.19 1454.91 688.19 1802.91 595.18 1856.91 595.94 1540.41 745.19 1454.91"/>
    <polygon id="s4" class="cls-1" points="727.19 1082.91 754.19 895.41 755.69 1072.41 728.69 1235.91 727.19 1082.91"/>
    <polygon id="_17" data-name="17" class="cls-2" points="1009.19 1922.78 1009.19 1803.27 905.69 1743.51 802.19 1803.27 802.19 1922.78 905.69 1982.54 1009.19 1922.78"/>
    <polygon id="s34" class="cls-1" points="1144.19 820.41 1070.69 908.91 1069.19 892.41 1043.69 878.91 1144.19 820.41"/>
    <polygon id="_3" data-name="3" class="cls-2" points="433.19 729.76 433.19 543.56 271.94 450.46 110.69 543.56 110.69 729.76 271.94 822.86 433.19 729.76"/>
    <polygon id="_4" data-name="4" class="cls-2" points="1144.19 820.9 1144.19 662.42 1006.94 583.18 869.69 662.42 869.69 820.9 1006.94 900.14 1144.19 820.9"/>
    <polygon id="s107" class="cls-1" points="1069.19 1852.41 875.69 2036.91 781.19 2090.91 911.69 1942.41 1069.19 1852.41"/>
    <polygon id="s106" class="cls-1" points="752.69 1852.41 911.69 1942.41 781.19 2090.91 689.69 2039.91 727.46 1927.51 752.69 1852.41"/>
    <polygon id="s65" class="cls-1" points="328.19 1591.41 328.19 1749.27 314.69 1738.41 314.69 1574.91 328.19 1591.41"/>
    <polygon id="s21" class="cls-1" points="781.19 1970.91 689.69 2024.91 752.69 1754.91 910.19 1663.41 781.19 1970.91"/>
    <polygon id="s30" class="cls-1" points="727.19 1775.91 727.19 1927.41 752.69 1850.91 752.69 1664.91 727.19 1775.91"/>
    <polygon id="s22" class="cls-1" points="689.69 2024.91 596.69 1973.91 595.19 1789.41 727.19 1865.91 689.69 2024.91"/>
    <polygon id="_24" data-name="24" class="cls-2" points="1069.19 1851.53 1069.19 1668.79 910.94 1577.43 752.69 1668.79 752.69 1851.53 910.94 1942.89 1069.19 1851.53"/>
    <polygon id="s102" class="cls-1" points="31.19 1745.91 226.19 1972.41 226.19 1895.91 172.19 1828.41 31.19 1745.91"/>
    <polygon id="_21" data-name="21" class="cls-2" points="314.69 1746 314.69 1582.32 172.94 1500.48 31.19 1582.32 31.19 1746 172.94 1827.84 314.69 1746"/>
    <polygon id="s64" class="cls-1" points="172.19 1828.41 314.69 1745.91 347.69 1823.91 226.19 1895.91 172.19 1828.41"/>
    <polygon id="s47" class="cls-1" points="755.69 1072.41 911.69 1165.41 859.19 1307.91 727.19 1234.41 755.69 1072.41"/>
    <polygon id="s46" class="cls-1" points="1069.19 1075.41 911.69 1165.41 859.19 1310.91 859.7 1395.88 938.69 1349.91 1069.19 1075.41"/>
    <polygon id="s44" class="cls-1" points="266.69 1120.41 346.19 1346.91 472.19 1276.41 430.19 1025.91 266.69 1120.41"/>
    <polygon id="s5" class="cls-1" points="464.69 1235.91 430.19 1025.91 430.19 835.41 464.69 1082.91 464.69 1235.91"/>
    <polygon id="s37" class="cls-1" points="193.19 2320.41 232.19 2327.91 353.69 2257.41 328.19 2240.91 193.19 2320.41"/>
    <polygon id="s108" class="cls-1" points="328.19 2462.91 374.69 2434.41 478.19 2374.41 461.69 2386.41 328.19 2462.91"/>
    <polygon id="_29" data-name="29" class="cls-2" points="461.69 2385.17 461.69 2230.15 327.44 2152.64 193.19 2230.15 193.19 2385.17 327.44 2462.68 461.69 2385.17"/>
    <polygon id="s104" class="cls-1" points="410.69 2201.91 478.19 2240.91 595.19 2173.41 593.69 2095.41 410.69 2201.91"/>
    <polygon id="_7" data-name="7" class="cls-2" points="1069.19 1074.71 1069.19 893.33 912.11 802.63 755.02 893.33 755.02 1074.71 912.11 1165.41 1069.19 1074.71"/>
    <polygon id="s105" class="cls-1" points="689.69 2039.91 593.69 2095.41 595.19 2003.91 727.19 1927.41 689.69 2039.91"/>
    <polygon id="_22" data-name="22" class="cls-2" points="727.19 1927.44 727.19 1775.88 595.94 1700.11 464.69 1775.88 464.69 1927.44 595.94 2003.21 727.19 1927.44"/>
    <polygon id="s103" class="cls-1" points="461.69 2230.41 461.69 2384.91 478.19 2374.41 478.19 2240.91 461.69 2230.41"/>
    <polygon id="s101" class="cls-1" points="278.69 1666.41 347.69 1825.41 472.19 1895.91 436.19 1757.91 278.69 1666.41"/>
    <polygon id="s99" class="cls-1" points="341.69 1025.91 272.69 823.41 110.69 730.41 214.19 941.91 341.69 1025.91"/>
    <polygon id="_18" data-name="18" class="cls-2" points="430.19 1025.61 430.19 835.95 265.94 741.12 101.69 835.95 101.69 1025.61 265.94 1120.43 430.19 1025.61"/>
    <polygon id="_20" data-name="20" class="cls-2" points="595.18 1666.41 595.18 1483.41 436.7 1391.91 278.21 1483.41 278.21 1666.41 436.7 1757.91 595.18 1666.41"/>
    <polygon id="_30" data-name="30" class="cls-2" points="593.69 2095.75 593.69 1883.57 409.94 1777.48 226.19 1883.57 226.19 2095.75 409.94 2201.84 593.69 2095.75"/>
    <polygon id="s98" class="cls-1" points="433.19 542.91 487.19 952.41 487.19 1067.91 433.19 730.41 433.19 542.91"/>
    <polygon id="_16" data-name="16" class="cls-2" points="745.19 1450.33 745.19 1277.99 595.94 1191.82 446.69 1277.99 446.69 1450.33 595.94 1536.5 745.19 1450.33"/>
    <polygon id="s11" class="cls-1" points="461.69 1388.91 461.69 1336.41 328.19 1258.41 352.19 1319.91 461.69 1388.91"/>
    <polygon id="s10" class="cls-1" points="194.69 1336.41 232.19 1388.91 352.19 1319.91 328.19 1258.41 194.69 1336.41"/>
    <polygon id="s6" class="cls-1" points="728.69 1343.91 745.19 1276.41 596.69 1192.41 596.69 1267.41 728.69 1343.91"/>
    <polygon id="s12" class="cls-1" points="596.69 1220.91 596.69 1190.91 446.69 1276.41 470.69 1292.91 596.69 1220.91"/>
    <polygon id="s25" class="cls-1" points="595.19 1546.41 464.69 1469.91 436.19 1390.41 593.69 1481.91 595.19 1546.41"/>
    <polygon id="s24" class="cls-1" points="461.69 1460.91 328.19 1535.91 278.69 1480.41 436.19 1390.41 461.69 1460.91"/>
    <polygon id="s31" class="cls-1" points="328.19 1601.91 314.69 1585.41 173.69 1502.91 194.69 1525.41 328.19 1601.91"/>
    <polygon id="s38" class="cls-1" points="472.19 1951.41 347.69 2023.41 226.19 1883.91 410.69 1777.41 472.19 1951.41"/>
    <polygon id="_1" data-name="1" class="cls-3" points="594.86 619.41 141.52 357.68 142.19 -166.59 595.19 -429.09 1048.19 -166.59 1048.19 357.68 594.86 619.41"/>
    <polygon id="xx05" class="cls-1" points="331.19 3022.41 347.69 2993.91 476.69 3067.41 463.19 3098.91 331.19 3022.41"/>
    <polygon id="xx01" class="cls-1" points="727.19 3701.91 689.69 3655.41 595.19 3709.41 595.19 3777.48 727.19 3701.91"/>
    <polygon id="xx02" class="cls-1" points="727.19 3550.41 719.69 3497.91 596.69 3425.91 598.19 3475.67 727.19 3550.41"/>
    <polygon id="xx03" class="cls-1" points="721.19 3214.41 712.19 3184.41 830.69 3253.41 844.19 3286.41 721.19 3214.41"/>
    <polygon id="xx04" class="cls-1" points="712.19 3184.41 721.19 3214.41 596.69 3286.41 596.69 3250.41 712.19 3184.41"/>
    <polygon id="xxx07" class="cls-1" points="803.69 2953.41 830.69 2986.41 715.19 3053.91 698.69 3014.91 803.69 2953.41"/>
    <polygon id="xxx06" class="cls-1" points="596.69 2953.41 596.69 2983.41 712.19 3049.41 698.69 3014.91 596.69 2953.41"/>
    <polygon id="s51" class="cls-1" points="593.69 1883.91 409.19 1777.41 463.19 1807.41 595.19 1883.91 593.69 1883.91"/>
    <polygon id="yy1" class="cls-1" points="502.19 2770.41 413.69 2824.41 349.19 2858.91 471.94 2787.66 502.19 2770.41"/>
    <polygon id="yy2" class="cls-1" points="230.69 2782.41 316.19 2773.41 413.69 2824.41 353.69 2852.91 230.69 2782.41"/>
    <polygon id="yy3" class="cls-1" points="109.19 2852.91 224.69 2824.41 316.19 2773.41 230.69 2783.91 109.19 2852.91"/>
    <polygon id="yy4" class="cls-1" points="349.19 2993.91 331.19 3022.41 197.69 3098.91 230.69 3061.41 349.19 2993.91"/>
    <polygon id="yy5" class="cls-1" points="316.19 3095.91 224.69 3148.41 88.19 3299.91 215.69 3226.41 316.19 3095.91"/>
    <polygon id="c1" class="cls-3" points="597.48 5078.91 210.52 4855.5 211.09 4407.99 597.77 4183.93 984.44 4407.99 984.44 4855.5 597.48 5078.91"/>
    <polygon id="k01" class="cls-1" points="598.19 3976.41 598.19 4183.41 985.19 4408.41 832.19 3983.91 713.69 3908.91 598.19 3976.41"/>
    <polygon id="k02" class="cls-1" points="482.69 3908.91 328.19 4126.41 211.19 4408.41 598.19 4183.41 598.19 3976.41 482.69 3908.91"/>
  </g>
</svg>
