<svg xmlns="http://www.w3.org/2000/svg" width="1200" height="4736.84" viewBox="0 0 1200 4736.84">
  <defs>
    <style>
      .cls-1 {
        fill: #f2f2f2;
      }

      .cls-1, .cls-2, .cls-3 {
        stroke: #000;
        stroke-miterlimit: 10;
      }

      .cls-2, .cls-3 {
        fill: #fff;
      }

      .cls-3 {
        stroke-width: 2px;
      }
    </style>
  </defs>
  <title>aartics_polygons_vertical</title>
  <g id="_01stage" data-name="01stage">
    <polygon id="s32" class="cls-1" points="141.87 359.88 486.87 1129.38 596.03 1193.88 594.87 620.88 141.87 359.88"/>
    <polygon id="s63" class="cls-1" points="876.87 2753.89 966.87 2804.89 1008.87 2855.89 906.87 2795.89 876.87 2753.89"/>
    <polygon id="_25" data-name="25" class="cls-2" points="1009.49 2974.39 1009.49 2855.39 906.43 2795.89 803.37 2855.39 803.37 2974.39 906.43 3033.9 1009.49 2974.39"/>
    <polygon id="s41" class="cls-1" points="803.37 2299.39 689.37 2347.39 710.37 2719.39 828.87 2651.89 803.37 2299.39"/>
    <polygon id="s88" class="cls-1" points="726.87 4007.89 726.87 3856.39 756.87 4016.89 756.87 4198.39 726.87 4007.89"/>
    <polygon id="s40" class="cls-1" points="594.87 2645.89 710.37 2713.39 689.37 2347.39 596.37 2291.89 594.87 2645.89"/>
    <polygon id="s52" class="cls-1" points="803.37 2291.89 909.87 2354.89 945.87 2719.39 828.87 2651.89 803.37 2291.89"/>
    <polygon id="s60" class="cls-1" points="474.87 3130.39 485.37 3067.39 377.37 3005.89 356.37 3062.89 474.87 3130.39"/>
    <polygon id="s62" class="cls-1" points="213.87 2777.89 314.37 2752.39 213.87 2891.89 86.37 2965.39 213.87 2777.89"/>
    <polygon id="s59" class="cls-1" points="593.37 3139.39 461.37 3215.89 485.37 3067.39 593.02 3005.89 593.37 3139.39"/>
    <polygon id="s61" class="cls-1" points="377.37 2881.39 377.37 3005.89 357.02 3062.86 339.87 3110.89 339.87 2965.39 377.37 2881.39"/>
    <polygon id="s57" class="cls-1" points="803.37 2974.39 906.87 3034.39 1068.87 3379.39 911.37 3289.39 803.37 2974.39"/>
    <polygon id="s56" class="cls-1" points="717.87 3166.39 842.37 3094.26 911.37 3289.39 753.87 3379.39 717.87 3166.39"/>
    <polygon id="s94" class="cls-1" points="318.87 3727.39 227.37 3779.89 111.87 3998.89 231.87 3929.89 318.87 3727.39"/>
    <polygon id="_42" data-name="42" class="cls-2" points="353.37 4138.35 353.37 3998.92 232.62 3929.2 111.87 3998.92 111.87 4138.35 232.62 4208.06 353.37 4138.35"/>
    <polygon id="_50" data-name="50" class="cls-2" points="948.87 4228.55 948.87 4093.44 831.86 4025.89 714.85 4093.44 714.85 4228.55 831.86 4296.1 948.87 4228.55"/>
    <polygon id="_49" data-name="49" class="cls-2" points="713.37 4215.57 713.37 4082.2 597.87 4015.52 482.37 4082.2 482.37 4215.57 597.87 4282.25 713.37 4215.57"/>
    <polygon id="_48" data-name="48" class="cls-2" points="462.87 4354.64 462.87 4199.63 328.62 4122.12 194.37 4199.63 194.37 4354.64 328.62 4432.15 462.87 4354.64"/>
    <polygon id="_51" data-name="51" class="cls-2" points="1089.87 4062.72 1089.87 3921.55 967.62 3850.97 845.37 3921.55 845.37 4062.72 967.62 4133.3 1089.87 4062.72"/>
    <polygon id="s87" class="cls-1" points="689.37 3719.89 782.37 3779.89 914.37 4288.39 756.87 4198.39 689.37 3719.89"/>
    <polygon id="s90" class="cls-1" points="782.37 3887.89 831.87 4025.89 714.87 4093.39 689.37 3943.39 782.37 3887.89"/>
    <polygon id="s92" class="cls-1" points="843.87 3743.89 914.37 3926.89 1070.37 4019.89 975.87 3821.89 843.87 3743.89"/>
    <polygon id="s91" class="cls-1" points="720.87 3806.89 756.87 4016.89 912.87 3926.89 843.87 3734.89 720.87 3806.89"/>
    <polygon id="s89" class="cls-1" points="689.37 3943.39 713.37 4082.89 597.87 4015.39 596.37 3887.89 689.37 3943.39"/>
    <polygon id="s85" class="cls-1" points="233.37 4117.39 194.37 4199.89 329.37 4121.89 353.37 4048.39 233.37 4117.39"/>
    <polygon id="s84" class="cls-1" points="342.87 3754.39 357.87 3706.39 240.87 3773.89 215.37 3827.89 342.87 3754.39"/>
    <polygon id="s82" class="cls-1" points="462.87 3706.39 482.37 3572.89 378.87 3652.39 330.87 3785.89 462.87 3706.39"/>
    <polygon id="s80" class="cls-1" points="482.37 3418.39 597.06 3484.39 597.87 3473.89 491.37 3413.89 482.37 3418.39"/>
    <polygon id="s79" class="cls-1" points="462.87 3554.89 482.37 3434.89 482.37 3568.39 462.87 3709.39 462.87 3554.89"/>
    <polygon id="s78" class="cls-1" points="596.37 3308.89 596.37 3289.39 482.37 3355.39 471.87 3380.89 596.37 3308.89"/>
    <polygon id="s77" class="cls-1" points="108.87 3496.39 228.87 3565.39 315.87 3487.39 222.87 3437.89 108.87 3496.39"/>
    <polygon id="s76" class="cls-1" points="945.87 3491.89 875.37 3404.89 782.37 3458.89 830.37 3559.39 945.87 3491.89"/>
    <polygon id="s75" class="cls-1" points="1088.37 3415.39 966.87 3355.39 875.37 3409.39 966.87 3485.89 1088.37 3415.39"/>
    <polygon id="s73" class="cls-1" points="843.87 3395.89 803.37 3374.89 803.37 3491.89 843.87 3536.89 843.87 3395.89"/>
    <polygon id="s70" class="cls-1" points="725.37 3094.39 689.37 3076.39 596.37 3131.89 593.37 3170.89 725.37 3094.39"/>
    <polygon id="s68" class="cls-1" points="711.87 3439.39 714.87 3443.89 714.87 3575.89 711.87 3572.89 711.87 3439.39"/>
    <polygon id="s66" class="cls-1" points="470.37 4145.89 462.87 4199.89 329.37 4121.89 345.87 4073.89 470.37 4145.89"/>
    <polygon id="s67" class="cls-1" points="482.37 4214.89 462.87 4354.39 462.87 4217.89 482.37 4082.89 482.37 4214.89"/>
    <polygon id="s98" class="cls-1" points="432.87 827.88 486.87 1015.38 486.87 1130.88 432.87 1015.38 432.87 827.88"/>
    <polygon id="s97" class="cls-1" points="378.87 3652.39 359.37 3706.39 476.37 3773.89 486.87 3712.39 378.87 3652.39"/>
    <polygon id="s93" class="cls-1" points="357.87 3977.89 353.37 3998.89 231.87 3929.89 240.87 3910.12 357.87 3977.89"/>
    <polygon id="s58" class="cls-1" points="717.87 3166.39 725.37 3215.89 593.37 3139.39 593.37 3094.26 717.87 3166.39"/>
    <polygon id="s35" class="cls-1" points="710.37 2848.39 717.87 2878.39 593.37 2950.39 593.37 2914.39 710.37 2848.39"/>
    <polygon id="s36" class="cls-1" points="710.37 2855.89 828.87 2923.39 842.37 2950.39 717.87 2878.39 710.37 2855.89"/>
    <polygon id="s83" class="cls-1" points="342.87 3605.89 378.87 3532.39 378.87 3652.39 342.87 3752.89 342.87 3605.89"/>
    <polygon id="_39" data-name="39" class="cls-2" points="711.87 3568.1 711.87 3435.53 597.06 3369.25 482.25 3435.53 482.25 3568.1 597.06 3634.39 711.87 3568.1"/>
    <polygon id="_37" data-name="37" class="cls-2" points="945.87 3582.57 945.87 3449.2 830.37 3382.52 714.87 3449.2 714.87 3582.57 830.37 3649.25 945.87 3582.57"/>
    <polygon id="_36" data-name="36" class="cls-2" points="843.87 3847.9 843.87 3705.87 720.87 3634.86 597.87 3705.87 597.87 3847.9 720.87 3918.91 843.87 3847.9"/>
    <polygon id="s86" class="cls-1" points="725.37 3857.89 755.37 4016.89 755.37 4198.39 725.37 4009.39 725.37 3857.89"/>
    <polygon id="_44" data-name="44" class="cls-2" points="1068.87 4198.13 1068.87 4017.14 912.12 3926.64 755.37 4017.14 755.37 4198.13 912.12 4288.63 1068.87 4198.13"/>
    <polygon id="_43" data-name="43" class="cls-2" points="593.37 4178.77 593.37 4035.01 468.87 3963.13 344.37 4035.01 344.37 4178.77 468.87 4250.65 593.37 4178.77"/>
    <polygon id="s96" class="cls-1" points="462.17 3856.39 484.67 3712.39 594.87 3652.39 594.17 3779.89 462.17 3856.39"/>
    <polygon id="_46" data-name="46" class="cls-2" points="725.37 4007.68 725.37 3856.13 594.12 3780.35 462.87 3856.13 462.87 4007.68 594.12 4083.46 725.37 4007.68"/>
    <polygon id="_47" data-name="47" class="cls-2" points="341.37 3753 341.37 3605.77 213.87 3532.16 86.37 3605.77 86.37 3753 213.87 3826.61 341.37 3753"/>
    <polygon id="s81" class="cls-1" points="195.87 3682.39 213.87 3679.39 341.37 3752.89 327.87 3758.89 195.87 3682.39"/>
    <polygon id="_26" data-name="26" class="cls-2" points="710.37 2847.14 710.37 2712.9 594.12 2645.78 477.87 2712.9 477.87 2847.14 594.12 2914.25 710.37 2847.14"/>
    <polygon id="_27" data-name="27" class="cls-2" points="945.87 2855.62 945.87 2719.65 828.12 2651.67 710.37 2719.65 710.37 2855.62 828.12 2923.6 945.87 2855.62"/>
    <polygon id="_28" data-name="28" class="cls-2" points="842.37 3094.26 842.37 2950.51 717.87 2878.63 593.37 2950.51 593.37 3094.26 717.87 3166.14 842.37 3094.26"/>
    <polygon id="_33" data-name="33" class="cls-2" points="474.78 3266.76 474.78 3130.84 357.07 3062.89 239.37 3130.84 239.37 3266.76 357.07 3334.72 474.78 3266.76"/>
    <polygon id="_32" data-name="32" class="cls-2" points="350.37 3496.35 350.37 3356.92 229.62 3287.2 108.87 3356.92 108.87 3496.35 229.62 3566.07 350.37 3496.35"/>
    <polygon id="_41" data-name="41" class="cls-2" points="596.37 3427.26 596.37 3283.51 471.87 3211.63 347.37 3283.51 347.37 3427.26 471.87 3499.14 596.37 3427.26"/>
    <polygon id="s74" class="cls-1" points="842.37 3439.39 828.87 3427.39 944.37 3491.89 965.37 3509.89 842.37 3439.39"/>
    <polygon id="_38" data-name="38" class="cls-2" points="1088.37 3550.45 1088.37 3409.57 966.36 3339.13 844.36 3409.57 844.36 3550.45 966.36 3620.89 1088.37 3550.45"/>
    <polygon id="_40" data-name="40" class="cls-2" points="462.87 3708.78 462.87 3555.49 330.12 3478.85 197.37 3555.49 197.37 3708.78 330.12 3785.42 462.87 3708.78"/>
    <polygon id="s71" class="cls-1" points="459.87 3362.89 501.87 3346.39 591.87 3401.89 591.87 3440.89 459.87 3362.89"/>
    <polygon id="s69" class="cls-1" points="911.37 3652.39 875.37 3461.89 725.37 3367.39 753.87 3562.39 911.37 3652.39"/>
    <polygon id="_35" data-name="35" class="cls-2" points="724.67 3367.41 724.67 3215.39 593.02 3139.39 461.37 3215.39 461.37 3367.41 593.02 3443.42 724.67 3367.41"/>
    <polygon id="_34" data-name="34" class="cls-2" points="339.87 3111.31 339.87 2964.96 213.12 2891.78 86.37 2964.96 86.37 3111.31 213.12 3184.49 339.87 3111.31"/>
    <polygon id="s55" class="cls-1" points="725.37 3367.39 753.87 3562.39 753.87 3379.39 724.67 3215.39 725.37 3367.39"/>
    <polygon id="s72" class="cls-1" points="1067.37 3559.39 965.37 3544.39 842.37 3614.89 909.87 3649.39 1067.37 3559.39"/>
    <polygon id="_31" data-name="31" class="cls-2" points="1068.87 3561.82 1068.87 3379.95 911.37 3289.02 753.87 3379.95 753.87 3561.82 911.37 3652.75 1068.87 3561.82"/>
    <polygon id="s110" class="cls-1" points="875.37 1703.88 873.87 1810.38 896.37 1843.38 896.37 1727.88 875.37 1703.88"/>
    <polygon id="s1" class="cls-1" points="950.37 971.88 950.37 1109.88 899.37 1129.38 897.87 1033.38 950.37 971.88"/>
    <polygon id="_2" data-name="2" class="cls-2" points="1187.37 1109.3 1187.37 972.47 1068.87 904.05 950.37 972.47 950.37 1109.3 1068.87 1177.72 1187.37 1109.3"/>
    <polygon id="s33" class="cls-1" points="1047.87 359.88 594.87 620.88 596.37 1168.38 720.87 1096.38 1047.87 359.88"/>
    <polygon id="s3" class="cls-1" points="432.87 1015.38 272.37 1108.38 377.37 1193.88 486.87 1130.88 432.87 1015.38"/>
    <polygon id="s20" class="cls-1" points="911.37 2390.89 801.87 2038.38 905.37 2098.39 1068.87 2482.39 911.37 2390.89"/>
    <polygon id="s23" class="cls-1" points="596.37 1973.88 501.87 2026.38 464.37 2137.39 594.87 2060.89 596.37 1973.88"/>
    <polygon id="s50" class="cls-1" points="594.87 2390.89 594.87 2222.89 471.87 2296.39 435.87 2482.39 594.87 2390.89"/>
    <polygon id="s19" class="cls-1" points="843.87 1168.38 843.87 1312.38 870.87 1304.88 870.87 1147.38 843.87 1168.38"/>
    <polygon id="s18" class="cls-1" points="911.37 1295.88 843.87 1310.88 720.87 1382.88 755.37 1384.38 911.37 1295.88"/>
    <polygon id="s17" class="cls-1" points="596.37 1327.38 594.87 1309.38 726.87 1384.38 686.37 1379.88 596.37 1327.38"/>
    <polygon id="s16" class="cls-1" points="596.37 1327.38 504.87 1381.38 464.37 1384.38 594.87 1309.38 596.37 1327.38"/>
    <polygon id="s15" class="cls-1" points="378.87 1319.88 378.87 1196.88 341.37 1165.38 341.37 1312.38 378.87 1319.88"/>
    <polygon id="s11" class="cls-1" points="470.37 1819.38 461.37 1847.88 327.87 1769.88 345.87 1745.88 470.37 1819.38"/>
    <polygon id="s10" class="cls-1" points="194.37 1847.88 231.87 1802.88 351.87 1732.38 327.87 1769.88 194.37 1847.88"/>
    <polygon id="s9" class="cls-1" points="887.37 1829.88 905.37 1858.38 1008.87 1918.38 983.37 1885.38 887.37 1829.88"/>
    <polygon id="s8" class="cls-1" points="873.87 1810.38 782.37 1864.38 801.87 1918.38 905.37 1858.38 873.87 1810.38"/>
    <polygon id="s7" class="cls-1" points="782.37 1867.38 780.87 1970.88 801.87 2036.88 801.87 1918.38 782.37 1867.38"/>
    <polygon id="_9" data-name="9" class="cls-2" points="1079.7 1829.43 1079.7 1717.52 982.78 1661.57 885.87 1717.52 885.87 1829.43 982.78 1885.38 1079.7 1829.43"/>
    <polygon id="s48" class="cls-1" points="689.37 1820.88 693.87 1843.38 795.87 1901.88 780.87 1874.88 689.37 1820.88"/>
    <polygon id="s54" class="cls-1" points="1052.37 1712.88 983.37 1661.88 885.87 1717.38 938.37 1778.88 1052.37 1712.88"/>
    <polygon id="_10" data-name="10" class="cls-2" points="896.37 1844.09 896.37 1727.18 795.12 1668.72 693.87 1727.18 693.87 1844.09 795.12 1902.55 896.37 1844.09"/>
    <polygon id="s6" class="cls-1" points="728.37 1841.88 744.87 1904.88 596.37 1819.38 596.37 1765.38 728.37 1841.88"/>
    <polygon id="_5" data-name="5" class="cls-2" points="341.37 1312.61 341.37 1165.39 213.87 1091.78 86.37 1165.39 86.37 1312.61 213.87 1386.22 341.37 1312.61"/>
    <polygon id="s14" class="cls-1" points="429.87 1385.88 504.87 1381.38 408.87 1327.38 267.87 1292.88 429.87 1385.88"/>
    <polygon id="s43" class="cls-1" points="101.37 1576.38 230.37 1525.38 345.87 1591.38 266.37 1670.88 101.37 1576.38"/>
    <polygon id="s53" class="cls-1" points="110.37 1732.38 231.87 1802.88 314.37 1703.88 222.87 1651.38 110.37 1732.38"/>
    <polygon id="_14" data-name="14" class="cls-2" points="351.87 1733.88 351.87 1594.42 231.12 1524.7 110.37 1594.42 110.37 1733.85 231.12 1803.57 351.87 1733.88"/>
    <polygon id="s29" class="cls-1" points="314.37 2132.89 231.87 2485.39 110.37 2555.89 222.87 2186.89 314.37 2132.89"/>
    <polygon id="_23" data-name="23" class="cls-2" points="352.88 2695.41 352.88 2555.39 231.62 2485.39 110.37 2555.39 110.37 2695.41 231.62 2765.41 352.88 2695.41"/>
    <polygon id="s27" class="cls-1" points="410.37 2186.89 410.37 2293.39 353.37 2695.39 353.37 2555.89 410.37 2186.89"/>
    <polygon id="s28" class="cls-1" points="314.37 2132.89 410.37 2186.89 353.37 2555.89 231.87 2485.39 314.37 2132.89"/>
    <polygon id="_19" data-name="19" class="cls-2" points="471.18 2385.43 471.18 2242.07 347.02 2170.39 222.87 2242.07 222.87 2385.43 347.02 2457.11 471.18 2385.43"/>
    <polygon id="s26" class="cls-1" points="30.87 2116.39 222.87 1864.38 314.37 1811.88 173.37 2035.38 30.87 2116.39"/>
    <polygon id="_15" data-name="15" class="cls-2" points="461.37 2001.78 461.37 1847.57 327.82 1770.46 194.27 1847.57 194.27 2001.78 327.82 2078.89 461.37 2001.78"/>
    <polygon id="s12" class="cls-1" points="596.37 1745.88 596.37 1819.38 446.37 1904.88 470.37 1819.38 596.37 1745.88"/>
    <polygon id="_8" data-name="8" class="cls-2" points="1052.37 1712.7 1052.37 1581.07 938.37 1515.25 824.37 1581.07 824.37 1712.7 938.37 1778.52 1052.37 1712.7"/>
    <polygon id="s2" class="cls-1" points="870.87 1147.38 1007.37 1067.88 875.37 1166.88 782.37 1219.38 870.87 1147.38"/>
    <polygon id="s100" class="cls-1" points="858.87 1765.38 728.37 1841.88 693.87 1727.88 794.37 1669.38 858.87 1765.38"/>
    <polygon id="_6" data-name="6" class="cls-2" points="844.17 1310.99 844.17 1167.92 720.27 1096.38 596.37 1167.92 596.37 1310.99 720.27 1382.53 844.17 1310.99"/>
    <polygon id="s45" class="cls-1" points="461.37 1535.88 471.87 1525.38 596.37 1597.38 596.37 1612.38 461.37 1535.88"/>
    <polygon id="s49" class="cls-1" points="744.87 2075.89 732.87 2005.38 594.85 2098.39 595.62 2161.39 744.87 2075.89"/>
    <polygon id="s4" class="cls-1" points="726.87 1382.88 755.37 1385.88 755.37 1567.38 726.87 1535.88 726.87 1382.88"/>
    <polygon id="s25" class="cls-1" points="595.62 2161.97 446.37 2075.89 435.87 2116.39 594.87 2207.89 595.62 2161.97"/>
    <polygon id="_17" data-name="17" class="cls-2" points="1008.87 2038.26 1008.87 1918.74 905.37 1858.99 801.87 1918.74 801.87 2038.26 905.37 2098.01 1008.87 2038.26"/>
    <polygon id="_3" data-name="3" class="cls-2" points="432.87 1014.73 432.87 828.54 271.62 735.44 110.37 828.54 110.37 1014.73 271.62 1107.83 432.87 1014.73"/>
    <polygon id="s34" class="cls-1" points="1145.37 1304.88 1083.87 1312.38 1068.87 1319.88 1068.87 1349.88 1145.37 1304.88"/>
    <polygon id="_4" data-name="4" class="cls-2" points="1145.37 1305.38 1145.37 1146.89 1008.12 1067.65 870.87 1146.89 870.87 1305.38 1008.12 1384.62 1145.37 1305.38"/>
    <polygon id="s107" class="cls-1" points="1068.87 2665.39 875.37 2405.89 780.87 2461.39 911.37 2756.89 1068.87 2665.39"/>
    <polygon id="s106" class="cls-1" points="752.37 2665.39 911.37 2756.89 809.37 2516.89 726.87 2453.89 726.87 2453.89 752.37 2665.39"/>
    <polygon id="s21" class="cls-1" points="780.87 1970.88 689.37 2024.88 752.37 2482.39 911.37 2390.89 780.87 1970.88"/>
    <polygon id="s30" class="cls-1" points="689.37 2024.88 689.37 2135.89 752.37 2663.89 752.37 2482.39 689.37 2024.88"/>
    <polygon id="s22" class="cls-1" points="689.37 2024.88 596.37 1973.88 595.62 2223.58 726.87 2299.36 689.37 2024.88"/>
    <polygon id="_24" data-name="24" class="cls-2" points="1068.87 2664.5 1068.87 2481.77 910.62 2390.4 752.37 2481.77 752.37 2664.5 910.62 2755.87 1068.87 2664.5"/>
    <polygon id="s31" class="cls-1" points="327.87 2078.89 314.37 2116.39 173.37 2035.38 194.37 2002.38 327.87 2078.89"/>
    <polygon id="s102" class="cls-1" points="30.87 2281.39 225.87 2242.39 225.87 2332.39 171.87 2363.89 30.87 2281.39"/>
    <polygon id="s64" class="cls-1" points="173.37 2363.89 314.37 2279.89 327.87 2228.89 225.87 2279.89 173.37 2363.89"/>
    <polygon id="s65" class="cls-1" points="327.87 2078.89 327.87 2229.24 314.37 2279.89 314.37 2116.39 327.87 2078.89"/>
    <polygon id="_21" data-name="21" class="cls-2" points="314.37 2281.47 314.37 2117.8 172.62 2035.96 30.87 2117.8 30.87 2281.47 172.62 2363.31 314.37 2281.47"/>
    <polygon id="s47" class="cls-1" points="755.37 1567.38 911.37 1657.38 858.87 1604.88 726.87 1535.88 755.37 1567.38"/>
    <polygon id="s46" class="cls-1" points="1068.87 1567.38 911.37 1657.38 911.37 1657.38 780.87 1543.38 875.37 1489.38 1068.87 1567.38"/>
    <polygon id="s44" class="cls-1" points="266.37 1670.88 345.87 1591.38 464.37 1534.38 429.87 1576.38 266.37 1670.88"/>
    <polygon id="s5" class="cls-1" points="464.37 1534.38 429.87 1576.38 429.87 1385.88 464.37 1384.38 464.37 1534.38"/>
    <polygon id="s37" class="cls-1" points="192.87 2737.39 231.87 2654.89 353.37 2503.39 327.87 2578.39 192.87 2737.39"/>
    <polygon id="s108" class="cls-1" points="327.87 2842.39 374.37 2702.89 482.37 2635.39 461.37 2764.39 327.87 2842.39"/>
    <polygon id="_29" data-name="29" class="cls-2" points="461.37 2892.14 461.37 2737.13 327.12 2659.62 192.87 2737.13 192.87 2892.14 327.12 2969.65 461.37 2892.14"/>
    <polygon id="s38" class="cls-1" points="464.37 2395.39 347.37 2456.89 225.87 2603.89 410.37 2500.39 464.37 2395.39"/>
    <polygon id="s105" class="cls-1" points="689.37 2434.39 593.37 2489.89 594.87 2527.39 726.87 2453.89 689.37 2434.39"/>
    <polygon id="_22" data-name="22" class="cls-2" points="726.87 2450.91 726.87 2299.36 595.62 2223.58 464.37 2299.36 464.37 2450.91 595.62 2526.69 726.87 2450.91"/>
    <polygon id="s103" class="cls-1" points="461.37 2609.89 461.37 2764.39 477.87 2632.39 477.87 2485.39 461.37 2609.89"/>
    <polygon id="s101" class="cls-1" points="278.37 2390.89 354.12 2237.14 471.87 2296.39 435.87 2482.39 278.37 2390.89"/>
    <polygon id="_20" data-name="20" class="cls-2" points="594.85 2390.89 594.85 2207.89 436.37 2116.39 277.89 2207.89 277.89 2390.89 436.37 2482.39 594.85 2390.89"/>
    <polygon id="s99" class="cls-1" points="341.37 1163.88 272.37 1108.38 110.37 1015.38 213.87 1090.38 341.37 1163.88"/>
    <polygon id="s104" class="cls-1" points="410.37 2924.89 477.87 2729.89 594.87 2662.39 593.37 2818.39 410.37 2924.89"/>
    <polygon id="_30" data-name="30" class="cls-2" points="593.37 2817.22 593.37 2605.05 409.62 2498.96 225.87 2605.05 225.87 2817.22 409.62 2923.31 593.37 2817.22"/>
    <polygon id="s24" class="cls-1" points="461.37 2002.38 327.87 2078.89 278.37 2207.89 435.87 2116.39 461.37 2002.38"/>
    <polygon id="s42" class="cls-1" points="822.87 1712.88 793.62 1668.72 894.87 1727.88 936.87 1778.88 822.87 1712.88"/>
    <polygon id="_1" data-name="1" class="cls-2" points="594.53 619.38 141.19 357.65 141.87 -166.62 594.87 -429.12 1047.87 -166.62 1047.87 357.65 594.53 619.38"/>
    <polygon id="_13" data-name="13" class="cls-2" points="596.37 1745.8 596.37 1601.17 471.12 1528.86 345.87 1601.17 345.87 1745.8 471.12 1818.11 596.37 1745.8"/>
    <polygon id="_12" data-name="12" class="cls-2" points="726.87 1536.61 726.87 1385.05 595.62 1309.28 464.37 1385.05 464.37 1536.61 595.62 1612.38 726.87 1536.61"/>
    <polygon id="_11" data-name="11" class="cls-2" points="859.37 1765.96 859.37 1614.12 727.87 1538.2 596.37 1614.12 596.37 1765.96 727.87 1841.88 859.37 1765.96"/>
    <polygon id="s95" class="cls-1" points="476.37 3910.39 470.37 3962.89 345.87 4034.89 357.87 3977.89 476.37 3910.39"/>
    <polygon id="_45" data-name="45" class="cls-2" points="476.37 3910.12 476.37 3774.15 358.62 3706.17 240.87 3774.15 240.87 3910.12 358.62 3978.1 476.37 3910.12"/>
    <polygon id="xx05" class="cls-1" points="330.87 3478.39 347.37 3427.39 471.87 3499.39 462.87 3554.89 330.87 3478.39"/>
    <polygon id="xx01" class="cls-1" points="726.87 4084.39 689.37 4037.89 594.87 4091.89 594.87 4159.96 726.87 4084.39"/>
    <polygon id="xx02" class="cls-1" points="726.87 3935.89 719.37 3919.39 596.37 3847.39 597.87 3861.15 726.87 3935.89"/>
    <polygon id="xx03" class="cls-1" points="720.87 3634.39 711.87 3605.89 830.37 3674.89 843.87 3706.39 720.87 3634.39"/>
    <polygon id="xx04" class="cls-1" points="711.87 3604.39 720.87 3634.39 596.37 3706.39 596.37 3670.39 711.87 3604.39"/>
    <polygon id="xxx07" class="cls-1" points="803.37 3296.89 830.37 3382.39 714.87 3449.89 698.37 3358.39 803.37 3296.89"/>
    <polygon id="xxx06" class="cls-1" points="596.37 3296.89 596.37 3368.89 711.87 3434.89 698.37 3358.39 596.37 3296.89"/>
    <polygon id="yy1" class="cls-1" points="501.87 3085.39 413.37 3139.39 348.87 3290.89 467.12 3222.64 501.87 3085.39"/>
    <polygon id="yy2" class="cls-1" points="230.37 3296.89 315.87 3088.39 413.37 3139.39 348.87 3365.89 230.37 3296.89"/>
    <polygon id="yy3" class="cls-1" points="108.87 3365.89 224.37 3139.39 315.87 3088.39 230.37 3296.89 108.87 3365.89"/>
    <polygon id="yy4" class="cls-1" points="356.37 3403.39 330.87 3487.39 197.37 3563.89 230.37 3478.39 356.37 3403.39"/>
    <polygon id="yy5" class="cls-1" points="315.87 3410.89 224.37 3463.39 86.37 3740.89 213.87 3667.39 315.87 3410.89"/>
    <polygon id="_7" data-name="7" class="cls-2" points="1068.87 1566.69 1068.87 1385.3 911.78 1294.61 754.69 1385.3 754.69 1566.69 911.78 1657.38 1068.87 1566.69"/>
    <polygon id="_18" data-name="18" class="cls-2" points="429.87 1576.08 429.87 1386.42 265.62 1291.59 101.37 1386.42 101.37 1576.08 265.62 1670.91 429.87 1576.08"/>
    <polygon id="_16" data-name="16" class="cls-2" points="744.87 2075.8 744.87 1903.46 595.62 1817.3 446.37 1903.46 446.37 2075.8 595.62 2161.97 744.87 2075.8"/>
    <polygon id="s51" class="cls-1" points="593.37 2603.89 408.87 2497.39 464.37 2393.89 596.37 2470.39 593.37 2603.89"/>
    <polygon id="c1" class="cls-3" points="597.15 5078.89 210.19 4855.47 210.77 4407.97 597.44 4183.9 984.12 4407.97 984.12 4855.47 597.15 5078.89"/>
    <polygon id="k01" class="cls-1" points="597.87 3976.39 597.87 4183.39 984.87 4408.39 831.87 3983.89 713.37 3908.89 597.87 3976.39"/>
    <polygon id="k02" class="cls-1" points="482.37 3908.89 327.87 4126.39 210.87 4408.39 597.87 4183.39 597.87 3976.39 482.37 3908.89"/>
  </g>
</svg>
