<svg xmlns="http://www.w3.org/2000/svg" width="1200" height="4736.84" viewBox="0 0 1200 4736.84">
  <defs>
    <style>
      .cls-1 {
        fill: #f2f2f2;
      }

      .cls-1, .cls-2, .cls-3 {
        stroke: #000;
        stroke-miterlimit: 10;
      }

      .cls-2, .cls-3 {
        fill: #fff;
      }

      .cls-3 {
        stroke-width: 2px;
      }
    </style>
  </defs>
  <title>aartics_polygons_vertical</title>
  <g id="_04stage" data-name="04stage">
    <polygon id="s63" class="cls-1" points="877.35 2447.9 967.35 2498.9 1009.35 2515.4 907.35 2455.4 877.35 2447.9"/>
    <polygon id="_25" data-name="25" class="cls-2" points="1009.97 2635.41 1009.97 2516.4 906.91 2456.9 803.85 2516.4 803.85 2635.41 906.91 2694.91 1009.97 2635.41"/>
    <polygon id="s41" class="cls-1" points="803.85 2278.4 697.35 2336.9 710.85 2329.4 829.35 2261.9 803.85 2278.4"/>
    <polygon id="s88" class="cls-1" points="727.35 3701.9 727.35 3550.4 757.35 3710.9 757.35 3892.4 727.35 3701.9"/>
    <polygon id="s40" class="cls-1" points="595.35 2264.9 710.85 2329.4 697.35 2336.9 596.85 2278.4 595.35 2264.9"/>
    <polygon id="s52" class="cls-1" points="805.35 2278.4 914.85 2336.9 946.35 2329.4 827.85 2261.9 805.35 2278.4"/>
    <polygon id="s60" class="cls-1" points="475.35 2738.9 485.85 2710.4 377.85 2647.4 356.85 2671.4 475.35 2738.9"/>
    <polygon id="s62" class="cls-1" points="214.35 2471.9 314.85 2446.4 221.85 2504.9 89.85 2543.9 214.35 2471.9"/>
    <polygon id="s59" class="cls-1" points="593.85 2701.4 461.85 2777.9 485.85 2710.4 593.85 2648.9 593.85 2701.4"/>
    <polygon id="s61" class="cls-1" points="377.85 2524.4 377.85 2647.4 356.85 2671.4 340.35 2690.9 340.35 2545.4 377.85 2524.4"/>
    <polygon id="s57" class="cls-1" points="803.85 2635.4 907.35 2695.4 1069.35 2857.4 911.85 2764.4 803.85 2635.4"/>
    <polygon id="s56" class="cls-1" points="718.35 2758.4 842.85 2686.4 911.85 2764.4 754.35 2854.4 718.35 2758.4"/>
    <polygon id="s94" class="cls-1" points="319.35 3421.4 227.85 3473.9 112.35 3692.9 232.35 3623.9 319.35 3421.4"/>
    <polygon id="_42" data-name="42" class="cls-2" points="353.85 3832.36 353.85 3692.93 233.1 3623.22 112.35 3692.93 112.35 3832.36 233.1 3902.08 353.85 3832.36"/>
    <polygon id="_50" data-name="50" class="cls-2" points="949.35 3922.56 949.35 3787.45 832.34 3719.9 715.34 3787.45 715.34 3922.56 832.34 3990.12 949.35 3922.56"/>
    <polygon id="_49" data-name="49" class="cls-2" points="713.85 3909.58 713.85 3776.22 598.35 3709.53 482.85 3776.22 482.85 3909.58 598.35 3976.27 713.85 3909.58"/>
    <polygon id="_48" data-name="48" class="cls-2" points="463.35 4048.66 463.35 3893.64 329.1 3816.13 194.85 3893.64 194.85 4048.66 329.1 4126.17 463.35 4048.66"/>
    <polygon id="_51" data-name="51" class="cls-2" points="1090.35 3921.73 1090.35 3780.57 968.1 3709.99 845.85 3780.57 845.85 3921.73 968.1 3992.31 1090.35 3921.73"/>
    <polygon id="s87" class="cls-1" points="689.85 3413.9 782.85 3473.9 914.85 3982.4 757.35 3892.4 689.85 3413.9"/>
    <polygon id="s90" class="cls-1" points="782.85 3581.9 832.35 3719.9 715.35 3787.4 689.85 3637.4 782.85 3581.9"/>
    <polygon id="s92" class="cls-1" points="782.85 3256.4 914.85 3620.9 1070.85 3713.9 875.85 3317.9 782.85 3256.4"/>
    <polygon id="s91" class="cls-1" points="659.85 3328.4 757.35 3710.9 913.35 3620.9 782.85 3256.4 659.85 3328.4"/>
    <polygon id="s89" class="cls-1" points="689.85 3637.4 713.85 3776.9 598.35 3709.4 596.85 3581.9 689.85 3637.4"/>
    <polygon id="s85" class="cls-1" points="233.85 3811.4 194.85 3893.9 329.85 3815.9 353.85 3742.4 233.85 3811.4"/>
    <polygon id="s84" class="cls-1" points="343.35 3571.4 358.35 3505.4 241.35 3571.4 215.85 3644.9 343.35 3571.4"/>
    <polygon id="s82" class="cls-1" points="463.35 3400.4 482.85 3266.9 379.35 3346.4 331.35 3479.9 463.35 3400.4"/>
    <polygon id="s80" class="cls-1" points="482.85 3262.4 597.54 3328.4 598.35 3272.9 488.85 3211.4 482.85 3262.4"/>
    <polygon id="s79" class="cls-1" points="463.35 3248.9 482.85 3128.9 482.85 3262.4 463.35 3403.4 463.35 3248.9"/>
    <polygon id="s78" class="cls-1" points="596.85 3121.4 596.85 3062.9 482.85 3128.9 472.35 3193.4 596.85 3121.4"/>
    <polygon id="s77" class="cls-1" points="109.35 3094.4 230.85 3163.4 316.35 2983.4 223.35 2933.9 109.35 3094.4"/>
    <polygon id="s76" class="cls-1" points="946.35 3278.9 875.85 3098.9 782.85 3152.9 830.85 3343.4 946.35 3278.9"/>
    <polygon id="s75" class="cls-1" points="1088.85 3109.4 967.35 3049.4 875.85 3103.4 967.35 3179.9 1088.85 3109.4"/>
    <polygon id="s73" class="cls-1" points="844.35 2968.4 803.85 2878.4 803.85 2995.4 844.35 3109.4 844.35 2968.4"/>
    <polygon id="s70" class="cls-1" points="725.85 2929.4 689.85 2770.4 596.85 2825.9 593.85 3005.9 725.85 2929.4"/>
    <polygon id="s68" class="cls-1" points="712.35 3128.9 715.35 3143.9 715.35 3277.4 712.35 3262.4 712.35 3128.9"/>
    <polygon id="s66" class="cls-1" points="470.85 3839.9 463.35 3893.9 329.85 3815.9 346.35 3767.9 470.85 3839.9"/>
    <polygon id="s67" class="cls-1" points="482.85 3908.9 463.35 4048.4 463.35 3911.9 482.85 3776.9 482.85 3908.9"/>
    <polygon id="s97" class="cls-1" points="379.35 3346.4 359.85 3400.4 476.85 3467.9 487.35 3406.4 379.35 3346.4"/>
    <polygon id="s95" class="cls-1" points="476.85 3604.4 469.35 3656.9 344.85 3728.9 358.35 3671.9 476.85 3604.4"/>
    <polygon id="s93" class="cls-1" points="358.35 3671.9 353.85 3692.9 232.35 3623.9 241.35 3604.13 358.35 3671.9"/>
    <polygon id="s58" class="cls-1" points="718.35 2758.4 725.85 2777.9 593.85 2701.4 593.85 2686.4 718.35 2758.4"/>
    <polygon id="s35" class="cls-1" points="710.85 2464.4 718.35 2470.4 593.85 2542.4 593.85 2531.9 710.85 2464.4"/>
    <polygon id="s36" class="cls-1" points="710.85 2464.4 829.35 2533.4 842.85 2542.4 718.35 2470.4 710.85 2464.4"/>
    <polygon id="s83" class="cls-1" points="343.35 3427.4 379.35 3277.4 379.35 3403.4 343.35 3574.4 343.35 3427.4"/>
    <polygon id="_45" data-name="45" class="cls-2" points="476.85 3604.13 476.85 3468.17 359.1 3400.18 241.35 3468.17 241.35 3604.13 359.1 3672.12 476.85 3604.13"/>
    <polygon id="_39" data-name="39" class="cls-2" points="712.35 3262.12 712.35 3129.55 597.54 3063.26 482.74 3129.55 482.74 3262.12 597.54 3328.4 712.35 3262.12"/>
    <polygon id="_37" data-name="37" class="cls-2" points="946.35 3276.58 946.35 3143.22 830.85 3076.53 715.35 3143.22 715.35 3276.58 830.85 3343.27 946.35 3276.58"/>
    <polygon id="_36" data-name="36" class="cls-2" points="844.35 3505.91 844.35 3363.89 721.35 3292.87 598.35 3363.89 598.35 3505.91 721.35 3576.93 844.35 3505.91"/>
    <polygon id="s86" class="cls-1" points="721.35 3577.4 755.85 3710.9 755.85 3892.4 725.85 3745.4 721.35 3577.4"/>
    <polygon id="_44" data-name="44" class="cls-2" points="1069.35 3892.15 1069.35 3711.15 912.6 3620.65 755.85 3711.15 755.85 3892.15 912.6 3982.65 1069.35 3892.15"/>
    <polygon id="_43" data-name="43" class="cls-2" points="593.85 3872.78 593.85 3729.02 469.35 3657.14 344.85 3729.02 344.85 3872.78 469.35 3944.66 593.85 3872.78"/>
    <polygon id="s96" class="cls-1" points="462.66 3593.9 485.16 3407.9 595.35 3347.9 594.66 3517.4 462.66 3593.9"/>
    <polygon id="_46" data-name="46" class="cls-2" points="725.85 3745.2 725.85 3593.64 594.6 3517.86 463.35 3593.64 463.35 3745.2 594.6 3820.97 725.85 3745.2"/>
    <polygon id="_47" data-name="47" class="cls-2" points="341.85 3573.01 341.85 3425.79 214.35 3352.18 86.85 3425.79 86.85 3573.01 214.35 3646.62 341.85 3573.01"/>
    <polygon id="s81" class="cls-1" points="197.85 3403.4 214.35 3373.4 341.85 3446.9 331.35 3479.9 197.85 3403.4"/>
    <polygon id="_26" data-name="26" class="cls-2" points="710.85 2464.65 710.85 2330.42 594.6 2263.3 478.35 2330.42 478.35 2464.65 594.6 2531.77 710.85 2464.65"/>
    <polygon id="_27" data-name="27" class="cls-2" points="946.35 2465.63 946.35 2329.67 828.6 2261.68 710.85 2329.67 710.85 2465.63 828.6 2533.62 946.35 2465.63"/>
    <polygon id="_28" data-name="28" class="cls-2" points="842.85 2686.28 842.85 2542.52 718.35 2470.64 593.85 2542.52 593.85 2686.28 718.35 2758.16 842.85 2686.28"/>
    <polygon id="_33" data-name="33" class="cls-2" points="475.26 2875.27 475.26 2739.36 357.56 2671.4 239.85 2739.36 239.85 2875.27 357.56 2943.23 475.26 2875.27"/>
    <polygon id="_32" data-name="32" class="cls-2" points="352.86 3096.78 352.86 2956.2 231.1 2885.9 109.35 2956.2 109.35 3096.78 231.1 3167.08 352.86 3096.78"/>
    <polygon id="_41" data-name="41" class="cls-2" points="596.85 3121.28 596.85 2977.52 472.35 2905.64 347.85 2977.52 347.85 3121.28 472.35 3193.16 596.85 3121.28"/>
    <polygon id="s74" class="cls-1" points="842.85 3107.9 830.85 3076.4 946.35 3143.9 965.85 3178.4 842.85 3107.9"/>
    <polygon id="_38" data-name="38" class="cls-2" points="1088.85 3109.46 1088.85 2968.58 966.84 2898.14 844.84 2968.58 844.84 3109.46 966.84 3179.9 1088.85 3109.46"/>
    <polygon id="_40" data-name="40" class="cls-2" points="463.35 3402.79 463.35 3249.51 330.6 3172.86 197.85 3249.51 197.85 3402.79 330.6 3479.44 463.35 3402.79"/>
    <polygon id="s71" class="cls-1" points="461.85 2929.4 502.35 2770.4 596.85 2825.9 593.85 3005.9 461.85 2929.4"/>
    <polygon id="s69" class="cls-1" points="910.35 3125.9 803.85 2878.4 700.35 2816.9 752.85 3038.9 910.35 3125.9"/>
    <polygon id="_35" data-name="35" class="cls-2" points="725.15 2929.43 725.15 2777.41 593.5 2701.4 461.85 2777.41 461.85 2929.43 593.5 3005.44 725.15 2929.43"/>
    <polygon id="_34" data-name="34" class="cls-2" points="340.35 2691.33 340.35 2544.97 213.6 2471.79 86.85 2544.97 86.85 2691.33 213.6 2764.51 340.35 2691.33"/>
    <polygon id="s55" class="cls-1" points="725.85 2929.4 754.35 3037.4 754.35 2854.4 725.15 2776.4 725.85 2929.4"/>
    <polygon id="s72" class="cls-1" points="1067.85 3041.9 965.85 2897.9 842.85 2969.9 910.35 3131.9 1067.85 3041.9"/>
    <polygon id="_31" data-name="31" class="cls-2" points="1069.35 3039.83 1069.35 2857.97 911.85 2767.03 754.35 2857.97 754.35 3039.83 911.85 3130.76 1069.35 3039.83"/>
    <polygon id="s110" class="cls-1" points="875.85 1693.4 874.35 1790.9 886.35 1792.4 884.85 1682.9 875.85 1693.4"/>
    <polygon id="s1" class="cls-1" points="944.85 569.9 944.85 707.9 893.85 817.4 892.35 703.4 944.85 569.9"/>
    <polygon id="_2" data-name="2" class="cls-2" points="1187.85 704.32 1187.85 567.48 1069.35 499.07 950.85 567.48 950.85 704.32 1069.35 772.73 1187.85 704.32"/>
    <polygon id="s33" class="cls-1" points="1048.35 361.4 595.35 622.4 596.85 983.9 721.35 910.4 1048.35 361.4"/>
    <polygon id="s32" class="cls-1" points="142.35 361.4 487.35 1007.9 595.35 1066.4 595.35 622.4 142.35 361.4"/>
    <polygon id="s3" class="cls-1" points="433.35 730.4 272.85 823.4 377.85 1129.4 487.35 1067.9 433.35 730.4"/>
    <polygon id="s20" class="cls-1" points="910.35 1669.4 781.35 1970.9 875.85 2020.4 1069.35 1760.9 910.35 1669.4"/>
    <polygon id="s23" class="cls-1" points="596.85 1973.9 502.35 2026.4 464.85 1865.9 595.35 1789.4 596.85 1973.9"/>
    <polygon id="s50" class="cls-1" points="595.35 1666.4 595.35 1789.4 464.85 1865.9 436.35 1757.9 595.35 1666.4"/>
    <polygon id="s19" class="cls-1" points="842.85 845.9 842.85 980.9 869.85 820.4 869.85 662.9 842.85 845.9"/>
    <polygon id="s18" class="cls-1" points="911.85 802.4 856.35 1007.9 727.35 1082.9 755.85 893.9 911.85 802.4"/>
    <polygon id="s17" class="cls-1" points="596.85 1183.4 595.35 1007.9 727.35 1082.9 686.85 1235.9 596.85 1183.4"/>
    <polygon id="s16" class="cls-1" points="596.85 1183.4 505.35 1237.4 464.85 1082.9 595.35 1007.9 596.85 1183.4"/>
    <polygon id="s15" class="cls-1" points="379.35 1256.9 379.35 1129.4 341.85 1025.9 341.85 1168.4 379.35 1256.9"/>
    <polygon id="s14" class="cls-1" points="430.35 835.4 505.35 1237.4 409.35 1189.4 268.35 740.9 430.35 835.4"/>
    <polygon id="s9" class="cls-1" points="874.35 1802.9 905.85 1742.9 1009.35 1802.9 968.85 1856.9 874.35 1802.9"/>
    <polygon id="s8" class="cls-1" points="874.35 1802.9 781.35 1856.9 802.35 1802.9 905.85 1742.9 874.35 1802.9"/>
    <polygon id="s7" class="cls-1" points="781.35 1856.9 781.35 1970.9 802.35 1922.9 802.35 1802.9 781.35 1856.9"/>
    <polygon id="_9" data-name="9" class="cls-2" points="1080.18 1782.95 1080.18 1671.04 983.26 1615.08 886.35 1671.04 886.35 1782.95 983.26 1838.9 1080.18 1782.95"/>
    <polygon id="s48" class="cls-1" points="689.85 1802.9 694.35 1762.4 796.35 1820.9 781.35 1856.9 689.85 1802.9"/>
    <polygon id="s54" class="cls-1" points="1051.35 1469.9 983.85 1624.4 886.35 1679.9 938.85 1535.9 1051.35 1469.9"/>
    <polygon id="_10" data-name="10" class="cls-2" points="896.85 1763.11 896.85 1646.19 795.6 1587.74 694.35 1646.19 694.35 1763.11 795.6 1821.56 896.85 1763.11"/>
    <polygon id="_5" data-name="5" class="cls-2" points="341.85 867.13 341.85 719.9 214.35 646.29 86.85 719.9 86.85 867.13 214.35 940.74 341.85 867.13"/>
    <polygon id="s43" class="cls-1" points="101.85 1025.9 230.85 1306.4 352.35 1375.4 266.85 1120.4 101.85 1025.9"/>
    <polygon id="s53" class="cls-1" points="110.85 1420.4 232.35 1489.4 314.85 1696.4 223.35 1646.9 110.85 1420.4"/>
    <polygon id="_14" data-name="14" class="cls-2" points="352.35 1417.4 352.35 1277.93 231.6 1208.22 110.85 1277.93 110.85 1417.37 231.6 1487.08 352.35 1417.4"/>
    <polygon id="_13" data-name="13" class="cls-2" points="596.85 1346.81 596.85 1202.18 471.6 1129.87 346.35 1202.18 346.35 1346.81 471.6 1419.12 596.85 1346.81"/>
    <polygon id="s29" class="cls-1" points="314.85 2133.65 232.35 2047.4 110.85 2117.9 223.35 2185.4 314.85 2133.65"/>
    <polygon id="_23" data-name="23" class="cls-2" points="353.36 2257.42 353.36 2117.41 232.1 2047.4 110.85 2117.41 110.85 2257.42 232.1 2327.43 353.36 2257.42"/>
    <polygon id="s27" class="cls-1" points="410.85 2186.9 409.35 2291.9 353.85 2254.4 353.85 2117.9 410.85 2186.9"/>
    <polygon id="s28" class="cls-1" points="314.85 2132.9 410.85 2186.9 353.85 2117.9 232.35 2047.4 314.85 2132.9"/>
    <polygon id="_19" data-name="19" class="cls-2" points="471.66 2040.44 471.66 1897.08 347.5 1825.4 223.35 1897.08 223.35 2040.44 347.5 2112.12 471.66 2040.44"/>
    <polygon id="s26" class="cls-1" points="31.35 1582.4 223.35 1861.4 314.85 1804.4 173.85 1504.4 31.35 1582.4"/>
    <polygon id="_15" data-name="15" class="cls-2" points="461.85 1532.3 461.85 1378.08 328.3 1300.98 194.75 1378.08 194.75 1532.3 328.3 1609.4 461.85 1532.3"/>
    <polygon id="s42" class="cls-1" points="824.85 1469.9 795.6 1586.9 896.85 1645.4 938.85 1535.9 824.85 1469.9"/>
    <polygon id="_8" data-name="8" class="cls-2" points="1052.85 1469.72 1052.85 1338.08 938.85 1272.26 824.85 1338.08 824.85 1469.72 938.85 1535.54 1052.85 1469.72"/>
    <polygon id="s2" class="cls-1" points="869.85 662.9 1007.85 583.4 874.35 820.4 848.85 797.9 869.85 662.9"/>
    <polygon id="_6" data-name="6" class="cls-2" points="844.66 1054.51 844.66 911.44 720.75 839.9 596.85 911.44 596.85 1054.51 720.75 1126.04 844.66 1054.51"/>
    <polygon id="s45" class="cls-1" points="464.85 1235.9 472.35 1276.4 595.35 1346.9 596.1 1310.9 464.85 1235.9"/>
    <polygon id="_12" data-name="12" class="cls-2" points="727.35 1235.12 727.35 1083.57 596.1 1007.79 464.85 1083.57 464.85 1235.12 596.1 1310.9 727.35 1235.12"/>
    <polygon id="_11" data-name="11" class="cls-2" points="859.85 1336.98 859.85 1185.13 728.35 1109.21 596.85 1185.13 596.85 1336.98 728.35 1412.9 859.85 1336.98"/>
    <polygon id="s100" class="cls-1" points="859.35 1333.4 728.85 1408.4 694.35 1646.9 794.85 1588.4 859.35 1333.4"/>
    <polygon id="s49" class="cls-1" points="745.35 1454.9 688.35 1802.9 595.33 1856.9 596.1 1540.4 745.35 1454.9"/>
    <polygon id="_16" data-name="16" class="cls-2" points="745.35 1450.32 745.35 1277.98 596.1 1191.81 446.85 1277.98 446.85 1450.32 596.1 1536.49 745.35 1450.32"/>
    <polygon id="s4" class="cls-1" points="727.35 1082.9 754.35 895.4 755.85 1072.4 728.85 1235.9 727.35 1082.9"/>
    <polygon id="_17" data-name="17" class="cls-2" points="1009.35 1922.77 1009.35 1803.26 905.85 1743.5 802.35 1803.26 802.35 1922.77 905.85 1982.53 1009.35 1922.77"/>
    <polygon id="s34" class="cls-1" points="1144.35 820.4 1070.85 908.9 1069.35 892.4 1043.85 878.9 1144.35 820.4"/>
    <polygon id="_3" data-name="3" class="cls-2" points="433.35 729.75 433.35 543.55 272.1 450.45 110.85 543.55 110.85 729.75 272.1 822.85 433.35 729.75"/>
    <polygon id="_4" data-name="4" class="cls-2" points="1144.35 820.89 1144.35 662.41 1007.1 583.17 869.85 662.41 869.85 820.89 1007.1 900.13 1144.35 820.89"/>
    <polygon id="s107" class="cls-1" points="1069.35 1942.4 875.85 2126.9 781.35 2180.9 911.85 2032.4 1069.35 1942.4"/>
    <polygon id="s106" class="cls-1" points="752.85 1942.4 911.85 2032.4 781.35 2180.9 689.85 2129.9 727.62 2017.5 752.85 1942.4"/>
    <polygon id="s65" class="cls-1" points="328.35 1591.4 328.35 1749.26 314.85 1738.4 314.85 1574.9 328.35 1591.4"/>
    <polygon id="s21" class="cls-1" points="781.35 1970.9 689.85 2024.9 752.85 1754.9 910.35 1663.4 781.35 1970.9"/>
    <polygon id="s30" class="cls-1" points="727.35 1865.9 727.35 2017.4 752.85 1940.9 752.85 1754.9 727.35 1865.9"/>
    <polygon id="s22" class="cls-1" points="689.85 2024.9 596.85 1973.9 595.35 1789.4 727.35 1865.9 689.85 2024.9"/>
    <polygon id="_24" data-name="24" class="cls-2" points="1069.35 1941.52 1069.35 1758.78 911.1 1667.42 752.85 1758.78 752.85 1941.52 911.1 2032.88 1069.35 1941.52"/>
    <polygon id="s102" class="cls-1" points="31.35 1745.9 226.35 1972.4 226.35 1895.9 172.35 1828.4 31.35 1745.9"/>
    <polygon id="_21" data-name="21" class="cls-2" points="314.85 1745.99 314.85 1582.31 173.1 1500.47 31.35 1582.31 31.35 1745.99 173.1 1827.83 314.85 1745.99"/>
    <polygon id="s64" class="cls-1" points="172.35 1828.4 314.85 1745.9 347.85 1823.9 226.35 1895.9 172.35 1828.4"/>
    <polygon id="s47" class="cls-1" points="755.85 1072.4 911.85 1165.4 859.35 1307.9 727.35 1234.4 755.85 1072.4"/>
    <polygon id="s46" class="cls-1" points="1069.35 1075.4 911.85 1165.4 859.35 1310.9 859.85 1395.87 938.85 1349.9 1069.35 1075.4"/>
    <polygon id="s44" class="cls-1" points="266.85 1120.4 346.35 1346.9 472.35 1276.4 430.35 1025.9 266.85 1120.4"/>
    <polygon id="s5" class="cls-1" points="464.85 1235.9 430.35 1025.9 430.35 835.4 464.85 1082.9 464.85 1235.9"/>
    <polygon id="s37" class="cls-1" points="193.35 2320.4 232.35 2327.9 353.85 2257.4 328.35 2240.9 193.35 2320.4"/>
    <polygon id="s108" class="cls-1" points="328.35 2552.9 374.85 2524.4 478.35 2464.4 461.85 2476.4 328.35 2552.9"/>
    <polygon id="_29" data-name="29" class="cls-2" points="461.85 2475.16 461.85 2320.14 327.6 2242.63 193.35 2320.14 193.35 2475.16 327.6 2552.67 461.85 2475.16"/>
    <polygon id="s104" class="cls-1" points="410.85 2291.9 478.35 2330.9 595.35 2263.4 593.85 2185.4 410.85 2291.9"/>
    <polygon id="_7" data-name="7" class="cls-2" points="1069.35 1074.7 1069.35 893.32 912.26 802.62 755.17 893.32 755.17 1074.7 912.26 1165.4 1069.35 1074.7"/>
    <polygon id="s105" class="cls-1" points="689.85 2129.9 593.85 2185.4 595.35 2093.9 727.35 2017.4 689.85 2129.9"/>
    <polygon id="_22" data-name="22" class="cls-2" points="727.35 2017.43 727.35 1865.87 596.1 1790.1 464.85 1865.87 464.85 2017.43 596.1 2093.2 727.35 2017.43"/>
    <polygon id="s103" class="cls-1" points="461.85 2320.4 461.85 2474.9 478.35 2464.4 478.35 2330.9 461.85 2320.4"/>
    <polygon id="s101" class="cls-1" points="278.85 1666.4 347.85 1825.4 472.35 1895.9 436.35 1757.9 278.85 1666.4"/>
    <polygon id="s99" class="cls-1" points="341.85 1025.9 272.85 823.4 110.85 730.4 214.35 941.9 341.85 1025.9"/>
    <polygon id="_18" data-name="18" class="cls-2" points="430.35 1025.6 430.35 835.94 266.1 741.11 101.85 835.94 101.85 1025.6 266.1 1120.42 430.35 1025.6"/>
    <polygon id="_20" data-name="20" class="cls-2" points="595.33 1666.4 595.33 1483.4 436.85 1391.9 278.37 1483.4 278.37 1666.4 436.85 1757.9 595.33 1666.4"/>
    <polygon id="_30" data-name="30" class="cls-2" points="593.85 2185.74 593.85 1973.56 410.1 1867.47 226.35 1973.56 226.35 2185.74 410.1 2291.83 593.85 2185.74"/>
    <polygon id="s98" class="cls-1" points="433.35 542.9 487.35 952.4 487.35 1067.9 433.35 730.4 433.35 542.9"/>
    <polygon id="s11" class="cls-1" points="461.85 1388.9 461.85 1336.4 328.35 1258.4 352.35 1319.9 461.85 1388.9"/>
    <polygon id="s10" class="cls-1" points="194.85 1336.4 232.35 1388.9 352.35 1319.9 328.35 1258.4 194.85 1336.4"/>
    <polygon id="s6" class="cls-1" points="728.85 1343.9 745.35 1276.4 596.85 1192.4 596.85 1267.4 728.85 1343.9"/>
    <polygon id="s12" class="cls-1" points="596.85 1220.9 596.85 1190.9 446.85 1276.4 470.85 1292.9 596.85 1220.9"/>
    <polygon id="s25" class="cls-1" points="595.35 1550.9 464.85 1474.4 436.35 1394.9 593.85 1486.4 595.35 1550.9"/>
    <polygon id="s24" class="cls-1" points="461.85 1465.4 328.35 1540.4 278.85 1484.9 436.35 1394.9 461.85 1465.4"/>
    <polygon id="s31" class="cls-1" points="328.35 1597.4 314.85 1580.9 173.85 1498.4 194.85 1520.9 328.35 1597.4"/>
    <polygon id="s38" class="cls-1" points="472.35 2041.4 347.85 2113.4 226.35 1973.9 410.85 1867.4 472.35 2041.4"/>
    <polygon id="_1" data-name="1" class="cls-3" points="595.01 619.4 141.68 357.67 142.35 -166.6 595.35 -429.1 1048.35 -166.6 1048.35 357.67 595.01 619.4"/>
    <polygon id="xx05" class="cls-1" points="331.35 3172.4 347.85 3121.4 472.35 3193.4 463.35 3248.9 331.35 3172.4"/>
    <polygon id="xx01" class="cls-1" points="727.35 3742.4 689.85 3695.9 595.35 3749.9 595.35 3817.97 727.35 3742.4"/>
    <polygon id="xx02" class="cls-1" points="727.35 3593.9 719.85 3577.4 596.85 3505.4 598.35 3519.16 727.35 3593.9"/>
    <polygon id="xx03" class="cls-1" points="721.35 3292.4 712.35 3263.9 830.85 3332.9 844.35 3364.4 721.35 3292.4"/>
    <polygon id="xx04" class="cls-1" points="712.35 3262.4 721.35 3292.4 596.85 3364.4 596.85 3328.4 712.35 3262.4"/>
    <polygon id="xxx07" class="cls-1" points="803.85 2990.9 830.85 3076.4 715.35 3143.9 698.85 3052.4 803.85 2990.9"/>
    <polygon id="xxx06" class="cls-1" points="596.85 2990.9 596.85 3062.9 712.35 3128.9 698.85 3052.4 596.85 2990.9"/>
    <polygon id="yy1" class="cls-1" points="502.35 2770.4 413.85 2824.4 344.85 2978.9 467.6 2907.65 502.35 2770.4"/>
    <polygon id="yy2" class="cls-1" points="230.85 2885.9 316.35 2773.4 413.85 2824.4 353.85 2956.4 230.85 2885.9"/>
    <polygon id="yy3" class="cls-1" points="109.35 2954.9 224.85 2824.4 316.35 2773.4 230.85 2885.9 109.35 2954.9"/>
    <polygon id="yy4" class="cls-1" points="356.85 3088.4 331.35 3172.4 197.85 3248.9 230.85 3163.4 356.85 3088.4"/>
    <polygon id="yy5" class="cls-1" points="316.35 3095.9 224.85 3148.4 86.85 3425.9 214.35 3352.4 316.35 3095.9"/>
    <polygon id="s51" class="cls-1" points="593.85 1975.4 409.35 1868.9 461.85 2011.4 593.85 2087.9 593.85 1975.4"/>
    <polygon id="c1" class="cls-3" points="597.64 5078.9 210.68 4855.49 211.25 4407.98 597.92 4183.91 984.6 4407.98 984.6 4855.49 597.64 5078.9"/>
    <polygon id="k01" class="cls-1" points="598.35 3976.4 598.35 4183.4 985.35 4408.4 832.35 3983.9 713.85 3908.9 598.35 3976.4"/>
    <polygon id="k02" class="cls-1" points="482.85 3908.9 328.35 4126.4 211.35 4408.4 598.35 4183.4 598.35 3976.4 482.85 3908.9"/>
  </g>
</svg>
